mtllib altar.mtl
usemtl altar
v -1.7 0 -1.7
v 1.7 0 -1.7
v 1.7 0.5 -1.7
v -1.7 0.5 -1.7
v -1.7 0 1.7
v 1.7 0 1.7
v 1.7 0.5 1.7
v -1.7 0.5 1.7
vt 0.012 0.012
vt 0.154667 0.012
vt 0.154667 0.321333
vt 0.012 0.321333
f 5/1 6/2 7/3 8/4
vt 0.178667 0.012
vt 0.321333 0.012
vt 0.321333 0.321333
vt 0.178667 0.321333
f 2/5 1/6 4/7 3/8
vt 0.345333 0.012
vt 0.488 0.012
vt 0.488 0.321333
vt 0.345333 0.321333
f 1/9 5/10 8/11 4/12
vt 0.512 0.012
vt 0.654667 0.012
vt 0.654667 0.321333
vt 0.512 0.321333
f 6/13 2/14 3/15 7/16
vt 0.678667 0.012
vt 0.821333 0.012
vt 0.821333 0.321333
vt 0.678667 0.321333
f 8/17 7/18 3/19 4/20
vt 0.845333 0.012
vt 0.988 0.012
vt 0.988 0.321333
vt 0.845333 0.321333
f 1/21 2/22 6/23 5/24
v -1 0.5 -1
v 1 0.5 -1
v 1 1.4 -1
v -1 1.4 -1
v -1 0.5 1
v 1 0.5 1
v 1 1.4 1
v -1 1.4 1
vt 0.012 0.345333
vt 0.154667 0.345333
vt 0.154667 0.654667
vt 0.012 0.654667
f 13/25 14/26 15/27 16/28
vt 0.178667 0.345333
vt 0.321333 0.345333
vt 0.321333 0.654667
vt 0.178667 0.654667
f 10/29 9/30 12/31 11/32
vt 0.345333 0.345333
vt 0.488 0.345333
vt 0.488 0.654667
vt 0.345333 0.654667
f 9/33 13/34 16/35 12/36
vt 0.512 0.345333
vt 0.654667 0.345333
vt 0.654667 0.654667
vt 0.512 0.654667
f 14/37 10/38 11/39 15/40
vt 0.678667 0.345333
vt 0.821333 0.345333
vt 0.821333 0.654667
vt 0.678667 0.654667
f 16/41 15/42 11/43 12/44
vt 0.845333 0.345333
vt 0.988 0.345333
vt 0.988 0.654667
vt 0.845333 0.654667
f 9/45 10/46 14/47 13/48
v -0.5 1.4 -0.5
v 0.5 1.4 -0.5
v 0.5 2.2 -0.5
v -0.5 2.2 -0.5
v -0.5 1.4 0.5
v 0.5 1.4 0.5
v 0.5 2.2 0.5
v -0.5 2.2 0.5
vt 0.012 0.678667
vt 0.154667 0.678667
vt 0.154667 0.988
vt 0.012 0.988
f 21/49 22/50 23/51 24/52
vt 0.178667 0.678667
vt 0.321333 0.678667
vt 0.321333 0.988
vt 0.178667 0.988
f 18/53 17/54 20/55 19/56
vt 0.345333 0.678667
vt 0.488 0.678667
vt 0.488 0.988
vt 0.345333 0.988
f 17/57 21/58 24/59 20/60
vt 0.512 0.678667
vt 0.654667 0.678667
vt 0.654667 0.988
vt 0.512 0.988
f 22/61 18/62 19/63 23/64
vt 0.678667 0.678667
vt 0.821333 0.678667
vt 0.821333 0.988
vt 0.678667 0.988
f 24/65 23/66 19/67 20/68
vt 0.845333 0.678667
vt 0.988 0.678667
vt 0.988 0.988
vt 0.845333 0.988
f 17/69 18/70 22/71 21/72
