# pine - generated for the night-walk example (see README)
mtllib props.mtl
v 0.0495 0.0000 0.0495
v 0.0495 0.5800 0.0495
v -0.0495 0.0000 0.0495
v -0.0495 0.5800 0.0495
v -0.0495 0.0000 -0.0495
v -0.0495 0.5800 -0.0495
v 0.0495 0.0000 -0.0495
v 0.0495 0.5800 -0.0495
v 0.4400 0.5000 0.0000
v 0.2200 0.5000 0.3811
v -0.2200 0.5000 0.3811
v -0.4400 0.5000 0.0000
v -0.2200 0.5000 -0.3811
v 0.2200 0.5000 -0.3811
v 0.0000 1.4000 0.0000
v 0.3400 1.0000 0.0000
v 0.1700 1.0000 0.2944
v -0.1700 1.0000 0.2944
v -0.3400 1.0000 0.0000
v -0.1700 1.0000 -0.2944
v 0.1700 1.0000 -0.2944
v 0.0000 1.9000 0.0000
v 0.2400 1.5000 0.0000
v 0.1200 1.5000 0.2078
v -0.1200 1.5000 0.2078
v -0.2400 1.5000 0.0000
v -0.1200 1.5000 -0.2078
v 0.1200 1.5000 -0.2078
v 0.0000 2.4000 0.0000
v 0.1400 1.9800 0.0000
v 0.0700 1.9800 0.1212
v -0.0700 1.9800 0.1212
v -0.1400 1.9800 0.0000
v -0.0700 1.9800 -0.1212
v 0.0700 1.9800 -0.1212
v 0.0000 2.9500 0.0000
usemtl bark
f 1 3 4
f 1 4 2
f 3 5 6
f 3 6 4
f 5 7 8
f 5 8 6
f 7 1 2
f 7 2 8
usemtl needles
f 9 10 15
f 10 11 15
f 11 12 15
f 12 13 15
f 13 14 15
f 14 9 15
f 16 17 22
f 17 18 22
f 18 19 22
f 19 20 22
f 20 21 22
f 21 16 22
f 23 24 29
f 24 25 29
f 25 26 29
f 26 27 29
f 27 28 29
f 28 23 29
f 30 31 36
f 31 32 36
f 32 33 36
f 33 34 36
f 34 35 36
f 35 30 36
