# Generated by TyraX. Do not edit - rebaked from the procedural graph of 'pines'.
# 26 instances of res/models/pine.obj
mtllib props.mtl
v 2.5021 31.5453 -61.4748
v 2.2827 34.2090 -61.5074
v 2.8070 34.2558 -61.2076
v 2.5021 31.5453 -61.4748
v 3.1064 34.2741 -61.7339
v 2.2827 34.2090 -61.5074
v 3.1064 34.2741 -61.7339
v 2.5021 31.5453 -61.4748
v 2.8070 34.2558 -61.2076
v 2.2827 34.2090 -61.5074
v 3.1064 34.2741 -61.7339
v 2.8070 34.2558 -61.2076
v -9.5267 30.9995 -34.7392
v -9.4446 32.8466 -34.7231
v -9.0567 32.8279 -34.5655
v -9.5267 30.9995 -34.7392
v -8.8991 32.8243 -34.9538
v -9.4446 32.8466 -34.7231
v -8.8991 32.8243 -34.9538
v -9.5267 30.9995 -34.7392
v -9.0567 32.8279 -34.5655
v -9.4446 32.8466 -34.7231
v -8.8991 32.8243 -34.9538
v -9.0567 32.8279 -34.5655
v 54.4966 29.5154 -63.8460
v 54.5168 31.2821 -63.7797
v 54.1487 31.2804 -63.6212
v 54.4966 29.5154 -63.8460
v 54.3072 31.2648 -63.2534
v 54.5168 31.2821 -63.7797
v 54.3072 31.2648 -63.2534
v 54.4966 29.5154 -63.8460
v 54.1487 31.2804 -63.6212
v 54.5168 31.2821 -63.7797
v 54.3072 31.2648 -63.2534
v 54.1487 31.2804 -63.6212
v 30.5297 28.7887 21.8935
v 30.4657 30.3511 21.9293
v 30.7273 30.3673 21.6905
v 30.5297 28.7887 21.8935
v 30.4884 30.3635 21.4285
v 30.4657 30.3511 21.9293
v 30.4884 30.3635 21.4285
v 30.5297 28.7887 21.8935
v 30.7273 30.3673 21.6905
v 30.4657 30.3511 21.9293
v 30.4884 30.3635 21.4285
v 30.7273 30.3673 21.6905
v -5.8715 29.9965 -8.3559
v -5.8633 32.9693 -8.3199
v -5.6490 32.9764 -8.9588
v -5.8715 29.9965 -8.3559
v -6.2878 32.9808 -9.1731
v -5.8633 32.9693 -8.3199
v -6.2878 32.9808 -9.1731
v -5.8715 29.9965 -8.3559
v -5.6490 32.9764 -8.9588
v -5.8633 32.9693 -8.3199
v -6.2878 32.9808 -9.1731
v -5.6490 32.9764 -8.9588
v 68.3766 27.7771 42.3173
v 68.4941 29.7985 42.4845
v 68.9284 29.7859 42.3316
v 68.3766 27.7771 42.3173
v 68.7773 29.8305 41.8989
v 68.4941 29.7985 42.4845
v 68.7773 29.8305 41.8989
v 68.3766 27.7771 42.3173
v 68.9284 29.7859 42.3316
v 68.4941 29.7985 42.4845
v 68.7773 29.8305 41.8989
v 68.9284 29.7859 42.3316
v -26.6682 29.2733 -3.1212
v -26.4988 31.1087 -3.1416
v -26.8083 31.1403 -2.8627
v -26.6682 29.2733 -3.1212
v -26.5303 31.1181 -2.5517
v -26.4988 31.1087 -3.1416
v -26.5303 31.1181 -2.5517
v -26.6682 29.2733 -3.1212
v -26.8083 31.1403 -2.8627
v -26.4988 31.1087 -3.1416
v -26.5303 31.1181 -2.5517
v -26.8083 31.1403 -2.8627
v -68.5845 26.4383 11.2506
v -68.5786 27.7379 11.2619
v -68.8553 27.7383 11.3632
v -68.5845 26.4383 11.2506
v -68.7541 27.7354 11.6398
v -68.5786 27.7379 11.2619
v -68.7541 27.7354 11.6398
v -68.5845 26.4383 11.2506
v -68.8553 27.7383 11.3632
v -68.5786 27.7379 11.2619
v -68.7541 27.7354 11.6398
v -68.8553 27.7383 11.3632
v -61.3549 25.1615 21.6693
v -61.3007 26.9464 21.6830
v -61.2682 26.9424 22.0865
v -61.3549 25.1615 21.6693
v -60.8649 26.9303 22.0538
v -61.3007 26.9464 21.6830
v -60.8649 26.9303 22.0538
v -61.3549 25.1615 21.6693
v -61.2682 26.9424 22.0865
v -61.3007 26.9464 21.6830
v -60.8649 26.9303 22.0538
v -61.2682 26.9424 22.0865
v 2.0538 31.5970 -52.7270
v 2.1398 32.9636 -52.7123
v 1.8347 32.9822 -52.6582
v 2.0538 31.5970 -52.7270
v 1.8886 32.9755 -52.3526
v 2.1398 32.9636 -52.7123
v 1.8886 32.9755 -52.3526
v 2.0538 31.5970 -52.7270
v 1.8347 32.9822 -52.6582
v 2.1398 32.9636 -52.7123
v 1.8886 32.9755 -52.3526
v 1.8347 32.9822 -52.6582
v 29.2573 28.9953 7.8027
v 29.3936 30.8208 7.7008
v 28.9796 30.8527 7.7187
v 29.2573 28.9953 7.8027
v 28.9992 30.8744 8.1332
v 29.3936 30.8208 7.7008
v 28.9992 30.8744 8.1332
v 29.2573 28.9953 7.8027
v 28.9796 30.8527 7.7187
v 29.3936 30.8208 7.7008
v 28.9992 30.8744 8.1332
v 28.9796 30.8527 7.7187
v 30.1144 31.5527 -74.3253
v 30.1596 33.0857 -74.2949
v 30.2347 33.0902 -74.6344
v 30.1144 31.5527 -74.3253
v 29.8954 33.1017 -74.7093
v 30.1596 33.0857 -74.2949
v 29.8954 33.1017 -74.7093
v 30.1144 31.5527 -74.3253
v 30.2347 33.0902 -74.6344
v 30.1596 33.0857 -74.2949
v 29.8954 33.1017 -74.7093
v 30.2347 33.0902 -74.6344
v -61.8110 30.7583 -73.8407
v -62.0474 33.0562 -73.7757
v -61.6480 33.0877 -73.4383
v -61.8110 30.7583 -73.8407
v -61.3134 33.1335 -73.8387
v -62.0474 33.0562 -73.7757
v -61.3134 33.1335 -73.8387
v -61.8110 30.7583 -73.8407
v -61.6480 33.0877 -73.4383
v -62.0474 33.0562 -73.7757
v -61.3134 33.1335 -73.8387
v -61.6480 33.0877 -73.4383
v 43.5819 28.7900 30.0775
v 43.5872 31.1482 30.1319
v 43.8074 31.1364 30.6190
v 43.5819 28.7900 30.0775
v 44.2946 31.1404 30.3989
v 43.5872 31.1482 30.1319
v 44.2946 31.1404 30.3989
v 43.5819 28.7900 30.0775
v 43.8074 31.1364 30.6190
v 43.5872 31.1482 30.1319
v 44.2946 31.1404 30.3989
v 43.8074 31.1364 30.6190
v -6.6706 24.7365 74.9435
v -6.7407 26.4177 75.0007
v -6.5164 26.4375 74.6926
v -6.6706 24.7365 74.9435
v -6.8248 26.4323 74.4678
v -6.7407 26.4177 75.0007
v -6.8248 26.4323 74.4678
v -6.6706 24.7365 74.9435
v -6.5164 26.4375 74.6926
v -6.7407 26.4177 75.0007
v -6.8248 26.4323 74.4678
v -6.5164 26.4375 74.6926
v 6.0839 30.2093 -14.4519
v 5.9499 32.8729 -14.5619
v 5.6949 32.8828 -14.0134
v 6.0839 30.2093 -14.4519
v 6.2427 32.9208 -13.7594
v 5.9499 32.8729 -14.5619
v 6.2427 32.9208 -13.7594
v 6.0839 30.2093 -14.4519
v 5.6949 32.8828 -14.0134
v 5.9499 32.8729 -14.5619
v 6.2427 32.9208 -13.7594
v 5.6949 32.8828 -14.0134
v -56.4411 24.0070 30.4057
v -56.4515 26.0200 30.4025
v -56.4246 26.0208 30.8580
v -56.4411 24.0070 30.4057
v -55.9691 26.0231 30.8311
v -56.4515 26.0200 30.4025
v -55.9691 26.0231 30.8311
v -56.4411 24.0070 30.4057
v -56.4246 26.0208 30.8580
v -56.4515 26.0200 30.4025
v -55.9691 26.0231 30.8311
v -56.4246 26.0208 30.8580
v -3.7324 31.3965 -42.4028
v -3.4336 33.3774 -42.3613
v -3.3264 33.3705 -42.8026
v -3.7324 31.3965 -42.4028
v -3.7625 33.4385 -42.9096
v -3.4336 33.3774 -42.3613
v -3.7625 33.4385 -42.9096
v -3.7324 31.3965 -42.4028
v -3.3264 33.3705 -42.8026
v -3.4336 33.3774 -42.3613
v -3.7625 33.4385 -42.9096
v -3.3264 33.3705 -42.8026
v -44.0856 29.0649 -8.4559
v -43.8812 30.6573 -8.4062
v -43.7314 30.6485 -8.7379
v -44.0856 29.0649 -8.4559
v -44.0600 30.6953 -8.8875
v -43.8812 30.6573 -8.4062
v -44.0600 30.6953 -8.8875
v -44.0856 29.0649 -8.4559
v -43.7314 30.6485 -8.7379
v -43.8812 30.6573 -8.4062
v -44.0600 30.6953 -8.8875
v -43.7314 30.6485 -8.7379
v 47.0688 29.4803 -46.4722
v 47.1293 31.1641 -46.5054
v 47.5063 31.1517 -46.4455
v 47.0688 29.4803 -46.4722
v 47.5660 31.1421 -46.8226
v 47.1293 31.1641 -46.5054
v 47.5660 31.1421 -46.8226
v 47.0688 29.4803 -46.4722
v 47.5063 31.1517 -46.4455
v 47.1293 31.1641 -46.5054
v 47.5660 31.1421 -46.8226
v 47.5063 31.1517 -46.4455
v -4.8772 29.9971 -16.8548
v -4.6924 31.9256 -16.8892
v -4.5536 31.9197 -16.4725
v -4.8772 29.9971 -16.8548
v -4.1391 31.8775 -16.6112
v -4.6924 31.9256 -16.8892
v -4.1391 31.8775 -16.6112
v -4.8772 29.9971 -16.8548
v -4.5536 31.9197 -16.4725
v -4.6924 31.9256 -16.8892
v -4.1391 31.8775 -16.6112
v -4.5536 31.9197 -16.4725
v 31.1534 31.0484 -27.6878
v 31.1106 32.9742 -27.6925
v 31.0305 32.9735 -27.2632
v 31.1534 31.0484 -27.6878
v 31.4596 32.9832 -27.1831
v 31.1106 32.9742 -27.6925
v 31.4596 32.9832 -27.1831
v 31.1534 31.0484 -27.6878
v 31.0305 32.9735 -27.2632
v 31.1106 32.9742 -27.6925
v 31.4596 32.9832 -27.1831
v 31.0305 32.9735 -27.2632
v -50.8976 30.5043 -51.4777
v -50.7607 32.4745 -51.4857
v -51.0503 32.4960 -51.1450
v -50.8976 30.5043 -51.4777
v -50.7103 32.4736 -50.8546
v -50.7607 32.4745 -51.4857
v -50.7103 32.4736 -50.8546
v -50.8976 30.5043 -51.4777
v -51.0503 32.4960 -51.1450
v -50.7607 32.4745 -51.4857
v -50.7103 32.4736 -50.8546
v -51.0503 32.4960 -51.1450
v -19.1371 31.1125 -36.6483
v -19.2202 33.1975 -36.4406
v -18.7510 33.2233 -36.5123
v -19.1371 31.1125 -36.6483
v -18.8250 33.2669 -36.9798
v -19.2202 33.1975 -36.4406
v -18.8250 33.2669 -36.9798
v -19.1371 31.1125 -36.6483
v -18.7510 33.2233 -36.5123
v -19.2202 33.1975 -36.4406
v -18.8250 33.2669 -36.9798
v -18.7510 33.2233 -36.5123
v -38.6875 22.1703 53.8534
v -38.7873 24.6833 53.8540
v -39.3144 24.6623 54.0701
v -38.6875 22.1703 53.8534
v -39.0984 24.6708 54.5977
v -38.7873 24.6833 53.8540
v -39.0984 24.6708 54.5977
v -38.6875 22.1703 53.8534
v -39.3144 24.6623 54.0701
v -38.7873 24.6833 53.8540
v -39.0984 24.6708 54.5977
v -39.3144 24.6623 54.0701
v -13.5392 24.4611 68.6643
v -13.3874 26.3208 68.6077
v -13.6832 26.3541 68.9084
v -13.5392 24.4611 68.6643
v -13.3826 26.3387 69.2058
v -13.3874 26.3208 68.6077
v -13.3826 26.3387 69.2058
v -13.5392 24.4611 68.6643
v -13.6832 26.3541 68.9084
v -13.3874 26.3208 68.6077
v -13.3826 26.3387 69.2058
v -13.6832 26.3541 68.9084
vt 0.00000 1.00000
vt 0.00000 1.00000
vt 0.00000 1.00000
vt 0.00000 1.00000
vt 0.00000 1.00000
vt 0.00000 1.00000
vt 0.00000 1.00000
vt 0.00000 1.00000
vt 0.00000 1.00000
vt 0.00000 1.00000
vt 0.00000 1.00000
vt 0.00000 1.00000
vt 0.00000 1.00000
vt 0.00000 1.00000
vt 0.00000 1.00000
vt 0.00000 1.00000
vt 0.00000 1.00000
vt 0.00000 1.00000
vt 0.00000 1.00000
vt 0.00000 1.00000
vt 0.00000 1.00000
vt 0.00000 1.00000
vt 0.00000 1.00000
vt 0.00000 1.00000
vt 0.00000 1.00000
vt 0.00000 1.00000
vt 0.00000 1.00000
vt 0.00000 1.00000
vt 0.00000 1.00000
vt 0.00000 1.00000
vt 0.00000 1.00000
vt 0.00000 1.00000
vt 0.00000 1.00000
vt 0.00000 1.00000
vt 0.00000 1.00000
vt 0.00000 1.00000
vt 0.00000 1.00000
vt 0.00000 1.00000
vt 0.00000 1.00000
vt 0.00000 1.00000
vt 0.00000 1.00000
vt 0.00000 1.00000
vt 0.00000 1.00000
vt 0.00000 1.00000
vt 0.00000 1.00000
vt 0.00000 1.00000
vt 0.00000 1.00000
vt 0.00000 1.00000
vt 0.00000 1.00000
vt 0.00000 1.00000
vt 0.00000 1.00000
vt 0.00000 1.00000
vt 0.00000 1.00000
vt 0.00000 1.00000
vt 0.00000 1.00000
vt 0.00000 1.00000
vt 0.00000 1.00000
vt 0.00000 1.00000
vt 0.00000 1.00000
vt 0.00000 1.00000
vt 0.00000 1.00000
vt 0.00000 1.00000
vt 0.00000 1.00000
vt 0.00000 1.00000
vt 0.00000 1.00000
vt 0.00000 1.00000
vt 0.00000 1.00000
vt 0.00000 1.00000
vt 0.00000 1.00000
vt 0.00000 1.00000
vt 0.00000 1.00000
vt 0.00000 1.00000
vt 0.00000 1.00000
vt 0.00000 1.00000
vt 0.00000 1.00000
vt 0.00000 1.00000
vt 0.00000 1.00000
vt 0.00000 1.00000
vt 0.00000 1.00000
vt 0.00000 1.00000
vt 0.00000 1.00000
vt 0.00000 1.00000
vt 0.00000 1.00000
vt 0.00000 1.00000
vt 0.00000 1.00000
vt 0.00000 1.00000
vt 0.00000 1.00000
vt 0.00000 1.00000
vt 0.00000 1.00000
vt 0.00000 1.00000
vt 0.00000 1.00000
vt 0.00000 1.00000
vt 0.00000 1.00000
vt 0.00000 1.00000
vt 0.00000 1.00000
vt 0.00000 1.00000
vt 0.00000 1.00000
vt 0.00000 1.00000
vt 0.00000 1.00000
vt 0.00000 1.00000
vt 0.00000 1.00000
vt 0.00000 1.00000
vt 0.00000 1.00000
vt 0.00000 1.00000
vt 0.00000 1.00000
vt 0.00000 1.00000
vt 0.00000 1.00000
vt 0.00000 1.00000
vt 0.00000 1.00000
vt 0.00000 1.00000
vt 0.00000 1.00000
vt 0.00000 1.00000
vt 0.00000 1.00000
vt 0.00000 1.00000
vt 0.00000 1.00000
vt 0.00000 1.00000
vt 0.00000 1.00000
vt 0.00000 1.00000
vt 0.00000 1.00000
vt 0.00000 1.00000
vt 0.00000 1.00000
vt 0.00000 1.00000
vt 0.00000 1.00000
vt 0.00000 1.00000
vt 0.00000 1.00000
vt 0.00000 1.00000
vt 0.00000 1.00000
vt 0.00000 1.00000
vt 0.00000 1.00000
vt 0.00000 1.00000
vt 0.00000 1.00000
vt 0.00000 1.00000
vt 0.00000 1.00000
vt 0.00000 1.00000
vt 0.00000 1.00000
vt 0.00000 1.00000
vt 0.00000 1.00000
vt 0.00000 1.00000
vt 0.00000 1.00000
vt 0.00000 1.00000
vt 0.00000 1.00000
vt 0.00000 1.00000
vt 0.00000 1.00000
vt 0.00000 1.00000
vt 0.00000 1.00000
vt 0.00000 1.00000
vt 0.00000 1.00000
vt 0.00000 1.00000
vt 0.00000 1.00000
vt 0.00000 1.00000
vt 0.00000 1.00000
vt 0.00000 1.00000
vt 0.00000 1.00000
vt 0.00000 1.00000
vt 0.00000 1.00000
vt 0.00000 1.00000
vt 0.00000 1.00000
vt 0.00000 1.00000
vt 0.00000 1.00000
vt 0.00000 1.00000
vt 0.00000 1.00000
vt 0.00000 1.00000
vt 0.00000 1.00000
vt 0.00000 1.00000
vt 0.00000 1.00000
vt 0.00000 1.00000
vt 0.00000 1.00000
vt 0.00000 1.00000
vt 0.00000 1.00000
vt 0.00000 1.00000
vt 0.00000 1.00000
vt 0.00000 1.00000
vt 0.00000 1.00000
vt 0.00000 1.00000
vt 0.00000 1.00000
vt 0.00000 1.00000
vt 0.00000 1.00000
vt 0.00000 1.00000
vt 0.00000 1.00000
vt 0.00000 1.00000
vt 0.00000 1.00000
vt 0.00000 1.00000
vt 0.00000 1.00000
vt 0.00000 1.00000
vt 0.00000 1.00000
vt 0.00000 1.00000
vt 0.00000 1.00000
vt 0.00000 1.00000
vt 0.00000 1.00000
vt 0.00000 1.00000
vt 0.00000 1.00000
vt 0.00000 1.00000
vt 0.00000 1.00000
vt 0.00000 1.00000
vt 0.00000 1.00000
vt 0.00000 1.00000
vt 0.00000 1.00000
vt 0.00000 1.00000
vt 0.00000 1.00000
vt 0.00000 1.00000
vt 0.00000 1.00000
vt 0.00000 1.00000
vt 0.00000 1.00000
vt 0.00000 1.00000
vt 0.00000 1.00000
vt 0.00000 1.00000
vt 0.00000 1.00000
vt 0.00000 1.00000
vt 0.00000 1.00000
vt 0.00000 1.00000
vt 0.00000 1.00000
vt 0.00000 1.00000
vt 0.00000 1.00000
vt 0.00000 1.00000
vt 0.00000 1.00000
vt 0.00000 1.00000
vt 0.00000 1.00000
vt 0.00000 1.00000
vt 0.00000 1.00000
vt 0.00000 1.00000
vt 0.00000 1.00000
vt 0.00000 1.00000
vt 0.00000 1.00000
vt 0.00000 1.00000
vt 0.00000 1.00000
vt 0.00000 1.00000
vt 0.00000 1.00000
vt 0.00000 1.00000
vt 0.00000 1.00000
vt 0.00000 1.00000
vt 0.00000 1.00000
vt 0.00000 1.00000
vt 0.00000 1.00000
vt 0.00000 1.00000
vt 0.00000 1.00000
vt 0.00000 1.00000
vt 0.00000 1.00000
vt 0.00000 1.00000
vt 0.00000 1.00000
vt 0.00000 1.00000
vt 0.00000 1.00000
vt 0.00000 1.00000
vt 0.00000 1.00000
vt 0.00000 1.00000
vt 0.00000 1.00000
vt 0.00000 1.00000
vt 0.00000 1.00000
vt 0.00000 1.00000
vt 0.00000 1.00000
vt 0.00000 1.00000
vt 0.00000 1.00000
vt 0.00000 1.00000
vt 0.00000 1.00000
vt 0.00000 1.00000
vt 0.00000 1.00000
vt 0.00000 1.00000
vt 0.00000 1.00000
vt 0.00000 1.00000
vt 0.00000 1.00000
vt 0.00000 1.00000
vt 0.00000 1.00000
vt 0.00000 1.00000
vt 0.00000 1.00000
vt 0.00000 1.00000
vt 0.00000 1.00000
vt 0.00000 1.00000
vt 0.00000 1.00000
vt 0.00000 1.00000
vt 0.00000 1.00000
vt 0.00000 1.00000
vt 0.00000 1.00000
vt 0.00000 1.00000
vt 0.00000 1.00000
vt 0.00000 1.00000
vt 0.00000 1.00000
vt 0.00000 1.00000
vt 0.00000 1.00000
vt 0.00000 1.00000
vt 0.00000 1.00000
vt 0.00000 1.00000
vt 0.00000 1.00000
vt 0.00000 1.00000
vt 0.00000 1.00000
vt 0.00000 1.00000
vt 0.00000 1.00000
vt 0.00000 1.00000
vt 0.00000 1.00000
vt 0.00000 1.00000
vt 0.00000 1.00000
vt 0.00000 1.00000
vt 0.00000 1.00000
vt 0.00000 1.00000
vt 0.00000 1.00000
vt 0.00000 1.00000
vt 0.00000 1.00000
vt 0.00000 1.00000
vt 0.00000 1.00000
vt 0.00000 1.00000
vt 0.00000 1.00000
vt 0.00000 1.00000
vt 0.00000 1.00000
vt 0.00000 1.00000
vt 0.00000 1.00000
vt 0.00000 1.00000
vt 0.00000 1.00000
vt 0.00000 1.00000
vt 0.00000 1.00000
vt 0.00000 1.00000
vt 0.00000 1.00000
vt 0.00000 1.00000
vt 0.00000 1.00000
vt 0.00000 1.00000
usemtl bark
f 1/1 2/2 3/3
f 4/4 5/5 6/6
f 7/7 8/8 9/9
f 10/10 11/11 12/12
f 13/13 14/14 15/15
f 16/16 17/17 18/18
f 19/19 20/20 21/21
f 22/22 23/23 24/24
f 25/25 26/26 27/27
f 28/28 29/29 30/30
f 31/31 32/32 33/33
f 34/34 35/35 36/36
f 37/37 38/38 39/39
f 40/40 41/41 42/42
f 43/43 44/44 45/45
f 46/46 47/47 48/48
f 49/49 50/50 51/51
f 52/52 53/53 54/54
f 55/55 56/56 57/57
f 58/58 59/59 60/60
f 61/61 62/62 63/63
f 64/64 65/65 66/66
f 67/67 68/68 69/69
f 70/70 71/71 72/72
f 73/73 74/74 75/75
f 76/76 77/77 78/78
f 79/79 80/80 81/81
f 82/82 83/83 84/84
f 85/85 86/86 87/87
f 88/88 89/89 90/90
f 91/91 92/92 93/93
f 94/94 95/95 96/96
f 97/97 98/98 99/99
f 100/100 101/101 102/102
f 103/103 104/104 105/105
f 106/106 107/107 108/108
f 109/109 110/110 111/111
f 112/112 113/113 114/114
f 115/115 116/116 117/117
f 118/118 119/119 120/120
f 121/121 122/122 123/123
f 124/124 125/125 126/126
f 127/127 128/128 129/129
f 130/130 131/131 132/132
f 133/133 134/134 135/135
f 136/136 137/137 138/138
f 139/139 140/140 141/141
f 142/142 143/143 144/144
f 145/145 146/146 147/147
f 148/148 149/149 150/150
f 151/151 152/152 153/153
f 154/154 155/155 156/156
f 157/157 158/158 159/159
f 160/160 161/161 162/162
f 163/163 164/164 165/165
f 166/166 167/167 168/168
f 169/169 170/170 171/171
f 172/172 173/173 174/174
f 175/175 176/176 177/177
f 178/178 179/179 180/180
f 181/181 182/182 183/183
f 184/184 185/185 186/186
f 187/187 188/188 189/189
f 190/190 191/191 192/192
f 193/193 194/194 195/195
f 196/196 197/197 198/198
f 199/199 200/200 201/201
f 202/202 203/203 204/204
f 205/205 206/206 207/207
f 208/208 209/209 210/210
f 211/211 212/212 213/213
f 214/214 215/215 216/216
f 217/217 218/218 219/219
f 220/220 221/221 222/222
f 223/223 224/224 225/225
f 226/226 227/227 228/228
f 229/229 230/230 231/231
f 232/232 233/233 234/234
f 235/235 236/236 237/237
f 238/238 239/239 240/240
f 241/241 242/242 243/243
f 244/244 245/245 246/246
f 247/247 248/248 249/249
f 250/250 251/251 252/252
f 253/253 254/254 255/255
f 256/256 257/257 258/258
f 259/259 260/260 261/261
f 262/262 263/263 264/264
f 265/265 266/266 267/267
f 268/268 269/269 270/270
f 271/271 272/272 273/273
f 274/274 275/275 276/276
f 277/277 278/278 279/279
f 280/280 281/281 282/282
f 283/283 284/284 285/285
f 286/286 287/287 288/288
f 289/289 290/290 291/291
f 292/292 293/293 294/294
f 295/295 296/296 297/297
f 298/298 299/299 300/300
f 301/301 302/302 303/303
f 304/304 305/305 306/306
f 307/307 308/308 309/309
f 310/310 311/311 312/312
v 2.5043 36.5500 -61.6489
v 3.3848 33.6116 -59.2922
v 0.4403 33.3484 -60.9758
v 5.0658 33.7140 -62.2481
v 0.4403 33.3484 -60.9758
v 3.3848 33.6116 -59.2922
v 2.5043 36.5500 -61.6489
v 0.4403 33.3484 -60.9758
v 2.1213 33.4508 -63.9317
v 5.0658 33.7140 -62.2481
v 2.1213 33.4508 -63.9317
v 0.4403 33.3484 -60.9758
v 2.5043 36.5500 -61.6489
v 2.1213 33.4508 -63.9317
v 5.0658 33.7140 -62.2481
v 2.5043 36.5500 -61.6489
v 5.0658 33.7140 -62.2481
v 3.3848 33.6116 -59.2922
v 2.3727 38.1482 -61.6685
v 4.1343 35.6224 -60.7541
v 1.7116 35.4309 -60.0876
v 2.3727 38.1482 -61.6685
v 1.7116 35.4309 -60.0876
v 1.0498 35.3467 -62.5177
v 2.3727 38.1482 -61.6685
v 1.0498 35.3467 -62.5177
v 3.4726 35.5381 -63.1841
v 1.7116 35.4309 -60.0876
v 3.4726 35.5381 -63.1841
v 1.0498 35.3467 -62.5177
v 2.3727 38.1482 -61.6685
v 3.4726 35.5381 -63.1841
v 4.1343 35.6224 -60.7541
v 1.7116 35.4309 -60.0876
v 4.1343 35.6224 -60.7541
v 3.4726 35.5381 -63.1841
v 2.2556 39.5688 -61.6858
v 3.4020 37.3457 -61.1109
v 1.8999 37.2270 -60.6977
v 2.2556 39.5688 -61.6858
v 1.8999 37.2270 -60.6977
v 1.4896 37.1748 -62.2043
v 2.2556 39.5688 -61.6858
v 1.4896 37.1748 -62.2043
v 2.9917 37.2935 -62.6175
v 1.8999 37.2270 -60.6977
v 2.9917 37.2935 -62.6175
v 1.4896 37.1748 -62.2043
v 2.2556 39.5688 -61.6858
v 2.9917 37.2935 -62.6175
v 3.4020 37.3457 -61.1109
v 1.8999 37.2270 -60.6977
v 3.4020 37.3457 -61.1109
v 2.9917 37.2935 -62.6175
v -9.1006 34.4362 -34.8244
v -8.5472 32.3007 -33.3100
v -10.7253 32.4053 -34.1949
v -7.6622 32.2805 -35.4905
v -10.7253 32.4053 -34.1949
v -8.5472 32.3007 -33.3100
v -9.1006 34.4362 -34.8244
v -10.7253 32.4053 -34.1949
v -9.8403 32.3851 -36.3755
v -7.6622 32.2805 -35.4905
v -9.8403 32.3851 -36.3755
v -10.7253 32.4053 -34.1949
v -9.1006 34.4362 -34.8244
v -9.8403 32.3851 -36.3755
v -7.6622 32.2805 -35.4905
v -9.1006 34.4362 -34.8244
v -7.6622 32.2805 -35.4905
v -8.5472 32.3007 -33.3100
v -9.0514 35.5445 -34.8147
v -7.9926 33.6426 -34.3673
v -9.5970 33.7080 -33.6888
v -9.0514 35.5445 -34.8147
v -9.5970 33.7080 -33.6888
v -10.2744 33.7522 -35.2944
v -9.0514 35.5445 -34.8147
v -10.2744 33.7522 -35.2944
v -8.6700 33.6868 -35.9730
v -9.5970 33.7080 -33.6888
v -8.6700 33.6868 -35.9730
v -10.2744 33.7522 -35.2944
v -9.0514 35.5445 -34.8147
v -8.6700 33.6868 -35.9730
v -7.9926 33.6426 -34.3673
v -9.5970 33.7080 -33.6888
v -7.9926 33.6426 -34.3673
v -8.6700 33.6868 -35.9730
v -9.0075 36.5296 -34.8061
v -8.3714 34.8948 -34.5327
v -9.3661 34.9354 -34.1120
v -9.0075 36.5296 -34.8061
v -9.3661 34.9354 -34.1120
v -9.7861 34.9628 -35.1075
v -9.0075 36.5296 -34.8061
v -9.7861 34.9628 -35.1075
v -8.7914 34.9222 -35.5282
v -9.3661 34.9354 -34.1120
v -8.7914 34.9222 -35.5282
v -9.7861 34.9628 -35.1075
v -9.0075 36.5296 -34.8061
v -8.7914 34.9222 -35.5282
v -8.3714 34.8948 -34.5327
v -9.3661 34.9354 -34.1120
v -8.3714 34.8948 -34.5327
v -8.7914 34.9222 -35.5282
v 54.4294 32.8046 -63.4591
v 52.9282 30.8412 -64.1216
v 54.9950 30.8510 -65.0119
v 53.8182 30.7536 -62.0565
v 54.9950 30.8510 -65.0119
v 52.9282 30.8412 -64.1216
v 54.4294 32.8046 -63.4591
v 54.9950 30.8510 -65.0119
v 55.8850 30.7634 -62.9469
v 53.8182 30.7536 -62.0565
v 55.8850 30.7634 -62.9469
v 54.9950 30.8510 -65.0119
v 54.4294 32.8046 -63.4591
v 55.8850 30.7634 -62.9469
v 53.8182 30.7536 -62.0565
v 54.4294 32.8046 -63.4591
v 53.8182 30.7536 -62.0565
v 52.9282 30.8412 -64.1216
v 54.4415 33.8646 -63.4194
v 53.3388 32.0927 -63.0193
v 53.9552 32.1438 -64.5673
v 54.4415 33.8646 -63.4194
v 53.9552 32.1438 -64.5673
v 55.5039 32.1031 -63.9520
v 54.4415 33.8646 -63.4194
v 55.5039 32.1031 -63.9520
v 54.8875 32.0520 -62.4040
v 53.9552 32.1438 -64.5673
v 54.8875 32.0520 -62.4040
v 55.5039 32.1031 -63.9520
v 54.4415 33.8646 -63.4194
v 54.8875 32.0520 -62.4040
v 53.3388 32.0927 -63.0193
v 53.9552 32.1438 -64.5673
v 53.3388 32.0927 -63.0193
v 54.8875 32.0520 -62.4040
v 54.4522 34.8069 -63.3840
v 53.7636 33.2725 -63.1523
v 54.1458 33.3042 -64.1121
v 54.4522 34.8069 -63.3840
v 54.1458 33.3042 -64.1121
v 55.1060 33.2789 -63.7306
v 54.4522 34.8069 -63.3840
v 55.1060 33.2789 -63.7306
v 54.7238 33.2473 -62.7708
v 54.1458 33.3042 -64.1121
v 54.7238 33.2473 -62.7708
v 55.1060 33.2789 -63.7306
v 54.4522 34.8069 -63.3840
v 54.7238 33.2473 -62.7708
v 53.7636 33.2725 -63.1523
v 54.1458 33.3042 -64.1121
v 53.7636 33.2725 -63.1523
v 54.7238 33.2473 -62.7708
v 30.4216 31.7114 21.7099
v 31.8992 29.9967 21.7343
v 30.4305 29.9059 23.0752
v 30.5577 29.9754 20.2635
v 30.4305 29.9059 23.0752
v 31.8992 29.9967 21.7343
v 30.4216 31.7114 21.7099
v 30.4305 29.9059 23.0752
v 29.0890 29.8846 21.6044
v 30.5577 29.9754 20.2635
v 29.0890 29.8846 21.6044
v 30.4305 29.9059 23.0752
v 30.4216 31.7114 21.7099
v 29.0890 29.8846 21.6044
v 30.5577 29.9754 20.2635
v 30.4216 31.7114 21.7099
v 30.5577 29.9754 20.2635
v 31.8992 29.9967 21.7343
v 30.3832 32.6488 21.7314
v 31.2165 31.1340 20.9933
v 31.1498 31.0975 22.4660
v 30.3832 32.6488 21.7314
v 31.1498 31.0975 22.4660
v 29.6779 31.0388 22.3979
v 30.3832 32.6488 21.7314
v 29.6779 31.0388 22.3979
v 29.7445 31.0752 20.9252
v 31.1498 31.0975 22.4660
v 29.7445 31.0752 20.9252
v 29.6779 31.0388 22.3979
v 30.3832 32.6488 21.7314
v 29.7445 31.0752 20.9252
v 31.2165 31.1340 20.9933
v 31.1498 31.0975 22.4660
v 31.2165 31.1340 20.9933
v 29.7445 31.0752 20.9252
v 30.3490 33.4821 21.7504
v 30.8815 32.1575 21.2840
v 30.8401 32.1349 22.1971
v 30.3490 33.4821 21.7504
v 30.8401 32.1349 22.1971
v 29.9276 32.0985 22.1549
v 30.3490 33.4821 21.7504
v 29.9276 32.0985 22.1549
v 29.9689 32.1211 21.2418
v 30.8401 32.1349 22.1971
v 29.9689 32.1211 21.2418
v 29.9276 32.0985 22.1549
v 30.3490 33.4821 21.7504
v 29.9689 32.1211 21.2418
v 30.8815 32.1575 21.2840
v 30.8401 32.1349 22.1971
v 30.8815 32.1575 21.2840
v 29.9689 32.1211 21.2418
v -6.0684 35.5514 -8.7154
v -3.6822 32.1900 -9.9481
v -4.8858 32.1500 -6.3607
v -7.2697 32.2145 -11.1515
v -4.8858 32.1500 -6.3607
v -3.6822 32.1900 -9.9481
v -6.0684 35.5514 -8.7154
v -4.8858 32.1500 -6.3607
v -8.4733 32.1745 -7.5641
v -7.2697 32.2145 -11.1515
v -8.4733 32.1745 -7.5641
v -4.8858 32.1500 -6.3607
v -6.0684 35.5514 -8.7154
v -8.4733 32.1745 -7.5641
v -7.2697 32.2145 -11.1515
v -6.0684 35.5514 -8.7154
v -7.2697 32.2145 -11.1515
v -3.6822 32.1900 -9.9481
v -6.0635 37.3351 -8.6938
v -5.4413 34.3833 -10.6087
v -4.1927 34.3495 -8.0994
v -6.0635 37.3351 -8.6938
v -4.1927 34.3495 -8.0994
v -6.7021 34.3413 -6.8508
v -6.0635 37.3351 -8.6938
v -6.7021 34.3413 -6.8508
v -7.9508 34.3751 -9.3601
v -4.1927 34.3495 -8.0994
v -7.9508 34.3751 -9.3601
v -6.7021 34.3413 -6.8508
v -6.0635 37.3351 -8.6938
v -7.9508 34.3751 -9.3601
v -5.4413 34.3833 -10.6087
v -4.1927 34.3495 -8.0994
v -5.4413 34.3833 -10.6087
v -7.9508 34.3751 -9.3601
v -6.0591 38.9206 -8.6746
v -5.6754 36.3572 -9.8707
v -4.9012 36.3362 -8.3150
v -6.0591 38.9206 -8.6746
v -4.9012 36.3362 -8.3150
v -6.4571 36.3312 -7.5408
v -6.0591 38.9206 -8.6746
v -6.4571 36.3312 -7.5408
v -7.2313 36.3521 -9.0966
v -4.9012 36.3362 -8.3150
v -7.2313 36.3521 -9.0966
v -6.4571 36.3312 -7.5408
v -6.0591 38.9206 -8.6746
v -7.2313 36.3521 -9.0966
v -5.6754 36.3572 -9.8707
v -4.9012 36.3362 -8.3150
v -5.6754 36.3572 -9.8707
v -7.2313 36.3521 -9.0966
v 68.7376 31.5663 42.3366
v 70.2476 29.1149 42.9329
v 67.8094 29.1857 43.7913
v 69.3994 29.3652 40.5029
v 67.8094 29.1857 43.7913
v 70.2476 29.1149 42.9329
v 68.7376 31.5663 42.3366
v 67.8094 29.1857 43.7913
v 66.9611 29.4361 41.3613
v 69.3994 29.3652 40.5029
v 66.9611 29.4361 41.3613
v 67.8094 29.1857 43.7913
v 68.7376 31.5663 42.3366
v 66.9611 29.4361 41.3613
v 69.3994 29.3652 40.5029
v 68.7376 31.5663 42.3366
v 69.3994 29.3652 40.5029
v 70.2476 29.1149 42.9329
v 68.8082 32.7791 42.4369
v 69.9677 30.7207 41.8201
v 69.1349 30.6267 43.5425
v 68.8082 32.7791 42.4369
v 69.1349 30.6267 43.5425
v 67.4135 30.7949 42.7194
v 68.8082 32.7791 42.4369
v 67.4135 30.7949 42.7194
v 68.2463 30.8889 40.9969
v 69.1349 30.6267 43.5425
v 68.2463 30.8889 40.9969
v 67.4135 30.7949 42.7194
v 68.8082 32.7791 42.4369
v 68.2463 30.8889 40.9969
v 69.9677 30.7207 41.8201
v 69.1349 30.6267 43.5425
v 69.9677 30.7207 41.8201
v 68.2463 30.8889 40.9969
v 68.8709 33.8572 42.5261
v 69.5608 32.0824 42.1024
v 69.0445 32.0241 43.1703
v 68.8709 33.8572 42.5261
v 69.0445 32.0241 43.1703
v 67.9772 32.1284 42.6600
v 68.8709 33.8572 42.5261
v 67.9772 32.1284 42.6600
v 68.4935 32.1867 41.5921
v 69.0445 32.0241 43.1703
v 68.4935 32.1867 41.5921
v 67.9772 32.1284 42.6600
v 68.8709 33.8572 42.5261
v 68.4935 32.1867 41.5921
v 69.5608 32.0824 42.1024
v 69.0445 32.0241 43.1703
v 69.5608 32.0824 42.1024
v 68.4935 32.1867 41.5921
v -26.3678 32.7040 -2.8643
v -28.2093 30.7752 -2.9315
v -26.4714 30.5974 -4.4976
v -26.6480 30.6506 -1.1848
v -26.4714 30.5974 -4.4976
v -28.2093 30.7752 -2.9315
v -26.3678 32.7040 -2.8643
v -26.4714 30.5974 -4.4976
v -24.9102 30.4728 -2.7508
v -26.6480 30.6506 -1.1848
v -24.9102 30.4728 -2.7508
v -26.4714 30.5974 -4.4976
v -26.3678 32.7040 -2.8643
v -24.9102 30.4728 -2.7508
v -26.6480 30.6506 -1.1848
v -26.3678 32.7040 -2.8643
v -26.6480 30.6506 -1.1848
v -28.2093 30.7752 -2.9315
v -26.2662 33.8053 -2.8766
v -27.3458 32.0630 -2.0359
v -27.2533 32.0352 -3.7711
v -26.2662 33.8053 -2.8766
v -27.2533 32.0352 -3.7711
v -25.5253 31.8768 -3.6764
v -26.2662 33.8053 -2.8766
v -25.5253 31.8768 -3.6764
v -25.6178 31.9046 -1.9413
v -27.2533 32.0352 -3.7711
v -25.6178 31.9046 -1.9413
v -25.5253 31.8768 -3.6764
v -26.2662 33.8053 -2.8766
v -25.6178 31.9046 -1.9413
v -27.3458 32.0630 -2.0359
v -27.2533 32.0352 -3.7711
v -27.3458 32.0630 -2.0359
v -25.6178 31.9046 -1.9413
v -26.1759 34.7841 -2.8875
v -26.8870 33.2512 -2.3612
v -26.8297 33.2339 -3.4370
v -26.1759 34.7841 -2.8875
v -26.8297 33.2339 -3.4370
v -25.7583 33.1357 -3.3783
v -26.1759 34.7841 -2.8875
v -25.7583 33.1357 -3.3783
v -25.8156 33.1530 -2.3025
v -26.8297 33.2339 -3.4370
v -25.8156 33.1530 -2.3025
v -25.7583 33.1357 -3.3783
v -26.1759 34.7841 -2.8875
v -25.8156 33.1530 -2.3025
v -26.8870 33.2512 -2.3612
v -26.8297 33.2339 -3.4370
v -26.8870 33.2512 -2.3612
v -25.8156 33.1530 -2.3025
v -68.6613 28.8631 11.4607
v -69.7289 27.3992 10.9552
v -68.1753 27.3971 10.3869
v -69.1606 27.3831 12.5088
v -68.1753 27.3971 10.3869
v -69.7289 27.3992 10.9552
v -68.6613 28.8631 11.4607
v -68.1753 27.3971 10.3869
v -67.6070 27.3810 11.9405
v -69.1606 27.3831 12.5088
v -67.6070 27.3810 11.9405
v -68.1753 27.3971 10.3869
v -68.6613 28.8631 11.4607
v -67.6070 27.3810 11.9405
v -69.1606 27.3831 12.5088
v -68.6613 28.8631 11.4607
v -69.1606 27.3831 12.5088
v -69.7289 27.3992 10.9552
v -68.6578 29.6429 11.4675
v -69.4774 28.3443 11.7538
v -68.9613 28.3516 10.6425
v -68.6578 29.6429 11.4675
v -68.9613 28.3516 10.6425
v -67.8499 28.3421 11.1585
v -68.6578 29.6429 11.4675
v -67.8499 28.3421 11.1585
v -68.3660 28.3348 12.2699
v -68.9613 28.3516 10.6425
v -68.3660 28.3348 12.2699
v -67.8499 28.3421 11.1585
v -68.6578 29.6429 11.4675
v -68.3660 28.3348 12.2699
v -69.4774 28.3443 11.7538
v -68.9613 28.3516 10.6425
v -69.4774 28.3443 11.7538
v -68.3660 28.3348 12.2699
v -68.6546 30.3360 11.4735
v -69.1642 29.2103 11.6483
v -68.8443 29.2149 10.9592
v -68.6546 30.3360 11.4735
v -68.8443 29.2149 10.9592
v -68.1552 29.2090 11.2792
v -68.6546 30.3360 11.4735
v -68.1552 29.2090 11.2792
v -68.4752 29.2044 11.9682
v -68.8443 29.2149 10.9592
v -68.4752 29.2044 11.9682
v -68.1552 29.2090 11.2792
v -68.6546 30.3360 11.4735
v -68.4752 29.2044 11.9682
v -69.1642 29.2103 11.6483
v -68.8443 29.2149 10.9592
v -69.1642 29.2103 11.6483
v -68.4752 29.2044 11.9682
v -61.0357 28.4853 21.8803
v -62.1382 26.4847 23.0891
v -62.3208 26.5076 20.8236
v -59.8737 26.4172 22.9059
v -62.3208 26.5076 20.8236
v -62.1382 26.4847 23.0891
v -61.0357 28.4853 21.8803
v -62.3208 26.5076 20.8236
v -60.0562 26.4401 20.6404
v -59.8737 26.4172 22.9059
v -60.0562 26.4401 20.6404
v -62.3208 26.5076 20.8236
v -61.0357 28.4853 21.8803
v -60.0562 26.4401 20.6404
v -59.8737 26.4172 22.9059
v -61.0357 28.4853 21.8803
v -59.8737 26.4172 22.9059
v -62.1382 26.4847 23.0891
v -61.0031 29.5563 21.8885
v -60.9618 27.7593 23.0614
v -62.2436 27.8067 21.9708
v -61.0031 29.5563 21.8885
v -62.2436 27.8067 21.9708
v -61.1530 27.7834 20.6882
v -61.0031 29.5563 21.8885
v -61.1530 27.7834 20.6882
v -59.8713 27.7360 21.7789
v -62.2436 27.8067 21.9708
v -59.8713 27.7360 21.7789
v -61.1530 27.7834 20.6882
v -61.0031 29.5563 21.8885
v -59.8713 27.7360 21.7789
v -60.9618 27.7593 23.0614
v -62.2436 27.8067 21.9708
v -60.9618 27.7593 23.0614
v -59.8713 27.7360 21.7789
v -60.9742 30.5082 21.8958
v -60.9619 28.9538 22.6197
v -61.7567 28.9832 21.9434
v -60.9742 30.5082 21.8958
v -61.7567 28.9832 21.9434
v -61.0805 28.9687 21.1482
v -60.9742 30.5082 21.8958
v -61.0805 28.9687 21.1482
v -60.2858 28.9394 21.8245
v -61.7567 28.9832 21.9434
v -60.2858 28.9394 21.8245
v -61.0805 28.9687 21.1482
v -60.9742 30.5082 21.8958
v -60.2858 28.9394 21.8245
v -60.9619 28.9538 22.6197
v -61.7567 28.9832 21.9434
v -60.9619 28.9538 22.6197
v -60.2858 28.9394 21.8245
v 2.0887 34.1539 -52.5198
v 0.9835 32.6761 -53.2422
v 2.6965 32.5716 -53.5465
v 1.2860 32.6387 -51.5262
v 2.6965 32.5716 -53.5465
v 0.9835 32.6761 -53.2422
v 2.0887 34.1539 -52.5198
v 2.6965 32.5716 -53.5465
v 2.9990 32.5342 -51.8305
v 1.2860 32.6387 -51.5262
v 2.9990 32.5342 -51.8305
v 2.6965 32.5716 -53.5465
v 2.0887 34.1539 -52.5198
v 2.9990 32.5342 -51.8305
v 1.2860 32.6387 -51.5262
v 2.0887 34.1539 -52.5198
v 1.2860 32.6387 -51.5262
v 0.9835 32.6761 -53.2422
v 2.1402 34.9738 -52.5110
v 1.1571 33.6620 -52.3663
v 1.8958 33.6269 -53.4245
v 2.1402 34.9738 -52.5110
v 1.8958 33.6269 -53.4245
v 2.9515 33.5526 -52.6850
v 2.1402 34.9738 -52.5110
v 2.9515 33.5526 -52.6850
v 2.2127 33.5877 -51.6268
v 1.8958 33.6269 -53.4245
v 2.2127 33.5877 -51.6268
v 2.9515 33.5526 -52.6850
v 2.1402 34.9738 -52.5110
v 2.2127 33.5877 -51.6268
v 1.1571 33.6620 -52.3663
v 1.8958 33.6269 -53.4245
v 1.1571 33.6620 -52.3663
v 2.2127 33.5877 -51.6268
v 2.1860 35.7027 -52.5032
v 1.5553 34.5522 -52.4171
v 2.0133 34.5305 -53.0732
v 2.1860 35.7027 -52.5032
v 2.0133 34.5305 -53.0732
v 2.6678 34.4844 -52.6147
v 2.1860 35.7027 -52.5032
v 2.6678 34.4844 -52.6147
v 2.2098 34.5062 -51.9586
v 2.0133 34.5305 -53.0732
v 2.2098 34.5062 -51.9586
v 2.6678 34.4844 -52.6147
v 2.1860 35.7027 -52.5032
v 2.2098 34.5062 -51.9586
v 1.5553 34.5522 -52.4171
v 2.0133 34.5305 -53.0732
v 1.5553 34.5522 -52.4171
v 2.2098 34.5062 -51.9586
v 29.3145 32.4296 7.8286
v 27.9428 30.3895 6.8306
v 30.2673 30.2103 6.7301
v 28.0529 30.5113 9.1583
v 30.2673 30.2103 6.7301
v 27.9428 30.3895 6.8306
v 29.3145 32.4296 7.8286
v 30.2673 30.2103 6.7301
v 30.3773 30.3321 9.0578
v 28.0529 30.5113 9.1583
v 30.3773 30.3321 9.0578
v 30.2673 30.2103 6.7301
v 29.3145 32.4296 7.8286
v 30.3773 30.3321 9.0578
v 28.0529 30.5113 9.1583
v 29.3145 32.4296 7.8286
v 28.0529 30.5113 9.1583
v 27.9428 30.3895 6.8306
v 29.3963 33.5249 7.7675
v 28.0425 31.7933 7.9221
v 29.2024 31.6356 6.6502
v 29.3963 33.5249 7.7675
v 29.2024 31.6356 6.6502
v 30.4775 31.6056 7.8168
v 29.3963 33.5249 7.7675
v 30.4775 31.6056 7.8168
v 29.3176 31.7632 9.0886
v 29.2024 31.6356 6.6502
v 29.3176 31.7632 9.0886
v 30.4775 31.6056 7.8168
v 29.3963 33.5249 7.7675
v 29.3176 31.7632 9.0886
v 28.0425 31.7933 7.9221
v 29.2024 31.6356 6.6502
v 28.0425 31.7933 7.9221
v 29.3176 31.7632 9.0886
v 29.4690 34.4984 7.7131
v 28.5960 32.9746 7.8341
v 29.3152 32.8768 7.0456
v 29.4690 34.4984 7.7131
v 29.3152 32.8768 7.0456
v 30.1057 32.8582 7.7688
v 29.4690 34.4984 7.7131
v 30.1057 32.8582 7.7688
v 29.3866 32.9559 8.5574
v 29.3152 32.8768 7.0456
v 29.3866 32.9559 8.5574
v 30.1057 32.8582 7.7688
v 29.4690 34.4984 7.7131
v 29.3866 32.9559 8.5574
v 28.5960 32.9746 7.8341
v 29.3152 32.8768 7.0456
v 28.5960 32.9746 7.8341
v 29.3866 32.9559 8.5574
v 30.0667 34.4223 -74.4757
v 31.1791 32.6654 -75.2529
v 30.7573 32.6399 -73.3467
v 29.2737 32.7299 -75.6737
v 30.7573 32.6399 -73.3467
v 31.1791 32.6654 -75.2529
v 30.0667 34.4223 -74.4757
v 30.7573 32.6399 -73.3467
v 28.8518 32.7045 -73.7675
v 29.2737 32.7299 -75.6737
v 28.8518 32.7045 -73.7675
v 30.7573 32.6399 -73.3467
v 30.0667 34.4223 -74.4757
v 28.8518 32.7045 -73.7675
v 29.2737 32.7299 -75.6737
v 30.0667 34.4223 -74.4757
v 29.2737 32.7299 -75.6737
v 31.1791 32.6654 -75.2529
v 30.0938 35.3421 -74.4574
v 30.2696 33.8225 -75.4863
v 31.0466 33.7753 -74.2675
v 30.0938 35.3421 -74.4574
v 31.0466 33.7753 -74.2675
v 29.8276 33.7958 -73.4895
v 30.0938 35.3421 -74.4574
v 29.8276 33.7958 -73.4895
v 29.0505 33.8429 -74.7083
v 31.0466 33.7753 -74.2675
v 29.0505 33.8429 -74.7083
v 29.8276 33.7958 -73.4895
v 30.0938 35.3421 -74.4574
v 29.0505 33.8429 -74.7083
v 30.2696 33.8225 -75.4863
v 31.0466 33.7753 -74.2675
v 30.2696 33.8225 -75.4863
v 29.0505 33.8429 -74.7083
v 30.1179 36.1598 -74.4412
v 30.2157 34.8394 -75.0866
v 30.6975 34.8102 -74.3309
v 30.1179 36.1598 -74.4412
v 30.6975 34.8102 -74.3309
v 29.9417 34.8229 -73.8485
v 30.1179 36.1598 -74.4412
v 29.9417 34.8229 -73.8485
v 29.4599 34.8521 -74.6042
v 30.6975 34.8102 -74.3309
v 29.4599 34.8521 -74.6042
v 29.9417 34.8229 -73.8485
v 30.1179 36.1598 -74.4412
v 29.4599 34.8521 -74.6042
v 30.2157 34.8394 -75.0866
v 30.6975 34.8102 -74.3309
v 30.2157 34.8394 -75.0866
v 29.4599 34.8521 -74.6042
v -61.8853 35.0863 -73.7509
v -61.4355 32.4422 -71.7531
v -63.6783 32.2650 -73.6478
v -59.5565 32.6991 -74.0013
v -63.6783 32.2650 -73.6478
v -61.4355 32.4422 -71.7531
v -61.8853 35.0863 -73.7509
v -63.6783 32.2650 -73.6478
v -61.7992 32.5219 -75.8960
v -59.5565 32.6991 -74.0013
v -61.7992 32.5219 -75.8960
v -63.6783 32.2650 -73.6478
v -61.8853 35.0863 -73.7509
v -61.7992 32.5219 -75.8960
v -59.5565 32.6991 -74.0013
v -61.8853 35.0863 -73.7509
v -59.5565 32.6991 -74.0013
v -61.4355 32.4422 -71.7531
v -62.0271 36.4650 -73.7119
v -60.6160 34.2599 -72.7845
v -62.7749 34.0326 -72.5993
v -62.0271 36.4650 -73.7119
v -62.7749 34.0326 -72.5993
v -62.9655 34.0744 -74.7693
v -62.0271 36.4650 -73.7119
v -62.9655 34.0744 -74.7693
v -60.8065 34.3017 -74.9544
v -62.7749 34.0326 -72.5993
v -60.8065 34.3017 -74.9544
v -62.9655 34.0744 -74.7693
v -62.0271 36.4650 -73.7119
v -60.8065 34.3017 -74.9544
v -60.6160 34.2599 -72.7845
v -62.7749 34.0326 -72.5993
v -60.6160 34.2599 -72.7845
v -60.8065 34.3017 -74.9544
v -62.1532 37.6905 -73.6772
v -61.2200 35.7566 -73.1182
v -62.5585 35.6156 -73.0034
v -62.1532 37.6905 -73.6772
v -62.5585 35.6156 -73.0034
v -62.6766 35.6415 -74.3488
v -62.1532 37.6905 -73.6772
v -62.6766 35.6415 -74.3488
v -61.3381 35.7825 -74.4636
v -62.5585 35.6156 -73.0034
v -61.3381 35.7825 -74.4636
v -62.6766 35.6415 -74.3488
v -62.1532 37.6905 -73.6772
v -61.3381 35.7825 -74.4636
v -61.2200 35.7566 -73.1182
v -62.5585 35.6156 -73.0034
v -61.2200 35.7566 -73.1182
v -61.3381 35.7825 -74.4636
v 43.9455 33.1880 30.3126
v 43.1897 30.4713 32.2365
v 41.9534 30.5372 29.5014
v 45.9256 30.4937 31.0004
v 41.9534 30.5372 29.5014
v 43.1897 30.4713 32.2365
v 43.9455 33.1880 30.3126
v 41.9534 30.5372 29.5014
v 44.6893 30.5596 28.2653
v 45.9256 30.4937 31.0004
v 44.6893 30.5596 28.2653
v 41.9534 30.5372 29.5014
v 43.9455 33.1880 30.3126
v 44.6893 30.5596 28.2653
v 45.9256 30.4937 31.0004
v 43.9455 33.1880 30.3126
v 45.9256 30.4937 31.0004
v 43.1897 30.4713 32.2365
v 43.9487 34.6029 30.3452
v 44.5909 32.2102 31.7234
v 42.5104 32.2330 30.9382
v 43.9487 34.6029 30.3452
v 42.5104 32.2330 30.9382
v 43.2958 32.2793 28.8582
v 43.9487 34.6029 30.3452
v 43.2958 32.2793 28.8582
v 45.3764 32.2565 29.6434
v 42.5104 32.2330 30.9382
v 45.3764 32.2565 29.6434
v 43.2958 32.2793 28.8582
v 43.9487 34.6029 30.3452
v 45.3764 32.2565 29.6434
v 44.5909 32.2102 31.7234
v 42.5104 32.2330 30.9382
v 44.5909 32.2102 31.7234
v 45.3764 32.2565 29.6434
v 43.9515 35.8605 30.3742
v 44.3484 33.7954 31.2153
v 43.0584 33.8096 30.7285
v 43.9515 35.8605 30.3742
v 43.0584 33.8096 30.7285
v 43.5454 33.8382 29.4389
v 43.9515 35.8605 30.3742
v 43.5454 33.8382 29.4389
v 44.8354 33.8241 29.9257
v 43.0584 33.8096 30.7285
v 44.8354 33.8241 29.9257
v 43.5454 33.8382 29.4389
v 43.9515 35.8605 30.3742
v 44.8354 33.8241 29.9257
v 44.3484 33.7954 31.2153
v 43.0584 33.8096 30.7285
v 44.3484 33.7954 31.2153
v 44.8354 33.8241 29.9257
v -6.8436 27.8820 74.7838
v -5.2686 26.0470 74.4850
v -6.5280 25.9356 76.2152
v -7.0001 26.0177 73.2228
v -6.5280 25.9356 76.2152
v -5.2686 26.0470 74.4850
v -6.8436 27.8820 74.7838
v -6.5280 25.9356 76.2152
v -8.2595 25.9063 74.9530
v -7.0001 26.0177 73.2228
v -8.2595 25.9063 74.9530
v -6.5280 25.9356 76.2152
v -6.8436 27.8820 74.7838
v -8.2595 25.9063 74.9530
v -7.0001 26.0177 73.2228
v -6.8436 27.8820 74.7838
v -7.0001 26.0177 73.2228
v -5.2686 26.0470 74.4850
v -6.8857 28.8907 74.8181
v -6.1559 27.2678 73.8547
v -5.9086 27.2249 75.4220
v -6.8857 28.8907 74.8181
v -5.9086 27.2249 75.4220
v -7.4751 27.1512 75.6672
v -6.8857 28.8907 74.8181
v -7.4751 27.1512 75.6672
v -7.7224 27.1941 74.0998
v -5.9086 27.2249 75.4220
v -7.7224 27.1941 74.0998
v -7.4751 27.1512 75.6672
v -6.8857 28.8907 74.8181
v -7.7224 27.1941 74.0998
v -6.1559 27.2678 73.8547
v -5.9086 27.2249 75.4220
v -6.1559 27.2678 73.8547
v -7.7224 27.1941 74.0998
v -6.9231 29.7873 74.8486
v -6.4533 28.3665 74.2372
v -6.3000 28.3398 75.2089
v -6.9231 29.7873 74.8486
v -6.3000 28.3398 75.2089
v -7.2712 28.2941 75.3609
v -6.9231 29.7873 74.8486
v -7.2712 28.2941 75.3609
v -7.4246 28.3208 74.3892
v -6.3000 28.3398 75.2089
v -7.4246 28.3208 74.3892
v -7.2712 28.2941 75.3609
v -6.9231 29.7873 74.8486
v -7.4246 28.3208 74.3892
v -6.4533 28.3665 74.2372
v -6.3000 28.3398 75.2089
v -6.4533 28.3665 74.2372
v -7.4246 28.3208 74.3892
v 5.9802 35.2053 -14.2560
v 3.8780 32.1074 -13.3042
v 5.3099 32.0521 -16.3846
v 6.9541 32.3210 -11.8780
v 5.3099 32.0521 -16.3846
v 3.8780 32.1074 -13.3042
v 5.9802 35.2053 -14.2560
v 5.3099 32.0521 -16.3846
v 8.3861 32.2658 -14.9584
v 6.9541 32.3210 -11.8780
v 8.3861 32.2658 -14.9584
v 5.3099 32.0521 -16.3846
v 5.9802 35.2053 -14.2560
v 8.3861 32.2658 -14.9584
v 6.9541 32.3210 -11.8780
v 5.9802 35.2053 -14.2560
v 6.9541 32.3210 -11.8780
v 3.8780 32.1074 -13.3042
v 5.8998 36.8035 -14.3221
v 5.2838 34.1688 -12.5986
v 4.4225 34.0280 -14.9590
v 5.8998 36.8035 -14.3221
v 4.4225 34.0280 -14.9590
v 6.7838 34.1110 -15.8255
v 5.8998 36.8035 -14.3221
v 6.7838 34.1110 -15.8255
v 7.6450 34.2518 -13.4650
v 4.4225 34.0280 -14.9590
v 7.6450 34.2518 -13.4650
v 6.7838 34.1110 -15.8255
v 5.8998 36.8035 -14.3221
v 7.6450 34.2518 -13.4650
v 5.2838 34.1688 -12.5986
v 4.4225 34.0280 -14.9590
v 5.2838 34.1688 -12.5986
v 7.6450 34.2518 -13.4650
v 5.8283 38.2241 -14.3807
v 5.4794 35.9336 -13.2850
v 4.9455 35.8463 -14.7485
v 5.8283 38.2241 -14.3807
v 4.9455 35.8463 -14.7485
v 6.4095 35.8977 -15.2857
v 5.8283 38.2241 -14.3807
v 6.4095 35.8977 -15.2857
v 6.9434 35.9850 -13.8222
v 4.9455 35.8463 -14.7485
v 6.9434 35.9850 -13.8222
v 6.4095 35.8977 -15.2857
v 5.8283 38.2241 -14.3807
v 6.9434 35.9850 -13.8222
v 5.4794 35.9336 -13.2850
v 4.9455 35.8463 -14.7485
v 5.4794 35.9336 -13.2850
v 6.9434 35.9850 -13.8222
v -56.2194 27.7661 30.6141
v -57.4108 25.4807 31.9721
v -57.5620 25.4758 29.4144
v -54.8531 25.4937 31.8209
v -57.5620 25.4758 29.4144
v -57.4108 25.4807 31.9721
v -56.2194 27.7661 30.6141
v -57.5620 25.4758 29.4144
v -55.0044 25.4888 29.2632
v -54.8531 25.4937 31.8209
v -55.0044 25.4888 29.2632
v -57.5620 25.4758 29.4144
v -56.2194 27.7661 30.6141
v -55.0044 25.4888 29.2632
v -54.8531 25.4937 31.8209
v -56.2194 27.7661 30.6141
v -54.8531 25.4937 31.8209
v -57.4108 25.4807 31.9721
v -56.2256 28.9738 30.6122
v -56.1360 26.9634 31.9550
v -57.5548 26.9541 30.6945
v -56.2256 28.9738 30.6122
v -57.5548 26.9541 30.6945
v -56.2944 26.9584 29.2757
v -56.2256 28.9738 30.6122
v -56.2944 26.9584 29.2757
v -54.8756 26.9677 30.5361
v -57.5548 26.9541 30.6945
v -54.8756 26.9677 30.5361
v -56.2944 26.9584 29.2757
v -56.2256 28.9738 30.6122
v -54.8756 26.9677 30.5361
v -56.1360 26.9634 31.9550
v -57.5548 26.9541 30.6945
v -56.1360 26.9634 31.9550
v -54.8756 26.9677 30.5361
v -56.2312 30.0474 30.6105
v -56.1730 28.3044 31.4438
v -57.0527 28.2986 30.6623
v -56.2312 30.0474 30.6105
v -57.0527 28.2986 30.6623
v -56.2712 28.3013 29.7827
v -56.2312 30.0474 30.6105
v -56.2712 28.3013 29.7827
v -55.3916 28.3071 30.5641
v -57.0527 28.2986 30.6623
v -55.3916 28.3071 30.5641
v -56.2712 28.3013 29.7827
v -56.2312 30.0474 30.6105
v -55.3916 28.3071 30.5641
v -56.1730 28.3044 31.4438
v -57.0527 28.2986 30.6623
v -56.1730 28.3044 31.4438
v -55.3916 28.3071 30.5641
v -3.3390 35.1247 -42.5995
v -2.1523 32.6692 -43.5851
v -2.7542 32.7082 -41.1071
v -4.6012 33.0513 -44.1860
v -2.7542 32.7082 -41.1071
v -2.1523 32.6692 -43.5851
v -3.3390 35.1247 -42.5995
v -2.7542 32.7082 -41.1071
v -5.2032 33.0902 -41.7080
v -4.6012 33.0513 -44.1860
v -5.2032 33.0902 -41.7080
v -2.7542 32.7082 -41.1071
v -3.3390 35.1247 -42.5995
v -5.2032 33.0902 -41.7080
v -4.6012 33.0513 -44.1860
v -3.3390 35.1247 -42.5995
v -4.6012 33.0513 -44.1860
v -2.1523 32.6692 -43.5851
v -3.1597 36.3133 -42.5747
v -3.1432 34.3120 -43.9141
v -2.1758 34.1323 -42.3014
v -3.1597 36.3133 -42.5747
v -2.1758 34.1323 -42.3014
v -3.7738 34.3528 -41.3182
v -3.1597 36.3133 -42.5747
v -3.7738 34.3528 -41.3182
v -4.7412 34.5325 -42.9309
v -2.1758 34.1323 -42.3014
v -4.7412 34.5325 -42.9309
v -3.7738 34.3528 -41.3182
v -3.1597 36.3133 -42.5747
v -4.7412 34.5325 -42.9309
v -3.1432 34.3120 -43.9141
v -2.1758 34.1323 -42.3014
v -3.1432 34.3120 -43.9141
v -4.7412 34.5325 -42.9309
v -3.0003 37.3697 -42.5526
v -3.0638 35.6403 -43.3932
v -2.4641 35.5289 -42.3934
v -3.0003 37.3697 -42.5526
v -2.4641 35.5289 -42.3934
v -3.4548 35.6656 -41.7838
v -3.0003 37.3697 -42.5526
v -3.4548 35.6656 -41.7838
v -4.0546 35.7770 -42.7837
v -2.4641 35.5289 -42.3934
v -4.0546 35.7770 -42.7837
v -3.4548 35.6656 -41.7838
v -3.0003 37.3697 -42.5526
v -4.0546 35.7770 -42.7837
v -3.0638 35.6403 -43.3932
v -2.4641 35.5289 -42.3934
v -3.0638 35.6403 -43.3932
v -4.0546 35.7770 -42.7837
v -43.7934 32.0564 -8.6037
v -42.6819 30.0952 -9.1712
v -43.5233 30.1450 -7.3086
v -44.5269 30.3583 -10.0117
v -43.5233 30.1450 -7.3086
v -42.6819 30.0952 -9.1712
v -43.7934 32.0564 -8.6037
v -43.5233 30.1450 -7.3086
v -45.3683 30.4081 -8.1490
v -44.5269 30.3583 -10.0117
v -45.3683 30.4081 -8.1490
v -43.5233 30.1450 -7.3086
v -43.7934 32.0564 -8.6037
v -45.3683 30.4081 -8.1490
v -44.5269 30.3583 -10.0117
v -43.7934 32.0564 -8.6037
v -44.5269 30.3583 -10.0117
v -42.6819 30.0952 -9.1712
v -43.6708 33.0119 -8.5739
v -43.4345 31.3934 -9.5992
v -42.9088 31.2817 -8.1834
v -43.6708 33.0119 -8.5739
v -42.9088 31.2817 -8.1834
v -44.3159 31.4456 -7.6480
v -43.6708 33.0119 -8.5739
v -44.3159 31.4456 -7.6480
v -44.8416 31.5573 -9.0639
v -42.9088 31.2817 -8.1834
v -44.8416 31.5573 -9.0639
v -44.3159 31.4456 -7.6480
v -43.6708 33.0119 -8.5739
v -44.8416 31.5573 -9.0639
v -43.4345 31.3934 -9.5992
v -42.9088 31.2817 -8.1834
v -43.4345 31.3934 -9.5992
v -44.8416 31.5573 -9.0639
v -43.5618 33.8612 -8.5473
v -43.4657 32.4649 -9.1953
v -43.1398 32.3956 -8.3175
v -43.5618 33.8612 -8.5473
v -43.1398 32.3956 -8.3175
v -44.0121 32.4973 -7.9856
v -43.5618 33.8612 -8.5473
v -44.0121 32.4973 -7.9856
v -44.3381 32.5665 -8.8634
v -43.1398 32.3956 -8.3175
v -44.3381 32.5665 -8.8634
v -44.0121 32.4973 -7.9856
v -43.5618 33.8612 -8.5473
v -44.3381 32.5665 -8.8634
v -43.4657 32.4649 -9.1953
v -43.1398 32.3956 -8.3175
v -43.4657 32.4649 -9.1953
v -44.3381 32.5665 -8.8634
v 47.4001 32.6123 -46.6928
v 48.2225 30.6963 -45.4278
v 46.1054 30.7657 -45.7647
v 48.5577 30.6425 -47.5456
v 46.1054 30.7657 -45.7647
v 48.2225 30.6963 -45.4278
v 47.4001 32.6123 -46.6928
v 46.1054 30.7657 -45.7647
v 46.4406 30.7119 -47.8825
v 48.5577 30.6425 -47.5456
v 46.4406 30.7119 -47.8825
v 46.1054 30.7657 -45.7647
v 47.4001 32.6123 -46.6928
v 46.4406 30.7119 -47.8825
v 48.5577 30.6425 -47.5456
v 47.4001 32.6123 -46.6928
v 48.5577 30.6425 -47.5456
v 48.2225 30.6963 -45.4278
v 47.4364 33.6226 -46.7128
v 48.4848 31.9025 -46.5031
v 47.2003 31.9670 -45.5703
v 47.4364 33.6226 -46.7128
v 47.2003 31.9670 -45.5703
v 46.2670 31.9752 -46.8560
v 47.4364 33.6226 -46.7128
v 46.2670 31.9752 -46.8560
v 47.5515 31.9107 -47.7888
v 47.2003 31.9670 -45.5703
v 47.5515 31.9107 -47.7888
v 46.2670 31.9752 -46.8560
v 47.4364 33.6226 -46.7128
v 47.5515 31.9107 -47.7888
v 48.4848 31.9025 -46.5031
v 47.2003 31.9670 -45.5703
v 48.4848 31.9025 -46.5031
v 47.5515 31.9107 -47.7888
v 47.4686 34.5206 -46.7305
v 48.1037 33.0388 -46.5923
v 47.3073 33.0788 -46.0139
v 47.4686 34.5206 -46.7305
v 47.3073 33.0788 -46.0139
v 46.7287 33.0839 -46.8111
v 47.4686 34.5206 -46.7305
v 46.7287 33.0839 -46.8111
v 47.5251 33.0439 -47.3894
v 47.3073 33.0788 -46.0139
v 47.5251 33.0439 -47.3894
v 46.7287 33.0839 -46.8111
v 47.4686 34.5206 -46.7305
v 47.5251 33.0439 -47.3894
v 48.1037 33.0388 -46.5923
v 47.3073 33.0788 -46.0139
v 48.1037 33.0388 -46.5923
v 47.5251 33.0439 -47.3894
v -4.2556 33.5728 -16.7799
v -5.2394 31.4892 -15.1819
v -6.0186 31.5222 -17.5215
v -2.9114 31.2523 -15.9606
v -6.0186 31.5222 -17.5215
v -5.2394 31.4892 -15.1819
v -4.2556 33.5728 -16.7799
v -6.0186 31.5222 -17.5215
v -3.6906 31.2853 -18.3002
v -2.9114 31.2523 -15.9606
v -3.6906 31.2853 -18.3002
v -6.0186 31.5222 -17.5215
v -4.2556 33.5728 -16.7799
v -3.6906 31.2853 -18.3002
v -2.9114 31.2523 -15.9606
v -4.2556 33.5728 -16.7799
v -2.9114 31.2523 -15.9606
v -5.2394 31.4892 -15.1819
v -4.1447 34.7299 -16.8005
v -3.9214 32.7842 -15.5408
v -5.5488 32.9256 -16.3584
v -4.1447 34.7299 -16.8005
v -5.5488 32.9256 -16.3584
v -4.7376 32.8188 -17.9916
v -4.1447 34.7299 -16.8005
v -4.7376 32.8188 -17.9916
v -3.1102 32.6774 -17.1741
v -5.5488 32.9256 -16.3584
v -3.1102 32.6774 -17.1741
v -4.7376 32.8188 -17.9916
v -4.1447 34.7299 -16.8005
v -3.1102 32.6774 -17.1741
v -3.9214 32.7842 -15.5408
v -5.5488 32.9256 -16.3584
v -3.9214 32.7842 -15.5408
v -3.1102 32.6774 -17.1741
v -4.0462 35.7584 -16.8188
v -3.9533 34.0764 -16.0293
v -4.9623 34.1640 -16.5362
v -4.0462 35.7584 -16.8188
v -4.9623 34.1640 -16.5362
v -4.4594 34.0978 -17.5489
v -4.0462 35.7584 -16.8188
v -4.4594 34.0978 -17.5489
v -3.4503 34.0102 -17.0420
v -4.9623 34.1640 -16.5362
v -3.4503 34.0102 -17.0420
v -4.4594 34.0978 -17.5489
v -4.0462 35.7584 -16.8188
v -3.4503 34.0102 -17.0420
v -3.9533 34.0764 -16.0293
v -4.9623 34.1640 -16.5362
v -3.9533 34.0764 -16.0293
v -3.4503 34.0102 -17.0420
v 31.2480 34.6478 -27.4419
v 29.8668 32.4358 -26.4564
v 30.3167 32.4399 -28.8666
v 32.2764 32.4904 -26.0065
v 30.3167 32.4399 -28.8666
v 29.8668 32.4358 -26.4564
v 31.2480 34.6478 -27.4419
v 30.3167 32.4399 -28.8666
v 32.7263 32.4946 -28.4167
v 32.2764 32.4904 -26.0065
v 32.7263 32.4946 -28.4167
v 30.3167 32.4399 -28.8666
v 31.2480 34.6478 -27.4419
v 32.7263 32.4946 -28.4167
v 32.2764 32.4904 -26.0065
v 31.2480 34.6478 -27.4419
v 32.2764 32.4904 -26.0065
v 29.8668 32.4358 -26.4564
v 31.2224 35.8033 -27.4447
v 31.0295 33.8753 -26.1776
v 30.0031 33.8488 -27.6756
v 31.2224 35.8033 -27.4447
v 30.0031 33.8488 -27.6756
v 31.5008 33.8796 -28.7024
v 31.2224 35.8033 -27.4447
v 31.5008 33.8796 -28.7024
v 32.5272 33.9061 -27.2043
v 30.0031 33.8488 -27.6756
v 32.5272 33.9061 -27.2043
v 31.5008 33.8796 -28.7024
v 31.2224 35.8033 -27.4447
v 32.5272 33.9061 -27.2043
v 31.0295 33.8753 -26.1776
v 30.0031 33.8488 -27.6756
v 31.0295 33.8753 -26.1776
v 32.5272 33.9061 -27.2043
v 31.1995 36.8304 -27.4472
v 31.0905 35.1600 -26.6604
v 30.4541 35.1436 -27.5892
v 31.1995 36.8304 -27.4472
v 30.4541 35.1436 -27.5892
v 31.3827 35.1627 -28.2258
v 31.1995 36.8304 -27.4472
v 31.3827 35.1627 -28.2258
v 32.0191 35.1791 -27.2970
v 30.4541 35.1436 -27.5892
v 32.0191 35.1791 -27.2970
v 31.3827 35.1627 -28.2258
v 31.1995 36.8304 -27.4472
v 32.0191 35.1791 -27.2970
v 31.0905 35.1600 -26.6604
v 30.4541 35.1436 -27.5892
v 31.0905 35.1600 -26.6604
v 32.0191 35.1791 -27.2970
v -50.6169 34.1816 -51.1772
v -52.5396 32.0720 -51.0266
v -50.9136 31.9513 -52.9399
v -50.6303 31.9461 -49.3962
v -50.9136 31.9513 -52.9399
v -52.5396 32.0720 -51.0266
v -50.6169 34.1816 -51.1772
v -50.9136 31.9513 -52.9399
v -49.0045 31.8253 -51.3095
v -50.6303 31.9461 -49.3962
v -49.0045 31.8253 -51.3095
v -50.9136 31.9513 -52.9399
v -50.6169 34.1816 -51.1772
v -49.0045 31.8253 -51.3095
v -50.6303 31.9461 -49.3962
v -50.6169 34.1816 -51.1772
v -50.6303 31.9461 -49.3962
v -52.5396 32.0720 -51.0266
v -50.5348 35.3637 -51.1820
v -51.5233 33.4567 -50.1718
v -51.6716 33.4595 -52.0279
v -50.5348 35.3637 -51.1820
v -51.6716 33.4595 -52.0279
v -49.8200 33.3302 -52.1761
v -50.5348 35.3637 -51.1820
v -49.8200 33.3302 -52.1761
v -49.6716 33.3275 -50.3200
v -51.6716 33.4595 -52.0279
v -49.6716 33.3275 -50.3200
v -49.8200 33.3302 -52.1761
v -50.5348 35.3637 -51.1820
v -49.6716 33.3275 -50.3200
v -51.5233 33.4567 -50.1718
v -51.6716 33.4595 -52.0279
v -51.5233 33.4567 -50.1718
v -49.6716 33.3275 -50.3200
v -50.4618 36.4145 -51.1863
v -51.1084 34.7462 -50.5580
v -51.2004 34.7479 -51.7088
v -50.4618 36.4145 -51.1863
v -51.2004 34.7479 -51.7088
v -50.0524 34.6677 -51.8007
v -50.4618 36.4145 -51.1863
v -50.0524 34.6677 -51.8007
v -49.9604 34.6661 -50.6499
v -51.2004 34.7479 -51.7088
v -49.9604 34.6661 -50.6499
v -50.0524 34.6677 -51.8007
v -50.4618 36.4145 -51.1863
v -49.9604 34.6661 -50.6499
v -51.1084 34.7462 -50.5580
v -51.2004 34.7479 -51.7088
v -51.1084 34.7462 -50.5580
v -49.9604 34.6661 -50.6499
v -19.0945 35.0392 -36.5301
v -17.4757 32.6262 -35.6546
v -20.1100 32.4811 -35.2515
v -17.8908 32.8713 -38.2797
v -20.1100 32.4811 -35.2515
v -17.4757 32.6262 -35.6546
v -19.0945 35.0392 -36.5301
v -20.1100 32.4811 -35.2515
v -20.5252 32.7262 -37.8766
v -17.8908 32.8713 -38.2797
v -20.5252 32.7262 -37.8766
v -20.1100 32.4811 -35.2515
v -19.0945 35.0392 -36.5301
v -20.5252 32.7262 -37.8766
v -17.8908 32.8713 -38.2797
v -19.0945 35.0392 -36.5301
v -17.8908 32.8713 -38.2797
v -17.4757 32.6262 -35.6546
v -19.1443 36.2902 -36.4054
v -17.6815 34.2812 -36.8243
v -18.8439 34.0768 -35.2383
v -19.1443 36.2902 -36.4054
v -18.8439 34.0768 -35.2383
v -20.4412 34.1292 -36.4021
v -19.1443 36.2902 -36.4054
v -20.4412 34.1292 -36.4021
v -19.2787 34.3336 -37.9882
v -18.8439 34.0768 -35.2383
v -19.2787 34.3336 -37.9882
v -20.4412 34.1292 -36.4021
v -19.1443 36.2902 -36.4054
v -19.2787 34.3336 -37.9882
v -17.6815 34.2812 -36.8243
v -18.8439 34.0768 -35.2383
v -17.6815 34.2812 -36.8243
v -19.2787 34.3336 -37.9882
v -19.1886 37.4021 -36.2946
v -18.2612 35.6423 -36.6056
v -18.9819 35.5156 -35.6222
v -19.1886 37.4021 -36.2946
v -18.9819 35.5156 -35.6222
v -19.9722 35.5481 -36.3438
v -19.1886 37.4021 -36.2946
v -19.9722 35.5481 -36.3438
v -19.2515 35.6748 -37.3272
v -18.9819 35.5156 -35.6222
v -19.2515 35.6748 -37.3272
v -19.9722 35.5481 -36.3438
v -19.1886 37.4021 -36.2946
v -19.2515 35.6748 -37.3272
v -18.2612 35.6423 -36.6056
v -18.9819 35.5156 -35.6222
v -18.2612 35.6423 -36.6056
v -19.2515 35.6748 -37.3272
v -39.0294 26.8550 54.2263
v -41.0025 23.9242 53.3514
v -38.0427 24.0421 52.1378
v -39.7898 23.9717 56.3136
v -38.0427 24.0421 52.1378
v -41.0025 23.9242 53.3514
v -39.0294 26.8550 54.2263
v -38.0427 24.0421 52.1378
v -36.8300 24.0895 55.0999
v -39.7898 23.9717 56.3136
v -36.8300 24.0895 55.0999
v -38.0427 24.0421 52.1378
v -39.0294 26.8550 54.2263
v -36.8300 24.0895 55.0999
v -39.7898 23.9717 56.3136
v -39.0294 26.8550 54.2263
v -39.7898 23.9717 56.3136
v -41.0025 23.9242 53.3514
v -39.0892 28.3629 54.2267
v -40.5397 25.7881 54.8618
v -39.6246 25.8249 52.6746
v -39.0892 28.3629 54.2267
v -39.6246 25.8249 52.6746
v -37.4391 25.9115 53.5904
v -39.0892 28.3629 54.2267
v -37.4391 25.9115 53.5904
v -38.3542 25.8747 55.7776
v -39.6246 25.8249 52.6746
v -38.3542 25.8747 55.7776
v -37.4391 25.9115 53.5904
v -39.0892 28.3629 54.2267
v -38.3542 25.8747 55.7776
v -40.5397 25.7881 54.8618
v -39.6246 25.8249 52.6746
v -40.5397 25.7881 54.8618
v -38.3542 25.8747 55.7776
v -39.1425 29.7031 54.2270
v -40.0172 27.4869 54.6206
v -39.4498 27.5097 53.2645
v -39.1425 29.7031 54.2270
v -39.4498 27.5097 53.2645
v -38.0948 27.5634 53.8324
v -39.1425 29.7031 54.2270
v -38.0948 27.5634 53.8324
v -38.6621 27.5406 55.1884
v -39.4498 27.5097 53.2645
v -38.6621 27.5406 55.1884
v -38.0948 27.5634 53.8324
v -39.1425 29.7031 54.2270
v -38.6621 27.5406 55.1884
v -40.0172 27.4869 54.6206
v -39.4498 27.5097 53.2645
v -40.0172 27.4869 54.6206
v -38.6621 27.5406 55.1884
v -13.2535 27.9415 68.8576
v -15.1000 25.9708 68.9311
v -13.4389 25.7838 67.2425
v -13.4121 25.8839 70.6012
v -13.4389 25.7838 67.2425
v -15.1000 25.9708 68.9311
v -13.2535 27.9415 68.8576
v -13.4389 25.7838 67.2425
v -11.7510 25.6969 68.9126
v -13.4121 25.8839 70.6012
v -11.7510 25.6969 68.9126
v -13.4389 25.7838 67.2425
v -13.2535 27.9415 68.8576
v -11.7510 25.6969 68.9126
v -13.4121 25.8839 70.6012
v -13.2535 27.9415 68.8576
v -13.4121 25.8839 70.6012
v -15.1000 25.9708 68.9311
v -13.1624 29.0574 68.8236
v -14.1842 27.2956 69.7648
v -14.1983 27.2431 68.0056
v -13.1624 29.0574 68.8236
v -14.1983 27.2431 68.0056
v -12.4442 27.0997 67.9958
v -13.1624 29.0574 68.8236
v -12.4442 27.0997 67.9958
v -12.4301 27.1521 69.7550
v -14.1983 27.2431 68.0056
v -12.4301 27.1521 69.7550
v -12.4442 27.0997 67.9958
v -13.1624 29.0574 68.8236
v -12.4301 27.1521 69.7550
v -14.1842 27.2956 69.7648
v -14.1983 27.2431 68.0056
v -14.1842 27.2956 69.7648
v -12.4301 27.1521 69.7550
v -13.0815 30.0492 68.7934
v -13.7524 28.4982 69.3909
v -13.7611 28.4657 68.3002
v -13.0815 30.0492 68.7934
v -13.7611 28.4657 68.3002
v -12.6736 28.3767 68.2942
v -13.0815 30.0492 68.7934
v -12.6736 28.3767 68.2942
v -12.6649 28.4092 69.3849
v -13.7611 28.4657 68.3002
v -12.6649 28.4092 69.3849
v -12.6736 28.3767 68.2942
v -13.0815 30.0492 68.7934
v -12.6649 28.4092 69.3849
v -13.7524 28.4982 69.3909
v -13.7611 28.4657 68.3002
v -13.7524 28.4982 69.3909
v -12.6649 28.4092 69.3849
vt 0.00000 1.00000
vt 0.00000 1.00000
vt 0.00000 1.00000
vt 0.00000 1.00000
vt 0.00000 1.00000
vt 0.00000 1.00000
vt 0.00000 1.00000
vt 0.00000 1.00000
vt 0.00000 1.00000
vt 0.00000 1.00000
vt 0.00000 1.00000
vt 0.00000 1.00000
vt 0.00000 1.00000
vt 0.00000 1.00000
vt 0.00000 1.00000
vt 0.00000 1.00000
vt 0.00000 1.00000
vt 0.00000 1.00000
vt 0.00000 1.00000
vt 0.00000 1.00000
vt 0.00000 1.00000
vt 0.00000 1.00000
vt 0.00000 1.00000
vt 0.00000 1.00000
vt 0.00000 1.00000
vt 0.00000 1.00000
vt 0.00000 1.00000
vt 0.00000 1.00000
vt 0.00000 1.00000
vt 0.00000 1.00000
vt 0.00000 1.00000
vt 0.00000 1.00000
vt 0.00000 1.00000
vt 0.00000 1.00000
vt 0.00000 1.00000
vt 0.00000 1.00000
vt 0.00000 1.00000
vt 0.00000 1.00000
vt 0.00000 1.00000
vt 0.00000 1.00000
vt 0.00000 1.00000
vt 0.00000 1.00000
vt 0.00000 1.00000
vt 0.00000 1.00000
vt 0.00000 1.00000
vt 0.00000 1.00000
vt 0.00000 1.00000
vt 0.00000 1.00000
vt 0.00000 1.00000
vt 0.00000 1.00000
vt 0.00000 1.00000
vt 0.00000 1.00000
vt 0.00000 1.00000
vt 0.00000 1.00000
vt 0.00000 1.00000
vt 0.00000 1.00000
vt 0.00000 1.00000
vt 0.00000 1.00000
vt 0.00000 1.00000
vt 0.00000 1.00000
vt 0.00000 1.00000
vt 0.00000 1.00000
vt 0.00000 1.00000
vt 0.00000 1.00000
vt 0.00000 1.00000
vt 0.00000 1.00000
vt 0.00000 1.00000
vt 0.00000 1.00000
vt 0.00000 1.00000
vt 0.00000 1.00000
vt 0.00000 1.00000
vt 0.00000 1.00000
vt 0.00000 1.00000
vt 0.00000 1.00000
vt 0.00000 1.00000
vt 0.00000 1.00000
vt 0.00000 1.00000
vt 0.00000 1.00000
vt 0.00000 1.00000
vt 0.00000 1.00000
vt 0.00000 1.00000
vt 0.00000 1.00000
vt 0.00000 1.00000
vt 0.00000 1.00000
vt 0.00000 1.00000
vt 0.00000 1.00000
vt 0.00000 1.00000
vt 0.00000 1.00000
vt 0.00000 1.00000
vt 0.00000 1.00000
vt 0.00000 1.00000
vt 0.00000 1.00000
vt 0.00000 1.00000
vt 0.00000 1.00000
vt 0.00000 1.00000
vt 0.00000 1.00000
vt 0.00000 1.00000
vt 0.00000 1.00000
vt 0.00000 1.00000
vt 0.00000 1.00000
vt 0.00000 1.00000
vt 0.00000 1.00000
vt 0.00000 1.00000
vt 0.00000 1.00000
vt 0.00000 1.00000
vt 0.00000 1.00000
vt 0.00000 1.00000
vt 0.00000 1.00000
vt 0.00000 1.00000
vt 0.00000 1.00000
vt 0.00000 1.00000
vt 0.00000 1.00000
vt 0.00000 1.00000
vt 0.00000 1.00000
vt 0.00000 1.00000
vt 0.00000 1.00000
vt 0.00000 1.00000
vt 0.00000 1.00000
vt 0.00000 1.00000
vt 0.00000 1.00000
vt 0.00000 1.00000
vt 0.00000 1.00000
vt 0.00000 1.00000
vt 0.00000 1.00000
vt 0.00000 1.00000
vt 0.00000 1.00000
vt 0.00000 1.00000
vt 0.00000 1.00000
vt 0.00000 1.00000
vt 0.00000 1.00000
vt 0.00000 1.00000
vt 0.00000 1.00000
vt 0.00000 1.00000
vt 0.00000 1.00000
vt 0.00000 1.00000
vt 0.00000 1.00000
vt 0.00000 1.00000
vt 0.00000 1.00000
vt 0.00000 1.00000
vt 0.00000 1.00000
vt 0.00000 1.00000
vt 0.00000 1.00000
vt 0.00000 1.00000
vt 0.00000 1.00000
vt 0.00000 1.00000
vt 0.00000 1.00000
vt 0.00000 1.00000
vt 0.00000 1.00000
vt 0.00000 1.00000
vt 0.00000 1.00000
vt 0.00000 1.00000
vt 0.00000 1.00000
vt 0.00000 1.00000
vt 0.00000 1.00000
vt 0.00000 1.00000
vt 0.00000 1.00000
vt 0.00000 1.00000
vt 0.00000 1.00000
vt 0.00000 1.00000
vt 0.00000 1.00000
vt 0.00000 1.00000
vt 0.00000 1.00000
vt 0.00000 1.00000
vt 0.00000 1.00000
vt 0.00000 1.00000
vt 0.00000 1.00000
vt 0.00000 1.00000
vt 0.00000 1.00000
vt 0.00000 1.00000
vt 0.00000 1.00000
vt 0.00000 1.00000
vt 0.00000 1.00000
vt 0.00000 1.00000
vt 0.00000 1.00000
vt 0.00000 1.00000
vt 0.00000 1.00000
vt 0.00000 1.00000
vt 0.00000 1.00000
vt 0.00000 1.00000
vt 0.00000 1.00000
vt 0.00000 1.00000
vt 0.00000 1.00000
vt 0.00000 1.00000
vt 0.00000 1.00000
vt 0.00000 1.00000
vt 0.00000 1.00000
vt 0.00000 1.00000
vt 0.00000 1.00000
vt 0.00000 1.00000
vt 0.00000 1.00000
vt 0.00000 1.00000
vt 0.00000 1.00000
vt 0.00000 1.00000
vt 0.00000 1.00000
vt 0.00000 1.00000
vt 0.00000 1.00000
vt 0.00000 1.00000
vt 0.00000 1.00000
vt 0.00000 1.00000
vt 0.00000 1.00000
vt 0.00000 1.00000
vt 0.00000 1.00000
vt 0.00000 1.00000
vt 0.00000 1.00000
vt 0.00000 1.00000
vt 0.00000 1.00000
vt 0.00000 1.00000
vt 0.00000 1.00000
vt 0.00000 1.00000
vt 0.00000 1.00000
vt 0.00000 1.00000
vt 0.00000 1.00000
vt 0.00000 1.00000
vt 0.00000 1.00000
vt 0.00000 1.00000
vt 0.00000 1.00000
vt 0.00000 1.00000
vt 0.00000 1.00000
vt 0.00000 1.00000
vt 0.00000 1.00000
vt 0.00000 1.00000
vt 0.00000 1.00000
vt 0.00000 1.00000
vt 0.00000 1.00000
vt 0.00000 1.00000
vt 0.00000 1.00000
vt 0.00000 1.00000
vt 0.00000 1.00000
vt 0.00000 1.00000
vt 0.00000 1.00000
vt 0.00000 1.00000
vt 0.00000 1.00000
vt 0.00000 1.00000
vt 0.00000 1.00000
vt 0.00000 1.00000
vt 0.00000 1.00000
vt 0.00000 1.00000
vt 0.00000 1.00000
vt 0.00000 1.00000
vt 0.00000 1.00000
vt 0.00000 1.00000
vt 0.00000 1.00000
vt 0.00000 1.00000
vt 0.00000 1.00000
vt 0.00000 1.00000
vt 0.00000 1.00000
vt 0.00000 1.00000
vt 0.00000 1.00000
vt 0.00000 1.00000
vt 0.00000 1.00000
vt 0.00000 1.00000
vt 0.00000 1.00000
vt 0.00000 1.00000
vt 0.00000 1.00000
vt 0.00000 1.00000
vt 0.00000 1.00000
vt 0.00000 1.00000
vt 0.00000 1.00000
vt 0.00000 1.00000
vt 0.00000 1.00000
vt 0.00000 1.00000
vt 0.00000 1.00000
vt 0.00000 1.00000
vt 0.00000 1.00000
vt 0.00000 1.00000
vt 0.00000 1.00000
vt 0.00000 1.00000
vt 0.00000 1.00000
vt 0.00000 1.00000
vt 0.00000 1.00000
vt 0.00000 1.00000
vt 0.00000 1.00000
vt 0.00000 1.00000
vt 0.00000 1.00000
vt 0.00000 1.00000
vt 0.00000 1.00000
vt 0.00000 1.00000
vt 0.00000 1.00000
vt 0.00000 1.00000
vt 0.00000 1.00000
vt 0.00000 1.00000
vt 0.00000 1.00000
vt 0.00000 1.00000
vt 0.00000 1.00000
vt 0.00000 1.00000
vt 0.00000 1.00000
vt 0.00000 1.00000
vt 0.00000 1.00000
vt 0.00000 1.00000
vt 0.00000 1.00000
vt 0.00000 1.00000
vt 0.00000 1.00000
vt 0.00000 1.00000
vt 0.00000 1.00000
vt 0.00000 1.00000
vt 0.00000 1.00000
vt 0.00000 1.00000
vt 0.00000 1.00000
vt 0.00000 1.00000
vt 0.00000 1.00000
vt 0.00000 1.00000
vt 0.00000 1.00000
vt 0.00000 1.00000
vt 0.00000 1.00000
vt 0.00000 1.00000
vt 0.00000 1.00000
vt 0.00000 1.00000
vt 0.00000 1.00000
vt 0.00000 1.00000
vt 0.00000 1.00000
vt 0.00000 1.00000
vt 0.00000 1.00000
vt 0.00000 1.00000
vt 0.00000 1.00000
vt 0.00000 1.00000
vt 0.00000 1.00000
vt 0.00000 1.00000
vt 0.00000 1.00000
vt 0.00000 1.00000
vt 0.00000 1.00000
vt 0.00000 1.00000
vt 0.00000 1.00000
vt 0.00000 1.00000
vt 0.00000 1.00000
vt 0.00000 1.00000
vt 0.00000 1.00000
vt 0.00000 1.00000
vt 0.00000 1.00000
vt 0.00000 1.00000
vt 0.00000 1.00000
vt 0.00000 1.00000
vt 0.00000 1.00000
vt 0.00000 1.00000
vt 0.00000 1.00000
vt 0.00000 1.00000
vt 0.00000 1.00000
vt 0.00000 1.00000
vt 0.00000 1.00000
vt 0.00000 1.00000
vt 0.00000 1.00000
vt 0.00000 1.00000
vt 0.00000 1.00000
vt 0.00000 1.00000
vt 0.00000 1.00000
vt 0.00000 1.00000
vt 0.00000 1.00000
vt 0.00000 1.00000
vt 0.00000 1.00000
vt 0.00000 1.00000
vt 0.00000 1.00000
vt 0.00000 1.00000
vt 0.00000 1.00000
vt 0.00000 1.00000
vt 0.00000 1.00000
vt 0.00000 1.00000
vt 0.00000 1.00000
vt 0.00000 1.00000
vt 0.00000 1.00000
vt 0.00000 1.00000
vt 0.00000 1.00000
vt 0.00000 1.00000
vt 0.00000 1.00000
vt 0.00000 1.00000
vt 0.00000 1.00000
vt 0.00000 1.00000
vt 0.00000 1.00000
vt 0.00000 1.00000
vt 0.00000 1.00000
vt 0.00000 1.00000
vt 0.00000 1.00000
vt 0.00000 1.00000
vt 0.00000 1.00000
vt 0.00000 1.00000
vt 0.00000 1.00000
vt 0.00000 1.00000
vt 0.00000 1.00000
vt 0.00000 1.00000
vt 0.00000 1.00000
vt 0.00000 1.00000
vt 0.00000 1.00000
vt 0.00000 1.00000
vt 0.00000 1.00000
vt 0.00000 1.00000
vt 0.00000 1.00000
vt 0.00000 1.00000
vt 0.00000 1.00000
vt 0.00000 1.00000
vt 0.00000 1.00000
vt 0.00000 1.00000
vt 0.00000 1.00000
vt 0.00000 1.00000
vt 0.00000 1.00000
vt 0.00000 1.00000
vt 0.00000 1.00000
vt 0.00000 1.00000
vt 0.00000 1.00000
vt 0.00000 1.00000
vt 0.00000 1.00000
vt 0.00000 1.00000
vt 0.00000 1.00000
vt 0.00000 1.00000
vt 0.00000 1.00000
vt 0.00000 1.00000
vt 0.00000 1.00000
vt 0.00000 1.00000
vt 0.00000 1.00000
vt 0.00000 1.00000
vt 0.00000 1.00000
vt 0.00000 1.00000
vt 0.00000 1.00000
vt 0.00000 1.00000
vt 0.00000 1.00000
vt 0.00000 1.00000
vt 0.00000 1.00000
vt 0.00000 1.00000
vt 0.00000 1.00000
vt 0.00000 1.00000
vt 0.00000 1.00000
vt 0.00000 1.00000
vt 0.00000 1.00000
vt 0.00000 1.00000
vt 0.00000 1.00000
vt 0.00000 1.00000
vt 0.00000 1.00000
vt 0.00000 1.00000
vt 0.00000 1.00000
vt 0.00000 1.00000
vt 0.00000 1.00000
vt 0.00000 1.00000
vt 0.00000 1.00000
vt 0.00000 1.00000
vt 0.00000 1.00000
vt 0.00000 1.00000
vt 0.00000 1.00000
vt 0.00000 1.00000
vt 0.00000 1.00000
vt 0.00000 1.00000
vt 0.00000 1.00000
vt 0.00000 1.00000
vt 0.00000 1.00000
vt 0.00000 1.00000
vt 0.00000 1.00000
vt 0.00000 1.00000
vt 0.00000 1.00000
vt 0.00000 1.00000
vt 0.00000 1.00000
vt 0.00000 1.00000
vt 0.00000 1.00000
vt 0.00000 1.00000
vt 0.00000 1.00000
vt 0.00000 1.00000
vt 0.00000 1.00000
vt 0.00000 1.00000
vt 0.00000 1.00000
vt 0.00000 1.00000
vt 0.00000 1.00000
vt 0.00000 1.00000
vt 0.00000 1.00000
vt 0.00000 1.00000
vt 0.00000 1.00000
vt 0.00000 1.00000
vt 0.00000 1.00000
vt 0.00000 1.00000
vt 0.00000 1.00000
vt 0.00000 1.00000
vt 0.00000 1.00000
vt 0.00000 1.00000
vt 0.00000 1.00000
vt 0.00000 1.00000
vt 0.00000 1.00000
vt 0.00000 1.00000
vt 0.00000 1.00000
vt 0.00000 1.00000
vt 0.00000 1.00000
vt 0.00000 1.00000
vt 0.00000 1.00000
vt 0.00000 1.00000
vt 0.00000 1.00000
vt 0.00000 1.00000
vt 0.00000 1.00000
vt 0.00000 1.00000
vt 0.00000 1.00000
vt 0.00000 1.00000
vt 0.00000 1.00000
vt 0.00000 1.00000
vt 0.00000 1.00000
vt 0.00000 1.00000
vt 0.00000 1.00000
vt 0.00000 1.00000
vt 0.00000 1.00000
vt 0.00000 1.00000
vt 0.00000 1.00000
vt 0.00000 1.00000
vt 0.00000 1.00000
vt 0.00000 1.00000
vt 0.00000 1.00000
vt 0.00000 1.00000
vt 0.00000 1.00000
vt 0.00000 1.00000
vt 0.00000 1.00000
vt 0.00000 1.00000
vt 0.00000 1.00000
vt 0.00000 1.00000
vt 0.00000 1.00000
vt 0.00000 1.00000
vt 0.00000 1.00000
vt 0.00000 1.00000
vt 0.00000 1.00000
vt 0.00000 1.00000
vt 0.00000 1.00000
vt 0.00000 1.00000
vt 0.00000 1.00000
vt 0.00000 1.00000
vt 0.00000 1.00000
vt 0.00000 1.00000
vt 0.00000 1.00000
vt 0.00000 1.00000
vt 0.00000 1.00000
vt 0.00000 1.00000
vt 0.00000 1.00000
vt 0.00000 1.00000
vt 0.00000 1.00000
vt 0.00000 1.00000
vt 0.00000 1.00000
vt 0.00000 1.00000
vt 0.00000 1.00000
vt 0.00000 1.00000
vt 0.00000 1.00000
vt 0.00000 1.00000
vt 0.00000 1.00000
vt 0.00000 1.00000
vt 0.00000 1.00000
vt 0.00000 1.00000
vt 0.00000 1.00000
vt 0.00000 1.00000
vt 0.00000 1.00000
vt 0.00000 1.00000
vt 0.00000 1.00000
vt 0.00000 1.00000
vt 0.00000 1.00000
vt 0.00000 1.00000
vt 0.00000 1.00000
vt 0.00000 1.00000
vt 0.00000 1.00000
vt 0.00000 1.00000
vt 0.00000 1.00000
vt 0.00000 1.00000
vt 0.00000 1.00000
vt 0.00000 1.00000
vt 0.00000 1.00000
vt 0.00000 1.00000
vt 0.00000 1.00000
vt 0.00000 1.00000
vt 0.00000 1.00000
vt 0.00000 1.00000
vt 0.00000 1.00000
vt 0.00000 1.00000
vt 0.00000 1.00000
vt 0.00000 1.00000
vt 0.00000 1.00000
vt 0.00000 1.00000
vt 0.00000 1.00000
vt 0.00000 1.00000
vt 0.00000 1.00000
vt 0.00000 1.00000
vt 0.00000 1.00000
vt 0.00000 1.00000
vt 0.00000 1.00000
vt 0.00000 1.00000
vt 0.00000 1.00000
vt 0.00000 1.00000
vt 0.00000 1.00000
vt 0.00000 1.00000
vt 0.00000 1.00000
vt 0.00000 1.00000
vt 0.00000 1.00000
vt 0.00000 1.00000
vt 0.00000 1.00000
vt 0.00000 1.00000
vt 0.00000 1.00000
vt 0.00000 1.00000
vt 0.00000 1.00000
vt 0.00000 1.00000
vt 0.00000 1.00000
vt 0.00000 1.00000
vt 0.00000 1.00000
vt 0.00000 1.00000
vt 0.00000 1.00000
vt 0.00000 1.00000
vt 0.00000 1.00000
vt 0.00000 1.00000
vt 0.00000 1.00000
vt 0.00000 1.00000
vt 0.00000 1.00000
vt 0.00000 1.00000
vt 0.00000 1.00000
vt 0.00000 1.00000
vt 0.00000 1.00000
vt 0.00000 1.00000
vt 0.00000 1.00000
vt 0.00000 1.00000
vt 0.00000 1.00000
vt 0.00000 1.00000
vt 0.00000 1.00000
vt 0.00000 1.00000
vt 0.00000 1.00000
vt 0.00000 1.00000
vt 0.00000 1.00000
vt 0.00000 1.00000
vt 0.00000 1.00000
vt 0.00000 1.00000
vt 0.00000 1.00000
vt 0.00000 1.00000
vt 0.00000 1.00000
vt 0.00000 1.00000
vt 0.00000 1.00000
vt 0.00000 1.00000
vt 0.00000 1.00000
vt 0.00000 1.00000
vt 0.00000 1.00000
vt 0.00000 1.00000
vt 0.00000 1.00000
vt 0.00000 1.00000
vt 0.00000 1.00000
vt 0.00000 1.00000
vt 0.00000 1.00000
vt 0.00000 1.00000
vt 0.00000 1.00000
vt 0.00000 1.00000
vt 0.00000 1.00000
vt 0.00000 1.00000
vt 0.00000 1.00000
vt 0.00000 1.00000
vt 0.00000 1.00000
vt 0.00000 1.00000
vt 0.00000 1.00000
vt 0.00000 1.00000
vt 0.00000 1.00000
vt 0.00000 1.00000
vt 0.00000 1.00000
vt 0.00000 1.00000
vt 0.00000 1.00000
vt 0.00000 1.00000
vt 0.00000 1.00000
vt 0.00000 1.00000
vt 0.00000 1.00000
vt 0.00000 1.00000
vt 0.00000 1.00000
vt 0.00000 1.00000
vt 0.00000 1.00000
vt 0.00000 1.00000
vt 0.00000 1.00000
vt 0.00000 1.00000
vt 0.00000 1.00000
vt 0.00000 1.00000
vt 0.00000 1.00000
vt 0.00000 1.00000
vt 0.00000 1.00000
vt 0.00000 1.00000
vt 0.00000 1.00000
vt 0.00000 1.00000
vt 0.00000 1.00000
vt 0.00000 1.00000
vt 0.00000 1.00000
vt 0.00000 1.00000
vt 0.00000 1.00000
vt 0.00000 1.00000
vt 0.00000 1.00000
vt 0.00000 1.00000
vt 0.00000 1.00000
vt 0.00000 1.00000
vt 0.00000 1.00000
vt 0.00000 1.00000
vt 0.00000 1.00000
vt 0.00000 1.00000
vt 0.00000 1.00000
vt 0.00000 1.00000
vt 0.00000 1.00000
vt 0.00000 1.00000
vt 0.00000 1.00000
vt 0.00000 1.00000
vt 0.00000 1.00000
vt 0.00000 1.00000
vt 0.00000 1.00000
vt 0.00000 1.00000
vt 0.00000 1.00000
vt 0.00000 1.00000
vt 0.00000 1.00000
vt 0.00000 1.00000
vt 0.00000 1.00000
vt 0.00000 1.00000
vt 0.00000 1.00000
vt 0.00000 1.00000
vt 0.00000 1.00000
vt 0.00000 1.00000
vt 0.00000 1.00000
vt 0.00000 1.00000
vt 0.00000 1.00000
vt 0.00000 1.00000
vt 0.00000 1.00000
vt 0.00000 1.00000
vt 0.00000 1.00000
vt 0.00000 1.00000
vt 0.00000 1.00000
vt 0.00000 1.00000
vt 0.00000 1.00000
vt 0.00000 1.00000
vt 0.00000 1.00000
vt 0.00000 1.00000
vt 0.00000 1.00000
vt 0.00000 1.00000
vt 0.00000 1.00000
vt 0.00000 1.00000
vt 0.00000 1.00000
vt 0.00000 1.00000
vt 0.00000 1.00000
vt 0.00000 1.00000
vt 0.00000 1.00000
vt 0.00000 1.00000
vt 0.00000 1.00000
vt 0.00000 1.00000
vt 0.00000 1.00000
vt 0.00000 1.00000
vt 0.00000 1.00000
vt 0.00000 1.00000
vt 0.00000 1.00000
vt 0.00000 1.00000
vt 0.00000 1.00000
vt 0.00000 1.00000
vt 0.00000 1.00000
vt 0.00000 1.00000
vt 0.00000 1.00000
vt 0.00000 1.00000
vt 0.00000 1.00000
vt 0.00000 1.00000
vt 0.00000 1.00000
vt 0.00000 1.00000
vt 0.00000 1.00000
vt 0.00000 1.00000
vt 0.00000 1.00000
vt 0.00000 1.00000
vt 0.00000 1.00000
vt 0.00000 1.00000
vt 0.00000 1.00000
vt 0.00000 1.00000
vt 0.00000 1.00000
vt 0.00000 1.00000
vt 0.00000 1.00000
vt 0.00000 1.00000
vt 0.00000 1.00000
vt 0.00000 1.00000
vt 0.00000 1.00000
vt 0.00000 1.00000
vt 0.00000 1.00000
vt 0.00000 1.00000
vt 0.00000 1.00000
vt 0.00000 1.00000
vt 0.00000 1.00000
vt 0.00000 1.00000
vt 0.00000 1.00000
vt 0.00000 1.00000
vt 0.00000 1.00000
vt 0.00000 1.00000
vt 0.00000 1.00000
vt 0.00000 1.00000
vt 0.00000 1.00000
vt 0.00000 1.00000
vt 0.00000 1.00000
vt 0.00000 1.00000
vt 0.00000 1.00000
vt 0.00000 1.00000
vt 0.00000 1.00000
vt 0.00000 1.00000
vt 0.00000 1.00000
vt 0.00000 1.00000
vt 0.00000 1.00000
vt 0.00000 1.00000
vt 0.00000 1.00000
vt 0.00000 1.00000
vt 0.00000 1.00000
vt 0.00000 1.00000
vt 0.00000 1.00000
vt 0.00000 1.00000
vt 0.00000 1.00000
vt 0.00000 1.00000
vt 0.00000 1.00000
vt 0.00000 1.00000
vt 0.00000 1.00000
vt 0.00000 1.00000
vt 0.00000 1.00000
vt 0.00000 1.00000
vt 0.00000 1.00000
vt 0.00000 1.00000
vt 0.00000 1.00000
vt 0.00000 1.00000
vt 0.00000 1.00000
vt 0.00000 1.00000
vt 0.00000 1.00000
vt 0.00000 1.00000
vt 0.00000 1.00000
vt 0.00000 1.00000
vt 0.00000 1.00000
vt 0.00000 1.00000
vt 0.00000 1.00000
vt 0.00000 1.00000
vt 0.00000 1.00000
vt 0.00000 1.00000
vt 0.00000 1.00000
vt 0.00000 1.00000
vt 0.00000 1.00000
vt 0.00000 1.00000
vt 0.00000 1.00000
vt 0.00000 1.00000
vt 0.00000 1.00000
vt 0.00000 1.00000
vt 0.00000 1.00000
vt 0.00000 1.00000
vt 0.00000 1.00000
vt 0.00000 1.00000
vt 0.00000 1.00000
vt 0.00000 1.00000
vt 0.00000 1.00000
vt 0.00000 1.00000
vt 0.00000 1.00000
vt 0.00000 1.00000
vt 0.00000 1.00000
vt 0.00000 1.00000
vt 0.00000 1.00000
vt 0.00000 1.00000
vt 0.00000 1.00000
vt 0.00000 1.00000
vt 0.00000 1.00000
vt 0.00000 1.00000
vt 0.00000 1.00000
vt 0.00000 1.00000
vt 0.00000 1.00000
vt 0.00000 1.00000
vt 0.00000 1.00000
vt 0.00000 1.00000
vt 0.00000 1.00000
vt 0.00000 1.00000
vt 0.00000 1.00000
vt 0.00000 1.00000
vt 0.00000 1.00000
vt 0.00000 1.00000
vt 0.00000 1.00000
vt 0.00000 1.00000
vt 0.00000 1.00000
vt 0.00000 1.00000
vt 0.00000 1.00000
vt 0.00000 1.00000
vt 0.00000 1.00000
vt 0.00000 1.00000
vt 0.00000 1.00000
vt 0.00000 1.00000
vt 0.00000 1.00000
vt 0.00000 1.00000
vt 0.00000 1.00000
vt 0.00000 1.00000
vt 0.00000 1.00000
vt 0.00000 1.00000
vt 0.00000 1.00000
vt 0.00000 1.00000
vt 0.00000 1.00000
vt 0.00000 1.00000
vt 0.00000 1.00000
vt 0.00000 1.00000
vt 0.00000 1.00000
vt 0.00000 1.00000
vt 0.00000 1.00000
vt 0.00000 1.00000
vt 0.00000 1.00000
vt 0.00000 1.00000
vt 0.00000 1.00000
vt 0.00000 1.00000
vt 0.00000 1.00000
vt 0.00000 1.00000
vt 0.00000 1.00000
vt 0.00000 1.00000
vt 0.00000 1.00000
vt 0.00000 1.00000
vt 0.00000 1.00000
vt 0.00000 1.00000
vt 0.00000 1.00000
vt 0.00000 1.00000
vt 0.00000 1.00000
vt 0.00000 1.00000
vt 0.00000 1.00000
vt 0.00000 1.00000
vt 0.00000 1.00000
vt 0.00000 1.00000
vt 0.00000 1.00000
vt 0.00000 1.00000
vt 0.00000 1.00000
vt 0.00000 1.00000
vt 0.00000 1.00000
vt 0.00000 1.00000
vt 0.00000 1.00000
vt 0.00000 1.00000
vt 0.00000 1.00000
vt 0.00000 1.00000
vt 0.00000 1.00000
vt 0.00000 1.00000
vt 0.00000 1.00000
vt 0.00000 1.00000
vt 0.00000 1.00000
vt 0.00000 1.00000
vt 0.00000 1.00000
vt 0.00000 1.00000
vt 0.00000 1.00000
vt 0.00000 1.00000
vt 0.00000 1.00000
vt 0.00000 1.00000
vt 0.00000 1.00000
vt 0.00000 1.00000
vt 0.00000 1.00000
vt 0.00000 1.00000
vt 0.00000 1.00000
vt 0.00000 1.00000
vt 0.00000 1.00000
vt 0.00000 1.00000
vt 0.00000 1.00000
vt 0.00000 1.00000
vt 0.00000 1.00000
vt 0.00000 1.00000
vt 0.00000 1.00000
vt 0.00000 1.00000
vt 0.00000 1.00000
vt 0.00000 1.00000
vt 0.00000 1.00000
vt 0.00000 1.00000
vt 0.00000 1.00000
vt 0.00000 1.00000
vt 0.00000 1.00000
vt 0.00000 1.00000
vt 0.00000 1.00000
vt 0.00000 1.00000
vt 0.00000 1.00000
vt 0.00000 1.00000
vt 0.00000 1.00000
vt 0.00000 1.00000
vt 0.00000 1.00000
vt 0.00000 1.00000
vt 0.00000 1.00000
vt 0.00000 1.00000
vt 0.00000 1.00000
vt 0.00000 1.00000
vt 0.00000 1.00000
vt 0.00000 1.00000
vt 0.00000 1.00000
vt 0.00000 1.00000
vt 0.00000 1.00000
vt 0.00000 1.00000
vt 0.00000 1.00000
vt 0.00000 1.00000
vt 0.00000 1.00000
vt 0.00000 1.00000
vt 0.00000 1.00000
vt 0.00000 1.00000
vt 0.00000 1.00000
vt 0.00000 1.00000
vt 0.00000 1.00000
vt 0.00000 1.00000
vt 0.00000 1.00000
vt 0.00000 1.00000
vt 0.00000 1.00000
vt 0.00000 1.00000
vt 0.00000 1.00000
vt 0.00000 1.00000
vt 0.00000 1.00000
vt 0.00000 1.00000
vt 0.00000 1.00000
vt 0.00000 1.00000
vt 0.00000 1.00000
vt 0.00000 1.00000
vt 0.00000 1.00000
vt 0.00000 1.00000
vt 0.00000 1.00000
vt 0.00000 1.00000
vt 0.00000 1.00000
vt 0.00000 1.00000
vt 0.00000 1.00000
vt 0.00000 1.00000
vt 0.00000 1.00000
vt 0.00000 1.00000
vt 0.00000 1.00000
vt 0.00000 1.00000
vt 0.00000 1.00000
vt 0.00000 1.00000
vt 0.00000 1.00000
vt 0.00000 1.00000
vt 0.00000 1.00000
vt 0.00000 1.00000
vt 0.00000 1.00000
vt 0.00000 1.00000
vt 0.00000 1.00000
vt 0.00000 1.00000
vt 0.00000 1.00000
vt 0.00000 1.00000
vt 0.00000 1.00000
vt 0.00000 1.00000
vt 0.00000 1.00000
vt 0.00000 1.00000
vt 0.00000 1.00000
vt 0.00000 1.00000
vt 0.00000 1.00000
vt 0.00000 1.00000
vt 0.00000 1.00000
vt 0.00000 1.00000
vt 0.00000 1.00000
vt 0.00000 1.00000
vt 0.00000 1.00000
vt 0.00000 1.00000
vt 0.00000 1.00000
vt 0.00000 1.00000
vt 0.00000 1.00000
vt 0.00000 1.00000
vt 0.00000 1.00000
vt 0.00000 1.00000
vt 0.00000 1.00000
vt 0.00000 1.00000
vt 0.00000 1.00000
vt 0.00000 1.00000
vt 0.00000 1.00000
vt 0.00000 1.00000
vt 0.00000 1.00000
vt 0.00000 1.00000
vt 0.00000 1.00000
vt 0.00000 1.00000
vt 0.00000 1.00000
vt 0.00000 1.00000
vt 0.00000 1.00000
vt 0.00000 1.00000
vt 0.00000 1.00000
vt 0.00000 1.00000
vt 0.00000 1.00000
vt 0.00000 1.00000
vt 0.00000 1.00000
vt 0.00000 1.00000
vt 0.00000 1.00000
vt 0.00000 1.00000
vt 0.00000 1.00000
vt 0.00000 1.00000
vt 0.00000 1.00000
vt 0.00000 1.00000
vt 0.00000 1.00000
vt 0.00000 1.00000
vt 0.00000 1.00000
vt 0.00000 1.00000
vt 0.00000 1.00000
vt 0.00000 1.00000
vt 0.00000 1.00000
vt 0.00000 1.00000
vt 0.00000 1.00000
vt 0.00000 1.00000
vt 0.00000 1.00000
vt 0.00000 1.00000
vt 0.00000 1.00000
vt 0.00000 1.00000
vt 0.00000 1.00000
vt 0.00000 1.00000
vt 0.00000 1.00000
vt 0.00000 1.00000
vt 0.00000 1.00000
vt 0.00000 1.00000
vt 0.00000 1.00000
vt 0.00000 1.00000
vt 0.00000 1.00000
vt 0.00000 1.00000
vt 0.00000 1.00000
vt 0.00000 1.00000
vt 0.00000 1.00000
vt 0.00000 1.00000
vt 0.00000 1.00000
vt 0.00000 1.00000
vt 0.00000 1.00000
vt 0.00000 1.00000
vt 0.00000 1.00000
vt 0.00000 1.00000
vt 0.00000 1.00000
vt 0.00000 1.00000
vt 0.00000 1.00000
vt 0.00000 1.00000
vt 0.00000 1.00000
vt 0.00000 1.00000
vt 0.00000 1.00000
vt 0.00000 1.00000
vt 0.00000 1.00000
vt 0.00000 1.00000
vt 0.00000 1.00000
vt 0.00000 1.00000
vt 0.00000 1.00000
vt 0.00000 1.00000
vt 0.00000 1.00000
vt 0.00000 1.00000
vt 0.00000 1.00000
vt 0.00000 1.00000
vt 0.00000 1.00000
vt 0.00000 1.00000
vt 0.00000 1.00000
vt 0.00000 1.00000
vt 0.00000 1.00000
vt 0.00000 1.00000
vt 0.00000 1.00000
vt 0.00000 1.00000
vt 0.00000 1.00000
vt 0.00000 1.00000
vt 0.00000 1.00000
vt 0.00000 1.00000
vt 0.00000 1.00000
vt 0.00000 1.00000
vt 0.00000 1.00000
vt 0.00000 1.00000
vt 0.00000 1.00000
vt 0.00000 1.00000
vt 0.00000 1.00000
vt 0.00000 1.00000
vt 0.00000 1.00000
vt 0.00000 1.00000
vt 0.00000 1.00000
vt 0.00000 1.00000
vt 0.00000 1.00000
vt 0.00000 1.00000
vt 0.00000 1.00000
vt 0.00000 1.00000
vt 0.00000 1.00000
vt 0.00000 1.00000
vt 0.00000 1.00000
vt 0.00000 1.00000
vt 0.00000 1.00000
vt 0.00000 1.00000
vt 0.00000 1.00000
vt 0.00000 1.00000
vt 0.00000 1.00000
vt 0.00000 1.00000
vt 0.00000 1.00000
vt 0.00000 1.00000
vt 0.00000 1.00000
vt 0.00000 1.00000
vt 0.00000 1.00000
vt 0.00000 1.00000
vt 0.00000 1.00000
vt 0.00000 1.00000
vt 0.00000 1.00000
vt 0.00000 1.00000
vt 0.00000 1.00000
vt 0.00000 1.00000
vt 0.00000 1.00000
vt 0.00000 1.00000
vt 0.00000 1.00000
vt 0.00000 1.00000
vt 0.00000 1.00000
vt 0.00000 1.00000
vt 0.00000 1.00000
vt 0.00000 1.00000
vt 0.00000 1.00000
vt 0.00000 1.00000
vt 0.00000 1.00000
vt 0.00000 1.00000
vt 0.00000 1.00000
vt 0.00000 1.00000
vt 0.00000 1.00000
vt 0.00000 1.00000
vt 0.00000 1.00000
vt 0.00000 1.00000
vt 0.00000 1.00000
vt 0.00000 1.00000
vt 0.00000 1.00000
vt 0.00000 1.00000
vt 0.00000 1.00000
vt 0.00000 1.00000
vt 0.00000 1.00000
vt 0.00000 1.00000
vt 0.00000 1.00000
vt 0.00000 1.00000
vt 0.00000 1.00000
vt 0.00000 1.00000
vt 0.00000 1.00000
vt 0.00000 1.00000
vt 0.00000 1.00000
vt 0.00000 1.00000
vt 0.00000 1.00000
vt 0.00000 1.00000
vt 0.00000 1.00000
vt 0.00000 1.00000
vt 0.00000 1.00000
vt 0.00000 1.00000
vt 0.00000 1.00000
vt 0.00000 1.00000
vt 0.00000 1.00000
vt 0.00000 1.00000
vt 0.00000 1.00000
vt 0.00000 1.00000
vt 0.00000 1.00000
vt 0.00000 1.00000
vt 0.00000 1.00000
vt 0.00000 1.00000
vt 0.00000 1.00000
vt 0.00000 1.00000
vt 0.00000 1.00000
vt 0.00000 1.00000
vt 0.00000 1.00000
vt 0.00000 1.00000
vt 0.00000 1.00000
vt 0.00000 1.00000
vt 0.00000 1.00000
vt 0.00000 1.00000
vt 0.00000 1.00000
vt 0.00000 1.00000
vt 0.00000 1.00000
vt 0.00000 1.00000
vt 0.00000 1.00000
vt 0.00000 1.00000
vt 0.00000 1.00000
vt 0.00000 1.00000
vt 0.00000 1.00000
vt 0.00000 1.00000
vt 0.00000 1.00000
vt 0.00000 1.00000
vt 0.00000 1.00000
vt 0.00000 1.00000
vt 0.00000 1.00000
vt 0.00000 1.00000
vt 0.00000 1.00000
vt 0.00000 1.00000
vt 0.00000 1.00000
vt 0.00000 1.00000
vt 0.00000 1.00000
vt 0.00000 1.00000
vt 0.00000 1.00000
vt 0.00000 1.00000
vt 0.00000 1.00000
vt 0.00000 1.00000
vt 0.00000 1.00000
vt 0.00000 1.00000
vt 0.00000 1.00000
vt 0.00000 1.00000
vt 0.00000 1.00000
vt 0.00000 1.00000
vt 0.00000 1.00000
vt 0.00000 1.00000
vt 0.00000 1.00000
vt 0.00000 1.00000
vt 0.00000 1.00000
vt 0.00000 1.00000
vt 0.00000 1.00000
vt 0.00000 1.00000
vt 0.00000 1.00000
vt 0.00000 1.00000
vt 0.00000 1.00000
vt 0.00000 1.00000
vt 0.00000 1.00000
vt 0.00000 1.00000
vt 0.00000 1.00000
vt 0.00000 1.00000
vt 0.00000 1.00000
vt 0.00000 1.00000
vt 0.00000 1.00000
vt 0.00000 1.00000
vt 0.00000 1.00000
vt 0.00000 1.00000
vt 0.00000 1.00000
vt 0.00000 1.00000
vt 0.00000 1.00000
vt 0.00000 1.00000
vt 0.00000 1.00000
vt 0.00000 1.00000
vt 0.00000 1.00000
vt 0.00000 1.00000
vt 0.00000 1.00000
vt 0.00000 1.00000
vt 0.00000 1.00000
vt 0.00000 1.00000
vt 0.00000 1.00000
vt 0.00000 1.00000
vt 0.00000 1.00000
vt 0.00000 1.00000
vt 0.00000 1.00000
vt 0.00000 1.00000
vt 0.00000 1.00000
vt 0.00000 1.00000
vt 0.00000 1.00000
vt 0.00000 1.00000
vt 0.00000 1.00000
vt 0.00000 1.00000
vt 0.00000 1.00000
vt 0.00000 1.00000
vt 0.00000 1.00000
vt 0.00000 1.00000
vt 0.00000 1.00000
vt 0.00000 1.00000
vt 0.00000 1.00000
vt 0.00000 1.00000
vt 0.00000 1.00000
vt 0.00000 1.00000
vt 0.00000 1.00000
vt 0.00000 1.00000
vt 0.00000 1.00000
vt 0.00000 1.00000
vt 0.00000 1.00000
vt 0.00000 1.00000
vt 0.00000 1.00000
vt 0.00000 1.00000
vt 0.00000 1.00000
vt 0.00000 1.00000
vt 0.00000 1.00000
vt 0.00000 1.00000
vt 0.00000 1.00000
vt 0.00000 1.00000
vt 0.00000 1.00000
vt 0.00000 1.00000
vt 0.00000 1.00000
vt 0.00000 1.00000
vt 0.00000 1.00000
vt 0.00000 1.00000
vt 0.00000 1.00000
vt 0.00000 1.00000
vt 0.00000 1.00000
vt 0.00000 1.00000
vt 0.00000 1.00000
vt 0.00000 1.00000
vt 0.00000 1.00000
vt 0.00000 1.00000
vt 0.00000 1.00000
vt 0.00000 1.00000
vt 0.00000 1.00000
vt 0.00000 1.00000
vt 0.00000 1.00000
vt 0.00000 1.00000
vt 0.00000 1.00000
vt 0.00000 1.00000
vt 0.00000 1.00000
vt 0.00000 1.00000
vt 0.00000 1.00000
vt 0.00000 1.00000
vt 0.00000 1.00000
vt 0.00000 1.00000
vt 0.00000 1.00000
vt 0.00000 1.00000
vt 0.00000 1.00000
vt 0.00000 1.00000
vt 0.00000 1.00000
vt 0.00000 1.00000
vt 0.00000 1.00000
vt 0.00000 1.00000
vt 0.00000 1.00000
vt 0.00000 1.00000
vt 0.00000 1.00000
vt 0.00000 1.00000
vt 0.00000 1.00000
vt 0.00000 1.00000
vt 0.00000 1.00000
vt 0.00000 1.00000
vt 0.00000 1.00000
vt 0.00000 1.00000
vt 0.00000 1.00000
vt 0.00000 1.00000
vt 0.00000 1.00000
vt 0.00000 1.00000
vt 0.00000 1.00000
vt 0.00000 1.00000
vt 0.00000 1.00000
vt 0.00000 1.00000
vt 0.00000 1.00000
vt 0.00000 1.00000
vt 0.00000 1.00000
vt 0.00000 1.00000
vt 0.00000 1.00000
vt 0.00000 1.00000
vt 0.00000 1.00000
vt 0.00000 1.00000
vt 0.00000 1.00000
vt 0.00000 1.00000
vt 0.00000 1.00000
vt 0.00000 1.00000
vt 0.00000 1.00000
vt 0.00000 1.00000
vt 0.00000 1.00000
vt 0.00000 1.00000
vt 0.00000 1.00000
vt 0.00000 1.00000
vt 0.00000 1.00000
vt 0.00000 1.00000
vt 0.00000 1.00000
vt 0.00000 1.00000
vt 0.00000 1.00000
vt 0.00000 1.00000
vt 0.00000 1.00000
vt 0.00000 1.00000
vt 0.00000 1.00000
vt 0.00000 1.00000
vt 0.00000 1.00000
vt 0.00000 1.00000
vt 0.00000 1.00000
vt 0.00000 1.00000
vt 0.00000 1.00000
vt 0.00000 1.00000
vt 0.00000 1.00000
vt 0.00000 1.00000
vt 0.00000 1.00000
vt 0.00000 1.00000
vt 0.00000 1.00000
vt 0.00000 1.00000
vt 0.00000 1.00000
usemtl needles
f 313/313 314/314 315/315
f 316/316 317/317 318/318
f 319/319 320/320 321/321
f 322/322 323/323 324/324
f 325/325 326/326 327/327
f 328/328 329/329 330/330
f 331/331 332/332 333/333
f 334/334 335/335 336/336
f 337/337 338/338 339/339
f 340/340 341/341 342/342
f 343/343 344/344 345/345
f 346/346 347/347 348/348
f 349/349 350/350 351/351
f 352/352 353/353 354/354
f 355/355 356/356 357/357
f 358/358 359/359 360/360
f 361/361 362/362 363/363
f 364/364 365/365 366/366
f 367/367 368/368 369/369
f 370/370 371/371 372/372
f 373/373 374/374 375/375
f 376/376 377/377 378/378
f 379/379 380/380 381/381
f 382/382 383/383 384/384
f 385/385 386/386 387/387
f 388/388 389/389 390/390
f 391/391 392/392 393/393
f 394/394 395/395 396/396
f 397/397 398/398 399/399
f 400/400 401/401 402/402
f 403/403 404/404 405/405
f 406/406 407/407 408/408
f 409/409 410/410 411/411
f 412/412 413/413 414/414
f 415/415 416/416 417/417
f 418/418 419/419 420/420
f 421/421 422/422 423/423
f 424/424 425/425 426/426
f 427/427 428/428 429/429
f 430/430 431/431 432/432
f 433/433 434/434 435/435
f 436/436 437/437 438/438
f 439/439 440/440 441/441
f 442/442 443/443 444/444
f 445/445 446/446 447/447
f 448/448 449/449 450/450
f 451/451 452/452 453/453
f 454/454 455/455 456/456
f 457/457 458/458 459/459
f 460/460 461/461 462/462
f 463/463 464/464 465/465
f 466/466 467/467 468/468
f 469/469 470/470 471/471
f 472/472 473/473 474/474
f 475/475 476/476 477/477
f 478/478 479/479 480/480
f 481/481 482/482 483/483
f 484/484 485/485 486/486
f 487/487 488/488 489/489
f 490/490 491/491 492/492
f 493/493 494/494 495/495
f 496/496 497/497 498/498
f 499/499 500/500 501/501
f 502/502 503/503 504/504
f 505/505 506/506 507/507
f 508/508 509/509 510/510
f 511/511 512/512 513/513
f 514/514 515/515 516/516
f 517/517 518/518 519/519
f 520/520 521/521 522/522
f 523/523 524/524 525/525
f 526/526 527/527 528/528
f 529/529 530/530 531/531
f 532/532 533/533 534/534
f 535/535 536/536 537/537
f 538/538 539/539 540/540
f 541/541 542/542 543/543
f 544/544 545/545 546/546
f 547/547 548/548 549/549
f 550/550 551/551 552/552
f 553/553 554/554 555/555
f 556/556 557/557 558/558
f 559/559 560/560 561/561
f 562/562 563/563 564/564
f 565/565 566/566 567/567
f 568/568 569/569 570/570
f 571/571 572/572 573/573
f 574/574 575/575 576/576
f 577/577 578/578 579/579
f 580/580 581/581 582/582
f 583/583 584/584 585/585
f 586/586 587/587 588/588
f 589/589 590/590 591/591
f 592/592 593/593 594/594
f 595/595 596/596 597/597
f 598/598 599/599 600/600
f 601/601 602/602 603/603
f 604/604 605/605 606/606
f 607/607 608/608 609/609
f 610/610 611/611 612/612
f 613/613 614/614 615/615
f 616/616 617/617 618/618
f 619/619 620/620 621/621
f 622/622 623/623 624/624
f 625/625 626/626 627/627
f 628/628 629/629 630/630
f 631/631 632/632 633/633
f 634/634 635/635 636/636
f 637/637 638/638 639/639
f 640/640 641/641 642/642
f 643/643 644/644 645/645
f 646/646 647/647 648/648
f 649/649 650/650 651/651
f 652/652 653/653 654/654
f 655/655 656/656 657/657
f 658/658 659/659 660/660
f 661/661 662/662 663/663
f 664/664 665/665 666/666
f 667/667 668/668 669/669
f 670/670 671/671 672/672
f 673/673 674/674 675/675
f 676/676 677/677 678/678
f 679/679 680/680 681/681
f 682/682 683/683 684/684
f 685/685 686/686 687/687
f 688/688 689/689 690/690
f 691/691 692/692 693/693
f 694/694 695/695 696/696
f 697/697 698/698 699/699
f 700/700 701/701 702/702
f 703/703 704/704 705/705
f 706/706 707/707 708/708
f 709/709 710/710 711/711
f 712/712 713/713 714/714
f 715/715 716/716 717/717
f 718/718 719/719 720/720
f 721/721 722/722 723/723
f 724/724 725/725 726/726
f 727/727 728/728 729/729
f 730/730 731/731 732/732
f 733/733 734/734 735/735
f 736/736 737/737 738/738
f 739/739 740/740 741/741
f 742/742 743/743 744/744
f 745/745 746/746 747/747
f 748/748 749/749 750/750
f 751/751 752/752 753/753
f 754/754 755/755 756/756
f 757/757 758/758 759/759
f 760/760 761/761 762/762
f 763/763 764/764 765/765
f 766/766 767/767 768/768
f 769/769 770/770 771/771
f 772/772 773/773 774/774
f 775/775 776/776 777/777
f 778/778 779/779 780/780
f 781/781 782/782 783/783
f 784/784 785/785 786/786
f 787/787 788/788 789/789
f 790/790 791/791 792/792
f 793/793 794/794 795/795
f 796/796 797/797 798/798
f 799/799 800/800 801/801
f 802/802 803/803 804/804
f 805/805 806/806 807/807
f 808/808 809/809 810/810
f 811/811 812/812 813/813
f 814/814 815/815 816/816
f 817/817 818/818 819/819
f 820/820 821/821 822/822
f 823/823 824/824 825/825
f 826/826 827/827 828/828
f 829/829 830/830 831/831
f 832/832 833/833 834/834
f 835/835 836/836 837/837
f 838/838 839/839 840/840
f 841/841 842/842 843/843
f 844/844 845/845 846/846
f 847/847 848/848 849/849
f 850/850 851/851 852/852
f 853/853 854/854 855/855
f 856/856 857/857 858/858
f 859/859 860/860 861/861
f 862/862 863/863 864/864
f 865/865 866/866 867/867
f 868/868 869/869 870/870
f 871/871 872/872 873/873
f 874/874 875/875 876/876
f 877/877 878/878 879/879
f 880/880 881/881 882/882
f 883/883 884/884 885/885
f 886/886 887/887 888/888
f 889/889 890/890 891/891
f 892/892 893/893 894/894
f 895/895 896/896 897/897
f 898/898 899/899 900/900
f 901/901 902/902 903/903
f 904/904 905/905 906/906
f 907/907 908/908 909/909
f 910/910 911/911 912/912
f 913/913 914/914 915/915
f 916/916 917/917 918/918
f 919/919 920/920 921/921
f 922/922 923/923 924/924
f 925/925 926/926 927/927
f 928/928 929/929 930/930
f 931/931 932/932 933/933
f 934/934 935/935 936/936
f 937/937 938/938 939/939
f 940/940 941/941 942/942
f 943/943 944/944 945/945
f 946/946 947/947 948/948
f 949/949 950/950 951/951
f 952/952 953/953 954/954
f 955/955 956/956 957/957
f 958/958 959/959 960/960
f 961/961 962/962 963/963
f 964/964 965/965 966/966
f 967/967 968/968 969/969
f 970/970 971/971 972/972
f 973/973 974/974 975/975
f 976/976 977/977 978/978
f 979/979 980/980 981/981
f 982/982 983/983 984/984
f 985/985 986/986 987/987
f 988/988 989/989 990/990
f 991/991 992/992 993/993
f 994/994 995/995 996/996
f 997/997 998/998 999/999
f 1000/1000 1001/1001 1002/1002
f 1003/1003 1004/1004 1005/1005
f 1006/1006 1007/1007 1008/1008
f 1009/1009 1010/1010 1011/1011
f 1012/1012 1013/1013 1014/1014
f 1015/1015 1016/1016 1017/1017
f 1018/1018 1019/1019 1020/1020
f 1021/1021 1022/1022 1023/1023
f 1024/1024 1025/1025 1026/1026
f 1027/1027 1028/1028 1029/1029
f 1030/1030 1031/1031 1032/1032
f 1033/1033 1034/1034 1035/1035
f 1036/1036 1037/1037 1038/1038
f 1039/1039 1040/1040 1041/1041
f 1042/1042 1043/1043 1044/1044
f 1045/1045 1046/1046 1047/1047
f 1048/1048 1049/1049 1050/1050
f 1051/1051 1052/1052 1053/1053
f 1054/1054 1055/1055 1056/1056
f 1057/1057 1058/1058 1059/1059
f 1060/1060 1061/1061 1062/1062
f 1063/1063 1064/1064 1065/1065
f 1066/1066 1067/1067 1068/1068
f 1069/1069 1070/1070 1071/1071
f 1072/1072 1073/1073 1074/1074
f 1075/1075 1076/1076 1077/1077
f 1078/1078 1079/1079 1080/1080
f 1081/1081 1082/1082 1083/1083
f 1084/1084 1085/1085 1086/1086
f 1087/1087 1088/1088 1089/1089
f 1090/1090 1091/1091 1092/1092
f 1093/1093 1094/1094 1095/1095
f 1096/1096 1097/1097 1098/1098
f 1099/1099 1100/1100 1101/1101
f 1102/1102 1103/1103 1104/1104
f 1105/1105 1106/1106 1107/1107
f 1108/1108 1109/1109 1110/1110
f 1111/1111 1112/1112 1113/1113
f 1114/1114 1115/1115 1116/1116
f 1117/1117 1118/1118 1119/1119
f 1120/1120 1121/1121 1122/1122
f 1123/1123 1124/1124 1125/1125
f 1126/1126 1127/1127 1128/1128
f 1129/1129 1130/1130 1131/1131
f 1132/1132 1133/1133 1134/1134
f 1135/1135 1136/1136 1137/1137
f 1138/1138 1139/1139 1140/1140
f 1141/1141 1142/1142 1143/1143
f 1144/1144 1145/1145 1146/1146
f 1147/1147 1148/1148 1149/1149
f 1150/1150 1151/1151 1152/1152
f 1153/1153 1154/1154 1155/1155
f 1156/1156 1157/1157 1158/1158
f 1159/1159 1160/1160 1161/1161
f 1162/1162 1163/1163 1164/1164
f 1165/1165 1166/1166 1167/1167
f 1168/1168 1169/1169 1170/1170
f 1171/1171 1172/1172 1173/1173
f 1174/1174 1175/1175 1176/1176
f 1177/1177 1178/1178 1179/1179
f 1180/1180 1181/1181 1182/1182
f 1183/1183 1184/1184 1185/1185
f 1186/1186 1187/1187 1188/1188
f 1189/1189 1190/1190 1191/1191
f 1192/1192 1193/1193 1194/1194
f 1195/1195 1196/1196 1197/1197
f 1198/1198 1199/1199 1200/1200
f 1201/1201 1202/1202 1203/1203
f 1204/1204 1205/1205 1206/1206
f 1207/1207 1208/1208 1209/1209
f 1210/1210 1211/1211 1212/1212
f 1213/1213 1214/1214 1215/1215
f 1216/1216 1217/1217 1218/1218
f 1219/1219 1220/1220 1221/1221
f 1222/1222 1223/1223 1224/1224
f 1225/1225 1226/1226 1227/1227
f 1228/1228 1229/1229 1230/1230
f 1231/1231 1232/1232 1233/1233
f 1234/1234 1235/1235 1236/1236
f 1237/1237 1238/1238 1239/1239
f 1240/1240 1241/1241 1242/1242
f 1243/1243 1244/1244 1245/1245
f 1246/1246 1247/1247 1248/1248
f 1249/1249 1250/1250 1251/1251
f 1252/1252 1253/1253 1254/1254
f 1255/1255 1256/1256 1257/1257
f 1258/1258 1259/1259 1260/1260
f 1261/1261 1262/1262 1263/1263
f 1264/1264 1265/1265 1266/1266
f 1267/1267 1268/1268 1269/1269
f 1270/1270 1271/1271 1272/1272
f 1273/1273 1274/1274 1275/1275
f 1276/1276 1277/1277 1278/1278
f 1279/1279 1280/1280 1281/1281
f 1282/1282 1283/1283 1284/1284
f 1285/1285 1286/1286 1287/1287
f 1288/1288 1289/1289 1290/1290
f 1291/1291 1292/1292 1293/1293
f 1294/1294 1295/1295 1296/1296
f 1297/1297 1298/1298 1299/1299
f 1300/1300 1301/1301 1302/1302
f 1303/1303 1304/1304 1305/1305
f 1306/1306 1307/1307 1308/1308
f 1309/1309 1310/1310 1311/1311
f 1312/1312 1313/1313 1314/1314
f 1315/1315 1316/1316 1317/1317
f 1318/1318 1319/1319 1320/1320
f 1321/1321 1322/1322 1323/1323
f 1324/1324 1325/1325 1326/1326
f 1327/1327 1328/1328 1329/1329
f 1330/1330 1331/1331 1332/1332
f 1333/1333 1334/1334 1335/1335
f 1336/1336 1337/1337 1338/1338
f 1339/1339 1340/1340 1341/1341
f 1342/1342 1343/1343 1344/1344
f 1345/1345 1346/1346 1347/1347
f 1348/1348 1349/1349 1350/1350
f 1351/1351 1352/1352 1353/1353
f 1354/1354 1355/1355 1356/1356
f 1357/1357 1358/1358 1359/1359
f 1360/1360 1361/1361 1362/1362
f 1363/1363 1364/1364 1365/1365
f 1366/1366 1367/1367 1368/1368
f 1369/1369 1370/1370 1371/1371
f 1372/1372 1373/1373 1374/1374
f 1375/1375 1376/1376 1377/1377
f 1378/1378 1379/1379 1380/1380
f 1381/1381 1382/1382 1383/1383
f 1384/1384 1385/1385 1386/1386
f 1387/1387 1388/1388 1389/1389
f 1390/1390 1391/1391 1392/1392
f 1393/1393 1394/1394 1395/1395
f 1396/1396 1397/1397 1398/1398
f 1399/1399 1400/1400 1401/1401
f 1402/1402 1403/1403 1404/1404
f 1405/1405 1406/1406 1407/1407
f 1408/1408 1409/1409 1410/1410
f 1411/1411 1412/1412 1413/1413
f 1414/1414 1415/1415 1416/1416
f 1417/1417 1418/1418 1419/1419
f 1420/1420 1421/1421 1422/1422
f 1423/1423 1424/1424 1425/1425
f 1426/1426 1427/1427 1428/1428
f 1429/1429 1430/1430 1431/1431
f 1432/1432 1433/1433 1434/1434
f 1435/1435 1436/1436 1437/1437
f 1438/1438 1439/1439 1440/1440
f 1441/1441 1442/1442 1443/1443
f 1444/1444 1445/1445 1446/1446
f 1447/1447 1448/1448 1449/1449
f 1450/1450 1451/1451 1452/1452
f 1453/1453 1454/1454 1455/1455
f 1456/1456 1457/1457 1458/1458
f 1459/1459 1460/1460 1461/1461
f 1462/1462 1463/1463 1464/1464
f 1465/1465 1466/1466 1467/1467
f 1468/1468 1469/1469 1470/1470
f 1471/1471 1472/1472 1473/1473
f 1474/1474 1475/1475 1476/1476
f 1477/1477 1478/1478 1479/1479
f 1480/1480 1481/1481 1482/1482
f 1483/1483 1484/1484 1485/1485
f 1486/1486 1487/1487 1488/1488
f 1489/1489 1490/1490 1491/1491
f 1492/1492 1493/1493 1494/1494
f 1495/1495 1496/1496 1497/1497
f 1498/1498 1499/1499 1500/1500
f 1501/1501 1502/1502 1503/1503
f 1504/1504 1505/1505 1506/1506
f 1507/1507 1508/1508 1509/1509
f 1510/1510 1511/1511 1512/1512
f 1513/1513 1514/1514 1515/1515
f 1516/1516 1517/1517 1518/1518
f 1519/1519 1520/1520 1521/1521
f 1522/1522 1523/1523 1524/1524
f 1525/1525 1526/1526 1527/1527
f 1528/1528 1529/1529 1530/1530
f 1531/1531 1532/1532 1533/1533
f 1534/1534 1535/1535 1536/1536
f 1537/1537 1538/1538 1539/1539
f 1540/1540 1541/1541 1542/1542
f 1543/1543 1544/1544 1545/1545
f 1546/1546 1547/1547 1548/1548
f 1549/1549 1550/1550 1551/1551
f 1552/1552 1553/1553 1554/1554
f 1555/1555 1556/1556 1557/1557
f 1558/1558 1559/1559 1560/1560
f 1561/1561 1562/1562 1563/1563
f 1564/1564 1565/1565 1566/1566
f 1567/1567 1568/1568 1569/1569
f 1570/1570 1571/1571 1572/1572
f 1573/1573 1574/1574 1575/1575
f 1576/1576 1577/1577 1578/1578
f 1579/1579 1580/1580 1581/1581
f 1582/1582 1583/1583 1584/1584
f 1585/1585 1586/1586 1587/1587
f 1588/1588 1589/1589 1590/1590
f 1591/1591 1592/1592 1593/1593
f 1594/1594 1595/1595 1596/1596
f 1597/1597 1598/1598 1599/1599
f 1600/1600 1601/1601 1602/1602
f 1603/1603 1604/1604 1605/1605
f 1606/1606 1607/1607 1608/1608
f 1609/1609 1610/1610 1611/1611
f 1612/1612 1613/1613 1614/1614
f 1615/1615 1616/1616 1617/1617
f 1618/1618 1619/1619 1620/1620
f 1621/1621 1622/1622 1623/1623
f 1624/1624 1625/1625 1626/1626
f 1627/1627 1628/1628 1629/1629
f 1630/1630 1631/1631 1632/1632
f 1633/1633 1634/1634 1635/1635
f 1636/1636 1637/1637 1638/1638
f 1639/1639 1640/1640 1641/1641
f 1642/1642 1643/1643 1644/1644
f 1645/1645 1646/1646 1647/1647
f 1648/1648 1649/1649 1650/1650
f 1651/1651 1652/1652 1653/1653
f 1654/1654 1655/1655 1656/1656
f 1657/1657 1658/1658 1659/1659
f 1660/1660 1661/1661 1662/1662
f 1663/1663 1664/1664 1665/1665
f 1666/1666 1667/1667 1668/1668
f 1669/1669 1670/1670 1671/1671
f 1672/1672 1673/1673 1674/1674
f 1675/1675 1676/1676 1677/1677
f 1678/1678 1679/1679 1680/1680
f 1681/1681 1682/1682 1683/1683
f 1684/1684 1685/1685 1686/1686
f 1687/1687 1688/1688 1689/1689
f 1690/1690 1691/1691 1692/1692
f 1693/1693 1694/1694 1695/1695
f 1696/1696 1697/1697 1698/1698
f 1699/1699 1700/1700 1701/1701
f 1702/1702 1703/1703 1704/1704
f 1705/1705 1706/1706 1707/1707
f 1708/1708 1709/1709 1710/1710
f 1711/1711 1712/1712 1713/1713
f 1714/1714 1715/1715 1716/1716
