# Generated by TyraX. Do not edit - rebaked from the procedural graph of 'pines'.
# 9 instances of res/models/rock.obj
mtllib props.mtl
v -18.8091 17.7640 45.3876
v -19.2498 18.1801 44.7725
v -18.1408 18.1513 45.7283
v -18.8091 17.7640 45.3876
v -18.1408 18.1513 45.7283
v -19.2498 18.1801 44.7725
v 71.4804 24.1084 -16.3697
v 70.9417 24.3988 -16.6631
v 72.0493 24.4497 -16.3545
v 71.4804 24.1084 -16.3697
v 72.0493 24.4497 -16.3545
v 70.9417 24.3988 -16.6631
v 38.1997 25.4720 -39.6333
v 38.4343 25.8308 -40.3585
v 38.3763 25.8654 -38.9316
v 38.1997 25.4720 -39.6333
v 38.3763 25.8654 -38.9316
v 38.4343 25.8308 -40.3585
v 58.9259 17.8497 48.8605
v 58.8975 18.2282 49.6089
v 58.6440 18.2611 48.2090
v 58.9259 17.8497 48.8605
v 58.6440 18.2611 48.2090
v 58.8975 18.2282 49.6089
v -9.6103 20.8086 9.2194
v -9.8456 21.1286 9.8192
v -9.6919 21.1486 8.6092
v -9.6103 20.8086 9.2194
v -9.6919 21.1486 8.6092
v -9.8456 21.1286 9.8192
v 61.4667 18.1733 45.3597
v 61.6693 18.6060 44.5372
v 61.6334 18.6350 46.1495
v 61.4667 18.1733 45.3597
v 61.6334 18.6350 46.1495
v 61.6693 18.6060 44.5372
v 52.0106 22.4978 5.8936
v 52.2561 22.8025 5.2560
v 52.1849 22.8282 6.5223
v 52.0106 22.4978 5.8936
v 52.1849 22.8282 6.5223
v 52.2561 22.8025 5.2560
v -17.6552 20.4267 -16.0329
v -18.1693 20.7230 -16.3012
v -17.1077 20.7498 -15.9983
v -17.6552 20.4267 -16.0329
v -17.1077 20.7498 -15.9983
v -18.1693 20.7230 -16.3012
v 27.9067 26.3673 -58.2577
v 28.4887 26.6256 -58.0297
v 27.3517 26.7112 -58.1530
v 27.9067 26.3673 -58.2577
v 27.3517 26.7112 -58.1530
v 28.4887 26.6256 -58.0297
vt 0.00000 1.00000
vt 0.00000 1.00000
vt 0.00000 1.00000
vt 0.00000 1.00000
vt 0.00000 1.00000
vt 0.00000 1.00000
vt 0.00000 1.00000
vt 0.00000 1.00000
vt 0.00000 1.00000
vt 0.00000 1.00000
vt 0.00000 1.00000
vt 0.00000 1.00000
vt 0.00000 1.00000
vt 0.00000 1.00000
vt 0.00000 1.00000
vt 0.00000 1.00000
vt 0.00000 1.00000
vt 0.00000 1.00000
vt 0.00000 1.00000
vt 0.00000 1.00000
vt 0.00000 1.00000
vt 0.00000 1.00000
vt 0.00000 1.00000
vt 0.00000 1.00000
vt 0.00000 1.00000
vt 0.00000 1.00000
vt 0.00000 1.00000
vt 0.00000 1.00000
vt 0.00000 1.00000
vt 0.00000 1.00000
vt 0.00000 1.00000
vt 0.00000 1.00000
vt 0.00000 1.00000
vt 0.00000 1.00000
vt 0.00000 1.00000
vt 0.00000 1.00000
vt 0.00000 1.00000
vt 0.00000 1.00000
vt 0.00000 1.00000
vt 0.00000 1.00000
vt 0.00000 1.00000
vt 0.00000 1.00000
vt 0.00000 1.00000
vt 0.00000 1.00000
vt 0.00000 1.00000
vt 0.00000 1.00000
vt 0.00000 1.00000
vt 0.00000 1.00000
vt 0.00000 1.00000
vt 0.00000 1.00000
vt 0.00000 1.00000
vt 0.00000 1.00000
vt 0.00000 1.00000
vt 0.00000 1.00000
usemtl stone
f 1/1 2/2 3/3
f 4/4 5/5 6/6
f 7/7 8/8 9/9
f 10/10 11/11 12/12
f 13/13 14/14 15/15
f 16/16 17/17 18/18
f 19/19 20/20 21/21
f 22/22 23/23 24/24
f 25/25 26/26 27/27
f 28/28 29/29 30/30
f 31/31 32/32 33/33
f 34/34 35/35 36/36
f 37/37 38/38 39/39
f 40/40 41/41 42/42
f 43/43 44/44 45/45
f 46/46 47/47 48/48
f 49/49 50/50 51/51
f 52/52 53/53 54/54
