# Generated by TyraX. Do not edit - rebaked from the procedural graph of 'pines'.
# 11 instances of res/models/rock.obj
mtllib props.mtl
v -23.1831 10.9790 -16.6341
v -22.7071 11.4247 -17.3489
v -23.2746 11.4334 -15.8094
v -23.1831 10.9790 -16.6341
v -23.2746 11.4334 -15.8094
v -22.7071 11.4247 -17.3489
v -37.8218 10.5206 3.8687
v -38.2289 10.9746 3.0619
v -37.1428 11.0169 4.3883
v -37.8218 10.5206 3.8687
v -37.1428 11.0169 4.3883
v -38.2289 10.9746 3.0619
v 57.5245 0.8046 39.2466
v 57.5697 1.3178 40.2818
v 57.0704 1.3811 38.3868
v 57.5245 0.8046 39.2466
v 57.0704 1.3811 38.3868
v 57.5697 1.3178 40.2818
v 16.3670 12.7175 -49.2204
v 17.0805 13.1408 -49.7902
v 16.0511 13.2125 -48.4308
v 16.3670 12.7175 -49.2204
v 16.0511 13.2125 -48.4308
v 17.0805 13.1408 -49.7902
v -21.0084 10.2984 1.1805
v -20.3106 10.9145 0.3736
v -21.3806 10.8797 2.1674
v -21.0084 10.2984 1.1805
v -21.3806 10.8797 2.1674
v -20.3106 10.9145 0.3736
v 53.2919 0.2634 47.0596
v 53.8214 0.8227 46.1317
v 53.1918 0.8504 48.0770
v 53.2919 0.2634 47.0596
v 53.1918 0.8504 48.0770
v 53.8214 0.8227 46.1317
v 74.8172 3.9805 18.5281
v 75.5074 4.5848 17.6508
v 74.6494 4.5375 19.6242
v 74.8172 3.9805 18.5281
v 74.6494 4.5375 19.6242
v 75.5074 4.5848 17.6508
v 17.3393 12.2967 -30.8386
v 16.8212 12.8021 -29.9752
v 17.3806 12.8294 -31.8016
v 17.3393 12.2967 -30.8386
v 17.3806 12.8294 -31.8016
v 16.8212 12.8021 -29.9752
v 30.6919 12.0006 -15.1452
v 30.0922 12.2872 -14.9524
v 31.0866 12.3458 -15.5728
v 30.6919 12.0006 -15.1452
v 31.0866 12.3458 -15.5728
v 30.0922 12.2872 -14.9524
v 36.5192 1.3870 53.8249
v 37.1432 1.7059 54.0229
v 35.9086 1.7087 53.9996
v 36.5192 1.3870 53.8249
v 35.9086 1.7087 53.9996
v 37.1432 1.7059 54.0229
v -45.4756 14.4783 -53.5515
v -46.2980 14.9559 -53.5278
v -44.7220 14.9206 -53.8695
v -45.4756 14.4783 -53.5515
v -44.7220 14.9206 -53.8695
v -46.2980 14.9559 -53.5278
vt 0.00000 1.00000
vt 0.00000 1.00000
vt 0.00000 1.00000
vt 0.00000 1.00000
vt 0.00000 1.00000
vt 0.00000 1.00000
vt 0.00000 1.00000
vt 0.00000 1.00000
vt 0.00000 1.00000
vt 0.00000 1.00000
vt 0.00000 1.00000
vt 0.00000 1.00000
vt 0.00000 1.00000
vt 0.00000 1.00000
vt 0.00000 1.00000
vt 0.00000 1.00000
vt 0.00000 1.00000
vt 0.00000 1.00000
vt 0.00000 1.00000
vt 0.00000 1.00000
vt 0.00000 1.00000
vt 0.00000 1.00000
vt 0.00000 1.00000
vt 0.00000 1.00000
vt 0.00000 1.00000
vt 0.00000 1.00000
vt 0.00000 1.00000
vt 0.00000 1.00000
vt 0.00000 1.00000
vt 0.00000 1.00000
vt 0.00000 1.00000
vt 0.00000 1.00000
vt 0.00000 1.00000
vt 0.00000 1.00000
vt 0.00000 1.00000
vt 0.00000 1.00000
vt 0.00000 1.00000
vt 0.00000 1.00000
vt 0.00000 1.00000
vt 0.00000 1.00000
vt 0.00000 1.00000
vt 0.00000 1.00000
vt 0.00000 1.00000
vt 0.00000 1.00000
vt 0.00000 1.00000
vt 0.00000 1.00000
vt 0.00000 1.00000
vt 0.00000 1.00000
vt 0.00000 1.00000
vt 0.00000 1.00000
vt 0.00000 1.00000
vt 0.00000 1.00000
vt 0.00000 1.00000
vt 0.00000 1.00000
vt 0.00000 1.00000
vt 0.00000 1.00000
vt 0.00000 1.00000
vt 0.00000 1.00000
vt 0.00000 1.00000
vt 0.00000 1.00000
vt 0.00000 1.00000
vt 0.00000 1.00000
vt 0.00000 1.00000
vt 0.00000 1.00000
vt 0.00000 1.00000
vt 0.00000 1.00000
usemtl stone
f 1/1 2/2 3/3
f 4/4 5/5 6/6
f 7/7 8/8 9/9
f 10/10 11/11 12/12
f 13/13 14/14 15/15
f 16/16 17/17 18/18
f 19/19 20/20 21/21
f 22/22 23/23 24/24
f 25/25 26/26 27/27
f 28/28 29/29 30/30
f 31/31 32/32 33/33
f 34/34 35/35 36/36
f 37/37 38/38 39/39
f 40/40 41/41 42/42
f 43/43 44/44 45/45
f 46/46 47/47 48/48
f 49/49 50/50 51/51
f 52/52 53/53 54/54
f 55/55 56/56 57/57
f 58/58 59/59 60/60
f 61/61 62/62 63/63
f 64/64 65/65 66/66
