# Generated by TyraX. Do not edit - rebaked from the procedural graph of 'pines'.
# 9 instances of res/models/rock.obj
mtllib props.mtl
v 61.9204 23.2238 29.7574
v 61.8549 23.6033 30.5625
v 61.5578 23.6354 29.0789
v 61.9204 23.2238 29.7574
v 61.5578 23.6354 29.0789
v 61.8549 23.6033 30.5625
v -73.0240 22.9834 -45.8456
v -73.4325 23.2302 -46.2041
v -72.5299 23.2783 -45.7486
v -73.0240 22.9834 -45.8456
v -72.5299 23.2783 -45.7486
v -73.4325 23.2302 -46.2041
v -71.1056 21.1620 -19.5654
v -69.7884 21.8385 -20.0014
v -72.0036 21.9076 -18.6090
v -71.1056 21.1620 -19.5654
v -72.0036 21.9076 -18.6090
v -69.7884 21.8385 -20.0014
v 51.5225 24.7352 8.6656
v 51.2893 24.9475 8.2854
v 51.8820 24.9792 8.8763
v 51.5225 24.7352 8.6656
v 51.8820 24.9792 8.8763
v 51.2893 24.9475 8.2854
v -59.7639 17.6414 32.3363
v -60.3135 17.9253 32.0720
v -59.2063 17.9901 32.3388
v -59.7639 17.6414 32.3363
v -59.2063 17.9901 32.3388
v -60.3135 17.9253 32.0720
v 66.8186 27.8958 -14.6143
v 67.3323 28.2821 -15.1455
v 66.5770 28.3024 -13.9505
v 66.8186 27.8958 -14.6143
v 66.5770 28.3024 -13.9505
v 67.3323 28.2821 -15.1455
v -17.7283 18.2553 52.6534
v -18.1961 18.5356 52.5834
v -17.2664 18.4977 52.5236
v -17.7283 18.2553 52.6534
v -17.2664 18.4977 52.5236
v -18.1961 18.5356 52.5834
v -2.0209 20.4470 38.8945
v -2.4106 20.9225 39.6188
v -1.8887 20.9005 38.0948
v -2.0209 20.4470 38.8945
v -1.8887 20.9005 38.0948
v -2.4106 20.9225 39.6188
v 2.3577 23.7220 -12.7683
v 3.0056 24.2501 -13.4262
v 2.0691 24.1904 -11.8858
v 2.3577 23.7220 -12.7683
v 2.0691 24.1904 -11.8858
v 3.0056 24.2501 -13.4262
vt 0.00000 1.00000
vt 0.00000 1.00000
vt 0.00000 1.00000
vt 0.00000 1.00000
vt 0.00000 1.00000
vt 0.00000 1.00000
vt 0.00000 1.00000
vt 0.00000 1.00000
vt 0.00000 1.00000
vt 0.00000 1.00000
vt 0.00000 1.00000
vt 0.00000 1.00000
vt 0.00000 1.00000
vt 0.00000 1.00000
vt 0.00000 1.00000
vt 0.00000 1.00000
vt 0.00000 1.00000
vt 0.00000 1.00000
vt 0.00000 1.00000
vt 0.00000 1.00000
vt 0.00000 1.00000
vt 0.00000 1.00000
vt 0.00000 1.00000
vt 0.00000 1.00000
vt 0.00000 1.00000
vt 0.00000 1.00000
vt 0.00000 1.00000
vt 0.00000 1.00000
vt 0.00000 1.00000
vt 0.00000 1.00000
vt 0.00000 1.00000
vt 0.00000 1.00000
vt 0.00000 1.00000
vt 0.00000 1.00000
vt 0.00000 1.00000
vt 0.00000 1.00000
vt 0.00000 1.00000
vt 0.00000 1.00000
vt 0.00000 1.00000
vt 0.00000 1.00000
vt 0.00000 1.00000
vt 0.00000 1.00000
vt 0.00000 1.00000
vt 0.00000 1.00000
vt 0.00000 1.00000
vt 0.00000 1.00000
vt 0.00000 1.00000
vt 0.00000 1.00000
vt 0.00000 1.00000
vt 0.00000 1.00000
vt 0.00000 1.00000
vt 0.00000 1.00000
vt 0.00000 1.00000
vt 0.00000 1.00000
usemtl stone
f 1/1 2/2 3/3
f 4/4 5/5 6/6
f 7/7 8/8 9/9
f 10/10 11/11 12/12
f 13/13 14/14 15/15
f 16/16 17/17 18/18
f 19/19 20/20 21/21
f 22/22 23/23 24/24
f 25/25 26/26 27/27
f 28/28 29/29 30/30
f 31/31 32/32 33/33
f 34/34 35/35 36/36
f 37/37 38/38 39/39
f 40/40 41/41 42/42
f 43/43 44/44 45/45
f 46/46 47/47 48/48
f 49/49 50/50 51/51
f 52/52 53/53 54/54
