# Generated by TyraX. Do not edit - rebaked from the procedural graph of 'pines'.
# 5 instances of res/models/rock.obj
mtllib props.mtl
v -41.2666 23.2458 -30.7435
v -40.6045 23.5497 -30.4334
v -41.9232 23.6481 -30.6653
v -41.2666 23.2458 -30.7435
v -41.9232 23.6481 -30.6653
v -40.6045 23.5497 -30.4334
v 51.5855 23.8351 -63.3858
v 52.1120 24.2870 -62.7220
v 50.8454 24.2871 -63.7453
v 51.5855 23.8351 -63.3858
v 50.8454 24.2871 -63.7453
v 52.1120 24.2870 -62.7220
v -0.8687 30.0448 59.7074
v -0.7253 30.3850 60.3492
v -1.2903 30.3858 59.2280
v -0.8687 30.0448 59.7074
v -1.2903 30.3858 59.2280
v -0.7253 30.3850 60.3492
v 32.5270 29.4495 26.1050
v 33.3607 29.9188 26.5827
v 31.6288 29.9814 26.0493
v 32.5270 29.4495 26.1050
v 31.6288 29.9814 26.0493
v 33.3607 29.9188 26.5827
v -61.1969 24.1001 -4.0570
v -60.7072 24.4845 -4.6070
v -61.4197 24.5098 -3.3921
v -61.1969 24.1001 -4.0570
v -61.4197 24.5098 -3.3921
v -60.7072 24.4845 -4.6070
vt 0.00000 1.00000
vt 0.00000 1.00000
vt 0.00000 1.00000
vt 0.00000 1.00000
vt 0.00000 1.00000
vt 0.00000 1.00000
vt 0.00000 1.00000
vt 0.00000 1.00000
vt 0.00000 1.00000
vt 0.00000 1.00000
vt 0.00000 1.00000
vt 0.00000 1.00000
vt 0.00000 1.00000
vt 0.00000 1.00000
vt 0.00000 1.00000
vt 0.00000 1.00000
vt 0.00000 1.00000
vt 0.00000 1.00000
vt 0.00000 1.00000
vt 0.00000 1.00000
vt 0.00000 1.00000
vt 0.00000 1.00000
vt 0.00000 1.00000
vt 0.00000 1.00000
vt 0.00000 1.00000
vt 0.00000 1.00000
vt 0.00000 1.00000
vt 0.00000 1.00000
vt 0.00000 1.00000
vt 0.00000 1.00000
usemtl stone
f 1/1 2/2 3/3
f 4/4 5/5 6/6
f 7/7 8/8 9/9
f 10/10 11/11 12/12
f 13/13 14/14 15/15
f 16/16 17/17 18/18
f 19/19 20/20 21/21
f 22/22 23/23 24/24
f 25/25 26/26 27/27
f 28/28 29/29 30/30
