# Generated by TyraX. Do not edit - rebaked from the procedural graph of 'pines'.
# 3 instances of res/models/rock.obj
mtllib props.mtl
v 20.7216 15.3496 53.8636
v 19.4812 15.9728 53.3107
v 21.9747 16.0908 53.7447
v 20.7216 15.3496 53.8636
v 21.9747 16.0908 53.7447
v 19.4812 15.9728 53.3107
v 65.7261 12.4667 -34.0211
v 65.2789 12.8645 -34.6548
v 66.3845 12.8815 -33.6742
v 65.7261 12.4667 -34.0211
v 66.3845 12.8815 -33.6742
v 65.2789 12.8645 -34.6548
v -25.7803 14.4202 60.7244
v -26.4429 14.8359 60.1724
v -24.9637 14.8624 60.8408
v -25.7803 14.4202 60.7244
v -24.9637 14.8624 60.8408
v -26.4429 14.8359 60.1724
vt 0.00000 1.00000
vt 0.00000 1.00000
vt 0.00000 1.00000
vt 0.00000 1.00000
vt 0.00000 1.00000
vt 0.00000 1.00000
vt 0.00000 1.00000
vt 0.00000 1.00000
vt 0.00000 1.00000
vt 0.00000 1.00000
vt 0.00000 1.00000
vt 0.00000 1.00000
vt 0.00000 1.00000
vt 0.00000 1.00000
vt 0.00000 1.00000
vt 0.00000 1.00000
vt 0.00000 1.00000
vt 0.00000 1.00000
usemtl stone
f 1/1 2/2 3/3
f 4/4 5/5 6/6
f 7/7 8/8 9/9
f 10/10 11/11 12/12
f 13/13 14/14 15/15
f 16/16 17/17 18/18
