# Generated by TyraX. Do not edit - rebaked from the procedural graph of 'pines'.
# 11 instances of res/models/rock.obj
mtllib props.mtl
v -65.8741 17.6298 64.7732
v -66.0854 18.1000 63.8554
v -65.3106 18.1455 65.4629
v -65.8741 17.6298 64.7732
v -65.3106 18.1455 65.4629
v -66.0854 18.1000 63.8554
v -46.7184 17.4852 -56.6766
v -45.9360 17.9451 -57.2642
v -47.1006 18.0224 -55.8504
v -46.7184 17.4852 -56.6766
v -47.1006 18.0224 -55.8504
v -45.9360 17.9451 -57.2642
v -3.5982 16.8614 43.3032
v -3.2076 17.1185 42.8153
v -3.6175 17.1760 43.8839
v -3.5982 16.8614 43.3032
v -3.6175 17.1760 43.8839
v -3.2076 17.1185 42.8153
v -64.7029 17.1829 -31.3546
v -64.7075 17.7776 -32.5523
v -64.1891 17.8363 -30.3456
v -64.7029 17.1829 -31.3546
v -64.1891 17.8363 -30.3456
v -64.7075 17.7776 -32.5523
v -38.8961 17.7350 35.1901
v -39.5198 18.1415 35.8894
v -38.7804 18.2204 34.3251
v -38.8961 17.7350 35.1901
v -38.7804 18.2204 34.3251
v -39.5198 18.1415 35.8894
v 31.6701 16.2476 59.1445
v 31.2740 16.8460 60.2140
v 31.6275 16.8845 58.0592
v 31.6701 16.2476 59.1445
v 31.6275 16.8845 58.0592
v 31.2740 16.8460 60.2140
v 23.2521 16.0609 68.1484
v 22.7061 16.2979 68.3100
v 23.6087 16.3889 67.7893
v 23.2521 16.0609 68.1484
v 23.6087 16.3889 67.7893
v 22.7061 16.2979 68.3100
v -13.8240 16.5574 57.7006
v -14.2783 16.9795 58.4239
v -13.8031 16.9974 56.8800
v -13.8240 16.5574 57.7006
v -13.8031 16.9974 56.8800
v -14.2783 16.9795 58.4239
v -23.9717 16.9624 -59.4133
v -24.7825 17.6301 -60.3049
v -22.8202 17.5526 -59.0394
v -23.9717 16.9624 -59.4133
v -22.8202 17.5526 -59.0394
v -24.7825 17.6301 -60.3049
v -66.6607 17.0402 -55.3529
v -67.7394 17.5977 -55.7289
v -65.6097 17.7007 -55.4125
v -66.6607 17.0402 -55.3529
v -65.6097 17.7007 -55.4125
v -67.7394 17.5977 -55.7289
v -31.8229 17.3360 19.2069
v -31.5261 17.7486 20.0941
v -32.4533 17.8582 18.6331
v -31.8229 17.3360 19.2069
v -32.4533 17.8582 18.6331
v -31.5261 17.7486 20.0941
vt 0.00000 1.00000
vt 0.00000 1.00000
vt 0.00000 1.00000
vt 0.00000 1.00000
vt 0.00000 1.00000
vt 0.00000 1.00000
vt 0.00000 1.00000
vt 0.00000 1.00000
vt 0.00000 1.00000
vt 0.00000 1.00000
vt 0.00000 1.00000
vt 0.00000 1.00000
vt 0.00000 1.00000
vt 0.00000 1.00000
vt 0.00000 1.00000
vt 0.00000 1.00000
vt 0.00000 1.00000
vt 0.00000 1.00000
vt 0.00000 1.00000
vt 0.00000 1.00000
vt 0.00000 1.00000
vt 0.00000 1.00000
vt 0.00000 1.00000
vt 0.00000 1.00000
vt 0.00000 1.00000
vt 0.00000 1.00000
vt 0.00000 1.00000
vt 0.00000 1.00000
vt 0.00000 1.00000
vt 0.00000 1.00000
vt 0.00000 1.00000
vt 0.00000 1.00000
vt 0.00000 1.00000
vt 0.00000 1.00000
vt 0.00000 1.00000
vt 0.00000 1.00000
vt 0.00000 1.00000
vt 0.00000 1.00000
vt 0.00000 1.00000
vt 0.00000 1.00000
vt 0.00000 1.00000
vt 0.00000 1.00000
vt 0.00000 1.00000
vt 0.00000 1.00000
vt 0.00000 1.00000
vt 0.00000 1.00000
vt 0.00000 1.00000
vt 0.00000 1.00000
vt 0.00000 1.00000
vt 0.00000 1.00000
vt 0.00000 1.00000
vt 0.00000 1.00000
vt 0.00000 1.00000
vt 0.00000 1.00000
vt 0.00000 1.00000
vt 0.00000 1.00000
vt 0.00000 1.00000
vt 0.00000 1.00000
vt 0.00000 1.00000
vt 0.00000 1.00000
vt 0.00000 1.00000
vt 0.00000 1.00000
vt 0.00000 1.00000
vt 0.00000 1.00000
vt 0.00000 1.00000
vt 0.00000 1.00000
usemtl stone
f 1/1 2/2 3/3
f 4/4 5/5 6/6
f 7/7 8/8 9/9
f 10/10 11/11 12/12
f 13/13 14/14 15/15
f 16/16 17/17 18/18
f 19/19 20/20 21/21
f 22/22 23/23 24/24
f 25/25 26/26 27/27
f 28/28 29/29 30/30
f 31/31 32/32 33/33
f 34/34 35/35 36/36
f 37/37 38/38 39/39
f 40/40 41/41 42/42
f 43/43 44/44 45/45
f 46/46 47/47 48/48
f 49/49 50/50 51/51
f 52/52 53/53 54/54
f 55/55 56/56 57/57
f 58/58 59/59 60/60
f 61/61 62/62 63/63
f 64/64 65/65 66/66
