# Generated by TyraX. Do not edit - rebaked from the procedural graph of 'pines'.
# 5 instances of res/models/rock.obj
mtllib props.mtl
v -40.9238 11.5888 -31.5042
v -41.1535 11.8511 -31.9736
v -40.5038 11.8575 -31.2245
v -40.9238 11.5888 -31.5042
v -40.5038 11.8575 -31.2245
v -41.1535 11.8511 -31.9736
v 57.2177 12.3761 -59.4142
v 57.8697 12.8735 -58.8586
v 56.3238 12.7383 -59.5015
v 57.2177 12.3761 -59.4142
v 56.3238 12.7383 -59.5015
v 57.8697 12.8735 -58.8586
v -8.9818 13.5677 73.1046
v -7.9722 14.1325 72.9574
v -9.7733 14.0486 73.7695
v -8.9818 13.5677 73.1046
v -9.7733 14.0486 73.7695
v -7.9722 14.1325 72.9574
v -43.2070 11.2778 -38.8490
v -42.0574 11.7761 -39.5482
v -43.6436 11.9775 -37.7144
v -43.2070 11.2778 -38.8490
v -43.6436 11.9775 -37.7144
v -42.0574 11.7761 -39.5482
v -0.4901 10.0252 -37.1217
v -0.1105 10.4741 -36.3294
v -1.1597 10.4955 -37.6324
v -0.4901 10.0252 -37.1217
v -1.1597 10.4955 -37.6324
v -0.1105 10.4741 -36.3294
vt 0.00000 1.00000
vt 0.00000 1.00000
vt 0.00000 1.00000
vt 0.00000 1.00000
vt 0.00000 1.00000
vt 0.00000 1.00000
vt 0.00000 1.00000
vt 0.00000 1.00000
vt 0.00000 1.00000
vt 0.00000 1.00000
vt 0.00000 1.00000
vt 0.00000 1.00000
vt 0.00000 1.00000
vt 0.00000 1.00000
vt 0.00000 1.00000
vt 0.00000 1.00000
vt 0.00000 1.00000
vt 0.00000 1.00000
vt 0.00000 1.00000
vt 0.00000 1.00000
vt 0.00000 1.00000
vt 0.00000 1.00000
vt 0.00000 1.00000
vt 0.00000 1.00000
vt 0.00000 1.00000
vt 0.00000 1.00000
vt 0.00000 1.00000
vt 0.00000 1.00000
vt 0.00000 1.00000
vt 0.00000 1.00000
usemtl stone
f 1/1 2/2 3/3
f 4/4 5/5 6/6
f 7/7 8/8 9/9
f 10/10 11/11 12/12
f 13/13 14/14 15/15
f 16/16 17/17 18/18
f 19/19 20/20 21/21
f 22/22 23/23 24/24
f 25/25 26/26 27/27
f 28/28 29/29 30/30
