# Generated by TyraX. Do not edit - rebaked from the procedural graph of 'pines'.
# 8 instances of res/models/rock.obj
mtllib props.mtl
v 43.5405 25.3448 -28.9719
v 44.5403 25.7949 -29.2937
v 42.9263 25.9075 -28.2274
v 43.5405 25.3448 -28.9719
v 42.9263 25.9075 -28.2274
v 44.5403 25.7949 -29.2937
v 50.8047 24.7275 -48.9240
v 50.0468 25.1328 -48.6600
v 51.3204 25.1486 -49.4979
v 50.8047 24.7275 -48.9240
v 51.3204 25.1486 -49.4979
v 50.0468 25.1328 -48.6600
v -48.7480 32.3460 13.0448
v -49.7465 32.7832 12.7681
v -47.8473 32.9417 12.8377
v -48.7480 32.3460 13.0448
v -47.8473 32.9417 12.8377
v -49.7465 32.7832 12.7681
v -41.9991 29.7715 51.7820
v -42.4533 29.9639 51.8901
v -41.7114 30.0188 51.4661
v -41.9991 29.7715 51.7820
v -41.7114 30.0188 51.4661
v -42.4533 29.9639 51.8901
v 8.9504 28.6380 19.0105
v 7.7486 29.3482 18.5417
v 10.2317 29.2558 18.7887
v 8.9504 28.6380 19.0105
v 10.2317 29.2558 18.7887
v 7.7486 29.3482 18.5417
v 6.2946 26.4568 -48.8650
v 6.8659 26.8320 -49.5216
v 6.1597 26.9326 -48.0815
v 6.2946 26.4568 -48.8650
v 6.1597 26.9326 -48.0815
v 6.8659 26.8320 -49.5216
v 42.1581 24.8780 -45.9872
v 41.6180 25.3557 -45.0732
v 42.0942 25.4159 -46.9881
v 42.1581 24.8780 -45.9872
v 42.0942 25.4159 -46.9881
v 41.6180 25.3557 -45.0732
v 35.9834 33.4217 71.5342
v 35.1460 33.9354 72.0188
v 36.4981 33.9310 70.7453
v 35.9834 33.4217 71.5342
v 36.4981 33.9310 70.7453
v 35.1460 33.9354 72.0188
vt 0.00000 1.00000
vt 0.00000 1.00000
vt 0.00000 1.00000
vt 0.00000 1.00000
vt 0.00000 1.00000
vt 0.00000 1.00000
vt 0.00000 1.00000
vt 0.00000 1.00000
vt 0.00000 1.00000
vt 0.00000 1.00000
vt 0.00000 1.00000
vt 0.00000 1.00000
vt 0.00000 1.00000
vt 0.00000 1.00000
vt 0.00000 1.00000
vt 0.00000 1.00000
vt 0.00000 1.00000
vt 0.00000 1.00000
vt 0.00000 1.00000
vt 0.00000 1.00000
vt 0.00000 1.00000
vt 0.00000 1.00000
vt 0.00000 1.00000
vt 0.00000 1.00000
vt 0.00000 1.00000
vt 0.00000 1.00000
vt 0.00000 1.00000
vt 0.00000 1.00000
vt 0.00000 1.00000
vt 0.00000 1.00000
vt 0.00000 1.00000
vt 0.00000 1.00000
vt 0.00000 1.00000
vt 0.00000 1.00000
vt 0.00000 1.00000
vt 0.00000 1.00000
vt 0.00000 1.00000
vt 0.00000 1.00000
vt 0.00000 1.00000
vt 0.00000 1.00000
vt 0.00000 1.00000
vt 0.00000 1.00000
vt 0.00000 1.00000
vt 0.00000 1.00000
vt 0.00000 1.00000
vt 0.00000 1.00000
vt 0.00000 1.00000
vt 0.00000 1.00000
usemtl stone
f 1/1 2/2 3/3
f 4/4 5/5 6/6
f 7/7 8/8 9/9
f 10/10 11/11 12/12
f 13/13 14/14 15/15
f 16/16 17/17 18/18
f 19/19 20/20 21/21
f 22/22 23/23 24/24
f 25/25 26/26 27/27
f 28/28 29/29 30/30
f 31/31 32/32 33/33
f 34/34 35/35 36/36
f 37/37 38/38 39/39
f 40/40 41/41 42/42
f 43/43 44/44 45/45
f 46/46 47/47 48/48
