# Generated by TyraX. Do not edit - rebaked from the procedural graph of 'pines'.
# 7 instances of res/models/rock.obj
mtllib props.mtl
v 7.7561 25.7768 -31.5185
v 8.3508 26.3444 -30.5533
v 6.8122 26.3750 -32.0546
v 7.7561 25.7768 -31.5185
v 6.8122 26.3750 -32.0546
v 8.3508 26.3444 -30.5533
v -22.5012 27.2789 47.0437
v -21.6448 27.7404 47.4397
v -23.3987 27.7703 47.1310
v -22.5012 27.2789 47.0437
v -23.3987 27.7703 47.1310
v -21.6448 27.7404 47.4397
v -26.5169 26.2895 -20.8363
v -25.6487 26.8627 -21.8368
v -26.6237 26.9492 -19.5935
v -26.5169 26.2895 -20.8363
v -26.6237 26.9492 -19.5935
v -25.6487 26.8627 -21.8368
v -46.2898 26.4832 27.9650
v -46.6958 26.8813 28.6077
v -46.2331 26.8800 27.2281
v -46.2898 26.4832 27.9650
v -46.2331 26.8800 27.2281
v -46.6958 26.8813 28.6077
v -27.7602 26.9620 -54.2324
v -28.6807 27.6207 -55.3042
v -26.4721 27.6828 -53.8532
v -27.7602 26.9620 -54.2324
v -26.4721 27.6828 -53.8532
v -28.6807 27.6207 -55.3042
v -11.7374 26.1395 69.8716
v -12.6715 26.5499 69.9248
v -11.0308 26.6425 69.3763
v -11.7374 26.1395 69.8716
v -11.0308 26.6425 69.3763
v -12.6715 26.5499 69.9248
v 35.8583 24.9864 10.3345
v 35.5060 25.2910 9.7368
v 36.3663 25.3958 10.6854
v 35.8583 24.9864 10.3345
v 36.3663 25.3958 10.6854
v 35.5060 25.2910 9.7368
vt 0.00000 1.00000
vt 0.00000 1.00000
vt 0.00000 1.00000
vt 0.00000 1.00000
vt 0.00000 1.00000
vt 0.00000 1.00000
vt 0.00000 1.00000
vt 0.00000 1.00000
vt 0.00000 1.00000
vt 0.00000 1.00000
vt 0.00000 1.00000
vt 0.00000 1.00000
vt 0.00000 1.00000
vt 0.00000 1.00000
vt 0.00000 1.00000
vt 0.00000 1.00000
vt 0.00000 1.00000
vt 0.00000 1.00000
vt 0.00000 1.00000
vt 0.00000 1.00000
vt 0.00000 1.00000
vt 0.00000 1.00000
vt 0.00000 1.00000
vt 0.00000 1.00000
vt 0.00000 1.00000
vt 0.00000 1.00000
vt 0.00000 1.00000
vt 0.00000 1.00000
vt 0.00000 1.00000
vt 0.00000 1.00000
vt 0.00000 1.00000
vt 0.00000 1.00000
vt 0.00000 1.00000
vt 0.00000 1.00000
vt 0.00000 1.00000
vt 0.00000 1.00000
vt 0.00000 1.00000
vt 0.00000 1.00000
vt 0.00000 1.00000
vt 0.00000 1.00000
vt 0.00000 1.00000
vt 0.00000 1.00000
usemtl stone
f 1/1 2/2 3/3
f 4/4 5/5 6/6
f 7/7 8/8 9/9
f 10/10 11/11 12/12
f 13/13 14/14 15/15
f 16/16 17/17 18/18
f 19/19 20/20 21/21
f 22/22 23/23 24/24
f 25/25 26/26 27/27
f 28/28 29/29 30/30
f 31/31 32/32 33/33
f 34/34 35/35 36/36
f 37/37 38/38 39/39
f 40/40 41/41 42/42
