# Generated by TyraX. Do not edit - rebaked from the procedural graph of 'pines'.
# 12 instances of res/models/rock.obj
mtllib props.mtl
v -51.9233 7.3585 -18.2192
v -52.6466 7.7915 -18.5204
v -51.1612 7.7888 -18.2073
v -51.9233 7.3585 -18.2192
v -51.1612 7.7888 -18.2073
v -52.6466 7.7915 -18.5204
v -46.8018 -0.1223 37.5400
v -47.3853 0.3243 36.8967
v -45.9767 0.3008 37.7671
v -46.8018 -0.1223 37.5400
v -45.9767 0.3008 37.7671
v -47.3853 0.3243 36.8967
v -42.4865 -0.0828 47.7833
v -42.4103 0.2150 47.1974
v -42.3190 0.2449 48.3152
v -42.4865 -0.0828 47.7833
v -42.3190 0.2449 48.3152
v -42.4103 0.2150 47.1974
v 31.8967 8.2384 51.0678
v 31.4447 8.9125 49.9203
v 32.8441 8.8553 51.8488
v 31.8967 8.2384 51.0678
v 32.8441 8.8553 51.8488
v 31.4447 8.9125 49.9203
v -49.6701 -0.1708 44.2072
v -49.1365 0.4585 45.3010
v -50.7350 0.3871 43.6166
v -49.6701 -0.1708 44.2072
v -50.7350 0.3871 43.6166
v -49.1365 0.4585 45.3010
v -39.8382 -0.2281 37.8277
v -39.8812 0.5880 39.4571
v -40.4384 0.6823 36.4182
v -39.8382 -0.2281 37.8277
v -40.4384 0.6823 36.4182
v -39.8812 0.5880 39.4571
v 40.8891 7.5093 2.0284
v 39.5390 8.3031 2.3286
v 41.9212 8.1588 1.0571
v 40.8891 7.5093 2.0284
v 41.9212 8.1588 1.0571
v 39.5390 8.3031 2.3286
v 45.7751 9.9792 52.4284
v 46.5083 10.7102 53.5334
v 44.4889 10.5400 51.9567
v 45.7751 9.9792 52.4284
v 44.4889 10.5400 51.9567
v 46.5083 10.7102 53.5334
v -52.3365 -0.1967 26.3538
v -51.4035 0.5563 25.1864
v -52.5383 0.5655 27.7873
v -52.3365 -0.1967 26.3538
v -52.5383 0.5655 27.7873
v -51.4035 0.5563 25.1864
v 24.7303 9.8832 -37.6297
v 24.0080 10.2431 -37.9842
v 25.4578 10.3451 -37.6354
v 24.7303 9.8832 -37.6297
v 25.4578 10.3451 -37.6354
v 24.0080 10.2431 -37.9842
v 44.0876 9.0807 -27.8503
v 43.4820 9.4366 -27.9394
v 44.6796 9.3987 -28.0163
v 44.0876 9.0807 -27.8503
v 44.6796 9.3987 -28.0163
v 43.4820 9.4366 -27.9394
v -43.7113 -0.1520 41.6062
v -43.3329 0.3817 42.6270
v -44.5372 0.4014 40.9607
v -43.7113 -0.1520 41.6062
v -44.5372 0.4014 40.9607
v -43.3329 0.3817 42.6270
vt 0.00000 1.00000
vt 0.00000 1.00000
vt 0.00000 1.00000
vt 0.00000 1.00000
vt 0.00000 1.00000
vt 0.00000 1.00000
vt 0.00000 1.00000
vt 0.00000 1.00000
vt 0.00000 1.00000
vt 0.00000 1.00000
vt 0.00000 1.00000
vt 0.00000 1.00000
vt 0.00000 1.00000
vt 0.00000 1.00000
vt 0.00000 1.00000
vt 0.00000 1.00000
vt 0.00000 1.00000
vt 0.00000 1.00000
vt 0.00000 1.00000
vt 0.00000 1.00000
vt 0.00000 1.00000
vt 0.00000 1.00000
vt 0.00000 1.00000
vt 0.00000 1.00000
vt 0.00000 1.00000
vt 0.00000 1.00000
vt 0.00000 1.00000
vt 0.00000 1.00000
vt 0.00000 1.00000
vt 0.00000 1.00000
vt 0.00000 1.00000
vt 0.00000 1.00000
vt 0.00000 1.00000
vt 0.00000 1.00000
vt 0.00000 1.00000
vt 0.00000 1.00000
vt 0.00000 1.00000
vt 0.00000 1.00000
vt 0.00000 1.00000
vt 0.00000 1.00000
vt 0.00000 1.00000
vt 0.00000 1.00000
vt 0.00000 1.00000
vt 0.00000 1.00000
vt 0.00000 1.00000
vt 0.00000 1.00000
vt 0.00000 1.00000
vt 0.00000 1.00000
vt 0.00000 1.00000
vt 0.00000 1.00000
vt 0.00000 1.00000
vt 0.00000 1.00000
vt 0.00000 1.00000
vt 0.00000 1.00000
vt 0.00000 1.00000
vt 0.00000 1.00000
vt 0.00000 1.00000
vt 0.00000 1.00000
vt 0.00000 1.00000
vt 0.00000 1.00000
vt 0.00000 1.00000
vt 0.00000 1.00000
vt 0.00000 1.00000
vt 0.00000 1.00000
vt 0.00000 1.00000
vt 0.00000 1.00000
vt 0.00000 1.00000
vt 0.00000 1.00000
vt 0.00000 1.00000
vt 0.00000 1.00000
vt 0.00000 1.00000
vt 0.00000 1.00000
usemtl stone
f 1/1 2/2 3/3
f 4/4 5/5 6/6
f 7/7 8/8 9/9
f 10/10 11/11 12/12
f 13/13 14/14 15/15
f 16/16 17/17 18/18
f 19/19 20/20 21/21
f 22/22 23/23 24/24
f 25/25 26/26 27/27
f 28/28 29/29 30/30
f 31/31 32/32 33/33
f 34/34 35/35 36/36
f 37/37 38/38 39/39
f 40/40 41/41 42/42
f 43/43 44/44 45/45
f 46/46 47/47 48/48
f 49/49 50/50 51/51
f 52/52 53/53 54/54
f 55/55 56/56 57/57
f 58/58 59/59 60/60
f 61/61 62/62 63/63
f 64/64 65/65 66/66
f 67/67 68/68 69/69
f 70/70 71/71 72/72
