# Generated by TyraX. Do not edit - rebaked from the procedural graph of 'pines'.
# 9 instances of res/models/pine.obj
mtllib props.mtl
v -35.7631 14.9269 33.7866
v -35.7709 16.9205 33.8143
v -36.0388 16.9245 33.4503
v -35.7631 14.9269 33.7866
v -36.4027 16.9194 33.7181
v -35.7709 16.9205 33.8143
v -36.4027 16.9194 33.7181
v -35.7631 14.9269 33.7866
v -36.0388 16.9245 33.4503
v -35.7709 16.9205 33.8143
v -36.4027 16.9194 33.7181
v -36.0388 16.9245 33.4503
v 59.0090 13.9593 19.6773
v 58.9480 15.8063 19.7281
v 59.1451 15.8026 20.0978
v 59.0090 13.9593 19.6773
v 59.5146 15.8203 19.9010
v 58.9480 15.8063 19.7281
v 59.5146 15.8203 19.9010
v 59.0090 13.9593 19.6773
v 59.1451 15.8026 20.0978
v 58.9480 15.8063 19.7281
v 59.5146 15.8203 19.9010
v 59.1451 15.8026 20.0978
v 4.9571 13.0575 -0.2682
v 5.0055 15.4640 -0.1766
v 4.4741 15.4794 -0.3010
v 4.9571 13.0575 -0.2682
v 4.3493 15.4617 0.2303
v 5.0055 15.4640 -0.1766
v 4.3493 15.4617 0.2303
v 4.9571 13.0575 -0.2682
v 4.4741 15.4794 -0.3010
v 5.0055 15.4640 -0.1766
v 4.3493 15.4617 0.2303
v 4.4741 15.4794 -0.3010
v 63.5225 13.6459 16.2740
v 63.4428 14.9262 16.2660
v 63.2758 14.9173 16.5038
v 63.5225 13.6459 16.2740
v 63.5131 14.9331 16.6711
v 63.4428 14.9262 16.2660
v 63.5131 14.9331 16.6711
v 63.5225 13.6459 16.2740
v 63.2758 14.9173 16.5038
v 63.4428 14.9262 16.2660
v 63.5131 14.9331 16.6711
v 63.2758 14.9173 16.5038
v -50.5252 15.4660 50.2766
v -50.3269 18.2958 50.1967
v -50.1129 18.2979 50.8033
v -50.5252 15.4660 50.2766
v -49.5079 18.2495 50.5900
v -50.3269 18.2958 50.1967
v -49.5079 18.2495 50.5900
v -50.5252 15.4660 50.2766
v -50.1129 18.2979 50.8033
v -50.3269 18.2958 50.1967
v -49.5079 18.2495 50.5900
v -50.1129 18.2979 50.8033
v 69.6872 12.6195 -55.3172
v 69.7047 14.3032 -55.3877
v 69.4543 14.3179 -55.0996
v 69.6872 12.6195 -55.3172
v 69.7428 14.3254 -54.8493
v 69.7047 14.3032 -55.3877
v 69.7428 14.3254 -54.8493
v 69.6872 12.6195 -55.3172
v 69.4543 14.3179 -55.0996
v 69.7047 14.3032 -55.3877
v 69.7428 14.3254 -54.8493
v 69.4543 14.3179 -55.0996
v 38.0817 14.0936 34.9483
v 38.2093 16.5729 35.0076
v 38.7447 16.5412 35.1785
v 38.0817 14.0936 34.9483
v 38.9161 16.5452 34.6424
v 38.2093 16.5729 35.0076
v 38.9161 16.5452 34.6424
v 38.0817 14.0936 34.9483
v 38.7447 16.5412 35.1785
v 38.2093 16.5729 35.0076
v 38.9161 16.5452 34.6424
v 38.7447 16.5412 35.1785
v -57.0934 15.8047 46.4124
v -57.1461 17.8352 46.4197
v -57.2976 17.8328 45.9850
v -57.0934 15.8047 46.4124
v -57.7322 17.8210 46.1365
v -57.1461 17.8352 46.4197
v -57.7322 17.8210 46.1365
v -57.0934 15.8047 46.4124
v -57.2976 17.8328 45.9850
v -57.1461 17.8352 46.4197
v -57.7322 17.8210 46.1365
v -57.2976 17.8328 45.9850
v -71.1472 14.9832 -62.4322
v -70.9303 16.7820 -62.3312
v -70.5382 16.7413 -62.4483
v -71.1472 14.9832 -62.4322
v -70.6520 16.7771 -62.8419
v -70.9303 16.7820 -62.3312
v -70.6520 16.7771 -62.8419
v -71.1472 14.9832 -62.4322
v -70.5382 16.7413 -62.4483
v -70.9303 16.7820 -62.3312
v -70.6520 16.7771 -62.8419
v -70.5382 16.7413 -62.4483
vt 0.00000 1.00000
vt 0.00000 1.00000
vt 0.00000 1.00000
vt 0.00000 1.00000
vt 0.00000 1.00000
vt 0.00000 1.00000
vt 0.00000 1.00000
vt 0.00000 1.00000
vt 0.00000 1.00000
vt 0.00000 1.00000
vt 0.00000 1.00000
vt 0.00000 1.00000
vt 0.00000 1.00000
vt 0.00000 1.00000
vt 0.00000 1.00000
vt 0.00000 1.00000
vt 0.00000 1.00000
vt 0.00000 1.00000
vt 0.00000 1.00000
vt 0.00000 1.00000
vt 0.00000 1.00000
vt 0.00000 1.00000
vt 0.00000 1.00000
vt 0.00000 1.00000
vt 0.00000 1.00000
vt 0.00000 1.00000
vt 0.00000 1.00000
vt 0.00000 1.00000
vt 0.00000 1.00000
vt 0.00000 1.00000
vt 0.00000 1.00000
vt 0.00000 1.00000
vt 0.00000 1.00000
vt 0.00000 1.00000
vt 0.00000 1.00000
vt 0.00000 1.00000
vt 0.00000 1.00000
vt 0.00000 1.00000
vt 0.00000 1.00000
vt 0.00000 1.00000
vt 0.00000 1.00000
vt 0.00000 1.00000
vt 0.00000 1.00000
vt 0.00000 1.00000
vt 0.00000 1.00000
vt 0.00000 1.00000
vt 0.00000 1.00000
vt 0.00000 1.00000
vt 0.00000 1.00000
vt 0.00000 1.00000
vt 0.00000 1.00000
vt 0.00000 1.00000
vt 0.00000 1.00000
vt 0.00000 1.00000
vt 0.00000 1.00000
vt 0.00000 1.00000
vt 0.00000 1.00000
vt 0.00000 1.00000
vt 0.00000 1.00000
vt 0.00000 1.00000
vt 0.00000 1.00000
vt 0.00000 1.00000
vt 0.00000 1.00000
vt 0.00000 1.00000
vt 0.00000 1.00000
vt 0.00000 1.00000
vt 0.00000 1.00000
vt 0.00000 1.00000
vt 0.00000 1.00000
vt 0.00000 1.00000
vt 0.00000 1.00000
vt 0.00000 1.00000
vt 0.00000 1.00000
vt 0.00000 1.00000
vt 0.00000 1.00000
vt 0.00000 1.00000
vt 0.00000 1.00000
vt 0.00000 1.00000
vt 0.00000 1.00000
vt 0.00000 1.00000
vt 0.00000 1.00000
vt 0.00000 1.00000
vt 0.00000 1.00000
vt 0.00000 1.00000
vt 0.00000 1.00000
vt 0.00000 1.00000
vt 0.00000 1.00000
vt 0.00000 1.00000
vt 0.00000 1.00000
vt 0.00000 1.00000
vt 0.00000 1.00000
vt 0.00000 1.00000
vt 0.00000 1.00000
vt 0.00000 1.00000
vt 0.00000 1.00000
vt 0.00000 1.00000
vt 0.00000 1.00000
vt 0.00000 1.00000
vt 0.00000 1.00000
vt 0.00000 1.00000
vt 0.00000 1.00000
vt 0.00000 1.00000
vt 0.00000 1.00000
vt 0.00000 1.00000
vt 0.00000 1.00000
vt 0.00000 1.00000
vt 0.00000 1.00000
vt 0.00000 1.00000
usemtl bark
f 1/1 2/2 3/3
f 4/4 5/5 6/6
f 7/7 8/8 9/9
f 10/10 11/11 12/12
f 13/13 14/14 15/15
f 16/16 17/17 18/18
f 19/19 20/20 21/21
f 22/22 23/23 24/24
f 25/25 26/26 27/27
f 28/28 29/29 30/30
f 31/31 32/32 33/33
f 34/34 35/35 36/36
f 37/37 38/38 39/39
f 40/40 41/41 42/42
f 43/43 44/44 45/45
f 46/46 47/47 48/48
f 49/49 50/50 51/51
f 52/52 53/53 54/54
f 55/55 56/56 57/57
f 58/58 59/59 60/60
f 61/61 62/62 63/63
f 64/64 65/65 66/66
f 67/67 68/68 69/69
f 70/70 71/71 72/72
f 73/73 74/74 75/75
f 76/76 77/77 78/78
f 79/79 80/80 81/81
f 82/82 83/83 84/84
f 85/85 86/86 87/87
f 88/88 89/89 90/90
f 91/91 92/92 93/93
f 94/94 95/95 96/96
f 97/97 98/98 99/99
f 100/100 101/101 102/102
f 103/103 104/104 105/105
f 106/106 107/107 108/108
v -36.0936 18.6477 33.7902
v -35.8149 16.4140 31.9850
v -34.3107 16.3915 34.0287
v -37.8587 16.3851 33.4889
v -34.3107 16.3915 34.0287
v -35.8149 16.4140 31.9850
v -36.0936 18.6477 33.7902
v -34.3107 16.3915 34.0287
v -36.3546 16.3626 35.5326
v -37.8587 16.3851 33.4889
v -36.3546 16.3626 35.5326
v -34.3107 16.3915 34.0287
v -36.0936 18.6477 33.7902
v -36.3546 16.3626 35.5326
v -37.8587 16.3851 33.4889
v -36.0936 18.6477 33.7902
v -37.8587 16.3851 33.4889
v -35.8149 16.4140 31.9850
v -36.0983 19.8438 33.8068
v -36.8783 17.8620 32.7086
v -35.0200 17.8654 32.9914
v -36.0983 19.8438 33.8068
v -35.0200 17.8654 32.9914
v -35.3026 17.8385 34.8496
v -36.0983 19.8438 33.8068
v -35.3026 17.8385 34.8496
v -37.1610 17.8351 34.5668
v -35.0200 17.8654 32.9914
v -37.1610 17.8351 34.5668
v -35.3026 17.8385 34.8496
v -36.0983 19.8438 33.8068
v -37.1610 17.8351 34.5668
v -36.8783 17.8620 32.7086
v -35.0200 17.8654 32.9914
v -36.8783 17.8620 32.7086
v -37.1610 17.8351 34.5668
v -36.1025 20.9071 33.8216
v -36.5842 19.1866 33.1339
v -35.4320 19.1887 33.3092
v -36.1025 20.9071 33.8216
v -35.4320 19.1887 33.3092
v -35.6072 19.1720 34.4613
v -36.1025 20.9071 33.8216
v -35.6072 19.1720 34.4613
v -36.7594 19.1699 34.2860
v -35.4320 19.1887 33.3092
v -36.7594 19.1699 34.2860
v -35.6072 19.1720 34.4613
v -36.1025 20.9071 33.8216
v -36.7594 19.1699 34.2860
v -36.5842 19.1866 33.1339
v -35.4320 19.1887 33.3092
v -36.5842 19.1866 33.1339
v -36.7594 19.1699 34.2860
v 59.1784 17.4140 19.8586
v 58.7637 15.2610 21.3918
v 57.6567 15.2815 19.3156
v 60.8385 15.3600 20.2864
v 57.6567 15.2815 19.3156
v 58.7637 15.2610 21.3918
v 59.1784 17.4140 19.8586
v 57.6567 15.2815 19.3156
v 59.7315 15.3805 18.2103
v 60.8385 15.3600 20.2864
v 59.7315 15.3805 18.2103
v 57.6567 15.2815 19.3156
v 59.1784 17.4140 19.8586
v 59.7315 15.3805 18.2103
v 60.8385 15.3600 20.2864
v 59.1784 17.4140 19.8586
v 60.8385 15.3600 20.2864
v 58.7637 15.2610 21.3918
v 59.1418 18.5221 19.8890
v 59.7827 16.6645 20.9257
v 58.1161 16.6233 20.4172
v 59.1418 18.5221 19.8890
v 58.1161 16.6233 20.4172
v 58.6230 16.6859 18.7508
v 59.1418 18.5221 19.8890
v 58.6230 16.6859 18.7508
v 60.2896 16.7270 19.2593
v 58.1161 16.6233 20.4172
v 60.2896 16.7270 19.2593
v 58.6230 16.6859 18.7508
v 59.1418 18.5221 19.8890
v 60.2896 16.7270 19.2593
v 59.7827 16.6645 20.9257
v 58.1161 16.6233 20.4172
v 59.7827 16.6645 20.9257
v 60.2896 16.7270 19.2593
v 59.1092 19.5072 19.9161
v 59.5216 17.8998 20.5463
v 58.4883 17.8743 20.2310
v 59.1092 19.5072 19.9161
v 58.4883 17.8743 20.2310
v 58.8026 17.9131 19.1979
v 59.1092 19.5072 19.9161
v 58.8026 17.9131 19.1979
v 59.8359 17.9386 19.5132
v 58.4883 17.8743 20.2310
v 59.8359 17.9386 19.5132
v 58.8026 17.9131 19.1979
v 59.1092 19.5072 19.9161
v 59.8359 17.9386 19.5132
v 59.5216 17.8998 20.5463
v 58.4883 17.8743 20.2310
v 59.5216 17.8998 20.5463
v 59.8359 17.9386 19.5132
v 4.7193 17.5484 0.1061
v 3.5228 14.9141 -1.8381
v 6.5068 14.8275 -1.1400
v 2.8221 14.8147 1.1448
v 6.5068 14.8275 -1.1400
v 3.5228 14.9141 -1.8381
v 4.7193 17.5484 0.1061
v 6.5068 14.8275 -1.1400
v 5.8061 14.7282 1.8429
v 2.8221 14.8147 1.1448
v 5.8061 14.7282 1.8429
v 6.5068 14.8275 -1.1400
v 4.7193 17.5484 0.1061
v 5.8061 14.7282 1.8429
v 2.8221 14.8147 1.1448
v 4.7193 17.5484 0.1061
v 2.8221 14.8147 1.1448
v 3.5228 14.9141 -1.8381
v 4.7484 18.9923 0.1610
v 3.1370 16.6312 -0.2961
v 5.0670 16.6379 -1.4929
v 4.7484 18.9923 0.1610
v 5.0670 16.6379 -1.4929
v 6.2629 16.5405 0.4352
v 4.7484 18.9923 0.1610
v 6.2629 16.5405 0.4352
v 4.3329 16.5338 1.6319
v 5.0670 16.6379 -1.4929
v 4.3329 16.5338 1.6319
v 6.2629 16.5405 0.4352
v 4.7484 18.9923 0.1610
v 4.3329 16.5338 1.6319
v 3.1370 16.6312 -0.2961
v 5.0670 16.6379 -1.4929
v 3.1370 16.6312 -0.2961
v 4.3329 16.5338 1.6319
v 4.7742 20.2758 0.2098
v 3.7632 18.2183 -0.0962
v 4.9598 18.2224 -0.8382
v 4.7742 20.2758 0.2098
v 4.9598 18.2224 -0.8382
v 5.7013 18.1620 0.3572
v 4.7742 20.2758 0.2098
v 5.7013 18.1620 0.3572
v 4.5047 18.1579 1.0992
v 4.9598 18.2224 -0.8382
v 4.5047 18.1579 1.0992
v 5.7013 18.1620 0.3572
v 4.7742 20.2758 0.2098
v 4.5047 18.1579 1.0992
v 3.7632 18.2183 -0.0962
v 4.9598 18.2224 -0.8382
v 3.7632 18.2183 -0.0962
v 4.5047 18.1579 1.0992
v 63.4089 16.0392 16.4615
v 62.3640 14.5188 16.6690
v 63.3018 14.5687 15.3333
v 63.6967 14.6077 17.6080
v 63.3018 14.5687 15.3333
v 62.3640 14.5188 16.6690
v 63.4089 16.0392 16.4615
v 63.3018 14.5687 15.3333
v 64.6345 14.6576 16.2724
v 63.6967 14.6077 17.6080
v 64.6345 14.6576 16.2724
v 63.3018 14.5687 15.3333
v 63.4089 16.0392 16.4615
v 64.6345 14.6576 16.2724
v 63.6967 14.6077 17.6080
v 63.4089 16.0392 16.4615
v 63.6967 14.6077 17.6080
v 62.3640 14.5188 16.6690
v 63.3611 16.8074 16.4567
v 62.9496 15.5009 17.1643
v 62.7427 15.4805 15.9729
v 63.3611 16.8074 16.4567
v 62.7427 15.4805 15.9729
v 63.9320 15.5533 15.7652
v 63.3611 16.8074 16.4567
v 63.9320 15.5533 15.7652
v 64.1388 15.5736 16.9566
v 62.7427 15.4805 15.9729
v 64.1388 15.5736 16.9566
v 63.9320 15.5533 15.7652
v 63.3611 16.8074 16.4567
v 64.1388 15.5736 16.9566
v 62.9496 15.5009 17.1643
v 62.7427 15.4805 15.9729
v 62.9496 15.5009 17.1643
v 64.1388 15.5736 16.9566
v 63.3186 17.4902 16.4524
v 63.0831 16.3644 16.8931
v 62.9548 16.3517 16.1544
v 63.3186 17.4902 16.4524
v 62.9548 16.3517 16.1544
v 63.6922 16.3968 16.0256
v 63.3186 17.4902 16.4524
v 63.6922 16.3968 16.0256
v 63.8204 16.4095 16.7643
v 62.9548 16.3517 16.1544
v 63.8204 16.4095 16.7643
v 63.6922 16.3968 16.0256
v 63.3186 17.4902 16.4524
v 63.8204 16.4095 16.7643
v 63.0831 16.3644 16.8931
v 62.9548 16.3517 16.1544
v 63.0831 16.3644 16.8931
v 63.8204 16.4095 16.7643
v -49.7455 20.7251 50.3240
v -51.0679 17.6600 52.7166
v -52.2696 17.6480 49.3103
v -47.6710 17.3881 51.5191
v -52.2696 17.6480 49.3103
v -51.0679 17.6600 52.7166
v -49.7455 20.7251 50.3240
v -52.2696 17.6480 49.3103
v -48.8727 17.3760 48.1128
v -47.6710 17.3881 51.5191
v -48.8727 17.3760 48.1128
v -52.2696 17.6480 49.3103
v -49.7455 20.7251 50.3240
v -48.8727 17.3760 48.1128
v -47.6710 17.3881 51.5191
v -49.7455 20.7251 50.3240
v -47.6710 17.3881 51.5191
v -51.0679 17.6600 52.7166
v -49.6265 22.4230 50.2761
v -49.1954 19.5995 52.1402
v -51.6041 19.7357 50.9832
v -49.6265 22.4230 50.2761
v -51.6041 19.7357 50.9832
v -50.4543 19.5869 48.5719
v -49.6265 22.4230 50.2761
v -50.4543 19.5869 48.5719
v -48.0456 19.4508 49.7288
v -51.6041 19.7357 50.9832
v -48.0456 19.4508 49.7288
v -50.4543 19.5869 48.5719
v -49.6265 22.4230 50.2761
v -48.0456 19.4508 49.7288
v -49.1954 19.5995 52.1402
v -51.6041 19.7357 50.9832
v -49.1954 19.5995 52.1402
v -48.0456 19.4508 49.7288
v -49.5207 23.9323 50.2334
v -49.3024 21.4837 51.4089
v -50.7957 21.5681 50.6916
v -49.5207 23.9323 50.2334
v -50.7957 21.5681 50.6916
v -50.0829 21.4758 49.1966
v -49.5207 23.9323 50.2334
v -50.0829 21.4758 49.1966
v -48.5895 21.3914 49.9138
v -50.7957 21.5681 50.6916
v -48.5895 21.3914 49.9138
v -50.0829 21.4758 49.1966
v -49.5207 23.9323 50.2334
v -48.5895 21.3914 49.9138
v -49.3024 21.4837 51.4089
v -50.7957 21.5681 50.6916
v -49.3024 21.4837 51.4089
v -48.5895 21.3914 49.9138
v 69.7388 15.7735 -55.1797
v 68.2062 13.8854 -54.9933
v 69.6120 13.8031 -56.6114
v 69.8262 13.9275 -53.5880
v 69.6120 13.8031 -56.6114
v 68.2062 13.8854 -54.9933
v 69.7388 15.7735 -55.1797
v 69.6120 13.8031 -56.6114
v 71.2320 13.8452 -55.2061
v 69.8262 13.9275 -53.5880
v 71.2320 13.8452 -55.2061
v 69.6120 13.8031 -56.6114
v 69.7388 15.7735 -55.1797
v 71.2320 13.8452 -55.2061
v 69.8262 13.9275 -53.5880
v 69.7388 15.7735 -55.1797
v 69.8262 13.9275 -53.5880
v 68.2062 13.8854 -54.9933
v 69.7493 16.7838 -55.2220
v 68.9955 15.1432 -54.3039
v 68.8833 15.0780 -55.8875
v 69.7493 16.7838 -55.2220
v 68.8833 15.0780 -55.8875
v 70.4682 15.0569 -55.9990
v 69.7493 16.7838 -55.2220
v 70.4682 15.0569 -55.9990
v 70.5804 15.1221 -54.4153
v 68.8833 15.0780 -55.8875
v 70.5804 15.1221 -54.4153
v 70.4682 15.0569 -55.9990
v 69.7493 16.7838 -55.2220
v 70.5804 15.1221 -54.4153
v 68.9955 15.1432 -54.3039
v 68.8833 15.0780 -55.8875
v 68.9955 15.1432 -54.3039
v 70.5804 15.1221 -54.4153
v 69.7586 17.6818 -55.2596
v 69.2870 16.2493 -54.6730
v 69.2174 16.2089 -55.6549
v 69.7586 17.6818 -55.2596
v 69.2174 16.2089 -55.6549
v 70.2000 16.1958 -55.7239
v 69.7586 17.6818 -55.2596
v 70.2000 16.1958 -55.7239
v 70.2696 16.2362 -54.7421
v 69.2174 16.2089 -55.6549
v 70.2696 16.2362 -54.7421
v 70.2000 16.1958 -55.7239
v 69.7586 17.6818 -55.2596
v 70.2696 16.2362 -54.7421
v 69.2870 16.2493 -54.6730
v 69.2174 16.2089 -55.6549
v 69.2870 16.2493 -54.6730
v 70.2696 16.2362 -54.7421
v 38.6734 18.7078 34.8764
v 39.5506 15.7978 36.7944
v 36.5443 15.9755 35.8346
v 40.5131 15.8203 33.7838
v 36.5443 15.9755 35.8346
v 39.5506 15.7978 36.7944
v 38.6734 18.7078 34.8764
v 36.5443 15.9755 35.8346
v 37.5068 15.9980 32.8240
v 40.5131 15.8203 33.7838
v 37.5068 15.9980 32.8240
v 36.5443 15.9755 35.8346
v 38.6734 18.7078 34.8764
v 37.5068 15.9980 32.8240
v 40.5131 15.8203 33.7838
v 38.6734 18.7078 34.8764
v 40.5131 15.8203 33.7838
v 39.5506 15.7978 36.7944
v 38.7499 20.1954 34.9120
v 40.1969 17.6230 35.3554
v 38.1181 17.7043 36.4296
v 38.7499 20.1954 34.9120
v 38.1181 17.7043 36.4296
v 37.0477 17.8092 34.3499
v 38.7499 20.1954 34.9120
v 37.0477 17.8092 34.3499
v 39.1264 17.7278 33.2758
v 38.1181 17.7043 36.4296
v 39.1264 17.7278 33.2758
v 37.0477 17.8092 34.3499
v 38.7499 20.1954 34.9120
v 39.1264 17.7278 33.2758
v 40.1969 17.6230 35.3554
v 38.1181 17.7043 36.4296
v 40.1969 17.6230 35.3554
v 39.1264 17.7278 33.2758
v 38.8180 21.5177 34.9436
v 39.6836 19.3112 35.2039
v 38.3948 19.3617 35.8699
v 38.8180 21.5177 34.9436
v 38.3948 19.3617 35.8699
v 37.7311 19.4267 34.5805
v 38.8180 21.5177 34.9436
v 37.7311 19.4267 34.5805
v 39.0200 19.3762 33.9146
v 38.3948 19.3617 35.8699
v 39.0200 19.3762 33.9146
v 37.7311 19.4267 34.5805
v 38.8180 21.5177 34.9436
v 39.0200 19.3762 33.9146
v 39.6836 19.3112 35.2039
v 38.3948 19.3617 35.8699
v 39.6836 19.3112 35.2039
v 39.0200 19.3762 33.9146
v -57.4848 19.5879 46.2845
v -56.6304 17.3132 44.6300
v -55.7794 17.3265 47.0712
v -59.0707 17.2468 45.4811
v -55.7794 17.3265 47.0712
v -56.6304 17.3132 44.6300
v -57.4848 19.5879 46.2845
v -55.7794 17.3265 47.0712
v -58.2197 17.2601 47.9223
v -59.0707 17.2468 45.4811
v -58.2197 17.2601 47.9223
v -55.7794 17.3265 47.0712
v -57.4848 19.5879 46.2845
v -58.2197 17.2601 47.9223
v -59.0707 17.2468 45.4811
v -57.4848 19.5879 46.2845
v -59.0707 17.2468 45.4811
v -56.6304 17.3132 44.6300
v -57.5164 20.8061 46.2889
v -57.9094 18.7687 45.0029
v -56.1855 18.8104 45.8358
v -57.5164 20.8061 46.2889
v -56.1855 18.8104 45.8358
v -57.0180 18.7826 47.5602
v -57.5164 20.8061 46.2889
v -57.0180 18.7826 47.5602
v -58.7419 18.7409 46.7273
v -56.1855 18.8104 45.8358
v -58.7419 18.7409 46.7273
v -57.0180 18.7826 47.5602
v -57.5164 20.8061 46.2889
v -58.7419 18.7409 46.7273
v -57.9094 18.7687 45.0029
v -56.1855 18.8104 45.8358
v -57.9094 18.7687 45.0029
v -58.7419 18.7409 46.7273
v -57.5445 21.8891 46.2928
v -57.7752 20.1250 45.4937
v -56.7064 20.1509 46.0101
v -57.5445 21.8891 46.2928
v -56.7064 20.1509 46.0101
v -57.2225 20.1336 47.0792
v -57.5445 21.8891 46.2928
v -57.2225 20.1336 47.0792
v -58.2913 20.1078 46.5628
v -56.7064 20.1509 46.0101
v -58.2913 20.1078 46.5628
v -57.2225 20.1336 47.0792
v -57.5445 21.8891 46.2928
v -58.2913 20.1078 46.5628
v -57.7752 20.1250 45.4937
v -56.7064 20.1509 46.0101
v -57.7752 20.1250 45.4937
v -58.2913 20.1078 46.5628
v -70.6032 18.3386 -62.4990
v -69.4282 16.0850 -61.8372
v -71.6305 16.3135 -61.1794
v -70.0675 16.2862 -64.0475
v -71.6305 16.3135 -61.1794
v -69.4282 16.0850 -61.8372
v -70.6032 18.3386 -62.4990
v -71.6305 16.3135 -61.1794
v -72.2698 16.5148 -63.3898
v -70.0675 16.2862 -64.0475
v -72.2698 16.5148 -63.3898
v -71.6305 16.3135 -61.1794
v -70.6032 18.3386 -62.4990
v -72.2698 16.5148 -63.3898
v -70.0675 16.2862 -64.0475
v -70.6032 18.3386 -62.4990
v -70.0675 16.2862 -64.0475
v -69.4282 16.0850 -61.8372
v -70.4731 19.4179 -62.4384
v -69.5365 17.4993 -62.8839
v -70.3551 17.5136 -61.3817
v -70.4731 19.4179 -62.4384
v -70.3551 17.5136 -61.3817
v -71.8435 17.7387 -62.1949
v -70.4731 19.4179 -62.4384
v -71.8435 17.7387 -62.1949
v -71.0248 17.7244 -63.6971
v -70.3551 17.5136 -61.3817
v -71.0248 17.7244 -63.6971
v -71.8435 17.7387 -62.1949
v -70.4731 19.4179 -62.4384
v -71.0248 17.7244 -63.6971
v -69.5365 17.4993 -62.8839
v -70.3551 17.5136 -61.3817
v -69.5365 17.4993 -62.8839
v -71.0248 17.7244 -63.6971
v -70.3575 20.3772 -62.3845
v -69.8302 18.7440 -62.6856
v -70.3378 18.7529 -61.7542
v -70.3575 20.3772 -62.3845
v -70.3378 18.7529 -61.7542
v -71.2606 18.8925 -62.2585
v -70.3575 20.3772 -62.3845
v -71.2606 18.8925 -62.2585
v -70.7530 18.8836 -63.1898
v -70.3378 18.7529 -61.7542
v -70.7530 18.8836 -63.1898
v -71.2606 18.8925 -62.2585
v -70.3575 20.3772 -62.3845
v -70.7530 18.8836 -63.1898
v -69.8302 18.7440 -62.6856
v -70.3378 18.7529 -61.7542
v -69.8302 18.7440 -62.6856
v -70.7530 18.8836 -63.1898
vt 0.00000 1.00000
vt 0.00000 1.00000
vt 0.00000 1.00000
vt 0.00000 1.00000
vt 0.00000 1.00000
vt 0.00000 1.00000
vt 0.00000 1.00000
vt 0.00000 1.00000
vt 0.00000 1.00000
vt 0.00000 1.00000
vt 0.00000 1.00000
vt 0.00000 1.00000
vt 0.00000 1.00000
vt 0.00000 1.00000
vt 0.00000 1.00000
vt 0.00000 1.00000
vt 0.00000 1.00000
vt 0.00000 1.00000
vt 0.00000 1.00000
vt 0.00000 1.00000
vt 0.00000 1.00000
vt 0.00000 1.00000
vt 0.00000 1.00000
vt 0.00000 1.00000
vt 0.00000 1.00000
vt 0.00000 1.00000
vt 0.00000 1.00000
vt 0.00000 1.00000
vt 0.00000 1.00000
vt 0.00000 1.00000
vt 0.00000 1.00000
vt 0.00000 1.00000
vt 0.00000 1.00000
vt 0.00000 1.00000
vt 0.00000 1.00000
vt 0.00000 1.00000
vt 0.00000 1.00000
vt 0.00000 1.00000
vt 0.00000 1.00000
vt 0.00000 1.00000
vt 0.00000 1.00000
vt 0.00000 1.00000
vt 0.00000 1.00000
vt 0.00000 1.00000
vt 0.00000 1.00000
vt 0.00000 1.00000
vt 0.00000 1.00000
vt 0.00000 1.00000
vt 0.00000 1.00000
vt 0.00000 1.00000
vt 0.00000 1.00000
vt 0.00000 1.00000
vt 0.00000 1.00000
vt 0.00000 1.00000
vt 0.00000 1.00000
vt 0.00000 1.00000
vt 0.00000 1.00000
vt 0.00000 1.00000
vt 0.00000 1.00000
vt 0.00000 1.00000
vt 0.00000 1.00000
vt 0.00000 1.00000
vt 0.00000 1.00000
vt 0.00000 1.00000
vt 0.00000 1.00000
vt 0.00000 1.00000
vt 0.00000 1.00000
vt 0.00000 1.00000
vt 0.00000 1.00000
vt 0.00000 1.00000
vt 0.00000 1.00000
vt 0.00000 1.00000
vt 0.00000 1.00000
vt 0.00000 1.00000
vt 0.00000 1.00000
vt 0.00000 1.00000
vt 0.00000 1.00000
vt 0.00000 1.00000
vt 0.00000 1.00000
vt 0.00000 1.00000
vt 0.00000 1.00000
vt 0.00000 1.00000
vt 0.00000 1.00000
vt 0.00000 1.00000
vt 0.00000 1.00000
vt 0.00000 1.00000
vt 0.00000 1.00000
vt 0.00000 1.00000
vt 0.00000 1.00000
vt 0.00000 1.00000
vt 0.00000 1.00000
vt 0.00000 1.00000
vt 0.00000 1.00000
vt 0.00000 1.00000
vt 0.00000 1.00000
vt 0.00000 1.00000
vt 0.00000 1.00000
vt 0.00000 1.00000
vt 0.00000 1.00000
vt 0.00000 1.00000
vt 0.00000 1.00000
vt 0.00000 1.00000
vt 0.00000 1.00000
vt 0.00000 1.00000
vt 0.00000 1.00000
vt 0.00000 1.00000
vt 0.00000 1.00000
vt 0.00000 1.00000
vt 0.00000 1.00000
vt 0.00000 1.00000
vt 0.00000 1.00000
vt 0.00000 1.00000
vt 0.00000 1.00000
vt 0.00000 1.00000
vt 0.00000 1.00000
vt 0.00000 1.00000
vt 0.00000 1.00000
vt 0.00000 1.00000
vt 0.00000 1.00000
vt 0.00000 1.00000
vt 0.00000 1.00000
vt 0.00000 1.00000
vt 0.00000 1.00000
vt 0.00000 1.00000
vt 0.00000 1.00000
vt 0.00000 1.00000
vt 0.00000 1.00000
vt 0.00000 1.00000
vt 0.00000 1.00000
vt 0.00000 1.00000
vt 0.00000 1.00000
vt 0.00000 1.00000
vt 0.00000 1.00000
vt 0.00000 1.00000
vt 0.00000 1.00000
vt 0.00000 1.00000
vt 0.00000 1.00000
vt 0.00000 1.00000
vt 0.00000 1.00000
vt 0.00000 1.00000
vt 0.00000 1.00000
vt 0.00000 1.00000
vt 0.00000 1.00000
vt 0.00000 1.00000
vt 0.00000 1.00000
vt 0.00000 1.00000
vt 0.00000 1.00000
vt 0.00000 1.00000
vt 0.00000 1.00000
vt 0.00000 1.00000
vt 0.00000 1.00000
vt 0.00000 1.00000
vt 0.00000 1.00000
vt 0.00000 1.00000
vt 0.00000 1.00000
vt 0.00000 1.00000
vt 0.00000 1.00000
vt 0.00000 1.00000
vt 0.00000 1.00000
vt 0.00000 1.00000
vt 0.00000 1.00000
vt 0.00000 1.00000
vt 0.00000 1.00000
vt 0.00000 1.00000
vt 0.00000 1.00000
vt 0.00000 1.00000
vt 0.00000 1.00000
vt 0.00000 1.00000
vt 0.00000 1.00000
vt 0.00000 1.00000
vt 0.00000 1.00000
vt 0.00000 1.00000
vt 0.00000 1.00000
vt 0.00000 1.00000
vt 0.00000 1.00000
vt 0.00000 1.00000
vt 0.00000 1.00000
vt 0.00000 1.00000
vt 0.00000 1.00000
vt 0.00000 1.00000
vt 0.00000 1.00000
vt 0.00000 1.00000
vt 0.00000 1.00000
vt 0.00000 1.00000
vt 0.00000 1.00000
vt 0.00000 1.00000
vt 0.00000 1.00000
vt 0.00000 1.00000
vt 0.00000 1.00000
vt 0.00000 1.00000
vt 0.00000 1.00000
vt 0.00000 1.00000
vt 0.00000 1.00000
vt 0.00000 1.00000
vt 0.00000 1.00000
vt 0.00000 1.00000
vt 0.00000 1.00000
vt 0.00000 1.00000
vt 0.00000 1.00000
vt 0.00000 1.00000
vt 0.00000 1.00000
vt 0.00000 1.00000
vt 0.00000 1.00000
vt 0.00000 1.00000
vt 0.00000 1.00000
vt 0.00000 1.00000
vt 0.00000 1.00000
vt 0.00000 1.00000
vt 0.00000 1.00000
vt 0.00000 1.00000
vt 0.00000 1.00000
vt 0.00000 1.00000
vt 0.00000 1.00000
vt 0.00000 1.00000
vt 0.00000 1.00000
vt 0.00000 1.00000
vt 0.00000 1.00000
vt 0.00000 1.00000
vt 0.00000 1.00000
vt 0.00000 1.00000
vt 0.00000 1.00000
vt 0.00000 1.00000
vt 0.00000 1.00000
vt 0.00000 1.00000
vt 0.00000 1.00000
vt 0.00000 1.00000
vt 0.00000 1.00000
vt 0.00000 1.00000
vt 0.00000 1.00000
vt 0.00000 1.00000
vt 0.00000 1.00000
vt 0.00000 1.00000
vt 0.00000 1.00000
vt 0.00000 1.00000
vt 0.00000 1.00000
vt 0.00000 1.00000
vt 0.00000 1.00000
vt 0.00000 1.00000
vt 0.00000 1.00000
vt 0.00000 1.00000
vt 0.00000 1.00000
vt 0.00000 1.00000
vt 0.00000 1.00000
vt 0.00000 1.00000
vt 0.00000 1.00000
vt 0.00000 1.00000
vt 0.00000 1.00000
vt 0.00000 1.00000
vt 0.00000 1.00000
vt 0.00000 1.00000
vt 0.00000 1.00000
vt 0.00000 1.00000
vt 0.00000 1.00000
vt 0.00000 1.00000
vt 0.00000 1.00000
vt 0.00000 1.00000
vt 0.00000 1.00000
vt 0.00000 1.00000
vt 0.00000 1.00000
vt 0.00000 1.00000
vt 0.00000 1.00000
vt 0.00000 1.00000
vt 0.00000 1.00000
vt 0.00000 1.00000
vt 0.00000 1.00000
vt 0.00000 1.00000
vt 0.00000 1.00000
vt 0.00000 1.00000
vt 0.00000 1.00000
vt 0.00000 1.00000
vt 0.00000 1.00000
vt 0.00000 1.00000
vt 0.00000 1.00000
vt 0.00000 1.00000
vt 0.00000 1.00000
vt 0.00000 1.00000
vt 0.00000 1.00000
vt 0.00000 1.00000
vt 0.00000 1.00000
vt 0.00000 1.00000
vt 0.00000 1.00000
vt 0.00000 1.00000
vt 0.00000 1.00000
vt 0.00000 1.00000
vt 0.00000 1.00000
vt 0.00000 1.00000
vt 0.00000 1.00000
vt 0.00000 1.00000
vt 0.00000 1.00000
vt 0.00000 1.00000
vt 0.00000 1.00000
vt 0.00000 1.00000
vt 0.00000 1.00000
vt 0.00000 1.00000
vt 0.00000 1.00000
vt 0.00000 1.00000
vt 0.00000 1.00000
vt 0.00000 1.00000
vt 0.00000 1.00000
vt 0.00000 1.00000
vt 0.00000 1.00000
vt 0.00000 1.00000
vt 0.00000 1.00000
vt 0.00000 1.00000
vt 0.00000 1.00000
vt 0.00000 1.00000
vt 0.00000 1.00000
vt 0.00000 1.00000
vt 0.00000 1.00000
vt 0.00000 1.00000
vt 0.00000 1.00000
vt 0.00000 1.00000
vt 0.00000 1.00000
vt 0.00000 1.00000
vt 0.00000 1.00000
vt 0.00000 1.00000
vt 0.00000 1.00000
vt 0.00000 1.00000
vt 0.00000 1.00000
vt 0.00000 1.00000
vt 0.00000 1.00000
vt 0.00000 1.00000
vt 0.00000 1.00000
vt 0.00000 1.00000
vt 0.00000 1.00000
vt 0.00000 1.00000
vt 0.00000 1.00000
vt 0.00000 1.00000
vt 0.00000 1.00000
vt 0.00000 1.00000
vt 0.00000 1.00000
vt 0.00000 1.00000
vt 0.00000 1.00000
vt 0.00000 1.00000
vt 0.00000 1.00000
vt 0.00000 1.00000
vt 0.00000 1.00000
vt 0.00000 1.00000
vt 0.00000 1.00000
vt 0.00000 1.00000
vt 0.00000 1.00000
vt 0.00000 1.00000
vt 0.00000 1.00000
vt 0.00000 1.00000
vt 0.00000 1.00000
vt 0.00000 1.00000
vt 0.00000 1.00000
vt 0.00000 1.00000
vt 0.00000 1.00000
vt 0.00000 1.00000
vt 0.00000 1.00000
vt 0.00000 1.00000
vt 0.00000 1.00000
vt 0.00000 1.00000
vt 0.00000 1.00000
vt 0.00000 1.00000
vt 0.00000 1.00000
vt 0.00000 1.00000
vt 0.00000 1.00000
vt 0.00000 1.00000
vt 0.00000 1.00000
vt 0.00000 1.00000
vt 0.00000 1.00000
vt 0.00000 1.00000
vt 0.00000 1.00000
vt 0.00000 1.00000
vt 0.00000 1.00000
vt 0.00000 1.00000
vt 0.00000 1.00000
vt 0.00000 1.00000
vt 0.00000 1.00000
vt 0.00000 1.00000
vt 0.00000 1.00000
vt 0.00000 1.00000
vt 0.00000 1.00000
vt 0.00000 1.00000
vt 0.00000 1.00000
vt 0.00000 1.00000
vt 0.00000 1.00000
vt 0.00000 1.00000
vt 0.00000 1.00000
vt 0.00000 1.00000
vt 0.00000 1.00000
vt 0.00000 1.00000
vt 0.00000 1.00000
vt 0.00000 1.00000
vt 0.00000 1.00000
vt 0.00000 1.00000
vt 0.00000 1.00000
vt 0.00000 1.00000
vt 0.00000 1.00000
vt 0.00000 1.00000
vt 0.00000 1.00000
vt 0.00000 1.00000
vt 0.00000 1.00000
vt 0.00000 1.00000
vt 0.00000 1.00000
vt 0.00000 1.00000
vt 0.00000 1.00000
vt 0.00000 1.00000
vt 0.00000 1.00000
vt 0.00000 1.00000
vt 0.00000 1.00000
vt 0.00000 1.00000
vt 0.00000 1.00000
vt 0.00000 1.00000
vt 0.00000 1.00000
vt 0.00000 1.00000
vt 0.00000 1.00000
vt 0.00000 1.00000
vt 0.00000 1.00000
vt 0.00000 1.00000
vt 0.00000 1.00000
vt 0.00000 1.00000
vt 0.00000 1.00000
vt 0.00000 1.00000
vt 0.00000 1.00000
vt 0.00000 1.00000
vt 0.00000 1.00000
vt 0.00000 1.00000
vt 0.00000 1.00000
vt 0.00000 1.00000
vt 0.00000 1.00000
vt 0.00000 1.00000
vt 0.00000 1.00000
vt 0.00000 1.00000
vt 0.00000 1.00000
vt 0.00000 1.00000
vt 0.00000 1.00000
vt 0.00000 1.00000
vt 0.00000 1.00000
vt 0.00000 1.00000
vt 0.00000 1.00000
vt 0.00000 1.00000
vt 0.00000 1.00000
vt 0.00000 1.00000
vt 0.00000 1.00000
vt 0.00000 1.00000
vt 0.00000 1.00000
vt 0.00000 1.00000
vt 0.00000 1.00000
vt 0.00000 1.00000
vt 0.00000 1.00000
vt 0.00000 1.00000
vt 0.00000 1.00000
vt 0.00000 1.00000
vt 0.00000 1.00000
vt 0.00000 1.00000
vt 0.00000 1.00000
vt 0.00000 1.00000
vt 0.00000 1.00000
vt 0.00000 1.00000
vt 0.00000 1.00000
vt 0.00000 1.00000
vt 0.00000 1.00000
vt 0.00000 1.00000
vt 0.00000 1.00000
vt 0.00000 1.00000
vt 0.00000 1.00000
vt 0.00000 1.00000
vt 0.00000 1.00000
vt 0.00000 1.00000
vt 0.00000 1.00000
vt 0.00000 1.00000
vt 0.00000 1.00000
vt 0.00000 1.00000
vt 0.00000 1.00000
vt 0.00000 1.00000
vt 0.00000 1.00000
vt 0.00000 1.00000
vt 0.00000 1.00000
vt 0.00000 1.00000
vt 0.00000 1.00000
vt 0.00000 1.00000
vt 0.00000 1.00000
vt 0.00000 1.00000
vt 0.00000 1.00000
vt 0.00000 1.00000
vt 0.00000 1.00000
vt 0.00000 1.00000
vt 0.00000 1.00000
vt 0.00000 1.00000
vt 0.00000 1.00000
vt 0.00000 1.00000
vt 0.00000 1.00000
vt 0.00000 1.00000
usemtl needles
f 109/109 110/110 111/111
f 112/112 113/113 114/114
f 115/115 116/116 117/117
f 118/118 119/119 120/120
f 121/121 122/122 123/123
f 124/124 125/125 126/126
f 127/127 128/128 129/129
f 130/130 131/131 132/132
f 133/133 134/134 135/135
f 136/136 137/137 138/138
f 139/139 140/140 141/141
f 142/142 143/143 144/144
f 145/145 146/146 147/147
f 148/148 149/149 150/150
f 151/151 152/152 153/153
f 154/154 155/155 156/156
f 157/157 158/158 159/159
f 160/160 161/161 162/162
f 163/163 164/164 165/165
f 166/166 167/167 168/168
f 169/169 170/170 171/171
f 172/172 173/173 174/174
f 175/175 176/176 177/177
f 178/178 179/179 180/180
f 181/181 182/182 183/183
f 184/184 185/185 186/186
f 187/187 188/188 189/189
f 190/190 191/191 192/192
f 193/193 194/194 195/195
f 196/196 197/197 198/198
f 199/199 200/200 201/201
f 202/202 203/203 204/204
f 205/205 206/206 207/207
f 208/208 209/209 210/210
f 211/211 212/212 213/213
f 214/214 215/215 216/216
f 217/217 218/218 219/219
f 220/220 221/221 222/222
f 223/223 224/224 225/225
f 226/226 227/227 228/228
f 229/229 230/230 231/231
f 232/232 233/233 234/234
f 235/235 236/236 237/237
f 238/238 239/239 240/240
f 241/241 242/242 243/243
f 244/244 245/245 246/246
f 247/247 248/248 249/249
f 250/250 251/251 252/252
f 253/253 254/254 255/255
f 256/256 257/257 258/258
f 259/259 260/260 261/261
f 262/262 263/263 264/264
f 265/265 266/266 267/267
f 268/268 269/269 270/270
f 271/271 272/272 273/273
f 274/274 275/275 276/276
f 277/277 278/278 279/279
f 280/280 281/281 282/282
f 283/283 284/284 285/285
f 286/286 287/287 288/288
f 289/289 290/290 291/291
f 292/292 293/293 294/294
f 295/295 296/296 297/297
f 298/298 299/299 300/300
f 301/301 302/302 303/303
f 304/304 305/305 306/306
f 307/307 308/308 309/309
f 310/310 311/311 312/312
f 313/313 314/314 315/315
f 316/316 317/317 318/318
f 319/319 320/320 321/321
f 322/322 323/323 324/324
f 325/325 326/326 327/327
f 328/328 329/329 330/330
f 331/331 332/332 333/333
f 334/334 335/335 336/336
f 337/337 338/338 339/339
f 340/340 341/341 342/342
f 343/343 344/344 345/345
f 346/346 347/347 348/348
f 349/349 350/350 351/351
f 352/352 353/353 354/354
f 355/355 356/356 357/357
f 358/358 359/359 360/360
f 361/361 362/362 363/363
f 364/364 365/365 366/366
f 367/367 368/368 369/369
f 370/370 371/371 372/372
f 373/373 374/374 375/375
f 376/376 377/377 378/378
f 379/379 380/380 381/381
f 382/382 383/383 384/384
f 385/385 386/386 387/387
f 388/388 389/389 390/390
f 391/391 392/392 393/393
f 394/394 395/395 396/396
f 397/397 398/398 399/399
f 400/400 401/401 402/402
f 403/403 404/404 405/405
f 406/406 407/407 408/408
f 409/409 410/410 411/411
f 412/412 413/413 414/414
f 415/415 416/416 417/417
f 418/418 419/419 420/420
f 421/421 422/422 423/423
f 424/424 425/425 426/426
f 427/427 428/428 429/429
f 430/430 431/431 432/432
f 433/433 434/434 435/435
f 436/436 437/437 438/438
f 439/439 440/440 441/441
f 442/442 443/443 444/444
f 445/445 446/446 447/447
f 448/448 449/449 450/450
f 451/451 452/452 453/453
f 454/454 455/455 456/456
f 457/457 458/458 459/459
f 460/460 461/461 462/462
f 463/463 464/464 465/465
f 466/466 467/467 468/468
f 469/469 470/470 471/471
f 472/472 473/473 474/474
f 475/475 476/476 477/477
f 478/478 479/479 480/480
f 481/481 482/482 483/483
f 484/484 485/485 486/486
f 487/487 488/488 489/489
f 490/490 491/491 492/492
f 493/493 494/494 495/495
f 496/496 497/497 498/498
f 499/499 500/500 501/501
f 502/502 503/503 504/504
f 505/505 506/506 507/507
f 508/508 509/509 510/510
f 511/511 512/512 513/513
f 514/514 515/515 516/516
f 517/517 518/518 519/519
f 520/520 521/521 522/522
f 523/523 524/524 525/525
f 526/526 527/527 528/528
f 529/529 530/530 531/531
f 532/532 533/533 534/534
f 535/535 536/536 537/537
f 538/538 539/539 540/540
f 541/541 542/542 543/543
f 544/544 545/545 546/546
f 547/547 548/548 549/549
f 550/550 551/551 552/552
f 553/553 554/554 555/555
f 556/556 557/557 558/558
f 559/559 560/560 561/561
f 562/562 563/563 564/564
f 565/565 566/566 567/567
f 568/568 569/569 570/570
f 571/571 572/572 573/573
f 574/574 575/575 576/576
f 577/577 578/578 579/579
f 580/580 581/581 582/582
f 583/583 584/584 585/585
f 586/586 587/587 588/588
f 589/589 590/590 591/591
f 592/592 593/593 594/594
