# Generated by TyraX. Do not edit - rebaked from the procedural graph of 'pines'.
# 12 instances of res/models/rock.obj
mtllib props.mtl
v 44.9690 24.5104 -57.9767
v 44.4316 24.7811 -57.6697
v 45.2496 24.8501 -58.4687
v 44.9690 24.5104 -57.9767
v 45.2496 24.8501 -58.4687
v 44.4316 24.7811 -57.6697
v 48.7424 16.1871 30.9561
v 49.5237 16.5493 31.0117
v 48.0822 16.6200 31.2534
v 48.7424 16.1871 30.9561
v 48.0822 16.6200 31.2534
v 49.5237 16.5493 31.0117
v -23.7713 22.4590 -27.8505
v -23.3491 22.6953 -27.7735
v -24.1736 22.6553 -27.6801
v -23.7713 22.4590 -27.8505
v -24.1736 22.6553 -27.6801
v -23.3491 22.6953 -27.7735
v -36.1568 19.3309 22.8329
v -36.9271 19.6564 22.9966
v -35.6479 19.7608 22.3327
v -36.1568 19.3309 22.8329
v -35.6479 19.7608 22.3327
v -36.9271 19.6564 22.9966
v 56.5898 21.5782 -26.4137
v 56.4808 22.0410 -25.5038
v 56.3240 22.0868 -27.2370
v 56.5898 21.5782 -26.4137
v 56.3240 22.0868 -27.2370
v 56.4808 22.0410 -25.5038
v -16.9082 24.9254 -68.9195
v -16.0429 25.3795 -69.4867
v -17.3415 25.5025 -68.0833
v -16.9082 24.9254 -68.9195
v -17.3415 25.5025 -68.0833
v -16.0429 25.3795 -69.4867
v 47.8803 14.9665 49.4515
v 47.5386 15.2161 49.8592
v 47.9742 15.2554 48.9638
v 47.8803 14.9665 49.4515
v 47.9742 15.2554 48.9638
v 47.5386 15.2161 49.8592
v -31.5692 20.9472 1.0117
v -31.3867 21.4059 0.1521
v -31.4268 21.4430 1.8322
v -31.5692 20.9472 1.0117
v -31.4268 21.4430 1.8322
v -31.3867 21.4059 0.1521
v -11.1375 22.4314 -28.6895
v -10.2265 23.0486 -27.9821
v -12.2701 23.0051 -28.8441
v -11.1375 22.4314 -28.6895
v -12.2701 23.0051 -28.8441
v -10.2265 23.0486 -27.9821
v 66.7637 23.1212 -42.4839
v 65.8658 23.5827 -42.9107
v 67.6950 23.6413 -42.5862
v 66.7637 23.1212 -42.4839
v 67.6950 23.6413 -42.5862
v 65.8658 23.5827 -42.9107
v -66.4060 25.2969 -55.3602
v -66.8166 25.5728 -55.8136
v -65.8715 25.6333 -55.1828
v -66.4060 25.2969 -55.3602
v -65.8715 25.6333 -55.1828
v -66.8166 25.5728 -55.8136
v 52.2432 24.6683 -70.3716
v 51.9978 25.0390 -71.1287
v 52.8171 25.0830 -69.8865
v 52.2432 24.6683 -70.3716
v 52.8171 25.0830 -69.8865
v 51.9978 25.0390 -71.1287
vt 0.00000 1.00000
vt 0.00000 1.00000
vt 0.00000 1.00000
vt 0.00000 1.00000
vt 0.00000 1.00000
vt 0.00000 1.00000
vt 0.00000 1.00000
vt 0.00000 1.00000
vt 0.00000 1.00000
vt 0.00000 1.00000
vt 0.00000 1.00000
vt 0.00000 1.00000
vt 0.00000 1.00000
vt 0.00000 1.00000
vt 0.00000 1.00000
vt 0.00000 1.00000
vt 0.00000 1.00000
vt 0.00000 1.00000
vt 0.00000 1.00000
vt 0.00000 1.00000
vt 0.00000 1.00000
vt 0.00000 1.00000
vt 0.00000 1.00000
vt 0.00000 1.00000
vt 0.00000 1.00000
vt 0.00000 1.00000
vt 0.00000 1.00000
vt 0.00000 1.00000
vt 0.00000 1.00000
vt 0.00000 1.00000
vt 0.00000 1.00000
vt 0.00000 1.00000
vt 0.00000 1.00000
vt 0.00000 1.00000
vt 0.00000 1.00000
vt 0.00000 1.00000
vt 0.00000 1.00000
vt 0.00000 1.00000
vt 0.00000 1.00000
vt 0.00000 1.00000
vt 0.00000 1.00000
vt 0.00000 1.00000
vt 0.00000 1.00000
vt 0.00000 1.00000
vt 0.00000 1.00000
vt 0.00000 1.00000
vt 0.00000 1.00000
vt 0.00000 1.00000
vt 0.00000 1.00000
vt 0.00000 1.00000
vt 0.00000 1.00000
vt 0.00000 1.00000
vt 0.00000 1.00000
vt 0.00000 1.00000
vt 0.00000 1.00000
vt 0.00000 1.00000
vt 0.00000 1.00000
vt 0.00000 1.00000
vt 0.00000 1.00000
vt 0.00000 1.00000
vt 0.00000 1.00000
vt 0.00000 1.00000
vt 0.00000 1.00000
vt 0.00000 1.00000
vt 0.00000 1.00000
vt 0.00000 1.00000
vt 0.00000 1.00000
vt 0.00000 1.00000
vt 0.00000 1.00000
vt 0.00000 1.00000
vt 0.00000 1.00000
vt 0.00000 1.00000
usemtl stone
f 1/1 2/2 3/3
f 4/4 5/5 6/6
f 7/7 8/8 9/9
f 10/10 11/11 12/12
f 13/13 14/14 15/15
f 16/16 17/17 18/18
f 19/19 20/20 21/21
f 22/22 23/23 24/24
f 25/25 26/26 27/27
f 28/28 29/29 30/30
f 31/31 32/32 33/33
f 34/34 35/35 36/36
f 37/37 38/38 39/39
f 40/40 41/41 42/42
f 43/43 44/44 45/45
f 46/46 47/47 48/48
f 49/49 50/50 51/51
f 52/52 53/53 54/54
f 55/55 56/56 57/57
f 58/58 59/59 60/60
f 61/61 62/62 63/63
f 64/64 65/65 66/66
f 67/67 68/68 69/69
f 70/70 71/71 72/72
