# Generated by TyraX. Do not edit - rebaked from the procedural graph of 'pines'.
# 25 instances of res/models/pine.obj
mtllib props.mtl
v -4.0585 24.5855 69.7030
v -3.9929 25.9083 69.7067
v -4.0551 25.9106 70.0003
v -4.0585 24.5855 69.7030
v -3.7618 25.8958 70.0627
v -3.9929 25.9083 69.7067
v -3.7618 25.8958 70.0627
v -4.0585 24.5855 69.7030
v -4.0551 25.9106 70.0003
v -3.9929 25.9083 69.7067
v -3.7618 25.8958 70.0627
v -4.0551 25.9106 70.0003
v 58.8992 20.4697 -4.7591
v 58.7356 22.3959 -4.6889
v 59.1635 22.4354 -4.7761
v 58.8992 20.4697 -4.7591
v 59.0751 22.4436 -5.2055
v 58.7356 22.3959 -4.6889
v 59.0751 22.4436 -5.2055
v 58.8992 20.4697 -4.7591
v 59.1635 22.4354 -4.7761
v 58.7356 22.3959 -4.6889
v 59.0751 22.4436 -5.2055
v 59.1635 22.4354 -4.7761
v 42.1802 19.4569 -14.7617
v 42.3721 21.7007 -14.6332
v 42.8560 21.6686 -14.7948
v 42.1802 19.4569 -14.7617
v 42.6971 21.7099 -15.2790
v 42.3721 21.7007 -14.6332
v 42.6971 21.7099 -15.2790
v 42.1802 19.4569 -14.7617
v 42.8560 21.6686 -14.7948
v 42.3721 21.7007 -14.6332
v 42.6971 21.7099 -15.2790
v 42.8560 21.6686 -14.7948
v 1.2187 21.5344 -0.4599
v 1.1727 24.2922 -0.2687
v 0.6994 24.2559 0.1404
v 1.2187 21.5344 -0.4599
v 1.1100 24.2300 0.6131
v 1.1727 24.2922 -0.2687
v 1.1100 24.2300 0.6131
v 1.2187 21.5344 -0.4599
v 0.6994 24.2559 0.1404
v 1.1727 24.2922 -0.2687
v 1.1100 24.2300 0.6131
v 0.6994 24.2559 0.1404
v -43.8941 25.4718 -52.3350
v -43.7230 27.5381 -52.3191
v -43.4790 27.5210 -52.7204
v -43.8941 25.4718 -52.3350
v -43.8788 27.5560 -52.9650
v -43.7230 27.5381 -52.3191
v -43.8788 27.5560 -52.9650
v -43.8941 25.4718 -52.3350
v -43.4790 27.5210 -52.7204
v -43.7230 27.5381 -52.3191
v -43.8788 27.5560 -52.9650
v -43.4790 27.5210 -52.7204
v 18.3864 20.3665 6.3166
v 18.5324 22.7135 6.1769
v 18.9365 22.7091 6.5258
v 18.3864 20.3665 6.3166
v 19.2839 22.6635 6.1230
v 18.5324 22.7135 6.1769
v 19.2839 22.6635 6.1230
v 18.3864 20.3665 6.3166
v 18.9365 22.7091 6.5258
v 18.5324 22.7135 6.1769
v 19.2839 22.6635 6.1230
v 18.9365 22.7091 6.5258
v 61.8421 22.1207 51.9461
v 61.8192 23.6607 51.7971
v 61.4859 23.6453 51.6890
v 61.8421 22.1207 51.9461
v 61.3768 23.6758 52.0210
v 61.8192 23.6607 51.7971
v 61.3768 23.6758 52.0210
v 61.8421 22.1207 51.9461
v 61.4859 23.6453 51.6890
v 61.8192 23.6607 51.7971
v 61.3768 23.6758 52.0210
v 61.4859 23.6453 51.6890
v 31.3956 19.6382 -32.0564
v 31.4727 21.9725 -31.8846
v 30.9894 22.0044 -32.1018
v 31.3956 19.6382 -32.0564
v 30.7706 21.9761 -31.6190
v 31.4727 21.9725 -31.8846
v 30.7706 21.9761 -31.6190
v 31.3956 19.6382 -32.0564
v 30.9894 22.0044 -32.1018
v 31.4727 21.9725 -31.8846
v 30.7706 21.9761 -31.6190
v 30.9894 22.0044 -32.1018
v -64.5015 27.6190 -72.5166
v -64.3821 29.1421 -72.4686
v -64.1337 29.1151 -72.2286
v -64.5015 27.6190 -72.5166
v -63.8937 29.1041 -72.4783
v -64.3821 29.1421 -72.4686
v -63.8937 29.1041 -72.4783
v -64.5015 27.6190 -72.5166
v -64.1337 29.1151 -72.2286
v -64.3821 29.1421 -72.4686
v -63.8937 29.1041 -72.4783
v -64.1337 29.1151 -72.2286
v -16.9164 22.8639 15.7792
v -16.8730 24.9642 15.7805
v -17.0210 24.9669 16.2331
v -16.9164 22.8639 15.7792
v -16.5685 24.9575 16.3810
v -16.8730 24.9642 15.7805
v -16.5685 24.9575 16.3810
v -16.9164 22.8639 15.7792
v -17.0210 24.9669 16.2331
v -16.8730 24.9642 15.7805
v -16.5685 24.9575 16.3810
v -17.0210 24.9669 16.2331
v 15.4551 19.8964 -41.5779
v 15.3188 22.3468 -41.5860
v 15.3642 22.3475 -42.1404
v 15.4551 19.8964 -41.5779
v 14.8106 22.3166 -42.1857
v 15.3188 22.3468 -41.5860
v 14.8106 22.3166 -42.1857
v 15.4551 19.8964 -41.5779
v 15.3642 22.3475 -42.1404
v 15.3188 22.3468 -41.5860
v 14.8106 22.3166 -42.1857
v 15.3642 22.3475 -42.1404
v 17.9105 21.1623 32.6953
v 17.8892 22.2638 32.6286
v 17.6811 22.2514 32.4903
v 17.9105 21.1623 32.6953
v 17.5424 22.2614 32.6983
v 17.8892 22.2638 32.6286
v 17.5424 22.2614 32.6983
v 17.9105 21.1623 32.6953
v 17.6811 22.2514 32.4903
v 17.8892 22.2638 32.6286
v 17.5424 22.2614 32.6983
v 17.6811 22.2514 32.4903
v 70.8258 20.3688 -10.5857
v 70.8566 22.8071 -10.6944
v 71.4080 22.7981 -10.7395
v 70.8258 20.3688 -10.5857
v 71.3625 22.7741 -11.2904
v 70.8566 22.8071 -10.6944
v 71.3625 22.7741 -11.2904
v 70.8258 20.3688 -10.5857
v 71.4080 22.7981 -10.7395
v 70.8566 22.8071 -10.6944
v 71.3625 22.7741 -11.2904
v 71.4080 22.7981 -10.7395
v 49.0313 21.2682 37.7247
v 48.7119 23.7039 37.7469
v 48.8304 23.7145 38.2908
v 49.0313 21.2682 37.7247
v 49.3696 23.7863 38.1720
v 48.7119 23.7039 37.7469
v 49.3696 23.7863 38.1720
v 49.0313 21.2682 37.7247
v 48.8304 23.7145 38.2908
v 48.7119 23.7039 37.7469
v 49.3696 23.7863 38.1720
v 48.8304 23.7145 38.2908
v -61.8578 22.1380 72.2790
v -61.9302 24.0654 72.3600
v -62.2531 24.0657 72.0647
v -61.8578 22.1380 72.2790
v -62.5480 24.0411 72.3871
v -61.9302 24.0654 72.3600
v -62.5480 24.0411 72.3871
v -61.8578 22.1380 72.2790
v -62.2531 24.0657 72.0647
v -61.9302 24.0654 72.3600
v -62.5480 24.0411 72.3871
v -62.2531 24.0657 72.0647
v -21.1979 22.6720 9.0654
v -21.2143 24.6143 9.0910
v -21.0800 24.6100 9.5103
v -21.1979 22.6720 9.0654
v -20.6607 24.6153 9.3760
v -21.2143 24.6143 9.0910
v -20.6607 24.6153 9.3760
v -21.1979 22.6720 9.0654
v -21.0800 24.6100 9.5103
v -21.2143 24.6143 9.0910
v -20.6607 24.6153 9.3760
v -21.0800 24.6100 9.5103
v 58.1607 20.1208 -19.4734
v 58.2567 21.8090 -19.3951
v 57.9420 21.8370 -19.6128
v 58.1607 20.1208 -19.4734
v 57.7236 21.8347 -19.2973
v 58.2567 21.8090 -19.3951
v 57.7236 21.8347 -19.2973
v 58.1607 20.1208 -19.4734
v 57.9420 21.8370 -19.6128
v 58.2567 21.8090 -19.3951
v 57.7236 21.8347 -19.2973
v 57.9420 21.8370 -19.6128
v -46.5555 25.3430 -33.4654
v -46.7565 27.5019 -33.4289
v -47.1516 27.4700 -33.7196
v -46.5555 25.3430 -33.4654
v -47.4405 27.4364 -33.3233
v -46.7565 27.5019 -33.4289
v -47.4405 27.4364 -33.3233
v -46.5555 25.3430 -33.4654
v -47.1516 27.4700 -33.7196
v -46.7565 27.5019 -33.4289
v -47.4405 27.4364 -33.3233
v -47.1516 27.4700 -33.7196
v 59.7047 22.7641 59.1324
v 59.7766 24.9318 59.0982
v 59.5291 24.9467 59.5228
v 59.7047 22.7641 59.1324
v 59.9537 24.9365 59.7705
v 59.7766 24.9318 59.0982
v 59.9537 24.9365 59.7705
v 59.7047 22.7641 59.1324
v 59.5291 24.9467 59.5228
v 59.7766 24.9318 59.0982
v 59.9537 24.9365 59.7705
v 59.5291 24.9467 59.5228
v 6.1330 20.3892 -13.3818
v 6.1255 21.9936 -13.4476
v 6.4798 21.9918 -13.5308
v 6.1330 20.3892 -13.3818
v 6.3966 21.9769 -13.8848
v 6.1255 21.9936 -13.4476
v 6.3966 21.9769 -13.8848
v 6.1330 20.3892 -13.3818
v 6.4798 21.9918 -13.5308
v 6.1255 21.9936 -13.4476
v 6.3966 21.9769 -13.8848
v 6.4798 21.9918 -13.5308
v -37.9901 23.6430 -7.4044
v -37.8683 25.0320 -7.4311
v -37.6466 25.0169 -7.2063
v -37.9901 23.6430 -7.4044
v -37.4230 24.9930 -7.4286
v -37.8683 25.0320 -7.4311
v -37.4230 24.9930 -7.4286
v -37.9901 23.6430 -7.4044
v -37.6466 25.0169 -7.2063
v -37.8683 25.0320 -7.4311
v -37.4230 24.9930 -7.4286
v -37.6466 25.0169 -7.2063
v 19.1405 24.4574 72.0339
v 19.1329 26.0048 72.0579
v 19.0563 26.0097 71.7156
v 19.1405 24.4574 72.0339
v 18.7140 26.0069 71.7922
v 19.1329 26.0048 72.0579
v 18.7140 26.0069 71.7922
v 19.1405 24.4574 72.0339
v 19.0563 26.0097 71.7156
v 19.1329 26.0048 72.0579
v 18.7140 26.0069 71.7922
v 19.0563 26.0097 71.7156
v 50.7891 21.6325 -71.4840
v 50.7268 23.8980 -71.2860
v 51.1929 23.9299 -71.5043
v 50.7891 21.6325 -71.4840
v 50.9727 23.9645 -71.9693
v 50.7268 23.8980 -71.2860
v 50.9727 23.9645 -71.9693
v 50.7891 21.6325 -71.4840
v 51.1929 23.9299 -71.5043
v 50.7268 23.8980 -71.2860
v 50.9727 23.9645 -71.9693
v 51.1929 23.9299 -71.5043
v 35.8531 19.2286 -12.5927
v 35.8153 21.0511 -12.5241
v 36.0362 21.0425 -12.1747
v 35.8531 19.2286 -12.5927
v 36.3856 21.0581 -12.3952
v 35.8153 21.0511 -12.5241
v 36.3856 21.0581 -12.3952
v 35.8531 19.2286 -12.5927
v 36.0362 21.0425 -12.1747
v 35.8153 21.0511 -12.5241
v 36.3856 21.0581 -12.3952
v 36.0362 21.0425 -12.1747
v -51.2447 24.1449 -1.6236
v -51.3762 25.2783 -1.6636
v -51.1792 25.2953 -1.8306
v -51.2447 24.1449 -1.6236
v -51.3444 25.2692 -2.0281
v -51.3762 25.2783 -1.6636
v -51.3444 25.2692 -2.0281
v -51.2447 24.1449 -1.6236
v -51.1792 25.2953 -1.8306
v -51.3762 25.2783 -1.6636
v -51.3444 25.2692 -2.0281
v -51.1792 25.2953 -1.8306
vt 0.00000 1.00000
vt 0.00000 1.00000
vt 0.00000 1.00000
vt 0.00000 1.00000
vt 0.00000 1.00000
vt 0.00000 1.00000
vt 0.00000 1.00000
vt 0.00000 1.00000
vt 0.00000 1.00000
vt 0.00000 1.00000
vt 0.00000 1.00000
vt 0.00000 1.00000
vt 0.00000 1.00000
vt 0.00000 1.00000
vt 0.00000 1.00000
vt 0.00000 1.00000
vt 0.00000 1.00000
vt 0.00000 1.00000
vt 0.00000 1.00000
vt 0.00000 1.00000
vt 0.00000 1.00000
vt 0.00000 1.00000
vt 0.00000 1.00000
vt 0.00000 1.00000
vt 0.00000 1.00000
vt 0.00000 1.00000
vt 0.00000 1.00000
vt 0.00000 1.00000
vt 0.00000 1.00000
vt 0.00000 1.00000
vt 0.00000 1.00000
vt 0.00000 1.00000
vt 0.00000 1.00000
vt 0.00000 1.00000
vt 0.00000 1.00000
vt 0.00000 1.00000
vt 0.00000 1.00000
vt 0.00000 1.00000
vt 0.00000 1.00000
vt 0.00000 1.00000
vt 0.00000 1.00000
vt 0.00000 1.00000
vt 0.00000 1.00000
vt 0.00000 1.00000
vt 0.00000 1.00000
vt 0.00000 1.00000
vt 0.00000 1.00000
vt 0.00000 1.00000
vt 0.00000 1.00000
vt 0.00000 1.00000
vt 0.00000 1.00000
vt 0.00000 1.00000
vt 0.00000 1.00000
vt 0.00000 1.00000
vt 0.00000 1.00000
vt 0.00000 1.00000
vt 0.00000 1.00000
vt 0.00000 1.00000
vt 0.00000 1.00000
vt 0.00000 1.00000
vt 0.00000 1.00000
vt 0.00000 1.00000
vt 0.00000 1.00000
vt 0.00000 1.00000
vt 0.00000 1.00000
vt 0.00000 1.00000
vt 0.00000 1.00000
vt 0.00000 1.00000
vt 0.00000 1.00000
vt 0.00000 1.00000
vt 0.00000 1.00000
vt 0.00000 1.00000
vt 0.00000 1.00000
vt 0.00000 1.00000
vt 0.00000 1.00000
vt 0.00000 1.00000
vt 0.00000 1.00000
vt 0.00000 1.00000
vt 0.00000 1.00000
vt 0.00000 1.00000
vt 0.00000 1.00000
vt 0.00000 1.00000
vt 0.00000 1.00000
vt 0.00000 1.00000
vt 0.00000 1.00000
vt 0.00000 1.00000
vt 0.00000 1.00000
vt 0.00000 1.00000
vt 0.00000 1.00000
vt 0.00000 1.00000
vt 0.00000 1.00000
vt 0.00000 1.00000
vt 0.00000 1.00000
vt 0.00000 1.00000
vt 0.00000 1.00000
vt 0.00000 1.00000
vt 0.00000 1.00000
vt 0.00000 1.00000
vt 0.00000 1.00000
vt 0.00000 1.00000
vt 0.00000 1.00000
vt 0.00000 1.00000
vt 0.00000 1.00000
vt 0.00000 1.00000
vt 0.00000 1.00000
vt 0.00000 1.00000
vt 0.00000 1.00000
vt 0.00000 1.00000
vt 0.00000 1.00000
vt 0.00000 1.00000
vt 0.00000 1.00000
vt 0.00000 1.00000
vt 0.00000 1.00000
vt 0.00000 1.00000
vt 0.00000 1.00000
vt 0.00000 1.00000
vt 0.00000 1.00000
vt 0.00000 1.00000
vt 0.00000 1.00000
vt 0.00000 1.00000
vt 0.00000 1.00000
vt 0.00000 1.00000
vt 0.00000 1.00000
vt 0.00000 1.00000
vt 0.00000 1.00000
vt 0.00000 1.00000
vt 0.00000 1.00000
vt 0.00000 1.00000
vt 0.00000 1.00000
vt 0.00000 1.00000
vt 0.00000 1.00000
vt 0.00000 1.00000
vt 0.00000 1.00000
vt 0.00000 1.00000
vt 0.00000 1.00000
vt 0.00000 1.00000
vt 0.00000 1.00000
vt 0.00000 1.00000
vt 0.00000 1.00000
vt 0.00000 1.00000
vt 0.00000 1.00000
vt 0.00000 1.00000
vt 0.00000 1.00000
vt 0.00000 1.00000
vt 0.00000 1.00000
vt 0.00000 1.00000
vt 0.00000 1.00000
vt 0.00000 1.00000
vt 0.00000 1.00000
vt 0.00000 1.00000
vt 0.00000 1.00000
vt 0.00000 1.00000
vt 0.00000 1.00000
vt 0.00000 1.00000
vt 0.00000 1.00000
vt 0.00000 1.00000
vt 0.00000 1.00000
vt 0.00000 1.00000
vt 0.00000 1.00000
vt 0.00000 1.00000
vt 0.00000 1.00000
vt 0.00000 1.00000
vt 0.00000 1.00000
vt 0.00000 1.00000
vt 0.00000 1.00000
vt 0.00000 1.00000
vt 0.00000 1.00000
vt 0.00000 1.00000
vt 0.00000 1.00000
vt 0.00000 1.00000
vt 0.00000 1.00000
vt 0.00000 1.00000
vt 0.00000 1.00000
vt 0.00000 1.00000
vt 0.00000 1.00000
vt 0.00000 1.00000
vt 0.00000 1.00000
vt 0.00000 1.00000
vt 0.00000 1.00000
vt 0.00000 1.00000
vt 0.00000 1.00000
vt 0.00000 1.00000
vt 0.00000 1.00000
vt 0.00000 1.00000
vt 0.00000 1.00000
vt 0.00000 1.00000
vt 0.00000 1.00000
vt 0.00000 1.00000
vt 0.00000 1.00000
vt 0.00000 1.00000
vt 0.00000 1.00000
vt 0.00000 1.00000
vt 0.00000 1.00000
vt 0.00000 1.00000
vt 0.00000 1.00000
vt 0.00000 1.00000
vt 0.00000 1.00000
vt 0.00000 1.00000
vt 0.00000 1.00000
vt 0.00000 1.00000
vt 0.00000 1.00000
vt 0.00000 1.00000
vt 0.00000 1.00000
vt 0.00000 1.00000
vt 0.00000 1.00000
vt 0.00000 1.00000
vt 0.00000 1.00000
vt 0.00000 1.00000
vt 0.00000 1.00000
vt 0.00000 1.00000
vt 0.00000 1.00000
vt 0.00000 1.00000
vt 0.00000 1.00000
vt 0.00000 1.00000
vt 0.00000 1.00000
vt 0.00000 1.00000
vt 0.00000 1.00000
vt 0.00000 1.00000
vt 0.00000 1.00000
vt 0.00000 1.00000
vt 0.00000 1.00000
vt 0.00000 1.00000
vt 0.00000 1.00000
vt 0.00000 1.00000
vt 0.00000 1.00000
vt 0.00000 1.00000
vt 0.00000 1.00000
vt 0.00000 1.00000
vt 0.00000 1.00000
vt 0.00000 1.00000
vt 0.00000 1.00000
vt 0.00000 1.00000
vt 0.00000 1.00000
vt 0.00000 1.00000
vt 0.00000 1.00000
vt 0.00000 1.00000
vt 0.00000 1.00000
vt 0.00000 1.00000
vt 0.00000 1.00000
vt 0.00000 1.00000
vt 0.00000 1.00000
vt 0.00000 1.00000
vt 0.00000 1.00000
vt 0.00000 1.00000
vt 0.00000 1.00000
vt 0.00000 1.00000
vt 0.00000 1.00000
vt 0.00000 1.00000
vt 0.00000 1.00000
vt 0.00000 1.00000
vt 0.00000 1.00000
vt 0.00000 1.00000
vt 0.00000 1.00000
vt 0.00000 1.00000
vt 0.00000 1.00000
vt 0.00000 1.00000
vt 0.00000 1.00000
vt 0.00000 1.00000
vt 0.00000 1.00000
vt 0.00000 1.00000
vt 0.00000 1.00000
vt 0.00000 1.00000
vt 0.00000 1.00000
vt 0.00000 1.00000
vt 0.00000 1.00000
vt 0.00000 1.00000
vt 0.00000 1.00000
vt 0.00000 1.00000
vt 0.00000 1.00000
vt 0.00000 1.00000
vt 0.00000 1.00000
vt 0.00000 1.00000
vt 0.00000 1.00000
vt 0.00000 1.00000
vt 0.00000 1.00000
vt 0.00000 1.00000
vt 0.00000 1.00000
vt 0.00000 1.00000
vt 0.00000 1.00000
vt 0.00000 1.00000
vt 0.00000 1.00000
vt 0.00000 1.00000
vt 0.00000 1.00000
vt 0.00000 1.00000
vt 0.00000 1.00000
vt 0.00000 1.00000
vt 0.00000 1.00000
vt 0.00000 1.00000
vt 0.00000 1.00000
vt 0.00000 1.00000
vt 0.00000 1.00000
vt 0.00000 1.00000
vt 0.00000 1.00000
vt 0.00000 1.00000
vt 0.00000 1.00000
vt 0.00000 1.00000
vt 0.00000 1.00000
vt 0.00000 1.00000
vt 0.00000 1.00000
vt 0.00000 1.00000
usemtl bark
f 1/1 2/2 3/3
f 4/4 5/5 6/6
f 7/7 8/8 9/9
f 10/10 11/11 12/12
f 13/13 14/14 15/15
f 16/16 17/17 18/18
f 19/19 20/20 21/21
f 22/22 23/23 24/24
f 25/25 26/26 27/27
f 28/28 29/29 30/30
f 31/31 32/32 33/33
f 34/34 35/35 36/36
f 37/37 38/38 39/39
f 40/40 41/41 42/42
f 43/43 44/44 45/45
f 46/46 47/47 48/48
f 49/49 50/50 51/51
f 52/52 53/53 54/54
f 55/55 56/56 57/57
f 58/58 59/59 60/60
f 61/61 62/62 63/63
f 64/64 65/65 66/66
f 67/67 68/68 69/69
f 70/70 71/71 72/72
f 73/73 74/74 75/75
f 76/76 77/77 78/78
f 79/79 80/80 81/81
f 82/82 83/83 84/84
f 85/85 86/86 87/87
f 88/88 89/89 90/90
f 91/91 92/92 93/93
f 94/94 95/95 96/96
f 97/97 98/98 99/99
f 100/100 101/101 102/102
f 103/103 104/104 105/105
f 106/106 107/107 108/108
f 109/109 110/110 111/111
f 112/112 113/113 114/114
f 115/115 116/116 117/117
f 118/118 119/119 120/120
f 121/121 122/122 123/123
f 124/124 125/125 126/126
f 127/127 128/128 129/129
f 130/130 131/131 132/132
f 133/133 134/134 135/135
f 136/136 137/137 138/138
f 139/139 140/140 141/141
f 142/142 143/143 144/144
f 145/145 146/146 147/147
f 148/148 149/149 150/150
f 151/151 152/152 153/153
f 154/154 155/155 156/156
f 157/157 158/158 159/159
f 160/160 161/161 162/162
f 163/163 164/164 165/165
f 166/166 167/167 168/168
f 169/169 170/170 171/171
f 172/172 173/173 174/174
f 175/175 176/176 177/177
f 178/178 179/179 180/180
f 181/181 182/182 183/183
f 184/184 185/185 186/186
f 187/187 188/188 189/189
f 190/190 191/191 192/192
f 193/193 194/194 195/195
f 196/196 197/197 198/198
f 199/199 200/200 201/201
f 202/202 203/203 204/204
f 205/205 206/206 207/207
f 208/208 209/209 210/210
f 211/211 212/212 213/213
f 214/214 215/215 216/216
f 217/217 218/218 219/219
f 220/220 221/221 222/222
f 223/223 224/224 225/225
f 226/226 227/227 228/228
f 229/229 230/230 231/231
f 232/232 233/233 234/234
f 235/235 236/236 237/237
f 238/238 239/239 240/240
f 241/241 242/242 243/243
f 244/244 245/245 246/246
f 247/247 248/248 249/249
f 250/250 251/251 252/252
f 253/253 254/254 255/255
f 256/256 257/257 258/258
f 259/259 260/260 261/261
f 262/262 263/263 264/264
f 265/265 266/266 267/267
f 268/268 269/269 270/270
f 271/271 272/272 273/273
f 274/274 275/275 276/276
f 277/277 278/278 279/279
f 280/280 281/281 282/282
f 283/283 284/284 285/285
f 286/286 287/287 288/288
f 289/289 290/290 291/291
f 292/292 293/293 294/294
f 295/295 296/296 297/297
f 298/298 299/299 300/300
v -3.8205 27.0485 69.8878
v -4.8932 25.5970 70.5332
v -4.5434 25.5842 68.8842
v -3.2462 25.5144 70.8832
v -4.5434 25.5842 68.8842
v -4.8932 25.5970 70.5332
v -3.8205 27.0485 69.8878
v -4.5434 25.5842 68.8842
v -2.8965 25.5016 69.2342
v -3.2462 25.5144 70.8832
v -2.8965 25.5016 69.2342
v -4.5434 25.5842 68.8842
v -3.8205 27.0485 69.8878
v -2.8965 25.5016 69.2342
v -3.2462 25.5144 70.8832
v -3.8205 27.0485 69.8878
v -3.2462 25.5144 70.8832
v -4.8932 25.5970 70.5332
v -3.7811 27.8422 69.8900
v -4.0299 26.5261 70.7501
v -4.7094 26.5627 69.7031
v -3.7811 27.8422 69.8900
v -4.7094 26.5627 69.7031
v -3.6635 26.5127 69.0226
v -3.7811 27.8422 69.8900
v -3.6635 26.5127 69.0226
v -2.9841 26.4761 70.0697
v -4.7094 26.5627 69.7031
v -2.9841 26.4761 70.0697
v -3.6635 26.5127 69.0226
v -3.7811 27.8422 69.8900
v -2.9841 26.4761 70.0697
v -4.0299 26.5261 70.7501
v -4.7094 26.5627 69.7031
v -4.0299 26.5261 70.7501
v -2.9841 26.4761 70.0697
v -3.7461 28.5477 69.8920
v -3.9166 27.4054 70.4243
v -4.3378 27.4281 69.7751
v -3.7461 28.5477 69.8920
v -4.3378 27.4281 69.7751
v -3.6894 27.3971 69.3533
v -3.7461 28.5477 69.8920
v -3.6894 27.3971 69.3533
v -3.2681 27.3744 70.0025
v -4.3378 27.4281 69.7751
v -3.2681 27.3744 70.0025
v -3.6894 27.3971 69.3533
v -3.7461 28.5477 69.8920
v -3.2681 27.3744 70.0025
v -3.9166 27.4054 70.4243
v -4.3378 27.4281 69.7751
v -3.9166 27.4054 70.4243
v -3.2681 27.3744 70.0025
v 58.7636 24.0891 -4.8864
v 60.3983 21.9942 -4.0054
v 57.9957 21.7723 -3.5153
v 59.9023 22.0399 -6.4165
v 57.9957 21.7723 -3.5153
v 60.3983 21.9942 -4.0054
v 58.7636 24.0891 -4.8864
v 57.9957 21.7723 -3.5153
v 57.4997 21.8180 -5.9265
v 59.9023 22.0399 -6.4165
v 57.4997 21.8180 -5.9265
v 57.9957 21.7723 -3.5153
v 58.7636 24.0891 -4.8864
v 57.4997 21.8180 -5.9265
v 59.9023 22.0399 -6.4165
v 58.7636 24.0891 -4.8864
v 59.9023 22.0399 -6.4165
v 60.3983 21.9942 -4.0054
v 58.6654 25.2448 -4.8442
v 60.0874 23.4349 -5.1711
v 59.0888 23.2947 -3.6515
v 58.6654 25.2448 -4.8442
v 59.0888 23.2947 -3.6515
v 57.5706 23.2024 -4.6577
v 58.6654 25.2448 -4.8442
v 57.5706 23.2024 -4.6577
v 58.5692 23.3426 -6.1774
v 59.0888 23.2947 -3.6515
v 58.5692 23.3426 -6.1774
v 57.5706 23.2024 -4.6577
v 58.6654 25.2448 -4.8442
v 58.5692 23.3426 -6.1774
v 60.0874 23.4349 -5.1711
v 59.0888 23.2947 -3.6515
v 60.0874 23.4349 -5.1711
v 58.5692 23.3426 -6.1774
v 58.5782 26.2721 -4.8068
v 59.5002 24.6748 -5.0268
v 58.8810 24.5879 -4.0846
v 58.5782 26.2721 -4.8068
v 58.8810 24.5879 -4.0846
v 57.9397 24.5307 -4.7085
v 58.5782 26.2721 -4.8068
v 57.9397 24.5307 -4.7085
v 58.5589 24.6176 -5.6506
v 58.8810 24.5879 -4.0846
v 58.5589 24.6176 -5.6506
v 57.9397 24.5307 -4.7085
v 58.5782 26.2721 -4.8068
v 58.5589 24.6176 -5.6506
v 59.5002 24.6748 -5.0268
v 58.8810 24.5879 -4.0846
v 59.5002 24.6748 -5.0268
v 58.5589 24.6176 -5.6506
v 42.7008 23.6499 -14.8447
v 44.2886 20.9007 -14.0847
v 41.5708 21.0811 -13.1771
v 43.3960 21.1328 -16.8036
v 41.5708 21.0811 -13.1771
v 44.2886 20.9007 -14.0847
v 42.7008 23.6499 -14.8447
v 41.5708 21.0811 -13.1771
v 40.6783 21.3132 -15.8959
v 43.3960 21.1328 -16.8036
v 40.6783 21.3132 -15.8959
v 41.5708 21.0811 -13.1771
v 42.7008 23.6499 -14.8447
v 40.6783 21.3132 -15.8959
v 43.3960 21.1328 -16.8036
v 42.7008 23.6499 -14.8447
v 43.3960 21.1328 -16.8036
v 44.2886 20.9007 -14.0847
v 42.8159 24.9962 -14.7676
v 44.0476 22.6579 -15.3715
v 43.0916 22.6309 -13.4720
v 42.8159 24.9962 -14.7676
v 43.0916 22.6309 -13.4720
v 41.2006 22.8469 -14.4207
v 42.8159 24.9962 -14.7676
v 41.2006 22.8469 -14.4207
v 42.1566 22.8739 -16.3202
v 43.0916 22.6309 -13.4720
v 42.1566 22.8739 -16.3202
v 41.2006 22.8469 -14.4207
v 42.8159 24.9962 -14.7676
v 42.1566 22.8739 -16.3202
v 44.0476 22.6579 -15.3715
v 43.0916 22.6309 -13.4720
v 44.0476 22.6579 -15.3715
v 42.1566 22.8739 -16.3202
v 42.9183 26.1929 -14.6990
v 43.6346 24.1897 -15.1052
v 43.0419 24.1729 -13.9275
v 42.9183 26.1929 -14.6990
v 43.0419 24.1729 -13.9275
v 41.8694 24.3068 -14.5157
v 42.9183 26.1929 -14.6990
v 41.8694 24.3068 -14.5157
v 42.4621 24.3236 -15.6933
v 43.0419 24.1729 -13.9275
v 42.4621 24.3236 -15.6933
v 41.8694 24.3068 -14.5157
v 42.9183 26.1929 -14.6990
v 42.4621 24.3236 -15.6933
v 43.6346 24.1897 -15.1052
v 43.0419 24.1729 -13.9275
v 43.6346 24.1897 -15.1052
v 42.4621 24.3236 -15.6933
v 1.1015 26.6511 0.3380
v -1.3280 23.4967 -0.0573
v 1.3297 23.7003 -2.3547
v 0.9776 23.3510 2.5971
v 1.3297 23.7003 -2.3547
v -1.3280 23.4967 -0.0573
v 1.1015 26.6511 0.3380
v 1.3297 23.7003 -2.3547
v 3.6353 23.5547 0.2997
v 0.9776 23.3510 2.5971
v 3.6353 23.5547 0.2997
v 1.3297 23.7003 -2.3547
v 1.1015 26.6511 0.3380
v 3.6353 23.5547 0.2997
v 0.9776 23.3510 2.5971
v 1.1015 26.6511 0.3380
v 0.9776 23.3510 2.5971
v -1.3280 23.4967 -0.0573
v 1.0740 28.3057 0.4527
v -0.2721 25.4413 1.4648
v -0.0877 25.6243 -1.1289
v 1.0740 28.3057 0.4527
v -0.0877 25.6243 -1.1289
v 2.5120 25.6546 -0.9418
v 1.0740 28.3057 0.4527
v 2.5120 25.6546 -0.9418
v 2.3276 25.4717 1.6518
v -0.0877 25.6243 -1.1289
v 2.3276 25.4717 1.6518
v 2.5120 25.6546 -0.9418
v 1.0740 28.3057 0.4527
v 2.3276 25.4717 1.6518
v -0.2721 25.4413 1.4648
v -0.0877 25.6243 -1.1289
v -0.2721 25.4413 1.4648
v 2.3276 25.4717 1.6518
v 1.0494 29.7765 0.5547
v 0.2262 27.3203 1.1350
v 0.3405 27.4338 -0.4730
v 1.0494 29.7765 0.5547
v 0.3405 27.4338 -0.4730
v 1.9524 27.4526 -0.3571
v 1.0494 29.7765 0.5547
v 1.9524 27.4526 -0.3571
v 1.8380 27.3392 1.2510
v 0.3405 27.4338 -0.4730
v 1.8380 27.3392 1.2510
v 1.9524 27.4526 -0.3571
v 1.0494 29.7765 0.5547
v 1.8380 27.3392 1.2510
v 0.2262 27.3203 1.1350
v 0.3405 27.4338 -0.4730
v 0.2262 27.3203 1.1350
v 1.8380 27.3392 1.2510
v -43.6527 29.3379 -52.6283
v -42.0390 26.8498 -53.0865
v -43.4090 26.9458 -50.8329
v -44.2841 27.0462 -54.4597
v -43.4090 26.9458 -50.8329
v -42.0390 26.8498 -53.0865
v -43.6527 29.3379 -52.6283
v -43.4090 26.9458 -50.8329
v -45.6541 27.1423 -52.2061
v -44.2841 27.0462 -54.4597
v -45.6541 27.1423 -52.2061
v -43.4090 26.9458 -50.8329
v -43.6527 29.3379 -52.6283
v -45.6541 27.1423 -52.2061
v -44.2841 27.0462 -54.4597
v -43.6527 29.3379 -52.6283
v -44.2841 27.0462 -54.4597
v -42.0390 26.8498 -53.0865
v -43.5500 30.5777 -52.6187
v -43.0035 28.4610 -53.8150
v -42.5452 28.4085 -51.9153
v -43.5500 30.5777 -52.6187
v -42.5452 28.4085 -51.9153
v -44.4387 28.5617 -51.4542
v -43.5500 30.5777 -52.6187
v -44.4387 28.5617 -51.4542
v -44.8971 28.6142 -53.3539
v -42.5452 28.4085 -51.9153
v -44.8971 28.6142 -53.3539
v -44.4387 28.5617 -51.4542
v -43.5500 30.5777 -52.6187
v -44.8971 28.6142 -53.3539
v -43.0035 28.4610 -53.8150
v -42.5452 28.4085 -51.9153
v -43.0035 28.4610 -53.8150
v -44.8971 28.6142 -53.3539
v -43.4588 31.6798 -52.6102
v -43.1622 29.8577 -53.3559
v -42.8780 29.8251 -52.1781
v -43.4588 31.6798 -52.6102
v -42.8780 29.8251 -52.1781
v -44.0520 29.9201 -51.8922
v -43.4588 31.6798 -52.6102
v -44.0520 29.9201 -51.8922
v -44.3362 29.9527 -53.0700
v -42.8780 29.8251 -52.1781
v -44.3362 29.9527 -53.0700
v -44.0520 29.9201 -51.8922
v -43.4588 31.6798 -52.6102
v -44.3362 29.9527 -53.0700
v -43.1622 29.8577 -53.3559
v -42.8780 29.8251 -52.1781
v -43.1622 29.8577 -53.3559
v -44.3362 29.9527 -53.0700
v 19.0347 24.7225 6.0289
v 19.0284 22.1783 8.2981
v 16.7592 22.2029 6.3386
v 20.9792 21.9223 6.0358
v 16.7592 22.2029 6.3386
v 19.0284 22.1783 8.2981
v 19.0347 24.7225 6.0289
v 16.7592 22.2029 6.3386
v 18.7101 21.9469 4.0763
v 20.9792 21.9223 6.0358
v 18.7101 21.9469 4.0763
v 16.7592 22.2029 6.3386
v 19.0347 24.7225 6.0289
v 18.7101 21.9469 4.0763
v 20.9792 21.9223 6.0358
v 19.0347 24.7225 6.0289
v 20.9792 21.9223 6.0358
v 19.0284 22.1783 8.2981
v 19.1223 26.1306 5.9451
v 20.1649 23.7708 7.1111
v 17.9545 23.9178 7.2697
v 19.1223 26.1306 5.9451
v 17.9545 23.9178 7.2697
v 17.7878 23.7966 5.0584
v 19.1223 26.1306 5.9451
v 17.7878 23.7966 5.0584
v 19.9981 23.6496 4.8998
v 17.9545 23.9178 7.2697
v 19.9981 23.6496 4.8998
v 17.7878 23.7966 5.0584
v 19.1223 26.1306 5.9451
v 19.9981 23.6496 4.8998
v 20.1649 23.7708 7.1111
v 17.9545 23.9178 7.2697
v 20.1649 23.7708 7.1111
v 19.9981 23.6496 4.8998
v 19.2002 27.3823 5.8706
v 19.8106 25.3404 6.6280
v 18.4402 25.4315 6.7263
v 19.2002 27.3823 5.8706
v 18.4402 25.4315 6.7263
v 18.3368 25.3563 5.3553
v 19.2002 27.3823 5.8706
v 18.3368 25.3563 5.3553
v 19.7072 25.2652 5.2570
v 18.4402 25.4315 6.7263
v 19.7072 25.2652 5.2570
v 18.3368 25.3563 5.3553
v 19.2002 27.3823 5.8706
v 19.7072 25.2652 5.2570
v 19.8106 25.3404 6.6280
v 18.4402 25.4315 6.7263
v 19.8106 25.3404 6.6280
v 19.7072 25.2652 5.2570
v 61.5782 25.0030 51.7799
v 60.9744 23.1287 50.7133
v 62.8462 23.2152 51.3202
v 60.3621 23.2999 52.5774
v 62.8462 23.2152 51.3202
v 60.9744 23.1287 50.7133
v 61.5782 25.0030 51.7799
v 62.8462 23.2152 51.3202
v 62.2339 23.3865 53.1843
v 60.3621 23.2999 52.5774
v 62.2339 23.3865 53.1843
v 62.8462 23.2152 51.3202
v 61.5782 25.0030 51.7799
v 62.2339 23.3865 53.1843
v 60.3621 23.2999 52.5774
v 61.5782 25.0030 51.7799
v 60.3621 23.2999 52.5774
v 60.9744 23.1287 50.7133
v 61.5645 25.9270 51.6906
v 60.6070 24.3417 51.5217
v 61.9081 24.2973 50.8632
v 61.5645 25.9270 51.6906
v 61.9081 24.2973 50.8632
v 62.5677 24.4323 52.1574
v 61.5645 25.9270 51.6906
v 62.5677 24.4323 52.1574
v 61.2666 24.4767 52.8159
v 61.9081 24.2973 50.8632
v 61.2666 24.4767 52.8159
v 62.5677 24.4323 52.1574
v 61.5645 25.9270 51.6906
v 61.2666 24.4767 52.8159
v 60.6070 24.3417 51.5217
v 61.9081 24.2973 50.8632
v 60.6070 24.3417 51.5217
v 61.2666 24.4767 52.8159
v 61.5522 26.7484 51.6111
v 60.9642 25.3856 51.5431
v 61.7709 25.3581 51.1348
v 61.5522 26.7484 51.6111
v 61.7709 25.3581 51.1348
v 62.1799 25.4418 51.9373
v 61.5522 26.7484 51.6111
v 62.1799 25.4418 51.9373
v 61.3732 25.4693 52.3456
v 61.7709 25.3581 51.1348
v 61.3732 25.4693 52.3456
v 62.1799 25.4418 51.9373
v 61.5522 26.7484 51.6111
v 61.3732 25.4693 52.3456
v 60.9642 25.3856 51.5431
v 61.7709 25.3581 51.1348
v 60.9642 25.3856 51.5431
v 61.3732 25.4693 52.3456
v 31.1885 23.9974 -31.6029
v 30.3586 21.5210 -33.7629
v 33.0724 21.3416 -32.5433
v 29.1297 21.3621 -31.0519
v 33.0724 21.3416 -32.5433
v 30.3586 21.5210 -33.7629
v 31.1885 23.9974 -31.6029
v 33.0724 21.3416 -32.5433
v 31.8437 21.1827 -29.8323
v 29.1297 21.3621 -31.0519
v 31.8437 21.1827 -29.8323
v 33.0724 21.3416 -32.5433
v 31.1885 23.9974 -31.6029
v 31.8437 21.1827 -29.8323
v 29.1297 21.3621 -31.0519
v 31.1885 23.9974 -31.6029
v 29.1297 21.3621 -31.0519
v 30.3586 21.5210 -33.7629
v 31.2348 25.3980 -31.4998
v 29.7362 23.1577 -32.3104
v 31.8013 23.1469 -33.0916
v 31.2348 25.3980 -31.4998
v 31.8013 23.1469 -33.0916
v 32.5792 22.9697 -31.0328
v 31.2348 25.3980 -31.4998
v 32.5792 22.9697 -31.0328
v 30.5140 22.9804 -30.2516
v 31.8013 23.1469 -33.0916
v 30.5140 22.9804 -30.2516
v 32.5792 22.9697 -31.0328
v 31.2348 25.3980 -31.4998
v 30.5140 22.9804 -30.2516
v 29.7362 23.1577 -32.3104
v 31.8013 23.1469 -33.0916
v 29.7362 23.1577 -32.3104
v 30.5140 22.9804 -30.2516
v 31.2759 26.6429 -31.4082
v 30.3278 24.6781 -31.9531
v 31.6081 24.6715 -32.4375
v 31.2759 26.6429 -31.4082
v 31.6081 24.6715 -32.4375
v 32.0904 24.5616 -31.1610
v 31.2759 26.6429 -31.4082
v 32.0904 24.5616 -31.1610
v 30.8100 24.5683 -30.6767
v 31.6081 24.6715 -32.4375
v 30.8100 24.5683 -30.6767
v 32.0904 24.5616 -31.1610
v 31.2759 26.6429 -31.4082
v 30.8100 24.5683 -30.6767
v 30.3278 24.6781 -31.9531
v 31.6081 24.6715 -32.4375
v 30.3278 24.6781 -31.9531
v 30.8100 24.5683 -30.6767
v -64.0344 30.4431 -72.4318
v -64.1460 28.6718 -71.1115
v -65.5410 28.8236 -72.4590
v -62.7985 28.6103 -72.5134
v -65.5410 28.8236 -72.4590
v -64.1460 28.6718 -71.1115
v -64.0344 30.4431 -72.4318
v -65.5410 28.8236 -72.4590
v -64.1935 28.7621 -73.8609
v -62.7985 28.6103 -72.5134
v -64.1935 28.7621 -73.8609
v -65.5410 28.8236 -72.4590
v -64.0344 30.4431 -72.4318
v -64.1935 28.7621 -73.8609
v -62.7985 28.6103 -72.5134
v -64.0344 30.4431 -72.4318
v -62.7985 28.6103 -72.5134
v -64.1460 28.6718 -71.1115
v -63.9628 31.3570 -72.4030
v -63.3515 29.7544 -71.7452
v -64.7880 29.8661 -71.7168
v -63.9628 31.3570 -72.4030
v -64.7880 29.8661 -71.7168
v -64.8129 29.9134 -73.1568
v -63.9628 31.3570 -72.4030
v -64.8129 29.9134 -73.1568
v -63.3764 29.8017 -73.1853
v -64.7880 29.8661 -71.7168
v -63.3764 29.8017 -73.1853
v -64.8129 29.9134 -73.1568
v -63.9628 31.3570 -72.4030
v -63.3764 29.8017 -73.1853
v -63.3515 29.7544 -71.7452
v -64.7880 29.8661 -71.7168
v -63.3515 29.7544 -71.7452
v -63.3764 29.8017 -73.1853
v -63.8991 32.1693 -72.3775
v -63.5496 30.8000 -71.9814
v -64.4402 30.8692 -71.9638
v -63.8991 32.1693 -72.3775
v -64.4402 30.8692 -71.9638
v -64.4556 30.8986 -72.8566
v -63.8991 32.1693 -72.3775
v -64.4556 30.8986 -72.8566
v -63.5650 30.8293 -72.8743
v -64.4402 30.8692 -71.9638
v -63.5650 30.8293 -72.8743
v -64.4556 30.8986 -72.8566
v -63.8991 32.1693 -72.3775
v -63.5650 30.8293 -72.8743
v -63.5496 30.8000 -71.9814
v -64.4402 30.8692 -71.9638
v -63.5496 30.8000 -71.9814
v -63.5650 30.8293 -72.8743
v -16.6832 26.7810 16.0819
v -18.4181 24.4350 16.9357
v -17.5874 24.4195 14.3943
v -15.8772 24.3820 17.7665
v -17.5874 24.4195 14.3943
v -18.4181 24.4350 16.9357
v -16.6832 26.7810 16.0819
v -17.5874 24.4195 14.3943
v -15.0466 24.3665 15.2251
v -15.8772 24.3820 17.7665
v -15.0466 24.3665 15.2251
v -17.5874 24.4195 14.3943
v -16.6832 26.7810 16.0819
v -15.0466 24.3665 15.2251
v -15.8772 24.3820 17.7665
v -16.6832 26.7810 16.0819
v -15.8772 24.3820 17.7665
v -18.4181 24.4350 16.9357
v -16.6572 28.0412 16.0827
v -17.1356 25.9491 17.4125
v -18.0314 25.9687 15.6462
v -16.6572 28.0412 16.0827
v -18.0314 25.9687 15.6462
v -16.2654 25.9328 14.7503
v -16.6572 28.0412 16.0827
v -16.2654 25.9328 14.7503
v -15.3697 25.9132 16.5165
v -18.0314 25.9687 15.6462
v -15.3697 25.9132 16.5165
v -16.2654 25.9328 14.7503
v -16.6572 28.0412 16.0827
v -15.3697 25.9132 16.5165
v -17.1356 25.9491 17.4125
v -18.0314 25.9687 15.6462
v -17.1356 25.9491 17.4125
v -15.3697 25.9132 16.5165
v -16.6341 29.1613 16.0835
v -16.9414 27.3461 16.9076
v -17.4968 27.3583 15.8125
v -16.6341 29.1613 16.0835
v -17.4968 27.3583 15.8125
v -16.4019 27.3360 15.2570
v -16.6341 29.1613 16.0835
v -16.4019 27.3360 15.2570
v -15.8465 27.3239 16.3521
v -17.4968 27.3583 15.8125
v -15.8465 27.3239 16.3521
v -16.4019 27.3360 15.2570
v -16.6341 29.1613 16.0835
v -15.8465 27.3239 16.3521
v -16.9414 27.3461 16.9076
v -17.4968 27.3583 15.8125
v -16.9414 27.3461 16.9076
v -15.8465 27.3239 16.3521
v 14.9466 24.4554 -41.8929
v 16.7827 21.7671 -43.3131
v 16.5280 21.7632 -40.1997
v 13.6741 21.5933 -43.5676
v 16.5280 21.7632 -40.1997
v 16.7827 21.7671 -43.3131
v 14.9466 24.4554 -41.8929
v 16.5280 21.7632 -40.1997
v 13.4194 21.5894 -40.4543
v 13.6741 21.5933 -43.5676
v 13.4194 21.5894 -40.4543
v 16.5280 21.7632 -40.1997
v 14.9466 24.4554 -41.8929
v 13.4194 21.5894 -40.4543
v 13.6741 21.5933 -43.5676
v 14.9466 24.4554 -41.8929
v 13.6741 21.5933 -43.5676
v 16.7827 21.7671 -43.3131
v 14.8648 25.9257 -41.8977
v 15.1345 23.4773 -43.5203
v 16.6293 23.5662 -41.7563
v 14.8648 25.9257 -41.8977
v 16.6293 23.5662 -41.7563
v 14.8677 23.4732 -40.2589
v 14.8648 25.9257 -41.8977
v 14.8677 23.4732 -40.2589
v 13.3729 23.3843 -42.0229
v 16.6293 23.5662 -41.7563
v 13.3729 23.3843 -42.0229
v 14.8677 23.4732 -40.2589
v 14.8648 25.9257 -41.8977
v 13.3729 23.3843 -42.0229
v 15.1345 23.4773 -43.5203
v 16.6293 23.5662 -41.7563
v 15.1345 23.4773 -43.5203
v 13.3729 23.3843 -42.0229
v 14.7921 27.2326 -41.9020
v 14.9930 25.1101 -42.9061
v 15.9197 25.1653 -41.8124
v 14.7921 27.2326 -41.9020
v 15.9197 25.1653 -41.8124
v 14.8275 25.1076 -40.8840
v 14.7921 27.2326 -41.9020
v 14.8275 25.1076 -40.8840
v 13.9008 25.0525 -41.9777
v 15.9197 25.1653 -41.8124
v 13.9008 25.0525 -41.9777
v 14.8275 25.1076 -40.8840
v 14.7921 27.2326 -41.9020
v 13.9008 25.0525 -41.9777
v 14.9930 25.1101 -42.9061
v 15.9197 25.1653 -41.8124
v 14.9930 25.1101 -42.9061
v 13.9008 25.0525 -41.9777
v 17.6974 23.2172 32.6056
v 17.5264 21.9062 31.7092
v 18.6953 21.9758 32.4854
v 16.7476 21.9619 32.8771
v 18.6953 21.9758 32.4854
v 17.5264 21.9062 31.7092
v 17.6974 23.2172 32.6056
v 18.6953 21.9758 32.4854
v 17.9165 22.0315 33.6532
v 16.7476 21.9619 32.8771
v 17.9165 22.0315 33.6532
v 18.6953 21.9758 32.4854
v 17.6974 23.2172 32.6056
v 17.9165 22.0315 33.6532
v 16.7476 21.9619 32.8771
v 17.6974 23.2172 32.6056
v 16.7476 21.9619 32.8771
v 17.5264 21.9062 31.7092
v 17.6846 23.8781 32.5656
v 17.0936 22.7402 32.2258
v 18.1138 22.7475 32.0206
v 17.6846 23.8781 32.5656
v 18.1138 22.7475 32.0206
v 18.3181 22.8131 33.0388
v 17.6846 23.8781 32.5656
v 18.3181 22.8131 33.0388
v 17.2979 22.8058 33.2440
v 18.1138 22.7475 32.0206
v 17.2979 22.8058 33.2440
v 18.3181 22.8131 33.0388
v 17.6846 23.8781 32.5656
v 17.2979 22.8058 33.2440
v 17.0936 22.7402 32.2258
v 18.1138 22.7475 32.0206
v 17.0936 22.7402 32.2258
v 17.2979 22.8058 33.2440
v 17.6732 24.4656 32.5300
v 17.3121 23.4884 32.3358
v 17.9446 23.4929 32.2086
v 17.6732 24.4656 32.5300
v 17.9446 23.4929 32.2086
v 18.0713 23.5336 32.8399
v 17.6732 24.4656 32.5300
v 18.0713 23.5336 32.8399
v 17.4388 23.5291 32.9671
v 17.9446 23.4929 32.2086
v 17.4388 23.5291 32.9671
v 18.0713 23.5336 32.8399
v 17.6732 24.4656 32.5300
v 17.4388 23.5291 32.9671
v 17.3121 23.4884 32.3358
v 17.9446 23.4929 32.2086
v 17.3121 23.4884 32.3358
v 17.4388 23.5291 32.9671
v 71.1363 24.9039 -11.0866
v 72.7771 22.1825 -9.5433
v 69.6809 22.2330 -9.2900
v 72.5218 22.0478 -12.6368
v 69.6809 22.2330 -9.2900
v 72.7771 22.1825 -9.5433
v 71.1363 24.9039 -11.0866
v 69.6809 22.2330 -9.2900
v 69.4257 22.0983 -12.3835
v 72.5218 22.0478 -12.6368
v 69.4257 22.0983 -12.3835
v 69.6809 22.2330 -9.2900
v 71.1363 24.9039 -11.0866
v 69.4257 22.0983 -12.3835
v 72.5218 22.0478 -12.6368
v 71.1363 24.9039 -11.0866
v 72.5218 22.0478 -12.6368
v 72.7771 22.1825 -9.5433
v 71.1548 26.3669 -11.1518
v 72.7457 23.9021 -11.1758
v 71.2577 23.9991 -9.4228
v 71.1548 26.3669 -11.1518
v 71.2577 23.9991 -9.4228
v 69.5023 23.9550 -10.9104
v 71.1548 26.3669 -11.1518
v 69.5023 23.9550 -10.9104
v 70.9903 23.8580 -12.6634
v 71.2577 23.9991 -9.4228
v 70.9903 23.8580 -12.6634
v 69.5023 23.9550 -10.9104
v 71.1548 26.3669 -11.1518
v 70.9903 23.8580 -12.6634
v 72.7457 23.9021 -11.1758
v 71.2577 23.9991 -9.4228
v 72.7457 23.9021 -11.1758
v 70.9903 23.8580 -12.6634
v 71.1713 27.6673 -11.2098
v 72.1500 25.5377 -11.1979
v 71.2274 25.5978 -10.1110
v 71.1713 27.6673 -11.2098
v 71.2274 25.5978 -10.1110
v 70.1391 25.5705 -11.0333
v 71.1713 27.6673 -11.2098
v 70.1391 25.5705 -11.0333
v 71.0616 25.5104 -12.1202
v 71.2274 25.5978 -10.1110
v 71.0616 25.5104 -12.1202
v 70.1391 25.5705 -11.0333
v 71.1713 27.6673 -11.2098
v 71.0616 25.5104 -12.1202
v 72.1500 25.5377 -11.1979
v 71.2274 25.5978 -10.1110
v 72.1500 25.5377 -11.1979
v 71.0616 25.5104 -12.1202
v 48.7639 25.8560 37.9787
v 47.9447 22.9236 39.8146
v 47.2792 22.8642 36.7600
v 50.9727 23.3269 39.1470
v 47.2792 22.8642 36.7600
v 47.9447 22.9236 39.8146
v 48.7639 25.8560 37.9787
v 47.2792 22.8642 36.7600
v 50.3072 23.2675 36.0924
v 50.9727 23.3269 39.1470
v 50.3072 23.2675 36.0924
v 47.2792 22.8642 36.7600
v 48.7639 25.8560 37.9787
v 50.3072 23.2675 36.0924
v 50.9727 23.3269 39.1470
v 48.7639 25.8560 37.9787
v 50.9727 23.3269 39.1470
v 47.9447 22.9236 39.8146
v 48.5722 27.3174 37.9920
v 49.2402 24.9128 39.5697
v 47.3057 24.6705 38.3194
v 48.5722 27.3174 37.9920
v 47.3057 24.6705 38.3194
v 48.5431 24.8506 36.3698
v 48.5722 27.3174 37.9920
v 48.5431 24.8506 36.3698
v 50.4777 25.0929 37.6201
v 47.3057 24.6705 38.3194
v 50.4777 25.0929 37.6201
v 48.5431 24.8506 36.3698
v 48.5722 27.3174 37.9920
v 50.4777 25.0929 37.6201
v 49.2402 24.9128 39.5697
v 47.3057 24.6705 38.3194
v 49.2402 24.9128 39.5697
v 50.4777 25.0929 37.6201
v 48.4018 28.6164 38.0038
v 48.8948 26.5248 38.9765
v 47.6953 26.3745 38.2014
v 48.4018 28.6164 38.0038
v 47.6953 26.3745 38.2014
v 48.4626 26.4862 36.9926
v 48.4018 28.6164 38.0038
v 48.4626 26.4862 36.9926
v 49.6620 26.6365 37.7678
v 47.6953 26.3745 38.2014
v 49.6620 26.6365 37.7678
v 48.4626 26.4862 36.9926
v 48.4018 28.6164 38.0038
v 49.6620 26.6365 37.7678
v 48.8948 26.5248 38.9765
v 47.6953 26.3745 38.2014
v 48.8948 26.5248 38.9765
v 49.6620 26.6365 37.7678
v -62.3018 25.7237 72.4437
v -62.2986 23.6091 70.6177
v -60.4854 23.6076 72.2759
v -63.9542 23.4709 72.4281
v -60.4854 23.6076 72.2759
v -62.2986 23.6091 70.6177
v -62.3018 25.7237 72.4437
v -60.4854 23.6076 72.2759
v -62.1410 23.4694 74.0862
v -63.9542 23.4709 72.4281
v -62.1410 23.4694 74.0862
v -60.4854 23.6076 72.2759
v -62.3018 25.7237 72.4437
v -62.1410 23.4694 74.0862
v -63.9542 23.4709 72.4281
v -62.3018 25.7237 72.4437
v -63.9542 23.4709 72.4281
v -62.2986 23.6091 70.6177
v -62.3452 26.8801 72.4923
v -63.2226 24.9535 71.5428
v -61.4057 25.0251 71.4631
v -62.3452 26.8801 72.4923
v -61.4057 25.0251 71.4631
v -61.3231 24.9519 73.2798
v -62.3452 26.8801 72.4923
v -61.3231 24.9519 73.2798
v -63.1400 24.8803 73.3596
v -61.4057 25.0251 71.4631
v -63.1400 24.8803 73.3596
v -61.3231 24.9519 73.2798
v -62.3452 26.8801 72.4923
v -63.1400 24.8803 73.3596
v -63.2226 24.9535 71.5428
v -61.4057 25.0251 71.4631
v -63.2226 24.9535 71.5428
v -63.1400 24.8803 73.3596
v -62.3838 27.9081 72.5355
v -62.9099 26.2382 71.9268
v -61.7834 26.2825 71.8774
v -62.3838 27.9081 72.5355
v -61.7834 26.2825 71.8774
v -61.7322 26.2371 73.0038
v -62.3838 27.9081 72.5355
v -61.7322 26.2371 73.0038
v -62.8587 26.1928 73.0532
v -61.7834 26.2825 71.8774
v -62.8587 26.1928 73.0532
v -61.7322 26.2371 73.0038
v -62.3838 27.9081 72.5355
v -62.8587 26.1928 73.0532
v -62.9099 26.2382 71.9268
v -61.7834 26.2825 71.8774
v -62.9099 26.2382 71.9268
v -62.8587 26.1928 73.0532
v -20.9517 26.2982 9.2556
v -21.7332 24.0696 10.7809
v -22.4876 24.0943 8.4264
v -19.3787 24.0994 10.0269
v -22.4876 24.0943 8.4264
v -21.7332 24.0696 10.7809
v -20.9517 26.2982 9.2556
v -22.4876 24.0943 8.4264
v -20.1330 24.1240 7.6724
v -19.3787 24.0994 10.0269
v -20.1330 24.1240 7.6724
v -22.4876 24.0943 8.4264
v -20.9517 26.2982 9.2556
v -20.1330 24.1240 7.6724
v -19.3787 24.0994 10.0269
v -20.9517 26.2982 9.2556
v -19.3787 24.0994 10.0269
v -21.7332 24.0696 10.7809
v -20.9615 27.4636 9.2710
v -20.5500 25.5083 10.4786
v -22.1784 25.5056 9.6404
v -20.9615 27.4636 9.2710
v -22.1784 25.5056 9.6404
v -21.3402 25.5341 8.0122
v -20.9615 27.4636 9.2710
v -21.3402 25.5341 8.0122
v -19.7119 25.5368 8.8504
v -22.1784 25.5056 9.6404
v -19.7119 25.5368 8.8504
v -21.3402 25.5341 8.0122
v -20.9615 27.4636 9.2710
v -19.7119 25.5368 8.8504
v -20.5500 25.5083 10.4786
v -22.1784 25.5056 9.6404
v -20.5500 25.5083 10.4786
v -19.7119 25.5368 8.8504
v -20.9702 28.4995 9.2846
v -20.7111 26.8081 10.0271
v -21.7207 26.8065 9.5073
v -20.9702 28.4995 9.2846
v -21.7207 26.8065 9.5073
v -21.2010 26.8241 8.4978
v -20.9702 28.4995 9.2846
v -21.2010 26.8241 8.4978
v -20.1914 26.8258 9.0176
v -21.7207 26.8065 9.5073
v -20.1914 26.8258 9.0176
v -21.2010 26.8241 8.4978
v -20.9702 28.4995 9.2846
v -20.1914 26.8258 9.0176
v -20.7111 26.8081 10.0271
v -21.7207 26.8065 9.5073
v -20.7111 26.8081 10.0271
v -20.1914 26.8258 9.0176
v 58.0733 23.2850 -19.2783
v 57.6941 21.4565 -20.8640
v 59.4613 21.2993 -19.6416
v 56.4677 21.4440 -19.0925
v 59.4613 21.2993 -19.6416
v 57.6941 21.4565 -20.8640
v 58.0733 23.2850 -19.2783
v 59.4613 21.2993 -19.6416
v 58.2350 21.2869 -17.8702
v 56.4677 21.4440 -19.0925
v 58.2350 21.2869 -17.8702
v 59.4613 21.2993 -19.6416
v 58.0733 23.2850 -19.2783
v 58.2350 21.2869 -17.8702
v 56.4677 21.4440 -19.0925
v 58.0733 23.2850 -19.2783
v 56.4677 21.4440 -19.0925
v 57.6941 21.4565 -20.8640
v 58.1309 24.2979 -19.2314
v 57.1093 22.6920 -19.9499
v 58.6773 22.6162 -20.2375
v 58.1309 24.2979 -19.2314
v 58.6773 22.6162 -20.2375
v 58.9606 22.5274 -18.6694
v 58.1309 24.2979 -19.2314
v 58.9606 22.5274 -18.6694
v 57.3926 22.6032 -18.3818
v 58.6773 22.6162 -20.2375
v 57.3926 22.6032 -18.3818
v 58.9606 22.5274 -18.6694
v 58.1309 24.2979 -19.2314
v 57.3926 22.6032 -18.3818
v 57.1093 22.6920 -19.9499
v 58.6773 22.6162 -20.2375
v 57.1093 22.6920 -19.9499
v 57.3926 22.6032 -18.3818
v 58.1821 25.1983 -19.1896
v 57.5250 23.7862 -19.6544
v 58.4972 23.7392 -19.8327
v 58.1821 25.1983 -19.1896
v 58.4972 23.7392 -19.8327
v 58.6728 23.6841 -18.8605
v 58.1821 25.1983 -19.1896
v 58.6728 23.6841 -18.8605
v 57.7007 23.7311 -18.6822
v 58.4972 23.7392 -19.8327
v 57.7007 23.7311 -18.6822
v 58.6728 23.6841 -18.8605
v 58.1821 25.1983 -19.1896
v 57.7007 23.7311 -18.6822
v 57.5250 23.7862 -19.6544
v 58.4972 23.7392 -19.8327
v 57.5250 23.7862 -19.6544
v 57.7007 23.7311 -18.6822
v -47.2728 29.3402 -33.3444
v -47.3430 26.8983 -35.3146
v -45.1246 27.0773 -33.6822
v -48.9651 26.7096 -33.0894
v -45.1246 27.0773 -33.6822
v -47.3430 26.8983 -35.3146
v -47.2728 29.3402 -33.3444
v -45.1246 27.0773 -33.6822
v -46.7467 26.8885 -31.4570
v -48.9651 26.7096 -33.0894
v -46.7467 26.8885 -31.4570
v -45.1246 27.0773 -33.6822
v -47.2728 29.3402 -33.3444
v -46.7467 26.8885 -31.4570
v -48.9651 26.7096 -33.0894
v -47.2728 29.3402 -33.3444
v -48.9651 26.7096 -33.0894
v -47.3430 26.8983 -35.3146
v -47.3934 30.6355 -33.3225
v -48.3543 28.3829 -34.2140
v -46.3427 28.5755 -34.5245
v -47.3934 30.6355 -33.3225
v -46.3427 28.5755 -34.5245
v -46.0303 28.5703 -32.5040
v -47.3934 30.6355 -33.3225
v -46.0303 28.5703 -32.5040
v -48.0420 28.3777 -32.1935
v -46.3427 28.5755 -34.5245
v -48.0420 28.3777 -32.1935
v -46.0303 28.5703 -32.5040
v -47.3934 30.6355 -33.3225
v -48.0420 28.3777 -32.1935
v -48.3543 28.3829 -34.2140
v -46.3427 28.5755 -34.5245
v -48.3543 28.3829 -34.2140
v -48.0420 28.3777 -32.1935
v -47.5006 31.7869 -33.3030
v -48.0468 29.8577 -33.8647
v -46.7996 29.9771 -34.0573
v -47.5006 31.7869 -33.3030
v -46.7996 29.9771 -34.0573
v -46.6060 29.9740 -32.8045
v -47.5006 31.7869 -33.3030
v -46.6060 29.9740 -32.8045
v -47.8531 29.8546 -32.6120
v -46.7996 29.9771 -34.0573
v -47.8531 29.8546 -32.6120
v -46.6060 29.9740 -32.8045
v -47.5006 31.7869 -33.3030
v -47.8531 29.8546 -32.6120
v -48.0468 29.8577 -33.8647
v -46.7996 29.9771 -34.0573
v -48.0468 29.8577 -33.8647
v -47.8531 29.8546 -32.6120
v 59.9274 26.8128 59.4047
v 57.9592 24.4265 59.9401
v 59.3486 24.3427 57.5557
v 60.3433 24.3695 61.3313
v 59.3486 24.3427 57.5557
v 57.9592 24.4265 59.9401
v 59.9274 26.8128 59.4047
v 59.3486 24.3427 57.5557
v 61.7327 24.2857 58.9469
v 60.3433 24.3695 61.3313
v 61.7327 24.2857 58.9469
v 59.3486 24.3427 57.5557
v 59.9274 26.8128 59.4047
v 61.7327 24.2857 58.9469
v 60.3433 24.3695 61.3313
v 59.9274 26.8128 59.4047
v 60.3433 24.3695 61.3313
v 57.9592 24.4265 59.9401
v 59.9705 28.1135 59.3841
v 59.1709 25.9896 60.6673
v 58.6499 25.9756 58.6897
v 59.9705 28.1135 59.3841
v 58.6499 25.9756 58.6897
v 60.6264 25.9019 58.1695
v 59.9705 28.1135 59.3841
v 60.6264 25.9019 58.1695
v 61.1474 25.9159 60.1471
v 58.6499 25.9756 58.6897
v 61.1474 25.9159 60.1471
v 60.6264 25.9019 58.1695
v 59.9705 28.1135 59.3841
v 61.1474 25.9159 60.1471
v 59.1709 25.9896 60.6673
v 58.6499 25.9756 58.6897
v 59.1709 25.9896 60.6673
v 61.1474 25.9159 60.1471
v 60.0088 29.2696 59.3658
v 59.4953 27.4181 60.1698
v 59.1723 27.4094 58.9437
v 60.0088 29.2696 59.3658
v 59.1723 27.4094 58.9437
v 60.3977 27.3637 58.6212
v 60.0088 29.2696 59.3658
v 60.3977 27.3637 58.6212
v 60.7208 27.3724 59.8473
v 59.1723 27.4094 58.9437
v 60.7208 27.3724 59.8473
v 60.3977 27.3637 58.6212
v 60.0088 29.2696 59.3658
v 60.7208 27.3724 59.8473
v 59.4953 27.4181 60.1698
v 59.1723 27.4094 58.9437
v 59.4953 27.4181 60.1698
v 60.7208 27.3724 59.8473
v 6.2545 23.3757 -13.7232
v 7.4914 21.5944 -12.8881
v 5.5016 21.6042 -12.4212
v 7.0245 21.5107 -14.8761
v 5.5016 21.6042 -12.4212
v 7.4914 21.5944 -12.8881
v 6.2545 23.3757 -13.7232
v 5.5016 21.6042 -12.4212
v 5.0348 21.5205 -14.4092
v 7.0245 21.5107 -14.8761
v 5.0348 21.5205 -14.4092
v 5.5016 21.6042 -12.4212
v 6.2545 23.3757 -13.7232
v 5.0348 21.5205 -14.4092
v 7.0245 21.5107 -14.8761
v 6.2545 23.3757 -13.7232
v 7.0245 21.5107 -14.8761
v 7.4914 21.5944 -12.8881
v 6.2500 24.3383 -13.7627
v 7.2997 22.7288 -13.9415
v 6.5021 22.7778 -12.6556
v 6.2500 24.3383 -13.7627
v 6.5021 22.7778 -12.6556
v 5.2154 22.7391 -13.4524
v 6.2500 24.3383 -13.7627
v 5.2154 22.7391 -13.4524
v 6.0130 22.6901 -14.7382
v 6.5021 22.7778 -12.6556
v 6.0130 22.6901 -14.7382
v 5.2154 22.7391 -13.4524
v 6.2500 24.3383 -13.7627
v 6.0130 22.6901 -14.7382
v 7.2997 22.7288 -13.9415
v 6.5021 22.7778 -12.6556
v 7.2997 22.7288 -13.9415
v 6.0130 22.6901 -14.7382
v 6.2460 25.1940 -13.7978
v 6.8987 23.8003 -13.8924
v 6.4041 23.8307 -13.0952
v 6.2460 25.1940 -13.7978
v 6.4041 23.8307 -13.0952
v 5.6064 23.8067 -13.5892
v 6.2460 25.1940 -13.7978
v 5.6064 23.8067 -13.5892
v 6.1009 23.7763 -14.3864
v 6.4041 23.8307 -13.0952
v 6.1009 23.7763 -14.3864
v 5.6064 23.8067 -13.5892
v 6.2460 25.1940 -13.7978
v 6.1009 23.7763 -14.3864
v 6.8987 23.8003 -13.8924
v 6.4041 23.8307 -13.0952
v 6.8987 23.8003 -13.8924
v 6.1009 23.7763 -14.3864
v -37.5402 26.2164 -7.4529
v -37.6831 24.6666 -6.1678
v -38.9285 24.7515 -7.4298
v -36.4278 24.5327 -7.4156
v -38.9285 24.7515 -7.4298
v -37.6831 24.6666 -6.1678
v -37.5402 26.2164 -7.4529
v -38.9285 24.7515 -7.4298
v -37.6732 24.6176 -8.6777
v -36.4278 24.5327 -7.4156
v -37.6732 24.6176 -8.6777
v -38.9285 24.7515 -7.4298
v -37.5402 26.2164 -7.4529
v -37.6732 24.6176 -8.6777
v -36.4278 24.5327 -7.4156
v -37.5402 26.2164 -7.4529
v -36.4278 24.5327 -7.4156
v -37.6831 24.6666 -6.1678
v -37.4672 27.0498 -7.4689
v -36.9366 25.6163 -6.7813
v -38.2464 25.7309 -6.7887
v -37.4672 27.0498 -7.4689
v -38.2464 25.7309 -6.7887
v -38.2412 25.7052 -8.1033
v -37.4672 27.0498 -7.4689
v -38.2412 25.7052 -8.1033
v -36.9314 25.5906 -8.0959
v -38.2464 25.7309 -6.7887
v -36.9314 25.5906 -8.0959
v -38.2412 25.7052 -8.1033
v -37.4672 27.0498 -7.4689
v -36.9314 25.5906 -8.0959
v -36.9366 25.6163 -6.7813
v -38.2464 25.7309 -6.7887
v -36.9366 25.6163 -6.7813
v -36.9314 25.5906 -8.0959
v -37.4023 27.7907 -7.4832
v -37.1033 26.5592 -7.0502
v -37.9154 26.6303 -7.0548
v -37.4023 27.7907 -7.4832
v -37.9154 26.6303 -7.0548
v -37.9122 26.6144 -7.8699
v -37.4023 27.7907 -7.4832
v -37.9122 26.6144 -7.8699
v -37.1001 26.5433 -7.8653
v -37.9154 26.6303 -7.0548
v -37.1001 26.5433 -7.8653
v -37.9122 26.6144 -7.8699
v -37.4023 27.7907 -7.4832
v -37.1001 26.5433 -7.8653
v -37.1033 26.5592 -7.0502
v -37.9154 26.6303 -7.0548
v -37.1033 26.5592 -7.0502
v -37.1001 26.5433 -7.8653
v 18.9169 27.3469 71.9459
v 19.6715 25.6151 70.7427
v 20.1017 25.5874 72.6647
v 17.7493 25.5990 71.1726
v 20.1017 25.5874 72.6647
v 19.6715 25.6151 70.7427
v 18.9169 27.3469 71.9459
v 20.1017 25.5874 72.6647
v 18.1794 25.5713 73.0947
v 17.7493 25.5990 71.1726
v 18.1794 25.5713 73.0947
v 20.1017 25.5874 72.6647
v 18.9169 27.3469 71.9459
v 18.1794 25.5713 73.0947
v 17.7493 25.5990 71.1726
v 18.9169 27.3469 71.9459
v 17.7493 25.5990 71.1726
v 19.6715 25.6151 70.7427
v 18.9124 28.2754 71.9603
v 18.6946 26.7425 70.9295
v 19.9268 26.7364 71.7111
v 18.9124 28.2754 71.9603
v 19.9268 26.7364 71.7111
v 19.1452 26.7135 72.9430
v 18.9124 28.2754 71.9603
v 19.1452 26.7135 72.9430
v 17.9131 26.7196 72.1615
v 19.9268 26.7364 71.7111
v 17.9131 26.7196 72.1615
v 19.1452 26.7135 72.9430
v 18.9124 28.2754 71.9603
v 17.9131 26.7196 72.1615
v 18.6946 26.7425 70.9295
v 19.9268 26.7364 71.7111
v 18.6946 26.7425 70.9295
v 17.9131 26.7196 72.1615
v 18.9084 29.1007 71.9731
v 18.7752 27.7686 71.3281
v 19.5391 27.7648 71.8126
v 18.9084 29.1007 71.9731
v 19.5391 27.7648 71.8126
v 19.0546 27.7506 72.5764
v 18.9084 29.1007 71.9731
v 19.0546 27.7506 72.5764
v 18.2906 27.7544 72.0919
v 19.5391 27.7648 71.8126
v 18.2906 27.7544 72.0919
v 19.0546 27.7506 72.5764
v 18.9084 29.1007 71.9731
v 18.2906 27.7544 72.0919
v 18.7752 27.7686 71.3281
v 19.5391 27.7648 71.8126
v 18.7752 27.7686 71.3281
v 18.2906 27.7544 72.0919
v 50.7957 25.8947 -71.4560
v 52.7932 23.3196 -70.9880
v 50.1761 23.1404 -69.7619
v 51.5566 23.5138 -73.5991
v 50.1761 23.1404 -69.7619
v 52.7932 23.3196 -70.9880
v 50.7957 25.8947 -71.4560
v 50.1761 23.1404 -69.7619
v 48.9395 23.3347 -72.3730
v 51.5566 23.5138 -73.5991
v 48.9395 23.3347 -72.3730
v 50.1761 23.1404 -69.7619
v 50.7957 25.8947 -71.4560
v 48.9395 23.3347 -72.3730
v 51.5566 23.5138 -73.5991
v 50.7957 25.8947 -71.4560
v 51.5566 23.5138 -73.5991
v 52.7932 23.3196 -70.9880
v 50.7584 27.2541 -71.3372
v 52.1915 25.0824 -72.1774
v 51.4684 24.8868 -70.1676
v 50.7584 27.2541 -71.3372
v 51.4684 24.8868 -70.1676
v 49.4499 24.8947 -70.8930
v 50.7584 27.2541 -71.3372
v 49.4499 24.8947 -70.8930
v 50.1730 25.0903 -72.9029
v 51.4684 24.8868 -70.1676
v 50.1730 25.0903 -72.9029
v 49.4499 24.8947 -70.8930
v 50.7584 27.2541 -71.3372
v 50.1730 25.0903 -72.9029
v 52.1915 25.0824 -72.1774
v 51.4684 24.8868 -70.1676
v 52.1915 25.0824 -72.1774
v 50.1730 25.0903 -72.9029
v 50.7252 28.4623 -71.2316
v 51.6290 26.5571 -71.8014
v 51.1807 26.4358 -70.5553
v 50.7252 28.4623 -71.2316
v 51.1807 26.4358 -70.5553
v 49.9293 26.4407 -71.0050
v 50.7252 28.4623 -71.2316
v 49.9293 26.4407 -71.0050
v 50.3776 26.5620 -72.2511
v 51.1807 26.4358 -70.5553
v 50.3776 26.5620 -72.2511
v 49.9293 26.4407 -71.0050
v 50.7252 28.4623 -71.2316
v 50.3776 26.5620 -72.2511
v 51.6290 26.5571 -71.8014
v 51.1807 26.4358 -70.5553
v 51.6290 26.5571 -71.8014
v 50.3776 26.5620 -72.2511
v 36.0677 22.6340 -12.4002
v 35.7498 20.5008 -10.8778
v 34.5093 20.5490 -12.8397
v 37.7118 20.5882 -12.1162
v 34.5093 20.5490 -12.8397
v 35.7498 20.5008 -10.8778
v 36.0677 22.6340 -12.4002
v 34.5093 20.5490 -12.8397
v 36.4713 20.6363 -14.0781
v 37.7118 20.5882 -12.1162
v 36.4713 20.6363 -14.0781
v 34.5093 20.5490 -12.8397
v 36.0677 22.6340 -12.4002
v 36.4713 20.6363 -14.0781
v 37.7118 20.5882 -12.1162
v 36.0677 22.6340 -12.4002
v 37.7118 20.5882 -12.1162
v 35.7498 20.5008 -10.8778
v 36.0450 23.7275 -12.3590
v 36.7326 21.8798 -11.4000
v 35.0552 21.8593 -11.7790
v 36.0450 23.7275 -12.3590
v 35.0552 21.8593 -11.7790
v 35.4330 21.9303 -13.4553
v 36.0450 23.7275 -12.3590
v 35.4330 21.9303 -13.4553
v 37.1105 21.9508 -13.0763
v 35.0552 21.8593 -11.7790
v 37.1105 21.9508 -13.0763
v 35.4330 21.9303 -13.4553
v 36.0450 23.7275 -12.3590
v 37.1105 21.9508 -13.0763
v 36.7326 21.8798 -11.4000
v 35.0552 21.8593 -11.7790
v 36.7326 21.8798 -11.4000
v 37.1105 21.9508 -13.0763
v 36.0248 24.6995 -12.3224
v 36.4605 23.1044 -11.7447
v 35.4205 23.0917 -11.9797
v 36.0248 24.6995 -12.3224
v 35.4205 23.0917 -11.9797
v 35.6548 23.1357 -13.0190
v 36.0248 24.6995 -12.3224
v 35.6548 23.1357 -13.0190
v 36.6948 23.1484 -12.7840
v 35.4205 23.0917 -11.9797
v 36.6948 23.1484 -12.7840
v 35.6548 23.1357 -13.0190
v 36.0248 24.6995 -12.3224
v 36.6948 23.1484 -12.7840
v 36.4605 23.1044 -11.7447
v 35.4205 23.0917 -11.9797
v 36.4605 23.1044 -11.7447
v 36.6948 23.1484 -12.7840
v -51.4742 26.2561 -1.8804
v -50.3084 25.0925 -1.7495
v -51.4145 24.9972 -0.8118
v -51.2359 24.9458 -2.8585
v -51.4145 24.9972 -0.8118
v -50.3084 25.0925 -1.7495
v -51.4742 26.2561 -1.8804
v -51.4145 24.9972 -0.8118
v -52.3420 24.8505 -1.9209
v -51.2359 24.9458 -2.8585
v -52.3420 24.8505 -1.9209
v -51.4145 24.9972 -0.8118
v -51.4742 26.2561 -1.8804
v -52.3420 24.8505 -1.9209
v -51.2359 24.9458 -2.8585
v -51.4742 26.2561 -1.8804
v -51.2359 24.9458 -2.8585
v -50.3084 25.0925 -1.7495
v -51.5531 26.9362 -1.9044
v -50.8423 25.8526 -2.3556
v -50.9358 25.8795 -1.2835
v -51.5531 26.9362 -1.9044
v -50.9358 25.8795 -1.2835
v -52.0010 25.7528 -1.3733
v -51.5531 26.9362 -1.9044
v -52.0010 25.7528 -1.3733
v -51.9074 25.7259 -2.4454
v -50.9358 25.8795 -1.2835
v -51.9074 25.7259 -2.4454
v -52.0010 25.7528 -1.3733
v -51.5531 26.9362 -1.9044
v -51.9074 25.7259 -2.4454
v -50.8423 25.8526 -2.3556
v -50.9358 25.8795 -1.2835
v -50.8423 25.8526 -2.3556
v -51.9074 25.7259 -2.4454
v -51.6232 27.5407 -1.9257
v -51.1501 26.5893 -2.1956
v -51.2081 26.6060 -1.5309
v -51.6232 27.5407 -1.9257
v -51.2081 26.6060 -1.5309
v -51.8685 26.5274 -1.5866
v -51.6232 27.5407 -1.9257
v -51.8685 26.5274 -1.5866
v -51.8105 26.5107 -2.2512
v -51.2081 26.6060 -1.5309
v -51.8105 26.5107 -2.2512
v -51.8685 26.5274 -1.5866
v -51.6232 27.5407 -1.9257
v -51.8105 26.5107 -2.2512
v -51.1501 26.5893 -2.1956
v -51.2081 26.6060 -1.5309
v -51.1501 26.5893 -2.1956
v -51.8105 26.5107 -2.2512
vt 0.00000 1.00000
vt 0.00000 1.00000
vt 0.00000 1.00000
vt 0.00000 1.00000
vt 0.00000 1.00000
vt 0.00000 1.00000
vt 0.00000 1.00000
vt 0.00000 1.00000
vt 0.00000 1.00000
vt 0.00000 1.00000
vt 0.00000 1.00000
vt 0.00000 1.00000
vt 0.00000 1.00000
vt 0.00000 1.00000
vt 0.00000 1.00000
vt 0.00000 1.00000
vt 0.00000 1.00000
vt 0.00000 1.00000
vt 0.00000 1.00000
vt 0.00000 1.00000
vt 0.00000 1.00000
vt 0.00000 1.00000
vt 0.00000 1.00000
vt 0.00000 1.00000
vt 0.00000 1.00000
vt 0.00000 1.00000
vt 0.00000 1.00000
vt 0.00000 1.00000
vt 0.00000 1.00000
vt 0.00000 1.00000
vt 0.00000 1.00000
vt 0.00000 1.00000
vt 0.00000 1.00000
vt 0.00000 1.00000
vt 0.00000 1.00000
vt 0.00000 1.00000
vt 0.00000 1.00000
vt 0.00000 1.00000
vt 0.00000 1.00000
vt 0.00000 1.00000
vt 0.00000 1.00000
vt 0.00000 1.00000
vt 0.00000 1.00000
vt 0.00000 1.00000
vt 0.00000 1.00000
vt 0.00000 1.00000
vt 0.00000 1.00000
vt 0.00000 1.00000
vt 0.00000 1.00000
vt 0.00000 1.00000
vt 0.00000 1.00000
vt 0.00000 1.00000
vt 0.00000 1.00000
vt 0.00000 1.00000
vt 0.00000 1.00000
vt 0.00000 1.00000
vt 0.00000 1.00000
vt 0.00000 1.00000
vt 0.00000 1.00000
vt 0.00000 1.00000
vt 0.00000 1.00000
vt 0.00000 1.00000
vt 0.00000 1.00000
vt 0.00000 1.00000
vt 0.00000 1.00000
vt 0.00000 1.00000
vt 0.00000 1.00000
vt 0.00000 1.00000
vt 0.00000 1.00000
vt 0.00000 1.00000
vt 0.00000 1.00000
vt 0.00000 1.00000
vt 0.00000 1.00000
vt 0.00000 1.00000
vt 0.00000 1.00000
vt 0.00000 1.00000
vt 0.00000 1.00000
vt 0.00000 1.00000
vt 0.00000 1.00000
vt 0.00000 1.00000
vt 0.00000 1.00000
vt 0.00000 1.00000
vt 0.00000 1.00000
vt 0.00000 1.00000
vt 0.00000 1.00000
vt 0.00000 1.00000
vt 0.00000 1.00000
vt 0.00000 1.00000
vt 0.00000 1.00000
vt 0.00000 1.00000
vt 0.00000 1.00000
vt 0.00000 1.00000
vt 0.00000 1.00000
vt 0.00000 1.00000
vt 0.00000 1.00000
vt 0.00000 1.00000
vt 0.00000 1.00000
vt 0.00000 1.00000
vt 0.00000 1.00000
vt 0.00000 1.00000
vt 0.00000 1.00000
vt 0.00000 1.00000
vt 0.00000 1.00000
vt 0.00000 1.00000
vt 0.00000 1.00000
vt 0.00000 1.00000
vt 0.00000 1.00000
vt 0.00000 1.00000
vt 0.00000 1.00000
vt 0.00000 1.00000
vt 0.00000 1.00000
vt 0.00000 1.00000
vt 0.00000 1.00000
vt 0.00000 1.00000
vt 0.00000 1.00000
vt 0.00000 1.00000
vt 0.00000 1.00000
vt 0.00000 1.00000
vt 0.00000 1.00000
vt 0.00000 1.00000
vt 0.00000 1.00000
vt 0.00000 1.00000
vt 0.00000 1.00000
vt 0.00000 1.00000
vt 0.00000 1.00000
vt 0.00000 1.00000
vt 0.00000 1.00000
vt 0.00000 1.00000
vt 0.00000 1.00000
vt 0.00000 1.00000
vt 0.00000 1.00000
vt 0.00000 1.00000
vt 0.00000 1.00000
vt 0.00000 1.00000
vt 0.00000 1.00000
vt 0.00000 1.00000
vt 0.00000 1.00000
vt 0.00000 1.00000
vt 0.00000 1.00000
vt 0.00000 1.00000
vt 0.00000 1.00000
vt 0.00000 1.00000
vt 0.00000 1.00000
vt 0.00000 1.00000
vt 0.00000 1.00000
vt 0.00000 1.00000
vt 0.00000 1.00000
vt 0.00000 1.00000
vt 0.00000 1.00000
vt 0.00000 1.00000
vt 0.00000 1.00000
vt 0.00000 1.00000
vt 0.00000 1.00000
vt 0.00000 1.00000
vt 0.00000 1.00000
vt 0.00000 1.00000
vt 0.00000 1.00000
vt 0.00000 1.00000
vt 0.00000 1.00000
vt 0.00000 1.00000
vt 0.00000 1.00000
vt 0.00000 1.00000
vt 0.00000 1.00000
vt 0.00000 1.00000
vt 0.00000 1.00000
vt 0.00000 1.00000
vt 0.00000 1.00000
vt 0.00000 1.00000
vt 0.00000 1.00000
vt 0.00000 1.00000
vt 0.00000 1.00000
vt 0.00000 1.00000
vt 0.00000 1.00000
vt 0.00000 1.00000
vt 0.00000 1.00000
vt 0.00000 1.00000
vt 0.00000 1.00000
vt 0.00000 1.00000
vt 0.00000 1.00000
vt 0.00000 1.00000
vt 0.00000 1.00000
vt 0.00000 1.00000
vt 0.00000 1.00000
vt 0.00000 1.00000
vt 0.00000 1.00000
vt 0.00000 1.00000
vt 0.00000 1.00000
vt 0.00000 1.00000
vt 0.00000 1.00000
vt 0.00000 1.00000
vt 0.00000 1.00000
vt 0.00000 1.00000
vt 0.00000 1.00000
vt 0.00000 1.00000
vt 0.00000 1.00000
vt 0.00000 1.00000
vt 0.00000 1.00000
vt 0.00000 1.00000
vt 0.00000 1.00000
vt 0.00000 1.00000
vt 0.00000 1.00000
vt 0.00000 1.00000
vt 0.00000 1.00000
vt 0.00000 1.00000
vt 0.00000 1.00000
vt 0.00000 1.00000
vt 0.00000 1.00000
vt 0.00000 1.00000
vt 0.00000 1.00000
vt 0.00000 1.00000
vt 0.00000 1.00000
vt 0.00000 1.00000
vt 0.00000 1.00000
vt 0.00000 1.00000
vt 0.00000 1.00000
vt 0.00000 1.00000
vt 0.00000 1.00000
vt 0.00000 1.00000
vt 0.00000 1.00000
vt 0.00000 1.00000
vt 0.00000 1.00000
vt 0.00000 1.00000
vt 0.00000 1.00000
vt 0.00000 1.00000
vt 0.00000 1.00000
vt 0.00000 1.00000
vt 0.00000 1.00000
vt 0.00000 1.00000
vt 0.00000 1.00000
vt 0.00000 1.00000
vt 0.00000 1.00000
vt 0.00000 1.00000
vt 0.00000 1.00000
vt 0.00000 1.00000
vt 0.00000 1.00000
vt 0.00000 1.00000
vt 0.00000 1.00000
vt 0.00000 1.00000
vt 0.00000 1.00000
vt 0.00000 1.00000
vt 0.00000 1.00000
vt 0.00000 1.00000
vt 0.00000 1.00000
vt 0.00000 1.00000
vt 0.00000 1.00000
vt 0.00000 1.00000
vt 0.00000 1.00000
vt 0.00000 1.00000
vt 0.00000 1.00000
vt 0.00000 1.00000
vt 0.00000 1.00000
vt 0.00000 1.00000
vt 0.00000 1.00000
vt 0.00000 1.00000
vt 0.00000 1.00000
vt 0.00000 1.00000
vt 0.00000 1.00000
vt 0.00000 1.00000
vt 0.00000 1.00000
vt 0.00000 1.00000
vt 0.00000 1.00000
vt 0.00000 1.00000
vt 0.00000 1.00000
vt 0.00000 1.00000
vt 0.00000 1.00000
vt 0.00000 1.00000
vt 0.00000 1.00000
vt 0.00000 1.00000
vt 0.00000 1.00000
vt 0.00000 1.00000
vt 0.00000 1.00000
vt 0.00000 1.00000
vt 0.00000 1.00000
vt 0.00000 1.00000
vt 0.00000 1.00000
vt 0.00000 1.00000
vt 0.00000 1.00000
vt 0.00000 1.00000
vt 0.00000 1.00000
vt 0.00000 1.00000
vt 0.00000 1.00000
vt 0.00000 1.00000
vt 0.00000 1.00000
vt 0.00000 1.00000
vt 0.00000 1.00000
vt 0.00000 1.00000
vt 0.00000 1.00000
vt 0.00000 1.00000
vt 0.00000 1.00000
vt 0.00000 1.00000
vt 0.00000 1.00000
vt 0.00000 1.00000
vt 0.00000 1.00000
vt 0.00000 1.00000
vt 0.00000 1.00000
vt 0.00000 1.00000
vt 0.00000 1.00000
vt 0.00000 1.00000
vt 0.00000 1.00000
vt 0.00000 1.00000
vt 0.00000 1.00000
vt 0.00000 1.00000
vt 0.00000 1.00000
vt 0.00000 1.00000
vt 0.00000 1.00000
vt 0.00000 1.00000
vt 0.00000 1.00000
vt 0.00000 1.00000
vt 0.00000 1.00000
vt 0.00000 1.00000
vt 0.00000 1.00000
vt 0.00000 1.00000
vt 0.00000 1.00000
vt 0.00000 1.00000
vt 0.00000 1.00000
vt 0.00000 1.00000
vt 0.00000 1.00000
vt 0.00000 1.00000
vt 0.00000 1.00000
vt 0.00000 1.00000
vt 0.00000 1.00000
vt 0.00000 1.00000
vt 0.00000 1.00000
vt 0.00000 1.00000
vt 0.00000 1.00000
vt 0.00000 1.00000
vt 0.00000 1.00000
vt 0.00000 1.00000
vt 0.00000 1.00000
vt 0.00000 1.00000
vt 0.00000 1.00000
vt 0.00000 1.00000
vt 0.00000 1.00000
vt 0.00000 1.00000
vt 0.00000 1.00000
vt 0.00000 1.00000
vt 0.00000 1.00000
vt 0.00000 1.00000
vt 0.00000 1.00000
vt 0.00000 1.00000
vt 0.00000 1.00000
vt 0.00000 1.00000
vt 0.00000 1.00000
vt 0.00000 1.00000
vt 0.00000 1.00000
vt 0.00000 1.00000
vt 0.00000 1.00000
vt 0.00000 1.00000
vt 0.00000 1.00000
vt 0.00000 1.00000
vt 0.00000 1.00000
vt 0.00000 1.00000
vt 0.00000 1.00000
vt 0.00000 1.00000
vt 0.00000 1.00000
vt 0.00000 1.00000
vt 0.00000 1.00000
vt 0.00000 1.00000
vt 0.00000 1.00000
vt 0.00000 1.00000
vt 0.00000 1.00000
vt 0.00000 1.00000
vt 0.00000 1.00000
vt 0.00000 1.00000
vt 0.00000 1.00000
vt 0.00000 1.00000
vt 0.00000 1.00000
vt 0.00000 1.00000
vt 0.00000 1.00000
vt 0.00000 1.00000
vt 0.00000 1.00000
vt 0.00000 1.00000
vt 0.00000 1.00000
vt 0.00000 1.00000
vt 0.00000 1.00000
vt 0.00000 1.00000
vt 0.00000 1.00000
vt 0.00000 1.00000
vt 0.00000 1.00000
vt 0.00000 1.00000
vt 0.00000 1.00000
vt 0.00000 1.00000
vt 0.00000 1.00000
vt 0.00000 1.00000
vt 0.00000 1.00000
vt 0.00000 1.00000
vt 0.00000 1.00000
vt 0.00000 1.00000
vt 0.00000 1.00000
vt 0.00000 1.00000
vt 0.00000 1.00000
vt 0.00000 1.00000
vt 0.00000 1.00000
vt 0.00000 1.00000
vt 0.00000 1.00000
vt 0.00000 1.00000
vt 0.00000 1.00000
vt 0.00000 1.00000
vt 0.00000 1.00000
vt 0.00000 1.00000
vt 0.00000 1.00000
vt 0.00000 1.00000
vt 0.00000 1.00000
vt 0.00000 1.00000
vt 0.00000 1.00000
vt 0.00000 1.00000
vt 0.00000 1.00000
vt 0.00000 1.00000
vt 0.00000 1.00000
vt 0.00000 1.00000
vt 0.00000 1.00000
vt 0.00000 1.00000
vt 0.00000 1.00000
vt 0.00000 1.00000
vt 0.00000 1.00000
vt 0.00000 1.00000
vt 0.00000 1.00000
vt 0.00000 1.00000
vt 0.00000 1.00000
vt 0.00000 1.00000
vt 0.00000 1.00000
vt 0.00000 1.00000
vt 0.00000 1.00000
vt 0.00000 1.00000
vt 0.00000 1.00000
vt 0.00000 1.00000
vt 0.00000 1.00000
vt 0.00000 1.00000
vt 0.00000 1.00000
vt 0.00000 1.00000
vt 0.00000 1.00000
vt 0.00000 1.00000
vt 0.00000 1.00000
vt 0.00000 1.00000
vt 0.00000 1.00000
vt 0.00000 1.00000
vt 0.00000 1.00000
vt 0.00000 1.00000
vt 0.00000 1.00000
vt 0.00000 1.00000
vt 0.00000 1.00000
vt 0.00000 1.00000
vt 0.00000 1.00000
vt 0.00000 1.00000
vt 0.00000 1.00000
vt 0.00000 1.00000
vt 0.00000 1.00000
vt 0.00000 1.00000
vt 0.00000 1.00000
vt 0.00000 1.00000
vt 0.00000 1.00000
vt 0.00000 1.00000
vt 0.00000 1.00000
vt 0.00000 1.00000
vt 0.00000 1.00000
vt 0.00000 1.00000
vt 0.00000 1.00000
vt 0.00000 1.00000
vt 0.00000 1.00000
vt 0.00000 1.00000
vt 0.00000 1.00000
vt 0.00000 1.00000
vt 0.00000 1.00000
vt 0.00000 1.00000
vt 0.00000 1.00000
vt 0.00000 1.00000
vt 0.00000 1.00000
vt 0.00000 1.00000
vt 0.00000 1.00000
vt 0.00000 1.00000
vt 0.00000 1.00000
vt 0.00000 1.00000
vt 0.00000 1.00000
vt 0.00000 1.00000
vt 0.00000 1.00000
vt 0.00000 1.00000
vt 0.00000 1.00000
vt 0.00000 1.00000
vt 0.00000 1.00000
vt 0.00000 1.00000
vt 0.00000 1.00000
vt 0.00000 1.00000
vt 0.00000 1.00000
vt 0.00000 1.00000
vt 0.00000 1.00000
vt 0.00000 1.00000
vt 0.00000 1.00000
vt 0.00000 1.00000
vt 0.00000 1.00000
vt 0.00000 1.00000
vt 0.00000 1.00000
vt 0.00000 1.00000
vt 0.00000 1.00000
vt 0.00000 1.00000
vt 0.00000 1.00000
vt 0.00000 1.00000
vt 0.00000 1.00000
vt 0.00000 1.00000
vt 0.00000 1.00000
vt 0.00000 1.00000
vt 0.00000 1.00000
vt 0.00000 1.00000
vt 0.00000 1.00000
vt 0.00000 1.00000
vt 0.00000 1.00000
vt 0.00000 1.00000
vt 0.00000 1.00000
vt 0.00000 1.00000
vt 0.00000 1.00000
vt 0.00000 1.00000
vt 0.00000 1.00000
vt 0.00000 1.00000
vt 0.00000 1.00000
vt 0.00000 1.00000
vt 0.00000 1.00000
vt 0.00000 1.00000
vt 0.00000 1.00000
vt 0.00000 1.00000
vt 0.00000 1.00000
vt 0.00000 1.00000
vt 0.00000 1.00000
vt 0.00000 1.00000
vt 0.00000 1.00000
vt 0.00000 1.00000
vt 0.00000 1.00000
vt 0.00000 1.00000
vt 0.00000 1.00000
vt 0.00000 1.00000
vt 0.00000 1.00000
vt 0.00000 1.00000
vt 0.00000 1.00000
vt 0.00000 1.00000
vt 0.00000 1.00000
vt 0.00000 1.00000
vt 0.00000 1.00000
vt 0.00000 1.00000
vt 0.00000 1.00000
vt 0.00000 1.00000
vt 0.00000 1.00000
vt 0.00000 1.00000
vt 0.00000 1.00000
vt 0.00000 1.00000
vt 0.00000 1.00000
vt 0.00000 1.00000
vt 0.00000 1.00000
vt 0.00000 1.00000
vt 0.00000 1.00000
vt 0.00000 1.00000
vt 0.00000 1.00000
vt 0.00000 1.00000
vt 0.00000 1.00000
vt 0.00000 1.00000
vt 0.00000 1.00000
vt 0.00000 1.00000
vt 0.00000 1.00000
vt 0.00000 1.00000
vt 0.00000 1.00000
vt 0.00000 1.00000
vt 0.00000 1.00000
vt 0.00000 1.00000
vt 0.00000 1.00000
vt 0.00000 1.00000
vt 0.00000 1.00000
vt 0.00000 1.00000
vt 0.00000 1.00000
vt 0.00000 1.00000
vt 0.00000 1.00000
vt 0.00000 1.00000
vt 0.00000 1.00000
vt 0.00000 1.00000
vt 0.00000 1.00000
vt 0.00000 1.00000
vt 0.00000 1.00000
vt 0.00000 1.00000
vt 0.00000 1.00000
vt 0.00000 1.00000
vt 0.00000 1.00000
vt 0.00000 1.00000
vt 0.00000 1.00000
vt 0.00000 1.00000
vt 0.00000 1.00000
vt 0.00000 1.00000
vt 0.00000 1.00000
vt 0.00000 1.00000
vt 0.00000 1.00000
vt 0.00000 1.00000
vt 0.00000 1.00000
vt 0.00000 1.00000
vt 0.00000 1.00000
vt 0.00000 1.00000
vt 0.00000 1.00000
vt 0.00000 1.00000
vt 0.00000 1.00000
vt 0.00000 1.00000
vt 0.00000 1.00000
vt 0.00000 1.00000
vt 0.00000 1.00000
vt 0.00000 1.00000
vt 0.00000 1.00000
vt 0.00000 1.00000
vt 0.00000 1.00000
vt 0.00000 1.00000
vt 0.00000 1.00000
vt 0.00000 1.00000
vt 0.00000 1.00000
vt 0.00000 1.00000
vt 0.00000 1.00000
vt 0.00000 1.00000
vt 0.00000 1.00000
vt 0.00000 1.00000
vt 0.00000 1.00000
vt 0.00000 1.00000
vt 0.00000 1.00000
vt 0.00000 1.00000
vt 0.00000 1.00000
vt 0.00000 1.00000
vt 0.00000 1.00000
vt 0.00000 1.00000
vt 0.00000 1.00000
vt 0.00000 1.00000
vt 0.00000 1.00000
vt 0.00000 1.00000
vt 0.00000 1.00000
vt 0.00000 1.00000
vt 0.00000 1.00000
vt 0.00000 1.00000
vt 0.00000 1.00000
vt 0.00000 1.00000
vt 0.00000 1.00000
vt 0.00000 1.00000
vt 0.00000 1.00000
vt 0.00000 1.00000
vt 0.00000 1.00000
vt 0.00000 1.00000
vt 0.00000 1.00000
vt 0.00000 1.00000
vt 0.00000 1.00000
vt 0.00000 1.00000
vt 0.00000 1.00000
vt 0.00000 1.00000
vt 0.00000 1.00000
vt 0.00000 1.00000
vt 0.00000 1.00000
vt 0.00000 1.00000
vt 0.00000 1.00000
vt 0.00000 1.00000
vt 0.00000 1.00000
vt 0.00000 1.00000
vt 0.00000 1.00000
vt 0.00000 1.00000
vt 0.00000 1.00000
vt 0.00000 1.00000
vt 0.00000 1.00000
vt 0.00000 1.00000
vt 0.00000 1.00000
vt 0.00000 1.00000
vt 0.00000 1.00000
vt 0.00000 1.00000
vt 0.00000 1.00000
vt 0.00000 1.00000
vt 0.00000 1.00000
vt 0.00000 1.00000
vt 0.00000 1.00000
vt 0.00000 1.00000
vt 0.00000 1.00000
vt 0.00000 1.00000
vt 0.00000 1.00000
vt 0.00000 1.00000
vt 0.00000 1.00000
vt 0.00000 1.00000
vt 0.00000 1.00000
vt 0.00000 1.00000
vt 0.00000 1.00000
vt 0.00000 1.00000
vt 0.00000 1.00000
vt 0.00000 1.00000
vt 0.00000 1.00000
vt 0.00000 1.00000
vt 0.00000 1.00000
vt 0.00000 1.00000
vt 0.00000 1.00000
vt 0.00000 1.00000
vt 0.00000 1.00000
vt 0.00000 1.00000
vt 0.00000 1.00000
vt 0.00000 1.00000
vt 0.00000 1.00000
vt 0.00000 1.00000
vt 0.00000 1.00000
vt 0.00000 1.00000
vt 0.00000 1.00000
vt 0.00000 1.00000
vt 0.00000 1.00000
vt 0.00000 1.00000
vt 0.00000 1.00000
vt 0.00000 1.00000
vt 0.00000 1.00000
vt 0.00000 1.00000
vt 0.00000 1.00000
vt 0.00000 1.00000
vt 0.00000 1.00000
vt 0.00000 1.00000
vt 0.00000 1.00000
vt 0.00000 1.00000
vt 0.00000 1.00000
vt 0.00000 1.00000
vt 0.00000 1.00000
vt 0.00000 1.00000
vt 0.00000 1.00000
vt 0.00000 1.00000
vt 0.00000 1.00000
vt 0.00000 1.00000
vt 0.00000 1.00000
vt 0.00000 1.00000
vt 0.00000 1.00000
vt 0.00000 1.00000
vt 0.00000 1.00000
vt 0.00000 1.00000
vt 0.00000 1.00000
vt 0.00000 1.00000
vt 0.00000 1.00000
vt 0.00000 1.00000
vt 0.00000 1.00000
vt 0.00000 1.00000
vt 0.00000 1.00000
vt 0.00000 1.00000
vt 0.00000 1.00000
vt 0.00000 1.00000
vt 0.00000 1.00000
vt 0.00000 1.00000
vt 0.00000 1.00000
vt 0.00000 1.00000
vt 0.00000 1.00000
vt 0.00000 1.00000
vt 0.00000 1.00000
vt 0.00000 1.00000
vt 0.00000 1.00000
vt 0.00000 1.00000
vt 0.00000 1.00000
vt 0.00000 1.00000
vt 0.00000 1.00000
vt 0.00000 1.00000
vt 0.00000 1.00000
vt 0.00000 1.00000
vt 0.00000 1.00000
vt 0.00000 1.00000
vt 0.00000 1.00000
vt 0.00000 1.00000
vt 0.00000 1.00000
vt 0.00000 1.00000
vt 0.00000 1.00000
vt 0.00000 1.00000
vt 0.00000 1.00000
vt 0.00000 1.00000
vt 0.00000 1.00000
vt 0.00000 1.00000
vt 0.00000 1.00000
vt 0.00000 1.00000
vt 0.00000 1.00000
vt 0.00000 1.00000
vt 0.00000 1.00000
vt 0.00000 1.00000
vt 0.00000 1.00000
vt 0.00000 1.00000
vt 0.00000 1.00000
vt 0.00000 1.00000
vt 0.00000 1.00000
vt 0.00000 1.00000
vt 0.00000 1.00000
vt 0.00000 1.00000
vt 0.00000 1.00000
vt 0.00000 1.00000
vt 0.00000 1.00000
vt 0.00000 1.00000
vt 0.00000 1.00000
vt 0.00000 1.00000
vt 0.00000 1.00000
vt 0.00000 1.00000
vt 0.00000 1.00000
vt 0.00000 1.00000
vt 0.00000 1.00000
vt 0.00000 1.00000
vt 0.00000 1.00000
vt 0.00000 1.00000
vt 0.00000 1.00000
vt 0.00000 1.00000
vt 0.00000 1.00000
vt 0.00000 1.00000
vt 0.00000 1.00000
vt 0.00000 1.00000
vt 0.00000 1.00000
vt 0.00000 1.00000
vt 0.00000 1.00000
vt 0.00000 1.00000
vt 0.00000 1.00000
vt 0.00000 1.00000
vt 0.00000 1.00000
vt 0.00000 1.00000
vt 0.00000 1.00000
vt 0.00000 1.00000
vt 0.00000 1.00000
vt 0.00000 1.00000
vt 0.00000 1.00000
vt 0.00000 1.00000
vt 0.00000 1.00000
vt 0.00000 1.00000
vt 0.00000 1.00000
vt 0.00000 1.00000
vt 0.00000 1.00000
vt 0.00000 1.00000
vt 0.00000 1.00000
vt 0.00000 1.00000
vt 0.00000 1.00000
vt 0.00000 1.00000
vt 0.00000 1.00000
vt 0.00000 1.00000
vt 0.00000 1.00000
vt 0.00000 1.00000
vt 0.00000 1.00000
vt 0.00000 1.00000
vt 0.00000 1.00000
vt 0.00000 1.00000
vt 0.00000 1.00000
vt 0.00000 1.00000
vt 0.00000 1.00000
vt 0.00000 1.00000
vt 0.00000 1.00000
vt 0.00000 1.00000
vt 0.00000 1.00000
vt 0.00000 1.00000
vt 0.00000 1.00000
vt 0.00000 1.00000
vt 0.00000 1.00000
vt 0.00000 1.00000
vt 0.00000 1.00000
vt 0.00000 1.00000
vt 0.00000 1.00000
vt 0.00000 1.00000
vt 0.00000 1.00000
vt 0.00000 1.00000
vt 0.00000 1.00000
vt 0.00000 1.00000
vt 0.00000 1.00000
vt 0.00000 1.00000
vt 0.00000 1.00000
vt 0.00000 1.00000
vt 0.00000 1.00000
vt 0.00000 1.00000
vt 0.00000 1.00000
vt 0.00000 1.00000
vt 0.00000 1.00000
vt 0.00000 1.00000
vt 0.00000 1.00000
vt 0.00000 1.00000
vt 0.00000 1.00000
vt 0.00000 1.00000
vt 0.00000 1.00000
vt 0.00000 1.00000
vt 0.00000 1.00000
vt 0.00000 1.00000
vt 0.00000 1.00000
vt 0.00000 1.00000
vt 0.00000 1.00000
vt 0.00000 1.00000
vt 0.00000 1.00000
vt 0.00000 1.00000
vt 0.00000 1.00000
vt 0.00000 1.00000
vt 0.00000 1.00000
vt 0.00000 1.00000
vt 0.00000 1.00000
vt 0.00000 1.00000
vt 0.00000 1.00000
vt 0.00000 1.00000
vt 0.00000 1.00000
vt 0.00000 1.00000
vt 0.00000 1.00000
vt 0.00000 1.00000
vt 0.00000 1.00000
vt 0.00000 1.00000
vt 0.00000 1.00000
vt 0.00000 1.00000
vt 0.00000 1.00000
vt 0.00000 1.00000
vt 0.00000 1.00000
vt 0.00000 1.00000
vt 0.00000 1.00000
vt 0.00000 1.00000
vt 0.00000 1.00000
vt 0.00000 1.00000
vt 0.00000 1.00000
vt 0.00000 1.00000
vt 0.00000 1.00000
vt 0.00000 1.00000
vt 0.00000 1.00000
vt 0.00000 1.00000
vt 0.00000 1.00000
vt 0.00000 1.00000
vt 0.00000 1.00000
vt 0.00000 1.00000
vt 0.00000 1.00000
vt 0.00000 1.00000
vt 0.00000 1.00000
vt 0.00000 1.00000
vt 0.00000 1.00000
vt 0.00000 1.00000
vt 0.00000 1.00000
vt 0.00000 1.00000
vt 0.00000 1.00000
vt 0.00000 1.00000
vt 0.00000 1.00000
vt 0.00000 1.00000
vt 0.00000 1.00000
vt 0.00000 1.00000
vt 0.00000 1.00000
vt 0.00000 1.00000
vt 0.00000 1.00000
vt 0.00000 1.00000
vt 0.00000 1.00000
vt 0.00000 1.00000
vt 0.00000 1.00000
vt 0.00000 1.00000
vt 0.00000 1.00000
vt 0.00000 1.00000
vt 0.00000 1.00000
vt 0.00000 1.00000
vt 0.00000 1.00000
vt 0.00000 1.00000
vt 0.00000 1.00000
vt 0.00000 1.00000
vt 0.00000 1.00000
vt 0.00000 1.00000
vt 0.00000 1.00000
vt 0.00000 1.00000
vt 0.00000 1.00000
vt 0.00000 1.00000
vt 0.00000 1.00000
vt 0.00000 1.00000
vt 0.00000 1.00000
vt 0.00000 1.00000
vt 0.00000 1.00000
vt 0.00000 1.00000
vt 0.00000 1.00000
vt 0.00000 1.00000
vt 0.00000 1.00000
vt 0.00000 1.00000
vt 0.00000 1.00000
vt 0.00000 1.00000
vt 0.00000 1.00000
vt 0.00000 1.00000
vt 0.00000 1.00000
vt 0.00000 1.00000
vt 0.00000 1.00000
vt 0.00000 1.00000
vt 0.00000 1.00000
vt 0.00000 1.00000
vt 0.00000 1.00000
vt 0.00000 1.00000
vt 0.00000 1.00000
vt 0.00000 1.00000
vt 0.00000 1.00000
vt 0.00000 1.00000
vt 0.00000 1.00000
vt 0.00000 1.00000
vt 0.00000 1.00000
vt 0.00000 1.00000
vt 0.00000 1.00000
vt 0.00000 1.00000
vt 0.00000 1.00000
vt 0.00000 1.00000
vt 0.00000 1.00000
vt 0.00000 1.00000
vt 0.00000 1.00000
vt 0.00000 1.00000
vt 0.00000 1.00000
vt 0.00000 1.00000
vt 0.00000 1.00000
vt 0.00000 1.00000
vt 0.00000 1.00000
vt 0.00000 1.00000
vt 0.00000 1.00000
vt 0.00000 1.00000
vt 0.00000 1.00000
vt 0.00000 1.00000
vt 0.00000 1.00000
vt 0.00000 1.00000
vt 0.00000 1.00000
vt 0.00000 1.00000
vt 0.00000 1.00000
vt 0.00000 1.00000
vt 0.00000 1.00000
vt 0.00000 1.00000
vt 0.00000 1.00000
vt 0.00000 1.00000
vt 0.00000 1.00000
vt 0.00000 1.00000
vt 0.00000 1.00000
vt 0.00000 1.00000
vt 0.00000 1.00000
vt 0.00000 1.00000
vt 0.00000 1.00000
vt 0.00000 1.00000
vt 0.00000 1.00000
vt 0.00000 1.00000
vt 0.00000 1.00000
vt 0.00000 1.00000
vt 0.00000 1.00000
vt 0.00000 1.00000
vt 0.00000 1.00000
vt 0.00000 1.00000
vt 0.00000 1.00000
vt 0.00000 1.00000
vt 0.00000 1.00000
vt 0.00000 1.00000
vt 0.00000 1.00000
vt 0.00000 1.00000
vt 0.00000 1.00000
vt 0.00000 1.00000
vt 0.00000 1.00000
vt 0.00000 1.00000
vt 0.00000 1.00000
vt 0.00000 1.00000
vt 0.00000 1.00000
vt 0.00000 1.00000
vt 0.00000 1.00000
vt 0.00000 1.00000
vt 0.00000 1.00000
vt 0.00000 1.00000
vt 0.00000 1.00000
vt 0.00000 1.00000
vt 0.00000 1.00000
vt 0.00000 1.00000
vt 0.00000 1.00000
vt 0.00000 1.00000
vt 0.00000 1.00000
vt 0.00000 1.00000
vt 0.00000 1.00000
vt 0.00000 1.00000
vt 0.00000 1.00000
vt 0.00000 1.00000
vt 0.00000 1.00000
vt 0.00000 1.00000
vt 0.00000 1.00000
vt 0.00000 1.00000
vt 0.00000 1.00000
vt 0.00000 1.00000
vt 0.00000 1.00000
vt 0.00000 1.00000
vt 0.00000 1.00000
vt 0.00000 1.00000
vt 0.00000 1.00000
vt 0.00000 1.00000
vt 0.00000 1.00000
vt 0.00000 1.00000
vt 0.00000 1.00000
vt 0.00000 1.00000
vt 0.00000 1.00000
vt 0.00000 1.00000
vt 0.00000 1.00000
vt 0.00000 1.00000
vt 0.00000 1.00000
vt 0.00000 1.00000
vt 0.00000 1.00000
vt 0.00000 1.00000
vt 0.00000 1.00000
vt 0.00000 1.00000
vt 0.00000 1.00000
vt 0.00000 1.00000
vt 0.00000 1.00000
vt 0.00000 1.00000
vt 0.00000 1.00000
vt 0.00000 1.00000
vt 0.00000 1.00000
vt 0.00000 1.00000
vt 0.00000 1.00000
vt 0.00000 1.00000
vt 0.00000 1.00000
vt 0.00000 1.00000
vt 0.00000 1.00000
vt 0.00000 1.00000
vt 0.00000 1.00000
vt 0.00000 1.00000
vt 0.00000 1.00000
vt 0.00000 1.00000
vt 0.00000 1.00000
vt 0.00000 1.00000
vt 0.00000 1.00000
vt 0.00000 1.00000
vt 0.00000 1.00000
vt 0.00000 1.00000
vt 0.00000 1.00000
vt 0.00000 1.00000
vt 0.00000 1.00000
vt 0.00000 1.00000
vt 0.00000 1.00000
vt 0.00000 1.00000
vt 0.00000 1.00000
vt 0.00000 1.00000
vt 0.00000 1.00000
vt 0.00000 1.00000
vt 0.00000 1.00000
vt 0.00000 1.00000
vt 0.00000 1.00000
vt 0.00000 1.00000
vt 0.00000 1.00000
vt 0.00000 1.00000
vt 0.00000 1.00000
vt 0.00000 1.00000
vt 0.00000 1.00000
vt 0.00000 1.00000
vt 0.00000 1.00000
vt 0.00000 1.00000
vt 0.00000 1.00000
vt 0.00000 1.00000
vt 0.00000 1.00000
vt 0.00000 1.00000
vt 0.00000 1.00000
vt 0.00000 1.00000
vt 0.00000 1.00000
vt 0.00000 1.00000
vt 0.00000 1.00000
vt 0.00000 1.00000
vt 0.00000 1.00000
vt 0.00000 1.00000
vt 0.00000 1.00000
vt 0.00000 1.00000
vt 0.00000 1.00000
vt 0.00000 1.00000
vt 0.00000 1.00000
vt 0.00000 1.00000
vt 0.00000 1.00000
vt 0.00000 1.00000
vt 0.00000 1.00000
vt 0.00000 1.00000
vt 0.00000 1.00000
vt 0.00000 1.00000
vt 0.00000 1.00000
vt 0.00000 1.00000
vt 0.00000 1.00000
vt 0.00000 1.00000
vt 0.00000 1.00000
vt 0.00000 1.00000
vt 0.00000 1.00000
vt 0.00000 1.00000
vt 0.00000 1.00000
vt 0.00000 1.00000
vt 0.00000 1.00000
vt 0.00000 1.00000
vt 0.00000 1.00000
vt 0.00000 1.00000
vt 0.00000 1.00000
vt 0.00000 1.00000
vt 0.00000 1.00000
vt 0.00000 1.00000
vt 0.00000 1.00000
vt 0.00000 1.00000
vt 0.00000 1.00000
vt 0.00000 1.00000
vt 0.00000 1.00000
vt 0.00000 1.00000
vt 0.00000 1.00000
vt 0.00000 1.00000
vt 0.00000 1.00000
vt 0.00000 1.00000
vt 0.00000 1.00000
vt 0.00000 1.00000
vt 0.00000 1.00000
vt 0.00000 1.00000
vt 0.00000 1.00000
vt 0.00000 1.00000
vt 0.00000 1.00000
vt 0.00000 1.00000
vt 0.00000 1.00000
vt 0.00000 1.00000
vt 0.00000 1.00000
vt 0.00000 1.00000
vt 0.00000 1.00000
vt 0.00000 1.00000
vt 0.00000 1.00000
vt 0.00000 1.00000
vt 0.00000 1.00000
vt 0.00000 1.00000
vt 0.00000 1.00000
vt 0.00000 1.00000
vt 0.00000 1.00000
vt 0.00000 1.00000
vt 0.00000 1.00000
vt 0.00000 1.00000
vt 0.00000 1.00000
vt 0.00000 1.00000
vt 0.00000 1.00000
vt 0.00000 1.00000
vt 0.00000 1.00000
vt 0.00000 1.00000
vt 0.00000 1.00000
vt 0.00000 1.00000
vt 0.00000 1.00000
vt 0.00000 1.00000
vt 0.00000 1.00000
vt 0.00000 1.00000
vt 0.00000 1.00000
vt 0.00000 1.00000
vt 0.00000 1.00000
vt 0.00000 1.00000
vt 0.00000 1.00000
vt 0.00000 1.00000
vt 0.00000 1.00000
vt 0.00000 1.00000
vt 0.00000 1.00000
vt 0.00000 1.00000
vt 0.00000 1.00000
vt 0.00000 1.00000
vt 0.00000 1.00000
vt 0.00000 1.00000
vt 0.00000 1.00000
vt 0.00000 1.00000
vt 0.00000 1.00000
vt 0.00000 1.00000
vt 0.00000 1.00000
vt 0.00000 1.00000
vt 0.00000 1.00000
vt 0.00000 1.00000
vt 0.00000 1.00000
vt 0.00000 1.00000
vt 0.00000 1.00000
vt 0.00000 1.00000
vt 0.00000 1.00000
vt 0.00000 1.00000
vt 0.00000 1.00000
vt 0.00000 1.00000
vt 0.00000 1.00000
vt 0.00000 1.00000
vt 0.00000 1.00000
vt 0.00000 1.00000
vt 0.00000 1.00000
vt 0.00000 1.00000
vt 0.00000 1.00000
vt 0.00000 1.00000
vt 0.00000 1.00000
vt 0.00000 1.00000
vt 0.00000 1.00000
vt 0.00000 1.00000
vt 0.00000 1.00000
vt 0.00000 1.00000
vt 0.00000 1.00000
vt 0.00000 1.00000
vt 0.00000 1.00000
vt 0.00000 1.00000
vt 0.00000 1.00000
vt 0.00000 1.00000
vt 0.00000 1.00000
vt 0.00000 1.00000
vt 0.00000 1.00000
vt 0.00000 1.00000
vt 0.00000 1.00000
vt 0.00000 1.00000
vt 0.00000 1.00000
vt 0.00000 1.00000
vt 0.00000 1.00000
vt 0.00000 1.00000
vt 0.00000 1.00000
vt 0.00000 1.00000
vt 0.00000 1.00000
vt 0.00000 1.00000
vt 0.00000 1.00000
vt 0.00000 1.00000
vt 0.00000 1.00000
vt 0.00000 1.00000
vt 0.00000 1.00000
vt 0.00000 1.00000
vt 0.00000 1.00000
vt 0.00000 1.00000
vt 0.00000 1.00000
vt 0.00000 1.00000
vt 0.00000 1.00000
vt 0.00000 1.00000
vt 0.00000 1.00000
vt 0.00000 1.00000
vt 0.00000 1.00000
vt 0.00000 1.00000
vt 0.00000 1.00000
vt 0.00000 1.00000
vt 0.00000 1.00000
vt 0.00000 1.00000
vt 0.00000 1.00000
vt 0.00000 1.00000
vt 0.00000 1.00000
vt 0.00000 1.00000
vt 0.00000 1.00000
vt 0.00000 1.00000
vt 0.00000 1.00000
vt 0.00000 1.00000
vt 0.00000 1.00000
vt 0.00000 1.00000
vt 0.00000 1.00000
vt 0.00000 1.00000
vt 0.00000 1.00000
vt 0.00000 1.00000
vt 0.00000 1.00000
vt 0.00000 1.00000
vt 0.00000 1.00000
vt 0.00000 1.00000
vt 0.00000 1.00000
vt 0.00000 1.00000
vt 0.00000 1.00000
vt 0.00000 1.00000
vt 0.00000 1.00000
vt 0.00000 1.00000
vt 0.00000 1.00000
vt 0.00000 1.00000
vt 0.00000 1.00000
vt 0.00000 1.00000
vt 0.00000 1.00000
vt 0.00000 1.00000
vt 0.00000 1.00000
vt 0.00000 1.00000
vt 0.00000 1.00000
vt 0.00000 1.00000
vt 0.00000 1.00000
vt 0.00000 1.00000
vt 0.00000 1.00000
vt 0.00000 1.00000
vt 0.00000 1.00000
vt 0.00000 1.00000
vt 0.00000 1.00000
vt 0.00000 1.00000
vt 0.00000 1.00000
vt 0.00000 1.00000
vt 0.00000 1.00000
vt 0.00000 1.00000
vt 0.00000 1.00000
vt 0.00000 1.00000
vt 0.00000 1.00000
vt 0.00000 1.00000
vt 0.00000 1.00000
vt 0.00000 1.00000
vt 0.00000 1.00000
vt 0.00000 1.00000
vt 0.00000 1.00000
vt 0.00000 1.00000
vt 0.00000 1.00000
vt 0.00000 1.00000
vt 0.00000 1.00000
vt 0.00000 1.00000
vt 0.00000 1.00000
vt 0.00000 1.00000
vt 0.00000 1.00000
vt 0.00000 1.00000
vt 0.00000 1.00000
vt 0.00000 1.00000
usemtl needles
f 301/301 302/302 303/303
f 304/304 305/305 306/306
f 307/307 308/308 309/309
f 310/310 311/311 312/312
f 313/313 314/314 315/315
f 316/316 317/317 318/318
f 319/319 320/320 321/321
f 322/322 323/323 324/324
f 325/325 326/326 327/327
f 328/328 329/329 330/330
f 331/331 332/332 333/333
f 334/334 335/335 336/336
f 337/337 338/338 339/339
f 340/340 341/341 342/342
f 343/343 344/344 345/345
f 346/346 347/347 348/348
f 349/349 350/350 351/351
f 352/352 353/353 354/354
f 355/355 356/356 357/357
f 358/358 359/359 360/360
f 361/361 362/362 363/363
f 364/364 365/365 366/366
f 367/367 368/368 369/369
f 370/370 371/371 372/372
f 373/373 374/374 375/375
f 376/376 377/377 378/378
f 379/379 380/380 381/381
f 382/382 383/383 384/384
f 385/385 386/386 387/387
f 388/388 389/389 390/390
f 391/391 392/392 393/393
f 394/394 395/395 396/396
f 397/397 398/398 399/399
f 400/400 401/401 402/402
f 403/403 404/404 405/405
f 406/406 407/407 408/408
f 409/409 410/410 411/411
f 412/412 413/413 414/414
f 415/415 416/416 417/417
f 418/418 419/419 420/420
f 421/421 422/422 423/423
f 424/424 425/425 426/426
f 427/427 428/428 429/429
f 430/430 431/431 432/432
f 433/433 434/434 435/435
f 436/436 437/437 438/438
f 439/439 440/440 441/441
f 442/442 443/443 444/444
f 445/445 446/446 447/447
f 448/448 449/449 450/450
f 451/451 452/452 453/453
f 454/454 455/455 456/456
f 457/457 458/458 459/459
f 460/460 461/461 462/462
f 463/463 464/464 465/465
f 466/466 467/467 468/468
f 469/469 470/470 471/471
f 472/472 473/473 474/474
f 475/475 476/476 477/477
f 478/478 479/479 480/480
f 481/481 482/482 483/483
f 484/484 485/485 486/486
f 487/487 488/488 489/489
f 490/490 491/491 492/492
f 493/493 494/494 495/495
f 496/496 497/497 498/498
f 499/499 500/500 501/501
f 502/502 503/503 504/504
f 505/505 506/506 507/507
f 508/508 509/509 510/510
f 511/511 512/512 513/513
f 514/514 515/515 516/516
f 517/517 518/518 519/519
f 520/520 521/521 522/522
f 523/523 524/524 525/525
f 526/526 527/527 528/528
f 529/529 530/530 531/531
f 532/532 533/533 534/534
f 535/535 536/536 537/537
f 538/538 539/539 540/540
f 541/541 542/542 543/543
f 544/544 545/545 546/546
f 547/547 548/548 549/549
f 550/550 551/551 552/552
f 553/553 554/554 555/555
f 556/556 557/557 558/558
f 559/559 560/560 561/561
f 562/562 563/563 564/564
f 565/565 566/566 567/567
f 568/568 569/569 570/570
f 571/571 572/572 573/573
f 574/574 575/575 576/576
f 577/577 578/578 579/579
f 580/580 581/581 582/582
f 583/583 584/584 585/585
f 586/586 587/587 588/588
f 589/589 590/590 591/591
f 592/592 593/593 594/594
f 595/595 596/596 597/597
f 598/598 599/599 600/600
f 601/601 602/602 603/603
f 604/604 605/605 606/606
f 607/607 608/608 609/609
f 610/610 611/611 612/612
f 613/613 614/614 615/615
f 616/616 617/617 618/618
f 619/619 620/620 621/621
f 622/622 623/623 624/624
f 625/625 626/626 627/627
f 628/628 629/629 630/630
f 631/631 632/632 633/633
f 634/634 635/635 636/636
f 637/637 638/638 639/639
f 640/640 641/641 642/642
f 643/643 644/644 645/645
f 646/646 647/647 648/648
f 649/649 650/650 651/651
f 652/652 653/653 654/654
f 655/655 656/656 657/657
f 658/658 659/659 660/660
f 661/661 662/662 663/663
f 664/664 665/665 666/666
f 667/667 668/668 669/669
f 670/670 671/671 672/672
f 673/673 674/674 675/675
f 676/676 677/677 678/678
f 679/679 680/680 681/681
f 682/682 683/683 684/684
f 685/685 686/686 687/687
f 688/688 689/689 690/690
f 691/691 692/692 693/693
f 694/694 695/695 696/696
f 697/697 698/698 699/699
f 700/700 701/701 702/702
f 703/703 704/704 705/705
f 706/706 707/707 708/708
f 709/709 710/710 711/711
f 712/712 713/713 714/714
f 715/715 716/716 717/717
f 718/718 719/719 720/720
f 721/721 722/722 723/723
f 724/724 725/725 726/726
f 727/727 728/728 729/729
f 730/730 731/731 732/732
f 733/733 734/734 735/735
f 736/736 737/737 738/738
f 739/739 740/740 741/741
f 742/742 743/743 744/744
f 745/745 746/746 747/747
f 748/748 749/749 750/750
f 751/751 752/752 753/753
f 754/754 755/755 756/756
f 757/757 758/758 759/759
f 760/760 761/761 762/762
f 763/763 764/764 765/765
f 766/766 767/767 768/768
f 769/769 770/770 771/771
f 772/772 773/773 774/774
f 775/775 776/776 777/777
f 778/778 779/779 780/780
f 781/781 782/782 783/783
f 784/784 785/785 786/786
f 787/787 788/788 789/789
f 790/790 791/791 792/792
f 793/793 794/794 795/795
f 796/796 797/797 798/798
f 799/799 800/800 801/801
f 802/802 803/803 804/804
f 805/805 806/806 807/807
f 808/808 809/809 810/810
f 811/811 812/812 813/813
f 814/814 815/815 816/816
f 817/817 818/818 819/819
f 820/820 821/821 822/822
f 823/823 824/824 825/825
f 826/826 827/827 828/828
f 829/829 830/830 831/831
f 832/832 833/833 834/834
f 835/835 836/836 837/837
f 838/838 839/839 840/840
f 841/841 842/842 843/843
f 844/844 845/845 846/846
f 847/847 848/848 849/849
f 850/850 851/851 852/852
f 853/853 854/854 855/855
f 856/856 857/857 858/858
f 859/859 860/860 861/861
f 862/862 863/863 864/864
f 865/865 866/866 867/867
f 868/868 869/869 870/870
f 871/871 872/872 873/873
f 874/874 875/875 876/876
f 877/877 878/878 879/879
f 880/880 881/881 882/882
f 883/883 884/884 885/885
f 886/886 887/887 888/888
f 889/889 890/890 891/891
f 892/892 893/893 894/894
f 895/895 896/896 897/897
f 898/898 899/899 900/900
f 901/901 902/902 903/903
f 904/904 905/905 906/906
f 907/907 908/908 909/909
f 910/910 911/911 912/912
f 913/913 914/914 915/915
f 916/916 917/917 918/918
f 919/919 920/920 921/921
f 922/922 923/923 924/924
f 925/925 926/926 927/927
f 928/928 929/929 930/930
f 931/931 932/932 933/933
f 934/934 935/935 936/936
f 937/937 938/938 939/939
f 940/940 941/941 942/942
f 943/943 944/944 945/945
f 946/946 947/947 948/948
f 949/949 950/950 951/951
f 952/952 953/953 954/954
f 955/955 956/956 957/957
f 958/958 959/959 960/960
f 961/961 962/962 963/963
f 964/964 965/965 966/966
f 967/967 968/968 969/969
f 970/970 971/971 972/972
f 973/973 974/974 975/975
f 976/976 977/977 978/978
f 979/979 980/980 981/981
f 982/982 983/983 984/984
f 985/985 986/986 987/987
f 988/988 989/989 990/990
f 991/991 992/992 993/993
f 994/994 995/995 996/996
f 997/997 998/998 999/999
f 1000/1000 1001/1001 1002/1002
f 1003/1003 1004/1004 1005/1005
f 1006/1006 1007/1007 1008/1008
f 1009/1009 1010/1010 1011/1011
f 1012/1012 1013/1013 1014/1014
f 1015/1015 1016/1016 1017/1017
f 1018/1018 1019/1019 1020/1020
f 1021/1021 1022/1022 1023/1023
f 1024/1024 1025/1025 1026/1026
f 1027/1027 1028/1028 1029/1029
f 1030/1030 1031/1031 1032/1032
f 1033/1033 1034/1034 1035/1035
f 1036/1036 1037/1037 1038/1038
f 1039/1039 1040/1040 1041/1041
f 1042/1042 1043/1043 1044/1044
f 1045/1045 1046/1046 1047/1047
f 1048/1048 1049/1049 1050/1050
f 1051/1051 1052/1052 1053/1053
f 1054/1054 1055/1055 1056/1056
f 1057/1057 1058/1058 1059/1059
f 1060/1060 1061/1061 1062/1062
f 1063/1063 1064/1064 1065/1065
f 1066/1066 1067/1067 1068/1068
f 1069/1069 1070/1070 1071/1071
f 1072/1072 1073/1073 1074/1074
f 1075/1075 1076/1076 1077/1077
f 1078/1078 1079/1079 1080/1080
f 1081/1081 1082/1082 1083/1083
f 1084/1084 1085/1085 1086/1086
f 1087/1087 1088/1088 1089/1089
f 1090/1090 1091/1091 1092/1092
f 1093/1093 1094/1094 1095/1095
f 1096/1096 1097/1097 1098/1098
f 1099/1099 1100/1100 1101/1101
f 1102/1102 1103/1103 1104/1104
f 1105/1105 1106/1106 1107/1107
f 1108/1108 1109/1109 1110/1110
f 1111/1111 1112/1112 1113/1113
f 1114/1114 1115/1115 1116/1116
f 1117/1117 1118/1118 1119/1119
f 1120/1120 1121/1121 1122/1122
f 1123/1123 1124/1124 1125/1125
f 1126/1126 1127/1127 1128/1128
f 1129/1129 1130/1130 1131/1131
f 1132/1132 1133/1133 1134/1134
f 1135/1135 1136/1136 1137/1137
f 1138/1138 1139/1139 1140/1140
f 1141/1141 1142/1142 1143/1143
f 1144/1144 1145/1145 1146/1146
f 1147/1147 1148/1148 1149/1149
f 1150/1150 1151/1151 1152/1152
f 1153/1153 1154/1154 1155/1155
f 1156/1156 1157/1157 1158/1158
f 1159/1159 1160/1160 1161/1161
f 1162/1162 1163/1163 1164/1164
f 1165/1165 1166/1166 1167/1167
f 1168/1168 1169/1169 1170/1170
f 1171/1171 1172/1172 1173/1173
f 1174/1174 1175/1175 1176/1176
f 1177/1177 1178/1178 1179/1179
f 1180/1180 1181/1181 1182/1182
f 1183/1183 1184/1184 1185/1185
f 1186/1186 1187/1187 1188/1188
f 1189/1189 1190/1190 1191/1191
f 1192/1192 1193/1193 1194/1194
f 1195/1195 1196/1196 1197/1197
f 1198/1198 1199/1199 1200/1200
f 1201/1201 1202/1202 1203/1203
f 1204/1204 1205/1205 1206/1206
f 1207/1207 1208/1208 1209/1209
f 1210/1210 1211/1211 1212/1212
f 1213/1213 1214/1214 1215/1215
f 1216/1216 1217/1217 1218/1218
f 1219/1219 1220/1220 1221/1221
f 1222/1222 1223/1223 1224/1224
f 1225/1225 1226/1226 1227/1227
f 1228/1228 1229/1229 1230/1230
f 1231/1231 1232/1232 1233/1233
f 1234/1234 1235/1235 1236/1236
f 1237/1237 1238/1238 1239/1239
f 1240/1240 1241/1241 1242/1242
f 1243/1243 1244/1244 1245/1245
f 1246/1246 1247/1247 1248/1248
f 1249/1249 1250/1250 1251/1251
f 1252/1252 1253/1253 1254/1254
f 1255/1255 1256/1256 1257/1257
f 1258/1258 1259/1259 1260/1260
f 1261/1261 1262/1262 1263/1263
f 1264/1264 1265/1265 1266/1266
f 1267/1267 1268/1268 1269/1269
f 1270/1270 1271/1271 1272/1272
f 1273/1273 1274/1274 1275/1275
f 1276/1276 1277/1277 1278/1278
f 1279/1279 1280/1280 1281/1281
f 1282/1282 1283/1283 1284/1284
f 1285/1285 1286/1286 1287/1287
f 1288/1288 1289/1289 1290/1290
f 1291/1291 1292/1292 1293/1293
f 1294/1294 1295/1295 1296/1296
f 1297/1297 1298/1298 1299/1299
f 1300/1300 1301/1301 1302/1302
f 1303/1303 1304/1304 1305/1305
f 1306/1306 1307/1307 1308/1308
f 1309/1309 1310/1310 1311/1311
f 1312/1312 1313/1313 1314/1314
f 1315/1315 1316/1316 1317/1317
f 1318/1318 1319/1319 1320/1320
f 1321/1321 1322/1322 1323/1323
f 1324/1324 1325/1325 1326/1326
f 1327/1327 1328/1328 1329/1329
f 1330/1330 1331/1331 1332/1332
f 1333/1333 1334/1334 1335/1335
f 1336/1336 1337/1337 1338/1338
f 1339/1339 1340/1340 1341/1341
f 1342/1342 1343/1343 1344/1344
f 1345/1345 1346/1346 1347/1347
f 1348/1348 1349/1349 1350/1350
f 1351/1351 1352/1352 1353/1353
f 1354/1354 1355/1355 1356/1356
f 1357/1357 1358/1358 1359/1359
f 1360/1360 1361/1361 1362/1362
f 1363/1363 1364/1364 1365/1365
f 1366/1366 1367/1367 1368/1368
f 1369/1369 1370/1370 1371/1371
f 1372/1372 1373/1373 1374/1374
f 1375/1375 1376/1376 1377/1377
f 1378/1378 1379/1379 1380/1380
f 1381/1381 1382/1382 1383/1383
f 1384/1384 1385/1385 1386/1386
f 1387/1387 1388/1388 1389/1389
f 1390/1390 1391/1391 1392/1392
f 1393/1393 1394/1394 1395/1395
f 1396/1396 1397/1397 1398/1398
f 1399/1399 1400/1400 1401/1401
f 1402/1402 1403/1403 1404/1404
f 1405/1405 1406/1406 1407/1407
f 1408/1408 1409/1409 1410/1410
f 1411/1411 1412/1412 1413/1413
f 1414/1414 1415/1415 1416/1416
f 1417/1417 1418/1418 1419/1419
f 1420/1420 1421/1421 1422/1422
f 1423/1423 1424/1424 1425/1425
f 1426/1426 1427/1427 1428/1428
f 1429/1429 1430/1430 1431/1431
f 1432/1432 1433/1433 1434/1434
f 1435/1435 1436/1436 1437/1437
f 1438/1438 1439/1439 1440/1440
f 1441/1441 1442/1442 1443/1443
f 1444/1444 1445/1445 1446/1446
f 1447/1447 1448/1448 1449/1449
f 1450/1450 1451/1451 1452/1452
f 1453/1453 1454/1454 1455/1455
f 1456/1456 1457/1457 1458/1458
f 1459/1459 1460/1460 1461/1461
f 1462/1462 1463/1463 1464/1464
f 1465/1465 1466/1466 1467/1467
f 1468/1468 1469/1469 1470/1470
f 1471/1471 1472/1472 1473/1473
f 1474/1474 1475/1475 1476/1476
f 1477/1477 1478/1478 1479/1479
f 1480/1480 1481/1481 1482/1482
f 1483/1483 1484/1484 1485/1485
f 1486/1486 1487/1487 1488/1488
f 1489/1489 1490/1490 1491/1491
f 1492/1492 1493/1493 1494/1494
f 1495/1495 1496/1496 1497/1497
f 1498/1498 1499/1499 1500/1500
f 1501/1501 1502/1502 1503/1503
f 1504/1504 1505/1505 1506/1506
f 1507/1507 1508/1508 1509/1509
f 1510/1510 1511/1511 1512/1512
f 1513/1513 1514/1514 1515/1515
f 1516/1516 1517/1517 1518/1518
f 1519/1519 1520/1520 1521/1521
f 1522/1522 1523/1523 1524/1524
f 1525/1525 1526/1526 1527/1527
f 1528/1528 1529/1529 1530/1530
f 1531/1531 1532/1532 1533/1533
f 1534/1534 1535/1535 1536/1536
f 1537/1537 1538/1538 1539/1539
f 1540/1540 1541/1541 1542/1542
f 1543/1543 1544/1544 1545/1545
f 1546/1546 1547/1547 1548/1548
f 1549/1549 1550/1550 1551/1551
f 1552/1552 1553/1553 1554/1554
f 1555/1555 1556/1556 1557/1557
f 1558/1558 1559/1559 1560/1560
f 1561/1561 1562/1562 1563/1563
f 1564/1564 1565/1565 1566/1566
f 1567/1567 1568/1568 1569/1569
f 1570/1570 1571/1571 1572/1572
f 1573/1573 1574/1574 1575/1575
f 1576/1576 1577/1577 1578/1578
f 1579/1579 1580/1580 1581/1581
f 1582/1582 1583/1583 1584/1584
f 1585/1585 1586/1586 1587/1587
f 1588/1588 1589/1589 1590/1590
f 1591/1591 1592/1592 1593/1593
f 1594/1594 1595/1595 1596/1596
f 1597/1597 1598/1598 1599/1599
f 1600/1600 1601/1601 1602/1602
f 1603/1603 1604/1604 1605/1605
f 1606/1606 1607/1607 1608/1608
f 1609/1609 1610/1610 1611/1611
f 1612/1612 1613/1613 1614/1614
f 1615/1615 1616/1616 1617/1617
f 1618/1618 1619/1619 1620/1620
f 1621/1621 1622/1622 1623/1623
f 1624/1624 1625/1625 1626/1626
f 1627/1627 1628/1628 1629/1629
f 1630/1630 1631/1631 1632/1632
f 1633/1633 1634/1634 1635/1635
f 1636/1636 1637/1637 1638/1638
f 1639/1639 1640/1640 1641/1641
f 1642/1642 1643/1643 1644/1644
f 1645/1645 1646/1646 1647/1647
f 1648/1648 1649/1649 1650/1650
