# Generated by TyraX. Do not edit - rebaked from the procedural graph of 'pines'.
# 19 instances of res/models/rock.obj
mtllib props.mtl
v -24.9362 15.8997 26.4998
v -25.5224 16.4817 25.2671
v -23.9652 16.6900 27.2324
v -24.9362 15.8997 26.4998
v -23.9652 16.6900 27.2324
v -25.5224 16.4817 25.2671
v 4.6658 20.6910 -49.8468
v 3.0942 21.6475 -49.8083
v 6.1247 21.4878 -50.5347
v 4.6658 20.6910 -49.8468
v 6.1247 21.4878 -50.5347
v 3.0942 21.6475 -49.8083
v -51.5540 18.7480 15.5391
v -51.0217 19.3572 14.2538
v -51.2146 19.4155 16.8212
v -51.5540 18.7480 15.5391
v -51.2146 19.4155 16.8212
v -51.0217 19.3572 14.2538
v -25.7115 15.4520 52.2686
v -24.3082 16.0668 52.6879
v -26.9918 16.2728 52.5826
v -25.7115 15.4520 52.2686
v -26.9918 16.2728 52.5826
v -24.3082 16.0668 52.6879
v 3.0914 16.1143 16.7488
v 4.1204 16.7215 16.9453
v 2.0789 16.5976 17.1263
v 3.0914 16.1143 16.7488
v 2.0789 16.5976 17.1263
v 4.1204 16.7215 16.9453
v -21.4946 21.1790 -35.6770
v -19.9030 22.0495 -35.2279
v -23.0676 22.0648 -35.3954
v -21.4946 21.1790 -35.6770
v -23.0676 22.0648 -35.3954
v -19.9030 22.0495 -35.2279
v -27.9055 15.7963 37.0117
v -28.5163 16.1291 37.5914
v -27.7664 16.2355 36.2558
v -27.9055 15.7963 37.0117
v -27.7664 16.2355 36.2558
v -28.5163 16.1291 37.5914
v 29.2392 18.8918 -16.6041
v 30.0085 19.3464 -16.7891
v 28.6128 19.3056 -16.1221
v 29.2392 18.8918 -16.6041
v 28.6128 19.3056 -16.1221
v 30.0085 19.3464 -16.7891
v -10.3760 16.1999 16.0753
v -9.2266 16.9168 15.4012
v -11.0391 16.8676 17.2165
v -10.3760 16.1999 16.0753
v -11.0391 16.8676 17.2165
v -9.2266 16.9168 15.4012
v -1.3004 19.9602 -38.9513
v -2.4051 20.4288 -39.1794
v -0.3451 20.6448 -39.1635
v -1.3004 19.9602 -38.9513
v -0.3451 20.6448 -39.1635
v -2.4051 20.4288 -39.1794
v -27.3660 18.7898 -7.7113
v -28.0344 19.4068 -8.7861
v -26.2553 19.4170 -7.1937
v -27.3660 18.7898 -7.7113
v -26.2553 19.4170 -7.1937
v -28.0344 19.4068 -8.7861
v 29.2156 15.5076 22.2111
v 30.0006 16.1105 23.3285
v 28.1015 16.2744 21.6631
v 29.2156 15.5076 22.2111
v 28.1015 16.2744 21.6631
v 30.0006 16.1105 23.3285
v -31.2359 22.8158 -51.6247
v -32.5784 23.6110 -51.4027
v -30.1059 23.5069 -52.4118
v -31.2359 22.8158 -51.6247
v -30.1059 23.5069 -52.4118
v -32.5784 23.6110 -51.4027
v -8.3020 18.6559 -12.7538
v -8.0544 19.0547 -13.5545
v -8.0983 19.0866 -11.9815
v -8.3020 18.6559 -12.7538
v -8.0983 19.0866 -11.9815
v -8.0544 19.0547 -13.5545
v 34.8587 14.2580 31.3378
v 35.4510 14.7926 30.4424
v 34.8303 14.7962 32.3790
v 34.8587 14.2580 31.3378
v 34.8303 14.7962 32.3790
v 35.4510 14.7926 30.4424
v -26.4165 22.1903 -45.4413
v -27.4981 22.8203 -46.4348
v -25.2118 23.0838 -45.0043
v -26.4165 22.1903 -45.4413
v -25.2118 23.0838 -45.0043
v -27.4981 22.8203 -46.4348
v 10.7650 14.0686 37.4498
v 10.3618 14.7168 36.1357
v 11.7202 14.7969 38.3241
v 10.7650 14.0686 37.4498
v 11.7202 14.7969 38.3241
v 10.3618 14.7168 36.1357
v -28.3364 15.8605 44.1188
v -27.0946 16.3935 43.6188
v -29.0558 16.6259 45.0574
v -28.3364 15.8605 44.1188
v -29.0558 16.6259 45.0574
v -27.0946 16.3935 43.6188
v -41.9029 18.4645 -1.5979
v -43.2158 19.0584 -1.6907
v -40.8069 19.1932 -2.1085
v -41.9029 18.4645 -1.5979
v -40.8069 19.1932 -2.1085
v -43.2158 19.0584 -1.6907
vt 0.00000 1.00000
vt 0.00000 1.00000
vt 0.00000 1.00000
vt 0.00000 1.00000
vt 0.00000 1.00000
vt 0.00000 1.00000
vt 0.00000 1.00000
vt 0.00000 1.00000
vt 0.00000 1.00000
vt 0.00000 1.00000
vt 0.00000 1.00000
vt 0.00000 1.00000
vt 0.00000 1.00000
vt 0.00000 1.00000
vt 0.00000 1.00000
vt 0.00000 1.00000
vt 0.00000 1.00000
vt 0.00000 1.00000
vt 0.00000 1.00000
vt 0.00000 1.00000
vt 0.00000 1.00000
vt 0.00000 1.00000
vt 0.00000 1.00000
vt 0.00000 1.00000
vt 0.00000 1.00000
vt 0.00000 1.00000
vt 0.00000 1.00000
vt 0.00000 1.00000
vt 0.00000 1.00000
vt 0.00000 1.00000
vt 0.00000 1.00000
vt 0.00000 1.00000
vt 0.00000 1.00000
vt 0.00000 1.00000
vt 0.00000 1.00000
vt 0.00000 1.00000
vt 0.00000 1.00000
vt 0.00000 1.00000
vt 0.00000 1.00000
vt 0.00000 1.00000
vt 0.00000 1.00000
vt 0.00000 1.00000
vt 0.00000 1.00000
vt 0.00000 1.00000
vt 0.00000 1.00000
vt 0.00000 1.00000
vt 0.00000 1.00000
vt 0.00000 1.00000
vt 0.00000 1.00000
vt 0.00000 1.00000
vt 0.00000 1.00000
vt 0.00000 1.00000
vt 0.00000 1.00000
vt 0.00000 1.00000
vt 0.00000 1.00000
vt 0.00000 1.00000
vt 0.00000 1.00000
vt 0.00000 1.00000
vt 0.00000 1.00000
vt 0.00000 1.00000
vt 0.00000 1.00000
vt 0.00000 1.00000
vt 0.00000 1.00000
vt 0.00000 1.00000
vt 0.00000 1.00000
vt 0.00000 1.00000
vt 0.00000 1.00000
vt 0.00000 1.00000
vt 0.00000 1.00000
vt 0.00000 1.00000
vt 0.00000 1.00000
vt 0.00000 1.00000
vt 0.00000 1.00000
vt 0.00000 1.00000
vt 0.00000 1.00000
vt 0.00000 1.00000
vt 0.00000 1.00000
vt 0.00000 1.00000
vt 0.00000 1.00000
vt 0.00000 1.00000
vt 0.00000 1.00000
vt 0.00000 1.00000
vt 0.00000 1.00000
vt 0.00000 1.00000
vt 0.00000 1.00000
vt 0.00000 1.00000
vt 0.00000 1.00000
vt 0.00000 1.00000
vt 0.00000 1.00000
vt 0.00000 1.00000
vt 0.00000 1.00000
vt 0.00000 1.00000
vt 0.00000 1.00000
vt 0.00000 1.00000
vt 0.00000 1.00000
vt 0.00000 1.00000
vt 0.00000 1.00000
vt 0.00000 1.00000
vt 0.00000 1.00000
vt 0.00000 1.00000
vt 0.00000 1.00000
vt 0.00000 1.00000
vt 0.00000 1.00000
vt 0.00000 1.00000
vt 0.00000 1.00000
vt 0.00000 1.00000
vt 0.00000 1.00000
vt 0.00000 1.00000
vt 0.00000 1.00000
vt 0.00000 1.00000
vt 0.00000 1.00000
vt 0.00000 1.00000
vt 0.00000 1.00000
vt 0.00000 1.00000
usemtl stone
f 1/1 2/2 3/3
f 4/4 5/5 6/6
f 7/7 8/8 9/9
f 10/10 11/11 12/12
f 13/13 14/14 15/15
f 16/16 17/17 18/18
f 19/19 20/20 21/21
f 22/22 23/23 24/24
f 25/25 26/26 27/27
f 28/28 29/29 30/30
f 31/31 32/32 33/33
f 34/34 35/35 36/36
f 37/37 38/38 39/39
f 40/40 41/41 42/42
f 43/43 44/44 45/45
f 46/46 47/47 48/48
f 49/49 50/50 51/51
f 52/52 53/53 54/54
f 55/55 56/56 57/57
f 58/58 59/59 60/60
f 61/61 62/62 63/63
f 64/64 65/65 66/66
f 67/67 68/68 69/69
f 70/70 71/71 72/72
f 73/73 74/74 75/75
f 76/76 77/77 78/78
f 79/79 80/80 81/81
f 82/82 83/83 84/84
f 85/85 86/86 87/87
f 88/88 89/89 90/90
f 91/91 92/92 93/93
f 94/94 95/95 96/96
f 97/97 98/98 99/99
f 100/100 101/101 102/102
f 103/103 104/104 105/105
f 106/106 107/107 108/108
f 109/109 110/110 111/111
f 112/112 113/113 114/114
