# Generated by TyraX. Do not edit - rebaked from the procedural graph of 'pines'.
# 9 instances of res/models/rock.obj
mtllib props.mtl
v 37.9198 12.0246 3.8352
v 39.2268 12.6745 3.4074
v 37.0742 12.7408 4.8268
v 37.9198 12.0246 3.8352
v 37.0742 12.7408 4.8268
v 39.2268 12.6745 3.4074
v 40.9567 12.7549 -5.5818
v 39.9647 13.3140 -5.2264
v 41.6548 13.3037 -6.3378
v 40.9567 12.7549 -5.5818
v 41.6548 13.3037 -6.3378
v 39.9647 13.3140 -5.2264
v -1.9174 11.2271 41.5763
v -2.5120 11.4656 41.7080
v -1.5521 11.5441 41.1581
v -1.9174 11.2271 41.5763
v -1.5521 11.5441 41.1581
v -2.5120 11.4656 41.7080
v 21.7534 11.6222 -40.0880
v 22.7943 12.2679 -39.4957
v 20.5742 12.2367 -40.1230
v 21.7534 11.6222 -40.0880
v 20.5742 12.2367 -40.1230
v 22.7943 12.2679 -39.4957
v 20.7201 10.9333 -4.9328
v 21.4214 11.4700 -5.7990
v 20.4924 11.5540 -3.9201
v 20.7201 10.9333 -4.9328
v 20.4924 11.5540 -3.9201
v 21.4214 11.4700 -5.7990
v 37.5893 12.4212 -3.8124
v 36.8788 13.0751 -2.5978
v 37.5149 13.1323 -5.1503
v 37.5893 12.4212 -3.8124
v 37.5149 13.1323 -5.1503
v 36.8788 13.0751 -2.5978
v 13.4296 11.5921 27.3787
v 12.6464 12.1042 26.9756
v 14.3236 12.0314 27.3841
v 13.4296 11.5921 27.3787
v 14.3236 12.0314 27.3841
v 12.6464 12.1042 26.9756
v -25.9702 9.8501 48.5112
v -26.2551 10.2176 49.2587
v -26.1514 10.2478 47.7699
v -25.9702 9.8501 48.5112
v -26.1514 10.2478 47.7699
v -26.2551 10.2176 49.2587
v 47.6201 13.0847 23.4287
v 48.4577 13.6282 24.3382
v 46.5234 13.7512 23.1180
v 47.6201 13.0847 23.4287
v 46.5234 13.7512 23.1180
v 48.4577 13.6282 24.3382
vt 0.00000 1.00000
vt 0.00000 1.00000
vt 0.00000 1.00000
vt 0.00000 1.00000
vt 0.00000 1.00000
vt 0.00000 1.00000
vt 0.00000 1.00000
vt 0.00000 1.00000
vt 0.00000 1.00000
vt 0.00000 1.00000
vt 0.00000 1.00000
vt 0.00000 1.00000
vt 0.00000 1.00000
vt 0.00000 1.00000
vt 0.00000 1.00000
vt 0.00000 1.00000
vt 0.00000 1.00000
vt 0.00000 1.00000
vt 0.00000 1.00000
vt 0.00000 1.00000
vt 0.00000 1.00000
vt 0.00000 1.00000
vt 0.00000 1.00000
vt 0.00000 1.00000
vt 0.00000 1.00000
vt 0.00000 1.00000
vt 0.00000 1.00000
vt 0.00000 1.00000
vt 0.00000 1.00000
vt 0.00000 1.00000
vt 0.00000 1.00000
vt 0.00000 1.00000
vt 0.00000 1.00000
vt 0.00000 1.00000
vt 0.00000 1.00000
vt 0.00000 1.00000
vt 0.00000 1.00000
vt 0.00000 1.00000
vt 0.00000 1.00000
vt 0.00000 1.00000
vt 0.00000 1.00000
vt 0.00000 1.00000
vt 0.00000 1.00000
vt 0.00000 1.00000
vt 0.00000 1.00000
vt 0.00000 1.00000
vt 0.00000 1.00000
vt 0.00000 1.00000
vt 0.00000 1.00000
vt 0.00000 1.00000
vt 0.00000 1.00000
vt 0.00000 1.00000
vt 0.00000 1.00000
vt 0.00000 1.00000
usemtl stone
f 1/1 2/2 3/3
f 4/4 5/5 6/6
f 7/7 8/8 9/9
f 10/10 11/11 12/12
f 13/13 14/14 15/15
f 16/16 17/17 18/18
f 19/19 20/20 21/21
f 22/22 23/23 24/24
f 25/25 26/26 27/27
f 28/28 29/29 30/30
f 31/31 32/32 33/33
f 34/34 35/35 36/36
f 37/37 38/38 39/39
f 40/40 41/41 42/42
f 43/43 44/44 45/45
f 46/46 47/47 48/48
f 49/49 50/50 51/51
f 52/52 53/53 54/54
