# Generated by TyraX. Do not edit - rebaked from the procedural graph of 'pines'.
# 6 instances of res/models/rock.obj
mtllib props.mtl
v -55.5204 30.8990 -32.8514
v -56.3298 31.4717 -31.9685
v -55.3094 31.5138 -33.9747
v -55.5204 30.8990 -32.8514
v -55.3094 31.5138 -33.9747
v -56.3298 31.4717 -31.9685
v 69.5046 26.7677 -22.0392
v 68.3856 27.2880 -21.8735
v 70.3060 27.3471 -22.7490
v 69.5046 26.7677 -22.0392
v 70.3060 27.3471 -22.7490
v 68.3856 27.2880 -21.8735
v 52.9563 28.8931 -2.1089
v 53.7137 29.2230 -1.7372
v 52.2227 29.3876 -2.0681
v 52.9563 28.8931 -2.1089
v 52.2227 29.3876 -2.0681
v 53.7137 29.2230 -1.7372
v 40.3055 28.9848 64.5419
v 40.9176 29.3194 64.1841
v 39.9491 29.3811 65.0928
v 40.3055 28.9848 64.5419
v 39.9491 29.3811 65.0928
v 40.9176 29.3194 64.1841
v -34.9049 30.3774 64.1898
v -35.0808 30.7836 63.3760
v -34.4425 30.8485 64.8099
v -34.9049 30.3774 64.1898
v -34.4425 30.8485 64.8099
v -35.0808 30.7836 63.3760
v 55.1057 28.6515 -37.2608
v 55.2787 28.9569 -36.6194
v 54.6745 29.0143 -37.7005
v 55.1057 28.6515 -37.2608
v 54.6745 29.0143 -37.7005
v 55.2787 28.9569 -36.6194
vt 0.00000 1.00000
vt 0.00000 1.00000
vt 0.00000 1.00000
vt 0.00000 1.00000
vt 0.00000 1.00000
vt 0.00000 1.00000
vt 0.00000 1.00000
vt 0.00000 1.00000
vt 0.00000 1.00000
vt 0.00000 1.00000
vt 0.00000 1.00000
vt 0.00000 1.00000
vt 0.00000 1.00000
vt 0.00000 1.00000
vt 0.00000 1.00000
vt 0.00000 1.00000
vt 0.00000 1.00000
vt 0.00000 1.00000
vt 0.00000 1.00000
vt 0.00000 1.00000
vt 0.00000 1.00000
vt 0.00000 1.00000
vt 0.00000 1.00000
vt 0.00000 1.00000
vt 0.00000 1.00000
vt 0.00000 1.00000
vt 0.00000 1.00000
vt 0.00000 1.00000
vt 0.00000 1.00000
vt 0.00000 1.00000
vt 0.00000 1.00000
vt 0.00000 1.00000
vt 0.00000 1.00000
vt 0.00000 1.00000
vt 0.00000 1.00000
vt 0.00000 1.00000
usemtl stone
f 1/1 2/2 3/3
f 4/4 5/5 6/6
f 7/7 8/8 9/9
f 10/10 11/11 12/12
f 13/13 14/14 15/15
f 16/16 17/17 18/18
f 19/19 20/20 21/21
f 22/22 23/23 24/24
f 25/25 26/26 27/27
f 28/28 29/29 30/30
f 31/31 32/32 33/33
f 34/34 35/35 36/36
