# Generated by TyraX. Do not edit - rebaked from the procedural graph of 'pines'.
# 23 instances of res/models/pine.obj
mtllib props.mtl
v 53.1420 22.2930 -32.8813
v 52.9757 24.5048 -32.8846
v 52.8824 24.4971 -33.3785
v 53.1420 22.2930 -32.8813
v 52.3898 24.4602 -33.2849
v 52.9757 24.5048 -32.8846
v 52.3898 24.4602 -33.2849
v 53.1420 22.2930 -32.8813
v 52.8824 24.4971 -33.3785
v 52.9757 24.5048 -32.8846
v 52.3898 24.4602 -33.2849
v 52.8824 24.4971 -33.3785
v -1.5480 23.7425 53.0304
v -1.4886 25.8256 52.9339
v -1.8640 25.8496 53.2205
v -1.5480 23.7425 53.0304
v -1.5768 25.8588 53.5960
v -1.4886 25.8256 52.9339
v -1.5768 25.8588 53.5960
v -1.5480 23.7425 53.0304
v -1.8640 25.8496 53.2205
v -1.4886 25.8256 52.9339
v -1.5768 25.8588 53.5960
v -1.8640 25.8496 53.2205
v -44.4639 24.7692 67.3864
v -44.3787 27.0608 67.4292
v -43.9056 27.0393 67.6437
v -44.4639 24.7692 67.3864
v -43.6910 27.0401 67.1702
v -44.3787 27.0608 67.4292
v -43.6910 27.0401 67.1702
v -44.4639 24.7692 67.3864
v -43.9056 27.0393 67.6437
v -44.3787 27.0608 67.4292
v -43.6910 27.0401 67.1702
v -43.9056 27.0393 67.6437
v -53.8359 24.8480 -61.6701
v -53.7598 26.4882 -61.6934
v -54.1317 26.5055 -61.6924
v -53.8359 24.8480 -61.6701
v -54.1304 26.5107 -61.3202
v -53.7598 26.4882 -61.6934
v -54.1304 26.5107 -61.3202
v -53.8359 24.8480 -61.6701
v -54.1317 26.5055 -61.6924
v -53.7598 26.4882 -61.6934
v -54.1304 26.5107 -61.3202
v -54.1317 26.5055 -61.6924
v -29.0867 22.7884 -45.9544
v -28.9959 25.0876 -46.0187
v -28.7680 25.0917 -45.5494
v -29.0867 22.7884 -45.9544
v -28.2991 25.0669 -45.7768
v -28.9959 25.0876 -46.0187
v -28.2991 25.0669 -45.7768
v -29.0867 22.7884 -45.9544
v -28.7680 25.0917 -45.5494
v -28.9959 25.0876 -46.0187
v -28.2991 25.0669 -45.7768
v -28.7680 25.0917 -45.5494
v 66.3886 23.6600 59.1544
v 66.4119 26.2790 58.9037
v 65.8703 26.3076 59.1518
v 66.3886 23.6600 59.1544
v 66.1200 26.3570 59.6911
v 66.4119 26.2790 58.9037
v 66.1200 26.3570 59.6911
v 66.3886 23.6600 59.1544
v 65.8703 26.3076 59.1518
v 66.4119 26.2790 58.9037
v 66.1200 26.3570 59.6911
v 65.8703 26.3076 59.1518
v -35.6301 23.3520 29.6570
v -35.4794 25.2477 29.5465
v -35.0522 25.2108 29.4964
v -35.6301 23.3520 29.6570
v -35.1042 25.1900 29.0682
v -35.4794 25.2477 29.5465
v -35.1042 25.1900 29.0682
v -35.6301 23.3520 29.6570
v -35.0522 25.2108 29.4964
v -35.4794 25.2477 29.5465
v -35.1042 25.1900 29.0682
v -35.0522 25.2108 29.4964
v -10.0829 22.2549 9.9717
v -9.9865 23.9992 9.9337
v -9.6037 23.9759 9.8344
v -10.0829 22.2549 9.9717
v -9.7034 23.9731 9.4510
v -9.9865 23.9992 9.9337
v -9.7034 23.9731 9.4510
v -10.0829 22.2549 9.9717
v -9.6037 23.9759 9.8344
v -9.9865 23.9992 9.9337
v -9.7034 23.9731 9.4510
v -9.6037 23.9759 9.8344
v -30.9757 24.5159 69.0693
v -30.9229 25.9389 69.0130
v -30.7427 25.9428 69.2810
v -30.9757 24.5159 69.0693
v -30.4749 25.9257 69.1012
v -30.9229 25.9389 69.0130
v -30.4749 25.9257 69.1012
v -30.9757 24.5159 69.0693
v -30.7427 25.9428 69.2810
v -30.9229 25.9389 69.0130
v -30.4749 25.9257 69.1012
v -30.7427 25.9428 69.2810
v 54.2566 22.1506 -19.3464
v 54.3333 23.7001 -19.3589
v 54.2985 23.6990 -19.7089
v 54.2566 22.1506 -19.3464
v 53.9490 23.7166 -19.6742
v 54.3333 23.7001 -19.3589
v 53.9490 23.7166 -19.6742
v 54.2566 22.1506 -19.3464
v 54.2985 23.6990 -19.7089
v 54.3333 23.7001 -19.3589
v 53.9490 23.7166 -19.6742
v 54.2985 23.6990 -19.7089
v -7.5087 22.8506 35.0345
v -7.6348 25.2496 35.0384
v -7.1572 25.2743 35.2989
v -7.5087 22.8506 35.0345
v -6.8971 25.2887 34.8207
v -7.6348 25.2496 35.0384
v -6.8971 25.2887 34.8207
v -7.5087 22.8506 35.0345
v -7.1572 25.2743 35.2989
v -7.6348 25.2496 35.0384
v -6.8971 25.2887 34.8207
v -7.1572 25.2743 35.2989
v -58.6042 24.3997 -51.5560
v -58.6714 26.4713 -51.5933
v -58.2706 26.4798 -51.8384
v -58.6042 24.3997 -51.5560
v -58.5155 26.4647 -52.2392
v -58.6714 26.4713 -51.5933
v -58.5155 26.4647 -52.2392
v -58.6042 24.3997 -51.5560
v -58.2706 26.4798 -51.8384
v -58.6714 26.4713 -51.5933
v -58.5155 26.4647 -52.2392
v -58.2706 26.4798 -51.8384
v 45.5594 22.6633 51.1152
v 45.3042 24.8412 51.1653
v 45.4424 24.8464 51.6429
v 45.5594 22.6633 51.1152
v 45.9165 24.9052 51.5050
v 45.3042 24.8412 51.1653
v 45.9165 24.9052 51.5050
v 45.5594 22.6633 51.1152
v 45.4424 24.8464 51.6429
v 45.3042 24.8412 51.1653
v 45.9165 24.9052 51.5050
v 45.4424 24.8464 51.6429
v -35.9136 24.3896 -67.4111
v -35.7722 27.0314 -67.4490
v -36.3702 27.0630 -67.4813
v -35.9136 24.3896 -67.4111
v -36.4020 27.0732 -66.8825
v -35.7722 27.0314 -67.4490
v -36.4020 27.0732 -66.8825
v -35.9136 24.3896 -67.4111
v -36.3702 27.0630 -67.4813
v -35.7722 27.0314 -67.4490
v -36.4020 27.0732 -66.8825
v -36.3702 27.0630 -67.4813
v -47.6627 23.4136 -2.9650
v -47.6895 25.1495 -2.9852
v -47.3924 25.1570 -2.7272
v -47.6627 23.4136 -2.9650
v -47.1345 25.1576 -3.0244
v -47.6895 25.1495 -2.9852
v -47.1345 25.1576 -3.0244
v -47.6627 23.4136 -2.9650
v -47.3924 25.1570 -2.7272
v -47.6895 25.1495 -2.9852
v -47.1345 25.1576 -3.0244
v -47.3924 25.1570 -2.7272
v 0.4322 24.2523 60.7638
v 0.2533 26.1645 60.6299
v -0.1793 26.1271 60.6732
v 0.4322 24.2523 60.7638
v -0.1389 26.1612 61.1064
v 0.2533 26.1645 60.6299
v -0.1389 26.1612 61.1064
v 0.4322 24.2523 60.7638
v -0.1793 26.1271 60.6732
v 0.2533 26.1645 60.6299
v -0.1389 26.1612 61.1064
v -0.1793 26.1271 60.6732
v 74.3218 22.3706 1.3881
v 74.5123 24.9039 1.3722
v 74.7377 24.8903 1.9019
v 74.3218 22.3706 1.3881
v 75.2658 24.8491 1.6761
v 74.5123 24.9039 1.3722
v 75.2658 24.8491 1.6761
v 74.3218 22.3706 1.3881
v 74.7377 24.8903 1.9019
v 74.5123 24.9039 1.3722
v 75.2658 24.8491 1.6761
v 74.7377 24.8903 1.9019
v -39.0860 23.6926 -54.9107
v -39.1312 25.0306 -54.9468
v -39.3922 25.0176 -55.1013
v -39.0860 23.6926 -54.9107
v -39.5469 25.0194 -54.8401
v -39.1312 25.0306 -54.9468
v -39.5469 25.0194 -54.8401
v -39.0860 23.6926 -54.9107
v -39.3922 25.0176 -55.1013
v -39.1312 25.0306 -54.9468
v -39.5469 25.0194 -54.8401
v -39.3922 25.0176 -55.1013
v -73.8342 26.1195 69.2006
v -73.6996 28.5915 69.1678
v -73.1898 28.5606 68.9351
v -73.8342 26.1195 69.2006
v -73.4225 28.5665 68.4245
v -73.6996 28.5915 69.1678
v -73.4225 28.5665 68.4245
v -73.8342 26.1195 69.2006
v -73.1898 28.5606 68.9351
v -73.6996 28.5915 69.1678
v -73.4225 28.5665 68.4245
v -73.1898 28.5606 68.9351
v 34.4082 22.1938 -17.7636
v 34.1394 24.4634 -17.7462
v 34.0698 24.4591 -18.2595
v 34.4082 22.1938 -17.7636
v 33.5601 24.3982 -18.1898
v 34.1394 24.4634 -17.7462
v 33.5601 24.3982 -18.1898
v 34.4082 22.1938 -17.7636
v 34.0698 24.4591 -18.2595
v 34.1394 24.4634 -17.7462
v 33.5601 24.3982 -18.1898
v 34.0698 24.4591 -18.2595
v 7.6941 21.9598 30.4375
v 7.8348 23.5865 30.4871
v 7.5927 23.5989 30.7671
v 7.6941 21.9598 30.4375
v 7.8712 23.5674 31.0092
v 7.8348 23.5865 30.4871
v 7.8712 23.5674 31.0092
v 7.6941 21.9598 30.4375
v 7.5927 23.5989 30.7671
v 7.8348 23.5865 30.4871
v 7.8712 23.5674 31.0092
v 7.5927 23.5989 30.7671
v -69.8721 25.2402 -67.4196
v -69.8552 27.4407 -67.2502
v -70.3527 27.4484 -67.3019
v -69.8721 25.2402 -67.4196
v -70.4048 27.4107 -66.8058
v -69.8552 27.4407 -67.2502
v -70.4048 27.4107 -66.8058
v -69.8721 25.2402 -67.4196
v -70.3527 27.4484 -67.3019
v -69.8552 27.4407 -67.2502
v -70.4048 27.4107 -66.8058
v -70.3527 27.4484 -67.3019
v 13.7210 24.4393 66.5490
v 13.9720 27.2571 66.3402
v 14.5325 27.2304 66.6541
v 13.7210 24.4393 66.5490
v 14.8424 27.1614 66.0949
v 13.9720 27.2571 66.3402
v 14.8424 27.1614 66.0949
v 13.7210 24.4393 66.5490
v 14.5325 27.2304 66.6541
v 13.9720 27.2571 66.3402
v 14.8424 27.1614 66.0949
v 14.5325 27.2304 66.6541
vt 0.00000 1.00000
vt 0.00000 1.00000
vt 0.00000 1.00000
vt 0.00000 1.00000
vt 0.00000 1.00000
vt 0.00000 1.00000
vt 0.00000 1.00000
vt 0.00000 1.00000
vt 0.00000 1.00000
vt 0.00000 1.00000
vt 0.00000 1.00000
vt 0.00000 1.00000
vt 0.00000 1.00000
vt 0.00000 1.00000
vt 0.00000 1.00000
vt 0.00000 1.00000
vt 0.00000 1.00000
vt 0.00000 1.00000
vt 0.00000 1.00000
vt 0.00000 1.00000
vt 0.00000 1.00000
vt 0.00000 1.00000
vt 0.00000 1.00000
vt 0.00000 1.00000
vt 0.00000 1.00000
vt 0.00000 1.00000
vt 0.00000 1.00000
vt 0.00000 1.00000
vt 0.00000 1.00000
vt 0.00000 1.00000
vt 0.00000 1.00000
vt 0.00000 1.00000
vt 0.00000 1.00000
vt 0.00000 1.00000
vt 0.00000 1.00000
vt 0.00000 1.00000
vt 0.00000 1.00000
vt 0.00000 1.00000
vt 0.00000 1.00000
vt 0.00000 1.00000
vt 0.00000 1.00000
vt 0.00000 1.00000
vt 0.00000 1.00000
vt 0.00000 1.00000
vt 0.00000 1.00000
vt 0.00000 1.00000
vt 0.00000 1.00000
vt 0.00000 1.00000
vt 0.00000 1.00000
vt 0.00000 1.00000
vt 0.00000 1.00000
vt 0.00000 1.00000
vt 0.00000 1.00000
vt 0.00000 1.00000
vt 0.00000 1.00000
vt 0.00000 1.00000
vt 0.00000 1.00000
vt 0.00000 1.00000
vt 0.00000 1.00000
vt 0.00000 1.00000
vt 0.00000 1.00000
vt 0.00000 1.00000
vt 0.00000 1.00000
vt 0.00000 1.00000
vt 0.00000 1.00000
vt 0.00000 1.00000
vt 0.00000 1.00000
vt 0.00000 1.00000
vt 0.00000 1.00000
vt 0.00000 1.00000
vt 0.00000 1.00000
vt 0.00000 1.00000
vt 0.00000 1.00000
vt 0.00000 1.00000
vt 0.00000 1.00000
vt 0.00000 1.00000
vt 0.00000 1.00000
vt 0.00000 1.00000
vt 0.00000 1.00000
vt 0.00000 1.00000
vt 0.00000 1.00000
vt 0.00000 1.00000
vt 0.00000 1.00000
vt 0.00000 1.00000
vt 0.00000 1.00000
vt 0.00000 1.00000
vt 0.00000 1.00000
vt 0.00000 1.00000
vt 0.00000 1.00000
vt 0.00000 1.00000
vt 0.00000 1.00000
vt 0.00000 1.00000
vt 0.00000 1.00000
vt 0.00000 1.00000
vt 0.00000 1.00000
vt 0.00000 1.00000
vt 0.00000 1.00000
vt 0.00000 1.00000
vt 0.00000 1.00000
vt 0.00000 1.00000
vt 0.00000 1.00000
vt 0.00000 1.00000
vt 0.00000 1.00000
vt 0.00000 1.00000
vt 0.00000 1.00000
vt 0.00000 1.00000
vt 0.00000 1.00000
vt 0.00000 1.00000
vt 0.00000 1.00000
vt 0.00000 1.00000
vt 0.00000 1.00000
vt 0.00000 1.00000
vt 0.00000 1.00000
vt 0.00000 1.00000
vt 0.00000 1.00000
vt 0.00000 1.00000
vt 0.00000 1.00000
vt 0.00000 1.00000
vt 0.00000 1.00000
vt 0.00000 1.00000
vt 0.00000 1.00000
vt 0.00000 1.00000
vt 0.00000 1.00000
vt 0.00000 1.00000
vt 0.00000 1.00000
vt 0.00000 1.00000
vt 0.00000 1.00000
vt 0.00000 1.00000
vt 0.00000 1.00000
vt 0.00000 1.00000
vt 0.00000 1.00000
vt 0.00000 1.00000
vt 0.00000 1.00000
vt 0.00000 1.00000
vt 0.00000 1.00000
vt 0.00000 1.00000
vt 0.00000 1.00000
vt 0.00000 1.00000
vt 0.00000 1.00000
vt 0.00000 1.00000
vt 0.00000 1.00000
vt 0.00000 1.00000
vt 0.00000 1.00000
vt 0.00000 1.00000
vt 0.00000 1.00000
vt 0.00000 1.00000
vt 0.00000 1.00000
vt 0.00000 1.00000
vt 0.00000 1.00000
vt 0.00000 1.00000
vt 0.00000 1.00000
vt 0.00000 1.00000
vt 0.00000 1.00000
vt 0.00000 1.00000
vt 0.00000 1.00000
vt 0.00000 1.00000
vt 0.00000 1.00000
vt 0.00000 1.00000
vt 0.00000 1.00000
vt 0.00000 1.00000
vt 0.00000 1.00000
vt 0.00000 1.00000
vt 0.00000 1.00000
vt 0.00000 1.00000
vt 0.00000 1.00000
vt 0.00000 1.00000
vt 0.00000 1.00000
vt 0.00000 1.00000
vt 0.00000 1.00000
vt 0.00000 1.00000
vt 0.00000 1.00000
vt 0.00000 1.00000
vt 0.00000 1.00000
vt 0.00000 1.00000
vt 0.00000 1.00000
vt 0.00000 1.00000
vt 0.00000 1.00000
vt 0.00000 1.00000
vt 0.00000 1.00000
vt 0.00000 1.00000
vt 0.00000 1.00000
vt 0.00000 1.00000
vt 0.00000 1.00000
vt 0.00000 1.00000
vt 0.00000 1.00000
vt 0.00000 1.00000
vt 0.00000 1.00000
vt 0.00000 1.00000
vt 0.00000 1.00000
vt 0.00000 1.00000
vt 0.00000 1.00000
vt 0.00000 1.00000
vt 0.00000 1.00000
vt 0.00000 1.00000
vt 0.00000 1.00000
vt 0.00000 1.00000
vt 0.00000 1.00000
vt 0.00000 1.00000
vt 0.00000 1.00000
vt 0.00000 1.00000
vt 0.00000 1.00000
vt 0.00000 1.00000
vt 0.00000 1.00000
vt 0.00000 1.00000
vt 0.00000 1.00000
vt 0.00000 1.00000
vt 0.00000 1.00000
vt 0.00000 1.00000
vt 0.00000 1.00000
vt 0.00000 1.00000
vt 0.00000 1.00000
vt 0.00000 1.00000
vt 0.00000 1.00000
vt 0.00000 1.00000
vt 0.00000 1.00000
vt 0.00000 1.00000
vt 0.00000 1.00000
vt 0.00000 1.00000
vt 0.00000 1.00000
vt 0.00000 1.00000
vt 0.00000 1.00000
vt 0.00000 1.00000
vt 0.00000 1.00000
vt 0.00000 1.00000
vt 0.00000 1.00000
vt 0.00000 1.00000
vt 0.00000 1.00000
vt 0.00000 1.00000
vt 0.00000 1.00000
vt 0.00000 1.00000
vt 0.00000 1.00000
vt 0.00000 1.00000
vt 0.00000 1.00000
vt 0.00000 1.00000
vt 0.00000 1.00000
vt 0.00000 1.00000
vt 0.00000 1.00000
vt 0.00000 1.00000
vt 0.00000 1.00000
vt 0.00000 1.00000
vt 0.00000 1.00000
vt 0.00000 1.00000
vt 0.00000 1.00000
vt 0.00000 1.00000
vt 0.00000 1.00000
vt 0.00000 1.00000
vt 0.00000 1.00000
vt 0.00000 1.00000
vt 0.00000 1.00000
vt 0.00000 1.00000
vt 0.00000 1.00000
vt 0.00000 1.00000
vt 0.00000 1.00000
vt 0.00000 1.00000
vt 0.00000 1.00000
vt 0.00000 1.00000
vt 0.00000 1.00000
vt 0.00000 1.00000
vt 0.00000 1.00000
vt 0.00000 1.00000
vt 0.00000 1.00000
vt 0.00000 1.00000
vt 0.00000 1.00000
vt 0.00000 1.00000
vt 0.00000 1.00000
vt 0.00000 1.00000
vt 0.00000 1.00000
vt 0.00000 1.00000
vt 0.00000 1.00000
vt 0.00000 1.00000
vt 0.00000 1.00000
vt 0.00000 1.00000
vt 0.00000 1.00000
vt 0.00000 1.00000
vt 0.00000 1.00000
vt 0.00000 1.00000
usemtl bark
f 1/1 2/2 3/3
f 4/4 5/5 6/6
f 7/7 8/8 9/9
f 10/10 11/11 12/12
f 13/13 14/14 15/15
f 16/16 17/17 18/18
f 19/19 20/20 21/21
f 22/22 23/23 24/24
f 25/25 26/26 27/27
f 28/28 29/29 30/30
f 31/31 32/32 33/33
f 34/34 35/35 36/36
f 37/37 38/38 39/39
f 40/40 41/41 42/42
f 43/43 44/44 45/45
f 46/46 47/47 48/48
f 49/49 50/50 51/51
f 52/52 53/53 54/54
f 55/55 56/56 57/57
f 58/58 59/59 60/60
f 61/61 62/62 63/63
f 64/64 65/65 66/66
f 67/67 68/68 69/69
f 70/70 71/71 72/72
f 73/73 74/74 75/75
f 76/76 77/77 78/78
f 79/79 80/80 81/81
f 82/82 83/83 84/84
f 85/85 86/86 87/87
f 88/88 89/89 90/90
f 91/91 92/92 93/93
f 94/94 95/95 96/96
f 97/97 98/98 99/99
f 100/100 101/101 102/102
f 103/103 104/104 105/105
f 106/106 107/107 108/108
f 109/109 110/110 111/111
f 112/112 113/113 114/114
f 115/115 116/116 117/117
f 118/118 119/119 120/120
f 121/121 122/122 123/123
f 124/124 125/125 126/126
f 127/127 128/128 129/129
f 130/130 131/131 132/132
f 133/133 134/134 135/135
f 136/136 137/137 138/138
f 139/139 140/140 141/141
f 142/142 143/143 144/144
f 145/145 146/146 147/147
f 148/148 149/149 150/150
f 151/151 152/152 153/153
f 154/154 155/155 156/156
f 157/157 158/158 159/159
f 160/160 161/161 162/162
f 163/163 164/164 165/165
f 166/166 167/167 168/168
f 169/169 170/170 171/171
f 172/172 173/173 174/174
f 175/175 176/176 177/177
f 178/178 179/179 180/180
f 181/181 182/182 183/183
f 184/184 185/185 186/186
f 187/187 188/188 189/189
f 190/190 191/191 192/192
f 193/193 194/194 195/195
f 196/196 197/197 198/198
f 199/199 200/200 201/201
f 202/202 203/203 204/204
f 205/205 206/206 207/207
f 208/208 209/209 210/210
f 211/211 212/212 213/213
f 214/214 215/215 216/216
f 217/217 218/218 219/219
f 220/220 221/221 222/222
f 223/223 224/224 225/225
f 226/226 227/227 228/228
f 229/229 230/230 231/231
f 232/232 233/233 234/234
f 235/235 236/236 237/237
f 238/238 239/239 240/240
f 241/241 242/242 243/243
f 244/244 245/245 246/246
f 247/247 248/248 249/249
f 250/250 251/251 252/252
f 253/253 254/254 255/255
f 256/256 257/257 258/258
f 259/259 260/260 261/261
f 262/262 263/263 264/264
f 265/265 266/266 267/267
f 268/268 269/269 270/270
f 271/271 272/272 273/273
f 274/274 275/275 276/276
v 52.5387 26.3994 -33.0876
v 53.8480 23.9745 -34.7337
v 54.3722 24.0180 -31.9600
v 51.0821 23.7674 -34.2078
v 54.3722 24.0180 -31.9600
v 53.8480 23.9745 -34.7337
v 52.5387 26.3994 -33.0876
v 54.3722 24.0180 -31.9600
v 51.6062 23.8109 -31.4341
v 51.0821 23.7674 -34.2078
v 51.6062 23.8109 -31.4341
v 54.3722 24.0180 -31.9600
v 52.5387 26.3994 -33.0876
v 51.6062 23.8109 -31.4341
v 51.0821 23.7674 -34.2078
v 52.5387 26.3994 -33.0876
v 51.0821 23.7674 -34.2078
v 53.8480 23.9745 -34.7337
v 52.4389 27.7265 -33.0895
v 52.3307 25.4919 -34.5391
v 54.0539 25.6232 -33.3617
v 52.4389 27.7265 -33.0895
v 54.0539 25.6232 -33.3617
v 52.8797 25.5375 -31.6335
v 52.4389 27.7265 -33.0895
v 52.8797 25.5375 -31.6335
v 51.1565 25.4062 -32.8108
v 54.0539 25.6232 -33.3617
v 51.1565 25.4062 -32.8108
v 52.8797 25.5375 -31.6335
v 52.4389 27.7265 -33.0895
v 51.1565 25.4062 -32.8108
v 52.3307 25.4919 -34.5391
v 54.0539 25.6232 -33.3617
v 52.3307 25.4919 -34.5391
v 51.1565 25.4062 -32.8108
v 52.3503 28.9061 -33.0912
v 52.3241 26.9751 -33.9891
v 53.3926 27.0565 -33.2592
v 52.3503 28.9061 -33.0912
v 53.3926 27.0565 -33.2592
v 52.6646 27.0033 -32.1877
v 52.3503 28.9061 -33.0912
v 52.6646 27.0033 -32.1877
v 51.5961 26.9219 -32.9176
v 53.3926 27.0565 -33.2592
v 51.5961 26.9219 -32.9176
v 52.6646 27.0033 -32.1877
v 52.3503 28.9061 -33.0912
v 51.5961 26.9219 -32.9176
v 52.3241 26.9751 -33.9891
v 53.3926 27.0565 -33.2592
v 52.3241 26.9751 -33.9891
v 51.5961 26.9219 -32.9176
v -1.4812 27.6476 53.1813
v -3.4090 25.3281 53.0409
v -1.3010 25.1935 51.4318
v -1.7961 25.3799 55.1495
v -1.3010 25.1935 51.4318
v -3.4090 25.3281 53.0409
v -1.4812 27.6476 53.1813
v -1.3010 25.1935 51.4318
v 0.3119 25.2453 53.5405
v -1.7961 25.3799 55.1495
v 0.3119 25.2453 53.5405
v -1.3010 25.1935 51.4318
v -1.4812 27.6476 53.1813
v 0.3119 25.2453 53.5405
v -1.7961 25.3799 55.1495
v -1.4812 27.6476 53.1813
v -1.7961 25.3799 55.1495
v -3.4090 25.3281 53.0409
v -1.4456 28.8974 53.1234
v -2.6091 26.8848 54.0627
v -2.3498 26.7872 52.1154
v -1.4456 28.8974 53.1234
v -2.3498 26.7872 52.1154
v -0.4009 26.7438 52.3771
v -1.4456 28.8974 53.1234
v -0.4009 26.7438 52.3771
v -0.6602 26.8414 54.3244
v -2.3498 26.7872 52.1154
v -0.6602 26.8414 54.3244
v -0.4009 26.7438 52.3771
v -1.4456 28.8974 53.1234
v -0.6602 26.8414 54.3244
v -2.6091 26.8848 54.0627
v -2.3498 26.7872 52.1154
v -2.6091 26.8848 54.0627
v -0.6602 26.8414 54.3244
v -1.4140 30.0084 53.0719
v -2.1500 28.2468 53.6781
v -1.9892 28.1863 52.4708
v -1.4140 30.0084 53.0719
v -1.9892 28.1863 52.4708
v -0.7809 28.1593 52.6330
v -1.4140 30.0084 53.0719
v -0.7809 28.1593 52.6330
v -0.9416 28.2199 53.8403
v -1.9892 28.1863 52.4708
v -0.9416 28.2199 53.8403
v -0.7809 28.1593 52.6330
v -1.4140 30.0084 53.0719
v -0.9416 28.2199 53.8403
v -2.1500 28.2468 53.6781
v -1.9892 28.1863 52.4708
v -2.1500 28.2468 53.6781
v -0.9416 28.2199 53.8403
v -43.9611 29.0366 67.3368
v -43.3319 26.3763 69.2198
v -45.9886 26.4976 68.0157
v -42.1266 26.3812 66.5609
v -45.9886 26.4976 68.0157
v -43.3319 26.3763 69.2198
v -43.9611 29.0366 67.3368
v -45.9886 26.4976 68.0157
v -44.7832 26.5025 65.3568
v -42.1266 26.3812 66.5609
v -44.7832 26.5025 65.3568
v -45.9886 26.4976 68.0157
v -43.9611 29.0366 67.3368
v -44.7832 26.5025 65.3568
v -42.1266 26.3812 66.5609
v -43.9611 29.0366 67.3368
v -42.1266 26.3812 66.5609
v -43.3319 26.3763 69.2198
v -43.9100 30.4115 67.3625
v -42.6036 28.0564 67.9504
v -44.6264 28.1173 68.7123
v -43.9100 30.4115 67.3625
v -44.6264 28.1173 68.7123
v -45.3866 28.1834 66.6890
v -43.9100 30.4115 67.3625
v -45.3866 28.1834 66.6890
v -43.3638 28.1225 65.9271
v -44.6264 28.1173 68.7123
v -43.3638 28.1225 65.9271
v -45.3866 28.1834 66.6890
v -43.9100 30.4115 67.3625
v -43.3638 28.1225 65.9271
v -42.6036 28.0564 67.9504
v -44.6264 28.1173 68.7123
v -42.6036 28.0564 67.9504
v -43.3638 28.1225 65.9271
v -43.8645 31.6337 67.3854
v -43.0756 29.6083 67.7393
v -44.3298 29.6461 68.2117
v -43.8645 31.6337 67.3854
v -44.3298 29.6461 68.2117
v -44.8011 29.6870 66.9572
v -43.8645 31.6337 67.3854
v -44.8011 29.6870 66.9572
v -43.5469 29.6492 66.4848
v -44.3298 29.6461 68.2117
v -43.5469 29.6492 66.4848
v -44.8011 29.6870 66.9572
v -43.8645 31.6337 67.3854
v -43.5469 29.6492 66.4848
v -43.0756 29.6083 67.7393
v -44.3298 29.6461 68.2117
v -43.0756 29.6083 67.7393
v -43.5469 29.6492 66.4848
v -53.8792 27.9210 -61.5270
v -55.0129 26.0958 -62.5426
v -52.9250 25.9989 -62.5484
v -55.0058 26.1252 -60.4527
v -52.9250 25.9989 -62.5484
v -55.0129 26.0958 -62.5426
v -53.8792 27.9210 -61.5270
v -52.9250 25.9989 -62.5484
v -52.9178 26.0283 -60.4585
v -55.0058 26.1252 -60.4527
v -52.9178 26.0283 -60.4585
v -52.9250 25.9989 -62.5484
v -53.8792 27.9210 -61.5270
v -52.9178 26.0283 -60.4585
v -55.0058 26.1252 -60.4527
v -53.8792 27.9210 -61.5270
v -55.0058 26.1252 -60.4527
v -55.0129 26.0958 -62.5426
v -53.8336 28.9052 -61.5410
v -55.0032 27.3157 -61.5146
v -53.9134 27.2495 -62.6123
v -53.8336 28.9052 -61.5410
v -53.9134 27.2495 -62.6123
v -52.8160 27.2142 -61.5207
v -53.8336 28.9052 -61.5410
v -52.8160 27.2142 -61.5207
v -53.9059 27.2803 -60.4230
v -53.9134 27.2495 -62.6123
v -53.9059 27.2803 -60.4230
v -52.8160 27.2142 -61.5207
v -53.8336 28.9052 -61.5410
v -53.9059 27.2803 -60.4230
v -55.0032 27.3157 -61.5146
v -53.9134 27.2495 -62.6123
v -55.0032 27.3157 -61.5146
v -53.9059 27.2803 -60.4230
v -53.7930 29.7800 -61.5534
v -54.5370 28.3899 -61.5313
v -53.8613 28.3489 -62.2119
v -53.7930 29.7800 -61.5534
v -53.8613 28.3489 -62.2119
v -53.1809 28.3270 -61.5351
v -53.7930 29.7800 -61.5534
v -53.1809 28.3270 -61.5351
v -53.8566 28.3680 -60.8545
v -53.8613 28.3489 -62.2119
v -53.8566 28.3680 -60.8545
v -53.1809 28.3270 -61.5351
v -53.7930 29.7800 -61.5534
v -53.8566 28.3680 -60.8545
v -54.5370 28.3899 -61.5313
v -53.8613 28.3489 -62.2119
v -54.5370 28.3899 -61.5313
v -53.8566 28.3680 -60.8545
v -28.5688 27.0699 -45.9535
v -29.3484 24.5455 -43.9243
v -30.6281 24.5224 -46.5598
v -26.7154 24.4059 -45.2015
v -30.6281 24.5224 -46.5598
v -29.3484 24.5455 -43.9243
v -28.5688 27.0699 -45.9535
v -30.6281 24.5224 -46.5598
v -27.9950 24.3827 -47.8370
v -26.7154 24.4059 -45.2015
v -27.9950 24.3827 -47.8370
v -30.6281 24.5224 -46.5598
v -28.5688 27.0699 -45.9535
v -27.9950 24.3827 -47.8370
v -26.7154 24.4059 -45.2015
v -28.5688 27.0699 -45.9535
v -26.7154 24.4059 -45.2015
v -29.3484 24.5455 -43.9243
v -28.5144 28.4494 -45.9920
v -27.9349 26.1623 -44.5473
v -29.9843 26.2233 -45.2588
v -28.5144 28.4494 -45.9920
v -29.9843 26.2233 -45.2588
v -29.2754 26.1381 -47.3082
v -28.5144 28.4494 -45.9920
v -29.2754 26.1381 -47.3082
v -27.2260 26.0770 -46.5967
v -29.9843 26.2233 -45.2588
v -27.2260 26.0770 -46.5967
v -29.2754 26.1381 -47.3082
v -28.5144 28.4494 -45.9920
v -27.2260 26.0770 -46.5967
v -27.9349 26.1623 -44.5473
v -29.9843 26.2233 -45.2588
v -27.9349 26.1623 -44.5473
v -27.2260 26.0770 -46.5967
v -28.4660 29.6756 -46.0263
v -28.1291 27.6905 -45.1147
v -29.3997 27.7283 -45.5558
v -28.4660 29.6756 -46.0263
v -29.3997 27.7283 -45.5558
v -28.9602 27.6754 -46.8264
v -28.4660 29.6756 -46.0263
v -28.9602 27.6754 -46.8264
v -27.6896 27.6376 -46.3854
v -29.3997 27.7283 -45.5558
v -27.6896 27.6376 -46.3854
v -28.9602 27.6754 -46.8264
v -28.4660 29.6756 -46.0263
v -27.6896 27.6376 -46.3854
v -28.1291 27.6905 -45.1147
v -29.3997 27.7283 -45.5558
v -28.1291 27.6905 -45.1147
v -27.6896 27.6376 -46.3854
v 66.2862 28.5879 59.0801
v 64.0381 25.5611 58.5466
v 67.0792 25.4007 57.1534
v 65.4403 25.8386 61.5752
v 67.0792 25.4007 57.1534
v 64.0381 25.5611 58.5466
v 66.2862 28.5879 59.0801
v 67.0792 25.4007 57.1534
v 68.4814 25.6781 60.1819
v 65.4403 25.8386 61.5752
v 68.4814 25.6781 60.1819
v 67.0792 25.4007 57.1534
v 66.2862 28.5879 59.0801
v 68.4814 25.6781 60.1819
v 65.4403 25.8386 61.5752
v 66.2862 28.5879 59.0801
v 65.4403 25.8386 61.5752
v 64.0381 25.5611 58.5466
v 66.3001 30.1593 58.9297
v 64.6840 27.6243 59.9102
v 65.5424 27.3949 57.5941
v 66.3001 30.1593 58.9297
v 65.5424 27.3949 57.5941
v 67.8697 27.4562 58.4506
v 66.3001 30.1593 58.9297
v 67.8697 27.4562 58.4506
v 67.0113 27.6856 60.7667
v 65.5424 27.3949 57.5941
v 67.0113 27.6856 60.7667
v 67.8697 27.4562 58.4506
v 66.3001 30.1593 58.9297
v 67.0113 27.6856 60.7667
v 64.6840 27.6243 59.9102
v 65.5424 27.3949 57.5941
v 64.6840 27.6243 59.9102
v 67.0113 27.6856 60.7667
v 66.3126 31.5561 58.7959
v 65.3048 29.3384 59.4657
v 65.8370 29.1962 58.0298
v 66.3126 31.5561 58.7959
v 65.8370 29.1962 58.0298
v 67.2799 29.2342 58.5608
v 66.3126 31.5561 58.7959
v 67.2799 29.2342 58.5608
v 66.7477 29.3764 59.9967
v 65.8370 29.1962 58.0298
v 66.7477 29.3764 59.9967
v 67.2799 29.2342 58.5608
v 66.3126 31.5561 58.7959
v 66.7477 29.3764 59.9967
v 65.3048 29.3384 59.4657
v 65.8370 29.1962 58.0298
v 65.3048 29.3384 59.4657
v 66.7477 29.3764 59.9967
v -35.1613 26.8618 29.2115
v -33.9863 24.6683 30.3981
v -36.3855 24.8753 30.6796
v -34.2784 24.5513 27.9941
v -36.3855 24.8753 30.6796
v -33.9863 24.6683 30.3981
v -35.1613 26.8618 29.2115
v -36.3855 24.8753 30.6796
v -36.6777 24.7583 28.2755
v -34.2784 24.5513 27.9941
v -36.6777 24.7583 28.2755
v -36.3855 24.8753 30.6796
v -35.1613 26.8618 29.2115
v -36.6777 24.7583 28.2755
v -34.2784 24.5513 27.9941
v -35.1613 26.8618 29.2115
v -34.2784 24.5513 27.9941
v -33.9863 24.6683 30.3981
v -35.0709 27.9992 29.1452
v -33.9649 25.9951 29.1083
v -35.0685 26.1648 30.5150
v -35.0709 27.9992 29.1452
v -35.0685 26.1648 30.5150
v -36.4782 26.2119 29.4032
v -35.0709 27.9992 29.1452
v -36.4782 26.2119 29.4032
v -35.3745 26.0422 27.9966
v -35.0685 26.1648 30.5150
v -35.3745 26.0422 27.9966
v -36.4782 26.2119 29.4032
v -35.0709 27.9992 29.1452
v -35.3745 26.0422 27.9966
v -33.9649 25.9951 29.1083
v -35.0685 26.1648 30.5150
v -33.9649 25.9951 29.1083
v -35.3745 26.0422 27.9966
v -34.9906 29.0103 29.0863
v -34.3420 27.3001 29.0907
v -35.0263 27.4053 29.9628
v -34.9906 29.0103 29.0863
v -35.0263 27.4053 29.9628
v -35.9003 27.4346 29.2735
v -34.9906 29.0103 29.0863
v -35.9003 27.4346 29.2735
v -35.2160 27.3293 28.4014
v -35.0263 27.4053 29.9628
v -35.2160 27.3293 28.4014
v -35.9003 27.4346 29.2735
v -34.9906 29.0103 29.0863
v -35.2160 27.3293 28.4014
v -34.3420 27.3001 29.0907
v -35.0263 27.4053 29.9628
v -34.3420 27.3001 29.0907
v -35.2160 27.3293 28.4014
v -9.7613 25.4979 9.6595
v -8.5163 23.4635 10.5000
v -10.6654 23.5944 11.0576
v -9.0758 23.4475 8.3474
v -10.6654 23.5944 11.0576
v -8.5163 23.4635 10.5000
v -9.7613 25.4979 9.6595
v -10.6654 23.5944 11.0576
v -11.2249 23.5785 8.9050
v -9.0758 23.4475 8.3474
v -11.2249 23.5785 8.9050
v -10.6654 23.5944 11.0576
v -9.7613 25.4979 9.6595
v -11.2249 23.5785 8.9050
v -9.0758 23.4475 8.3474
v -9.7613 25.4979 9.6595
v -9.0758 23.4475 8.3474
v -8.5163 23.4635 10.5000
v -9.7035 26.5445 9.6367
v -8.6743 24.7316 9.3826
v -9.5069 24.8085 10.8021
v -9.7035 26.5445 9.6367
v -9.5069 24.8085 10.8021
v -10.9256 24.8688 9.9667
v -9.7035 26.5445 9.6367
v -10.9256 24.8688 9.9667
v -10.0930 24.7918 8.5472
v -9.5069 24.8085 10.8021
v -10.0930 24.7918 8.5472
v -10.9256 24.8688 9.9667
v -9.7035 26.5445 9.6367
v -10.0930 24.7918 8.5472
v -8.6743 24.7316 9.3826
v -9.5069 24.8085 10.8021
v -8.6743 24.7316 9.3826
v -10.0930 24.7918 8.5472
v -9.6521 27.4749 9.6164
v -9.0377 25.9206 9.4682
v -9.5539 25.9683 10.3484
v -9.6521 27.4749 9.6164
v -9.5539 25.9683 10.3484
v -10.4335 26.0056 9.8304
v -9.6521 27.4749 9.6164
v -10.4335 26.0056 9.8304
v -9.9173 25.9579 8.9503
v -9.5539 25.9683 10.3484
v -9.9173 25.9579 8.9503
v -10.4335 26.0056 9.8304
v -9.6521 27.4749 9.6164
v -9.9173 25.9579 8.9503
v -9.0377 25.9206 9.4682
v -9.5539 25.9683 10.3484
v -9.0377 25.9206 9.4682
v -9.9173 25.9579 8.9503
v -30.6531 27.1655 69.0083
v -30.9590 25.6118 70.3295
v -31.9708 25.5897 68.8243
v -29.4552 25.5160 69.3199
v -31.9708 25.5897 68.8243
v -30.9590 25.6118 70.3295
v -30.6531 27.1655 69.0083
v -31.9708 25.5897 68.8243
v -30.4670 25.4939 67.8148
v -29.4552 25.5160 69.3199
v -30.4670 25.4939 67.8148
v -31.9708 25.5897 68.8243
v -30.6531 27.1655 69.0083
v -30.4670 25.4939 67.8148
v -29.4552 25.5160 69.3199
v -30.6531 27.1655 69.0083
v -29.4552 25.5160 69.3199
v -30.9590 25.6118 70.3295
v -30.6215 28.0193 68.9745
v -30.1443 26.6079 69.8192
v -31.4619 26.6465 69.5596
v -30.6215 28.0193 68.9745
v -31.4619 26.6465 69.5596
v -31.2042 26.5848 68.2424
v -30.6215 28.0193 68.9745
v -31.2042 26.5848 68.2424
v -29.8866 26.5462 68.5020
v -31.4619 26.6465 69.5596
v -29.8866 26.5462 68.5020
v -31.2042 26.5848 68.2424
v -30.6215 28.0193 68.9745
v -29.8866 26.5462 68.5020
v -30.1443 26.6079 69.8192
v -31.4619 26.6465 69.5596
v -30.1443 26.6079 69.8192
v -29.8866 26.5462 68.5020
v -30.5933 28.7781 68.9444
v -30.3105 27.5521 69.4820
v -31.1274 27.5760 69.3211
v -30.5933 28.7781 68.9444
v -31.1274 27.5760 69.3211
v -30.9676 27.5378 68.5045
v -30.5933 28.7781 68.9444
v -30.9676 27.5378 68.5045
v -30.1507 27.5138 68.6654
v -31.1274 27.5760 69.3211
v -30.1507 27.5138 68.6654
v -30.9676 27.5378 68.5045
v -30.5933 28.7781 68.9444
v -30.1507 27.5138 68.6654
v -30.3105 27.5521 69.4820
v -31.1274 27.5760 69.3211
v -30.3105 27.5521 69.4820
v -30.1507 27.5138 68.6654
v 54.2077 25.0514 -19.5275
v 55.0044 23.2426 -20.5932
v 55.1997 23.2489 -18.6281
v 53.0417 23.3414 -20.3984
v 55.1997 23.2489 -18.6281
v 55.0044 23.2426 -20.5932
v 54.2077 25.0514 -19.5275
v 55.1997 23.2489 -18.6281
v 53.2370 23.3477 -18.4333
v 53.0417 23.3414 -20.3984
v 53.2370 23.3477 -18.4333
v 55.1997 23.2489 -18.6281
v 54.2077 25.0514 -19.5275
v 53.2370 23.3477 -18.4333
v 53.0417 23.3414 -20.3984
v 54.2077 25.0514 -19.5275
v 53.0417 23.3414 -20.3984
v 55.0044 23.2426 -20.5932
v 54.2538 25.9811 -19.5351
v 54.0747 24.4282 -20.5517
v 55.2050 24.3798 -19.6245
v 54.2538 25.9811 -19.5351
v 55.2050 24.3798 -19.6245
v 54.2793 24.4348 -18.4932
v 54.2538 25.9811 -19.5351
v 54.2793 24.4348 -18.4932
v 53.1490 24.4833 -19.4204
v 55.2050 24.3798 -19.6245
v 53.1490 24.4833 -19.4204
v 54.2793 24.4348 -18.4932
v 54.2538 25.9811 -19.5351
v 53.1490 24.4833 -19.4204
v 54.0747 24.4282 -20.5517
v 55.2050 24.3798 -19.6245
v 54.0747 24.4282 -20.5517
v 53.1490 24.4833 -19.4204
v 54.2947 26.8076 -19.5418
v 54.1647 25.4625 -20.1690
v 54.8655 25.4325 -19.5941
v 54.2947 26.8076 -19.5418
v 54.8655 25.4325 -19.5941
v 54.2916 25.4666 -18.8927
v 54.2947 26.8076 -19.5418
v 54.2916 25.4666 -18.8927
v 53.5908 25.4967 -19.4676
v 54.8655 25.4325 -19.5941
v 53.5908 25.4967 -19.4676
v 54.2916 25.4666 -18.8927
v 54.2947 26.8076 -19.5418
v 53.5908 25.4967 -19.4676
v 54.1647 25.4625 -20.1690
v 54.8655 25.4325 -19.5941
v 54.1647 25.4625 -20.1690
v 53.5908 25.4967 -19.4676
v -7.3752 27.3483 34.9330
v -6.6217 24.6581 37.0024
v -9.3034 24.5196 35.5397
v -5.1613 24.7392 34.3172
v -9.3034 24.5196 35.5397
v -6.6217 24.6581 37.0024
v -7.3752 27.3483 34.9330
v -9.3034 24.5196 35.5397
v -7.8429 24.6007 32.8546
v -5.1613 24.7392 34.3172
v -7.8429 24.6007 32.8546
v -9.3034 24.5196 35.5397
v -7.3752 27.3483 34.9330
v -7.8429 24.6007 32.8546
v -5.1613 24.7392 34.3172
v -7.3752 27.3483 34.9330
v -5.1613 24.7392 34.3172
v -6.6217 24.6581 37.0024
v -7.4508 28.7878 34.9353
v -5.9202 26.4612 35.6975
v -8.0897 26.3462 36.3378
v -7.4508 28.7878 34.9353
v -8.0897 26.3462 36.3378
v -8.7293 26.3162 34.1652
v -7.4508 28.7878 34.9353
v -8.7293 26.3162 34.1652
v -6.5598 26.4312 33.5249
v -8.0897 26.3462 36.3378
v -6.5598 26.4312 33.5249
v -8.7293 26.3162 34.1652
v -7.4508 28.7878 34.9353
v -6.5598 26.4312 33.5249
v -5.9202 26.4612 35.6975
v -8.0897 26.3462 36.3378
v -5.9202 26.4612 35.6975
v -6.5598 26.4312 33.5249
v -7.5180 30.0673 34.9374
v -6.5379 28.0330 35.4090
v -7.8830 27.9617 35.8060
v -7.5180 30.0673 34.9374
v -7.8830 27.9617 35.8060
v -8.2796 27.9431 34.4590
v -7.5180 30.0673 34.9374
v -8.2796 27.9431 34.4590
v -6.9345 28.0144 34.0620
v -7.8830 27.9617 35.8060
v -6.9345 28.0144 34.0620
v -8.2796 27.9431 34.4590
v -7.5180 30.0673 34.9374
v -6.9345 28.0144 34.0620
v -6.5379 28.0330 35.4090
v -7.8830 27.9617 35.8060
v -6.5379 28.0330 35.4090
v -6.9345 28.0144 34.0620
v -58.6516 28.2633 -51.9485
v -56.7629 25.9821 -51.4695
v -59.0132 25.9340 -50.0928
v -58.1378 25.8972 -53.7198
v -59.0132 25.9340 -50.0928
v -56.7629 25.9821 -51.4695
v -58.6516 28.2633 -51.9485
v -59.0132 25.9340 -50.0928
v -60.3881 25.8490 -52.3431
v -58.1378 25.8972 -53.7198
v -60.3881 25.8490 -52.3431
v -59.0132 25.9340 -50.0928
v -58.6516 28.2633 -51.9485
v -60.3881 25.8490 -52.3431
v -58.1378 25.8972 -53.7198
v -58.6516 28.2633 -51.9485
v -58.1378 25.8972 -53.7198
v -56.7629 25.9821 -51.4695
v -58.6918 29.5062 -51.9708
v -57.4461 27.4599 -52.6547
v -57.9046 27.4792 -50.7549
v -58.6918 29.5062 -51.9708
v -57.9046 27.4792 -50.7549
v -59.8034 27.4095 -51.2125
v -58.6918 29.5062 -51.9708
v -59.8034 27.4095 -51.2125
v -59.3449 27.3902 -53.1122
v -57.9046 27.4792 -50.7549
v -59.3449 27.3902 -53.1122
v -59.8034 27.4095 -51.2125
v -58.6918 29.5062 -51.9708
v -59.3449 27.3902 -53.1122
v -57.4461 27.4599 -52.6547
v -57.9046 27.4792 -50.7549
v -57.4461 27.4599 -52.6547
v -59.3449 27.3902 -53.1122
v -58.7276 30.6110 -51.9906
v -57.9387 28.8313 -52.4055
v -58.2230 28.8433 -51.2276
v -58.7276 30.6110 -51.9906
v -58.2230 28.8433 -51.2276
v -59.4002 28.8001 -51.5113
v -58.7276 30.6110 -51.9906
v -59.4002 28.8001 -51.5113
v -59.1160 28.7881 -52.6891
v -58.2230 28.8433 -51.2276
v -59.1160 28.7881 -52.6891
v -59.4002 28.8001 -51.5113
v -58.7276 30.6110 -51.9906
v -59.1160 28.7881 -52.6891
v -57.9387 28.8313 -52.4055
v -58.2230 28.8433 -51.2276
v -57.9387 28.8313 -52.4055
v -59.1160 28.7881 -52.6891
v 45.3891 26.7607 51.3786
v 44.7356 24.1422 53.0497
v 43.9593 24.1129 50.3682
v 47.3975 24.4720 52.2754
v 43.9593 24.1129 50.3682
v 44.7356 24.1422 53.0497
v 45.3891 26.7607 51.3786
v 43.9593 24.1129 50.3682
v 46.6211 24.4427 49.5939
v 47.3975 24.4720 52.2754
v 46.6211 24.4427 49.5939
v 43.9593 24.1129 50.3682
v 45.3891 26.7607 51.3786
v 46.6211 24.4427 49.5939
v 47.3975 24.4720 52.2754
v 45.3891 26.7607 51.3786
v 47.3975 24.4720 52.2754
v 44.7356 24.1422 53.0497
v 45.2359 28.0675 51.4087
v 45.8978 25.9049 52.7631
v 44.0969 25.7168 51.7641
v 45.2359 28.0675 51.4087
v 44.0969 25.7168 51.7641
v 45.0845 25.8742 49.9540
v 45.2359 28.0675 51.4087
v 45.0845 25.8742 49.9540
v 46.8854 26.0623 50.9530
v 44.0969 25.7168 51.7641
v 46.8854 26.0623 50.9530
v 45.0845 25.8742 49.9540
v 45.2359 28.0675 51.4087
v 46.8854 26.0623 50.9530
v 45.8978 25.9049 52.7631
v 44.0969 25.7168 51.7641
v 45.8978 25.9049 52.7631
v 46.8854 26.0623 50.9530
v 45.0998 29.2290 51.4354
v 45.5731 27.3510 52.2628
v 44.4566 27.2344 51.6434
v 45.0998 29.2290 51.4354
v 44.4566 27.2344 51.6434
v 45.0689 27.3320 50.5212
v 45.0998 29.2290 51.4354
v 45.0689 27.3320 50.5212
v 46.1854 27.4486 51.1405
v 44.4566 27.2344 51.6434
v 46.1854 27.4486 51.1405
v 45.0689 27.3320 50.5212
v 45.0998 29.2290 51.4354
v 46.1854 27.4486 51.1405
v 45.5731 27.3510 52.2628
v 44.4566 27.2344 51.6434
v 45.5731 27.3510 52.2628
v 46.1854 27.4486 51.1405
v -35.9645 29.3419 -67.1985
v -37.7146 26.4076 -68.9276
v -34.3564 26.2304 -68.7462
v -37.8932 26.4653 -65.5651
v -34.3564 26.2304 -68.7462
v -37.7146 26.4076 -68.9276
v -35.9645 29.3419 -67.1985
v -34.3564 26.2304 -68.7462
v -34.5350 26.2881 -65.3837
v -37.8932 26.4653 -65.5651
v -34.5350 26.2881 -65.3837
v -34.3564 26.2304 -68.7462
v -35.9645 29.3419 -67.1985
v -34.5350 26.2881 -65.3837
v -37.8932 26.4653 -65.5651
v -35.9645 29.3419 -67.1985
v -37.8932 26.4653 -65.5651
v -37.7146 26.4076 -68.9276
v -35.8796 30.9270 -67.2212
v -37.7800 28.3780 -67.2784
v -35.9275 28.2550 -68.9446
v -35.8796 30.9270 -67.2212
v -35.9275 28.2550 -68.9446
v -34.2622 28.1924 -67.0883
v -35.8796 30.9270 -67.2212
v -34.2622 28.1924 -67.0883
v -36.1146 28.3154 -65.4222
v -35.9275 28.2550 -68.9446
v -36.1146 28.3154 -65.4222
v -34.2622 28.1924 -67.0883
v -35.8796 30.9270 -67.2212
v -36.1146 28.3154 -65.4222
v -37.7800 28.3780 -67.2784
v -35.9275 28.2550 -68.9446
v -37.7800 28.3780 -67.2784
v -36.1146 28.3154 -65.4222
v -35.8042 32.3360 -67.2414
v -37.0173 30.1040 -67.2675
v -35.8688 30.0277 -68.3005
v -35.8042 32.3360 -67.2414
v -35.8688 30.0277 -68.3005
v -34.8363 29.9889 -67.1497
v -35.8042 32.3360 -67.2414
v -34.8363 29.9889 -67.1497
v -35.9848 30.0652 -66.1166
v -35.8688 30.0277 -68.3005
v -35.9848 30.0652 -66.1166
v -34.8363 29.9889 -67.1497
v -35.8042 32.3360 -67.2414
v -35.9848 30.0652 -66.1166
v -37.0173 30.1040 -67.2675
v -35.8688 30.0277 -68.3005
v -37.0173 30.1040 -67.2675
v -35.9848 30.0652 -66.1166
v -47.4352 26.6579 -3.0223
v -47.2950 24.7104 -1.4408
v -48.9634 24.6678 -2.8893
v -45.8463 24.7134 -3.1095
v -48.9634 24.6678 -2.8893
v -47.2950 24.7104 -1.4408
v -47.4352 26.6579 -3.0223
v -48.9634 24.6678 -2.8893
v -47.5147 24.6708 -4.5580
v -45.8463 24.7134 -3.1095
v -47.5147 24.6708 -4.5580
v -48.9634 24.6678 -2.8893
v -47.4352 26.6579 -3.0223
v -47.5147 24.6708 -4.5580
v -45.8463 24.7134 -3.1095
v -47.4352 26.6579 -3.0223
v -45.8463 24.7134 -3.1095
v -47.2950 24.7104 -1.4408
v -47.4513 27.6994 -3.0344
v -46.5507 25.9859 -2.2555
v -48.1833 25.9620 -2.1402
v -47.4513 27.6994 -3.0344
v -48.1833 25.9620 -2.1402
v -48.2983 25.9413 -3.7729
v -47.4513 27.6994 -3.0344
v -48.2983 25.9413 -3.7729
v -46.6657 25.9651 -3.8882
v -48.1833 25.9620 -2.1402
v -46.6657 25.9651 -3.8882
v -48.2983 25.9413 -3.7729
v -47.4513 27.6994 -3.0344
v -46.6657 25.9651 -3.8882
v -46.5507 25.9859 -2.2555
v -48.1833 25.9620 -2.1402
v -46.5507 25.9859 -2.2555
v -46.6657 25.9651 -3.8882
v -47.4656 28.6252 -3.0451
v -46.9006 27.1347 -2.5573
v -47.9128 27.1199 -2.4858
v -47.4656 28.6252 -3.0451
v -47.9128 27.1199 -2.4858
v -47.9842 27.1070 -3.4980
v -47.4656 28.6252 -3.0451
v -47.9842 27.1070 -3.4980
v -46.9719 27.1218 -3.5695
v -47.9128 27.1199 -2.4858
v -46.9719 27.1218 -3.5695
v -47.9842 27.1070 -3.4980
v -47.4656 28.6252 -3.0451
v -46.9719 27.1218 -3.5695
v -46.9006 27.1347 -2.5573
v -47.9128 27.1199 -2.4858
v -46.9006 27.1347 -2.5573
v -46.9719 27.1218 -3.5695
v -0.0979 27.8200 60.7521
v -1.2231 25.4520 59.8092
v 1.2061 25.6623 59.5662
v -0.9963 25.6436 62.2415
v 1.2061 25.6623 59.5662
v -1.2231 25.4520 59.8092
v -0.0979 27.8200 60.7521
v 1.2061 25.6623 59.5662
v 1.4329 25.8538 61.9984
v -0.9963 25.6436 62.2415
v 1.4329 25.8538 61.9984
v 1.2061 25.6623 59.5662
v -0.0979 27.8200 60.7521
v 1.4329 25.8538 61.9984
v -0.9963 25.6436 62.2415
v -0.0979 27.8200 60.7521
v -0.9963 25.6436 62.2415
v -1.2231 25.4520 59.8092
v -0.2052 28.9673 60.6718
v -1.2987 26.9450 60.9330
v -0.1451 26.9548 59.5317
v -0.2052 28.9673 60.6718
v -0.1451 26.9548 59.5317
v 1.2460 27.1653 60.6783
v -0.2052 28.9673 60.6718
v 1.2460 27.1653 60.6783
v 0.0925 27.1555 62.0797
v -0.1451 26.9548 59.5317
v 0.0925 27.1555 62.0797
v 1.2460 27.1653 60.6783
v -0.2052 28.9673 60.6718
v 0.0925 27.1555 62.0797
v -1.2987 26.9450 60.9330
v -0.1451 26.9548 59.5317
v -1.2987 26.9450 60.9330
v 0.0925 27.1555 62.0797
v -0.3006 29.9871 60.6004
v -0.9344 28.2617 60.7953
v -0.2192 28.2677 59.9265
v -0.3006 29.9871 60.6004
v -0.2192 28.2677 59.9265
v 0.6433 28.3982 60.6375
v -0.3006 29.9871 60.6004
v 0.6433 28.3982 60.6375
v -0.0719 28.3921 61.5063
v -0.2192 28.2677 59.9265
v -0.0719 28.3921 61.5063
v 0.6433 28.3982 60.6375
v -0.3006 29.9871 60.6004
v -0.0719 28.3921 61.5063
v -0.9344 28.2617 60.7953
v -0.2192 28.2677 59.9265
v -0.9344 28.2617 60.7953
v -0.0719 28.3921 61.5063
v 75.0541 27.0721 1.5103
v 73.9884 24.2782 3.6497
v 72.7225 24.3547 0.6751
v 76.9540 24.0472 2.3817
v 72.7225 24.3547 0.6751
v 73.9884 24.2782 3.6497
v 75.0541 27.0721 1.5103
v 72.7225 24.3547 0.6751
v 75.6881 24.1237 -0.5929
v 76.9540 24.0472 2.3817
v 75.6881 24.1237 -0.5929
v 72.7225 24.3547 0.6751
v 75.0541 27.0721 1.5103
v 75.6881 24.1237 -0.5929
v 76.9540 24.0472 2.3817
v 75.0541 27.0721 1.5103
v 76.9540 24.0472 2.3817
v 73.9884 24.2782 3.6497
v 75.1684 28.5921 1.5008
v 75.6410 26.0187 3.0747
v 73.4246 26.1797 2.1809
v 75.1684 28.5921 1.5008
v 73.4246 26.1797 2.1809
v 74.3149 26.0988 -0.0413
v 75.1684 28.5921 1.5008
v 74.3149 26.0988 -0.0413
v 76.5313 25.9378 0.8525
v 73.4246 26.1797 2.1809
v 76.5313 25.9378 0.8525
v 74.3149 26.0988 -0.0413
v 75.1684 28.5921 1.5008
v 76.5313 25.9378 0.8525
v 75.6410 26.0187 3.0747
v 73.4246 26.1797 2.1809
v 75.6410 26.0187 3.0747
v 76.5313 25.9378 0.8525
v 75.2701 29.9432 1.4923
v 75.5160 27.7228 2.4720
v 74.1419 27.8226 1.9179
v 75.2701 29.9432 1.4923
v 74.1419 27.8226 1.9179
v 74.6939 27.7725 0.5401
v 75.2701 29.9432 1.4923
v 74.6939 27.7725 0.5401
v 76.0680 27.6726 1.0943
v 74.1419 27.8226 1.9179
v 76.0680 27.6726 1.0943
v 74.6939 27.7725 0.5401
v 75.2701 29.9432 1.4923
v 76.0680 27.6726 1.0943
v 75.5160 27.7228 2.4720
v 74.1419 27.8226 1.9179
v 75.5160 27.7228 2.4720
v 76.0680 27.6726 1.0943
v -39.3782 26.1847 -54.9248
v -39.6254 24.6266 -56.0509
v -38.1599 24.6996 -55.1834
v -40.4941 24.6369 -54.5843
v -38.1599 24.6996 -55.1834
v -39.6254 24.6266 -56.0509
v -39.3782 26.1847 -54.9248
v -38.1599 24.6996 -55.1834
v -39.0285 24.7098 -53.7167
v -40.4941 24.6369 -54.5843
v -39.0285 24.7098 -53.7167
v -38.1599 24.6996 -55.1834
v -39.3782 26.1847 -54.9248
v -39.0285 24.7098 -53.7167
v -40.4941 24.6369 -54.5843
v -39.3782 26.1847 -54.9248
v -40.4941 24.6369 -54.5843
v -39.6254 24.6266 -56.0509
v -39.4054 26.9875 -54.9465
v -40.1278 25.6112 -55.3647
v -38.9052 25.6441 -55.6786
v -39.4054 26.9875 -54.9465
v -38.9052 25.6441 -55.6786
v -38.5925 25.6877 -54.4560
v -39.4054 26.9875 -54.9465
v -38.5925 25.6877 -54.4560
v -39.8151 25.6548 -54.1421
v -38.9052 25.6441 -55.6786
v -39.8151 25.6548 -54.1421
v -38.5925 25.6877 -54.4560
v -39.4054 26.9875 -54.9465
v -39.8151 25.6548 -54.1421
v -40.1278 25.6112 -55.3647
v -38.9052 25.6441 -55.6786
v -40.1278 25.6112 -55.3647
v -39.8151 25.6548 -54.1421
v -39.4295 27.7011 -54.9658
v -39.8662 26.5178 -55.2162
v -39.1082 26.5381 -55.4107
v -39.4295 27.7011 -54.9658
v -39.1082 26.5381 -55.4107
v -38.9144 26.5652 -54.6527
v -39.4295 27.7011 -54.9658
v -38.9144 26.5652 -54.6527
v -39.6724 26.5448 -54.4582
v -39.1082 26.5381 -55.4107
v -39.6724 26.5448 -54.4582
v -38.9144 26.5652 -54.6527
v -39.4295 27.7011 -54.9658
v -39.6724 26.5448 -54.4582
v -39.8662 26.5178 -55.2162
v -39.1082 26.5381 -55.4107
v -39.8662 26.5178 -55.2162
v -39.6724 26.5448 -54.4582
v -73.4443 30.7214 68.7677
v -71.5124 27.8166 69.5855
v -74.3749 27.9899 70.8918
v -72.8189 27.8497 66.7180
v -74.3749 27.9899 70.8918
v -71.5124 27.8166 69.5855
v -73.4443 30.7214 68.7677
v -74.3749 27.9899 70.8918
v -75.6815 28.0230 68.0243
v -72.8189 27.8497 66.7180
v -75.6815 28.0230 68.0243
v -74.3749 27.9899 70.8918
v -73.4443 30.7214 68.7677
v -75.6815 28.0230 68.0243
v -72.8189 27.8497 66.7180
v -73.4443 30.7214 68.7677
v -72.8189 27.8497 66.7180
v -71.5124 27.8166 69.5855
v -73.3635 32.2046 68.7480
v -71.9988 29.6418 68.0966
v -72.8138 29.7153 70.2827
v -73.3635 32.2046 68.7480
v -72.8138 29.7153 70.2827
v -74.9975 29.8234 69.4650
v -73.3635 32.2046 68.7480
v -74.9975 29.8234 69.4650
v -74.1825 29.7500 67.2789
v -72.8138 29.7153 70.2827
v -74.1825 29.7500 67.2789
v -74.9975 29.8234 69.4650
v -73.3635 32.2046 68.7480
v -74.1825 29.7500 67.2789
v -71.9988 29.6418 68.0966
v -72.8138 29.7153 70.2827
v -71.9988 29.6418 68.0966
v -74.1825 29.7500 67.2789
v -73.2917 33.5230 68.7305
v -72.4788 31.3243 68.3347
v -72.9841 31.3698 69.6902
v -73.2917 33.5230 68.7305
v -72.9841 31.3698 69.6902
v -74.3380 31.4369 69.1831
v -73.2917 33.5230 68.7305
v -74.3380 31.4369 69.1831
v -73.8327 31.3914 67.8277
v -72.9841 31.3698 69.6902
v -73.8327 31.3914 67.8277
v -74.3380 31.4369 69.1831
v -73.2917 33.5230 68.7305
v -73.8327 31.3914 67.8277
v -72.4788 31.3243 68.3347
v -72.9841 31.3698 69.6902
v -72.4788 31.3243 68.3347
v -73.8327 31.3914 67.8277
v 33.6168 26.3978 -17.9529
v 35.1570 23.9845 -19.6095
v 35.5481 24.0087 -16.7271
v 32.2948 23.6425 -19.2183
v 35.5481 24.0087 -16.7271
v 35.1570 23.9845 -19.6095
v 33.6168 26.3978 -17.9529
v 35.5481 24.0087 -16.7271
v 32.6859 23.6667 -16.3358
v 32.2948 23.6425 -19.2183
v 32.6859 23.6667 -16.3358
v 35.5481 24.0087 -16.7271
v 33.6168 26.3978 -17.9529
v 32.6859 23.6667 -16.3358
v 32.2948 23.6425 -19.2183
v 33.6168 26.3978 -17.9529
v 32.2948 23.6425 -19.2183
v 35.1570 23.9845 -19.6095
v 33.4555 27.7595 -17.9424
v 33.5194 25.4773 -19.4696
v 35.2235 25.6691 -18.1648
v 33.4555 27.7595 -17.9424
v 35.2235 25.6691 -18.1648
v 33.9292 25.5026 -16.4501
v 33.4555 27.7595 -17.9424
v 33.9292 25.5026 -16.4501
v 32.2252 25.3108 -17.7549
v 35.2235 25.6691 -18.1648
v 32.2252 25.3108 -17.7549
v 33.9292 25.5026 -16.4501
v 33.4555 27.7595 -17.9424
v 32.2252 25.3108 -17.7549
v 33.5194 25.4773 -19.4696
v 35.2235 25.6691 -18.1648
v 33.5194 25.4773 -19.4696
v 32.2252 25.3108 -17.7549
v 33.3122 28.9700 -17.9330
v 33.4181 26.9952 -18.8842
v 34.4746 27.1141 -18.0753
v 33.3122 28.9700 -17.9330
v 34.4746 27.1141 -18.0753
v 33.6721 27.0108 -17.0121
v 33.3122 28.9700 -17.9330
v 33.6721 27.0108 -17.0121
v 32.6156 26.8919 -17.8211
v 34.4746 27.1141 -18.0753
v 32.6156 26.8919 -17.8211
v 33.6721 27.0108 -17.0121
v 33.3122 28.9700 -17.9330
v 32.6156 26.8919 -17.8211
v 33.4181 26.9952 -18.8842
v 34.4746 27.1141 -18.0753
v 33.4181 26.9952 -18.8842
v 32.6156 26.8919 -17.8211
v 7.9749 24.9869 30.7912
v 6.3542 23.2663 30.8413
v 7.7132 23.1968 29.2692
v 7.9176 23.0896 32.2006
v 7.7132 23.1968 29.2692
v 6.3542 23.2663 30.8413
v 7.9749 24.9869 30.7912
v 7.7132 23.1968 29.2692
v 9.2767 23.0201 30.6285
v 7.9176 23.0896 32.2006
v 9.2767 23.0201 30.6285
v 7.7132 23.1968 29.2692
v 7.9749 24.9869 30.7912
v 9.2767 23.0201 30.6285
v 7.9176 23.0896 32.2006
v 7.9749 24.9869 30.7912
v 7.9176 23.0896 32.2006
v 6.3542 23.2663 30.8413
v 8.0593 25.9629 30.8210
v 7.2068 24.3726 31.5947
v 7.0997 24.4287 30.0593
v 8.0593 25.9629 30.8210
v 7.0997 24.4287 30.0593
v 8.6304 24.2997 29.9479
v 8.0593 25.9629 30.8210
v 8.6304 24.2997 29.9479
v 8.7375 24.2436 31.4833
v 7.0997 24.4287 30.0593
v 8.7375 24.2436 31.4833
v 8.6304 24.2997 29.9479
v 8.0593 25.9629 30.8210
v 8.7375 24.2436 31.4833
v 7.2068 24.3726 31.5947
v 7.0997 24.4287 30.0593
v 7.2068 24.3726 31.5947
v 8.7375 24.2436 31.4833
v 8.1343 26.8305 30.8474
v 7.5711 25.4433 31.3149
v 7.5047 25.4780 30.3630
v 8.1343 26.8305 30.8474
v 7.5047 25.4780 30.3630
v 8.4537 25.3981 30.2939
v 8.1343 26.8305 30.8474
v 8.4537 25.3981 30.2939
v 8.5201 25.3633 31.2458
v 7.5047 25.4780 30.3630
v 8.5201 25.3633 31.2458
v 8.4537 25.3981 30.2939
v 8.1343 26.8305 30.8474
v 8.5201 25.3633 31.2458
v 7.5711 25.4433 31.3149
v 7.5047 25.4780 30.3630
v 7.5711 25.4433 31.3149
v 8.5201 25.3633 31.2458
v -70.1154 29.3327 -66.8812
v -71.3851 26.9668 -68.6111
v -68.5914 26.9231 -68.3210
v -71.6777 26.7546 -65.8253
v -68.5914 26.9231 -68.3210
v -71.3851 26.9668 -68.6111
v -70.1154 29.3327 -66.8812
v -68.5914 26.9231 -68.3210
v -68.8840 26.7109 -65.5353
v -71.6777 26.7546 -65.8253
v -68.8840 26.7109 -65.5353
v -68.5914 26.9231 -68.3210
v -70.1154 29.3327 -66.8812
v -68.8840 26.7109 -65.5353
v -71.6777 26.7546 -65.8253
v -70.1154 29.3327 -66.8812
v -71.6777 26.7546 -65.8253
v -71.3851 26.9668 -68.6111
v -70.1053 30.6529 -66.7795
v -71.5855 28.4754 -67.1009
v -69.9689 28.5637 -68.4081
v -70.1053 30.6529 -66.7795
v -69.9689 28.5637 -68.4081
v -68.6589 28.4296 -66.7970
v -70.1053 30.6529 -66.7795
v -68.6589 28.4296 -66.7970
v -70.2754 28.3414 -65.4898
v -69.9689 28.5637 -68.4081
v -70.2754 28.3414 -65.4898
v -68.6589 28.4296 -66.7970
v -70.1053 30.6529 -66.7795
v -70.2754 28.3414 -65.4898
v -71.5855 28.4754 -67.1009
v -69.9689 28.5637 -68.4081
v -71.5855 28.4754 -67.1009
v -70.2754 28.3414 -65.4898
v -70.0963 31.8265 -66.6892
v -71.0182 29.9337 -66.9302
v -70.0159 29.9884 -67.7407
v -70.0963 31.8265 -66.6892
v -70.0159 29.9884 -67.7407
v -69.2037 29.9053 -66.7418
v -70.0963 31.8265 -66.6892
v -69.2037 29.9053 -66.7418
v -70.2059 29.8506 -65.9314
v -70.0159 29.9884 -67.7407
v -70.2059 29.8506 -65.9314
v -69.2037 29.9053 -66.7418
v -70.0963 31.8265 -66.6892
v -70.2059 29.8506 -65.9314
v -71.0182 29.9337 -66.9302
v -70.0159 29.9884 -67.7407
v -71.0182 29.9337 -66.9302
v -70.2059 29.8506 -65.9314
v 14.6248 29.6513 66.0366
v 15.0440 26.5768 68.7244
v 11.8966 26.7266 66.9619
v 16.7839 26.1891 65.5847
v 11.8966 26.7266 66.9619
v 15.0440 26.5768 68.7244
v 14.6248 29.6513 66.0366
v 11.8966 26.7266 66.9619
v 13.6364 26.3389 63.8221
v 16.7839 26.1891 65.5847
v 13.6364 26.3389 63.8221
v 11.8966 26.7266 66.9619
v 14.6248 29.6513 66.0366
v 13.6364 26.3389 63.8221
v 16.7839 26.1891 65.5847
v 14.6248 29.6513 66.0366
v 16.7839 26.1891 65.5847
v 15.0440 26.5768 68.7244
v 14.7754 31.3420 65.9113
v 16.1729 28.4458 67.0433
v 13.6131 28.7273 67.7646
v 14.7754 31.3420 65.9113
v 13.6131 28.7273 67.7646
v 12.8758 28.6027 65.1969
v 14.7754 31.3420 65.9113
v 12.8758 28.6027 65.1969
v 15.4356 28.3211 64.4756
v 13.6131 28.7273 67.7646
v 15.4356 28.3211 64.4756
v 12.8758 28.6027 65.1969
v 14.7754 31.3420 65.9113
v 15.4356 28.3211 64.4756
v 16.1729 28.4458 67.0433
v 13.6131 28.7273 67.7646
v 16.1729 28.4458 67.0433
v 15.4356 28.3211 64.4756
v 14.9093 32.8448 65.7999
v 15.7138 30.3541 66.5533
v 14.1267 30.5286 67.0005
v 14.9093 32.8448 65.7999
v 14.1267 30.5286 67.0005
v 13.6696 30.4514 65.4085
v 14.9093 32.8448 65.7999
v 13.6696 30.4514 65.4085
v 15.2567 30.2768 64.9612
v 14.1267 30.5286 67.0005
v 15.2567 30.2768 64.9612
v 13.6696 30.4514 65.4085
v 14.9093 32.8448 65.7999
v 15.2567 30.2768 64.9612
v 15.7138 30.3541 66.5533
v 14.1267 30.5286 67.0005
v 15.7138 30.3541 66.5533
v 15.2567 30.2768 64.9612
vt 0.00000 1.00000
vt 0.00000 1.00000
vt 0.00000 1.00000
vt 0.00000 1.00000
vt 0.00000 1.00000
vt 0.00000 1.00000
vt 0.00000 1.00000
vt 0.00000 1.00000
vt 0.00000 1.00000
vt 0.00000 1.00000
vt 0.00000 1.00000
vt 0.00000 1.00000
vt 0.00000 1.00000
vt 0.00000 1.00000
vt 0.00000 1.00000
vt 0.00000 1.00000
vt 0.00000 1.00000
vt 0.00000 1.00000
vt 0.00000 1.00000
vt 0.00000 1.00000
vt 0.00000 1.00000
vt 0.00000 1.00000
vt 0.00000 1.00000
vt 0.00000 1.00000
vt 0.00000 1.00000
vt 0.00000 1.00000
vt 0.00000 1.00000
vt 0.00000 1.00000
vt 0.00000 1.00000
vt 0.00000 1.00000
vt 0.00000 1.00000
vt 0.00000 1.00000
vt 0.00000 1.00000
vt 0.00000 1.00000
vt 0.00000 1.00000
vt 0.00000 1.00000
vt 0.00000 1.00000
vt 0.00000 1.00000
vt 0.00000 1.00000
vt 0.00000 1.00000
vt 0.00000 1.00000
vt 0.00000 1.00000
vt 0.00000 1.00000
vt 0.00000 1.00000
vt 0.00000 1.00000
vt 0.00000 1.00000
vt 0.00000 1.00000
vt 0.00000 1.00000
vt 0.00000 1.00000
vt 0.00000 1.00000
vt 0.00000 1.00000
vt 0.00000 1.00000
vt 0.00000 1.00000
vt 0.00000 1.00000
vt 0.00000 1.00000
vt 0.00000 1.00000
vt 0.00000 1.00000
vt 0.00000 1.00000
vt 0.00000 1.00000
vt 0.00000 1.00000
vt 0.00000 1.00000
vt 0.00000 1.00000
vt 0.00000 1.00000
vt 0.00000 1.00000
vt 0.00000 1.00000
vt 0.00000 1.00000
vt 0.00000 1.00000
vt 0.00000 1.00000
vt 0.00000 1.00000
vt 0.00000 1.00000
vt 0.00000 1.00000
vt 0.00000 1.00000
vt 0.00000 1.00000
vt 0.00000 1.00000
vt 0.00000 1.00000
vt 0.00000 1.00000
vt 0.00000 1.00000
vt 0.00000 1.00000
vt 0.00000 1.00000
vt 0.00000 1.00000
vt 0.00000 1.00000
vt 0.00000 1.00000
vt 0.00000 1.00000
vt 0.00000 1.00000
vt 0.00000 1.00000
vt 0.00000 1.00000
vt 0.00000 1.00000
vt 0.00000 1.00000
vt 0.00000 1.00000
vt 0.00000 1.00000
vt 0.00000 1.00000
vt 0.00000 1.00000
vt 0.00000 1.00000
vt 0.00000 1.00000
vt 0.00000 1.00000
vt 0.00000 1.00000
vt 0.00000 1.00000
vt 0.00000 1.00000
vt 0.00000 1.00000
vt 0.00000 1.00000
vt 0.00000 1.00000
vt 0.00000 1.00000
vt 0.00000 1.00000
vt 0.00000 1.00000
vt 0.00000 1.00000
vt 0.00000 1.00000
vt 0.00000 1.00000
vt 0.00000 1.00000
vt 0.00000 1.00000
vt 0.00000 1.00000
vt 0.00000 1.00000
vt 0.00000 1.00000
vt 0.00000 1.00000
vt 0.00000 1.00000
vt 0.00000 1.00000
vt 0.00000 1.00000
vt 0.00000 1.00000
vt 0.00000 1.00000
vt 0.00000 1.00000
vt 0.00000 1.00000
vt 0.00000 1.00000
vt 0.00000 1.00000
vt 0.00000 1.00000
vt 0.00000 1.00000
vt 0.00000 1.00000
vt 0.00000 1.00000
vt 0.00000 1.00000
vt 0.00000 1.00000
vt 0.00000 1.00000
vt 0.00000 1.00000
vt 0.00000 1.00000
vt 0.00000 1.00000
vt 0.00000 1.00000
vt 0.00000 1.00000
vt 0.00000 1.00000
vt 0.00000 1.00000
vt 0.00000 1.00000
vt 0.00000 1.00000
vt 0.00000 1.00000
vt 0.00000 1.00000
vt 0.00000 1.00000
vt 0.00000 1.00000
vt 0.00000 1.00000
vt 0.00000 1.00000
vt 0.00000 1.00000
vt 0.00000 1.00000
vt 0.00000 1.00000
vt 0.00000 1.00000
vt 0.00000 1.00000
vt 0.00000 1.00000
vt 0.00000 1.00000
vt 0.00000 1.00000
vt 0.00000 1.00000
vt 0.00000 1.00000
vt 0.00000 1.00000
vt 0.00000 1.00000
vt 0.00000 1.00000
vt 0.00000 1.00000
vt 0.00000 1.00000
vt 0.00000 1.00000
vt 0.00000 1.00000
vt 0.00000 1.00000
vt 0.00000 1.00000
vt 0.00000 1.00000
vt 0.00000 1.00000
vt 0.00000 1.00000
vt 0.00000 1.00000
vt 0.00000 1.00000
vt 0.00000 1.00000
vt 0.00000 1.00000
vt 0.00000 1.00000
vt 0.00000 1.00000
vt 0.00000 1.00000
vt 0.00000 1.00000
vt 0.00000 1.00000
vt 0.00000 1.00000
vt 0.00000 1.00000
vt 0.00000 1.00000
vt 0.00000 1.00000
vt 0.00000 1.00000
vt 0.00000 1.00000
vt 0.00000 1.00000
vt 0.00000 1.00000
vt 0.00000 1.00000
vt 0.00000 1.00000
vt 0.00000 1.00000
vt 0.00000 1.00000
vt 0.00000 1.00000
vt 0.00000 1.00000
vt 0.00000 1.00000
vt 0.00000 1.00000
vt 0.00000 1.00000
vt 0.00000 1.00000
vt 0.00000 1.00000
vt 0.00000 1.00000
vt 0.00000 1.00000
vt 0.00000 1.00000
vt 0.00000 1.00000
vt 0.00000 1.00000
vt 0.00000 1.00000
vt 0.00000 1.00000
vt 0.00000 1.00000
vt 0.00000 1.00000
vt 0.00000 1.00000
vt 0.00000 1.00000
vt 0.00000 1.00000
vt 0.00000 1.00000
vt 0.00000 1.00000
vt 0.00000 1.00000
vt 0.00000 1.00000
vt 0.00000 1.00000
vt 0.00000 1.00000
vt 0.00000 1.00000
vt 0.00000 1.00000
vt 0.00000 1.00000
vt 0.00000 1.00000
vt 0.00000 1.00000
vt 0.00000 1.00000
vt 0.00000 1.00000
vt 0.00000 1.00000
vt 0.00000 1.00000
vt 0.00000 1.00000
vt 0.00000 1.00000
vt 0.00000 1.00000
vt 0.00000 1.00000
vt 0.00000 1.00000
vt 0.00000 1.00000
vt 0.00000 1.00000
vt 0.00000 1.00000
vt 0.00000 1.00000
vt 0.00000 1.00000
vt 0.00000 1.00000
vt 0.00000 1.00000
vt 0.00000 1.00000
vt 0.00000 1.00000
vt 0.00000 1.00000
vt 0.00000 1.00000
vt 0.00000 1.00000
vt 0.00000 1.00000
vt 0.00000 1.00000
vt 0.00000 1.00000
vt 0.00000 1.00000
vt 0.00000 1.00000
vt 0.00000 1.00000
vt 0.00000 1.00000
vt 0.00000 1.00000
vt 0.00000 1.00000
vt 0.00000 1.00000
vt 0.00000 1.00000
vt 0.00000 1.00000
vt 0.00000 1.00000
vt 0.00000 1.00000
vt 0.00000 1.00000
vt 0.00000 1.00000
vt 0.00000 1.00000
vt 0.00000 1.00000
vt 0.00000 1.00000
vt 0.00000 1.00000
vt 0.00000 1.00000
vt 0.00000 1.00000
vt 0.00000 1.00000
vt 0.00000 1.00000
vt 0.00000 1.00000
vt 0.00000 1.00000
vt 0.00000 1.00000
vt 0.00000 1.00000
vt 0.00000 1.00000
vt 0.00000 1.00000
vt 0.00000 1.00000
vt 0.00000 1.00000
vt 0.00000 1.00000
vt 0.00000 1.00000
vt 0.00000 1.00000
vt 0.00000 1.00000
vt 0.00000 1.00000
vt 0.00000 1.00000
vt 0.00000 1.00000
vt 0.00000 1.00000
vt 0.00000 1.00000
vt 0.00000 1.00000
vt 0.00000 1.00000
vt 0.00000 1.00000
vt 0.00000 1.00000
vt 0.00000 1.00000
vt 0.00000 1.00000
vt 0.00000 1.00000
vt 0.00000 1.00000
vt 0.00000 1.00000
vt 0.00000 1.00000
vt 0.00000 1.00000
vt 0.00000 1.00000
vt 0.00000 1.00000
vt 0.00000 1.00000
vt 0.00000 1.00000
vt 0.00000 1.00000
vt 0.00000 1.00000
vt 0.00000 1.00000
vt 0.00000 1.00000
vt 0.00000 1.00000
vt 0.00000 1.00000
vt 0.00000 1.00000
vt 0.00000 1.00000
vt 0.00000 1.00000
vt 0.00000 1.00000
vt 0.00000 1.00000
vt 0.00000 1.00000
vt 0.00000 1.00000
vt 0.00000 1.00000
vt 0.00000 1.00000
vt 0.00000 1.00000
vt 0.00000 1.00000
vt 0.00000 1.00000
vt 0.00000 1.00000
vt 0.00000 1.00000
vt 0.00000 1.00000
vt 0.00000 1.00000
vt 0.00000 1.00000
vt 0.00000 1.00000
vt 0.00000 1.00000
vt 0.00000 1.00000
vt 0.00000 1.00000
vt 0.00000 1.00000
vt 0.00000 1.00000
vt 0.00000 1.00000
vt 0.00000 1.00000
vt 0.00000 1.00000
vt 0.00000 1.00000
vt 0.00000 1.00000
vt 0.00000 1.00000
vt 0.00000 1.00000
vt 0.00000 1.00000
vt 0.00000 1.00000
vt 0.00000 1.00000
vt 0.00000 1.00000
vt 0.00000 1.00000
vt 0.00000 1.00000
vt 0.00000 1.00000
vt 0.00000 1.00000
vt 0.00000 1.00000
vt 0.00000 1.00000
vt 0.00000 1.00000
vt 0.00000 1.00000
vt 0.00000 1.00000
vt 0.00000 1.00000
vt 0.00000 1.00000
vt 0.00000 1.00000
vt 0.00000 1.00000
vt 0.00000 1.00000
vt 0.00000 1.00000
vt 0.00000 1.00000
vt 0.00000 1.00000
vt 0.00000 1.00000
vt 0.00000 1.00000
vt 0.00000 1.00000
vt 0.00000 1.00000
vt 0.00000 1.00000
vt 0.00000 1.00000
vt 0.00000 1.00000
vt 0.00000 1.00000
vt 0.00000 1.00000
vt 0.00000 1.00000
vt 0.00000 1.00000
vt 0.00000 1.00000
vt 0.00000 1.00000
vt 0.00000 1.00000
vt 0.00000 1.00000
vt 0.00000 1.00000
vt 0.00000 1.00000
vt 0.00000 1.00000
vt 0.00000 1.00000
vt 0.00000 1.00000
vt 0.00000 1.00000
vt 0.00000 1.00000
vt 0.00000 1.00000
vt 0.00000 1.00000
vt 0.00000 1.00000
vt 0.00000 1.00000
vt 0.00000 1.00000
vt 0.00000 1.00000
vt 0.00000 1.00000
vt 0.00000 1.00000
vt 0.00000 1.00000
vt 0.00000 1.00000
vt 0.00000 1.00000
vt 0.00000 1.00000
vt 0.00000 1.00000
vt 0.00000 1.00000
vt 0.00000 1.00000
vt 0.00000 1.00000
vt 0.00000 1.00000
vt 0.00000 1.00000
vt 0.00000 1.00000
vt 0.00000 1.00000
vt 0.00000 1.00000
vt 0.00000 1.00000
vt 0.00000 1.00000
vt 0.00000 1.00000
vt 0.00000 1.00000
vt 0.00000 1.00000
vt 0.00000 1.00000
vt 0.00000 1.00000
vt 0.00000 1.00000
vt 0.00000 1.00000
vt 0.00000 1.00000
vt 0.00000 1.00000
vt 0.00000 1.00000
vt 0.00000 1.00000
vt 0.00000 1.00000
vt 0.00000 1.00000
vt 0.00000 1.00000
vt 0.00000 1.00000
vt 0.00000 1.00000
vt 0.00000 1.00000
vt 0.00000 1.00000
vt 0.00000 1.00000
vt 0.00000 1.00000
vt 0.00000 1.00000
vt 0.00000 1.00000
vt 0.00000 1.00000
vt 0.00000 1.00000
vt 0.00000 1.00000
vt 0.00000 1.00000
vt 0.00000 1.00000
vt 0.00000 1.00000
vt 0.00000 1.00000
vt 0.00000 1.00000
vt 0.00000 1.00000
vt 0.00000 1.00000
vt 0.00000 1.00000
vt 0.00000 1.00000
vt 0.00000 1.00000
vt 0.00000 1.00000
vt 0.00000 1.00000
vt 0.00000 1.00000
vt 0.00000 1.00000
vt 0.00000 1.00000
vt 0.00000 1.00000
vt 0.00000 1.00000
vt 0.00000 1.00000
vt 0.00000 1.00000
vt 0.00000 1.00000
vt 0.00000 1.00000
vt 0.00000 1.00000
vt 0.00000 1.00000
vt 0.00000 1.00000
vt 0.00000 1.00000
vt 0.00000 1.00000
vt 0.00000 1.00000
vt 0.00000 1.00000
vt 0.00000 1.00000
vt 0.00000 1.00000
vt 0.00000 1.00000
vt 0.00000 1.00000
vt 0.00000 1.00000
vt 0.00000 1.00000
vt 0.00000 1.00000
vt 0.00000 1.00000
vt 0.00000 1.00000
vt 0.00000 1.00000
vt 0.00000 1.00000
vt 0.00000 1.00000
vt 0.00000 1.00000
vt 0.00000 1.00000
vt 0.00000 1.00000
vt 0.00000 1.00000
vt 0.00000 1.00000
vt 0.00000 1.00000
vt 0.00000 1.00000
vt 0.00000 1.00000
vt 0.00000 1.00000
vt 0.00000 1.00000
vt 0.00000 1.00000
vt 0.00000 1.00000
vt 0.00000 1.00000
vt 0.00000 1.00000
vt 0.00000 1.00000
vt 0.00000 1.00000
vt 0.00000 1.00000
vt 0.00000 1.00000
vt 0.00000 1.00000
vt 0.00000 1.00000
vt 0.00000 1.00000
vt 0.00000 1.00000
vt 0.00000 1.00000
vt 0.00000 1.00000
vt 0.00000 1.00000
vt 0.00000 1.00000
vt 0.00000 1.00000
vt 0.00000 1.00000
vt 0.00000 1.00000
vt 0.00000 1.00000
vt 0.00000 1.00000
vt 0.00000 1.00000
vt 0.00000 1.00000
vt 0.00000 1.00000
vt 0.00000 1.00000
vt 0.00000 1.00000
vt 0.00000 1.00000
vt 0.00000 1.00000
vt 0.00000 1.00000
vt 0.00000 1.00000
vt 0.00000 1.00000
vt 0.00000 1.00000
vt 0.00000 1.00000
vt 0.00000 1.00000
vt 0.00000 1.00000
vt 0.00000 1.00000
vt 0.00000 1.00000
vt 0.00000 1.00000
vt 0.00000 1.00000
vt 0.00000 1.00000
vt 0.00000 1.00000
vt 0.00000 1.00000
vt 0.00000 1.00000
vt 0.00000 1.00000
vt 0.00000 1.00000
vt 0.00000 1.00000
vt 0.00000 1.00000
vt 0.00000 1.00000
vt 0.00000 1.00000
vt 0.00000 1.00000
vt 0.00000 1.00000
vt 0.00000 1.00000
vt 0.00000 1.00000
vt 0.00000 1.00000
vt 0.00000 1.00000
vt 0.00000 1.00000
vt 0.00000 1.00000
vt 0.00000 1.00000
vt 0.00000 1.00000
vt 0.00000 1.00000
vt 0.00000 1.00000
vt 0.00000 1.00000
vt 0.00000 1.00000
vt 0.00000 1.00000
vt 0.00000 1.00000
vt 0.00000 1.00000
vt 0.00000 1.00000
vt 0.00000 1.00000
vt 0.00000 1.00000
vt 0.00000 1.00000
vt 0.00000 1.00000
vt 0.00000 1.00000
vt 0.00000 1.00000
vt 0.00000 1.00000
vt 0.00000 1.00000
vt 0.00000 1.00000
vt 0.00000 1.00000
vt 0.00000 1.00000
vt 0.00000 1.00000
vt 0.00000 1.00000
vt 0.00000 1.00000
vt 0.00000 1.00000
vt 0.00000 1.00000
vt 0.00000 1.00000
vt 0.00000 1.00000
vt 0.00000 1.00000
vt 0.00000 1.00000
vt 0.00000 1.00000
vt 0.00000 1.00000
vt 0.00000 1.00000
vt 0.00000 1.00000
vt 0.00000 1.00000
vt 0.00000 1.00000
vt 0.00000 1.00000
vt 0.00000 1.00000
vt 0.00000 1.00000
vt 0.00000 1.00000
vt 0.00000 1.00000
vt 0.00000 1.00000
vt 0.00000 1.00000
vt 0.00000 1.00000
vt 0.00000 1.00000
vt 0.00000 1.00000
vt 0.00000 1.00000
vt 0.00000 1.00000
vt 0.00000 1.00000
vt 0.00000 1.00000
vt 0.00000 1.00000
vt 0.00000 1.00000
vt 0.00000 1.00000
vt 0.00000 1.00000
vt 0.00000 1.00000
vt 0.00000 1.00000
vt 0.00000 1.00000
vt 0.00000 1.00000
vt 0.00000 1.00000
vt 0.00000 1.00000
vt 0.00000 1.00000
vt 0.00000 1.00000
vt 0.00000 1.00000
vt 0.00000 1.00000
vt 0.00000 1.00000
vt 0.00000 1.00000
vt 0.00000 1.00000
vt 0.00000 1.00000
vt 0.00000 1.00000
vt 0.00000 1.00000
vt 0.00000 1.00000
vt 0.00000 1.00000
vt 0.00000 1.00000
vt 0.00000 1.00000
vt 0.00000 1.00000
vt 0.00000 1.00000
vt 0.00000 1.00000
vt 0.00000 1.00000
vt 0.00000 1.00000
vt 0.00000 1.00000
vt 0.00000 1.00000
vt 0.00000 1.00000
vt 0.00000 1.00000
vt 0.00000 1.00000
vt 0.00000 1.00000
vt 0.00000 1.00000
vt 0.00000 1.00000
vt 0.00000 1.00000
vt 0.00000 1.00000
vt 0.00000 1.00000
vt 0.00000 1.00000
vt 0.00000 1.00000
vt 0.00000 1.00000
vt 0.00000 1.00000
vt 0.00000 1.00000
vt 0.00000 1.00000
vt 0.00000 1.00000
vt 0.00000 1.00000
vt 0.00000 1.00000
vt 0.00000 1.00000
vt 0.00000 1.00000
vt 0.00000 1.00000
vt 0.00000 1.00000
vt 0.00000 1.00000
vt 0.00000 1.00000
vt 0.00000 1.00000
vt 0.00000 1.00000
vt 0.00000 1.00000
vt 0.00000 1.00000
vt 0.00000 1.00000
vt 0.00000 1.00000
vt 0.00000 1.00000
vt 0.00000 1.00000
vt 0.00000 1.00000
vt 0.00000 1.00000
vt 0.00000 1.00000
vt 0.00000 1.00000
vt 0.00000 1.00000
vt 0.00000 1.00000
vt 0.00000 1.00000
vt 0.00000 1.00000
vt 0.00000 1.00000
vt 0.00000 1.00000
vt 0.00000 1.00000
vt 0.00000 1.00000
vt 0.00000 1.00000
vt 0.00000 1.00000
vt 0.00000 1.00000
vt 0.00000 1.00000
vt 0.00000 1.00000
vt 0.00000 1.00000
vt 0.00000 1.00000
vt 0.00000 1.00000
vt 0.00000 1.00000
vt 0.00000 1.00000
vt 0.00000 1.00000
vt 0.00000 1.00000
vt 0.00000 1.00000
vt 0.00000 1.00000
vt 0.00000 1.00000
vt 0.00000 1.00000
vt 0.00000 1.00000
vt 0.00000 1.00000
vt 0.00000 1.00000
vt 0.00000 1.00000
vt 0.00000 1.00000
vt 0.00000 1.00000
vt 0.00000 1.00000
vt 0.00000 1.00000
vt 0.00000 1.00000
vt 0.00000 1.00000
vt 0.00000 1.00000
vt 0.00000 1.00000
vt 0.00000 1.00000
vt 0.00000 1.00000
vt 0.00000 1.00000
vt 0.00000 1.00000
vt 0.00000 1.00000
vt 0.00000 1.00000
vt 0.00000 1.00000
vt 0.00000 1.00000
vt 0.00000 1.00000
vt 0.00000 1.00000
vt 0.00000 1.00000
vt 0.00000 1.00000
vt 0.00000 1.00000
vt 0.00000 1.00000
vt 0.00000 1.00000
vt 0.00000 1.00000
vt 0.00000 1.00000
vt 0.00000 1.00000
vt 0.00000 1.00000
vt 0.00000 1.00000
vt 0.00000 1.00000
vt 0.00000 1.00000
vt 0.00000 1.00000
vt 0.00000 1.00000
vt 0.00000 1.00000
vt 0.00000 1.00000
vt 0.00000 1.00000
vt 0.00000 1.00000
vt 0.00000 1.00000
vt 0.00000 1.00000
vt 0.00000 1.00000
vt 0.00000 1.00000
vt 0.00000 1.00000
vt 0.00000 1.00000
vt 0.00000 1.00000
vt 0.00000 1.00000
vt 0.00000 1.00000
vt 0.00000 1.00000
vt 0.00000 1.00000
vt 0.00000 1.00000
vt 0.00000 1.00000
vt 0.00000 1.00000
vt 0.00000 1.00000
vt 0.00000 1.00000
vt 0.00000 1.00000
vt 0.00000 1.00000
vt 0.00000 1.00000
vt 0.00000 1.00000
vt 0.00000 1.00000
vt 0.00000 1.00000
vt 0.00000 1.00000
vt 0.00000 1.00000
vt 0.00000 1.00000
vt 0.00000 1.00000
vt 0.00000 1.00000
vt 0.00000 1.00000
vt 0.00000 1.00000
vt 0.00000 1.00000
vt 0.00000 1.00000
vt 0.00000 1.00000
vt 0.00000 1.00000
vt 0.00000 1.00000
vt 0.00000 1.00000
vt 0.00000 1.00000
vt 0.00000 1.00000
vt 0.00000 1.00000
vt 0.00000 1.00000
vt 0.00000 1.00000
vt 0.00000 1.00000
vt 0.00000 1.00000
vt 0.00000 1.00000
vt 0.00000 1.00000
vt 0.00000 1.00000
vt 0.00000 1.00000
vt 0.00000 1.00000
vt 0.00000 1.00000
vt 0.00000 1.00000
vt 0.00000 1.00000
vt 0.00000 1.00000
vt 0.00000 1.00000
vt 0.00000 1.00000
vt 0.00000 1.00000
vt 0.00000 1.00000
vt 0.00000 1.00000
vt 0.00000 1.00000
vt 0.00000 1.00000
vt 0.00000 1.00000
vt 0.00000 1.00000
vt 0.00000 1.00000
vt 0.00000 1.00000
vt 0.00000 1.00000
vt 0.00000 1.00000
vt 0.00000 1.00000
vt 0.00000 1.00000
vt 0.00000 1.00000
vt 0.00000 1.00000
vt 0.00000 1.00000
vt 0.00000 1.00000
vt 0.00000 1.00000
vt 0.00000 1.00000
vt 0.00000 1.00000
vt 0.00000 1.00000
vt 0.00000 1.00000
vt 0.00000 1.00000
vt 0.00000 1.00000
vt 0.00000 1.00000
vt 0.00000 1.00000
vt 0.00000 1.00000
vt 0.00000 1.00000
vt 0.00000 1.00000
vt 0.00000 1.00000
vt 0.00000 1.00000
vt 0.00000 1.00000
vt 0.00000 1.00000
vt 0.00000 1.00000
vt 0.00000 1.00000
vt 0.00000 1.00000
vt 0.00000 1.00000
vt 0.00000 1.00000
vt 0.00000 1.00000
vt 0.00000 1.00000
vt 0.00000 1.00000
vt 0.00000 1.00000
vt 0.00000 1.00000
vt 0.00000 1.00000
vt 0.00000 1.00000
vt 0.00000 1.00000
vt 0.00000 1.00000
vt 0.00000 1.00000
vt 0.00000 1.00000
vt 0.00000 1.00000
vt 0.00000 1.00000
vt 0.00000 1.00000
vt 0.00000 1.00000
vt 0.00000 1.00000
vt 0.00000 1.00000
vt 0.00000 1.00000
vt 0.00000 1.00000
vt 0.00000 1.00000
vt 0.00000 1.00000
vt 0.00000 1.00000
vt 0.00000 1.00000
vt 0.00000 1.00000
vt 0.00000 1.00000
vt 0.00000 1.00000
vt 0.00000 1.00000
vt 0.00000 1.00000
vt 0.00000 1.00000
vt 0.00000 1.00000
vt 0.00000 1.00000
vt 0.00000 1.00000
vt 0.00000 1.00000
vt 0.00000 1.00000
vt 0.00000 1.00000
vt 0.00000 1.00000
vt 0.00000 1.00000
vt 0.00000 1.00000
vt 0.00000 1.00000
vt 0.00000 1.00000
vt 0.00000 1.00000
vt 0.00000 1.00000
vt 0.00000 1.00000
vt 0.00000 1.00000
vt 0.00000 1.00000
vt 0.00000 1.00000
vt 0.00000 1.00000
vt 0.00000 1.00000
vt 0.00000 1.00000
vt 0.00000 1.00000
vt 0.00000 1.00000
vt 0.00000 1.00000
vt 0.00000 1.00000
vt 0.00000 1.00000
vt 0.00000 1.00000
vt 0.00000 1.00000
vt 0.00000 1.00000
vt 0.00000 1.00000
vt 0.00000 1.00000
vt 0.00000 1.00000
vt 0.00000 1.00000
vt 0.00000 1.00000
vt 0.00000 1.00000
vt 0.00000 1.00000
vt 0.00000 1.00000
vt 0.00000 1.00000
vt 0.00000 1.00000
vt 0.00000 1.00000
vt 0.00000 1.00000
vt 0.00000 1.00000
vt 0.00000 1.00000
vt 0.00000 1.00000
vt 0.00000 1.00000
vt 0.00000 1.00000
vt 0.00000 1.00000
vt 0.00000 1.00000
vt 0.00000 1.00000
vt 0.00000 1.00000
vt 0.00000 1.00000
vt 0.00000 1.00000
vt 0.00000 1.00000
vt 0.00000 1.00000
vt 0.00000 1.00000
vt 0.00000 1.00000
vt 0.00000 1.00000
vt 0.00000 1.00000
vt 0.00000 1.00000
vt 0.00000 1.00000
vt 0.00000 1.00000
vt 0.00000 1.00000
vt 0.00000 1.00000
vt 0.00000 1.00000
vt 0.00000 1.00000
vt 0.00000 1.00000
vt 0.00000 1.00000
vt 0.00000 1.00000
vt 0.00000 1.00000
vt 0.00000 1.00000
vt 0.00000 1.00000
vt 0.00000 1.00000
vt 0.00000 1.00000
vt 0.00000 1.00000
vt 0.00000 1.00000
vt 0.00000 1.00000
vt 0.00000 1.00000
vt 0.00000 1.00000
vt 0.00000 1.00000
vt 0.00000 1.00000
vt 0.00000 1.00000
vt 0.00000 1.00000
vt 0.00000 1.00000
vt 0.00000 1.00000
vt 0.00000 1.00000
vt 0.00000 1.00000
vt 0.00000 1.00000
vt 0.00000 1.00000
vt 0.00000 1.00000
vt 0.00000 1.00000
vt 0.00000 1.00000
vt 0.00000 1.00000
vt 0.00000 1.00000
vt 0.00000 1.00000
vt 0.00000 1.00000
vt 0.00000 1.00000
vt 0.00000 1.00000
vt 0.00000 1.00000
vt 0.00000 1.00000
vt 0.00000 1.00000
vt 0.00000 1.00000
vt 0.00000 1.00000
vt 0.00000 1.00000
vt 0.00000 1.00000
vt 0.00000 1.00000
vt 0.00000 1.00000
vt 0.00000 1.00000
vt 0.00000 1.00000
vt 0.00000 1.00000
vt 0.00000 1.00000
vt 0.00000 1.00000
vt 0.00000 1.00000
vt 0.00000 1.00000
vt 0.00000 1.00000
vt 0.00000 1.00000
vt 0.00000 1.00000
vt 0.00000 1.00000
vt 0.00000 1.00000
vt 0.00000 1.00000
vt 0.00000 1.00000
vt 0.00000 1.00000
vt 0.00000 1.00000
vt 0.00000 1.00000
vt 0.00000 1.00000
vt 0.00000 1.00000
vt 0.00000 1.00000
vt 0.00000 1.00000
vt 0.00000 1.00000
vt 0.00000 1.00000
vt 0.00000 1.00000
vt 0.00000 1.00000
vt 0.00000 1.00000
vt 0.00000 1.00000
vt 0.00000 1.00000
vt 0.00000 1.00000
vt 0.00000 1.00000
vt 0.00000 1.00000
vt 0.00000 1.00000
vt 0.00000 1.00000
vt 0.00000 1.00000
vt 0.00000 1.00000
vt 0.00000 1.00000
vt 0.00000 1.00000
vt 0.00000 1.00000
vt 0.00000 1.00000
vt 0.00000 1.00000
vt 0.00000 1.00000
vt 0.00000 1.00000
vt 0.00000 1.00000
vt 0.00000 1.00000
vt 0.00000 1.00000
vt 0.00000 1.00000
vt 0.00000 1.00000
vt 0.00000 1.00000
vt 0.00000 1.00000
vt 0.00000 1.00000
vt 0.00000 1.00000
vt 0.00000 1.00000
vt 0.00000 1.00000
vt 0.00000 1.00000
vt 0.00000 1.00000
vt 0.00000 1.00000
vt 0.00000 1.00000
vt 0.00000 1.00000
vt 0.00000 1.00000
vt 0.00000 1.00000
vt 0.00000 1.00000
vt 0.00000 1.00000
vt 0.00000 1.00000
vt 0.00000 1.00000
vt 0.00000 1.00000
vt 0.00000 1.00000
vt 0.00000 1.00000
vt 0.00000 1.00000
vt 0.00000 1.00000
vt 0.00000 1.00000
vt 0.00000 1.00000
vt 0.00000 1.00000
vt 0.00000 1.00000
vt 0.00000 1.00000
vt 0.00000 1.00000
vt 0.00000 1.00000
vt 0.00000 1.00000
vt 0.00000 1.00000
vt 0.00000 1.00000
vt 0.00000 1.00000
vt 0.00000 1.00000
vt 0.00000 1.00000
vt 0.00000 1.00000
vt 0.00000 1.00000
vt 0.00000 1.00000
vt 0.00000 1.00000
vt 0.00000 1.00000
vt 0.00000 1.00000
vt 0.00000 1.00000
vt 0.00000 1.00000
vt 0.00000 1.00000
vt 0.00000 1.00000
vt 0.00000 1.00000
vt 0.00000 1.00000
vt 0.00000 1.00000
vt 0.00000 1.00000
vt 0.00000 1.00000
vt 0.00000 1.00000
vt 0.00000 1.00000
vt 0.00000 1.00000
vt 0.00000 1.00000
vt 0.00000 1.00000
vt 0.00000 1.00000
vt 0.00000 1.00000
vt 0.00000 1.00000
vt 0.00000 1.00000
vt 0.00000 1.00000
vt 0.00000 1.00000
vt 0.00000 1.00000
vt 0.00000 1.00000
vt 0.00000 1.00000
vt 0.00000 1.00000
vt 0.00000 1.00000
vt 0.00000 1.00000
vt 0.00000 1.00000
vt 0.00000 1.00000
vt 0.00000 1.00000
vt 0.00000 1.00000
vt 0.00000 1.00000
vt 0.00000 1.00000
vt 0.00000 1.00000
vt 0.00000 1.00000
vt 0.00000 1.00000
vt 0.00000 1.00000
vt 0.00000 1.00000
vt 0.00000 1.00000
vt 0.00000 1.00000
vt 0.00000 1.00000
vt 0.00000 1.00000
vt 0.00000 1.00000
vt 0.00000 1.00000
vt 0.00000 1.00000
vt 0.00000 1.00000
vt 0.00000 1.00000
vt 0.00000 1.00000
vt 0.00000 1.00000
vt 0.00000 1.00000
vt 0.00000 1.00000
vt 0.00000 1.00000
vt 0.00000 1.00000
vt 0.00000 1.00000
vt 0.00000 1.00000
vt 0.00000 1.00000
vt 0.00000 1.00000
vt 0.00000 1.00000
vt 0.00000 1.00000
vt 0.00000 1.00000
vt 0.00000 1.00000
vt 0.00000 1.00000
vt 0.00000 1.00000
vt 0.00000 1.00000
vt 0.00000 1.00000
vt 0.00000 1.00000
vt 0.00000 1.00000
vt 0.00000 1.00000
vt 0.00000 1.00000
vt 0.00000 1.00000
vt 0.00000 1.00000
vt 0.00000 1.00000
vt 0.00000 1.00000
vt 0.00000 1.00000
vt 0.00000 1.00000
vt 0.00000 1.00000
vt 0.00000 1.00000
vt 0.00000 1.00000
vt 0.00000 1.00000
vt 0.00000 1.00000
vt 0.00000 1.00000
vt 0.00000 1.00000
vt 0.00000 1.00000
vt 0.00000 1.00000
vt 0.00000 1.00000
vt 0.00000 1.00000
vt 0.00000 1.00000
vt 0.00000 1.00000
vt 0.00000 1.00000
vt 0.00000 1.00000
vt 0.00000 1.00000
vt 0.00000 1.00000
vt 0.00000 1.00000
vt 0.00000 1.00000
vt 0.00000 1.00000
vt 0.00000 1.00000
vt 0.00000 1.00000
vt 0.00000 1.00000
vt 0.00000 1.00000
vt 0.00000 1.00000
vt 0.00000 1.00000
vt 0.00000 1.00000
vt 0.00000 1.00000
vt 0.00000 1.00000
vt 0.00000 1.00000
vt 0.00000 1.00000
vt 0.00000 1.00000
vt 0.00000 1.00000
vt 0.00000 1.00000
vt 0.00000 1.00000
vt 0.00000 1.00000
vt 0.00000 1.00000
vt 0.00000 1.00000
vt 0.00000 1.00000
vt 0.00000 1.00000
vt 0.00000 1.00000
vt 0.00000 1.00000
vt 0.00000 1.00000
vt 0.00000 1.00000
vt 0.00000 1.00000
vt 0.00000 1.00000
vt 0.00000 1.00000
vt 0.00000 1.00000
vt 0.00000 1.00000
vt 0.00000 1.00000
vt 0.00000 1.00000
vt 0.00000 1.00000
vt 0.00000 1.00000
vt 0.00000 1.00000
vt 0.00000 1.00000
vt 0.00000 1.00000
vt 0.00000 1.00000
vt 0.00000 1.00000
vt 0.00000 1.00000
vt 0.00000 1.00000
vt 0.00000 1.00000
vt 0.00000 1.00000
vt 0.00000 1.00000
vt 0.00000 1.00000
vt 0.00000 1.00000
vt 0.00000 1.00000
vt 0.00000 1.00000
vt 0.00000 1.00000
vt 0.00000 1.00000
vt 0.00000 1.00000
vt 0.00000 1.00000
vt 0.00000 1.00000
vt 0.00000 1.00000
vt 0.00000 1.00000
vt 0.00000 1.00000
vt 0.00000 1.00000
vt 0.00000 1.00000
vt 0.00000 1.00000
vt 0.00000 1.00000
vt 0.00000 1.00000
vt 0.00000 1.00000
vt 0.00000 1.00000
vt 0.00000 1.00000
vt 0.00000 1.00000
vt 0.00000 1.00000
vt 0.00000 1.00000
vt 0.00000 1.00000
vt 0.00000 1.00000
vt 0.00000 1.00000
vt 0.00000 1.00000
vt 0.00000 1.00000
vt 0.00000 1.00000
vt 0.00000 1.00000
vt 0.00000 1.00000
vt 0.00000 1.00000
vt 0.00000 1.00000
vt 0.00000 1.00000
vt 0.00000 1.00000
vt 0.00000 1.00000
vt 0.00000 1.00000
vt 0.00000 1.00000
vt 0.00000 1.00000
vt 0.00000 1.00000
vt 0.00000 1.00000
vt 0.00000 1.00000
vt 0.00000 1.00000
vt 0.00000 1.00000
vt 0.00000 1.00000
vt 0.00000 1.00000
vt 0.00000 1.00000
vt 0.00000 1.00000
vt 0.00000 1.00000
vt 0.00000 1.00000
vt 0.00000 1.00000
vt 0.00000 1.00000
vt 0.00000 1.00000
vt 0.00000 1.00000
vt 0.00000 1.00000
vt 0.00000 1.00000
vt 0.00000 1.00000
vt 0.00000 1.00000
vt 0.00000 1.00000
vt 0.00000 1.00000
vt 0.00000 1.00000
vt 0.00000 1.00000
vt 0.00000 1.00000
vt 0.00000 1.00000
vt 0.00000 1.00000
vt 0.00000 1.00000
vt 0.00000 1.00000
vt 0.00000 1.00000
vt 0.00000 1.00000
vt 0.00000 1.00000
vt 0.00000 1.00000
vt 0.00000 1.00000
vt 0.00000 1.00000
vt 0.00000 1.00000
vt 0.00000 1.00000
vt 0.00000 1.00000
vt 0.00000 1.00000
vt 0.00000 1.00000
vt 0.00000 1.00000
vt 0.00000 1.00000
vt 0.00000 1.00000
vt 0.00000 1.00000
vt 0.00000 1.00000
usemtl needles
f 277/277 278/278 279/279
f 280/280 281/281 282/282
f 283/283 284/284 285/285
f 286/286 287/287 288/288
f 289/289 290/290 291/291
f 292/292 293/293 294/294
f 295/295 296/296 297/297
f 298/298 299/299 300/300
f 301/301 302/302 303/303
f 304/304 305/305 306/306
f 307/307 308/308 309/309
f 310/310 311/311 312/312
f 313/313 314/314 315/315
f 316/316 317/317 318/318
f 319/319 320/320 321/321
f 322/322 323/323 324/324
f 325/325 326/326 327/327
f 328/328 329/329 330/330
f 331/331 332/332 333/333
f 334/334 335/335 336/336
f 337/337 338/338 339/339
f 340/340 341/341 342/342
f 343/343 344/344 345/345
f 346/346 347/347 348/348
f 349/349 350/350 351/351
f 352/352 353/353 354/354
f 355/355 356/356 357/357
f 358/358 359/359 360/360
f 361/361 362/362 363/363
f 364/364 365/365 366/366
f 367/367 368/368 369/369
f 370/370 371/371 372/372
f 373/373 374/374 375/375
f 376/376 377/377 378/378
f 379/379 380/380 381/381
f 382/382 383/383 384/384
f 385/385 386/386 387/387
f 388/388 389/389 390/390
f 391/391 392/392 393/393
f 394/394 395/395 396/396
f 397/397 398/398 399/399
f 400/400 401/401 402/402
f 403/403 404/404 405/405
f 406/406 407/407 408/408
f 409/409 410/410 411/411
f 412/412 413/413 414/414
f 415/415 416/416 417/417
f 418/418 419/419 420/420
f 421/421 422/422 423/423
f 424/424 425/425 426/426
f 427/427 428/428 429/429
f 430/430 431/431 432/432
f 433/433 434/434 435/435
f 436/436 437/437 438/438
f 439/439 440/440 441/441
f 442/442 443/443 444/444
f 445/445 446/446 447/447
f 448/448 449/449 450/450
f 451/451 452/452 453/453
f 454/454 455/455 456/456
f 457/457 458/458 459/459
f 460/460 461/461 462/462
f 463/463 464/464 465/465
f 466/466 467/467 468/468
f 469/469 470/470 471/471
f 472/472 473/473 474/474
f 475/475 476/476 477/477
f 478/478 479/479 480/480
f 481/481 482/482 483/483
f 484/484 485/485 486/486
f 487/487 488/488 489/489
f 490/490 491/491 492/492
f 493/493 494/494 495/495
f 496/496 497/497 498/498
f 499/499 500/500 501/501
f 502/502 503/503 504/504
f 505/505 506/506 507/507
f 508/508 509/509 510/510
f 511/511 512/512 513/513
f 514/514 515/515 516/516
f 517/517 518/518 519/519
f 520/520 521/521 522/522
f 523/523 524/524 525/525
f 526/526 527/527 528/528
f 529/529 530/530 531/531
f 532/532 533/533 534/534
f 535/535 536/536 537/537
f 538/538 539/539 540/540
f 541/541 542/542 543/543
f 544/544 545/545 546/546
f 547/547 548/548 549/549
f 550/550 551/551 552/552
f 553/553 554/554 555/555
f 556/556 557/557 558/558
f 559/559 560/560 561/561
f 562/562 563/563 564/564
f 565/565 566/566 567/567
f 568/568 569/569 570/570
f 571/571 572/572 573/573
f 574/574 575/575 576/576
f 577/577 578/578 579/579
f 580/580 581/581 582/582
f 583/583 584/584 585/585
f 586/586 587/587 588/588
f 589/589 590/590 591/591
f 592/592 593/593 594/594
f 595/595 596/596 597/597
f 598/598 599/599 600/600
f 601/601 602/602 603/603
f 604/604 605/605 606/606
f 607/607 608/608 609/609
f 610/610 611/611 612/612
f 613/613 614/614 615/615
f 616/616 617/617 618/618
f 619/619 620/620 621/621
f 622/622 623/623 624/624
f 625/625 626/626 627/627
f 628/628 629/629 630/630
f 631/631 632/632 633/633
f 634/634 635/635 636/636
f 637/637 638/638 639/639
f 640/640 641/641 642/642
f 643/643 644/644 645/645
f 646/646 647/647 648/648
f 649/649 650/650 651/651
f 652/652 653/653 654/654
f 655/655 656/656 657/657
f 658/658 659/659 660/660
f 661/661 662/662 663/663
f 664/664 665/665 666/666
f 667/667 668/668 669/669
f 670/670 671/671 672/672
f 673/673 674/674 675/675
f 676/676 677/677 678/678
f 679/679 680/680 681/681
f 682/682 683/683 684/684
f 685/685 686/686 687/687
f 688/688 689/689 690/690
f 691/691 692/692 693/693
f 694/694 695/695 696/696
f 697/697 698/698 699/699
f 700/700 701/701 702/702
f 703/703 704/704 705/705
f 706/706 707/707 708/708
f 709/709 710/710 711/711
f 712/712 713/713 714/714
f 715/715 716/716 717/717
f 718/718 719/719 720/720
f 721/721 722/722 723/723
f 724/724 725/725 726/726
f 727/727 728/728 729/729
f 730/730 731/731 732/732
f 733/733 734/734 735/735
f 736/736 737/737 738/738
f 739/739 740/740 741/741
f 742/742 743/743 744/744
f 745/745 746/746 747/747
f 748/748 749/749 750/750
f 751/751 752/752 753/753
f 754/754 755/755 756/756
f 757/757 758/758 759/759
f 760/760 761/761 762/762
f 763/763 764/764 765/765
f 766/766 767/767 768/768
f 769/769 770/770 771/771
f 772/772 773/773 774/774
f 775/775 776/776 777/777
f 778/778 779/779 780/780
f 781/781 782/782 783/783
f 784/784 785/785 786/786
f 787/787 788/788 789/789
f 790/790 791/791 792/792
f 793/793 794/794 795/795
f 796/796 797/797 798/798
f 799/799 800/800 801/801
f 802/802 803/803 804/804
f 805/805 806/806 807/807
f 808/808 809/809 810/810
f 811/811 812/812 813/813
f 814/814 815/815 816/816
f 817/817 818/818 819/819
f 820/820 821/821 822/822
f 823/823 824/824 825/825
f 826/826 827/827 828/828
f 829/829 830/830 831/831
f 832/832 833/833 834/834
f 835/835 836/836 837/837
f 838/838 839/839 840/840
f 841/841 842/842 843/843
f 844/844 845/845 846/846
f 847/847 848/848 849/849
f 850/850 851/851 852/852
f 853/853 854/854 855/855
f 856/856 857/857 858/858
f 859/859 860/860 861/861
f 862/862 863/863 864/864
f 865/865 866/866 867/867
f 868/868 869/869 870/870
f 871/871 872/872 873/873
f 874/874 875/875 876/876
f 877/877 878/878 879/879
f 880/880 881/881 882/882
f 883/883 884/884 885/885
f 886/886 887/887 888/888
f 889/889 890/890 891/891
f 892/892 893/893 894/894
f 895/895 896/896 897/897
f 898/898 899/899 900/900
f 901/901 902/902 903/903
f 904/904 905/905 906/906
f 907/907 908/908 909/909
f 910/910 911/911 912/912
f 913/913 914/914 915/915
f 916/916 917/917 918/918
f 919/919 920/920 921/921
f 922/922 923/923 924/924
f 925/925 926/926 927/927
f 928/928 929/929 930/930
f 931/931 932/932 933/933
f 934/934 935/935 936/936
f 937/937 938/938 939/939
f 940/940 941/941 942/942
f 943/943 944/944 945/945
f 946/946 947/947 948/948
f 949/949 950/950 951/951
f 952/952 953/953 954/954
f 955/955 956/956 957/957
f 958/958 959/959 960/960
f 961/961 962/962 963/963
f 964/964 965/965 966/966
f 967/967 968/968 969/969
f 970/970 971/971 972/972
f 973/973 974/974 975/975
f 976/976 977/977 978/978
f 979/979 980/980 981/981
f 982/982 983/983 984/984
f 985/985 986/986 987/987
f 988/988 989/989 990/990
f 991/991 992/992 993/993
f 994/994 995/995 996/996
f 997/997 998/998 999/999
f 1000/1000 1001/1001 1002/1002
f 1003/1003 1004/1004 1005/1005
f 1006/1006 1007/1007 1008/1008
f 1009/1009 1010/1010 1011/1011
f 1012/1012 1013/1013 1014/1014
f 1015/1015 1016/1016 1017/1017
f 1018/1018 1019/1019 1020/1020
f 1021/1021 1022/1022 1023/1023
f 1024/1024 1025/1025 1026/1026
f 1027/1027 1028/1028 1029/1029
f 1030/1030 1031/1031 1032/1032
f 1033/1033 1034/1034 1035/1035
f 1036/1036 1037/1037 1038/1038
f 1039/1039 1040/1040 1041/1041
f 1042/1042 1043/1043 1044/1044
f 1045/1045 1046/1046 1047/1047
f 1048/1048 1049/1049 1050/1050
f 1051/1051 1052/1052 1053/1053
f 1054/1054 1055/1055 1056/1056
f 1057/1057 1058/1058 1059/1059
f 1060/1060 1061/1061 1062/1062
f 1063/1063 1064/1064 1065/1065
f 1066/1066 1067/1067 1068/1068
f 1069/1069 1070/1070 1071/1071
f 1072/1072 1073/1073 1074/1074
f 1075/1075 1076/1076 1077/1077
f 1078/1078 1079/1079 1080/1080
f 1081/1081 1082/1082 1083/1083
f 1084/1084 1085/1085 1086/1086
f 1087/1087 1088/1088 1089/1089
f 1090/1090 1091/1091 1092/1092
f 1093/1093 1094/1094 1095/1095
f 1096/1096 1097/1097 1098/1098
f 1099/1099 1100/1100 1101/1101
f 1102/1102 1103/1103 1104/1104
f 1105/1105 1106/1106 1107/1107
f 1108/1108 1109/1109 1110/1110
f 1111/1111 1112/1112 1113/1113
f 1114/1114 1115/1115 1116/1116
f 1117/1117 1118/1118 1119/1119
f 1120/1120 1121/1121 1122/1122
f 1123/1123 1124/1124 1125/1125
f 1126/1126 1127/1127 1128/1128
f 1129/1129 1130/1130 1131/1131
f 1132/1132 1133/1133 1134/1134
f 1135/1135 1136/1136 1137/1137
f 1138/1138 1139/1139 1140/1140
f 1141/1141 1142/1142 1143/1143
f 1144/1144 1145/1145 1146/1146
f 1147/1147 1148/1148 1149/1149
f 1150/1150 1151/1151 1152/1152
f 1153/1153 1154/1154 1155/1155
f 1156/1156 1157/1157 1158/1158
f 1159/1159 1160/1160 1161/1161
f 1162/1162 1163/1163 1164/1164
f 1165/1165 1166/1166 1167/1167
f 1168/1168 1169/1169 1170/1170
f 1171/1171 1172/1172 1173/1173
f 1174/1174 1175/1175 1176/1176
f 1177/1177 1178/1178 1179/1179
f 1180/1180 1181/1181 1182/1182
f 1183/1183 1184/1184 1185/1185
f 1186/1186 1187/1187 1188/1188
f 1189/1189 1190/1190 1191/1191
f 1192/1192 1193/1193 1194/1194
f 1195/1195 1196/1196 1197/1197
f 1198/1198 1199/1199 1200/1200
f 1201/1201 1202/1202 1203/1203
f 1204/1204 1205/1205 1206/1206
f 1207/1207 1208/1208 1209/1209
f 1210/1210 1211/1211 1212/1212
f 1213/1213 1214/1214 1215/1215
f 1216/1216 1217/1217 1218/1218
f 1219/1219 1220/1220 1221/1221
f 1222/1222 1223/1223 1224/1224
f 1225/1225 1226/1226 1227/1227
f 1228/1228 1229/1229 1230/1230
f 1231/1231 1232/1232 1233/1233
f 1234/1234 1235/1235 1236/1236
f 1237/1237 1238/1238 1239/1239
f 1240/1240 1241/1241 1242/1242
f 1243/1243 1244/1244 1245/1245
f 1246/1246 1247/1247 1248/1248
f 1249/1249 1250/1250 1251/1251
f 1252/1252 1253/1253 1254/1254
f 1255/1255 1256/1256 1257/1257
f 1258/1258 1259/1259 1260/1260
f 1261/1261 1262/1262 1263/1263
f 1264/1264 1265/1265 1266/1266
f 1267/1267 1268/1268 1269/1269
f 1270/1270 1271/1271 1272/1272
f 1273/1273 1274/1274 1275/1275
f 1276/1276 1277/1277 1278/1278
f 1279/1279 1280/1280 1281/1281
f 1282/1282 1283/1283 1284/1284
f 1285/1285 1286/1286 1287/1287
f 1288/1288 1289/1289 1290/1290
f 1291/1291 1292/1292 1293/1293
f 1294/1294 1295/1295 1296/1296
f 1297/1297 1298/1298 1299/1299
f 1300/1300 1301/1301 1302/1302
f 1303/1303 1304/1304 1305/1305
f 1306/1306 1307/1307 1308/1308
f 1309/1309 1310/1310 1311/1311
f 1312/1312 1313/1313 1314/1314
f 1315/1315 1316/1316 1317/1317
f 1318/1318 1319/1319 1320/1320
f 1321/1321 1322/1322 1323/1323
f 1324/1324 1325/1325 1326/1326
f 1327/1327 1328/1328 1329/1329
f 1330/1330 1331/1331 1332/1332
f 1333/1333 1334/1334 1335/1335
f 1336/1336 1337/1337 1338/1338
f 1339/1339 1340/1340 1341/1341
f 1342/1342 1343/1343 1344/1344
f 1345/1345 1346/1346 1347/1347
f 1348/1348 1349/1349 1350/1350
f 1351/1351 1352/1352 1353/1353
f 1354/1354 1355/1355 1356/1356
f 1357/1357 1358/1358 1359/1359
f 1360/1360 1361/1361 1362/1362
f 1363/1363 1364/1364 1365/1365
f 1366/1366 1367/1367 1368/1368
f 1369/1369 1370/1370 1371/1371
f 1372/1372 1373/1373 1374/1374
f 1375/1375 1376/1376 1377/1377
f 1378/1378 1379/1379 1380/1380
f 1381/1381 1382/1382 1383/1383
f 1384/1384 1385/1385 1386/1386
f 1387/1387 1388/1388 1389/1389
f 1390/1390 1391/1391 1392/1392
f 1393/1393 1394/1394 1395/1395
f 1396/1396 1397/1397 1398/1398
f 1399/1399 1400/1400 1401/1401
f 1402/1402 1403/1403 1404/1404
f 1405/1405 1406/1406 1407/1407
f 1408/1408 1409/1409 1410/1410
f 1411/1411 1412/1412 1413/1413
f 1414/1414 1415/1415 1416/1416
f 1417/1417 1418/1418 1419/1419
f 1420/1420 1421/1421 1422/1422
f 1423/1423 1424/1424 1425/1425
f 1426/1426 1427/1427 1428/1428
f 1429/1429 1430/1430 1431/1431
f 1432/1432 1433/1433 1434/1434
f 1435/1435 1436/1436 1437/1437
f 1438/1438 1439/1439 1440/1440
f 1441/1441 1442/1442 1443/1443
f 1444/1444 1445/1445 1446/1446
f 1447/1447 1448/1448 1449/1449
f 1450/1450 1451/1451 1452/1452
f 1453/1453 1454/1454 1455/1455
f 1456/1456 1457/1457 1458/1458
f 1459/1459 1460/1460 1461/1461
f 1462/1462 1463/1463 1464/1464
f 1465/1465 1466/1466 1467/1467
f 1468/1468 1469/1469 1470/1470
f 1471/1471 1472/1472 1473/1473
f 1474/1474 1475/1475 1476/1476
f 1477/1477 1478/1478 1479/1479
f 1480/1480 1481/1481 1482/1482
f 1483/1483 1484/1484 1485/1485
f 1486/1486 1487/1487 1488/1488
f 1489/1489 1490/1490 1491/1491
f 1492/1492 1493/1493 1494/1494
f 1495/1495 1496/1496 1497/1497
f 1498/1498 1499/1499 1500/1500
f 1501/1501 1502/1502 1503/1503
f 1504/1504 1505/1505 1506/1506
f 1507/1507 1508/1508 1509/1509
f 1510/1510 1511/1511 1512/1512
f 1513/1513 1514/1514 1515/1515
f 1516/1516 1517/1517 1518/1518
