# Generated by TyraX. Do not edit - rebaked from the procedural graph of 'pines'.
# 7 instances of res/models/rock.obj
mtllib props.mtl
v -3.0314 27.4821 -51.3297
v -2.8863 27.6868 -51.7552
v -2.9168 27.7078 -50.9183
v -3.0314 27.4821 -51.3297
v -2.9168 27.7078 -50.9183
v -2.8863 27.6868 -51.7552
v 31.1837 26.3393 -9.1074
v 29.7103 27.0157 -9.2487
v 32.4468 27.1966 -9.5553
v 31.1837 26.3393 -9.1074
v 32.4468 27.1966 -9.5553
v 29.7103 27.0157 -9.2487
v -1.1585 23.1477 35.8580
v -0.1747 23.7358 35.4979
v -1.8668 23.6773 36.6307
v -1.1585 23.1477 35.8580
v -1.8668 23.6773 36.6307
v -0.1747 23.7358 35.4979
v -16.3634 24.1532 5.9596
v -17.2652 24.6273 6.1993
v -15.7111 24.6434 5.3423
v -16.3634 24.1532 5.9596
v -15.7111 24.6434 5.3423
v -17.2652 24.6273 6.1993
v -49.1295 22.5268 -2.5544
v -48.0865 23.1717 -1.7761
v -50.3226 23.2548 -2.8051
v -49.1295 22.5268 -2.5544
v -50.3226 23.2548 -2.8051
v -48.0865 23.1717 -1.7761
v -60.6032 22.4806 -55.2969
v -60.3497 22.9636 -54.2942
v -61.3059 23.0191 -55.9763
v -60.6032 22.4806 -55.2969
v -61.3059 23.0191 -55.9763
v -60.3497 22.9636 -54.2942
v 71.2959 23.8232 46.6264
v 71.4399 24.2662 47.4885
v 70.8046 24.2959 45.9535
v 71.2959 23.8232 46.6264
v 70.8046 24.2959 45.9535
v 71.4399 24.2662 47.4885
vt 0.00000 1.00000
vt 0.00000 1.00000
vt 0.00000 1.00000
vt 0.00000 1.00000
vt 0.00000 1.00000
vt 0.00000 1.00000
vt 0.00000 1.00000
vt 0.00000 1.00000
vt 0.00000 1.00000
vt 0.00000 1.00000
vt 0.00000 1.00000
vt 0.00000 1.00000
vt 0.00000 1.00000
vt 0.00000 1.00000
vt 0.00000 1.00000
vt 0.00000 1.00000
vt 0.00000 1.00000
vt 0.00000 1.00000
vt 0.00000 1.00000
vt 0.00000 1.00000
vt 0.00000 1.00000
vt 0.00000 1.00000
vt 0.00000 1.00000
vt 0.00000 1.00000
vt 0.00000 1.00000
vt 0.00000 1.00000
vt 0.00000 1.00000
vt 0.00000 1.00000
vt 0.00000 1.00000
vt 0.00000 1.00000
vt 0.00000 1.00000
vt 0.00000 1.00000
vt 0.00000 1.00000
vt 0.00000 1.00000
vt 0.00000 1.00000
vt 0.00000 1.00000
vt 0.00000 1.00000
vt 0.00000 1.00000
vt 0.00000 1.00000
vt 0.00000 1.00000
vt 0.00000 1.00000
vt 0.00000 1.00000
usemtl stone
f 1/1 2/2 3/3
f 4/4 5/5 6/6
f 7/7 8/8 9/9
f 10/10 11/11 12/12
f 13/13 14/14 15/15
f 16/16 17/17 18/18
f 19/19 20/20 21/21
f 22/22 23/23 24/24
f 25/25 26/26 27/27
f 28/28 29/29 30/30
f 31/31 32/32 33/33
f 34/34 35/35 36/36
f 37/37 38/38 39/39
f 40/40 41/41 42/42
