# Generated by TyraX. Do not edit - rebaked from the procedural graph of 'pines'.
# 10 instances of res/models/rock.obj
mtllib props.mtl
v -44.2737 12.2456 71.7063
v -44.6205 12.7420 70.8238
v -43.5530 12.7282 72.2915
v -44.2737 12.2456 71.7063
v -43.5530 12.7282 72.2915
v -44.6205 12.7420 70.8238
v -25.0868 11.8977 -32.3558
v -26.0913 12.5078 -32.1315
v -24.3059 12.3728 -33.0855
v -25.0868 11.8977 -32.3558
v -24.3059 12.3728 -33.0855
v -26.0913 12.5078 -32.1315
v -14.5872 12.6665 74.2334
v -14.0196 13.1896 75.0727
v -15.5444 13.1198 73.8859
v -14.5872 12.6665 74.2334
v -15.5444 13.1198 73.8859
v -14.0196 13.1896 75.0727
v 70.9728 16.2686 -22.8892
v 70.4039 16.5637 -22.9724
v 71.4959 16.5769 -23.0639
v 70.9728 16.2686 -22.8892
v 71.4959 16.5769 -23.0639
v 70.4039 16.5637 -22.9724
v 45.1136 16.1680 56.6414
v 44.9078 16.6706 57.6370
v 44.8426 16.7144 55.7156
v 45.1136 16.1680 56.6414
v 44.8426 16.7144 55.7156
v 44.9078 16.6706 57.6370
v -42.8459 12.0514 -38.0214
v -42.1281 12.6743 -37.0369
v -43.9448 12.6608 -38.4804
v -42.8459 12.0514 -38.0214
v -43.9448 12.6608 -38.4804
v -42.1281 12.6743 -37.0369
v 63.5898 15.7862 73.6115
v 64.1250 16.4954 74.7925
v 62.5720 16.4457 72.8262
v 63.5898 15.7862 73.6115
v 62.5720 16.4457 72.8262
v 64.1250 16.4954 74.7925
v -46.9719 12.8929 -52.0492
v -46.4011 13.2461 -51.8899
v -47.5684 13.1874 -51.9383
v -46.9719 12.8929 -52.0492
v -47.5684 13.1874 -51.9383
v -46.4011 13.2461 -51.8899
v 29.2842 15.5993 -39.8576
v 28.7547 16.2723 -41.1096
v 30.3913 16.2604 -39.1253
v 29.2842 15.5993 -39.8576
v 30.3913 16.2604 -39.1253
v 28.7547 16.2723 -41.1096
v -10.9457 13.1559 -36.4136
v -9.8023 13.9300 -37.2185
v -11.6656 13.9111 -35.2505
v -10.9457 13.1559 -36.4136
v -11.6656 13.9111 -35.2505
v -9.8023 13.9300 -37.2185
vt 0.00000 1.00000
vt 0.00000 1.00000
vt 0.00000 1.00000
vt 0.00000 1.00000
vt 0.00000 1.00000
vt 0.00000 1.00000
vt 0.00000 1.00000
vt 0.00000 1.00000
vt 0.00000 1.00000
vt 0.00000 1.00000
vt 0.00000 1.00000
vt 0.00000 1.00000
vt 0.00000 1.00000
vt 0.00000 1.00000
vt 0.00000 1.00000
vt 0.00000 1.00000
vt 0.00000 1.00000
vt 0.00000 1.00000
vt 0.00000 1.00000
vt 0.00000 1.00000
vt 0.00000 1.00000
vt 0.00000 1.00000
vt 0.00000 1.00000
vt 0.00000 1.00000
vt 0.00000 1.00000
vt 0.00000 1.00000
vt 0.00000 1.00000
vt 0.00000 1.00000
vt 0.00000 1.00000
vt 0.00000 1.00000
vt 0.00000 1.00000
vt 0.00000 1.00000
vt 0.00000 1.00000
vt 0.00000 1.00000
vt 0.00000 1.00000
vt 0.00000 1.00000
vt 0.00000 1.00000
vt 0.00000 1.00000
vt 0.00000 1.00000
vt 0.00000 1.00000
vt 0.00000 1.00000
vt 0.00000 1.00000
vt 0.00000 1.00000
vt 0.00000 1.00000
vt 0.00000 1.00000
vt 0.00000 1.00000
vt 0.00000 1.00000
vt 0.00000 1.00000
vt 0.00000 1.00000
vt 0.00000 1.00000
vt 0.00000 1.00000
vt 0.00000 1.00000
vt 0.00000 1.00000
vt 0.00000 1.00000
vt 0.00000 1.00000
vt 0.00000 1.00000
vt 0.00000 1.00000
vt 0.00000 1.00000
vt 0.00000 1.00000
vt 0.00000 1.00000
usemtl stone
f 1/1 2/2 3/3
f 4/4 5/5 6/6
f 7/7 8/8 9/9
f 10/10 11/11 12/12
f 13/13 14/14 15/15
f 16/16 17/17 18/18
f 19/19 20/20 21/21
f 22/22 23/23 24/24
f 25/25 26/26 27/27
f 28/28 29/29 30/30
f 31/31 32/32 33/33
f 34/34 35/35 36/36
f 37/37 38/38 39/39
f 40/40 41/41 42/42
f 43/43 44/44 45/45
f 46/46 47/47 48/48
f 49/49 50/50 51/51
f 52/52 53/53 54/54
f 55/55 56/56 57/57
f 58/58 59/59 60/60
