# Generated by TyraX. Do not edit - rebaked from the procedural graph of 'pines'.
# 6 instances of res/models/rock.obj
mtllib props.mtl
v -54.7669 17.8346 42.2401
v -54.9990 18.2690 41.3837
v -54.1745 18.3038 42.8416
v -54.7669 17.8346 42.2401
v -54.1745 18.3038 42.8416
v -54.9990 18.2690 41.3837
v -41.7541 19.1252 32.8049
v -41.9729 19.5231 33.5492
v -41.8737 19.5476 32.0742
v -41.7541 19.1252 32.8049
v -41.8737 19.5476 32.0742
v -41.9729 19.5231 33.5492
v 72.0212 30.9934 -37.6433
v 71.2763 31.4435 -38.2274
v 72.9336 31.4563 -37.5851
v 72.0212 30.9934 -37.6433
v 72.9336 31.4563 -37.5851
v 71.2763 31.4435 -38.2274
v -1.2007 24.3283 18.6556
v -0.9106 24.7183 19.2872
v -1.7970 24.6483 18.2695
v -1.2007 24.3283 18.6556
v -1.7970 24.6483 18.2695
v -0.9106 24.7183 19.2872
v -50.4063 17.0284 64.1586
v -49.8983 17.4280 63.4837
v -50.5364 17.4961 64.9326
v -50.4063 17.0284 64.1586
v -50.5364 17.4961 64.9326
v -49.8983 17.4280 63.4837
v 41.5023 23.8516 62.3962
v 42.3590 24.2123 62.5948
v 40.7531 24.3309 62.6657
v 41.5023 23.8516 62.3962
v 40.7531 24.3309 62.6657
v 42.3590 24.2123 62.5948
vt 0.00000 1.00000
vt 0.00000 1.00000
vt 0.00000 1.00000
vt 0.00000 1.00000
vt 0.00000 1.00000
vt 0.00000 1.00000
vt 0.00000 1.00000
vt 0.00000 1.00000
vt 0.00000 1.00000
vt 0.00000 1.00000
vt 0.00000 1.00000
vt 0.00000 1.00000
vt 0.00000 1.00000
vt 0.00000 1.00000
vt 0.00000 1.00000
vt 0.00000 1.00000
vt 0.00000 1.00000
vt 0.00000 1.00000
vt 0.00000 1.00000
vt 0.00000 1.00000
vt 0.00000 1.00000
vt 0.00000 1.00000
vt 0.00000 1.00000
vt 0.00000 1.00000
vt 0.00000 1.00000
vt 0.00000 1.00000
vt 0.00000 1.00000
vt 0.00000 1.00000
vt 0.00000 1.00000
vt 0.00000 1.00000
vt 0.00000 1.00000
vt 0.00000 1.00000
vt 0.00000 1.00000
vt 0.00000 1.00000
vt 0.00000 1.00000
vt 0.00000 1.00000
usemtl stone
f 1/1 2/2 3/3
f 4/4 5/5 6/6
f 7/7 8/8 9/9
f 10/10 11/11 12/12
f 13/13 14/14 15/15
f 16/16 17/17 18/18
f 19/19 20/20 21/21
f 22/22 23/23 24/24
f 25/25 26/26 27/27
f 28/28 29/29 30/30
f 31/31 32/32 33/33
f 34/34 35/35 36/36
