# Generated by TyraX. Do not edit - rebaked from the procedural graph of 'pines'.
# 13 instances of res/models/rock.obj
mtllib props.mtl
v 39.3474 12.6363 -60.1546
v 39.3131 13.1629 -61.1989
v 39.7420 13.2344 -59.2631
v 39.3474 12.6363 -60.1546
v 39.7420 13.2344 -59.2631
v 39.3131 13.1629 -61.1989
v 7.4075 15.1099 -1.6736
v 7.8391 15.3418 -1.5620
v 6.9874 15.3270 -1.5406
v 7.4075 15.1099 -1.6736
v 6.9874 15.3270 -1.5406
v 7.8391 15.3418 -1.5620
v -63.1786 17.4094 -19.0037
v -62.7189 17.7326 -18.6536
v -63.7435 17.7063 -19.1119
v -63.1786 17.4094 -19.0037
v -63.7435 17.7063 -19.1119
v -62.7189 17.7326 -18.6536
v -74.0668 17.5278 10.3074
v -74.6770 18.1202 11.2142
v -73.8416 18.1346 9.2787
v -74.0668 17.5278 10.3074
v -73.8416 18.1346 9.2787
v -74.6770 18.1202 11.2142
v -59.7530 14.6203 -71.4594
v -58.9558 15.1442 -70.8639
v -60.7002 15.1502 -71.6339
v -59.7530 14.6203 -71.4594
v -60.7002 15.1502 -71.6339
v -58.9558 15.1442 -70.8639
v -58.7987 14.8754 46.2505
v -57.9769 15.3288 45.6569
v -59.1180 15.3860 47.1539
v -58.7987 14.8754 46.2505
v -59.1180 15.3860 47.1539
v -57.9769 15.3288 45.6569
v -39.1811 15.0404 -46.2426
v -39.2350 15.5318 -45.2218
v -39.6496 15.5654 -47.0996
v -39.1811 15.0404 -46.2426
v -39.6496 15.5654 -47.0996
v -39.2350 15.5318 -45.2218
v -68.0850 17.5834 -34.0824
v -68.5000 17.8807 -34.6916
v -67.4731 17.9874 -33.8252
v -68.0850 17.5834 -34.0824
v -67.4731 17.9874 -33.8252
v -68.5000 17.8807 -34.6916
v 54.4033 12.3398 50.1631
v 53.7812 12.7888 50.7445
v 54.6437 12.7654 49.3589
v 54.4033 12.3398 50.1631
v 54.6437 12.7654 49.3589
v 53.7812 12.7888 50.7445
v -46.6009 14.5433 -67.6266
v -45.6990 15.0291 -67.6652
v -47.3471 14.9747 -67.1154
v -46.6009 14.5433 -67.6266
v -47.3471 14.9747 -67.1154
v -45.6990 15.0291 -67.6652
v 73.7788 12.1840 71.9554
v 73.1868 12.5333 71.9826
v 74.3138 12.4888 71.6848
v 73.7788 12.1840 71.9554
v 74.3138 12.4888 71.6848
v 73.1868 12.5333 71.9826
v 55.7291 12.6568 -45.9041
v 55.1911 13.1534 -46.7240
v 56.6353 13.1104 -45.5463
v 55.7291 12.6568 -45.9041
v 56.6353 13.1104 -45.5463
v 55.1911 13.1534 -46.7240
v 50.1668 12.7998 30.0898
v 51.1806 13.3849 30.2155
v 49.1953 13.3237 30.4161
v 50.1668 12.7998 30.0898
v 49.1953 13.3237 30.4161
v 51.1806 13.3849 30.2155
vt 0.00000 1.00000
vt 0.00000 1.00000
vt 0.00000 1.00000
vt 0.00000 1.00000
vt 0.00000 1.00000
vt 0.00000 1.00000
vt 0.00000 1.00000
vt 0.00000 1.00000
vt 0.00000 1.00000
vt 0.00000 1.00000
vt 0.00000 1.00000
vt 0.00000 1.00000
vt 0.00000 1.00000
vt 0.00000 1.00000
vt 0.00000 1.00000
vt 0.00000 1.00000
vt 0.00000 1.00000
vt 0.00000 1.00000
vt 0.00000 1.00000
vt 0.00000 1.00000
vt 0.00000 1.00000
vt 0.00000 1.00000
vt 0.00000 1.00000
vt 0.00000 1.00000
vt 0.00000 1.00000
vt 0.00000 1.00000
vt 0.00000 1.00000
vt 0.00000 1.00000
vt 0.00000 1.00000
vt 0.00000 1.00000
vt 0.00000 1.00000
vt 0.00000 1.00000
vt 0.00000 1.00000
vt 0.00000 1.00000
vt 0.00000 1.00000
vt 0.00000 1.00000
vt 0.00000 1.00000
vt 0.00000 1.00000
vt 0.00000 1.00000
vt 0.00000 1.00000
vt 0.00000 1.00000
vt 0.00000 1.00000
vt 0.00000 1.00000
vt 0.00000 1.00000
vt 0.00000 1.00000
vt 0.00000 1.00000
vt 0.00000 1.00000
vt 0.00000 1.00000
vt 0.00000 1.00000
vt 0.00000 1.00000
vt 0.00000 1.00000
vt 0.00000 1.00000
vt 0.00000 1.00000
vt 0.00000 1.00000
vt 0.00000 1.00000
vt 0.00000 1.00000
vt 0.00000 1.00000
vt 0.00000 1.00000
vt 0.00000 1.00000
vt 0.00000 1.00000
vt 0.00000 1.00000
vt 0.00000 1.00000
vt 0.00000 1.00000
vt 0.00000 1.00000
vt 0.00000 1.00000
vt 0.00000 1.00000
vt 0.00000 1.00000
vt 0.00000 1.00000
vt 0.00000 1.00000
vt 0.00000 1.00000
vt 0.00000 1.00000
vt 0.00000 1.00000
vt 0.00000 1.00000
vt 0.00000 1.00000
vt 0.00000 1.00000
vt 0.00000 1.00000
vt 0.00000 1.00000
vt 0.00000 1.00000
usemtl stone
f 1/1 2/2 3/3
f 4/4 5/5 6/6
f 7/7 8/8 9/9
f 10/10 11/11 12/12
f 13/13 14/14 15/15
f 16/16 17/17 18/18
f 19/19 20/20 21/21
f 22/22 23/23 24/24
f 25/25 26/26 27/27
f 28/28 29/29 30/30
f 31/31 32/32 33/33
f 34/34 35/35 36/36
f 37/37 38/38 39/39
f 40/40 41/41 42/42
f 43/43 44/44 45/45
f 46/46 47/47 48/48
f 49/49 50/50 51/51
f 52/52 53/53 54/54
f 55/55 56/56 57/57
f 58/58 59/59 60/60
f 61/61 62/62 63/63
f 64/64 65/65 66/66
f 67/67 68/68 69/69
f 70/70 71/71 72/72
f 73/73 74/74 75/75
f 76/76 77/77 78/78
