# Generated by TyraX. Do not edit - rebaked from the procedural graph of 'pines'.
# 9 instances of res/models/rock.obj
mtllib props.mtl
v -63.2496 25.4841 70.4417
v -63.9832 25.8019 70.2470
v -62.5959 25.9351 70.3141
v -63.2496 25.4841 70.4417
v -62.5959 25.9351 70.3141
v -63.9832 25.8019 70.2470
v 8.6100 21.1504 23.2499
v 7.8874 21.6199 23.8884
v 8.9585 21.6886 22.4203
v 8.6100 21.1504 23.2499
v 8.9585 21.6886 22.4203
v 7.8874 21.6199 23.8884
v 16.8351 24.6292 74.1472
v 17.1125 25.0320 73.3459
v 16.9851 25.0809 74.9320
v 16.8351 24.6292 74.1472
v 16.9851 25.0809 74.9320
v 17.1125 25.0320 73.3459
v -26.4297 23.5277 40.9137
v -25.6456 24.0022 41.2974
v -27.2840 23.9898 40.9049
v -26.4297 23.5277 40.9137
v -27.2840 23.9898 40.9049
v -25.6456 24.0022 41.2974
v -17.8075 22.1408 -15.8421
v -18.4921 22.5001 -16.0278
v -17.1440 22.5120 -16.0043
v -17.8075 22.1408 -15.8421
v -17.1440 22.5120 -16.0043
v -18.4921 22.5001 -16.0278
v -31.7836 23.7568 53.2472
v -32.5494 24.1025 53.2294
v -31.1627 24.1753 52.9089
v -31.7836 23.7568 53.2472
v -31.1627 24.1753 52.9089
v -32.5494 24.1025 53.2294
v 44.4215 22.8842 60.8888
v 44.1402 23.3033 61.7565
v 44.1692 23.3358 60.0549
v 44.4215 22.8842 60.8888
v 44.1692 23.3358 60.0549
v 44.1402 23.3033 61.7565
v -45.8793 23.5853 -43.6758
v -45.8187 23.9793 -44.4821
v -45.5573 24.0157 -42.9798
v -45.8793 23.5853 -43.6758
v -45.5573 24.0157 -42.9798
v -45.8187 23.9793 -44.4821
v -22.4453 23.3905 -68.6111
v -22.5088 23.8202 -67.7198
v -22.7937 23.8734 -69.3759
v -22.4453 23.3905 -68.6111
v -22.7937 23.8734 -69.3759
v -22.5088 23.8202 -67.7198
vt 0.00000 1.00000
vt 0.00000 1.00000
vt 0.00000 1.00000
vt 0.00000 1.00000
vt 0.00000 1.00000
vt 0.00000 1.00000
vt 0.00000 1.00000
vt 0.00000 1.00000
vt 0.00000 1.00000
vt 0.00000 1.00000
vt 0.00000 1.00000
vt 0.00000 1.00000
vt 0.00000 1.00000
vt 0.00000 1.00000
vt 0.00000 1.00000
vt 0.00000 1.00000
vt 0.00000 1.00000
vt 0.00000 1.00000
vt 0.00000 1.00000
vt 0.00000 1.00000
vt 0.00000 1.00000
vt 0.00000 1.00000
vt 0.00000 1.00000
vt 0.00000 1.00000
vt 0.00000 1.00000
vt 0.00000 1.00000
vt 0.00000 1.00000
vt 0.00000 1.00000
vt 0.00000 1.00000
vt 0.00000 1.00000
vt 0.00000 1.00000
vt 0.00000 1.00000
vt 0.00000 1.00000
vt 0.00000 1.00000
vt 0.00000 1.00000
vt 0.00000 1.00000
vt 0.00000 1.00000
vt 0.00000 1.00000
vt 0.00000 1.00000
vt 0.00000 1.00000
vt 0.00000 1.00000
vt 0.00000 1.00000
vt 0.00000 1.00000
vt 0.00000 1.00000
vt 0.00000 1.00000
vt 0.00000 1.00000
vt 0.00000 1.00000
vt 0.00000 1.00000
vt 0.00000 1.00000
vt 0.00000 1.00000
vt 0.00000 1.00000
vt 0.00000 1.00000
vt 0.00000 1.00000
vt 0.00000 1.00000
usemtl stone
f 1/1 2/2 3/3
f 4/4 5/5 6/6
f 7/7 8/8 9/9
f 10/10 11/11 12/12
f 13/13 14/14 15/15
f 16/16 17/17 18/18
f 19/19 20/20 21/21
f 22/22 23/23 24/24
f 25/25 26/26 27/27
f 28/28 29/29 30/30
f 31/31 32/32 33/33
f 34/34 35/35 36/36
f 37/37 38/38 39/39
f 40/40 41/41 42/42
f 43/43 44/44 45/45
f 46/46 47/47 48/48
f 49/49 50/50 51/51
f 52/52 53/53 54/54
