# Generated by TyraX. Do not edit - rebaked from the procedural graph of 'pines'.
# 12 instances of res/models/rock.obj
mtllib props.mtl
v -16.5065 36.1826 -56.4547
v -16.9311 36.6378 -57.3781
v -15.7573 36.7479 -55.9030
v -16.5065 36.1826 -56.4547
v -15.7573 36.7479 -55.9030
v -16.9311 36.6378 -57.3781
v 57.2024 29.7162 16.7314
v 57.7926 30.0550 16.6118
v 56.7492 30.0027 17.1423
v 57.2024 29.7162 16.7314
v 56.7492 30.0027 17.1423
v 57.7926 30.0550 16.6118
v -17.9720 33.0843 -0.8367
v -16.9245 33.5587 -0.5117
v -18.9455 33.6810 -0.5902
v -17.9720 33.0843 -0.8367
v -18.9455 33.6810 -0.5902
v -16.9245 33.5587 -0.5117
v -23.2348 31.6029 19.2877
v -22.1807 32.1975 19.3136
v -24.1601 32.0857 19.8457
v -23.2348 31.6029 19.2877
v -24.1601 32.0857 19.8457
v -22.1807 32.1975 19.3136
v -21.5821 35.9368 -33.6495
v -22.0528 36.2095 -33.2029
v -21.4677 36.2685 -34.2413
v -21.5821 35.9368 -33.6495
v -21.4677 36.2685 -34.2413
v -22.0528 36.2095 -33.2029
v -36.6327 31.0269 30.7834
v -37.5294 31.4575 31.0986
v -36.0667 31.5384 30.1061
v -36.6327 31.0269 30.7834
v -36.0667 31.5384 30.1061
v -37.5294 31.4575 31.0986
v 1.9118 28.2372 34.2414
v 2.3261 28.7018 35.1832
v 1.2075 28.8327 33.6353
v 1.9118 28.2372 34.2414
v 1.2075 28.8327 33.6353
v 2.3261 28.7018 35.1832
v -57.5711 31.7844 16.3025
v -58.2784 32.3043 17.0360
v -57.2999 32.3240 15.3612
v -57.5711 31.7844 16.3025
v -57.2999 32.3240 15.3612
v -58.2784 32.3043 17.0360
v 27.8517 35.0103 -72.7585
v 26.9527 35.5170 -73.2570
v 28.8411 35.5346 -72.7982
v 27.8517 35.0103 -72.7585
v 28.8411 35.5346 -72.7982
v 26.9527 35.5170 -73.2570
v 35.3205 34.7486 -45.7156
v 35.9087 35.2737 -44.8588
v 34.3802 35.2558 -46.1086
v 35.3205 34.7486 -45.7156
v 34.3802 35.2558 -46.1086
v 35.9087 35.2737 -44.8588
v 61.2118 34.1487 -31.7491
v 60.9154 34.6440 -32.7514
v 61.9503 34.6905 -31.0860
v 61.2118 34.1487 -31.7491
v 61.9503 34.6905 -31.0860
v 60.9154 34.6440 -32.7514
v -22.8774 34.5510 -17.1794
v -21.9587 34.9984 -17.5590
v -23.4491 35.1049 -16.4707
v -22.8774 34.5510 -17.1794
v -23.4491 35.1049 -16.4707
v -21.9587 34.9984 -17.5590
vt 0.00000 1.00000
vt 0.00000 1.00000
vt 0.00000 1.00000
vt 0.00000 1.00000
vt 0.00000 1.00000
vt 0.00000 1.00000
vt 0.00000 1.00000
vt 0.00000 1.00000
vt 0.00000 1.00000
vt 0.00000 1.00000
vt 0.00000 1.00000
vt 0.00000 1.00000
vt 0.00000 1.00000
vt 0.00000 1.00000
vt 0.00000 1.00000
vt 0.00000 1.00000
vt 0.00000 1.00000
vt 0.00000 1.00000
vt 0.00000 1.00000
vt 0.00000 1.00000
vt 0.00000 1.00000
vt 0.00000 1.00000
vt 0.00000 1.00000
vt 0.00000 1.00000
vt 0.00000 1.00000
vt 0.00000 1.00000
vt 0.00000 1.00000
vt 0.00000 1.00000
vt 0.00000 1.00000
vt 0.00000 1.00000
vt 0.00000 1.00000
vt 0.00000 1.00000
vt 0.00000 1.00000
vt 0.00000 1.00000
vt 0.00000 1.00000
vt 0.00000 1.00000
vt 0.00000 1.00000
vt 0.00000 1.00000
vt 0.00000 1.00000
vt 0.00000 1.00000
vt 0.00000 1.00000
vt 0.00000 1.00000
vt 0.00000 1.00000
vt 0.00000 1.00000
vt 0.00000 1.00000
vt 0.00000 1.00000
vt 0.00000 1.00000
vt 0.00000 1.00000
vt 0.00000 1.00000
vt 0.00000 1.00000
vt 0.00000 1.00000
vt 0.00000 1.00000
vt 0.00000 1.00000
vt 0.00000 1.00000
vt 0.00000 1.00000
vt 0.00000 1.00000
vt 0.00000 1.00000
vt 0.00000 1.00000
vt 0.00000 1.00000
vt 0.00000 1.00000
vt 0.00000 1.00000
vt 0.00000 1.00000
vt 0.00000 1.00000
vt 0.00000 1.00000
vt 0.00000 1.00000
vt 0.00000 1.00000
vt 0.00000 1.00000
vt 0.00000 1.00000
vt 0.00000 1.00000
vt 0.00000 1.00000
vt 0.00000 1.00000
vt 0.00000 1.00000
usemtl stone
f 1/1 2/2 3/3
f 4/4 5/5 6/6
f 7/7 8/8 9/9
f 10/10 11/11 12/12
f 13/13 14/14 15/15
f 16/16 17/17 18/18
f 19/19 20/20 21/21
f 22/22 23/23 24/24
f 25/25 26/26 27/27
f 28/28 29/29 30/30
f 31/31 32/32 33/33
f 34/34 35/35 36/36
f 37/37 38/38 39/39
f 40/40 41/41 42/42
f 43/43 44/44 45/45
f 46/46 47/47 48/48
f 49/49 50/50 51/51
f 52/52 53/53 54/54
f 55/55 56/56 57/57
f 58/58 59/59 60/60
f 61/61 62/62 63/63
f 64/64 65/65 66/66
f 67/67 68/68 69/69
f 70/70 71/71 72/72
