# Generated by TyraX. Do not edit - rebaked from the procedural graph of 'pines'.
# 14 instances of res/models/rock.obj
mtllib props.mtl
v -43.2458 32.4870 -15.4311
v -43.8464 32.7976 -15.8093
v -42.5814 32.8497 -15.4583
v -43.2458 32.4870 -15.4311
v -42.5814 32.8497 -15.4583
v -43.8464 32.7976 -15.8093
v 58.2383 27.8105 -72.7208
v 57.2632 28.4016 -73.3356
v 59.3366 28.4313 -72.6106
v 58.2383 27.8105 -72.7208
v 59.3366 28.4313 -72.6106
v 57.2632 28.4016 -73.3356
v 36.5516 30.2670 21.6890
v 35.7860 30.6355 21.9709
v 37.0045 30.6839 21.0668
v 36.5516 30.2670 21.6890
v 37.0045 30.6839 21.0668
v 35.7860 30.6355 21.9709
v 32.1354 28.7323 -48.2684
v 32.0144 29.0416 -47.6646
v 31.9849 29.0686 -48.8324
v 32.1354 28.7323 -48.2684
v 31.9849 29.0686 -48.8324
v 32.0144 29.0416 -47.6646
v -63.9576 33.3298 52.1719
v -63.6364 33.7897 52.9490
v -64.6117 33.7508 51.6495
v -63.9576 33.3298 52.1719
v -64.6117 33.7508 51.6495
v -63.6364 33.7897 52.9490
v -37.5695 32.8016 -6.2977
v -36.3359 33.3759 -5.9937
v -38.6972 33.4885 -5.9599
v -37.5695 32.8016 -6.2977
v -38.6972 33.4885 -5.9599
v -36.3359 33.3759 -5.9937
v -40.3353 34.0336 19.9090
v -40.4996 34.3070 19.4148
v -39.9207 34.2745 20.2265
v -40.3353 34.0336 19.9090
v -39.9207 34.2745 20.2265
v -40.4996 34.3070 19.4148
v -12.2542 31.9716 0.5294
v -12.0781 32.3220 -0.1284
v -12.1578 32.3513 1.1674
v -12.2542 31.9716 0.5294
v -12.1578 32.3513 1.1674
v -12.0781 32.3220 -0.1284
v 73.8494 27.1084 -57.6076
v 73.3981 27.4538 -58.2097
v 74.5050 27.5057 -57.3475
v 73.8494 27.1084 -57.6076
v 74.5050 27.5057 -57.3475
v 73.3981 27.4538 -58.2097
v -52.7614 32.8150 -13.4510
v -53.4648 33.1824 -12.9464
v -52.4667 33.2819 -14.1862
v -52.7614 32.8150 -13.4510
v -52.4667 33.2819 -14.1862
v -53.4648 33.1824 -12.9464
v -46.4084 33.2739 6.6180
v -47.3744 33.6990 6.3431
v -45.5359 33.8648 6.4554
v -46.4084 33.2739 6.6180
v -45.5359 33.8648 6.4554
v -47.3744 33.6990 6.3431
v -9.8437 30.7046 -46.8008
v -10.5493 31.0153 -46.6123
v -9.3850 31.1056 -47.2813
v -9.8437 30.7046 -46.8008
v -9.3850 31.1056 -47.2813
v -10.5493 31.0153 -46.6123
v 31.7471 30.6809 12.6198
v 32.4045 31.2428 11.6003
v 31.6823 31.3391 13.7469
v 31.7471 30.6809 12.6198
v 31.6823 31.3391 13.7469
v 32.4045 31.2428 11.6003
v -49.3588 34.0821 60.9431
v -50.0035 34.4037 60.5625
v -48.6956 34.5206 60.9922
v -49.3588 34.0821 60.9431
v -48.6956 34.5206 60.9922
v -50.0035 34.4037 60.5625
vt 0.00000 1.00000
vt 0.00000 1.00000
vt 0.00000 1.00000
vt 0.00000 1.00000
vt 0.00000 1.00000
vt 0.00000 1.00000
vt 0.00000 1.00000
vt 0.00000 1.00000
vt 0.00000 1.00000
vt 0.00000 1.00000
vt 0.00000 1.00000
vt 0.00000 1.00000
vt 0.00000 1.00000
vt 0.00000 1.00000
vt 0.00000 1.00000
vt 0.00000 1.00000
vt 0.00000 1.00000
vt 0.00000 1.00000
vt 0.00000 1.00000
vt 0.00000 1.00000
vt 0.00000 1.00000
vt 0.00000 1.00000
vt 0.00000 1.00000
vt 0.00000 1.00000
vt 0.00000 1.00000
vt 0.00000 1.00000
vt 0.00000 1.00000
vt 0.00000 1.00000
vt 0.00000 1.00000
vt 0.00000 1.00000
vt 0.00000 1.00000
vt 0.00000 1.00000
vt 0.00000 1.00000
vt 0.00000 1.00000
vt 0.00000 1.00000
vt 0.00000 1.00000
vt 0.00000 1.00000
vt 0.00000 1.00000
vt 0.00000 1.00000
vt 0.00000 1.00000
vt 0.00000 1.00000
vt 0.00000 1.00000
vt 0.00000 1.00000
vt 0.00000 1.00000
vt 0.00000 1.00000
vt 0.00000 1.00000
vt 0.00000 1.00000
vt 0.00000 1.00000
vt 0.00000 1.00000
vt 0.00000 1.00000
vt 0.00000 1.00000
vt 0.00000 1.00000
vt 0.00000 1.00000
vt 0.00000 1.00000
vt 0.00000 1.00000
vt 0.00000 1.00000
vt 0.00000 1.00000
vt 0.00000 1.00000
vt 0.00000 1.00000
vt 0.00000 1.00000
vt 0.00000 1.00000
vt 0.00000 1.00000
vt 0.00000 1.00000
vt 0.00000 1.00000
vt 0.00000 1.00000
vt 0.00000 1.00000
vt 0.00000 1.00000
vt 0.00000 1.00000
vt 0.00000 1.00000
vt 0.00000 1.00000
vt 0.00000 1.00000
vt 0.00000 1.00000
vt 0.00000 1.00000
vt 0.00000 1.00000
vt 0.00000 1.00000
vt 0.00000 1.00000
vt 0.00000 1.00000
vt 0.00000 1.00000
vt 0.00000 1.00000
vt 0.00000 1.00000
vt 0.00000 1.00000
vt 0.00000 1.00000
vt 0.00000 1.00000
vt 0.00000 1.00000
usemtl stone
f 1/1 2/2 3/3
f 4/4 5/5 6/6
f 7/7 8/8 9/9
f 10/10 11/11 12/12
f 13/13 14/14 15/15
f 16/16 17/17 18/18
f 19/19 20/20 21/21
f 22/22 23/23 24/24
f 25/25 26/26 27/27
f 28/28 29/29 30/30
f 31/31 32/32 33/33
f 34/34 35/35 36/36
f 37/37 38/38 39/39
f 40/40 41/41 42/42
f 43/43 44/44 45/45
f 46/46 47/47 48/48
f 49/49 50/50 51/51
f 52/52 53/53 54/54
f 55/55 56/56 57/57
f 58/58 59/59 60/60
f 61/61 62/62 63/63
f 64/64 65/65 66/66
f 67/67 68/68 69/69
f 70/70 71/71 72/72
f 73/73 74/74 75/75
f 76/76 77/77 78/78
f 79/79 80/80 81/81
f 82/82 83/83 84/84
