# Generated by TyraX. Do not edit - rebaked from the procedural graph of 'pines'.
# 23 instances of res/models/pine.obj
mtllib props.mtl
v -72.9816 12.0715 44.8903
v -73.0475 13.6681 44.7169
v -73.4055 13.6606 44.7841
v -72.9816 12.0715 44.8903
v -73.3395 13.7020 45.1400
v -73.0475 13.6681 44.7169
v -73.3395 13.7020 45.1400
v -72.9816 12.0715 44.8903
v -73.4055 13.6606 44.7841
v -73.0475 13.6681 44.7169
v -73.3395 13.7020 45.1400
v -73.4055 13.6606 44.7841
v -41.7942 7.7352 -24.3473
v -41.4990 9.7430 -24.3233
v -41.5772 9.7491 -23.8700
v -41.7942 7.7352 -24.3473
v -41.1289 9.6823 -23.7917
v -41.4990 9.7430 -24.3233
v -41.1289 9.6823 -23.7917
v -41.7942 7.7352 -24.3473
v -41.5772 9.7491 -23.8700
v -41.4990 9.7430 -24.3233
v -41.1289 9.6823 -23.7917
v -41.5772 9.7491 -23.8700
v -33.1069 13.4007 69.6090
v -33.1514 14.8748 69.5805
v -33.0293 14.8845 69.8916
v -33.1069 13.4007 69.6090
v -32.7182 14.8915 69.7693
v -33.1514 14.8748 69.5805
v -32.7182 14.8915 69.7693
v -33.1069 13.4007 69.6090
v -33.0293 14.8845 69.8916
v -33.1514 14.8748 69.5805
v -32.7182 14.8915 69.7693
v -33.0293 14.8845 69.8916
v -48.0675 7.6196 -26.9386
v -48.2949 9.5774 -26.8359
v -47.9541 9.6019 -26.5472
v -48.0675 7.6196 -26.9386
v -47.6689 9.6529 -26.8881
v -48.2949 9.5774 -26.8359
v -47.6689 9.6529 -26.8881
v -48.0675 7.6196 -26.9386
v -47.9541 9.6019 -26.5472
v -48.2949 9.5774 -26.8359
v -47.6689 9.6529 -26.8881
v -47.9541 9.6019 -26.5472
v 73.3699 0.9176 -35.7963
v 73.5446 2.9728 -35.8302
v 73.6680 2.9698 -35.3792
v 73.3699 0.9176 -35.7963
v 74.1172 2.9296 -35.5024
v 73.5446 2.9728 -35.8302
v 74.1172 2.9296 -35.5024
v 73.3699 0.9176 -35.7963
v 73.6680 2.9698 -35.3792
v 73.5446 2.9728 -35.8302
v 74.1172 2.9296 -35.5024
v 73.6680 2.9698 -35.3792
v -70.4872 9.2289 -49.8665
v -70.6046 10.7633 -49.8428
v -70.9260 10.7407 -49.9766
v -70.4872 9.2289 -49.8665
v -71.0589 10.7256 -49.6544
v -70.6046 10.7633 -49.8428
v -71.0589 10.7256 -49.6544
v -70.4872 9.2289 -49.8665
v -70.9260 10.7407 -49.9766
v -70.6046 10.7633 -49.8428
v -71.0589 10.7256 -49.6544
v -70.9260 10.7407 -49.9766
v -45.9625 8.0253 -11.0627
v -45.8223 10.1360 -11.2391
v -45.3424 10.1031 -11.2513
v -45.9625 8.0253 -11.0627
v -45.3573 10.0640 -11.7306
v -45.8223 10.1360 -11.2391
v -45.3573 10.0640 -11.7306
v -45.9625 8.0253 -11.0627
v -45.3424 10.1031 -11.2513
v -45.8223 10.1360 -11.2391
v -45.3573 10.0640 -11.7306
v -45.3424 10.1031 -11.2513
v -65.1566 8.2088 -39.7310
v -65.0065 11.1268 -39.7969
v -64.6596 11.1217 -39.2325
v -65.1566 8.2088 -39.7310
v -64.0963 11.0849 -39.5790
v -65.0065 11.1268 -39.7969
v -64.0963 11.0849 -39.5790
v -65.1566 8.2088 -39.7310
v -64.6596 11.1217 -39.2325
v -65.0065 11.1268 -39.7969
v -64.0963 11.0849 -39.5790
v -64.6596 11.1217 -39.2325
v 9.0702 10.4714 19.6806
v 9.0338 12.6217 19.6437
v 8.8216 12.6256 20.0826
v 9.0702 10.4714 19.6806
v 9.2604 12.6367 20.2947
v 9.0338 12.6217 19.6437
v 9.2604 12.6367 20.2947
v 9.0702 10.4714 19.6806
v 8.8216 12.6256 20.0826
v 9.0338 12.6217 19.6437
v 9.2604 12.6367 20.2947
v 8.8216 12.6256 20.0826
v 72.5020 5.4650 -10.3357
v 72.5397 7.1308 -10.3770
v 72.1681 7.1376 -10.4447
v 72.5020 5.4650 -10.3357
v 72.1005 7.1483 -10.0732
v 72.5397 7.1308 -10.3770
v 72.1005 7.1483 -10.0732
v 72.5020 5.4650 -10.3357
v 72.1681 7.1376 -10.4447
v 72.5397 7.1308 -10.3770
v 72.1005 7.1483 -10.0732
v 72.1681 7.1376 -10.4447
v -70.8883 8.4296 4.2741
v -71.0793 10.5094 4.2163
v -71.4975 10.4771 4.4364
v -70.8883 8.4296 4.2741
v -71.2793 10.5088 4.8555
v -71.0793 10.5094 4.2163
v -71.2793 10.5088 4.8555
v -70.8883 8.4296 4.2741
v -71.4975 10.4771 4.4364
v -71.0793 10.5094 4.2163
v -71.2793 10.5088 4.8555
v -71.4975 10.4771 4.4364
v 25.0022 9.6823 9.3401
v 24.6222 11.9306 9.1994
v 24.2512 11.8904 9.5585
v 25.0022 9.6823 9.3401
v 24.6022 11.9730 9.9302
v 24.6222 11.9306 9.1994
v 24.6022 11.9730 9.9302
v 25.0022 9.6823 9.3401
v 24.2512 11.8904 9.5585
v 24.6222 11.9306 9.1994
v 24.6022 11.9730 9.9302
v 24.2512 11.8904 9.5585
v -38.9871 9.4105 24.9806
v -39.0458 11.6447 25.0134
v -38.6985 11.6484 25.3823
v -38.9871 9.4105 24.9806
v -38.3299 11.6632 25.0351
v -39.0458 11.6447 25.0134
v -38.3299 11.6632 25.0351
v -38.9871 9.4105 24.9806
v -38.6985 11.6484 25.3823
v -39.0458 11.6447 25.0134
v -38.3299 11.6632 25.0351
v -38.6985 11.6484 25.3823
v 48.1759 11.9266 69.4429
v 48.1797 13.8606 69.3550
v 47.7411 13.8609 69.3421
v 48.1759 11.9266 69.4429
v 47.7282 13.8809 69.7803
v 48.1797 13.8606 69.3550
v 47.7282 13.8809 69.7803
v 48.1759 11.9266 69.4429
v 47.7411 13.8609 69.3421
v 48.1797 13.8606 69.3550
v 47.7282 13.8809 69.7803
v 47.7411 13.8609 69.3421
v 32.5817 11.1715 45.9506
v 32.6467 13.8080 45.8819
v 33.0914 13.7866 45.4827
v 32.5817 11.1715 45.9506
v 32.6919 13.7849 45.0377
v 32.6467 13.8080 45.8819
v 32.6919 13.7849 45.0377
v 32.5817 11.1715 45.9506
v 33.0914 13.7866 45.4827
v 32.6467 13.8080 45.8819
v 32.6919 13.7849 45.0377
v 33.0914 13.7866 45.4827
v 20.0731 8.9503 -2.6818
v 19.9575 10.9913 -2.7148
v 19.6137 10.9668 -3.0247
v 20.0731 8.9503 -2.6818
v 19.3040 10.9549 -2.6802
v 19.9575 10.9913 -2.7148
v 19.3040 10.9549 -2.6802
v 20.0731 8.9503 -2.6818
v 19.6137 10.9668 -3.0247
v 19.9575 10.9913 -2.7148
v 19.3040 10.9549 -2.6802
v 19.6137 10.9668 -3.0247
v -42.8759 8.3036 -1.3579
v -42.9949 11.1515 -1.3919
v -43.2240 11.1348 -1.9958
v -42.8759 8.3036 -1.3579
v -43.8276 11.1123 -1.7663
v -42.9949 11.1515 -1.3919
v -43.8276 11.1123 -1.7663
v -42.8759 8.3036 -1.3579
v -43.2240 11.1348 -1.9958
v -42.9949 11.1515 -1.3919
v -43.8276 11.1123 -1.7663
v -43.2240 11.1348 -1.9958
v -11.2510 7.1599 -15.9561
v -11.3117 9.4375 -15.8495
v -10.8266 9.4587 -16.0271
v -11.2510 7.1599 -15.9561
v -11.0049 9.4767 -16.5120
v -11.3117 9.4375 -15.8495
v -11.0049 9.4767 -16.5120
v -11.2510 7.1599 -15.9561
v -10.8266 9.4587 -16.0271
v -11.3117 9.4375 -15.8495
v -11.0049 9.4767 -16.5120
v -10.8266 9.4587 -16.0271
v -16.6322 7.3859 -65.4403
v -16.5252 8.9620 -65.4878
v -16.8826 8.9864 -65.4829
v -16.6322 7.3859 -65.4403
v -16.8769 8.9968 -65.1248
v -16.5252 8.9620 -65.4878
v -16.8769 8.9968 -65.1248
v -16.6322 7.3859 -65.4403
v -16.8826 8.9864 -65.4829
v -16.5252 8.9620 -65.4878
v -16.8769 8.9968 -65.1248
v -16.8826 8.9864 -65.4829
v 10.1185 12.8143 67.2001
v 9.8617 14.9205 67.2178
v 9.9697 14.9297 67.6864
v 10.1185 12.8143 67.2001
v 10.4347 14.9873 67.5782
v 9.8617 14.9205 67.2178
v 10.4347 14.9873 67.5782
v 10.1185 12.8143 67.2001
v 9.9697 14.9297 67.6864
v 9.8617 14.9205 67.2178
v 10.4347 14.9873 67.5782
v 9.9697 14.9297 67.6864
v -24.9298 7.6020 -70.9572
v -24.9223 8.9001 -70.9717
v -24.7422 8.9016 -70.7391
v -24.9298 7.6020 -70.9572
v -24.5095 8.8983 -70.9192
v -24.9223 8.9001 -70.9717
v -24.5095 8.8983 -70.9192
v -24.9298 7.6020 -70.9572
v -24.7422 8.9016 -70.7391
v -24.9223 8.9001 -70.9717
v -24.5095 8.8983 -70.9192
v -24.7422 8.9016 -70.7391
v -65.3332 9.3787 19.5342
v -65.4293 11.5752 19.5393
v -65.6186 11.5680 19.0784
v -65.3332 9.3787 19.5342
v -66.0791 11.5474 19.2678
v -65.4293 11.5752 19.5393
v -66.0791 11.5474 19.2678
v -65.3332 9.3787 19.5342
v -65.6186 11.5680 19.0784
v -65.4293 11.5752 19.5393
v -66.0791 11.5474 19.2678
v -65.6186 11.5680 19.0784
v -24.4994 13.4758 73.9176
v -24.4451 15.7129 73.9799
v -24.7001 15.7313 73.5416
v -24.4994 13.4758 73.9176
v -25.1386 15.7348 73.7969
v -24.4451 15.7129 73.9799
v -25.1386 15.7348 73.7969
v -24.4994 13.4758 73.9176
v -24.7001 15.7313 73.5416
v -24.4451 15.7129 73.9799
v -25.1386 15.7348 73.7969
v -24.7001 15.7313 73.5416
vt 0.00000 1.00000
vt 0.00000 1.00000
vt 0.00000 1.00000
vt 0.00000 1.00000
vt 0.00000 1.00000
vt 0.00000 1.00000
vt 0.00000 1.00000
vt 0.00000 1.00000
vt 0.00000 1.00000
vt 0.00000 1.00000
vt 0.00000 1.00000
vt 0.00000 1.00000
vt 0.00000 1.00000
vt 0.00000 1.00000
vt 0.00000 1.00000
vt 0.00000 1.00000
vt 0.00000 1.00000
vt 0.00000 1.00000
vt 0.00000 1.00000
vt 0.00000 1.00000
vt 0.00000 1.00000
vt 0.00000 1.00000
vt 0.00000 1.00000
vt 0.00000 1.00000
vt 0.00000 1.00000
vt 0.00000 1.00000
vt 0.00000 1.00000
vt 0.00000 1.00000
vt 0.00000 1.00000
vt 0.00000 1.00000
vt 0.00000 1.00000
vt 0.00000 1.00000
vt 0.00000 1.00000
vt 0.00000 1.00000
vt 0.00000 1.00000
vt 0.00000 1.00000
vt 0.00000 1.00000
vt 0.00000 1.00000
vt 0.00000 1.00000
vt 0.00000 1.00000
vt 0.00000 1.00000
vt 0.00000 1.00000
vt 0.00000 1.00000
vt 0.00000 1.00000
vt 0.00000 1.00000
vt 0.00000 1.00000
vt 0.00000 1.00000
vt 0.00000 1.00000
vt 0.00000 1.00000
vt 0.00000 1.00000
vt 0.00000 1.00000
vt 0.00000 1.00000
vt 0.00000 1.00000
vt 0.00000 1.00000
vt 0.00000 1.00000
vt 0.00000 1.00000
vt 0.00000 1.00000
vt 0.00000 1.00000
vt 0.00000 1.00000
vt 0.00000 1.00000
vt 0.00000 1.00000
vt 0.00000 1.00000
vt 0.00000 1.00000
vt 0.00000 1.00000
vt 0.00000 1.00000
vt 0.00000 1.00000
vt 0.00000 1.00000
vt 0.00000 1.00000
vt 0.00000 1.00000
vt 0.00000 1.00000
vt 0.00000 1.00000
vt 0.00000 1.00000
vt 0.00000 1.00000
vt 0.00000 1.00000
vt 0.00000 1.00000
vt 0.00000 1.00000
vt 0.00000 1.00000
vt 0.00000 1.00000
vt 0.00000 1.00000
vt 0.00000 1.00000
vt 0.00000 1.00000
vt 0.00000 1.00000
vt 0.00000 1.00000
vt 0.00000 1.00000
vt 0.00000 1.00000
vt 0.00000 1.00000
vt 0.00000 1.00000
vt 0.00000 1.00000
vt 0.00000 1.00000
vt 0.00000 1.00000
vt 0.00000 1.00000
vt 0.00000 1.00000
vt 0.00000 1.00000
vt 0.00000 1.00000
vt 0.00000 1.00000
vt 0.00000 1.00000
vt 0.00000 1.00000
vt 0.00000 1.00000
vt 0.00000 1.00000
vt 0.00000 1.00000
vt 0.00000 1.00000
vt 0.00000 1.00000
vt 0.00000 1.00000
vt 0.00000 1.00000
vt 0.00000 1.00000
vt 0.00000 1.00000
vt 0.00000 1.00000
vt 0.00000 1.00000
vt 0.00000 1.00000
vt 0.00000 1.00000
vt 0.00000 1.00000
vt 0.00000 1.00000
vt 0.00000 1.00000
vt 0.00000 1.00000
vt 0.00000 1.00000
vt 0.00000 1.00000
vt 0.00000 1.00000
vt 0.00000 1.00000
vt 0.00000 1.00000
vt 0.00000 1.00000
vt 0.00000 1.00000
vt 0.00000 1.00000
vt 0.00000 1.00000
vt 0.00000 1.00000
vt 0.00000 1.00000
vt 0.00000 1.00000
vt 0.00000 1.00000
vt 0.00000 1.00000
vt 0.00000 1.00000
vt 0.00000 1.00000
vt 0.00000 1.00000
vt 0.00000 1.00000
vt 0.00000 1.00000
vt 0.00000 1.00000
vt 0.00000 1.00000
vt 0.00000 1.00000
vt 0.00000 1.00000
vt 0.00000 1.00000
vt 0.00000 1.00000
vt 0.00000 1.00000
vt 0.00000 1.00000
vt 0.00000 1.00000
vt 0.00000 1.00000
vt 0.00000 1.00000
vt 0.00000 1.00000
vt 0.00000 1.00000
vt 0.00000 1.00000
vt 0.00000 1.00000
vt 0.00000 1.00000
vt 0.00000 1.00000
vt 0.00000 1.00000
vt 0.00000 1.00000
vt 0.00000 1.00000
vt 0.00000 1.00000
vt 0.00000 1.00000
vt 0.00000 1.00000
vt 0.00000 1.00000
vt 0.00000 1.00000
vt 0.00000 1.00000
vt 0.00000 1.00000
vt 0.00000 1.00000
vt 0.00000 1.00000
vt 0.00000 1.00000
vt 0.00000 1.00000
vt 0.00000 1.00000
vt 0.00000 1.00000
vt 0.00000 1.00000
vt 0.00000 1.00000
vt 0.00000 1.00000
vt 0.00000 1.00000
vt 0.00000 1.00000
vt 0.00000 1.00000
vt 0.00000 1.00000
vt 0.00000 1.00000
vt 0.00000 1.00000
vt 0.00000 1.00000
vt 0.00000 1.00000
vt 0.00000 1.00000
vt 0.00000 1.00000
vt 0.00000 1.00000
vt 0.00000 1.00000
vt 0.00000 1.00000
vt 0.00000 1.00000
vt 0.00000 1.00000
vt 0.00000 1.00000
vt 0.00000 1.00000
vt 0.00000 1.00000
vt 0.00000 1.00000
vt 0.00000 1.00000
vt 0.00000 1.00000
vt 0.00000 1.00000
vt 0.00000 1.00000
vt 0.00000 1.00000
vt 0.00000 1.00000
vt 0.00000 1.00000
vt 0.00000 1.00000
vt 0.00000 1.00000
vt 0.00000 1.00000
vt 0.00000 1.00000
vt 0.00000 1.00000
vt 0.00000 1.00000
vt 0.00000 1.00000
vt 0.00000 1.00000
vt 0.00000 1.00000
vt 0.00000 1.00000
vt 0.00000 1.00000
vt 0.00000 1.00000
vt 0.00000 1.00000
vt 0.00000 1.00000
vt 0.00000 1.00000
vt 0.00000 1.00000
vt 0.00000 1.00000
vt 0.00000 1.00000
vt 0.00000 1.00000
vt 0.00000 1.00000
vt 0.00000 1.00000
vt 0.00000 1.00000
vt 0.00000 1.00000
vt 0.00000 1.00000
vt 0.00000 1.00000
vt 0.00000 1.00000
vt 0.00000 1.00000
vt 0.00000 1.00000
vt 0.00000 1.00000
vt 0.00000 1.00000
vt 0.00000 1.00000
vt 0.00000 1.00000
vt 0.00000 1.00000
vt 0.00000 1.00000
vt 0.00000 1.00000
vt 0.00000 1.00000
vt 0.00000 1.00000
vt 0.00000 1.00000
vt 0.00000 1.00000
vt 0.00000 1.00000
vt 0.00000 1.00000
vt 0.00000 1.00000
vt 0.00000 1.00000
vt 0.00000 1.00000
vt 0.00000 1.00000
vt 0.00000 1.00000
vt 0.00000 1.00000
vt 0.00000 1.00000
vt 0.00000 1.00000
vt 0.00000 1.00000
vt 0.00000 1.00000
vt 0.00000 1.00000
vt 0.00000 1.00000
vt 0.00000 1.00000
vt 0.00000 1.00000
vt 0.00000 1.00000
vt 0.00000 1.00000
vt 0.00000 1.00000
vt 0.00000 1.00000
vt 0.00000 1.00000
vt 0.00000 1.00000
vt 0.00000 1.00000
vt 0.00000 1.00000
vt 0.00000 1.00000
vt 0.00000 1.00000
vt 0.00000 1.00000
vt 0.00000 1.00000
vt 0.00000 1.00000
vt 0.00000 1.00000
vt 0.00000 1.00000
vt 0.00000 1.00000
vt 0.00000 1.00000
vt 0.00000 1.00000
vt 0.00000 1.00000
vt 0.00000 1.00000
vt 0.00000 1.00000
vt 0.00000 1.00000
vt 0.00000 1.00000
vt 0.00000 1.00000
vt 0.00000 1.00000
vt 0.00000 1.00000
usemtl bark
f 1/1 2/2 3/3
f 4/4 5/5 6/6
f 7/7 8/8 9/9
f 10/10 11/11 12/12
f 13/13 14/14 15/15
f 16/16 17/17 18/18
f 19/19 20/20 21/21
f 22/22 23/23 24/24
f 25/25 26/26 27/27
f 28/28 29/29 30/30
f 31/31 32/32 33/33
f 34/34 35/35 36/36
f 37/37 38/38 39/39
f 40/40 41/41 42/42
f 43/43 44/44 45/45
f 46/46 47/47 48/48
f 49/49 50/50 51/51
f 52/52 53/53 54/54
f 55/55 56/56 57/57
f 58/58 59/59 60/60
f 61/61 62/62 63/63
f 64/64 65/65 66/66
f 67/67 68/68 69/69
f 70/70 71/71 72/72
f 73/73 74/74 75/75
f 76/76 77/77 78/78
f 79/79 80/80 81/81
f 82/82 83/83 84/84
f 85/85 86/86 87/87
f 88/88 89/89 90/90
f 91/91 92/92 93/93
f 94/94 95/95 96/96
f 97/97 98/98 99/99
f 100/100 101/101 102/102
f 103/103 104/104 105/105
f 106/106 107/107 108/108
f 109/109 110/110 111/111
f 112/112 113/113 114/114
f 115/115 116/116 117/117
f 118/118 119/119 120/120
f 121/121 122/122 123/123
f 124/124 125/125 126/126
f 127/127 128/128 129/129
f 130/130 131/131 132/132
f 133/133 134/134 135/135
f 136/136 137/137 138/138
f 139/139 140/140 141/141
f 142/142 143/143 144/144
f 145/145 146/146 147/147
f 148/148 149/149 150/150
f 151/151 152/152 153/153
f 154/154 155/155 156/156
f 157/157 158/158 159/159
f 160/160 161/161 162/162
f 163/163 164/164 165/165
f 166/166 167/167 168/168
f 169/169 170/170 171/171
f 172/172 173/173 174/174
f 175/175 176/176 177/177
f 178/178 179/179 180/180
f 181/181 182/182 183/183
f 184/184 185/185 186/186
f 187/187 188/188 189/189
f 190/190 191/191 192/192
f 193/193 194/194 195/195
f 196/196 197/197 198/198
f 199/199 200/200 201/201
f 202/202 203/203 204/204
f 205/205 206/206 207/207
f 208/208 209/209 210/210
f 211/211 212/212 213/213
f 214/214 215/215 216/216
f 217/217 218/218 219/219
f 220/220 221/221 222/222
f 223/223 224/224 225/225
f 226/226 227/227 228/228
f 229/229 230/230 231/231
f 232/232 233/233 234/234
f 235/235 236/236 237/237
f 238/238 239/239 240/240
f 241/241 242/242 243/243
f 244/244 245/245 246/246
f 247/247 248/248 249/249
f 250/250 251/251 252/252
f 253/253 254/254 255/255
f 256/256 257/257 258/258
f 259/259 260/260 261/261
f 262/262 263/263 264/264
f 265/265 266/266 267/267
f 268/268 269/269 270/270
f 271/271 272/272 273/273
f 274/274 275/275 276/276
v -73.2506 15.0688 44.7782
v -74.3662 13.1222 44.1640
v -72.3559 13.1641 43.7868
v -73.9960 13.3544 46.1626
v -72.3559 13.1641 43.7868
v -74.3662 13.1222 44.1640
v -73.2506 15.0688 44.7782
v -72.3559 13.1641 43.7868
v -71.9857 13.3964 45.7854
v -73.9960 13.3544 46.1626
v -71.9857 13.3964 45.7854
v -72.3559 13.1641 43.7868
v -73.2506 15.0688 44.7782
v -71.9857 13.3964 45.7854
v -73.9960 13.3544 46.1626
v -73.2506 15.0688 44.7782
v -73.9960 13.3544 46.1626
v -74.3662 13.1222 44.1640
v -73.2901 16.0268 44.6742
v -74.2772 14.4082 45.0452
v -73.4181 14.3085 43.8007
v -73.2901 16.0268 44.6742
v -73.4181 14.3085 43.8007
v -72.1712 14.4521 44.6500
v -73.2901 16.0268 44.6742
v -72.1712 14.4521 44.6500
v -73.0303 14.5518 45.8944
v -73.4181 14.3085 43.8007
v -73.0303 14.5518 45.8944
v -72.1712 14.4521 44.6500
v -73.2901 16.0268 44.6742
v -73.0303 14.5518 45.8944
v -74.2772 14.4082 45.0452
v -73.4181 14.3085 43.8007
v -74.2772 14.4082 45.0452
v -73.0303 14.5518 45.8944
v -73.3252 16.8783 44.5817
v -73.9210 15.4810 44.8545
v -73.3884 15.4192 44.0829
v -73.3252 16.8783 44.5817
v -73.3884 15.4192 44.0829
v -72.6153 15.5082 44.6095
v -73.3252 16.8783 44.5817
v -72.6153 15.5082 44.6095
v -73.1479 15.5700 45.3810
v -73.3884 15.4192 44.0829
v -73.1479 15.5700 45.3810
v -72.6153 15.5082 44.6095
v -73.3252 16.8783 44.5817
v -73.1479 15.5700 45.3810
v -73.9210 15.4810 44.8545
v -73.3884 15.4192 44.0829
v -73.9210 15.4810 44.8545
v -73.1479 15.5700 45.3810
v -41.0581 11.4528 -24.0368
v -42.8711 9.3820 -23.0109
v -42.4319 9.3478 -25.5564
v -40.3534 9.0066 -22.5715
v -42.4319 9.3478 -25.5564
v -42.8711 9.3820 -23.0109
v -41.0581 11.4528 -24.0368
v -42.4319 9.3478 -25.5564
v -39.9142 8.9724 -25.1169
v -40.3534 9.0066 -22.5715
v -39.9142 8.9724 -25.1169
v -42.4319 9.3478 -25.5564
v -41.0581 11.4528 -24.0368
v -39.9142 8.9724 -25.1169
v -40.3534 9.0066 -22.5715
v -41.0581 11.4528 -24.0368
v -40.3534 9.0066 -22.5715
v -42.8711 9.3820 -23.0109
v -40.8810 12.6575 -24.0224
v -41.4062 10.6676 -22.7131
v -42.4949 10.8463 -24.2765
v -40.8810 12.6575 -24.0224
v -42.4949 10.8463 -24.2765
v -40.9461 10.6317 -25.3796
v -40.8810 12.6575 -24.0224
v -40.9461 10.6317 -25.3796
v -39.8574 10.4530 -23.8161
v -42.4949 10.8463 -24.2765
v -39.8574 10.4530 -23.8161
v -40.9461 10.6317 -25.3796
v -40.8810 12.6575 -24.0224
v -39.8574 10.4530 -23.8161
v -41.4062 10.6676 -22.7131
v -42.4949 10.8463 -24.2765
v -41.4062 10.6676 -22.7131
v -39.8574 10.4530 -23.8161
v -40.7235 13.7284 -24.0096
v -41.1220 11.9993 -23.2038
v -41.7970 12.1101 -24.1731
v -40.7235 13.7284 -24.0096
v -41.7970 12.1101 -24.1731
v -40.8367 11.9771 -24.8570
v -40.7235 13.7284 -24.0096
v -40.8367 11.9771 -24.8570
v -40.1617 11.8663 -23.8876
v -41.7970 12.1101 -24.1731
v -40.1617 11.8663 -23.8876
v -40.8367 11.9771 -24.8570
v -40.7235 13.7284 -24.0096
v -40.1617 11.8663 -23.8876
v -41.1220 11.9993 -23.2038
v -41.7970 12.1101 -24.1731
v -41.1220 11.9993 -23.2038
v -40.1617 11.8663 -23.8876
v -32.9733 16.1607 69.6502
v -33.4536 14.4976 70.8993
v -34.1391 14.4432 69.1524
v -31.7067 14.5370 70.2126
v -34.1391 14.4432 69.1524
v -33.4536 14.4976 70.8993
v -32.9733 16.1607 69.6502
v -34.1391 14.4432 69.1524
v -32.3923 14.4825 68.4656
v -31.7067 14.5370 70.2126
v -32.3923 14.4825 68.4656
v -34.1391 14.4432 69.1524
v -32.9733 16.1607 69.6502
v -32.3923 14.4825 68.4656
v -31.7067 14.5370 70.2126
v -32.9733 16.1607 69.6502
v -31.7067 14.5370 70.2126
v -33.4536 14.4976 70.8993
v -33.0000 17.0452 69.6331
v -32.5964 15.5996 70.5766
v -33.8705 15.5505 70.0213
v -33.0000 17.0452 69.6331
v -33.8705 15.5505 70.0213
v -33.3146 15.5426 68.7466
v -33.0000 17.0452 69.6331
v -33.3146 15.5426 68.7466
v -32.0405 15.5917 69.3019
v -33.8705 15.5505 70.0213
v -32.0405 15.5917 69.3019
v -33.3146 15.5426 68.7466
v -33.0000 17.0452 69.6331
v -32.0405 15.5917 69.3019
v -32.5964 15.5996 70.5766
v -33.8705 15.5505 70.0213
v -32.5964 15.5996 70.5766
v -32.0405 15.5917 69.3019
v -33.0237 17.8314 69.6178
v -32.7625 16.5715 70.2099
v -33.5524 16.5410 69.8656
v -33.0237 17.8314 69.6178
v -33.5524 16.5410 69.8656
v -33.2078 16.5361 69.0752
v -33.0237 17.8314 69.6178
v -33.2078 16.5361 69.0752
v -32.4179 16.5666 69.4195
v -33.5524 16.5410 69.8656
v -32.4179 16.5666 69.4195
v -33.2078 16.5361 69.0752
v -33.0237 17.8314 69.6178
v -32.4179 16.5666 69.4195
v -32.7625 16.5715 70.2099
v -33.5524 16.5410 69.8656
v -32.7625 16.5715 70.2099
v -32.4179 16.5666 69.4195
v -48.1789 11.3119 -26.7730
v -47.7649 9.0185 -25.1216
v -49.6788 8.8813 -26.7429
v -46.1637 9.3048 -27.0359
v -49.6788 8.8813 -26.7429
v -47.7649 9.0185 -25.1216
v -48.1789 11.3119 -26.7730
v -49.6788 8.8813 -26.7429
v -48.0776 9.1676 -28.6573
v -46.1637 9.3048 -27.0359
v -48.0776 9.1676 -28.6573
v -49.6788 8.8813 -26.7429
v -48.1789 11.3119 -26.7730
v -48.0776 9.1676 -28.6573
v -46.1637 9.3048 -27.0359
v -48.1789 11.3119 -26.7730
v -46.1637 9.3048 -27.0359
v -47.7649 9.0185 -25.1216
v -48.3154 12.4866 -26.7114
v -47.0855 10.6007 -25.9649
v -48.9267 10.3788 -25.8114
v -48.3154 12.4866 -26.7114
v -48.9267 10.3788 -25.8114
v -49.0905 10.4569 -27.6633
v -48.3154 12.4866 -26.7114
v -49.0905 10.4569 -27.6633
v -47.2493 10.6788 -27.8168
v -48.9267 10.3788 -25.8114
v -47.2493 10.6788 -27.8168
v -49.0905 10.4569 -27.6633
v -48.3154 12.4866 -26.7114
v -47.2493 10.6788 -27.8168
v -47.0855 10.6007 -25.9649
v -48.9267 10.3788 -25.8114
v -47.0855 10.6007 -25.9649
v -47.2493 10.6788 -27.8168
v -48.4366 13.5308 -26.6567
v -47.6180 11.8786 -26.2191
v -48.7596 11.7410 -26.1240
v -48.4366 13.5308 -26.6567
v -48.7596 11.7410 -26.1240
v -48.8611 11.7895 -27.2722
v -48.4366 13.5308 -26.6567
v -48.8611 11.7895 -27.2722
v -47.7196 11.9270 -27.3673
v -48.7596 11.7410 -26.1240
v -47.7196 11.9270 -27.3673
v -48.8611 11.7895 -27.2722
v -48.4366 13.5308 -26.6567
v -47.7196 11.9270 -27.3673
v -47.6180 11.8786 -26.2191
v -48.7596 11.7410 -26.1240
v -47.6180 11.8786 -26.2191
v -47.7196 11.9270 -27.3673
v 73.9823 4.7324 -35.6957
v 72.8693 2.5075 -34.0452
v 72.1765 2.5246 -36.5777
v 75.3921 2.2817 -34.7368
v 72.1765 2.5246 -36.5777
v 72.8693 2.5075 -34.0452
v 73.9823 4.7324 -35.6957
v 72.1765 2.5246 -36.5777
v 74.6994 2.2988 -37.2694
v 75.3921 2.2817 -34.7368
v 74.6994 2.2988 -37.2694
v 72.1765 2.5246 -36.5777
v 73.9823 4.7324 -35.6957
v 74.6994 2.2988 -37.2694
v 75.3921 2.2817 -34.7368
v 73.9823 4.7324 -35.6957
v 75.3921 2.2817 -34.7368
v 72.8693 2.5075 -34.0452
v 74.0871 5.9655 -35.7160
v 74.2753 3.9013 -34.3556
v 72.5910 4.0286 -35.3198
v 74.0871 5.9655 -35.7160
v 72.5910 4.0286 -35.3198
v 73.5496 3.9193 -37.0086
v 74.0871 5.9655 -35.7160
v 73.5496 3.9193 -37.0086
v 75.2338 3.7920 -36.0444
v 72.5910 4.0286 -35.3198
v 75.2338 3.7920 -36.0444
v 73.5496 3.9193 -37.0086
v 74.0871 5.9655 -35.7160
v 75.2338 3.7920 -36.0444
v 74.2753 3.9013 -34.3556
v 72.5910 4.0286 -35.3198
v 74.2753 3.9013 -34.3556
v 75.2338 3.7920 -36.0444
v 74.1802 7.0616 -35.7340
v 74.2538 5.2749 -34.8823
v 73.2096 5.3538 -35.4801
v 74.1802 7.0616 -35.7340
v 73.2096 5.3538 -35.4801
v 73.8039 5.2860 -36.5271
v 74.1802 7.0616 -35.7340
v 73.8039 5.2860 -36.5271
v 74.8481 5.2071 -35.9293
v 73.2096 5.3538 -35.4801
v 74.8481 5.2071 -35.9293
v 73.8039 5.2860 -36.5271
v 74.1802 7.0616 -35.7340
v 74.8481 5.2071 -35.9293
v 74.2538 5.2749 -34.8823
v 73.2096 5.3538 -35.4801
v 74.2538 5.2749 -34.8823
v 74.8481 5.2071 -35.9293
v -70.9334 12.0742 -49.7281
v -71.3295 10.3145 -51.0349
v -69.5247 10.4410 -50.2840
v -72.0762 10.2296 -49.2259
v -69.5247 10.4410 -50.2840
v -71.3295 10.3145 -51.0349
v -70.9334 12.0742 -49.7281
v -69.5247 10.4410 -50.2840
v -70.2714 10.3560 -48.4750
v -72.0762 10.2296 -49.2259
v -70.2714 10.3560 -48.4750
v -69.5247 10.4410 -50.2840
v -70.9334 12.0742 -49.7281
v -70.2714 10.3560 -48.4750
v -72.0762 10.2296 -49.2259
v -70.9334 12.0742 -49.7281
v -72.0762 10.2296 -49.2259
v -71.3295 10.3145 -51.0349
v -71.0038 12.9949 -49.7139
v -71.8318 11.3943 -50.1309
v -70.4954 11.5050 -50.6851
v -71.0038 12.9949 -49.7139
v -70.4954 11.5050 -50.6851
v -69.9412 11.5267 -49.3443
v -71.0038 12.9949 -49.7139
v -69.9412 11.5267 -49.3443
v -71.2776 11.4160 -48.7901
v -70.4954 11.5050 -50.6851
v -71.2776 11.4160 -48.7901
v -69.9412 11.5267 -49.3443
v -71.0038 12.9949 -49.7139
v -71.2776 11.4160 -48.7901
v -71.8318 11.3943 -50.1309
v -70.4954 11.5050 -50.6851
v -71.8318 11.3943 -50.1309
v -71.2776 11.4160 -48.7901
v -71.0664 13.8132 -49.7013
v -71.5508 12.4423 -49.9657
v -70.7222 12.5110 -50.3093
v -71.0664 13.8132 -49.7013
v -70.7222 12.5110 -50.3093
v -70.3786 12.5245 -49.4780
v -71.0664 13.8132 -49.7013
v -70.3786 12.5245 -49.4780
v -71.2072 12.4558 -49.1343
v -70.7222 12.5110 -50.3093
v -71.2072 12.4558 -49.1343
v -70.3786 12.5245 -49.4780
v -71.0664 13.8132 -49.7013
v -71.2072 12.4558 -49.1343
v -71.5508 12.4423 -49.9657
v -70.7222 12.5110 -50.3093
v -71.5508 12.4423 -49.9657
v -71.2072 12.4558 -49.1343
v -45.4682 11.9293 -11.6378
v -44.2382 9.5545 -10.1263
v -46.9327 9.7393 -10.0578
v -44.3216 9.3351 -12.8178
v -46.9327 9.7393 -10.0578
v -44.2382 9.5545 -10.1263
v -45.4682 11.9293 -11.6378
v -46.9327 9.7393 -10.0578
v -47.0162 9.5198 -12.7493
v -44.3216 9.3351 -12.8178
v -47.0162 9.5198 -12.7493
v -46.9327 9.7393 -10.0578
v -45.4682 11.9293 -11.6378
v -47.0162 9.5198 -12.7493
v -44.3216 9.3351 -12.8178
v -45.4682 11.9293 -11.6378
v -44.3216 9.3351 -12.8178
v -44.2382 9.5545 -10.1263
v -45.3841 13.1957 -11.7436
v -44.1130 10.9882 -11.6031
v -45.4806 11.1999 -10.1574
v -45.3841 13.1957 -11.7436
v -45.4806 11.1999 -10.1574
v -46.9357 11.1818 -11.5313
v -45.3841 13.1957 -11.7436
v -46.9357 11.1818 -11.5313
v -45.5680 10.9701 -12.9770
v -45.4806 11.1999 -10.1574
v -45.5680 10.9701 -12.9770
v -46.9357 11.1818 -11.5313
v -45.3841 13.1957 -11.7436
v -45.5680 10.9701 -12.9770
v -44.1130 10.9882 -11.6031
v -45.4806 11.1999 -10.1574
v -44.1130 10.9882 -11.6031
v -45.5680 10.9701 -12.9770
v -45.3093 14.3214 -11.8377
v -44.5558 12.4321 -11.7070
v -45.4037 12.5634 -10.8107
v -45.3093 14.3214 -11.8377
v -45.4037 12.5634 -10.8107
v -46.3059 12.5521 -11.6626
v -45.3093 14.3214 -11.8377
v -46.3059 12.5521 -11.6626
v -45.4579 12.4209 -12.5589
v -45.4037 12.5634 -10.8107
v -45.4579 12.4209 -12.5589
v -46.3059 12.5521 -11.6626
v -45.3093 14.3214 -11.8377
v -45.4579 12.4209 -12.5589
v -44.5558 12.4321 -11.7070
v -45.4037 12.5634 -10.8107
v -44.5558 12.4321 -11.7070
v -45.4579 12.4209 -12.5589
v -64.4212 13.6347 -39.7450
v -65.1995 10.4167 -37.1128
v -67.1469 10.4454 -40.2820
v -62.0359 10.2100 -39.0587
v -67.1469 10.4454 -40.2820
v -65.1995 10.4167 -37.1128
v -64.4212 13.6347 -39.7450
v -67.1469 10.4454 -40.2820
v -63.9834 10.2387 -42.2279
v -62.0359 10.2100 -39.0587
v -63.9834 10.2387 -42.2279
v -67.1469 10.4454 -40.2820
v -64.4212 13.6347 -39.7450
v -63.9834 10.2387 -42.2279
v -62.0359 10.2100 -39.0587
v -64.4212 13.6347 -39.7450
v -62.0359 10.2100 -39.0587
v -65.1995 10.4167 -37.1128
v -64.3311 15.3855 -39.7845
v -63.4612 12.4525 -38.0587
v -66.1383 12.5758 -38.6995
v -64.3311 15.3855 -39.7845
v -66.1383 12.5758 -38.6995
v -65.5013 12.4826 -41.3786
v -64.3311 15.3855 -39.7845
v -65.5013 12.4826 -41.3786
v -62.8242 12.3593 -40.7379
v -66.1383 12.5758 -38.6995
v -62.8242 12.3593 -40.7379
v -65.5013 12.4826 -41.3786
v -64.3311 15.3855 -39.7845
v -62.8242 12.3593 -40.7379
v -63.4612 12.4525 -38.0587
v -66.1383 12.5758 -38.6995
v -63.4612 12.4525 -38.0587
v -62.8242 12.3593 -40.7379
v -64.2510 16.9418 -39.8196
v -63.7487 14.4035 -38.7334
v -65.4085 14.4800 -39.1307
v -64.2510 16.9418 -39.8196
v -65.4085 14.4800 -39.1307
v -65.0136 14.4222 -40.7917
v -64.2510 16.9418 -39.8196
v -65.0136 14.4222 -40.7917
v -63.3538 14.3457 -40.3945
v -65.4085 14.4800 -39.1307
v -63.3538 14.3457 -40.3945
v -65.0136 14.4222 -40.7917
v -64.2510 16.9418 -39.8196
v -63.3538 14.3457 -40.3945
v -63.7487 14.4035 -38.7334
v -65.4085 14.4800 -39.1307
v -63.7487 14.4035 -38.7334
v -63.3538 14.3457 -40.3945
v 9.1156 14.4928 19.9373
v 7.3288 12.0358 20.6157
v 8.5207 12.0137 18.1512
v 9.7929 12.0979 21.8069
v 8.5207 12.0137 18.1512
v 7.3288 12.0358 20.6157
v 9.1156 14.4928 19.9373
v 8.5207 12.0137 18.1512
v 10.9849 12.0758 19.3424
v 9.7929 12.0979 21.8069
v 10.9849 12.0758 19.3424
v 8.5207 12.0137 18.1512
v 9.1156 14.4928 19.9373
v 10.9849 12.0758 19.3424
v 9.7929 12.0979 21.8069
v 9.1156 14.4928 19.9373
v 9.7929 12.0979 21.8069
v 7.3288 12.0358 20.6157
v 9.0937 15.7830 19.9152
v 8.5058 13.6442 21.2429
v 7.8395 13.6001 19.3281
v 9.0937 15.7830 19.9152
v 7.8395 13.6001 19.3281
v 9.7544 13.6211 18.6612
v 9.0937 15.7830 19.9152
v 9.7544 13.6211 18.6612
v 10.4208 13.6652 20.5760
v 7.8395 13.6001 19.3281
v 10.4208 13.6652 20.5760
v 9.7544 13.6211 18.6612
v 9.0937 15.7830 19.9152
v 10.4208 13.6652 20.5760
v 8.5058 13.6442 21.2429
v 7.8395 13.6001 19.3281
v 8.5058 13.6442 21.2429
v 10.4208 13.6652 20.5760
v 9.0743 16.9298 19.8956
v 8.7188 15.0734 20.7278
v 8.3057 15.0460 19.5406
v 9.0743 16.9298 19.8956
v 8.3057 15.0460 19.5406
v 9.4929 15.0590 19.1272
v 9.0743 16.9298 19.8956
v 9.4929 15.0590 19.1272
v 9.9061 15.0864 20.3143
v 8.3057 15.0460 19.5406
v 9.9061 15.0864 20.3143
v 9.4929 15.0590 19.1272
v 9.0743 16.9298 19.8956
v 9.9061 15.0864 20.3143
v 8.7188 15.0734 20.7278
v 8.3057 15.0460 19.5406
v 8.7188 15.0734 20.7278
v 9.9061 15.0864 20.3143
v 72.3527 8.5833 -10.2608
v 71.4564 6.6841 -11.4476
v 73.5431 6.6464 -11.0669
v 71.0770 6.7444 -9.3612
v 73.5431 6.6464 -11.0669
v 71.4564 6.6841 -11.4476
v 72.3527 8.5833 -10.2608
v 73.5431 6.6464 -11.0669
v 73.1636 6.7066 -8.9806
v 71.0770 6.7444 -9.3612
v 73.1636 6.7066 -8.9806
v 73.5431 6.6464 -11.0669
v 72.3527 8.5833 -10.2608
v 73.1636 6.7066 -8.9806
v 71.0770 6.7444 -9.3612
v 72.3527 8.5833 -10.2608
v 71.0770 6.7444 -9.3612
v 71.4564 6.6841 -11.4476
v 72.3753 9.5828 -10.2855
v 71.2447 7.9367 -10.4437
v 72.5364 7.8854 -11.3371
v 72.3753 9.5828 -10.2855
v 72.5364 7.8854 -11.3371
v 73.4306 7.8972 -10.0450
v 72.3753 9.5828 -10.2855
v 73.4306 7.8972 -10.0450
v 72.1389 7.9485 -9.1515
v 72.5364 7.8854 -11.3371
v 72.1389 7.9485 -9.1515
v 73.4306 7.8972 -10.0450
v 72.3753 9.5828 -10.2855
v 72.1389 7.9485 -9.1515
v 71.2447 7.9367 -10.4437
v 72.5364 7.8854 -11.3371
v 71.2447 7.9367 -10.4437
v 72.1389 7.9485 -9.1515
v 72.3954 10.4712 -10.3075
v 71.6851 9.0397 -10.3954
v 72.4860 9.0079 -10.9493
v 72.3954 10.4712 -10.3075
v 72.4860 9.0079 -10.9493
v 73.0404 9.0152 -10.1482
v 72.3954 10.4712 -10.3075
v 73.0404 9.0152 -10.1482
v 72.2395 9.0470 -9.5943
v 72.4860 9.0079 -10.9493
v 72.2395 9.0470 -9.5943
v 73.0404 9.0152 -10.1482
v 72.3954 10.4712 -10.3075
v 72.2395 9.0470 -9.5943
v 71.6851 9.0397 -10.3954
v 72.4860 9.0079 -10.9493
v 71.6851 9.0397 -10.3954
v 72.2395 9.0470 -9.5943
v -71.3449 12.3116 4.4859
v -72.9148 9.7749 3.9922
v -70.5669 9.9562 2.7567
v -71.6899 9.9528 6.3460
v -70.5669 9.9562 2.7567
v -72.9148 9.7749 3.9922
v -71.3449 12.3116 4.4859
v -70.5669 9.9562 2.7567
v -69.3420 10.1341 5.1104
v -71.6899 9.9528 6.3460
v -69.3420 10.1341 5.1104
v -70.5669 9.9562 2.7567
v -71.3449 12.3116 4.4859
v -69.3420 10.1341 5.1104
v -71.6899 9.9528 6.3460
v -71.3449 12.3116 4.4859
v -71.6899 9.9528 6.3460
v -72.9148 9.7749 3.9922
v -71.4595 13.5595 4.4512
v -72.4983 11.3847 5.1561
v -71.9101 11.3865 3.2761
v -71.4595 13.5595 4.4512
v -71.9101 11.3865 3.2761
v -70.0387 11.5747 3.8618
v -71.4595 13.5595 4.4512
v -70.0387 11.5747 3.8618
v -70.6269 11.5729 5.7418
v -71.9101 11.3865 3.2761
v -70.6269 11.5729 5.7418
v -70.0387 11.5747 3.8618
v -71.4595 13.5595 4.4512
v -70.6269 11.5729 5.7418
v -72.4983 11.3847 5.1561
v -71.9101 11.3865 3.2761
v -72.4983 11.3847 5.1561
v -70.6269 11.5729 5.7418
v -71.5614 14.6687 4.4204
v -72.1583 12.8073 4.8717
v -71.7936 12.8084 3.7061
v -71.5614 14.6687 4.4204
v -71.7936 12.8084 3.7061
v -70.6334 12.9251 4.0692
v -71.5614 14.6687 4.4204
v -70.6334 12.9251 4.0692
v -70.9981 12.9240 5.2348
v -71.7936 12.8084 3.7061
v -70.9981 12.9240 5.2348
v -70.6334 12.9251 4.0692
v -71.5614 14.6687 4.4204
v -70.9981 12.9240 5.2348
v -72.1583 12.8073 4.8717
v -71.7936 12.8084 3.7061
v -72.1583 12.8073 4.8717
v -70.9981 12.9240 5.2348
v 24.2828 13.9004 9.4428
v 22.6868 11.0074 9.5670
v 24.7696 11.2333 7.5504
v 24.6574 11.4713 11.6543
v 24.7696 11.2333 7.5504
v 22.6868 11.0074 9.5670
v 24.2828 13.9004 9.4428
v 24.7696 11.2333 7.5504
v 26.7403 11.6971 9.6377
v 24.6574 11.4713 11.6543
v 26.7403 11.6971 9.6377
v 24.7696 11.2333 7.5504
v 24.2828 13.9004 9.4428
v 26.7403 11.6971 9.6377
v 24.6574 11.4713 11.6543
v 24.2828 13.9004 9.4428
v 24.6574 11.4713 11.6543
v 22.6868 11.0074 9.5670
v 24.0547 15.2495 9.3584
v 23.3439 12.8828 10.5554
v 23.4026 12.7581 8.4058
v 24.0547 15.2495 9.3584
v 23.4026 12.7581 8.4058
v 25.5257 13.1194 8.4429
v 24.0547 15.2495 9.3584
v 25.5257 13.1194 8.4429
v 25.4670 13.2440 10.5924
v 23.4026 12.7581 8.4058
v 25.4670 13.2440 10.5924
v 25.5257 13.1194 8.4429
v 24.0547 15.2495 9.3584
v 25.4670 13.2440 10.5924
v 23.3439 12.8828 10.5554
v 23.4026 12.7581 8.4058
v 23.3439 12.8828 10.5554
v 25.4670 13.2440 10.5924
v 23.8520 16.4486 9.2833
v 23.5050 14.4267 10.0602
v 23.5414 14.3494 8.7274
v 23.8520 16.4486 9.2833
v 23.5414 14.3494 8.7274
v 24.8578 14.5733 8.7504
v 23.8520 16.4486 9.2833
v 24.8578 14.5733 8.7504
v 24.8214 14.6506 10.0831
v 23.5414 14.3494 8.7274
v 24.8214 14.6506 10.0831
v 24.8578 14.5733 8.7504
v 23.8520 16.4486 9.2833
v 24.8214 14.6506 10.0831
v 23.5050 14.4267 10.0602
v 23.5414 14.3494 8.7274
v 23.5050 14.4267 10.0602
v 24.8214 14.6506 10.0831
v -38.7388 13.5902 25.0527
v -38.7323 11.0270 27.0261
v -40.6823 11.0062 24.9546
v -36.6621 11.1101 25.0764
v -40.6823 11.0062 24.9546
v -38.7323 11.0270 27.0261
v -38.7388 13.5902 25.0527
v -40.6823 11.0062 24.9546
v -38.6121 11.0892 23.0050
v -36.6621 11.1101 25.0764
v -38.6121 11.0892 23.0050
v -40.6823 11.0062 24.9546
v -38.7388 13.5902 25.0527
v -38.6121 11.0892 23.0050
v -36.6621 11.1101 25.0764
v -38.7388 13.5902 25.0527
v -36.6621 11.1101 25.0764
v -38.7323 11.0270 27.0261
v -38.7740 14.9307 25.0723
v -37.6939 12.7075 26.1245
v -39.7996 12.6530 26.0608
v -38.7740 14.9307 25.0723
v -39.7996 12.6530 26.0608
v -39.7366 12.6856 23.9546
v -38.7740 14.9307 25.0723
v -39.7366 12.6856 23.9546
v -37.6309 12.7400 24.0183
v -39.7996 12.6530 26.0608
v -37.6309 12.7400 24.0183
v -39.7366 12.6856 23.9546
v -38.7740 14.9307 25.0723
v -37.6309 12.7400 24.0183
v -37.6939 12.7075 26.1245
v -39.7996 12.6530 26.0608
v -37.6939 12.7075 26.1245
v -37.6309 12.7400 24.0183
v -38.8054 16.1223 25.0898
v -38.1212 14.1928 25.7341
v -39.4267 14.1590 25.6945
v -38.8054 16.1223 25.0898
v -39.4267 14.1590 25.6945
v -39.3877 14.1792 24.3887
v -38.8054 16.1223 25.0898
v -39.3877 14.1792 24.3887
v -38.0821 14.2130 24.4283
v -39.4267 14.1590 25.6945
v -38.0821 14.2130 24.4283
v -39.3877 14.1792 24.3887
v -38.8054 16.1223 25.0898
v -38.0821 14.2130 24.4283
v -38.1212 14.1928 25.7341
v -39.4267 14.1590 25.6945
v -38.1212 14.1928 25.7341
v -38.0821 14.2130 24.4283
v 47.9573 15.5469 69.4916
v 46.7575 13.2999 68.3246
v 49.2206 13.2982 68.3970
v 46.6852 13.4118 70.7852
v 49.2206 13.2982 68.3970
v 46.7575 13.2999 68.3246
v 47.9573 15.5469 69.4916
v 49.2206 13.2982 68.3970
v 49.1484 13.4101 70.8576
v 46.6852 13.4118 70.7852
v 49.1484 13.4101 70.8576
v 49.2206 13.2982 68.3970
v 47.9573 15.5469 69.4916
v 49.1484 13.4101 70.8576
v 46.6852 13.4118 70.7852
v 47.9573 15.5469 69.4916
v 46.6852 13.4118 70.7852
v 46.7575 13.2999 68.3246
v 47.9596 16.7074 69.4389
v 46.6656 14.7742 69.4888
v 47.9936 14.7147 68.2379
v 47.9596 16.7074 69.4389
v 47.9936 14.7147 68.2379
v 49.2459 14.7725 69.5646
v 47.9596 16.7074 69.4389
v 49.2459 14.7725 69.5646
v 47.9179 14.8319 70.8155
v 47.9936 14.7147 68.2379
v 47.9179 14.8319 70.8155
v 49.2459 14.7725 69.5646
v 47.9596 16.7074 69.4389
v 47.9179 14.8319 70.8155
v 46.6656 14.7742 69.4888
v 47.9936 14.7147 68.2379
v 46.6656 14.7742 69.4888
v 47.9179 14.8319 70.8155
v 47.9617 17.7389 69.3920
v 47.1584 16.0632 69.4446
v 47.9818 16.0264 68.6691
v 47.9617 17.7389 69.3920
v 47.9818 16.0264 68.6691
v 48.7582 16.0622 69.4917
v 47.9617 17.7389 69.3920
v 48.7582 16.0622 69.4917
v 47.9349 16.0990 70.2672
v 47.9818 16.0264 68.6691
v 47.9349 16.0990 70.2672
v 48.7582 16.0622 69.4917
v 47.9617 17.7389 69.3920
v 47.9349 16.0990 70.2672
v 47.1584 16.0632 69.4446
v 47.9818 16.0264 68.6691
v 47.1584 16.0632 69.4446
v 47.9349 16.0990 70.2672
v 32.7256 16.0813 45.4003
v 35.0222 13.0383 45.6065
v 32.5251 13.1582 47.8482
v 32.7788 13.0285 43.1080
v 32.5251 13.1582 47.8482
v 35.0222 13.0383 45.6065
v 32.7256 16.0813 45.4003
v 32.5251 13.1582 47.8482
v 30.2817 13.1484 45.3497
v 32.7788 13.0285 43.1080
v 30.2817 13.1484 45.3497
v 32.5251 13.1582 47.8482
v 32.7256 16.0813 45.4003
v 30.2817 13.1484 45.3497
v 32.7788 13.0285 43.1080
v 32.7256 16.0813 45.4003
v 32.7788 13.0285 43.1080
v 35.0222 13.0383 45.6065
v 32.7646 17.6632 45.3590
v 34.0075 14.9639 44.2536
v 33.8746 15.0319 46.7364
v 32.7646 17.6632 45.3590
v 33.8746 15.0319 46.7364
v 31.3917 15.0896 46.6019
v 32.7646 17.6632 45.3590
v 31.3917 15.0896 46.6019
v 31.5246 15.0216 44.1191
v 33.8746 15.0319 46.7364
v 31.5246 15.0216 44.1191
v 31.3917 15.0896 46.6019
v 32.7646 17.6632 45.3590
v 31.5246 15.0216 44.1191
v 34.0075 14.9639 44.2536
v 33.8746 15.0319 46.7364
v 34.0075 14.9639 44.2536
v 31.5246 15.0216 44.1191
v 32.7992 19.0693 45.3224
v 33.5538 16.7454 44.6540
v 33.4714 16.7876 46.1933
v 32.7992 19.0693 45.3224
v 33.4714 16.7876 46.1933
v 31.9320 16.8233 46.1099
v 32.7992 19.0693 45.3224
v 31.9320 16.8233 46.1099
v 32.0144 16.7812 44.5706
v 33.4714 16.7876 46.1933
v 32.0144 16.7812 44.5706
v 31.9320 16.8233 46.1099
v 32.7992 19.0693 45.3224
v 32.0144 16.7812 44.5706
v 33.5538 16.7454 44.6540
v 33.4714 16.7876 46.1933
v 33.5538 16.7454 44.6540
v 32.0144 16.7812 44.5706
v 19.5305 12.7420 -2.7261
v 19.5661 10.3937 -4.5260
v 21.4963 10.5312 -2.7860
v 17.8269 10.3265 -2.5914
v 21.4963 10.5312 -2.7860
v 19.5661 10.3937 -4.5260
v 19.5305 12.7420 -2.7261
v 21.4963 10.5312 -2.7860
v 19.7571 10.4639 -0.8514
v 17.8269 10.3265 -2.5914
v 19.7571 10.4639 -0.8514
v 21.4963 10.5312 -2.7860
v 19.5305 12.7420 -2.7261
v 19.7571 10.4639 -0.8514
v 17.8269 10.3265 -2.5914
v 19.5305 12.7420 -2.7261
v 17.8269 10.3265 -2.5914
v 19.5661 10.3937 -4.5260
v 19.4612 13.9667 -2.7459
v 18.5658 11.8536 -3.6243
v 20.4878 11.9608 -3.7262
v 19.4612 13.9667 -2.7459
v 20.4878 11.9608 -3.7262
v 20.5878 11.9976 -1.8015
v 19.4612 13.9667 -2.7459
v 20.5878 11.9976 -1.8015
v 18.6658 11.8904 -1.6996
v 20.4878 11.9608 -3.7262
v 18.6658 11.8904 -1.6996
v 20.5878 11.9976 -1.8015
v 19.4612 13.9667 -2.7459
v 18.6658 11.8904 -1.6996
v 18.5658 11.8536 -3.6243
v 20.4878 11.9608 -3.7262
v 18.5658 11.8536 -3.6243
v 18.6658 11.8904 -1.6996
v 19.3995 15.0552 -2.7635
v 18.8729 13.2417 -3.3000
v 20.0645 13.3081 -3.3632
v 19.3995 15.0552 -2.7635
v 20.0645 13.3081 -3.3632
v 20.1265 13.3309 -2.1699
v 19.3995 15.0552 -2.7635
v 20.1265 13.3309 -2.1699
v 18.9349 13.2645 -2.1067
v 20.0645 13.3081 -3.3632
v 18.9349 13.2645 -2.1067
v 20.1265 13.3309 -2.1699
v 19.3995 15.0552 -2.7635
v 18.9349 13.2645 -2.1067
v 18.8729 13.2417 -3.3000
v 20.0645 13.3081 -3.3632
v 18.8729 13.2417 -3.3000
v 18.9349 13.2645 -2.1067
v -43.5144 13.6002 -1.6085
v -42.3279 10.3885 -3.9102
v -41.0418 10.4827 -0.5187
v -45.7172 10.2622 -2.6213
v -41.0418 10.4827 -0.5187
v -42.3279 10.3885 -3.9102
v -43.5144 13.6002 -1.6085
v -41.0418 10.4827 -0.5187
v -44.4311 10.3564 0.7701
v -45.7172 10.2622 -2.6213
v -44.4311 10.3564 0.7701
v -41.0418 10.4827 -0.5187
v -43.5144 13.6002 -1.6085
v -44.4311 10.3564 0.7701
v -45.7172 10.2622 -2.6213
v -43.5144 13.6002 -1.6085
v -45.7172 10.2622 -2.6213
v -42.3279 10.3885 -3.9102
v -43.5858 15.3089 -1.6289
v -44.1405 12.4116 -3.3713
v -41.6915 12.5271 -2.2700
v -43.5858 15.3089 -1.6289
v -41.6915 12.5271 -2.2700
v -42.7931 12.5103 0.1814
v -43.5858 15.3089 -1.6289
v -42.7931 12.5103 0.1814
v -45.2421 12.3948 -0.9198
v -41.6915 12.5271 -2.2700
v -45.2421 12.3948 -0.9198
v -42.7931 12.5103 0.1814
v -43.5858 15.3089 -1.6289
v -45.2421 12.3948 -0.9198
v -44.1405 12.4116 -3.3713
v -41.6915 12.5271 -2.2700
v -44.1405 12.4116 -3.3713
v -45.2421 12.3948 -0.9198
v -43.6493 16.8279 -1.6470
v -43.9638 14.3290 -2.7189
v -42.4455 14.4006 -2.0361
v -43.6493 16.8279 -1.6470
v -42.4455 14.4006 -2.0361
v -43.1285 14.3902 -0.5162
v -43.6493 16.8279 -1.6470
v -43.1285 14.3902 -0.5162
v -44.6468 14.3186 -1.1990
v -42.4455 14.4006 -2.0361
v -44.6468 14.3186 -1.1990
v -43.1285 14.3902 -0.5162
v -43.6493 16.8279 -1.6470
v -44.6468 14.3186 -1.1990
v -43.9638 14.3290 -2.7189
v -42.4455 14.4006 -2.0361
v -43.9638 14.3290 -2.7189
v -44.6468 14.3186 -1.1990
v -11.2109 11.4311 -16.0884
v -9.2796 8.8590 -15.3460
v -12.0036 8.7398 -14.3491
v -10.2806 8.9597 -18.0693
v -12.0036 8.7398 -14.3491
v -9.2796 8.8590 -15.3460
v -11.2109 11.4311 -16.0884
v -12.0036 8.7398 -14.3491
v -13.0047 8.8405 -17.0724
v -10.2806 8.9597 -18.0693
v -13.0047 8.8405 -17.0724
v -12.0036 8.7398 -14.3491
v -11.2109 11.4311 -16.0884
v -13.0047 8.8405 -17.0724
v -10.2806 8.9597 -18.0693
v -11.2109 11.4311 -16.0884
v -10.2806 8.9597 -18.0693
v -9.2796 8.8590 -15.3460
v -11.2473 12.7976 -16.0245
v -9.7598 10.5824 -16.6532
v -10.6623 10.4672 -14.7047
v -11.2473 12.7976 -16.0245
v -10.6623 10.4672 -14.7047
v -12.6134 10.4576 -15.6089
v -11.2473 12.7976 -16.0245
v -12.6134 10.4576 -15.6089
v -11.7109 10.5728 -17.5574
v -10.6623 10.4672 -14.7047
v -11.7109 10.5728 -17.5574
v -12.6134 10.4576 -15.6089
v -11.2473 12.7976 -16.0245
v -11.7109 10.5728 -17.5574
v -9.7598 10.5824 -16.6532
v -10.6623 10.4672 -14.7047
v -9.7598 10.5824 -16.6532
v -11.7109 10.5728 -17.5574
v -11.2796 14.0124 -15.9677
v -10.3424 12.0771 -16.3838
v -10.9020 12.0057 -15.1757
v -11.2796 14.0124 -15.9677
v -10.9020 12.0057 -15.1757
v -12.1117 11.9997 -15.7363
v -11.2796 14.0124 -15.9677
v -12.1117 11.9997 -15.7363
v -11.5521 12.0711 -16.9444
v -10.9020 12.0057 -15.1757
v -11.5521 12.0711 -16.9444
v -12.1117 11.9997 -15.7363
v -11.2796 14.0124 -15.9677
v -11.5521 12.0711 -16.9444
v -10.3424 12.0771 -16.3838
v -10.9020 12.0057 -15.1757
v -10.3424 12.0771 -16.3838
v -11.5521 12.0711 -16.9444
v -16.6083 10.3454 -65.3475
v -17.7489 8.5984 -66.2850
v -15.7421 8.4614 -66.3128
v -17.7170 8.6569 -64.2745
v -15.7421 8.4614 -66.3128
v -17.7489 8.5984 -66.2850
v -16.6083 10.3454 -65.3475
v -15.7421 8.4614 -66.3128
v -15.7103 8.5198 -64.3023
v -17.7170 8.6569 -64.2745
v -15.7103 8.5198 -64.3023
v -15.7421 8.4614 -66.3128
v -16.6083 10.3454 -65.3475
v -15.7103 8.5198 -64.3023
v -17.7170 8.6569 -64.2745
v -16.6083 10.3454 -65.3475
v -17.7170 8.6569 -64.2745
v -17.7489 8.5984 -66.2850
v -16.5441 11.2911 -65.3760
v -17.7022 9.7867 -65.3139
v -16.6678 9.6843 -66.3815
v -16.5441 11.2911 -65.3760
v -16.6678 9.6843 -66.3815
v -15.6000 9.6431 -65.3430
v -16.5441 11.2911 -65.3760
v -15.6000 9.6431 -65.3430
v -16.6345 9.7455 -64.2754
v -16.6678 9.6843 -66.3815
v -16.6345 9.7455 -64.2754
v -15.6000 9.6431 -65.3430
v -16.5441 11.2911 -65.3760
v -16.6345 9.7455 -64.2754
v -17.7022 9.7867 -65.3139
v -16.6678 9.6843 -66.3815
v -17.7022 9.7867 -65.3139
v -16.6345 9.7455 -64.2754
v -16.4871 12.1316 -65.4013
v -17.2315 10.8102 -65.3511
v -16.5901 10.7467 -66.0130
v -16.4871 12.1316 -65.4013
v -16.5901 10.7467 -66.0130
v -15.9281 10.7212 -65.3692
v -16.4871 12.1316 -65.4013
v -15.9281 10.7212 -65.3692
v -16.5695 10.7847 -64.7072
v -16.5901 10.7467 -66.0130
v -16.5695 10.7847 -64.7072
v -15.9281 10.7212 -65.3692
v -16.4871 12.1316 -65.4013
v -16.5695 10.7847 -64.7072
v -17.2315 10.8102 -65.3511
v -16.5901 10.7467 -66.0130
v -17.2315 10.8102 -65.3511
v -16.5695 10.7847 -64.7072
v 9.9257 16.7792 67.4134
v 9.2140 14.2563 69.0128
v 8.6080 14.2046 66.3816
v 11.8254 14.5798 68.4050
v 8.6080 14.2046 66.3816
v 9.2140 14.2563 69.0128
v 9.9257 16.7792 67.4134
v 8.6080 14.2046 66.3816
v 11.2194 14.5281 65.7737
v 11.8254 14.5798 68.4050
v 11.2194 14.5281 65.7737
v 8.6080 14.2046 66.3816
v 9.9257 16.7792 67.4134
v 11.2194 14.5281 65.7737
v 11.8254 14.5798 68.4050
v 9.9257 16.7792 67.4134
v 11.8254 14.5798 68.4050
v 9.2140 14.2563 69.0128
v 9.7716 18.0429 67.4241
v 10.3458 15.9638 68.7845
v 8.6606 15.7673 67.7247
v 9.7716 18.0429 67.4241
v 8.6606 15.7673 67.7247
v 9.7110 15.9097 66.0281
v 9.7716 18.0429 67.4241
v 9.7110 15.9097 66.0281
v 11.3962 16.1062 67.0879
v 8.6606 15.7673 67.7247
v 11.3962 16.1062 67.0879
v 9.7110 15.9097 66.0281
v 9.7716 18.0429 67.4241
v 11.3962 16.1062 67.0879
v 10.3458 15.9638 68.7845
v 8.6606 15.7673 67.7247
v 10.3458 15.9638 68.7845
v 11.3962 16.1062 67.0879
v 9.6347 19.1661 67.4335
v 10.0540 17.3576 68.2726
v 9.0092 17.2358 67.6155
v 9.6347 19.1661 67.4335
v 9.0092 17.2358 67.6155
v 9.6604 17.3240 66.5637
v 9.6347 19.1661 67.4335
v 9.6604 17.3240 66.5637
v 10.7052 17.4459 67.2207
v 9.0092 17.2358 67.6155
v 10.7052 17.4459 67.2207
v 9.6604 17.3240 66.5637
v 9.6347 19.1661 67.4335
v 10.7052 17.4459 67.2207
v 10.0540 17.3576 68.2726
v 9.0092 17.2358 67.6155
v 10.0540 17.3576 68.2726
v 10.7052 17.4459 67.2207
v -24.7094 10.0241 -70.9581
v -24.8653 8.5669 -69.7827
v -25.8769 8.5581 -71.0891
v -23.5589 8.5480 -70.7942
v -25.8769 8.5581 -71.0891
v -24.8653 8.5669 -69.7827
v -24.7094 10.0241 -70.9581
v -25.8769 8.5581 -71.0891
v -24.5705 8.5392 -72.1005
v -23.5589 8.5480 -70.7942
v -24.5705 8.5392 -72.1005
v -25.8769 8.5581 -71.0891
v -24.7094 10.0241 -70.9581
v -24.5705 8.5392 -72.1005
v -23.5589 8.5480 -70.7942
v -24.7094 10.0241 -70.9581
v -23.5589 8.5480 -70.7942
v -24.8653 8.5669 -69.7827
v -24.7050 10.8029 -70.9669
v -24.1826 9.5095 -70.2680
v -25.3967 9.5148 -70.4225
v -24.7050 10.8029 -70.9669
v -25.3967 9.5148 -70.4225
v -25.2423 9.5003 -71.6365
v -24.7050 10.8029 -70.9669
v -25.2423 9.5003 -71.6365
v -24.0282 9.4950 -71.4821
v -25.3967 9.5148 -70.4225
v -24.0282 9.4950 -71.4821
v -25.2423 9.5003 -71.6365
v -24.7050 10.8029 -70.9669
v -24.0282 9.4950 -71.4821
v -24.1826 9.5095 -70.2680
v -25.3967 9.5148 -70.4225
v -24.1826 9.5095 -70.2680
v -24.0282 9.4950 -71.4821
v -24.7010 11.4952 -70.9746
v -24.3789 10.3731 -70.5378
v -25.1317 10.3764 -70.6335
v -24.7010 11.4952 -70.9746
v -25.1317 10.3764 -70.6335
v -25.0359 10.3674 -71.3862
v -24.7010 11.4952 -70.9746
v -25.0359 10.3674 -71.3862
v -24.2832 10.3641 -71.2905
v -25.1317 10.3764 -70.6335
v -24.2832 10.3641 -71.2905
v -25.0359 10.3674 -71.3862
v -24.7010 11.4952 -70.9746
v -24.2832 10.3641 -71.2905
v -24.3789 10.3731 -70.5378
v -25.1317 10.3764 -70.6335
v -24.3789 10.3731 -70.5378
v -24.2832 10.3641 -71.2905
v -65.8375 13.4650 19.4080
v -64.9672 11.0131 17.5762
v -63.9042 11.0537 20.1645
v -67.5530 10.8975 18.6400
v -63.9042 11.0537 20.1645
v -64.9672 11.0131 17.5762
v -65.8375 13.4650 19.4080
v -63.9042 11.0537 20.1645
v -66.4899 10.9380 21.2283
v -67.5530 10.8975 18.6400
v -66.4899 10.9380 21.2283
v -63.9042 11.0537 20.1645
v -65.8375 13.4650 19.4080
v -66.4899 10.9380 21.2283
v -67.5530 10.8975 18.6400
v -65.8375 13.4650 19.4080
v -67.5530 10.8975 18.6400
v -64.9672 11.0131 17.5762
v -65.8952 14.7829 19.4110
v -66.3559 12.5651 18.0502
v -64.4447 12.6469 18.8487
v -65.8952 14.7829 19.4110
v -64.4447 12.6469 18.8487
v -65.2423 12.6076 20.7617
v -65.8952 14.7829 19.4110
v -65.2423 12.6076 20.7617
v -67.1534 12.5258 19.9631
v -64.4447 12.6469 18.8487
v -67.1534 12.5258 19.9631
v -65.2423 12.6076 20.7617
v -65.8952 14.7829 19.4110
v -67.1534 12.5258 19.9631
v -66.3559 12.5651 18.0502
v -64.4447 12.6469 18.8487
v -66.3559 12.5651 18.0502
v -67.1534 12.5258 19.9631
v -65.9465 15.9544 19.4137
v -66.2084 14.0376 18.5688
v -65.0235 14.0883 19.0639
v -65.9465 15.9544 19.4137
v -65.0235 14.0883 19.0639
v -65.5179 14.0639 20.2499
v -65.9465 15.9544 19.4137
v -65.5179 14.0639 20.2499
v -66.7029 14.0132 19.7548
v -65.0235 14.0883 19.0639
v -66.7029 14.0132 19.7548
v -65.5179 14.0639 20.2499
v -65.9465 15.9544 19.4137
v -66.7029 14.0132 19.7548
v -66.2084 14.0376 18.5688
v -65.0235 14.0883 19.0639
v -66.2084 14.0376 18.5688
v -66.7029 14.0132 19.7548
v -24.7448 17.6626 73.9424
v -24.2911 15.1690 71.9245
v -22.8592 15.0657 74.3856
v -26.7534 15.1889 73.3579
v -22.8592 15.0657 74.3856
v -24.2911 15.1690 71.9245
v -24.7448 17.6626 73.9424
v -22.8592 15.0657 74.3856
v -25.3215 15.0856 75.8190
v -26.7534 15.1889 73.3579
v -25.3215 15.0856 75.8190
v -22.8592 15.0657 74.3856
v -24.7448 17.6626 73.9424
v -25.3215 15.0856 75.8190
v -26.7534 15.1889 73.3579
v -24.7448 17.6626 73.9424
v -26.7534 15.1889 73.3579
v -24.2911 15.1690 71.9245
v -24.7122 19.0048 73.9798
v -25.5165 16.8219 72.6284
v -23.4768 16.7574 73.1667
v -24.7122 19.0048 73.9798
v -23.4768 16.7574 73.1667
v -24.0165 16.7137 75.2066
v -24.7122 19.0048 73.9798
v -24.0165 16.7137 75.2066
v -26.0562 16.7782 74.6683
v -23.4768 16.7574 73.1667
v -26.0562 16.7782 74.6683
v -24.0165 16.7137 75.2066
v -24.7122 19.0048 73.9798
v -26.0562 16.7782 74.6683
v -25.5165 16.8219 72.6284
v -23.4768 16.7574 73.1667
v -25.5165 16.8219 72.6284
v -26.0562 16.7782 74.6683
v -24.6832 20.1979 74.0130
v -25.1953 18.2927 73.1598
v -23.9306 18.2527 73.4935
v -24.6832 20.1979 74.0130
v -23.9306 18.2527 73.4935
v -24.2653 18.2256 74.7582
v -24.6832 20.1979 74.0130
v -24.2653 18.2256 74.7582
v -25.5299 18.2656 74.4245
v -23.9306 18.2527 73.4935
v -25.5299 18.2656 74.4245
v -24.2653 18.2256 74.7582
v -24.6832 20.1979 74.0130
v -25.5299 18.2656 74.4245
v -25.1953 18.2927 73.1598
v -23.9306 18.2527 73.4935
v -25.1953 18.2927 73.1598
v -25.5299 18.2656 74.4245
vt 0.00000 1.00000
vt 0.00000 1.00000
vt 0.00000 1.00000
vt 0.00000 1.00000
vt 0.00000 1.00000
vt 0.00000 1.00000
vt 0.00000 1.00000
vt 0.00000 1.00000
vt 0.00000 1.00000
vt 0.00000 1.00000
vt 0.00000 1.00000
vt 0.00000 1.00000
vt 0.00000 1.00000
vt 0.00000 1.00000
vt 0.00000 1.00000
vt 0.00000 1.00000
vt 0.00000 1.00000
vt 0.00000 1.00000
vt 0.00000 1.00000
vt 0.00000 1.00000
vt 0.00000 1.00000
vt 0.00000 1.00000
vt 0.00000 1.00000
vt 0.00000 1.00000
vt 0.00000 1.00000
vt 0.00000 1.00000
vt 0.00000 1.00000
vt 0.00000 1.00000
vt 0.00000 1.00000
vt 0.00000 1.00000
vt 0.00000 1.00000
vt 0.00000 1.00000
vt 0.00000 1.00000
vt 0.00000 1.00000
vt 0.00000 1.00000
vt 0.00000 1.00000
vt 0.00000 1.00000
vt 0.00000 1.00000
vt 0.00000 1.00000
vt 0.00000 1.00000
vt 0.00000 1.00000
vt 0.00000 1.00000
vt 0.00000 1.00000
vt 0.00000 1.00000
vt 0.00000 1.00000
vt 0.00000 1.00000
vt 0.00000 1.00000
vt 0.00000 1.00000
vt 0.00000 1.00000
vt 0.00000 1.00000
vt 0.00000 1.00000
vt 0.00000 1.00000
vt 0.00000 1.00000
vt 0.00000 1.00000
vt 0.00000 1.00000
vt 0.00000 1.00000
vt 0.00000 1.00000
vt 0.00000 1.00000
vt 0.00000 1.00000
vt 0.00000 1.00000
vt 0.00000 1.00000
vt 0.00000 1.00000
vt 0.00000 1.00000
vt 0.00000 1.00000
vt 0.00000 1.00000
vt 0.00000 1.00000
vt 0.00000 1.00000
vt 0.00000 1.00000
vt 0.00000 1.00000
vt 0.00000 1.00000
vt 0.00000 1.00000
vt 0.00000 1.00000
vt 0.00000 1.00000
vt 0.00000 1.00000
vt 0.00000 1.00000
vt 0.00000 1.00000
vt 0.00000 1.00000
vt 0.00000 1.00000
vt 0.00000 1.00000
vt 0.00000 1.00000
vt 0.00000 1.00000
vt 0.00000 1.00000
vt 0.00000 1.00000
vt 0.00000 1.00000
vt 0.00000 1.00000
vt 0.00000 1.00000
vt 0.00000 1.00000
vt 0.00000 1.00000
vt 0.00000 1.00000
vt 0.00000 1.00000
vt 0.00000 1.00000
vt 0.00000 1.00000
vt 0.00000 1.00000
vt 0.00000 1.00000
vt 0.00000 1.00000
vt 0.00000 1.00000
vt 0.00000 1.00000
vt 0.00000 1.00000
vt 0.00000 1.00000
vt 0.00000 1.00000
vt 0.00000 1.00000
vt 0.00000 1.00000
vt 0.00000 1.00000
vt 0.00000 1.00000
vt 0.00000 1.00000
vt 0.00000 1.00000
vt 0.00000 1.00000
vt 0.00000 1.00000
vt 0.00000 1.00000
vt 0.00000 1.00000
vt 0.00000 1.00000
vt 0.00000 1.00000
vt 0.00000 1.00000
vt 0.00000 1.00000
vt 0.00000 1.00000
vt 0.00000 1.00000
vt 0.00000 1.00000
vt 0.00000 1.00000
vt 0.00000 1.00000
vt 0.00000 1.00000
vt 0.00000 1.00000
vt 0.00000 1.00000
vt 0.00000 1.00000
vt 0.00000 1.00000
vt 0.00000 1.00000
vt 0.00000 1.00000
vt 0.00000 1.00000
vt 0.00000 1.00000
vt 0.00000 1.00000
vt 0.00000 1.00000
vt 0.00000 1.00000
vt 0.00000 1.00000
vt 0.00000 1.00000
vt 0.00000 1.00000
vt 0.00000 1.00000
vt 0.00000 1.00000
vt 0.00000 1.00000
vt 0.00000 1.00000
vt 0.00000 1.00000
vt 0.00000 1.00000
vt 0.00000 1.00000
vt 0.00000 1.00000
vt 0.00000 1.00000
vt 0.00000 1.00000
vt 0.00000 1.00000
vt 0.00000 1.00000
vt 0.00000 1.00000
vt 0.00000 1.00000
vt 0.00000 1.00000
vt 0.00000 1.00000
vt 0.00000 1.00000
vt 0.00000 1.00000
vt 0.00000 1.00000
vt 0.00000 1.00000
vt 0.00000 1.00000
vt 0.00000 1.00000
vt 0.00000 1.00000
vt 0.00000 1.00000
vt 0.00000 1.00000
vt 0.00000 1.00000
vt 0.00000 1.00000
vt 0.00000 1.00000
vt 0.00000 1.00000
vt 0.00000 1.00000
vt 0.00000 1.00000
vt 0.00000 1.00000
vt 0.00000 1.00000
vt 0.00000 1.00000
vt 0.00000 1.00000
vt 0.00000 1.00000
vt 0.00000 1.00000
vt 0.00000 1.00000
vt 0.00000 1.00000
vt 0.00000 1.00000
vt 0.00000 1.00000
vt 0.00000 1.00000
vt 0.00000 1.00000
vt 0.00000 1.00000
vt 0.00000 1.00000
vt 0.00000 1.00000
vt 0.00000 1.00000
vt 0.00000 1.00000
vt 0.00000 1.00000
vt 0.00000 1.00000
vt 0.00000 1.00000
vt 0.00000 1.00000
vt 0.00000 1.00000
vt 0.00000 1.00000
vt 0.00000 1.00000
vt 0.00000 1.00000
vt 0.00000 1.00000
vt 0.00000 1.00000
vt 0.00000 1.00000
vt 0.00000 1.00000
vt 0.00000 1.00000
vt 0.00000 1.00000
vt 0.00000 1.00000
vt 0.00000 1.00000
vt 0.00000 1.00000
vt 0.00000 1.00000
vt 0.00000 1.00000
vt 0.00000 1.00000
vt 0.00000 1.00000
vt 0.00000 1.00000
vt 0.00000 1.00000
vt 0.00000 1.00000
vt 0.00000 1.00000
vt 0.00000 1.00000
vt 0.00000 1.00000
vt 0.00000 1.00000
vt 0.00000 1.00000
vt 0.00000 1.00000
vt 0.00000 1.00000
vt 0.00000 1.00000
vt 0.00000 1.00000
vt 0.00000 1.00000
vt 0.00000 1.00000
vt 0.00000 1.00000
vt 0.00000 1.00000
vt 0.00000 1.00000
vt 0.00000 1.00000
vt 0.00000 1.00000
vt 0.00000 1.00000
vt 0.00000 1.00000
vt 0.00000 1.00000
vt 0.00000 1.00000
vt 0.00000 1.00000
vt 0.00000 1.00000
vt 0.00000 1.00000
vt 0.00000 1.00000
vt 0.00000 1.00000
vt 0.00000 1.00000
vt 0.00000 1.00000
vt 0.00000 1.00000
vt 0.00000 1.00000
vt 0.00000 1.00000
vt 0.00000 1.00000
vt 0.00000 1.00000
vt 0.00000 1.00000
vt 0.00000 1.00000
vt 0.00000 1.00000
vt 0.00000 1.00000
vt 0.00000 1.00000
vt 0.00000 1.00000
vt 0.00000 1.00000
vt 0.00000 1.00000
vt 0.00000 1.00000
vt 0.00000 1.00000
vt 0.00000 1.00000
vt 0.00000 1.00000
vt 0.00000 1.00000
vt 0.00000 1.00000
vt 0.00000 1.00000
vt 0.00000 1.00000
vt 0.00000 1.00000
vt 0.00000 1.00000
vt 0.00000 1.00000
vt 0.00000 1.00000
vt 0.00000 1.00000
vt 0.00000 1.00000
vt 0.00000 1.00000
vt 0.00000 1.00000
vt 0.00000 1.00000
vt 0.00000 1.00000
vt 0.00000 1.00000
vt 0.00000 1.00000
vt 0.00000 1.00000
vt 0.00000 1.00000
vt 0.00000 1.00000
vt 0.00000 1.00000
vt 0.00000 1.00000
vt 0.00000 1.00000
vt 0.00000 1.00000
vt 0.00000 1.00000
vt 0.00000 1.00000
vt 0.00000 1.00000
vt 0.00000 1.00000
vt 0.00000 1.00000
vt 0.00000 1.00000
vt 0.00000 1.00000
vt 0.00000 1.00000
vt 0.00000 1.00000
vt 0.00000 1.00000
vt 0.00000 1.00000
vt 0.00000 1.00000
vt 0.00000 1.00000
vt 0.00000 1.00000
vt 0.00000 1.00000
vt 0.00000 1.00000
vt 0.00000 1.00000
vt 0.00000 1.00000
vt 0.00000 1.00000
vt 0.00000 1.00000
vt 0.00000 1.00000
vt 0.00000 1.00000
vt 0.00000 1.00000
vt 0.00000 1.00000
vt 0.00000 1.00000
vt 0.00000 1.00000
vt 0.00000 1.00000
vt 0.00000 1.00000
vt 0.00000 1.00000
vt 0.00000 1.00000
vt 0.00000 1.00000
vt 0.00000 1.00000
vt 0.00000 1.00000
vt 0.00000 1.00000
vt 0.00000 1.00000
vt 0.00000 1.00000
vt 0.00000 1.00000
vt 0.00000 1.00000
vt 0.00000 1.00000
vt 0.00000 1.00000
vt 0.00000 1.00000
vt 0.00000 1.00000
vt 0.00000 1.00000
vt 0.00000 1.00000
vt 0.00000 1.00000
vt 0.00000 1.00000
vt 0.00000 1.00000
vt 0.00000 1.00000
vt 0.00000 1.00000
vt 0.00000 1.00000
vt 0.00000 1.00000
vt 0.00000 1.00000
vt 0.00000 1.00000
vt 0.00000 1.00000
vt 0.00000 1.00000
vt 0.00000 1.00000
vt 0.00000 1.00000
vt 0.00000 1.00000
vt 0.00000 1.00000
vt 0.00000 1.00000
vt 0.00000 1.00000
vt 0.00000 1.00000
vt 0.00000 1.00000
vt 0.00000 1.00000
vt 0.00000 1.00000
vt 0.00000 1.00000
vt 0.00000 1.00000
vt 0.00000 1.00000
vt 0.00000 1.00000
vt 0.00000 1.00000
vt 0.00000 1.00000
vt 0.00000 1.00000
vt 0.00000 1.00000
vt 0.00000 1.00000
vt 0.00000 1.00000
vt 0.00000 1.00000
vt 0.00000 1.00000
vt 0.00000 1.00000
vt 0.00000 1.00000
vt 0.00000 1.00000
vt 0.00000 1.00000
vt 0.00000 1.00000
vt 0.00000 1.00000
vt 0.00000 1.00000
vt 0.00000 1.00000
vt 0.00000 1.00000
vt 0.00000 1.00000
vt 0.00000 1.00000
vt 0.00000 1.00000
vt 0.00000 1.00000
vt 0.00000 1.00000
vt 0.00000 1.00000
vt 0.00000 1.00000
vt 0.00000 1.00000
vt 0.00000 1.00000
vt 0.00000 1.00000
vt 0.00000 1.00000
vt 0.00000 1.00000
vt 0.00000 1.00000
vt 0.00000 1.00000
vt 0.00000 1.00000
vt 0.00000 1.00000
vt 0.00000 1.00000
vt 0.00000 1.00000
vt 0.00000 1.00000
vt 0.00000 1.00000
vt 0.00000 1.00000
vt 0.00000 1.00000
vt 0.00000 1.00000
vt 0.00000 1.00000
vt 0.00000 1.00000
vt 0.00000 1.00000
vt 0.00000 1.00000
vt 0.00000 1.00000
vt 0.00000 1.00000
vt 0.00000 1.00000
vt 0.00000 1.00000
vt 0.00000 1.00000
vt 0.00000 1.00000
vt 0.00000 1.00000
vt 0.00000 1.00000
vt 0.00000 1.00000
vt 0.00000 1.00000
vt 0.00000 1.00000
vt 0.00000 1.00000
vt 0.00000 1.00000
vt 0.00000 1.00000
vt 0.00000 1.00000
vt 0.00000 1.00000
vt 0.00000 1.00000
vt 0.00000 1.00000
vt 0.00000 1.00000
vt 0.00000 1.00000
vt 0.00000 1.00000
vt 0.00000 1.00000
vt 0.00000 1.00000
vt 0.00000 1.00000
vt 0.00000 1.00000
vt 0.00000 1.00000
vt 0.00000 1.00000
vt 0.00000 1.00000
vt 0.00000 1.00000
vt 0.00000 1.00000
vt 0.00000 1.00000
vt 0.00000 1.00000
vt 0.00000 1.00000
vt 0.00000 1.00000
vt 0.00000 1.00000
vt 0.00000 1.00000
vt 0.00000 1.00000
vt 0.00000 1.00000
vt 0.00000 1.00000
vt 0.00000 1.00000
vt 0.00000 1.00000
vt 0.00000 1.00000
vt 0.00000 1.00000
vt 0.00000 1.00000
vt 0.00000 1.00000
vt 0.00000 1.00000
vt 0.00000 1.00000
vt 0.00000 1.00000
vt 0.00000 1.00000
vt 0.00000 1.00000
vt 0.00000 1.00000
vt 0.00000 1.00000
vt 0.00000 1.00000
vt 0.00000 1.00000
vt 0.00000 1.00000
vt 0.00000 1.00000
vt 0.00000 1.00000
vt 0.00000 1.00000
vt 0.00000 1.00000
vt 0.00000 1.00000
vt 0.00000 1.00000
vt 0.00000 1.00000
vt 0.00000 1.00000
vt 0.00000 1.00000
vt 0.00000 1.00000
vt 0.00000 1.00000
vt 0.00000 1.00000
vt 0.00000 1.00000
vt 0.00000 1.00000
vt 0.00000 1.00000
vt 0.00000 1.00000
vt 0.00000 1.00000
vt 0.00000 1.00000
vt 0.00000 1.00000
vt 0.00000 1.00000
vt 0.00000 1.00000
vt 0.00000 1.00000
vt 0.00000 1.00000
vt 0.00000 1.00000
vt 0.00000 1.00000
vt 0.00000 1.00000
vt 0.00000 1.00000
vt 0.00000 1.00000
vt 0.00000 1.00000
vt 0.00000 1.00000
vt 0.00000 1.00000
vt 0.00000 1.00000
vt 0.00000 1.00000
vt 0.00000 1.00000
vt 0.00000 1.00000
vt 0.00000 1.00000
vt 0.00000 1.00000
vt 0.00000 1.00000
vt 0.00000 1.00000
vt 0.00000 1.00000
vt 0.00000 1.00000
vt 0.00000 1.00000
vt 0.00000 1.00000
vt 0.00000 1.00000
vt 0.00000 1.00000
vt 0.00000 1.00000
vt 0.00000 1.00000
vt 0.00000 1.00000
vt 0.00000 1.00000
vt 0.00000 1.00000
vt 0.00000 1.00000
vt 0.00000 1.00000
vt 0.00000 1.00000
vt 0.00000 1.00000
vt 0.00000 1.00000
vt 0.00000 1.00000
vt 0.00000 1.00000
vt 0.00000 1.00000
vt 0.00000 1.00000
vt 0.00000 1.00000
vt 0.00000 1.00000
vt 0.00000 1.00000
vt 0.00000 1.00000
vt 0.00000 1.00000
vt 0.00000 1.00000
vt 0.00000 1.00000
vt 0.00000 1.00000
vt 0.00000 1.00000
vt 0.00000 1.00000
vt 0.00000 1.00000
vt 0.00000 1.00000
vt 0.00000 1.00000
vt 0.00000 1.00000
vt 0.00000 1.00000
vt 0.00000 1.00000
vt 0.00000 1.00000
vt 0.00000 1.00000
vt 0.00000 1.00000
vt 0.00000 1.00000
vt 0.00000 1.00000
vt 0.00000 1.00000
vt 0.00000 1.00000
vt 0.00000 1.00000
vt 0.00000 1.00000
vt 0.00000 1.00000
vt 0.00000 1.00000
vt 0.00000 1.00000
vt 0.00000 1.00000
vt 0.00000 1.00000
vt 0.00000 1.00000
vt 0.00000 1.00000
vt 0.00000 1.00000
vt 0.00000 1.00000
vt 0.00000 1.00000
vt 0.00000 1.00000
vt 0.00000 1.00000
vt 0.00000 1.00000
vt 0.00000 1.00000
vt 0.00000 1.00000
vt 0.00000 1.00000
vt 0.00000 1.00000
vt 0.00000 1.00000
vt 0.00000 1.00000
vt 0.00000 1.00000
vt 0.00000 1.00000
vt 0.00000 1.00000
vt 0.00000 1.00000
vt 0.00000 1.00000
vt 0.00000 1.00000
vt 0.00000 1.00000
vt 0.00000 1.00000
vt 0.00000 1.00000
vt 0.00000 1.00000
vt 0.00000 1.00000
vt 0.00000 1.00000
vt 0.00000 1.00000
vt 0.00000 1.00000
vt 0.00000 1.00000
vt 0.00000 1.00000
vt 0.00000 1.00000
vt 0.00000 1.00000
vt 0.00000 1.00000
vt 0.00000 1.00000
vt 0.00000 1.00000
vt 0.00000 1.00000
vt 0.00000 1.00000
vt 0.00000 1.00000
vt 0.00000 1.00000
vt 0.00000 1.00000
vt 0.00000 1.00000
vt 0.00000 1.00000
vt 0.00000 1.00000
vt 0.00000 1.00000
vt 0.00000 1.00000
vt 0.00000 1.00000
vt 0.00000 1.00000
vt 0.00000 1.00000
vt 0.00000 1.00000
vt 0.00000 1.00000
vt 0.00000 1.00000
vt 0.00000 1.00000
vt 0.00000 1.00000
vt 0.00000 1.00000
vt 0.00000 1.00000
vt 0.00000 1.00000
vt 0.00000 1.00000
vt 0.00000 1.00000
vt 0.00000 1.00000
vt 0.00000 1.00000
vt 0.00000 1.00000
vt 0.00000 1.00000
vt 0.00000 1.00000
vt 0.00000 1.00000
vt 0.00000 1.00000
vt 0.00000 1.00000
vt 0.00000 1.00000
vt 0.00000 1.00000
vt 0.00000 1.00000
vt 0.00000 1.00000
vt 0.00000 1.00000
vt 0.00000 1.00000
vt 0.00000 1.00000
vt 0.00000 1.00000
vt 0.00000 1.00000
vt 0.00000 1.00000
vt 0.00000 1.00000
vt 0.00000 1.00000
vt 0.00000 1.00000
vt 0.00000 1.00000
vt 0.00000 1.00000
vt 0.00000 1.00000
vt 0.00000 1.00000
vt 0.00000 1.00000
vt 0.00000 1.00000
vt 0.00000 1.00000
vt 0.00000 1.00000
vt 0.00000 1.00000
vt 0.00000 1.00000
vt 0.00000 1.00000
vt 0.00000 1.00000
vt 0.00000 1.00000
vt 0.00000 1.00000
vt 0.00000 1.00000
vt 0.00000 1.00000
vt 0.00000 1.00000
vt 0.00000 1.00000
vt 0.00000 1.00000
vt 0.00000 1.00000
vt 0.00000 1.00000
vt 0.00000 1.00000
vt 0.00000 1.00000
vt 0.00000 1.00000
vt 0.00000 1.00000
vt 0.00000 1.00000
vt 0.00000 1.00000
vt 0.00000 1.00000
vt 0.00000 1.00000
vt 0.00000 1.00000
vt 0.00000 1.00000
vt 0.00000 1.00000
vt 0.00000 1.00000
vt 0.00000 1.00000
vt 0.00000 1.00000
vt 0.00000 1.00000
vt 0.00000 1.00000
vt 0.00000 1.00000
vt 0.00000 1.00000
vt 0.00000 1.00000
vt 0.00000 1.00000
vt 0.00000 1.00000
vt 0.00000 1.00000
vt 0.00000 1.00000
vt 0.00000 1.00000
vt 0.00000 1.00000
vt 0.00000 1.00000
vt 0.00000 1.00000
vt 0.00000 1.00000
vt 0.00000 1.00000
vt 0.00000 1.00000
vt 0.00000 1.00000
vt 0.00000 1.00000
vt 0.00000 1.00000
vt 0.00000 1.00000
vt 0.00000 1.00000
vt 0.00000 1.00000
vt 0.00000 1.00000
vt 0.00000 1.00000
vt 0.00000 1.00000
vt 0.00000 1.00000
vt 0.00000 1.00000
vt 0.00000 1.00000
vt 0.00000 1.00000
vt 0.00000 1.00000
vt 0.00000 1.00000
vt 0.00000 1.00000
vt 0.00000 1.00000
vt 0.00000 1.00000
vt 0.00000 1.00000
vt 0.00000 1.00000
vt 0.00000 1.00000
vt 0.00000 1.00000
vt 0.00000 1.00000
vt 0.00000 1.00000
vt 0.00000 1.00000
vt 0.00000 1.00000
vt 0.00000 1.00000
vt 0.00000 1.00000
vt 0.00000 1.00000
vt 0.00000 1.00000
vt 0.00000 1.00000
vt 0.00000 1.00000
vt 0.00000 1.00000
vt 0.00000 1.00000
vt 0.00000 1.00000
vt 0.00000 1.00000
vt 0.00000 1.00000
vt 0.00000 1.00000
vt 0.00000 1.00000
vt 0.00000 1.00000
vt 0.00000 1.00000
vt 0.00000 1.00000
vt 0.00000 1.00000
vt 0.00000 1.00000
vt 0.00000 1.00000
vt 0.00000 1.00000
vt 0.00000 1.00000
vt 0.00000 1.00000
vt 0.00000 1.00000
vt 0.00000 1.00000
vt 0.00000 1.00000
vt 0.00000 1.00000
vt 0.00000 1.00000
vt 0.00000 1.00000
vt 0.00000 1.00000
vt 0.00000 1.00000
vt 0.00000 1.00000
vt 0.00000 1.00000
vt 0.00000 1.00000
vt 0.00000 1.00000
vt 0.00000 1.00000
vt 0.00000 1.00000
vt 0.00000 1.00000
vt 0.00000 1.00000
vt 0.00000 1.00000
vt 0.00000 1.00000
vt 0.00000 1.00000
vt 0.00000 1.00000
vt 0.00000 1.00000
vt 0.00000 1.00000
vt 0.00000 1.00000
vt 0.00000 1.00000
vt 0.00000 1.00000
vt 0.00000 1.00000
vt 0.00000 1.00000
vt 0.00000 1.00000
vt 0.00000 1.00000
vt 0.00000 1.00000
vt 0.00000 1.00000
vt 0.00000 1.00000
vt 0.00000 1.00000
vt 0.00000 1.00000
vt 0.00000 1.00000
vt 0.00000 1.00000
vt 0.00000 1.00000
vt 0.00000 1.00000
vt 0.00000 1.00000
vt 0.00000 1.00000
vt 0.00000 1.00000
vt 0.00000 1.00000
vt 0.00000 1.00000
vt 0.00000 1.00000
vt 0.00000 1.00000
vt 0.00000 1.00000
vt 0.00000 1.00000
vt 0.00000 1.00000
vt 0.00000 1.00000
vt 0.00000 1.00000
vt 0.00000 1.00000
vt 0.00000 1.00000
vt 0.00000 1.00000
vt 0.00000 1.00000
vt 0.00000 1.00000
vt 0.00000 1.00000
vt 0.00000 1.00000
vt 0.00000 1.00000
vt 0.00000 1.00000
vt 0.00000 1.00000
vt 0.00000 1.00000
vt 0.00000 1.00000
vt 0.00000 1.00000
vt 0.00000 1.00000
vt 0.00000 1.00000
vt 0.00000 1.00000
vt 0.00000 1.00000
vt 0.00000 1.00000
vt 0.00000 1.00000
vt 0.00000 1.00000
vt 0.00000 1.00000
vt 0.00000 1.00000
vt 0.00000 1.00000
vt 0.00000 1.00000
vt 0.00000 1.00000
vt 0.00000 1.00000
vt 0.00000 1.00000
vt 0.00000 1.00000
vt 0.00000 1.00000
vt 0.00000 1.00000
vt 0.00000 1.00000
vt 0.00000 1.00000
vt 0.00000 1.00000
vt 0.00000 1.00000
vt 0.00000 1.00000
vt 0.00000 1.00000
vt 0.00000 1.00000
vt 0.00000 1.00000
vt 0.00000 1.00000
vt 0.00000 1.00000
vt 0.00000 1.00000
vt 0.00000 1.00000
vt 0.00000 1.00000
vt 0.00000 1.00000
vt 0.00000 1.00000
vt 0.00000 1.00000
vt 0.00000 1.00000
vt 0.00000 1.00000
vt 0.00000 1.00000
vt 0.00000 1.00000
vt 0.00000 1.00000
vt 0.00000 1.00000
vt 0.00000 1.00000
vt 0.00000 1.00000
vt 0.00000 1.00000
vt 0.00000 1.00000
vt 0.00000 1.00000
vt 0.00000 1.00000
vt 0.00000 1.00000
vt 0.00000 1.00000
vt 0.00000 1.00000
vt 0.00000 1.00000
vt 0.00000 1.00000
vt 0.00000 1.00000
vt 0.00000 1.00000
vt 0.00000 1.00000
vt 0.00000 1.00000
vt 0.00000 1.00000
vt 0.00000 1.00000
vt 0.00000 1.00000
vt 0.00000 1.00000
vt 0.00000 1.00000
vt 0.00000 1.00000
vt 0.00000 1.00000
vt 0.00000 1.00000
vt 0.00000 1.00000
vt 0.00000 1.00000
vt 0.00000 1.00000
vt 0.00000 1.00000
vt 0.00000 1.00000
vt 0.00000 1.00000
vt 0.00000 1.00000
vt 0.00000 1.00000
vt 0.00000 1.00000
vt 0.00000 1.00000
vt 0.00000 1.00000
vt 0.00000 1.00000
vt 0.00000 1.00000
vt 0.00000 1.00000
vt 0.00000 1.00000
vt 0.00000 1.00000
vt 0.00000 1.00000
vt 0.00000 1.00000
vt 0.00000 1.00000
vt 0.00000 1.00000
vt 0.00000 1.00000
vt 0.00000 1.00000
vt 0.00000 1.00000
vt 0.00000 1.00000
vt 0.00000 1.00000
vt 0.00000 1.00000
vt 0.00000 1.00000
vt 0.00000 1.00000
vt 0.00000 1.00000
vt 0.00000 1.00000
vt 0.00000 1.00000
vt 0.00000 1.00000
vt 0.00000 1.00000
vt 0.00000 1.00000
vt 0.00000 1.00000
vt 0.00000 1.00000
vt 0.00000 1.00000
vt 0.00000 1.00000
vt 0.00000 1.00000
vt 0.00000 1.00000
vt 0.00000 1.00000
vt 0.00000 1.00000
vt 0.00000 1.00000
vt 0.00000 1.00000
vt 0.00000 1.00000
vt 0.00000 1.00000
vt 0.00000 1.00000
vt 0.00000 1.00000
vt 0.00000 1.00000
vt 0.00000 1.00000
vt 0.00000 1.00000
vt 0.00000 1.00000
vt 0.00000 1.00000
vt 0.00000 1.00000
vt 0.00000 1.00000
vt 0.00000 1.00000
vt 0.00000 1.00000
vt 0.00000 1.00000
vt 0.00000 1.00000
vt 0.00000 1.00000
vt 0.00000 1.00000
vt 0.00000 1.00000
vt 0.00000 1.00000
vt 0.00000 1.00000
vt 0.00000 1.00000
vt 0.00000 1.00000
vt 0.00000 1.00000
vt 0.00000 1.00000
vt 0.00000 1.00000
vt 0.00000 1.00000
vt 0.00000 1.00000
vt 0.00000 1.00000
vt 0.00000 1.00000
vt 0.00000 1.00000
vt 0.00000 1.00000
vt 0.00000 1.00000
vt 0.00000 1.00000
vt 0.00000 1.00000
vt 0.00000 1.00000
vt 0.00000 1.00000
vt 0.00000 1.00000
vt 0.00000 1.00000
vt 0.00000 1.00000
vt 0.00000 1.00000
vt 0.00000 1.00000
vt 0.00000 1.00000
vt 0.00000 1.00000
vt 0.00000 1.00000
vt 0.00000 1.00000
vt 0.00000 1.00000
vt 0.00000 1.00000
vt 0.00000 1.00000
vt 0.00000 1.00000
vt 0.00000 1.00000
vt 0.00000 1.00000
vt 0.00000 1.00000
vt 0.00000 1.00000
vt 0.00000 1.00000
vt 0.00000 1.00000
vt 0.00000 1.00000
vt 0.00000 1.00000
vt 0.00000 1.00000
vt 0.00000 1.00000
vt 0.00000 1.00000
vt 0.00000 1.00000
vt 0.00000 1.00000
vt 0.00000 1.00000
vt 0.00000 1.00000
vt 0.00000 1.00000
vt 0.00000 1.00000
vt 0.00000 1.00000
vt 0.00000 1.00000
vt 0.00000 1.00000
vt 0.00000 1.00000
vt 0.00000 1.00000
vt 0.00000 1.00000
vt 0.00000 1.00000
vt 0.00000 1.00000
vt 0.00000 1.00000
vt 0.00000 1.00000
vt 0.00000 1.00000
vt 0.00000 1.00000
vt 0.00000 1.00000
vt 0.00000 1.00000
vt 0.00000 1.00000
vt 0.00000 1.00000
vt 0.00000 1.00000
vt 0.00000 1.00000
vt 0.00000 1.00000
vt 0.00000 1.00000
vt 0.00000 1.00000
vt 0.00000 1.00000
vt 0.00000 1.00000
vt 0.00000 1.00000
vt 0.00000 1.00000
vt 0.00000 1.00000
vt 0.00000 1.00000
vt 0.00000 1.00000
vt 0.00000 1.00000
vt 0.00000 1.00000
vt 0.00000 1.00000
vt 0.00000 1.00000
vt 0.00000 1.00000
vt 0.00000 1.00000
vt 0.00000 1.00000
vt 0.00000 1.00000
vt 0.00000 1.00000
vt 0.00000 1.00000
vt 0.00000 1.00000
vt 0.00000 1.00000
vt 0.00000 1.00000
vt 0.00000 1.00000
vt 0.00000 1.00000
vt 0.00000 1.00000
vt 0.00000 1.00000
vt 0.00000 1.00000
vt 0.00000 1.00000
vt 0.00000 1.00000
vt 0.00000 1.00000
vt 0.00000 1.00000
vt 0.00000 1.00000
vt 0.00000 1.00000
vt 0.00000 1.00000
vt 0.00000 1.00000
vt 0.00000 1.00000
vt 0.00000 1.00000
vt 0.00000 1.00000
vt 0.00000 1.00000
vt 0.00000 1.00000
vt 0.00000 1.00000
vt 0.00000 1.00000
vt 0.00000 1.00000
vt 0.00000 1.00000
vt 0.00000 1.00000
vt 0.00000 1.00000
vt 0.00000 1.00000
vt 0.00000 1.00000
vt 0.00000 1.00000
vt 0.00000 1.00000
vt 0.00000 1.00000
vt 0.00000 1.00000
vt 0.00000 1.00000
vt 0.00000 1.00000
vt 0.00000 1.00000
vt 0.00000 1.00000
vt 0.00000 1.00000
vt 0.00000 1.00000
vt 0.00000 1.00000
vt 0.00000 1.00000
vt 0.00000 1.00000
vt 0.00000 1.00000
vt 0.00000 1.00000
vt 0.00000 1.00000
vt 0.00000 1.00000
vt 0.00000 1.00000
vt 0.00000 1.00000
vt 0.00000 1.00000
vt 0.00000 1.00000
vt 0.00000 1.00000
vt 0.00000 1.00000
vt 0.00000 1.00000
vt 0.00000 1.00000
vt 0.00000 1.00000
vt 0.00000 1.00000
vt 0.00000 1.00000
vt 0.00000 1.00000
vt 0.00000 1.00000
vt 0.00000 1.00000
vt 0.00000 1.00000
vt 0.00000 1.00000
vt 0.00000 1.00000
vt 0.00000 1.00000
vt 0.00000 1.00000
vt 0.00000 1.00000
vt 0.00000 1.00000
vt 0.00000 1.00000
vt 0.00000 1.00000
vt 0.00000 1.00000
vt 0.00000 1.00000
vt 0.00000 1.00000
vt 0.00000 1.00000
vt 0.00000 1.00000
vt 0.00000 1.00000
vt 0.00000 1.00000
vt 0.00000 1.00000
vt 0.00000 1.00000
vt 0.00000 1.00000
vt 0.00000 1.00000
vt 0.00000 1.00000
vt 0.00000 1.00000
vt 0.00000 1.00000
vt 0.00000 1.00000
vt 0.00000 1.00000
vt 0.00000 1.00000
vt 0.00000 1.00000
vt 0.00000 1.00000
vt 0.00000 1.00000
vt 0.00000 1.00000
vt 0.00000 1.00000
vt 0.00000 1.00000
vt 0.00000 1.00000
vt 0.00000 1.00000
vt 0.00000 1.00000
vt 0.00000 1.00000
vt 0.00000 1.00000
vt 0.00000 1.00000
vt 0.00000 1.00000
vt 0.00000 1.00000
vt 0.00000 1.00000
vt 0.00000 1.00000
vt 0.00000 1.00000
vt 0.00000 1.00000
vt 0.00000 1.00000
vt 0.00000 1.00000
vt 0.00000 1.00000
vt 0.00000 1.00000
vt 0.00000 1.00000
vt 0.00000 1.00000
vt 0.00000 1.00000
vt 0.00000 1.00000
vt 0.00000 1.00000
vt 0.00000 1.00000
vt 0.00000 1.00000
vt 0.00000 1.00000
vt 0.00000 1.00000
vt 0.00000 1.00000
vt 0.00000 1.00000
vt 0.00000 1.00000
vt 0.00000 1.00000
vt 0.00000 1.00000
vt 0.00000 1.00000
vt 0.00000 1.00000
vt 0.00000 1.00000
vt 0.00000 1.00000
vt 0.00000 1.00000
vt 0.00000 1.00000
vt 0.00000 1.00000
vt 0.00000 1.00000
vt 0.00000 1.00000
vt 0.00000 1.00000
vt 0.00000 1.00000
vt 0.00000 1.00000
vt 0.00000 1.00000
vt 0.00000 1.00000
vt 0.00000 1.00000
vt 0.00000 1.00000
vt 0.00000 1.00000
vt 0.00000 1.00000
vt 0.00000 1.00000
vt 0.00000 1.00000
vt 0.00000 1.00000
vt 0.00000 1.00000
vt 0.00000 1.00000
vt 0.00000 1.00000
vt 0.00000 1.00000
vt 0.00000 1.00000
vt 0.00000 1.00000
vt 0.00000 1.00000
vt 0.00000 1.00000
vt 0.00000 1.00000
vt 0.00000 1.00000
vt 0.00000 1.00000
vt 0.00000 1.00000
vt 0.00000 1.00000
vt 0.00000 1.00000
vt 0.00000 1.00000
vt 0.00000 1.00000
vt 0.00000 1.00000
vt 0.00000 1.00000
vt 0.00000 1.00000
vt 0.00000 1.00000
vt 0.00000 1.00000
vt 0.00000 1.00000
vt 0.00000 1.00000
vt 0.00000 1.00000
vt 0.00000 1.00000
vt 0.00000 1.00000
vt 0.00000 1.00000
vt 0.00000 1.00000
vt 0.00000 1.00000
vt 0.00000 1.00000
vt 0.00000 1.00000
vt 0.00000 1.00000
vt 0.00000 1.00000
vt 0.00000 1.00000
vt 0.00000 1.00000
vt 0.00000 1.00000
vt 0.00000 1.00000
vt 0.00000 1.00000
vt 0.00000 1.00000
vt 0.00000 1.00000
vt 0.00000 1.00000
vt 0.00000 1.00000
vt 0.00000 1.00000
vt 0.00000 1.00000
vt 0.00000 1.00000
vt 0.00000 1.00000
vt 0.00000 1.00000
vt 0.00000 1.00000
vt 0.00000 1.00000
vt 0.00000 1.00000
vt 0.00000 1.00000
vt 0.00000 1.00000
vt 0.00000 1.00000
vt 0.00000 1.00000
vt 0.00000 1.00000
vt 0.00000 1.00000
vt 0.00000 1.00000
vt 0.00000 1.00000
vt 0.00000 1.00000
vt 0.00000 1.00000
vt 0.00000 1.00000
vt 0.00000 1.00000
vt 0.00000 1.00000
vt 0.00000 1.00000
vt 0.00000 1.00000
vt 0.00000 1.00000
vt 0.00000 1.00000
vt 0.00000 1.00000
vt 0.00000 1.00000
vt 0.00000 1.00000
vt 0.00000 1.00000
vt 0.00000 1.00000
vt 0.00000 1.00000
vt 0.00000 1.00000
vt 0.00000 1.00000
vt 0.00000 1.00000
vt 0.00000 1.00000
vt 0.00000 1.00000
vt 0.00000 1.00000
vt 0.00000 1.00000
vt 0.00000 1.00000
vt 0.00000 1.00000
vt 0.00000 1.00000
vt 0.00000 1.00000
vt 0.00000 1.00000
vt 0.00000 1.00000
vt 0.00000 1.00000
vt 0.00000 1.00000
vt 0.00000 1.00000
vt 0.00000 1.00000
vt 0.00000 1.00000
vt 0.00000 1.00000
vt 0.00000 1.00000
vt 0.00000 1.00000
vt 0.00000 1.00000
vt 0.00000 1.00000
vt 0.00000 1.00000
vt 0.00000 1.00000
vt 0.00000 1.00000
vt 0.00000 1.00000
vt 0.00000 1.00000
vt 0.00000 1.00000
vt 0.00000 1.00000
vt 0.00000 1.00000
vt 0.00000 1.00000
vt 0.00000 1.00000
vt 0.00000 1.00000
vt 0.00000 1.00000
vt 0.00000 1.00000
vt 0.00000 1.00000
vt 0.00000 1.00000
vt 0.00000 1.00000
vt 0.00000 1.00000
vt 0.00000 1.00000
vt 0.00000 1.00000
vt 0.00000 1.00000
vt 0.00000 1.00000
vt 0.00000 1.00000
usemtl needles
f 277/277 278/278 279/279
f 280/280 281/281 282/282
f 283/283 284/284 285/285
f 286/286 287/287 288/288
f 289/289 290/290 291/291
f 292/292 293/293 294/294
f 295/295 296/296 297/297
f 298/298 299/299 300/300
f 301/301 302/302 303/303
f 304/304 305/305 306/306
f 307/307 308/308 309/309
f 310/310 311/311 312/312
f 313/313 314/314 315/315
f 316/316 317/317 318/318
f 319/319 320/320 321/321
f 322/322 323/323 324/324
f 325/325 326/326 327/327
f 328/328 329/329 330/330
f 331/331 332/332 333/333
f 334/334 335/335 336/336
f 337/337 338/338 339/339
f 340/340 341/341 342/342
f 343/343 344/344 345/345
f 346/346 347/347 348/348
f 349/349 350/350 351/351
f 352/352 353/353 354/354
f 355/355 356/356 357/357
f 358/358 359/359 360/360
f 361/361 362/362 363/363
f 364/364 365/365 366/366
f 367/367 368/368 369/369
f 370/370 371/371 372/372
f 373/373 374/374 375/375
f 376/376 377/377 378/378
f 379/379 380/380 381/381
f 382/382 383/383 384/384
f 385/385 386/386 387/387
f 388/388 389/389 390/390
f 391/391 392/392 393/393
f 394/394 395/395 396/396
f 397/397 398/398 399/399
f 400/400 401/401 402/402
f 403/403 404/404 405/405
f 406/406 407/407 408/408
f 409/409 410/410 411/411
f 412/412 413/413 414/414
f 415/415 416/416 417/417
f 418/418 419/419 420/420
f 421/421 422/422 423/423
f 424/424 425/425 426/426
f 427/427 428/428 429/429
f 430/430 431/431 432/432
f 433/433 434/434 435/435
f 436/436 437/437 438/438
f 439/439 440/440 441/441
f 442/442 443/443 444/444
f 445/445 446/446 447/447
f 448/448 449/449 450/450
f 451/451 452/452 453/453
f 454/454 455/455 456/456
f 457/457 458/458 459/459
f 460/460 461/461 462/462
f 463/463 464/464 465/465
f 466/466 467/467 468/468
f 469/469 470/470 471/471
f 472/472 473/473 474/474
f 475/475 476/476 477/477
f 478/478 479/479 480/480
f 481/481 482/482 483/483
f 484/484 485/485 486/486
f 487/487 488/488 489/489
f 490/490 491/491 492/492
f 493/493 494/494 495/495
f 496/496 497/497 498/498
f 499/499 500/500 501/501
f 502/502 503/503 504/504
f 505/505 506/506 507/507
f 508/508 509/509 510/510
f 511/511 512/512 513/513
f 514/514 515/515 516/516
f 517/517 518/518 519/519
f 520/520 521/521 522/522
f 523/523 524/524 525/525
f 526/526 527/527 528/528
f 529/529 530/530 531/531
f 532/532 533/533 534/534
f 535/535 536/536 537/537
f 538/538 539/539 540/540
f 541/541 542/542 543/543
f 544/544 545/545 546/546
f 547/547 548/548 549/549
f 550/550 551/551 552/552
f 553/553 554/554 555/555
f 556/556 557/557 558/558
f 559/559 560/560 561/561
f 562/562 563/563 564/564
f 565/565 566/566 567/567
f 568/568 569/569 570/570
f 571/571 572/572 573/573
f 574/574 575/575 576/576
f 577/577 578/578 579/579
f 580/580 581/581 582/582
f 583/583 584/584 585/585
f 586/586 587/587 588/588
f 589/589 590/590 591/591
f 592/592 593/593 594/594
f 595/595 596/596 597/597
f 598/598 599/599 600/600
f 601/601 602/602 603/603
f 604/604 605/605 606/606
f 607/607 608/608 609/609
f 610/610 611/611 612/612
f 613/613 614/614 615/615
f 616/616 617/617 618/618
f 619/619 620/620 621/621
f 622/622 623/623 624/624
f 625/625 626/626 627/627
f 628/628 629/629 630/630
f 631/631 632/632 633/633
f 634/634 635/635 636/636
f 637/637 638/638 639/639
f 640/640 641/641 642/642
f 643/643 644/644 645/645
f 646/646 647/647 648/648
f 649/649 650/650 651/651
f 652/652 653/653 654/654
f 655/655 656/656 657/657
f 658/658 659/659 660/660
f 661/661 662/662 663/663
f 664/664 665/665 666/666
f 667/667 668/668 669/669
f 670/670 671/671 672/672
f 673/673 674/674 675/675
f 676/676 677/677 678/678
f 679/679 680/680 681/681
f 682/682 683/683 684/684
f 685/685 686/686 687/687
f 688/688 689/689 690/690
f 691/691 692/692 693/693
f 694/694 695/695 696/696
f 697/697 698/698 699/699
f 700/700 701/701 702/702
f 703/703 704/704 705/705
f 706/706 707/707 708/708
f 709/709 710/710 711/711
f 712/712 713/713 714/714
f 715/715 716/716 717/717
f 718/718 719/719 720/720
f 721/721 722/722 723/723
f 724/724 725/725 726/726
f 727/727 728/728 729/729
f 730/730 731/731 732/732
f 733/733 734/734 735/735
f 736/736 737/737 738/738
f 739/739 740/740 741/741
f 742/742 743/743 744/744
f 745/745 746/746 747/747
f 748/748 749/749 750/750
f 751/751 752/752 753/753
f 754/754 755/755 756/756
f 757/757 758/758 759/759
f 760/760 761/761 762/762
f 763/763 764/764 765/765
f 766/766 767/767 768/768
f 769/769 770/770 771/771
f 772/772 773/773 774/774
f 775/775 776/776 777/777
f 778/778 779/779 780/780
f 781/781 782/782 783/783
f 784/784 785/785 786/786
f 787/787 788/788 789/789
f 790/790 791/791 792/792
f 793/793 794/794 795/795
f 796/796 797/797 798/798
f 799/799 800/800 801/801
f 802/802 803/803 804/804
f 805/805 806/806 807/807
f 808/808 809/809 810/810
f 811/811 812/812 813/813
f 814/814 815/815 816/816
f 817/817 818/818 819/819
f 820/820 821/821 822/822
f 823/823 824/824 825/825
f 826/826 827/827 828/828
f 829/829 830/830 831/831
f 832/832 833/833 834/834
f 835/835 836/836 837/837
f 838/838 839/839 840/840
f 841/841 842/842 843/843
f 844/844 845/845 846/846
f 847/847 848/848 849/849
f 850/850 851/851 852/852
f 853/853 854/854 855/855
f 856/856 857/857 858/858
f 859/859 860/860 861/861
f 862/862 863/863 864/864
f 865/865 866/866 867/867
f 868/868 869/869 870/870
f 871/871 872/872 873/873
f 874/874 875/875 876/876
f 877/877 878/878 879/879
f 880/880 881/881 882/882
f 883/883 884/884 885/885
f 886/886 887/887 888/888
f 889/889 890/890 891/891
f 892/892 893/893 894/894
f 895/895 896/896 897/897
f 898/898 899/899 900/900
f 901/901 902/902 903/903
f 904/904 905/905 906/906
f 907/907 908/908 909/909
f 910/910 911/911 912/912
f 913/913 914/914 915/915
f 916/916 917/917 918/918
f 919/919 920/920 921/921
f 922/922 923/923 924/924
f 925/925 926/926 927/927
f 928/928 929/929 930/930
f 931/931 932/932 933/933
f 934/934 935/935 936/936
f 937/937 938/938 939/939
f 940/940 941/941 942/942
f 943/943 944/944 945/945
f 946/946 947/947 948/948
f 949/949 950/950 951/951
f 952/952 953/953 954/954
f 955/955 956/956 957/957
f 958/958 959/959 960/960
f 961/961 962/962 963/963
f 964/964 965/965 966/966
f 967/967 968/968 969/969
f 970/970 971/971 972/972
f 973/973 974/974 975/975
f 976/976 977/977 978/978
f 979/979 980/980 981/981
f 982/982 983/983 984/984
f 985/985 986/986 987/987
f 988/988 989/989 990/990
f 991/991 992/992 993/993
f 994/994 995/995 996/996
f 997/997 998/998 999/999
f 1000/1000 1001/1001 1002/1002
f 1003/1003 1004/1004 1005/1005
f 1006/1006 1007/1007 1008/1008
f 1009/1009 1010/1010 1011/1011
f 1012/1012 1013/1013 1014/1014
f 1015/1015 1016/1016 1017/1017
f 1018/1018 1019/1019 1020/1020
f 1021/1021 1022/1022 1023/1023
f 1024/1024 1025/1025 1026/1026
f 1027/1027 1028/1028 1029/1029
f 1030/1030 1031/1031 1032/1032
f 1033/1033 1034/1034 1035/1035
f 1036/1036 1037/1037 1038/1038
f 1039/1039 1040/1040 1041/1041
f 1042/1042 1043/1043 1044/1044
f 1045/1045 1046/1046 1047/1047
f 1048/1048 1049/1049 1050/1050
f 1051/1051 1052/1052 1053/1053
f 1054/1054 1055/1055 1056/1056
f 1057/1057 1058/1058 1059/1059
f 1060/1060 1061/1061 1062/1062
f 1063/1063 1064/1064 1065/1065
f 1066/1066 1067/1067 1068/1068
f 1069/1069 1070/1070 1071/1071
f 1072/1072 1073/1073 1074/1074
f 1075/1075 1076/1076 1077/1077
f 1078/1078 1079/1079 1080/1080
f 1081/1081 1082/1082 1083/1083
f 1084/1084 1085/1085 1086/1086
f 1087/1087 1088/1088 1089/1089
f 1090/1090 1091/1091 1092/1092
f 1093/1093 1094/1094 1095/1095
f 1096/1096 1097/1097 1098/1098
f 1099/1099 1100/1100 1101/1101
f 1102/1102 1103/1103 1104/1104
f 1105/1105 1106/1106 1107/1107
f 1108/1108 1109/1109 1110/1110
f 1111/1111 1112/1112 1113/1113
f 1114/1114 1115/1115 1116/1116
f 1117/1117 1118/1118 1119/1119
f 1120/1120 1121/1121 1122/1122
f 1123/1123 1124/1124 1125/1125
f 1126/1126 1127/1127 1128/1128
f 1129/1129 1130/1130 1131/1131
f 1132/1132 1133/1133 1134/1134
f 1135/1135 1136/1136 1137/1137
f 1138/1138 1139/1139 1140/1140
f 1141/1141 1142/1142 1143/1143
f 1144/1144 1145/1145 1146/1146
f 1147/1147 1148/1148 1149/1149
f 1150/1150 1151/1151 1152/1152
f 1153/1153 1154/1154 1155/1155
f 1156/1156 1157/1157 1158/1158
f 1159/1159 1160/1160 1161/1161
f 1162/1162 1163/1163 1164/1164
f 1165/1165 1166/1166 1167/1167
f 1168/1168 1169/1169 1170/1170
f 1171/1171 1172/1172 1173/1173
f 1174/1174 1175/1175 1176/1176
f 1177/1177 1178/1178 1179/1179
f 1180/1180 1181/1181 1182/1182
f 1183/1183 1184/1184 1185/1185
f 1186/1186 1187/1187 1188/1188
f 1189/1189 1190/1190 1191/1191
f 1192/1192 1193/1193 1194/1194
f 1195/1195 1196/1196 1197/1197
f 1198/1198 1199/1199 1200/1200
f 1201/1201 1202/1202 1203/1203
f 1204/1204 1205/1205 1206/1206
f 1207/1207 1208/1208 1209/1209
f 1210/1210 1211/1211 1212/1212
f 1213/1213 1214/1214 1215/1215
f 1216/1216 1217/1217 1218/1218
f 1219/1219 1220/1220 1221/1221
f 1222/1222 1223/1223 1224/1224
f 1225/1225 1226/1226 1227/1227
f 1228/1228 1229/1229 1230/1230
f 1231/1231 1232/1232 1233/1233
f 1234/1234 1235/1235 1236/1236
f 1237/1237 1238/1238 1239/1239
f 1240/1240 1241/1241 1242/1242
f 1243/1243 1244/1244 1245/1245
f 1246/1246 1247/1247 1248/1248
f 1249/1249 1250/1250 1251/1251
f 1252/1252 1253/1253 1254/1254
f 1255/1255 1256/1256 1257/1257
f 1258/1258 1259/1259 1260/1260
f 1261/1261 1262/1262 1263/1263
f 1264/1264 1265/1265 1266/1266
f 1267/1267 1268/1268 1269/1269
f 1270/1270 1271/1271 1272/1272
f 1273/1273 1274/1274 1275/1275
f 1276/1276 1277/1277 1278/1278
f 1279/1279 1280/1280 1281/1281
f 1282/1282 1283/1283 1284/1284
f 1285/1285 1286/1286 1287/1287
f 1288/1288 1289/1289 1290/1290
f 1291/1291 1292/1292 1293/1293
f 1294/1294 1295/1295 1296/1296
f 1297/1297 1298/1298 1299/1299
f 1300/1300 1301/1301 1302/1302
f 1303/1303 1304/1304 1305/1305
f 1306/1306 1307/1307 1308/1308
f 1309/1309 1310/1310 1311/1311
f 1312/1312 1313/1313 1314/1314
f 1315/1315 1316/1316 1317/1317
f 1318/1318 1319/1319 1320/1320
f 1321/1321 1322/1322 1323/1323
f 1324/1324 1325/1325 1326/1326
f 1327/1327 1328/1328 1329/1329
f 1330/1330 1331/1331 1332/1332
f 1333/1333 1334/1334 1335/1335
f 1336/1336 1337/1337 1338/1338
f 1339/1339 1340/1340 1341/1341
f 1342/1342 1343/1343 1344/1344
f 1345/1345 1346/1346 1347/1347
f 1348/1348 1349/1349 1350/1350
f 1351/1351 1352/1352 1353/1353
f 1354/1354 1355/1355 1356/1356
f 1357/1357 1358/1358 1359/1359
f 1360/1360 1361/1361 1362/1362
f 1363/1363 1364/1364 1365/1365
f 1366/1366 1367/1367 1368/1368
f 1369/1369 1370/1370 1371/1371
f 1372/1372 1373/1373 1374/1374
f 1375/1375 1376/1376 1377/1377
f 1378/1378 1379/1379 1380/1380
f 1381/1381 1382/1382 1383/1383
f 1384/1384 1385/1385 1386/1386
f 1387/1387 1388/1388 1389/1389
f 1390/1390 1391/1391 1392/1392
f 1393/1393 1394/1394 1395/1395
f 1396/1396 1397/1397 1398/1398
f 1399/1399 1400/1400 1401/1401
f 1402/1402 1403/1403 1404/1404
f 1405/1405 1406/1406 1407/1407
f 1408/1408 1409/1409 1410/1410
f 1411/1411 1412/1412 1413/1413
f 1414/1414 1415/1415 1416/1416
f 1417/1417 1418/1418 1419/1419
f 1420/1420 1421/1421 1422/1422
f 1423/1423 1424/1424 1425/1425
f 1426/1426 1427/1427 1428/1428
f 1429/1429 1430/1430 1431/1431
f 1432/1432 1433/1433 1434/1434
f 1435/1435 1436/1436 1437/1437
f 1438/1438 1439/1439 1440/1440
f 1441/1441 1442/1442 1443/1443
f 1444/1444 1445/1445 1446/1446
f 1447/1447 1448/1448 1449/1449
f 1450/1450 1451/1451 1452/1452
f 1453/1453 1454/1454 1455/1455
f 1456/1456 1457/1457 1458/1458
f 1459/1459 1460/1460 1461/1461
f 1462/1462 1463/1463 1464/1464
f 1465/1465 1466/1466 1467/1467
f 1468/1468 1469/1469 1470/1470
f 1471/1471 1472/1472 1473/1473
f 1474/1474 1475/1475 1476/1476
f 1477/1477 1478/1478 1479/1479
f 1480/1480 1481/1481 1482/1482
f 1483/1483 1484/1484 1485/1485
f 1486/1486 1487/1487 1488/1488
f 1489/1489 1490/1490 1491/1491
f 1492/1492 1493/1493 1494/1494
f 1495/1495 1496/1496 1497/1497
f 1498/1498 1499/1499 1500/1500
f 1501/1501 1502/1502 1503/1503
f 1504/1504 1505/1505 1506/1506
f 1507/1507 1508/1508 1509/1509
f 1510/1510 1511/1511 1512/1512
f 1513/1513 1514/1514 1515/1515
f 1516/1516 1517/1517 1518/1518
