# Generated by TyraX. Do not edit - rebaked from the procedural graph of 'pines'.
# 16 instances of res/models/rock.obj
mtllib props.mtl
v 46.8597 31.4761 -69.7042
v 45.6692 32.1898 -69.6928
v 47.9548 32.0700 -70.2423
v 46.8597 31.4761 -69.7042
v 47.9548 32.0700 -70.2423
v 45.6692 32.1898 -69.6928
v -72.6367 35.8882 70.2967
v -72.2468 36.3583 69.3193
v -72.3940 36.4061 71.2675
v -72.6367 35.8882 70.2967
v -72.3940 36.4061 71.2675
v -72.2468 36.3583 69.3193
v 44.5708 34.5279 74.1449
v 45.3581 34.9792 74.2789
v 43.8098 34.9181 74.4148
v 44.5708 34.5279 74.1449
v 43.8098 34.9181 74.4148
v 45.3581 34.9792 74.2789
v -8.1342 32.6201 -38.8601
v -6.9429 33.2993 -38.5435
v -9.3260 33.2814 -38.6717
v -8.1342 32.6201 -38.8601
v -9.3260 33.2814 -38.6717
v -6.9429 33.2993 -38.5435
v 14.5814 34.6448 72.0081
v 15.4628 35.1589 71.4818
v 14.0859 35.1853 72.8581
v 14.5814 34.6448 72.0081
v 14.0859 35.1853 72.8581
v 15.4628 35.1589 71.4818
v 34.9070 32.0601 -46.2264
v 34.0599 32.4189 -46.4184
v 35.6456 32.5752 -46.4077
v 34.9070 32.0601 -46.2264
v 35.6456 32.5752 -46.4077
v 34.0599 32.4189 -46.4184
v -21.3919 32.8527 20.1239
v -21.8804 33.3186 19.3001
v -20.5339 33.3042 20.5038
v -21.3919 32.8527 20.1239
v -20.5339 33.3042 20.5038
v -21.8804 33.3186 19.3001
v -29.4709 32.1848 -72.9465
v -30.4987 32.7693 -72.7997
v -28.6298 32.7021 -73.5644
v -29.4709 32.1848 -72.9465
v -28.6298 32.7021 -73.5644
v -30.4987 32.7693 -72.7997
v -40.4500 32.4754 5.7588
v -39.9092 32.7216 5.9242
v -40.9535 32.7742 5.9028
v -40.4500 32.4754 5.7588
v -40.9535 32.7742 5.9028
v -39.9092 32.7216 5.9242
v 49.8042 34.0331 66.6716
v 49.1073 34.3720 66.8922
v 50.2700 34.4317 66.1770
v 49.8042 34.0331 66.6716
v 50.2700 34.4317 66.1770
v 49.1073 34.3720 66.8922
v 20.3503 31.6994 10.9832
v 20.5459 32.0036 10.3657
v 20.5125 32.0294 11.5785
v 20.3503 31.6994 10.9832
v 20.5125 32.0294 11.5785
v 20.5459 32.0036 10.3657
v 62.9043 32.9238 55.5659
v 63.1201 33.2697 56.2506
v 62.3910 33.2959 55.1132
v 62.9043 32.9238 55.5659
v 62.3910 33.2959 55.1132
v 63.1201 33.2697 56.2506
v 59.3356 30.6971 -26.3962
v 59.0439 31.0651 -25.7739
v 59.3791 31.0820 -27.0524
v 59.3356 30.6971 -26.3962
v 59.3791 31.0820 -27.0524
v 59.0439 31.0651 -25.7739
v -14.4155 32.5374 17.9964
v -13.2463 33.0939 17.7573
v -15.2612 33.1901 18.7147
v -14.4155 32.5374 17.9964
v -15.2612 33.1901 18.7147
v -13.2463 33.0939 17.7573
v -41.1052 35.9881 67.0332
v -41.7897 36.3228 67.3871
v -40.7270 36.4161 66.4430
v -41.1052 35.9881 67.0332
v -40.7270 36.4161 66.4430
v -41.7897 36.3228 67.3871
v 66.8120 30.0333 -16.0675
v 67.0127 30.4565 -15.2804
v 66.2722 30.4530 -16.6457
v 66.8120 30.0333 -16.0675
v 66.2722 30.4530 -16.6457
v 67.0127 30.4565 -15.2804
vt 0.00000 1.00000
vt 0.00000 1.00000
vt 0.00000 1.00000
vt 0.00000 1.00000
vt 0.00000 1.00000
vt 0.00000 1.00000
vt 0.00000 1.00000
vt 0.00000 1.00000
vt 0.00000 1.00000
vt 0.00000 1.00000
vt 0.00000 1.00000
vt 0.00000 1.00000
vt 0.00000 1.00000
vt 0.00000 1.00000
vt 0.00000 1.00000
vt 0.00000 1.00000
vt 0.00000 1.00000
vt 0.00000 1.00000
vt 0.00000 1.00000
vt 0.00000 1.00000
vt 0.00000 1.00000
vt 0.00000 1.00000
vt 0.00000 1.00000
vt 0.00000 1.00000
vt 0.00000 1.00000
vt 0.00000 1.00000
vt 0.00000 1.00000
vt 0.00000 1.00000
vt 0.00000 1.00000
vt 0.00000 1.00000
vt 0.00000 1.00000
vt 0.00000 1.00000
vt 0.00000 1.00000
vt 0.00000 1.00000
vt 0.00000 1.00000
vt 0.00000 1.00000
vt 0.00000 1.00000
vt 0.00000 1.00000
vt 0.00000 1.00000
vt 0.00000 1.00000
vt 0.00000 1.00000
vt 0.00000 1.00000
vt 0.00000 1.00000
vt 0.00000 1.00000
vt 0.00000 1.00000
vt 0.00000 1.00000
vt 0.00000 1.00000
vt 0.00000 1.00000
vt 0.00000 1.00000
vt 0.00000 1.00000
vt 0.00000 1.00000
vt 0.00000 1.00000
vt 0.00000 1.00000
vt 0.00000 1.00000
vt 0.00000 1.00000
vt 0.00000 1.00000
vt 0.00000 1.00000
vt 0.00000 1.00000
vt 0.00000 1.00000
vt 0.00000 1.00000
vt 0.00000 1.00000
vt 0.00000 1.00000
vt 0.00000 1.00000
vt 0.00000 1.00000
vt 0.00000 1.00000
vt 0.00000 1.00000
vt 0.00000 1.00000
vt 0.00000 1.00000
vt 0.00000 1.00000
vt 0.00000 1.00000
vt 0.00000 1.00000
vt 0.00000 1.00000
vt 0.00000 1.00000
vt 0.00000 1.00000
vt 0.00000 1.00000
vt 0.00000 1.00000
vt 0.00000 1.00000
vt 0.00000 1.00000
vt 0.00000 1.00000
vt 0.00000 1.00000
vt 0.00000 1.00000
vt 0.00000 1.00000
vt 0.00000 1.00000
vt 0.00000 1.00000
vt 0.00000 1.00000
vt 0.00000 1.00000
vt 0.00000 1.00000
vt 0.00000 1.00000
vt 0.00000 1.00000
vt 0.00000 1.00000
vt 0.00000 1.00000
vt 0.00000 1.00000
vt 0.00000 1.00000
vt 0.00000 1.00000
vt 0.00000 1.00000
vt 0.00000 1.00000
usemtl stone
f 1/1 2/2 3/3
f 4/4 5/5 6/6
f 7/7 8/8 9/9
f 10/10 11/11 12/12
f 13/13 14/14 15/15
f 16/16 17/17 18/18
f 19/19 20/20 21/21
f 22/22 23/23 24/24
f 25/25 26/26 27/27
f 28/28 29/29 30/30
f 31/31 32/32 33/33
f 34/34 35/35 36/36
f 37/37 38/38 39/39
f 40/40 41/41 42/42
f 43/43 44/44 45/45
f 46/46 47/47 48/48
f 49/49 50/50 51/51
f 52/52 53/53 54/54
f 55/55 56/56 57/57
f 58/58 59/59 60/60
f 61/61 62/62 63/63
f 64/64 65/65 66/66
f 67/67 68/68 69/69
f 70/70 71/71 72/72
f 73/73 74/74 75/75
f 76/76 77/77 78/78
f 79/79 80/80 81/81
f 82/82 83/83 84/84
f 85/85 86/86 87/87
f 88/88 89/89 90/90
f 91/91 92/92 93/93
f 94/94 95/95 96/96
