# Generated by TyraX. Do not edit - rebaked from the procedural graph of 'pines'.
# 6 instances of res/models/rock.obj
mtllib props.mtl
v 67.4995 20.6489 32.2676
v 67.0665 21.0706 31.5430
v 68.1835 21.1030 32.6883
v 67.4995 20.6489 32.2676
v 68.1835 21.1030 32.6883
v 67.0665 21.0706 31.5430
v -71.6772 25.5721 -35.5306
v -72.6693 26.1690 -36.2848
v -70.5370 26.2647 -35.3182
v -71.6772 25.5721 -35.5306
v -70.5370 26.2647 -35.3182
v -72.6693 26.1690 -36.2848
v 22.2648 23.0575 57.5978
v 23.3235 23.7642 56.7267
v 21.7765 23.7668 58.8356
v 22.2648 23.0575 57.5978
v 21.7765 23.7668 58.8356
v 23.3235 23.7642 56.7267
v 24.4256 20.3974 14.9926
v 24.7318 20.8507 15.8478
v 23.8531 20.9153 14.3688
v 24.4256 20.3974 14.9926
v 23.8531 20.9153 14.3688
v 24.7318 20.8507 15.8478
v -71.5175 25.4649 -14.7231
v -72.3060 25.8181 -14.5952
v -70.9326 25.9280 -15.1385
v -71.5175 25.4649 -14.7231
v -70.9326 25.9280 -15.1385
v -72.3060 25.8181 -14.5952
v -55.4542 25.9217 -54.4848
v -56.1962 26.2665 -54.2596
v -54.9824 26.3324 -55.0297
v -55.4542 25.9217 -54.4848
v -54.9824 26.3324 -55.0297
v -56.1962 26.2665 -54.2596
vt 0.00000 1.00000
vt 0.00000 1.00000
vt 0.00000 1.00000
vt 0.00000 1.00000
vt 0.00000 1.00000
vt 0.00000 1.00000
vt 0.00000 1.00000
vt 0.00000 1.00000
vt 0.00000 1.00000
vt 0.00000 1.00000
vt 0.00000 1.00000
vt 0.00000 1.00000
vt 0.00000 1.00000
vt 0.00000 1.00000
vt 0.00000 1.00000
vt 0.00000 1.00000
vt 0.00000 1.00000
vt 0.00000 1.00000
vt 0.00000 1.00000
vt 0.00000 1.00000
vt 0.00000 1.00000
vt 0.00000 1.00000
vt 0.00000 1.00000
vt 0.00000 1.00000
vt 0.00000 1.00000
vt 0.00000 1.00000
vt 0.00000 1.00000
vt 0.00000 1.00000
vt 0.00000 1.00000
vt 0.00000 1.00000
vt 0.00000 1.00000
vt 0.00000 1.00000
vt 0.00000 1.00000
vt 0.00000 1.00000
vt 0.00000 1.00000
vt 0.00000 1.00000
usemtl stone
f 1/1 2/2 3/3
f 4/4 5/5 6/6
f 7/7 8/8 9/9
f 10/10 11/11 12/12
f 13/13 14/14 15/15
f 16/16 17/17 18/18
f 19/19 20/20 21/21
f 22/22 23/23 24/24
f 25/25 26/26 27/27
f 28/28 29/29 30/30
f 31/31 32/32 33/33
f 34/34 35/35 36/36
