# Generated by TyraX. Do not edit - rebaked from the procedural graph of 'pines'.
# 10 instances of res/models/rock.obj
mtllib props.mtl
v -74.4264 14.0996 74.2892
v -74.9666 14.4352 74.0409
v -73.8337 14.4064 74.2779
v -74.4264 14.0996 74.2892
v -73.8337 14.4064 74.2779
v -74.9666 14.4352 74.0409
v 40.5711 20.1259 -25.6551
v 41.1700 20.4152 -25.7870
v 40.1352 20.4647 -25.2882
v 40.5711 20.1259 -25.6551
v 40.1352 20.4647 -25.2882
v 41.1700 20.4152 -25.7870
v 0.9345 14.1482 30.6536
v 0.3295 14.5359 30.4880
v 1.5760 14.4623 30.5556
v 0.9345 14.1482 30.6536
v 1.5760 14.4623 30.5556
v 0.3295 14.5359 30.4880
v 52.9838 18.3793 9.0256
v 52.5965 18.8957 10.0233
v 52.8303 18.9448 8.0225
v 52.9838 18.3793 9.0256
v 52.8303 18.9448 8.0225
v 52.5965 18.8957 10.0233
v -52.0681 20.8827 -35.3200
v -51.3083 21.2840 -35.5714
v -52.5896 21.3040 -34.7574
v -52.0681 20.8827 -35.3200
v -52.5896 21.3040 -34.7574
v -51.3083 21.2840 -35.5714
v 0.6186 22.8511 -65.7435
v 1.6916 23.4726 -66.3764
v 0.0490 23.4826 -64.6809
v 0.6186 22.8511 -65.7435
v 0.0490 23.4826 -64.6809
v 1.6916 23.4726 -66.3764
v 56.7449 21.0000 -30.1441
v 56.6452 21.3108 -30.7403
v 57.0995 21.3185 -29.6810
v 56.7449 21.0000 -30.1441
v 57.0995 21.3185 -29.6810
v 56.6452 21.3108 -30.7403
v -12.1656 17.4576 3.1386
v -11.1408 18.0719 4.1900
v -13.3949 18.3178 2.7262
v -12.1656 17.4576 3.1386
v -13.3949 18.3178 2.7262
v -11.1408 18.0719 4.1900
v 51.5827 22.8435 -70.3865
v 50.6338 23.2481 -70.3224
v 52.2943 23.3745 -70.8689
v 51.5827 22.8435 -70.3865
v 52.2943 23.3745 -70.8689
v 50.6338 23.2481 -70.3224
v 26.3562 19.0593 -20.0415
v 26.5728 19.4854 -20.8800
v 26.5446 19.5274 -19.2441
v 26.3562 19.0593 -20.0415
v 26.5446 19.5274 -19.2441
v 26.5728 19.4854 -20.8800
vt 0.00000 1.00000
vt 0.00000 1.00000
vt 0.00000 1.00000
vt 0.00000 1.00000
vt 0.00000 1.00000
vt 0.00000 1.00000
vt 0.00000 1.00000
vt 0.00000 1.00000
vt 0.00000 1.00000
vt 0.00000 1.00000
vt 0.00000 1.00000
vt 0.00000 1.00000
vt 0.00000 1.00000
vt 0.00000 1.00000
vt 0.00000 1.00000
vt 0.00000 1.00000
vt 0.00000 1.00000
vt 0.00000 1.00000
vt 0.00000 1.00000
vt 0.00000 1.00000
vt 0.00000 1.00000
vt 0.00000 1.00000
vt 0.00000 1.00000
vt 0.00000 1.00000
vt 0.00000 1.00000
vt 0.00000 1.00000
vt 0.00000 1.00000
vt 0.00000 1.00000
vt 0.00000 1.00000
vt 0.00000 1.00000
vt 0.00000 1.00000
vt 0.00000 1.00000
vt 0.00000 1.00000
vt 0.00000 1.00000
vt 0.00000 1.00000
vt 0.00000 1.00000
vt 0.00000 1.00000
vt 0.00000 1.00000
vt 0.00000 1.00000
vt 0.00000 1.00000
vt 0.00000 1.00000
vt 0.00000 1.00000
vt 0.00000 1.00000
vt 0.00000 1.00000
vt 0.00000 1.00000
vt 0.00000 1.00000
vt 0.00000 1.00000
vt 0.00000 1.00000
vt 0.00000 1.00000
vt 0.00000 1.00000
vt 0.00000 1.00000
vt 0.00000 1.00000
vt 0.00000 1.00000
vt 0.00000 1.00000
vt 0.00000 1.00000
vt 0.00000 1.00000
vt 0.00000 1.00000
vt 0.00000 1.00000
vt 0.00000 1.00000
vt 0.00000 1.00000
usemtl stone
f 1/1 2/2 3/3
f 4/4 5/5 6/6
f 7/7 8/8 9/9
f 10/10 11/11 12/12
f 13/13 14/14 15/15
f 16/16 17/17 18/18
f 19/19 20/20 21/21
f 22/22 23/23 24/24
f 25/25 26/26 27/27
f 28/28 29/29 30/30
f 31/31 32/32 33/33
f 34/34 35/35 36/36
f 37/37 38/38 39/39
f 40/40 41/41 42/42
f 43/43 44/44 45/45
f 46/46 47/47 48/48
f 49/49 50/50 51/51
f 52/52 53/53 54/54
f 55/55 56/56 57/57
f 58/58 59/59 60/60
