# Generated by TyraX. Do not edit - rebaked from the procedural graph of 'pines'.
# 10 instances of res/models/rock.obj
mtllib props.mtl
v 61.1296 15.2418 -64.3370
v 61.1032 15.7096 -65.2739
v 61.5775 15.7399 -63.5623
v 61.1296 15.2418 -64.3370
v 61.5775 15.7399 -63.5623
v 61.1032 15.7096 -65.2739
v 65.5080 18.1975 40.0144
v 64.9240 18.5272 39.5905
v 66.1464 18.6183 40.1448
v 65.5080 18.1975 40.0144
v 66.1464 18.6183 40.1448
v 64.9240 18.5272 39.5905
v 13.8119 20.3031 30.2308
v 13.5715 20.9102 28.9972
v 14.6001 20.9629 31.1283
v 13.8119 20.3031 30.2308
v 14.6001 20.9629 31.1283
v 13.5715 20.9102 28.9972
v -0.6049 21.4921 15.4790
v 0.1123 21.8163 15.0882
v -0.9557 21.9449 16.1195
v -0.6049 21.4921 15.4790
v -0.9557 21.9449 16.1195
v 0.1123 21.8163 15.0882
v -51.4643 24.0624 59.0774
v -51.8028 24.5507 60.0271
v -51.6493 24.5871 58.1341
v -51.4643 24.0624 59.0774
v -51.6493 24.5871 58.1341
v -51.8028 24.5507 60.0271
v 15.1195 20.0842 -65.9272
v 15.0897 20.6412 -64.8348
v 14.6913 20.6797 -66.8759
v 15.1195 20.0842 -65.9272
v 14.6913 20.6797 -66.8759
v 15.0897 20.6412 -64.8348
v -69.2257 26.2129 -0.1281
v -68.5630 26.6694 -0.7553
v -69.5090 26.7035 0.6927
v -69.2257 26.2129 -0.1281
v -69.5090 26.7035 0.6927
v -68.5630 26.6694 -0.7553
v -37.2522 23.2967 49.7991
v -37.5101 23.6769 50.4563
v -37.2480 23.6919 49.1222
v -37.2522 23.2967 49.7991
v -37.2480 23.6919 49.1222
v -37.5101 23.6769 50.4563
v -6.8859 20.1458 53.4338
v -6.3046 20.4435 53.2636
v -7.2681 20.4442 53.8813
v -6.8859 20.1458 53.4338
v -7.2681 20.4442 53.8813
v -6.3046 20.4435 53.2636
v 49.1198 19.7766 1.8542
v 49.4660 20.1549 2.4807
v 48.4759 20.1043 1.5310
v 49.1198 19.7766 1.8542
v 48.4759 20.1043 1.5310
v 49.4660 20.1549 2.4807
vt 0.00000 1.00000
vt 0.00000 1.00000
vt 0.00000 1.00000
vt 0.00000 1.00000
vt 0.00000 1.00000
vt 0.00000 1.00000
vt 0.00000 1.00000
vt 0.00000 1.00000
vt 0.00000 1.00000
vt 0.00000 1.00000
vt 0.00000 1.00000
vt 0.00000 1.00000
vt 0.00000 1.00000
vt 0.00000 1.00000
vt 0.00000 1.00000
vt 0.00000 1.00000
vt 0.00000 1.00000
vt 0.00000 1.00000
vt 0.00000 1.00000
vt 0.00000 1.00000
vt 0.00000 1.00000
vt 0.00000 1.00000
vt 0.00000 1.00000
vt 0.00000 1.00000
vt 0.00000 1.00000
vt 0.00000 1.00000
vt 0.00000 1.00000
vt 0.00000 1.00000
vt 0.00000 1.00000
vt 0.00000 1.00000
vt 0.00000 1.00000
vt 0.00000 1.00000
vt 0.00000 1.00000
vt 0.00000 1.00000
vt 0.00000 1.00000
vt 0.00000 1.00000
vt 0.00000 1.00000
vt 0.00000 1.00000
vt 0.00000 1.00000
vt 0.00000 1.00000
vt 0.00000 1.00000
vt 0.00000 1.00000
vt 0.00000 1.00000
vt 0.00000 1.00000
vt 0.00000 1.00000
vt 0.00000 1.00000
vt 0.00000 1.00000
vt 0.00000 1.00000
vt 0.00000 1.00000
vt 0.00000 1.00000
vt 0.00000 1.00000
vt 0.00000 1.00000
vt 0.00000 1.00000
vt 0.00000 1.00000
vt 0.00000 1.00000
vt 0.00000 1.00000
vt 0.00000 1.00000
vt 0.00000 1.00000
vt 0.00000 1.00000
vt 0.00000 1.00000
usemtl stone
f 1/1 2/2 3/3
f 4/4 5/5 6/6
f 7/7 8/8 9/9
f 10/10 11/11 12/12
f 13/13 14/14 15/15
f 16/16 17/17 18/18
f 19/19 20/20 21/21
f 22/22 23/23 24/24
f 25/25 26/26 27/27
f 28/28 29/29 30/30
f 31/31 32/32 33/33
f 34/34 35/35 36/36
f 37/37 38/38 39/39
f 40/40 41/41 42/42
f 43/43 44/44 45/45
f 46/46 47/47 48/48
f 49/49 50/50 51/51
f 52/52 53/53 54/54
f 55/55 56/56 57/57
f 58/58 59/59 60/60
