# Generated by TyraX. Do not edit - rebaked from the procedural graph of 'pines'.
# 8 instances of res/models/rock.obj
mtllib props.mtl
v 61.0932 30.4153 -19.3417
v 60.2742 30.8579 -18.8719
v 61.5041 30.8952 -20.1418
v 61.0932 30.4153 -19.3417
v 61.5041 30.8952 -20.1418
v 60.2742 30.8579 -18.8719
v -49.4935 27.7350 15.3526
v -49.8783 28.0923 14.7676
v -48.8724 28.0828 15.6423
v -49.4935 27.7350 15.3526
v -48.8724 28.0828 15.6423
v -49.8783 28.0923 14.7676
v 15.7070 30.2535 36.5013
v 16.5260 30.6601 36.8455
v 14.9048 30.7716 36.5225
v 15.7070 30.2535 36.5013
v 14.9048 30.7716 36.5225
v 16.5260 30.6601 36.8455
v 67.1506 30.1483 -24.4737
v 66.6824 30.5857 -23.7019
v 67.1944 30.6362 -25.3232
v 67.1506 30.1483 -24.4737
v 67.1944 30.6362 -25.3232
v 66.6824 30.5857 -23.7019
v 29.6489 29.6688 -21.1812
v 29.8595 30.1347 -20.2335
v 29.0317 30.1847 -21.8603
v 29.6489 29.6688 -21.1812
v 29.0317 30.1847 -21.8603
v 29.8595 30.1347 -20.2335
v 55.9562 30.9483 -1.8142
v 56.3091 31.2170 -1.3231
v 55.4603 31.2879 -2.0538
v 55.9562 30.9483 -1.8142
v 55.4603 31.2879 -2.0538
v 56.3091 31.2170 -1.3231
v 36.6919 31.2645 44.9701
v 37.3256 31.6481 45.1413
v 36.0382 31.5939 45.0991
v 36.6919 31.2645 44.9701
v 36.0382 31.5939 45.0991
v 37.3256 31.6481 45.1413
v 44.0872 30.5943 71.1296
v 44.7130 30.9802 71.5234
v 43.3480 30.9377 71.1554
v 44.0872 30.5943 71.1296
v 43.3480 30.9377 71.1554
v 44.7130 30.9802 71.5234
vt 0.00000 1.00000
vt 0.00000 1.00000
vt 0.00000 1.00000
vt 0.00000 1.00000
vt 0.00000 1.00000
vt 0.00000 1.00000
vt 0.00000 1.00000
vt 0.00000 1.00000
vt 0.00000 1.00000
vt 0.00000 1.00000
vt 0.00000 1.00000
vt 0.00000 1.00000
vt 0.00000 1.00000
vt 0.00000 1.00000
vt 0.00000 1.00000
vt 0.00000 1.00000
vt 0.00000 1.00000
vt 0.00000 1.00000
vt 0.00000 1.00000
vt 0.00000 1.00000
vt 0.00000 1.00000
vt 0.00000 1.00000
vt 0.00000 1.00000
vt 0.00000 1.00000
vt 0.00000 1.00000
vt 0.00000 1.00000
vt 0.00000 1.00000
vt 0.00000 1.00000
vt 0.00000 1.00000
vt 0.00000 1.00000
vt 0.00000 1.00000
vt 0.00000 1.00000
vt 0.00000 1.00000
vt 0.00000 1.00000
vt 0.00000 1.00000
vt 0.00000 1.00000
vt 0.00000 1.00000
vt 0.00000 1.00000
vt 0.00000 1.00000
vt 0.00000 1.00000
vt 0.00000 1.00000
vt 0.00000 1.00000
vt 0.00000 1.00000
vt 0.00000 1.00000
vt 0.00000 1.00000
vt 0.00000 1.00000
vt 0.00000 1.00000
vt 0.00000 1.00000
usemtl stone
f 1/1 2/2 3/3
f 4/4 5/5 6/6
f 7/7 8/8 9/9
f 10/10 11/11 12/12
f 13/13 14/14 15/15
f 16/16 17/17 18/18
f 19/19 20/20 21/21
f 22/22 23/23 24/24
f 25/25 26/26 27/27
f 28/28 29/29 30/30
f 31/31 32/32 33/33
f 34/34 35/35 36/36
f 37/37 38/38 39/39
f 40/40 41/41 42/42
f 43/43 44/44 45/45
f 46/46 47/47 48/48
