# Generated by TyraX. Do not edit - rebaked from the procedural graph of 'pines'.
# 11 instances of res/models/rock.obj
mtllib props.mtl
v -36.5838 12.3029 -31.6228
v -35.7137 12.6644 -31.2086
v -37.4233 12.8459 -31.5092
v -36.5838 12.3029 -31.6228
v -37.4233 12.8459 -31.5092
v -35.7137 12.6644 -31.2086
v -43.3346 12.1874 37.2585
v -44.3949 12.9411 38.4457
v -43.0404 13.0289 35.7855
v -43.3346 12.1874 37.2585
v -43.0404 13.0289 35.7855
v -44.3949 12.9411 38.4457
v 40.4180 7.5591 -50.0964
v 39.5158 7.9807 -49.5882
v 40.8488 8.1211 -50.9291
v 40.4180 7.5591 -50.0964
v 40.8488 8.1211 -50.9291
v 39.5158 7.9807 -49.5882
v 14.8947 9.1469 41.9361
v 13.4137 9.8601 42.1417
v 15.9692 9.8858 40.9758
v 14.8947 9.1469 41.9361
v 15.9692 9.8858 40.9758
v 13.4137 9.8601 42.1417
v 6.7854 9.9999 51.3268
v 7.7775 10.4751 51.8072
v 5.7960 10.6297 51.3676
v 6.7854 9.9999 51.3268
v 5.7960 10.6297 51.3676
v 7.7775 10.4751 51.8072
v 6.7013 10.4780 -46.9928
v 7.3940 11.0657 -46.1209
v 5.7332 11.0757 -47.4627
v 6.7013 10.4780 -46.9928
v 5.7332 11.0757 -47.4627
v 7.3940 11.0657 -46.1209
v -17.8089 8.7012 10.2568
v -17.5981 9.1417 11.0879
v -18.3323 9.1685 9.6277
v -17.8089 8.7012 10.2568
v -18.3323 9.1685 9.6277
v -17.5981 9.1417 11.0879
v -2.6914 8.8832 -5.2057
v -1.5822 9.4744 -4.5612
v -3.8682 9.6034 -5.2646
v -2.6914 8.8832 -5.2057
v -3.8682 9.6034 -5.2646
v -1.5822 9.4744 -4.5612
v 42.9188 8.0290 14.8694
v 43.6804 8.3846 14.9011
v 42.2939 8.4202 15.2336
v 42.9188 8.0290 14.8694
v 42.2939 8.4202 15.2336
v 43.6804 8.3846 14.9011
v -45.7853 12.2414 -19.5643
v -45.1299 12.7571 -20.2849
v -46.0743 12.7722 -18.6723
v -45.7853 12.2414 -19.5643
v -46.0743 12.7722 -18.6723
v -45.1299 12.7571 -20.2849
v 8.4134 8.7858 34.8990
v 8.6159 9.1901 35.7441
v 7.8209 9.2330 34.3272
v 8.4134 8.7858 34.8990
v 7.8209 9.2330 34.3272
v 8.6159 9.1901 35.7441
vt 0.00000 1.00000
vt 0.00000 1.00000
vt 0.00000 1.00000
vt 0.00000 1.00000
vt 0.00000 1.00000
vt 0.00000 1.00000
vt 0.00000 1.00000
vt 0.00000 1.00000
vt 0.00000 1.00000
vt 0.00000 1.00000
vt 0.00000 1.00000
vt 0.00000 1.00000
vt 0.00000 1.00000
vt 0.00000 1.00000
vt 0.00000 1.00000
vt 0.00000 1.00000
vt 0.00000 1.00000
vt 0.00000 1.00000
vt 0.00000 1.00000
vt 0.00000 1.00000
vt 0.00000 1.00000
vt 0.00000 1.00000
vt 0.00000 1.00000
vt 0.00000 1.00000
vt 0.00000 1.00000
vt 0.00000 1.00000
vt 0.00000 1.00000
vt 0.00000 1.00000
vt 0.00000 1.00000
vt 0.00000 1.00000
vt 0.00000 1.00000
vt 0.00000 1.00000
vt 0.00000 1.00000
vt 0.00000 1.00000
vt 0.00000 1.00000
vt 0.00000 1.00000
vt 0.00000 1.00000
vt 0.00000 1.00000
vt 0.00000 1.00000
vt 0.00000 1.00000
vt 0.00000 1.00000
vt 0.00000 1.00000
vt 0.00000 1.00000
vt 0.00000 1.00000
vt 0.00000 1.00000
vt 0.00000 1.00000
vt 0.00000 1.00000
vt 0.00000 1.00000
vt 0.00000 1.00000
vt 0.00000 1.00000
vt 0.00000 1.00000
vt 0.00000 1.00000
vt 0.00000 1.00000
vt 0.00000 1.00000
vt 0.00000 1.00000
vt 0.00000 1.00000
vt 0.00000 1.00000
vt 0.00000 1.00000
vt 0.00000 1.00000
vt 0.00000 1.00000
vt 0.00000 1.00000
vt 0.00000 1.00000
vt 0.00000 1.00000
vt 0.00000 1.00000
vt 0.00000 1.00000
vt 0.00000 1.00000
usemtl stone
f 1/1 2/2 3/3
f 4/4 5/5 6/6
f 7/7 8/8 9/9
f 10/10 11/11 12/12
f 13/13 14/14 15/15
f 16/16 17/17 18/18
f 19/19 20/20 21/21
f 22/22 23/23 24/24
f 25/25 26/26 27/27
f 28/28 29/29 30/30
f 31/31 32/32 33/33
f 34/34 35/35 36/36
f 37/37 38/38 39/39
f 40/40 41/41 42/42
f 43/43 44/44 45/45
f 46/46 47/47 48/48
f 49/49 50/50 51/51
f 52/52 53/53 54/54
f 55/55 56/56 57/57
f 58/58 59/59 60/60
f 61/61 62/62 63/63
f 64/64 65/65 66/66
