# Generated by TyraX. Do not edit - rebaked from the procedural graph of 'pines'.
# 8 instances of res/models/rock.obj
mtllib props.mtl
v -44.2156 22.9023 -59.0223
v -43.9485 23.2465 -59.6914
v -44.0788 23.2633 -58.3440
v -44.2156 22.9023 -59.0223
v -44.0788 23.2633 -58.3440
v -43.9485 23.2465 -59.6914
v 9.3122 16.2283 -40.8348
v 8.8565 16.4458 -41.1508
v 9.7870 16.5600 -40.7747
v 9.3122 16.2283 -40.8348
v 9.7870 16.5600 -40.7747
v 8.8565 16.4458 -41.1508
v -35.1335 21.1829 -35.8015
v -33.8925 21.7315 -35.7930
v -36.1025 21.8218 -35.1594
v -35.1335 21.1829 -35.8015
v -36.1025 21.8218 -35.1594
v -33.8925 21.7315 -35.7930
v -42.1929 22.4635 -54.8313
v -41.7962 22.9269 -53.8651
v -42.8849 23.0737 -55.4612
v -42.1929 22.4635 -54.8313
v -42.8849 23.0737 -55.4612
v -41.7962 22.9269 -53.8651
v -28.0432 22.2856 51.4762
v -29.1864 22.8866 51.4926
v -27.0732 22.8695 50.9171
v -28.0432 22.2856 51.4762
v -27.0732 22.8695 50.9171
v -29.1864 22.8866 51.4926
v 74.8177 16.3031 69.2744
v 76.2439 16.9473 69.5289
v 73.5668 17.1011 69.7228
v 74.8177 16.3031 69.2744
v 73.5668 17.1011 69.7228
v 76.2439 16.9473 69.5289
v -26.0482 22.9709 33.9561
v -25.7468 23.1992 34.2648
v -26.4542 23.1904 33.8351
v -26.0482 22.9709 33.9561
v -26.4542 23.1904 33.8351
v -25.7468 23.1992 34.2648
v -10.1973 19.6636 -8.5249
v -9.0041 20.2727 -8.4415
v -11.2521 20.3098 -8.0872
v -10.1973 19.6636 -8.5249
v -11.2521 20.3098 -8.0872
v -9.0041 20.2727 -8.4415
vt 0.00000 1.00000
vt 0.00000 1.00000
vt 0.00000 1.00000
vt 0.00000 1.00000
vt 0.00000 1.00000
vt 0.00000 1.00000
vt 0.00000 1.00000
vt 0.00000 1.00000
vt 0.00000 1.00000
vt 0.00000 1.00000
vt 0.00000 1.00000
vt 0.00000 1.00000
vt 0.00000 1.00000
vt 0.00000 1.00000
vt 0.00000 1.00000
vt 0.00000 1.00000
vt 0.00000 1.00000
vt 0.00000 1.00000
vt 0.00000 1.00000
vt 0.00000 1.00000
vt 0.00000 1.00000
vt 0.00000 1.00000
vt 0.00000 1.00000
vt 0.00000 1.00000
vt 0.00000 1.00000
vt 0.00000 1.00000
vt 0.00000 1.00000
vt 0.00000 1.00000
vt 0.00000 1.00000
vt 0.00000 1.00000
vt 0.00000 1.00000
vt 0.00000 1.00000
vt 0.00000 1.00000
vt 0.00000 1.00000
vt 0.00000 1.00000
vt 0.00000 1.00000
vt 0.00000 1.00000
vt 0.00000 1.00000
vt 0.00000 1.00000
vt 0.00000 1.00000
vt 0.00000 1.00000
vt 0.00000 1.00000
vt 0.00000 1.00000
vt 0.00000 1.00000
vt 0.00000 1.00000
vt 0.00000 1.00000
vt 0.00000 1.00000
vt 0.00000 1.00000
usemtl stone
f 1/1 2/2 3/3
f 4/4 5/5 6/6
f 7/7 8/8 9/9
f 10/10 11/11 12/12
f 13/13 14/14 15/15
f 16/16 17/17 18/18
f 19/19 20/20 21/21
f 22/22 23/23 24/24
f 25/25 26/26 27/27
f 28/28 29/29 30/30
f 31/31 32/32 33/33
f 34/34 35/35 36/36
f 37/37 38/38 39/39
f 40/40 41/41 42/42
f 43/43 44/44 45/45
f 46/46 47/47 48/48
