# Generated by TyraX. Do not edit - rebaked from the procedural graph of 'pines'.
# 8 instances of res/models/rock.obj
mtllib props.mtl
v 58.3957 28.6925 -24.6138
v 57.9221 29.1445 -25.2735
v 59.1169 29.1055 -24.2464
v 58.3957 28.6925 -24.6138
v 59.1169 29.1055 -24.2464
v 57.9221 29.1445 -25.2735
v -52.9528 27.4020 9.6620
v -53.7133 27.9318 10.1674
v -52.5114 27.8492 8.8432
v -52.9528 27.4020 9.6620
v -52.5114 27.8492 8.8432
v -53.7133 27.9318 10.1674
v 6.8648 31.8685 -73.9014
v 6.3490 32.1565 -73.8367
v 7.2941 32.1372 -74.1862
v 6.8648 31.8685 -73.9014
v 7.2941 32.1372 -74.1862
v 6.3490 32.1565 -73.8367
v -44.7629 29.3309 -20.2766
v -44.3884 29.6038 -19.8221
v -45.2712 29.6531 -20.4775
v -44.7629 29.3309 -20.2766
v -45.2712 29.6531 -20.4775
v -44.3884 29.6038 -19.8221
v 5.8252 30.5790 -25.7809
v 6.1998 30.7684 -25.5520
v 5.4258 30.8218 -25.7875
v 5.8252 30.5790 -25.7809
v 5.4258 30.8218 -25.7875
v 6.1998 30.7684 -25.5520
v -40.5937 29.7913 -34.0948
v -39.9088 30.1709 -33.8086
v -41.3066 30.1790 -34.0199
v -40.5937 29.7913 -34.0948
v -41.3066 30.1790 -34.0199
v -39.9088 30.1709 -33.8086
v -11.1716 29.3274 6.6647
v -10.4429 29.6679 6.3916
v -11.5907 29.7271 7.2600
v -11.1716 29.3274 6.6647
v -11.5907 29.7271 7.2600
v -10.4429 29.6679 6.3916
v -70.8550 22.6877 37.3440
v -70.8847 22.9669 36.7536
v -70.5926 23.0216 37.8215
v -70.8550 22.6877 37.3440
v -70.5926 23.0216 37.8215
v -70.8847 22.9669 36.7536
vt 0.00000 1.00000
vt 0.00000 1.00000
vt 0.00000 1.00000
vt 0.00000 1.00000
vt 0.00000 1.00000
vt 0.00000 1.00000
vt 0.00000 1.00000
vt 0.00000 1.00000
vt 0.00000 1.00000
vt 0.00000 1.00000
vt 0.00000 1.00000
vt 0.00000 1.00000
vt 0.00000 1.00000
vt 0.00000 1.00000
vt 0.00000 1.00000
vt 0.00000 1.00000
vt 0.00000 1.00000
vt 0.00000 1.00000
vt 0.00000 1.00000
vt 0.00000 1.00000
vt 0.00000 1.00000
vt 0.00000 1.00000
vt 0.00000 1.00000
vt 0.00000 1.00000
vt 0.00000 1.00000
vt 0.00000 1.00000
vt 0.00000 1.00000
vt 0.00000 1.00000
vt 0.00000 1.00000
vt 0.00000 1.00000
vt 0.00000 1.00000
vt 0.00000 1.00000
vt 0.00000 1.00000
vt 0.00000 1.00000
vt 0.00000 1.00000
vt 0.00000 1.00000
vt 0.00000 1.00000
vt 0.00000 1.00000
vt 0.00000 1.00000
vt 0.00000 1.00000
vt 0.00000 1.00000
vt 0.00000 1.00000
vt 0.00000 1.00000
vt 0.00000 1.00000
vt 0.00000 1.00000
vt 0.00000 1.00000
vt 0.00000 1.00000
vt 0.00000 1.00000
usemtl stone
f 1/1 2/2 3/3
f 4/4 5/5 6/6
f 7/7 8/8 9/9
f 10/10 11/11 12/12
f 13/13 14/14 15/15
f 16/16 17/17 18/18
f 19/19 20/20 21/21
f 22/22 23/23 24/24
f 25/25 26/26 27/27
f 28/28 29/29 30/30
f 31/31 32/32 33/33
f 34/34 35/35 36/36
f 37/37 38/38 39/39
f 40/40 41/41 42/42
f 43/43 44/44 45/45
f 46/46 47/47 48/48
