# Generated by TyraX. Do not edit - rebaked from the procedural graph of 'pines'.
# 8 instances of res/models/rock.obj
mtllib props.mtl
v 33.2884 10.0094 -9.2041
v 33.4339 10.3062 -9.7799
v 33.4091 10.3331 -8.6547
v 33.2884 10.0094 -9.2041
v 33.4091 10.3331 -8.6547
v 33.4339 10.3062 -9.7799
v -28.1590 15.1295 -43.1480
v -26.7412 15.8815 -43.1118
v -29.3689 15.7993 -42.4061
v -28.1590 15.1295 -43.1480
v -29.3689 15.7993 -42.4061
v -26.7412 15.8815 -43.1118
v -34.8686 15.6441 -38.0878
v -36.0624 16.1711 -37.6662
v -34.1450 16.3482 -38.9699
v -34.8686 15.6441 -38.0878
v -34.1450 16.3482 -38.9699
v -36.0624 16.1711 -37.6662
v 47.7540 8.9219 20.4839
v 47.0361 9.5576 21.6555
v 47.7586 9.6471 19.1935
v 47.7540 8.9219 20.4839
v 47.7586 9.6471 19.1935
v 47.0361 9.5576 21.6555
v -7.3194 10.2843 44.4977
v -5.9294 11.2497 43.3402
v -7.9856 11.2144 46.1436
v -7.3194 10.2843 44.4977
v -7.9856 11.2144 46.1436
v -5.9294 11.2497 43.3402
v -5.8704 10.3295 24.7191
v -5.4679 10.9208 25.8630
v -6.6354 11.0227 23.8982
v -5.8704 10.3295 24.7191
v -6.6354 11.0227 23.8982
v -5.4679 10.9208 25.8630
v -51.1840 12.6905 10.8011
v -52.2086 13.1412 10.9772
v -50.4283 13.3049 10.2733
v -51.1840 12.6905 10.8011
v -50.4283 13.3049 10.2733
v -52.2086 13.1412 10.9772
v -44.7442 17.4266 -44.9628
v -45.6646 18.1100 -43.9786
v -44.3706 18.1600 -46.1893
v -44.7442 17.4266 -44.9628
v -44.3706 18.1600 -46.1893
v -45.6646 18.1100 -43.9786
vt 0.00000 1.00000
vt 0.00000 1.00000
vt 0.00000 1.00000
vt 0.00000 1.00000
vt 0.00000 1.00000
vt 0.00000 1.00000
vt 0.00000 1.00000
vt 0.00000 1.00000
vt 0.00000 1.00000
vt 0.00000 1.00000
vt 0.00000 1.00000
vt 0.00000 1.00000
vt 0.00000 1.00000
vt 0.00000 1.00000
vt 0.00000 1.00000
vt 0.00000 1.00000
vt 0.00000 1.00000
vt 0.00000 1.00000
vt 0.00000 1.00000
vt 0.00000 1.00000
vt 0.00000 1.00000
vt 0.00000 1.00000
vt 0.00000 1.00000
vt 0.00000 1.00000
vt 0.00000 1.00000
vt 0.00000 1.00000
vt 0.00000 1.00000
vt 0.00000 1.00000
vt 0.00000 1.00000
vt 0.00000 1.00000
vt 0.00000 1.00000
vt 0.00000 1.00000
vt 0.00000 1.00000
vt 0.00000 1.00000
vt 0.00000 1.00000
vt 0.00000 1.00000
vt 0.00000 1.00000
vt 0.00000 1.00000
vt 0.00000 1.00000
vt 0.00000 1.00000
vt 0.00000 1.00000
vt 0.00000 1.00000
vt 0.00000 1.00000
vt 0.00000 1.00000
vt 0.00000 1.00000
vt 0.00000 1.00000
vt 0.00000 1.00000
vt 0.00000 1.00000
usemtl stone
f 1/1 2/2 3/3
f 4/4 5/5 6/6
f 7/7 8/8 9/9
f 10/10 11/11 12/12
f 13/13 14/14 15/15
f 16/16 17/17 18/18
f 19/19 20/20 21/21
f 22/22 23/23 24/24
f 25/25 26/26 27/27
f 28/28 29/29 30/30
f 31/31 32/32 33/33
f 34/34 35/35 36/36
f 37/37 38/38 39/39
f 40/40 41/41 42/42
f 43/43 44/44 45/45
f 46/46 47/47 48/48
