# Generated by TyraX. Do not edit - rebaked from the procedural graph of 'pines'.
# 11 instances of res/models/rock.obj
mtllib props.mtl
v -12.0804 10.5828 43.6494
v -11.5044 11.0237 44.0976
v -12.8214 10.9371 43.5070
v -12.0804 10.5828 43.6494
v -12.8214 10.9371 43.5070
v -11.5044 11.0237 44.0976
v 13.1908 6.0855 7.8152
v 13.5501 6.4175 8.2905
v 12.6457 6.3815 7.5705
v 13.1908 6.0855 7.8152
v 12.6457 6.3815 7.5705
v 13.5501 6.4175 8.2905
v 1.2986 4.6354 -11.4886
v 2.2835 5.3957 -10.3383
v -0.0320 5.4546 -12.0386
v 1.2986 4.6354 -11.4886
v -0.0320 5.4546 -12.0386
v 2.2835 5.3957 -10.3383
v 4.8578 6.6902 5.4027
v 3.8468 7.1758 5.3067
v 5.7294 7.2242 4.9949
v 4.8578 6.6902 5.4027
v 5.7294 7.2242 4.9949
v 3.8468 7.1758 5.3067
v -45.4616 8.0287 21.8902
v -45.5281 8.7574 23.3417
v -46.0583 8.8027 20.6373
v -45.4616 8.0287 21.8902
v -46.0583 8.8027 20.6373
v -45.5281 8.7574 23.3417
v -0.3889 9.5281 31.0400
v -0.4641 10.1782 32.3914
v -1.0132 10.2195 29.9055
v -0.3889 9.5281 31.0400
v -1.0132 10.2195 29.9055
v -0.4641 10.1782 32.3914
v -14.5321 9.9574 36.1775
v -15.0629 10.3617 35.3980
v -13.7343 10.4618 36.5170
v -14.5321 9.9574 36.1775
v -13.7343 10.4618 36.5170
v -15.0629 10.3617 35.3980
v -4.4697 9.0058 20.7764
v -3.2795 9.6536 20.7167
v -5.4604 9.5818 21.4433
v -4.4697 9.0058 20.7764
v -5.4604 9.5818 21.4433
v -3.2795 9.6536 20.7167
v -5.3554 3.5448 -38.1561
v -3.9108 4.1703 -38.4514
v -6.2899 4.2935 -37.1471
v -5.3554 3.5448 -38.1561
v -6.2899 4.2935 -37.1471
v -3.9108 4.1703 -38.4514
v 43.7032 9.2796 31.0920
v 43.0192 9.9581 29.9876
v 44.9419 9.8294 31.5569
v 43.7032 9.2796 31.0920
v 44.9419 9.8294 31.5569
v 43.0192 9.9581 29.9876
v -43.3049 7.0476 -3.8210
v -42.2305 7.7902 -4.6202
v -43.9174 7.7456 -2.6469
v -43.3049 7.0476 -3.8210
v -43.9174 7.7456 -2.6469
v -42.2305 7.7902 -4.6202
vt 0.00000 1.00000
vt 0.00000 1.00000
vt 0.00000 1.00000
vt 0.00000 1.00000
vt 0.00000 1.00000
vt 0.00000 1.00000
vt 0.00000 1.00000
vt 0.00000 1.00000
vt 0.00000 1.00000
vt 0.00000 1.00000
vt 0.00000 1.00000
vt 0.00000 1.00000
vt 0.00000 1.00000
vt 0.00000 1.00000
vt 0.00000 1.00000
vt 0.00000 1.00000
vt 0.00000 1.00000
vt 0.00000 1.00000
vt 0.00000 1.00000
vt 0.00000 1.00000
vt 0.00000 1.00000
vt 0.00000 1.00000
vt 0.00000 1.00000
vt 0.00000 1.00000
vt 0.00000 1.00000
vt 0.00000 1.00000
vt 0.00000 1.00000
vt 0.00000 1.00000
vt 0.00000 1.00000
vt 0.00000 1.00000
vt 0.00000 1.00000
vt 0.00000 1.00000
vt 0.00000 1.00000
vt 0.00000 1.00000
vt 0.00000 1.00000
vt 0.00000 1.00000
vt 0.00000 1.00000
vt 0.00000 1.00000
vt 0.00000 1.00000
vt 0.00000 1.00000
vt 0.00000 1.00000
vt 0.00000 1.00000
vt 0.00000 1.00000
vt 0.00000 1.00000
vt 0.00000 1.00000
vt 0.00000 1.00000
vt 0.00000 1.00000
vt 0.00000 1.00000
vt 0.00000 1.00000
vt 0.00000 1.00000
vt 0.00000 1.00000
vt 0.00000 1.00000
vt 0.00000 1.00000
vt 0.00000 1.00000
vt 0.00000 1.00000
vt 0.00000 1.00000
vt 0.00000 1.00000
vt 0.00000 1.00000
vt 0.00000 1.00000
vt 0.00000 1.00000
vt 0.00000 1.00000
vt 0.00000 1.00000
vt 0.00000 1.00000
vt 0.00000 1.00000
vt 0.00000 1.00000
vt 0.00000 1.00000
usemtl stone
f 1/1 2/2 3/3
f 4/4 5/5 6/6
f 7/7 8/8 9/9
f 10/10 11/11 12/12
f 13/13 14/14 15/15
f 16/16 17/17 18/18
f 19/19 20/20 21/21
f 22/22 23/23 24/24
f 25/25 26/26 27/27
f 28/28 29/29 30/30
f 31/31 32/32 33/33
f 34/34 35/35 36/36
f 37/37 38/38 39/39
f 40/40 41/41 42/42
f 43/43 44/44 45/45
f 46/46 47/47 48/48
f 49/49 50/50 51/51
f 52/52 53/53 54/54
f 55/55 56/56 57/57
f 58/58 59/59 60/60
f 61/61 62/62 63/63
f 64/64 65/65 66/66
