# Generated by TyraX. Do not edit - rebaked from the procedural graph of 'pines'.
# 10 instances of res/models/rock.obj
mtllib props.mtl
v 25.3252 10.2486 18.0058
v 24.4023 10.7514 18.7090
v 25.6719 10.8518 16.9839
v 25.3252 10.2486 18.0058
v 25.6719 10.8518 16.9839
v 24.4023 10.7514 18.7090
v -19.9130 0.2231 -48.4097
v -19.6490 0.5179 -48.9425
v -19.8883 0.5381 -47.8431
v -19.9130 0.2231 -48.4097
v -19.8883 0.5381 -47.8431
v -19.6490 0.5179 -48.9425
v 7.1617 4.7618 -33.9601
v 8.5416 5.5218 -34.9275
v 6.4996 5.6851 -32.5545
v 7.1617 4.7618 -33.9601
v 6.4996 5.6851 -32.5545
v 8.5416 5.5218 -34.9275
v -29.0540 4.6478 3.5960
v -28.5456 5.1034 4.2379
v -29.7751 5.0797 3.2314
v -29.0540 4.6478 3.5960
v -29.7751 5.0797 3.2314
v -28.5456 5.1034 4.2379
v -20.7432 9.9151 50.0454
v -19.7798 10.6655 49.0557
v -21.2302 10.6704 51.2919
v -20.7432 9.9151 50.0454
v -21.2302 10.6704 51.2919
v -19.7798 10.6655 49.0557
v -22.7131 -0.0872 -46.6953
v -23.0948 0.6982 -48.2166
v -21.5840 0.6760 -45.6545
v -22.7131 -0.0872 -46.6953
v -21.5840 0.6760 -45.6545
v -23.0948 0.6982 -48.2166
v 28.7528 8.1842 -48.7163
v 27.6381 8.6956 -48.3081
v 29.3992 8.8031 -49.6084
v 28.7528 8.1842 -48.7163
v 29.3992 8.8031 -49.6084
v 27.6381 8.6956 -48.3081
v -4.5587 5.7376 -5.9385
v -5.2079 6.3687 -6.7977
v -3.4918 6.2014 -5.5701
v -4.5587 5.7376 -5.9385
v -3.4918 6.2014 -5.5701
v -5.2079 6.3687 -6.7977
v -33.2839 -0.1391 -47.3539
v -33.1703 0.3297 -46.3547
v -33.8050 0.4200 -48.1236
v -33.2839 -0.1391 -47.3539
v -33.8050 0.4200 -48.1236
v -33.1703 0.3297 -46.3547
v 2.9913 4.8668 -23.0821
v 4.2111 5.5135 -23.5653
v 2.1470 5.6023 -22.1927
v 2.9913 4.8668 -23.0821
v 2.1470 5.6023 -22.1927
v 4.2111 5.5135 -23.5653
vt 0.00000 1.00000
vt 0.00000 1.00000
vt 0.00000 1.00000
vt 0.00000 1.00000
vt 0.00000 1.00000
vt 0.00000 1.00000
vt 0.00000 1.00000
vt 0.00000 1.00000
vt 0.00000 1.00000
vt 0.00000 1.00000
vt 0.00000 1.00000
vt 0.00000 1.00000
vt 0.00000 1.00000
vt 0.00000 1.00000
vt 0.00000 1.00000
vt 0.00000 1.00000
vt 0.00000 1.00000
vt 0.00000 1.00000
vt 0.00000 1.00000
vt 0.00000 1.00000
vt 0.00000 1.00000
vt 0.00000 1.00000
vt 0.00000 1.00000
vt 0.00000 1.00000
vt 0.00000 1.00000
vt 0.00000 1.00000
vt 0.00000 1.00000
vt 0.00000 1.00000
vt 0.00000 1.00000
vt 0.00000 1.00000
vt 0.00000 1.00000
vt 0.00000 1.00000
vt 0.00000 1.00000
vt 0.00000 1.00000
vt 0.00000 1.00000
vt 0.00000 1.00000
vt 0.00000 1.00000
vt 0.00000 1.00000
vt 0.00000 1.00000
vt 0.00000 1.00000
vt 0.00000 1.00000
vt 0.00000 1.00000
vt 0.00000 1.00000
vt 0.00000 1.00000
vt 0.00000 1.00000
vt 0.00000 1.00000
vt 0.00000 1.00000
vt 0.00000 1.00000
vt 0.00000 1.00000
vt 0.00000 1.00000
vt 0.00000 1.00000
vt 0.00000 1.00000
vt 0.00000 1.00000
vt 0.00000 1.00000
vt 0.00000 1.00000
vt 0.00000 1.00000
vt 0.00000 1.00000
vt 0.00000 1.00000
vt 0.00000 1.00000
vt 0.00000 1.00000
usemtl stone
f 1/1 2/2 3/3
f 4/4 5/5 6/6
f 7/7 8/8 9/9
f 10/10 11/11 12/12
f 13/13 14/14 15/15
f 16/16 17/17 18/18
f 19/19 20/20 21/21
f 22/22 23/23 24/24
f 25/25 26/26 27/27
f 28/28 29/29 30/30
f 31/31 32/32 33/33
f 34/34 35/35 36/36
f 37/37 38/38 39/39
f 40/40 41/41 42/42
f 43/43 44/44 45/45
f 46/46 47/47 48/48
f 49/49 50/50 51/51
f 52/52 53/53 54/54
f 55/55 56/56 57/57
f 58/58 59/59 60/60
