# Generated by TyraX. Do not edit - rebaked from the procedural graph of 'pines'.
# 6 instances of res/models/rock.obj
mtllib props.mtl
v -72.1245 29.6257 -10.8778
v -72.6408 29.9048 -10.9171
v -71.6583 29.8885 -11.0884
v -72.1245 29.6257 -10.8778
v -71.6583 29.8885 -11.0884
v -72.6408 29.9048 -10.9171
v -49.3961 29.7139 2.1581
v -48.8082 30.0562 2.0107
v -49.8734 30.0382 2.5189
v -49.3961 29.7139 2.1581
v -49.8734 30.0382 2.5189
v -48.8082 30.0562 2.0107
v 27.7376 26.9438 6.9659
v 28.2404 27.4723 7.7774
v 26.8887 27.4069 6.5157
v 27.7376 26.9438 6.9659
v 26.8887 27.4069 6.5157
v 28.2404 27.4723 7.7774
v 5.5634 27.4012 -59.3846
v 5.0231 27.8045 -58.8380
v 5.7983 27.8118 -60.0891
v 5.5634 27.4012 -59.3846
v 5.7983 27.8118 -60.0891
v 5.0231 27.8045 -58.8380
v 56.9975 24.9174 -63.8916
v 56.2570 25.3502 -64.2817
v 57.8017 25.3662 -63.8736
v 56.9975 24.9174 -63.8916
v 57.8017 25.3662 -63.8736
v 56.2570 25.3502 -64.2817
v 44.1821 26.8516 64.6022
v 43.4289 27.2298 64.5852
v 44.8302 27.2649 64.3051
v 44.1821 26.8516 64.6022
v 44.8302 27.2649 64.3051
v 43.4289 27.2298 64.5852
vt 0.00000 1.00000
vt 0.00000 1.00000
vt 0.00000 1.00000
vt 0.00000 1.00000
vt 0.00000 1.00000
vt 0.00000 1.00000
vt 0.00000 1.00000
vt 0.00000 1.00000
vt 0.00000 1.00000
vt 0.00000 1.00000
vt 0.00000 1.00000
vt 0.00000 1.00000
vt 0.00000 1.00000
vt 0.00000 1.00000
vt 0.00000 1.00000
vt 0.00000 1.00000
vt 0.00000 1.00000
vt 0.00000 1.00000
vt 0.00000 1.00000
vt 0.00000 1.00000
vt 0.00000 1.00000
vt 0.00000 1.00000
vt 0.00000 1.00000
vt 0.00000 1.00000
vt 0.00000 1.00000
vt 0.00000 1.00000
vt 0.00000 1.00000
vt 0.00000 1.00000
vt 0.00000 1.00000
vt 0.00000 1.00000
vt 0.00000 1.00000
vt 0.00000 1.00000
vt 0.00000 1.00000
vt 0.00000 1.00000
vt 0.00000 1.00000
vt 0.00000 1.00000
usemtl stone
f 1/1 2/2 3/3
f 4/4 5/5 6/6
f 7/7 8/8 9/9
f 10/10 11/11 12/12
f 13/13 14/14 15/15
f 16/16 17/17 18/18
f 19/19 20/20 21/21
f 22/22 23/23 24/24
f 25/25 26/26 27/27
f 28/28 29/29 30/30
f 31/31 32/32 33/33
f 34/34 35/35 36/36
