# Generated by TyraX. Do not edit - rebaked from the procedural graph of 'pines'.
# 7 instances of res/models/rock.obj
mtllib props.mtl
v -13.5989 11.9705 12.3194
v -13.9044 12.5843 11.1150
v -12.8876 12.6759 13.2316
v -13.5989 11.9705 12.3194
v -12.8876 12.6759 13.2316
v -13.9044 12.5843 11.1150
v 3.0266 11.2638 43.3938
v 4.3335 12.1181 42.8448
v 2.0558 11.9712 44.4778
v 3.0266 11.2638 43.3938
v 2.0558 11.9712 44.4778
v 4.3335 12.1181 42.8448
v -4.2985 13.6551 -44.1595
v -3.2548 14.2438 -44.9465
v -4.7968 14.3862 -43.0725
v -4.2985 13.6551 -44.1595
v -4.7968 14.3862 -43.0725
v -3.2548 14.2438 -44.9465
v -12.7806 13.9739 -32.3026
v -12.8079 14.7617 -33.8896
v -12.1234 14.8577 -30.9654
v -12.7806 13.9739 -32.3026
v -12.1234 14.8577 -30.9654
v -12.8079 14.7617 -33.8896
v -1.0422 13.3162 -0.8729
v -1.8652 13.8653 0.0524
v -0.8834 13.9545 -2.0223
v -1.0422 13.3162 -0.8729
v -0.8834 13.9545 -2.0223
v -1.8652 13.8653 0.0524
v 32.2564 12.8680 9.9114
v 31.7106 13.6479 11.3233
v 32.1761 13.7042 8.4742
v 32.2564 12.8680 9.9114
v 32.1761 13.7042 8.4742
v 31.7106 13.6479 11.3233
v -35.2492 12.8966 -18.3293
v -35.5874 13.4264 -17.3454
v -35.3776 13.4597 -19.3139
v -35.2492 12.8966 -18.3293
v -35.3776 13.4597 -19.3139
v -35.5874 13.4264 -17.3454
vt 0.00000 1.00000
vt 0.00000 1.00000
vt 0.00000 1.00000
vt 0.00000 1.00000
vt 0.00000 1.00000
vt 0.00000 1.00000
vt 0.00000 1.00000
vt 0.00000 1.00000
vt 0.00000 1.00000
vt 0.00000 1.00000
vt 0.00000 1.00000
vt 0.00000 1.00000
vt 0.00000 1.00000
vt 0.00000 1.00000
vt 0.00000 1.00000
vt 0.00000 1.00000
vt 0.00000 1.00000
vt 0.00000 1.00000
vt 0.00000 1.00000
vt 0.00000 1.00000
vt 0.00000 1.00000
vt 0.00000 1.00000
vt 0.00000 1.00000
vt 0.00000 1.00000
vt 0.00000 1.00000
vt 0.00000 1.00000
vt 0.00000 1.00000
vt 0.00000 1.00000
vt 0.00000 1.00000
vt 0.00000 1.00000
vt 0.00000 1.00000
vt 0.00000 1.00000
vt 0.00000 1.00000
vt 0.00000 1.00000
vt 0.00000 1.00000
vt 0.00000 1.00000
vt 0.00000 1.00000
vt 0.00000 1.00000
vt 0.00000 1.00000
vt 0.00000 1.00000
vt 0.00000 1.00000
vt 0.00000 1.00000
usemtl stone
f 1/1 2/2 3/3
f 4/4 5/5 6/6
f 7/7 8/8 9/9
f 10/10 11/11 12/12
f 13/13 14/14 15/15
f 16/16 17/17 18/18
f 19/19 20/20 21/21
f 22/22 23/23 24/24
f 25/25 26/26 27/27
f 28/28 29/29 30/30
f 31/31 32/32 33/33
f 34/34 35/35 36/36
f 37/37 38/38 39/39
f 40/40 41/41 42/42
