# Generated by TyraX. Do not edit - rebaked from the procedural graph of 'pines'.
# 6 instances of res/models/rock.obj
mtllib props.mtl
v -0.0617 10.2961 0.8719
v 0.1640 10.5246 0.4529
v -0.0352 10.5408 1.3256
v -0.0617 10.2961 0.8719
v -0.0352 10.5408 1.3256
v 0.1640 10.5246 0.4529
v -12.6477 10.6343 66.1586
v -13.1665 10.9755 66.5729
v -12.4105 10.9737 65.5577
v -12.6477 10.6343 66.1586
v -12.4105 10.9737 65.5577
v -13.1665 10.9755 66.5729
v -33.7920 10.3372 27.3954
v -33.4213 10.7558 26.6721
v -33.8194 10.7820 28.1702
v -33.7920 10.3372 27.3954
v -33.8194 10.7820 28.1702
v -33.4213 10.7558 26.6721
v 10.3720 10.1515 19.5390
v 11.1194 10.4729 19.5561
v 9.7797 10.5636 19.8739
v 10.3720 10.1515 19.5390
v 9.7797 10.5636 19.8739
v 11.1194 10.4729 19.5561
v -6.1003 10.3422 -4.6331
v -5.3730 10.9035 -5.3773
v -6.4639 10.9116 -3.6953
v -6.1003 10.3422 -4.6331
v -6.4639 10.9116 -3.6953
v -5.3730 10.9035 -5.3773
v -62.7556 10.8958 24.7651
v -62.4956 11.1720 25.2922
v -63.2344 11.1962 24.4760
v -62.7556 10.8958 24.7651
v -63.2344 11.1962 24.4760
v -62.4956 11.1720 25.2922
vt 0.00000 1.00000
vt 0.00000 1.00000
vt 0.00000 1.00000
vt 0.00000 1.00000
vt 0.00000 1.00000
vt 0.00000 1.00000
vt 0.00000 1.00000
vt 0.00000 1.00000
vt 0.00000 1.00000
vt 0.00000 1.00000
vt 0.00000 1.00000
vt 0.00000 1.00000
vt 0.00000 1.00000
vt 0.00000 1.00000
vt 0.00000 1.00000
vt 0.00000 1.00000
vt 0.00000 1.00000
vt 0.00000 1.00000
vt 0.00000 1.00000
vt 0.00000 1.00000
vt 0.00000 1.00000
vt 0.00000 1.00000
vt 0.00000 1.00000
vt 0.00000 1.00000
vt 0.00000 1.00000
vt 0.00000 1.00000
vt 0.00000 1.00000
vt 0.00000 1.00000
vt 0.00000 1.00000
vt 0.00000 1.00000
vt 0.00000 1.00000
vt 0.00000 1.00000
vt 0.00000 1.00000
vt 0.00000 1.00000
vt 0.00000 1.00000
vt 0.00000 1.00000
usemtl stone
f 1/1 2/2 3/3
f 4/4 5/5 6/6
f 7/7 8/8 9/9
f 10/10 11/11 12/12
f 13/13 14/14 15/15
f 16/16 17/17 18/18
f 19/19 20/20 21/21
f 22/22 23/23 24/24
f 25/25 26/26 27/27
f 28/28 29/29 30/30
f 31/31 32/32 33/33
f 34/34 35/35 36/36
