# shed - generated for the night-walk example (see README)
mtllib shed.mtl
v -1.0000 0.0000 -0.8000
v 1.0000 0.0000 -0.8000
v 1.0000 0.6000 -0.8000
v -1.0000 0.6000 -0.8000
v 1.0000 0.0000 -0.8000
v 1.0000 0.0000 0.8000
v 1.0000 0.6000 0.8000
v 1.0000 0.6000 -0.8000
v 1.0000 0.0000 0.8000
v -1.0000 0.0000 0.8000
v -1.0000 0.6000 0.8000
v 1.0000 0.6000 0.8000
v -1.0000 0.0000 0.8000
v -1.0000 0.0000 -0.8000
v -1.0000 0.6000 -0.8000
v -1.0000 0.6000 0.8000
v -1.0000 0.6000 -0.8000
v 1.0000 0.6000 -0.8000
v 0.0000 0.9500 -0.8000
v -1.0000 0.6000 0.8000
v 1.0000 0.6000 0.8000
v 0.0000 0.9500 0.8000
v -1.0800 0.6000 -0.8800
v -1.0800 0.6000 0.8800
v 0.0000 0.9500 0.8800
v 0.0000 0.9500 -0.8800
v 1.0800 0.6000 0.8800
v 1.0800 0.6000 -0.8800
v 0.0000 0.9500 -0.8800
v 0.0000 0.9500 0.8800
vt 0.0000 0.0000
vt 0.5000 0.0000
vt 0.5000 0.4500
vt 0.0000 0.4500
vt 0.5000 0.0000
vt 1.0000 0.0000
vt 1.0000 0.4500
vt 0.5000 0.4500
vt 0.0000 0.4700
vt 0.5000 0.4700
vt 0.5000 0.9200
vt 0.0000 0.9200
vt 0.5000 0.4700
vt 1.0000 0.4700
vt 1.0000 0.9200
vt 0.5000 0.9200
vt 0.0200 0.9400
vt 0.2400 0.9400
vt 0.1300 1.0000
vt 0.2600 0.9400
vt 0.4800 0.9400
vt 0.3700 1.0000
vt 0.5000 0.9400
vt 0.7400 0.9400
vt 0.7400 1.0000
vt 0.5000 1.0000
vt 0.7600 0.9400
vt 1.0000 0.9400
vt 1.0000 1.0000
vt 0.7600 1.0000
usemtl planks
f 1/1 2/2 3/3
f 1/1 3/3 4/4
f 5/5 6/6 7/7
f 5/5 7/7 8/8
f 9/9 10/10 11/11
f 9/9 11/11 12/12
f 13/13 14/14 15/15
f 13/13 15/15 16/16
f 17/17 18/18 19/19
f 20/20 22/22 21/21
usemtl roof
f 23/23 24/24 25/25
f 23/23 25/25 26/26
f 27/27 28/28 29/29
f 27/27 29/29 30/30
