# pine - generated for the night-walk example (see README)
mtllib props.mtl
v 0.0495 0.0000 0.0495
v 0.0495 0.5800 0.0495
v -0.0495 0.0000 0.0495
v -0.0495 0.5800 0.0495
v -0.0495 0.0000 -0.0495
v -0.0495 0.5800 -0.0495
v 0.0495 0.0000 -0.0495
v 0.0495 0.5800 -0.0495
v 0.5200 0.4500 0.0000
v 0.3677 0.4500 0.3677
v 0.0000 0.4500 0.5200
v -0.3677 0.4500 0.3677
v -0.5200 0.4500 0.0000
v -0.3677 0.4500 -0.3677
v -0.0000 0.4500 -0.5200
v 0.3677 0.4500 -0.3677
v 0.0000 1.4500 0.0000
v 0.4100 0.9500 0.0000
v 0.2899 0.9500 0.2899
v 0.0000 0.9500 0.4100
v -0.2899 0.9500 0.2899
v -0.4100 0.9500 0.0000
v -0.2899 0.9500 -0.2899
v -0.0000 0.9500 -0.4100
v 0.2899 0.9500 -0.2899
v 0.0000 1.9500 0.0000
v 0.2900 1.4500 0.0000
v 0.2051 1.4500 0.2051
v 0.0000 1.4500 0.2900
v -0.2051 1.4500 0.2051
v -0.2900 1.4500 0.0000
v -0.2051 1.4500 -0.2051
v -0.0000 1.4500 -0.2900
v 0.2051 1.4500 -0.2051
v 0.0000 2.4500 0.0000
v 0.1700 1.9200 0.0000
v 0.1202 1.9200 0.1202
v 0.0000 1.9200 0.1700
v -0.1202 1.9200 0.1202
v -0.1700 1.9200 0.0000
v -0.1202 1.9200 -0.1202
v -0.0000 1.9200 -0.1700
v 0.1202 1.9200 -0.1202
v 0.0000 2.9500 0.0000
usemtl bark
f 1 3 4
f 1 4 2
f 3 5 6
f 3 6 4
f 5 7 8
f 5 8 6
f 7 1 2
f 7 2 8
usemtl needles
f 9 10 17
f 10 11 17
f 11 12 17
f 12 13 17
f 13 14 17
f 14 15 17
f 15 16 17
f 16 9 17
f 9 11 10
f 9 12 11
f 9 13 12
f 9 14 13
f 9 15 14
f 9 16 15
f 18 19 26
f 19 20 26
f 20 21 26
f 21 22 26
f 22 23 26
f 23 24 26
f 24 25 26
f 25 18 26
f 18 20 19
f 18 21 20
f 18 22 21
f 18 23 22
f 18 24 23
f 18 25 24
f 27 28 35
f 28 29 35
f 29 30 35
f 30 31 35
f 31 32 35
f 32 33 35
f 33 34 35
f 34 27 35
f 27 29 28
f 27 30 29
f 27 31 30
f 27 32 31
f 27 33 32
f 27 34 33
f 36 37 44
f 37 38 44
f 38 39 44
f 39 40 44
f 40 41 44
f 41 42 44
f 42 43 44
f 43 36 44
f 36 38 37
f 36 39 38
f 36 40 39
f 36 41 40
f 36 42 41
f 36 43 42
