# Generated by TyraX. Do not edit - rebaked from the procedural graph of 'pines'.
# 7 instances of res/models/rock.obj
mtllib props.mtl
v -8.5511 19.7902 -42.2285
v -8.7948 20.2297 -41.4626
v -8.5629 20.2475 -42.9985
v -8.5511 19.7902 -42.2285
v -8.5629 20.2475 -42.9985
v -8.7948 20.2297 -41.4626
v 42.8723 12.2929 41.7555
v 44.2664 13.2535 40.5989
v 42.2103 13.2242 43.4023
v 42.8723 12.2929 41.7555
v 42.2103 13.2242 43.4023
v 44.2664 13.2535 40.5989
v 44.5218 13.5465 15.3216
v 44.9453 14.1368 16.4583
v 43.7806 14.2561 14.4929
v 44.5218 13.5465 15.3216
v 43.7806 14.2561 14.4929
v 44.9453 14.1368 16.4583
v -15.5516 18.1629 -3.2058
v -16.5766 18.6149 -3.0355
v -14.7958 18.7717 -3.7399
v -15.5516 18.1629 -3.2058
v -14.7958 18.7717 -3.7399
v -16.5766 18.6149 -3.0355
v 32.5252 13.3026 36.7599
v 31.5801 13.8875 36.2490
v 33.5810 13.8631 36.7953
v 32.5252 13.3026 36.7599
v 33.5810 13.8631 36.7953
v 31.5801 13.8875 36.2490
v 15.3559 17.1014 -11.2030
v 16.2731 17.7197 -12.1939
v 15.0796 17.8321 -9.9793
v 15.3559 17.1014 -11.2030
v 15.0796 17.8321 -9.9793
v 16.2731 17.7197 -12.1939
v 21.4413 14.2131 20.9426
v 21.2133 14.5016 20.4000
v 21.8907 14.5200 21.2809
v 21.4413 14.2131 20.9426
v 21.8907 14.5200 21.2809
v 21.2133 14.5016 20.4000
vt 0.00000 1.00000
vt 0.00000 1.00000
vt 0.00000 1.00000
vt 0.00000 1.00000
vt 0.00000 1.00000
vt 0.00000 1.00000
vt 0.00000 1.00000
vt 0.00000 1.00000
vt 0.00000 1.00000
vt 0.00000 1.00000
vt 0.00000 1.00000
vt 0.00000 1.00000
vt 0.00000 1.00000
vt 0.00000 1.00000
vt 0.00000 1.00000
vt 0.00000 1.00000
vt 0.00000 1.00000
vt 0.00000 1.00000
vt 0.00000 1.00000
vt 0.00000 1.00000
vt 0.00000 1.00000
vt 0.00000 1.00000
vt 0.00000 1.00000
vt 0.00000 1.00000
vt 0.00000 1.00000
vt 0.00000 1.00000
vt 0.00000 1.00000
vt 0.00000 1.00000
vt 0.00000 1.00000
vt 0.00000 1.00000
vt 0.00000 1.00000
vt 0.00000 1.00000
vt 0.00000 1.00000
vt 0.00000 1.00000
vt 0.00000 1.00000
vt 0.00000 1.00000
vt 0.00000 1.00000
vt 0.00000 1.00000
vt 0.00000 1.00000
vt 0.00000 1.00000
vt 0.00000 1.00000
vt 0.00000 1.00000
usemtl stone
f 1/1 2/2 3/3
f 4/4 5/5 6/6
f 7/7 8/8 9/9
f 10/10 11/11 12/12
f 13/13 14/14 15/15
f 16/16 17/17 18/18
f 19/19 20/20 21/21
f 22/22 23/23 24/24
f 25/25 26/26 27/27
f 28/28 29/29 30/30
f 31/31 32/32 33/33
f 34/34 35/35 36/36
f 37/37 38/38 39/39
f 40/40 41/41 42/42
