# Generated by TyraX. Do not edit - rebaked from the procedural graph of 'pines'.
# 9 instances of res/models/rock.obj
mtllib props.mtl
v 11.1654 19.5538 43.7451
v 10.2546 20.2211 44.5947
v 11.6696 20.2460 42.6613
v 11.1654 19.5538 43.7451
v 11.6696 20.2460 42.6613
v 10.2546 20.2211 44.5947
v -5.1550 20.7215 19.1677
v -6.0456 21.1960 18.9239
v -4.2854 21.1997 18.9545
v -5.1550 20.7215 19.1677
v -4.2854 21.1997 18.9545
v -6.0456 21.1960 18.9239
v -51.9584 23.8676 -10.8520
v -52.9474 24.4383 -11.3632
v -50.8969 24.4742 -10.8207
v -51.9584 23.8676 -10.8520
v -50.8969 24.4742 -10.8207
v -52.9474 24.4383 -11.3632
v -22.7601 22.8032 1.9048
v -22.7024 23.3310 0.8401
v -22.3587 23.3870 2.8274
v -22.7601 22.8032 1.9048
v -22.3587 23.3870 2.8274
v -22.7024 23.3310 0.8401
v -8.2929 24.2408 -13.7030
v -8.3943 24.8028 -12.5213
v -8.7730 24.8693 -14.7134
v -8.2929 24.2408 -13.7030
v -8.7730 24.8693 -14.7134
v -8.3943 24.8028 -12.5213
v 29.1786 24.1791 -15.1326
v 30.0369 24.6722 -15.8471
v 28.8653 24.7684 -14.1431
v 29.1786 24.1791 -15.1326
v 28.8653 24.7684 -14.1431
v 30.0369 24.6722 -15.8471
v -24.0060 23.6987 -8.9112
v -24.7709 24.2142 -9.4021
v -23.0780 24.1250 -8.8867
v -24.0060 23.6987 -8.9112
v -23.0780 24.1250 -8.8867
v -24.7709 24.2142 -9.4021
v -0.8882 20.6602 22.4859
v -1.3725 21.0211 22.9516
v -0.6815 21.0060 21.8584
v -0.8882 20.6602 22.4859
v -0.6815 21.0060 21.8584
v -1.3725 21.0211 22.9516
v 18.4101 18.4766 49.8315
v 19.5582 19.0040 50.6075
v 17.1771 19.2386 49.8352
v 18.4101 18.4766 49.8315
v 17.1771 19.2386 49.8352
v 19.5582 19.0040 50.6075
vt 0.00000 1.00000
vt 0.00000 1.00000
vt 0.00000 1.00000
vt 0.00000 1.00000
vt 0.00000 1.00000
vt 0.00000 1.00000
vt 0.00000 1.00000
vt 0.00000 1.00000
vt 0.00000 1.00000
vt 0.00000 1.00000
vt 0.00000 1.00000
vt 0.00000 1.00000
vt 0.00000 1.00000
vt 0.00000 1.00000
vt 0.00000 1.00000
vt 0.00000 1.00000
vt 0.00000 1.00000
vt 0.00000 1.00000
vt 0.00000 1.00000
vt 0.00000 1.00000
vt 0.00000 1.00000
vt 0.00000 1.00000
vt 0.00000 1.00000
vt 0.00000 1.00000
vt 0.00000 1.00000
vt 0.00000 1.00000
vt 0.00000 1.00000
vt 0.00000 1.00000
vt 0.00000 1.00000
vt 0.00000 1.00000
vt 0.00000 1.00000
vt 0.00000 1.00000
vt 0.00000 1.00000
vt 0.00000 1.00000
vt 0.00000 1.00000
vt 0.00000 1.00000
vt 0.00000 1.00000
vt 0.00000 1.00000
vt 0.00000 1.00000
vt 0.00000 1.00000
vt 0.00000 1.00000
vt 0.00000 1.00000
vt 0.00000 1.00000
vt 0.00000 1.00000
vt 0.00000 1.00000
vt 0.00000 1.00000
vt 0.00000 1.00000
vt 0.00000 1.00000
vt 0.00000 1.00000
vt 0.00000 1.00000
vt 0.00000 1.00000
vt 0.00000 1.00000
vt 0.00000 1.00000
vt 0.00000 1.00000
usemtl stone
f 1/1 2/2 3/3
f 4/4 5/5 6/6
f 7/7 8/8 9/9
f 10/10 11/11 12/12
f 13/13 14/14 15/15
f 16/16 17/17 18/18
f 19/19 20/20 21/21
f 22/22 23/23 24/24
f 25/25 26/26 27/27
f 28/28 29/29 30/30
f 31/31 32/32 33/33
f 34/34 35/35 36/36
f 37/37 38/38 39/39
f 40/40 41/41 42/42
f 43/43 44/44 45/45
f 46/46 47/47 48/48
f 49/49 50/50 51/51
f 52/52 53/53 54/54
