# Generated by TyraX. Do not edit - rebaked from the procedural graph of 'pines'.
# 8 instances of res/models/rock.obj
mtllib props.mtl
v 1.9711 23.9612 -38.8821
v 1.1777 24.3559 -39.3753
v 2.8321 24.4517 -38.9158
v 1.9711 23.9612 -38.8821
v 2.8321 24.4517 -38.9158
v 1.1777 24.3559 -39.3753
v 5.8945 23.6622 -33.0726
v 7.5510 24.3729 -32.6562
v 4.4230 24.6067 -32.6103
v 5.8945 23.6622 -33.0726
v 4.4230 24.6067 -32.6103
v 7.5510 24.3729 -32.6562
v -3.8078 24.4364 -37.7343
v -4.7416 24.9151 -37.0626
v -3.4207 25.0623 -38.7048
v -3.8078 24.4364 -37.7343
v -3.4207 25.0623 -38.7048
v -4.7416 24.9151 -37.0626
v 0.4349 24.2346 -25.1313
v -0.8672 24.7559 -25.4868
v 1.5624 25.0638 -25.3371
v 0.4349 24.2346 -25.1313
v 1.5624 25.0638 -25.3371
v -0.8672 24.7559 -25.4868
v 48.7026 20.7077 -21.1959
v 49.5537 21.4658 -22.5484
v 48.5959 21.5832 -19.7087
v 48.7026 20.7077 -21.1959
v 48.5959 21.5832 -19.7087
v 49.5537 21.4658 -22.5484
v 33.2983 20.9392 2.1158
v 33.2079 21.4490 3.1609
v 32.8515 21.4781 1.2157
v 33.2983 20.9392 2.1158
v 32.8515 21.4781 1.2157
v 33.2079 21.4490 3.1609
v 21.5867 22.2377 -48.8967
v 22.6865 22.7751 -48.4191
v 20.4872 22.8872 -48.7581
v 21.5867 22.2377 -48.8967
v 20.4872 22.8872 -48.7581
v 22.6865 22.7751 -48.4191
v 50.2860 20.6676 -28.6187
v 48.3003 21.7706 -28.5349
v 52.0015 21.6769 -29.6068
v 50.2860 20.6676 -28.6187
v 52.0015 21.6769 -29.6068
v 48.3003 21.7706 -28.5349
vt 0.00000 1.00000
vt 0.00000 1.00000
vt 0.00000 1.00000
vt 0.00000 1.00000
vt 0.00000 1.00000
vt 0.00000 1.00000
vt 0.00000 1.00000
vt 0.00000 1.00000
vt 0.00000 1.00000
vt 0.00000 1.00000
vt 0.00000 1.00000
vt 0.00000 1.00000
vt 0.00000 1.00000
vt 0.00000 1.00000
vt 0.00000 1.00000
vt 0.00000 1.00000
vt 0.00000 1.00000
vt 0.00000 1.00000
vt 0.00000 1.00000
vt 0.00000 1.00000
vt 0.00000 1.00000
vt 0.00000 1.00000
vt 0.00000 1.00000
vt 0.00000 1.00000
vt 0.00000 1.00000
vt 0.00000 1.00000
vt 0.00000 1.00000
vt 0.00000 1.00000
vt 0.00000 1.00000
vt 0.00000 1.00000
vt 0.00000 1.00000
vt 0.00000 1.00000
vt 0.00000 1.00000
vt 0.00000 1.00000
vt 0.00000 1.00000
vt 0.00000 1.00000
vt 0.00000 1.00000
vt 0.00000 1.00000
vt 0.00000 1.00000
vt 0.00000 1.00000
vt 0.00000 1.00000
vt 0.00000 1.00000
vt 0.00000 1.00000
vt 0.00000 1.00000
vt 0.00000 1.00000
vt 0.00000 1.00000
vt 0.00000 1.00000
vt 0.00000 1.00000
usemtl stone
f 1/1 2/2 3/3
f 4/4 5/5 6/6
f 7/7 8/8 9/9
f 10/10 11/11 12/12
f 13/13 14/14 15/15
f 16/16 17/17 18/18
f 19/19 20/20 21/21
f 22/22 23/23 24/24
f 25/25 26/26 27/27
f 28/28 29/29 30/30
f 31/31 32/32 33/33
f 34/34 35/35 36/36
f 37/37 38/38 39/39
f 40/40 41/41 42/42
f 43/43 44/44 45/45
f 46/46 47/47 48/48
