# Generated by TyraX. Do not edit - rebaked from the procedural graph of 'pines'.
# 27 instances of res/models/rock.obj
mtllib props.mtl
v -45.0099 10.8641 50.5264
v -45.4545 11.5267 49.3693
v -44.0535 11.4803 51.2969
v -45.0099 10.8641 50.5264
v -44.0535 11.4803 51.2969
v -45.4545 11.5267 49.3693
v -33.0421 10.1786 -14.5606
v -34.3899 10.9781 -14.2652
v -32.0088 10.8185 -15.5371
v -33.0421 10.1786 -14.5606
v -32.0088 10.8185 -15.5371
v -34.3899 10.9781 -14.2652
v 6.7272 10.1454 -0.7443
v 6.0134 10.8292 -1.8905
v 7.8947 10.8287 -0.1447
v 6.7272 10.1454 -0.7443
v 7.8947 10.8287 -0.1447
v 6.0134 10.8292 -1.8905
v -26.5156 12.2638 52.2259
v -25.7800 12.9936 53.3301
v -27.7998 12.8284 51.7533
v -26.5156 12.2638 52.2259
v -27.7998 12.8284 51.7533
v -25.7800 12.9936 53.3301
v 26.6605 10.4563 -8.5182
v 25.9276 10.8396 -8.6291
v 27.3377 10.8493 -8.7476
v 26.6605 10.4563 -8.5182
v 27.3377 10.8493 -8.7476
v 25.9276 10.8396 -8.6291
v 10.7693 11.6516 41.1632
v 10.4725 12.3037 42.4767
v 10.3844 12.3582 39.9417
v 10.7693 11.6516 41.1632
v 10.3844 12.3582 39.9417
v 10.4725 12.3037 42.4767
v -44.4395 9.5100 -17.7450
v -43.5183 10.3586 -16.4363
v -45.9219 10.2692 -18.3468
v -44.4395 9.5100 -17.7450
v -45.9219 10.2692 -18.3468
v -43.5183 10.3586 -16.4363
v -31.2216 10.7177 37.0256
v -32.0250 11.0770 36.6968
v -30.4429 11.1746 36.8567
v -31.2216 10.7177 37.0256
v -30.4429 11.1746 36.8567
v -32.0250 11.0770 36.6968
v -46.5817 9.6778 -26.3791
v -45.8408 10.1393 -26.1748
v -47.3576 10.0601 -26.2379
v -46.5817 9.6778 -26.3791
v -47.3576 10.0601 -26.2379
v -45.8408 10.1393 -26.1748
v 0.7816 10.6728 -18.8500
v 0.0734 11.5554 -20.5225
v 2.2526 11.5644 -17.8813
v 0.7816 10.6728 -18.8500
v 2.2526 11.5644 -17.8813
v 0.0734 11.5554 -20.5225
v -24.0042 10.4190 -16.9606
v -22.4596 11.4164 -18.0340
v -24.9416 11.4470 -15.4126
v -24.0042 10.4190 -16.9606
v -24.9416 11.4470 -15.4126
v -22.4596 11.4164 -18.0340
v 6.2341 10.3179 -11.3166
v 5.7318 10.5787 -11.7333
v 6.7887 10.7056 -11.1974
v 6.2341 10.3179 -11.3166
v 6.7887 10.7056 -11.1974
v 5.7318 10.5787 -11.7333
v 11.6292 11.1219 28.5945
v 12.4435 11.6537 29.3646
v 10.5999 11.7163 28.3536
v 11.6292 11.1219 28.5945
v 10.5999 11.7163 28.3536
v 12.4435 11.6537 29.3646
v 41.9595 10.7845 -7.0609
v 41.3362 11.4375 -8.1474
v 42.9584 11.4573 -6.3850
v 41.9595 10.7845 -7.0609
v 42.9584 11.4573 -6.3850
v 41.3362 11.4375 -8.1474
v 21.9493 11.0220 22.3657
v 21.4571 11.4197 23.0427
v 22.0001 11.4492 21.5685
v 21.9493 11.0220 22.3657
v 22.0001 11.4492 21.5685
v 21.4571 11.4197 23.0427
v 18.7609 11.8779 -50.3004
v 18.5876 12.4445 -49.1800
v 18.4147 12.4881 -51.3218
v 18.7609 11.8779 -50.3004
v 18.4147 12.4881 -51.3218
v 18.5876 12.4445 -49.1800
v 26.3336 12.1252 45.3220
v 27.0518 12.6383 44.8306
v 25.8434 12.5879 46.0437
v 26.3336 12.1252 45.3220
v 25.8434 12.5879 46.0437
v 27.0518 12.6383 44.8306
v 29.4392 10.5607 10.0714
v 30.8255 11.3330 10.6971
v 27.9574 11.2828 10.3247
v 29.4392 10.5607 10.0714
v 27.9574 11.2828 10.3247
v 30.8255 11.3330 10.6971
v -36.6198 10.0331 32.4328
v -35.6306 10.5002 31.9595
v -37.1651 10.6355 33.2680
v -36.6198 10.0331 32.4328
v -37.1651 10.6355 33.2680
v -35.6306 10.5002 31.9595
v 15.5692 10.0094 -8.5281
v 17.4817 10.8614 -8.7941
v 14.1827 11.0633 -7.4216
v 15.5692 10.0094 -8.5281
v 14.1827 11.0633 -7.4216
v 17.4817 10.8614 -8.7941
v -0.1380 11.8325 -39.1473
v 0.0703 12.2894 -40.0116
v 0.0204 12.3240 -38.3176
v -0.1380 11.8325 -39.1473
v 0.0204 12.3240 -38.3176
v 0.0703 12.2894 -40.0116
v -21.2698 11.6936 -44.6866
v -20.1870 12.3880 -43.5820
v -22.5495 12.6106 -45.2055
v -21.2698 11.6936 -44.6866
v -22.5495 12.6106 -45.2055
v -20.1870 12.3880 -43.5820
v 7.5181 11.5348 -33.5650
v 6.7843 12.0723 -34.2664
v 8.5192 12.0099 -33.3834
v 7.5181 11.5348 -33.5650
v 8.5192 12.0099 -33.3834
v 6.7843 12.0723 -34.2664
v -37.4482 9.4508 13.2060
v -38.3760 10.1647 14.2731
v -37.2440 10.1460 11.8374
v -37.4482 9.4508 13.2060
v -37.2440 10.1460 11.8374
v -38.3760 10.1647 14.2731
v 15.7240 11.6561 -41.4386
v 16.1557 12.1712 -42.5015
v 15.9792 12.2212 -40.3769
v 15.7240 11.6561 -41.4386
v 15.9792 12.2212 -40.3769
v 16.1557 12.1712 -42.5015
v 22.0714 11.5706 -48.3097
v 23.3264 12.2027 -48.3477
v 21.0335 12.2306 -47.6966
v 22.0714 11.5706 -48.3097
v 21.0335 12.2306 -47.6966
v 23.3264 12.2027 -48.3477
v -10.8114 11.7823 -40.0721
v -11.7194 12.6162 -38.9264
v -10.4483 12.5510 -41.4808
v -10.8114 11.7823 -40.0721
v -10.4483 12.5510 -41.4808
v -11.7194 12.6162 -38.9264
vt 0.00000 1.00000
vt 0.00000 1.00000
vt 0.00000 1.00000
vt 0.00000 1.00000
vt 0.00000 1.00000
vt 0.00000 1.00000
vt 0.00000 1.00000
vt 0.00000 1.00000
vt 0.00000 1.00000
vt 0.00000 1.00000
vt 0.00000 1.00000
vt 0.00000 1.00000
vt 0.00000 1.00000
vt 0.00000 1.00000
vt 0.00000 1.00000
vt 0.00000 1.00000
vt 0.00000 1.00000
vt 0.00000 1.00000
vt 0.00000 1.00000
vt 0.00000 1.00000
vt 0.00000 1.00000
vt 0.00000 1.00000
vt 0.00000 1.00000
vt 0.00000 1.00000
vt 0.00000 1.00000
vt 0.00000 1.00000
vt 0.00000 1.00000
vt 0.00000 1.00000
vt 0.00000 1.00000
vt 0.00000 1.00000
vt 0.00000 1.00000
vt 0.00000 1.00000
vt 0.00000 1.00000
vt 0.00000 1.00000
vt 0.00000 1.00000
vt 0.00000 1.00000
vt 0.00000 1.00000
vt 0.00000 1.00000
vt 0.00000 1.00000
vt 0.00000 1.00000
vt 0.00000 1.00000
vt 0.00000 1.00000
vt 0.00000 1.00000
vt 0.00000 1.00000
vt 0.00000 1.00000
vt 0.00000 1.00000
vt 0.00000 1.00000
vt 0.00000 1.00000
vt 0.00000 1.00000
vt 0.00000 1.00000
vt 0.00000 1.00000
vt 0.00000 1.00000
vt 0.00000 1.00000
vt 0.00000 1.00000
vt 0.00000 1.00000
vt 0.00000 1.00000
vt 0.00000 1.00000
vt 0.00000 1.00000
vt 0.00000 1.00000
vt 0.00000 1.00000
vt 0.00000 1.00000
vt 0.00000 1.00000
vt 0.00000 1.00000
vt 0.00000 1.00000
vt 0.00000 1.00000
vt 0.00000 1.00000
vt 0.00000 1.00000
vt 0.00000 1.00000
vt 0.00000 1.00000
vt 0.00000 1.00000
vt 0.00000 1.00000
vt 0.00000 1.00000
vt 0.00000 1.00000
vt 0.00000 1.00000
vt 0.00000 1.00000
vt 0.00000 1.00000
vt 0.00000 1.00000
vt 0.00000 1.00000
vt 0.00000 1.00000
vt 0.00000 1.00000
vt 0.00000 1.00000
vt 0.00000 1.00000
vt 0.00000 1.00000
vt 0.00000 1.00000
vt 0.00000 1.00000
vt 0.00000 1.00000
vt 0.00000 1.00000
vt 0.00000 1.00000
vt 0.00000 1.00000
vt 0.00000 1.00000
vt 0.00000 1.00000
vt 0.00000 1.00000
vt 0.00000 1.00000
vt 0.00000 1.00000
vt 0.00000 1.00000
vt 0.00000 1.00000
vt 0.00000 1.00000
vt 0.00000 1.00000
vt 0.00000 1.00000
vt 0.00000 1.00000
vt 0.00000 1.00000
vt 0.00000 1.00000
vt 0.00000 1.00000
vt 0.00000 1.00000
vt 0.00000 1.00000
vt 0.00000 1.00000
vt 0.00000 1.00000
vt 0.00000 1.00000
vt 0.00000 1.00000
vt 0.00000 1.00000
vt 0.00000 1.00000
vt 0.00000 1.00000
vt 0.00000 1.00000
vt 0.00000 1.00000
vt 0.00000 1.00000
vt 0.00000 1.00000
vt 0.00000 1.00000
vt 0.00000 1.00000
vt 0.00000 1.00000
vt 0.00000 1.00000
vt 0.00000 1.00000
vt 0.00000 1.00000
vt 0.00000 1.00000
vt 0.00000 1.00000
vt 0.00000 1.00000
vt 0.00000 1.00000
vt 0.00000 1.00000
vt 0.00000 1.00000
vt 0.00000 1.00000
vt 0.00000 1.00000
vt 0.00000 1.00000
vt 0.00000 1.00000
vt 0.00000 1.00000
vt 0.00000 1.00000
vt 0.00000 1.00000
vt 0.00000 1.00000
vt 0.00000 1.00000
vt 0.00000 1.00000
vt 0.00000 1.00000
vt 0.00000 1.00000
vt 0.00000 1.00000
vt 0.00000 1.00000
vt 0.00000 1.00000
vt 0.00000 1.00000
vt 0.00000 1.00000
vt 0.00000 1.00000
vt 0.00000 1.00000
vt 0.00000 1.00000
vt 0.00000 1.00000
vt 0.00000 1.00000
vt 0.00000 1.00000
vt 0.00000 1.00000
vt 0.00000 1.00000
vt 0.00000 1.00000
vt 0.00000 1.00000
vt 0.00000 1.00000
vt 0.00000 1.00000
vt 0.00000 1.00000
vt 0.00000 1.00000
vt 0.00000 1.00000
vt 0.00000 1.00000
vt 0.00000 1.00000
usemtl stone
f 1/1 2/2 3/3
f 4/4 5/5 6/6
f 7/7 8/8 9/9
f 10/10 11/11 12/12
f 13/13 14/14 15/15
f 16/16 17/17 18/18
f 19/19 20/20 21/21
f 22/22 23/23 24/24
f 25/25 26/26 27/27
f 28/28 29/29 30/30
f 31/31 32/32 33/33
f 34/34 35/35 36/36
f 37/37 38/38 39/39
f 40/40 41/41 42/42
f 43/43 44/44 45/45
f 46/46 47/47 48/48
f 49/49 50/50 51/51
f 52/52 53/53 54/54
f 55/55 56/56 57/57
f 58/58 59/59 60/60
f 61/61 62/62 63/63
f 64/64 65/65 66/66
f 67/67 68/68 69/69
f 70/70 71/71 72/72
f 73/73 74/74 75/75
f 76/76 77/77 78/78
f 79/79 80/80 81/81
f 82/82 83/83 84/84
f 85/85 86/86 87/87
f 88/88 89/89 90/90
f 91/91 92/92 93/93
f 94/94 95/95 96/96
f 97/97 98/98 99/99
f 100/100 101/101 102/102
f 103/103 104/104 105/105
f 106/106 107/107 108/108
f 109/109 110/110 111/111
f 112/112 113/113 114/114
f 115/115 116/116 117/117
f 118/118 119/119 120/120
f 121/121 122/122 123/123
f 124/124 125/125 126/126
f 127/127 128/128 129/129
f 130/130 131/131 132/132
f 133/133 134/134 135/135
f 136/136 137/137 138/138
f 139/139 140/140 141/141
f 142/142 143/143 144/144
f 145/145 146/146 147/147
f 148/148 149/149 150/150
f 151/151 152/152 153/153
f 154/154 155/155 156/156
f 157/157 158/158 159/159
f 160/160 161/161 162/162
