# Generated by TyraX. Do not edit - rebaked from the procedural graph of 'pines'.
# 16 instances of res/models/rock.obj
mtllib props.mtl
v 34.5912 12.8770 34.1808
v 34.2974 13.4936 32.9749
v 35.3157 13.5708 35.0914
v 34.5912 12.8770 34.1808
v 35.3157 13.5708 35.0914
v 34.2974 13.4936 32.9749
v 2.3573 10.9582 51.1968
v 1.5467 11.4488 50.4788
v 3.3379 11.5487 51.3984
v 2.3573 10.9582 51.1968
v 3.3379 11.5487 51.3984
v 1.5467 11.4488 50.4788
v 35.5144 12.8412 -25.4638
v 35.4904 13.6297 -27.0504
v 36.1754 13.7215 -24.1263
v 35.5144 12.8412 -25.4638
v 36.1754 13.7215 -24.1263
v 35.4904 13.6297 -27.0504
v -6.3542 12.8747 5.3127
v -6.8504 13.3016 4.4960
v -5.5768 13.3940 5.7286
v -6.3542 12.8747 5.3127
v -5.5768 13.3940 5.7286
v -6.8504 13.3016 4.4960
v -49.0710 11.3351 -47.3849
v -50.1957 11.8174 -46.9689
v -48.4384 11.9798 -48.2686
v -49.0710 11.3351 -47.3849
v -48.4384 11.9798 -48.2686
v -50.1957 11.8174 -46.9689
v 15.3361 12.8514 -47.4509
v 16.4129 13.3278 -47.2144
v 14.3839 13.5025 -47.2320
v 15.3361 12.8514 -47.4509
v 14.3839 13.5025 -47.2320
v 16.4129 13.3278 -47.2144
v 5.5072 13.4902 -7.0526
v 5.1792 14.0231 -6.0668
v 5.3901 14.0593 -8.0351
v 5.5072 13.4902 -7.0526
v 5.3901 14.0593 -8.0351
v 5.1792 14.0231 -6.0668
v -3.5671 13.4366 -3.3499
v -4.4453 13.8435 -3.9241
v -2.6399 14.0287 -3.3339
v -3.5671 13.4366 -3.3499
v -2.6399 14.0287 -3.3339
v -4.4453 13.8435 -3.9241
v -36.5411 12.9135 -28.0857
v -37.3443 13.4576 -28.9182
v -35.4918 13.5266 -27.7947
v -36.5411 12.9135 -28.0857
v -35.4918 13.5266 -27.7947
v -37.3443 13.4576 -28.9182
v 51.8407 12.7151 -39.6503
v 53.0030 13.2880 -39.6554
v 50.8879 13.3059 -39.0605
v 51.8407 12.7151 -39.6503
v 50.8879 13.3059 -39.0605
v 53.0030 13.2880 -39.6554
v -31.2282 12.3126 -5.8819
v -31.0165 12.9436 -4.5282
v -32.0483 13.0422 -6.8668
v -31.2282 12.3126 -5.8819
v -32.0483 13.0422 -6.8668
v -31.0165 12.9436 -4.5282
v -4.8314 10.4095 48.7275
v -5.1306 11.0030 47.4917
v -3.9989 11.0854 49.5832
v -4.8314 10.4095 48.7275
v -3.9989 11.0854 49.5832
v -5.1306 11.0030 47.4917
v -15.2994 13.4045 -6.7609
v -14.7172 13.9198 -7.6001
v -15.3884 13.9343 -5.7800
v -15.2994 13.4045 -6.7609
v -15.3884 13.9343 -5.7800
v -14.7172 13.9198 -7.6001
v -33.3753 10.5050 38.1474
v -31.6810 11.2629 37.4789
v -34.4116 11.5556 39.3892
v -33.3753 10.5050 38.1474
v -34.4116 11.5556 39.3892
v -31.6810 11.2629 37.4789
v 37.9488 12.7514 39.8278
v 37.2147 13.2048 40.4713
v 38.2764 13.2965 38.9894
v 37.9488 12.7514 39.8278
v 38.2764 13.2965 38.9894
v 37.2147 13.2048 40.4713
v 25.4552 12.9397 10.3514
v 25.3227 13.2818 9.6506
v 25.9563 13.2790 10.8328
v 25.4552 12.9397 10.3514
v 25.9563 13.2790 10.8328
v 25.3227 13.2818 9.6506
vt 0.00000 1.00000
vt 0.00000 1.00000
vt 0.00000 1.00000
vt 0.00000 1.00000
vt 0.00000 1.00000
vt 0.00000 1.00000
vt 0.00000 1.00000
vt 0.00000 1.00000
vt 0.00000 1.00000
vt 0.00000 1.00000
vt 0.00000 1.00000
vt 0.00000 1.00000
vt 0.00000 1.00000
vt 0.00000 1.00000
vt 0.00000 1.00000
vt 0.00000 1.00000
vt 0.00000 1.00000
vt 0.00000 1.00000
vt 0.00000 1.00000
vt 0.00000 1.00000
vt 0.00000 1.00000
vt 0.00000 1.00000
vt 0.00000 1.00000
vt 0.00000 1.00000
vt 0.00000 1.00000
vt 0.00000 1.00000
vt 0.00000 1.00000
vt 0.00000 1.00000
vt 0.00000 1.00000
vt 0.00000 1.00000
vt 0.00000 1.00000
vt 0.00000 1.00000
vt 0.00000 1.00000
vt 0.00000 1.00000
vt 0.00000 1.00000
vt 0.00000 1.00000
vt 0.00000 1.00000
vt 0.00000 1.00000
vt 0.00000 1.00000
vt 0.00000 1.00000
vt 0.00000 1.00000
vt 0.00000 1.00000
vt 0.00000 1.00000
vt 0.00000 1.00000
vt 0.00000 1.00000
vt 0.00000 1.00000
vt 0.00000 1.00000
vt 0.00000 1.00000
vt 0.00000 1.00000
vt 0.00000 1.00000
vt 0.00000 1.00000
vt 0.00000 1.00000
vt 0.00000 1.00000
vt 0.00000 1.00000
vt 0.00000 1.00000
vt 0.00000 1.00000
vt 0.00000 1.00000
vt 0.00000 1.00000
vt 0.00000 1.00000
vt 0.00000 1.00000
vt 0.00000 1.00000
vt 0.00000 1.00000
vt 0.00000 1.00000
vt 0.00000 1.00000
vt 0.00000 1.00000
vt 0.00000 1.00000
vt 0.00000 1.00000
vt 0.00000 1.00000
vt 0.00000 1.00000
vt 0.00000 1.00000
vt 0.00000 1.00000
vt 0.00000 1.00000
vt 0.00000 1.00000
vt 0.00000 1.00000
vt 0.00000 1.00000
vt 0.00000 1.00000
vt 0.00000 1.00000
vt 0.00000 1.00000
vt 0.00000 1.00000
vt 0.00000 1.00000
vt 0.00000 1.00000
vt 0.00000 1.00000
vt 0.00000 1.00000
vt 0.00000 1.00000
vt 0.00000 1.00000
vt 0.00000 1.00000
vt 0.00000 1.00000
vt 0.00000 1.00000
vt 0.00000 1.00000
vt 0.00000 1.00000
vt 0.00000 1.00000
vt 0.00000 1.00000
vt 0.00000 1.00000
vt 0.00000 1.00000
vt 0.00000 1.00000
vt 0.00000 1.00000
usemtl stone
f 1/1 2/2 3/3
f 4/4 5/5 6/6
f 7/7 8/8 9/9
f 10/10 11/11 12/12
f 13/13 14/14 15/15
f 16/16 17/17 18/18
f 19/19 20/20 21/21
f 22/22 23/23 24/24
f 25/25 26/26 27/27
f 28/28 29/29 30/30
f 31/31 32/32 33/33
f 34/34 35/35 36/36
f 37/37 38/38 39/39
f 40/40 41/41 42/42
f 43/43 44/44 45/45
f 46/46 47/47 48/48
f 49/49 50/50 51/51
f 52/52 53/53 54/54
f 55/55 56/56 57/57
f 58/58 59/59 60/60
f 61/61 62/62 63/63
f 64/64 65/65 66/66
f 67/67 68/68 69/69
f 70/70 71/71 72/72
f 73/73 74/74 75/75
f 76/76 77/77 78/78
f 79/79 80/80 81/81
f 82/82 83/83 84/84
f 85/85 86/86 87/87
f 88/88 89/89 90/90
f 91/91 92/92 93/93
f 94/94 95/95 96/96
