# Generated by TyraX. Do not edit - rebaked from the procedural graph of 'pines'.
# 4 instances of res/models/rock.obj
mtllib props.mtl
v 50.8226 27.7884 0.4867
v 49.7210 28.2652 0.2599
v 51.7825 28.4669 0.2760
v 50.8226 27.7884 0.4867
v 51.7825 28.4669 0.2760
v 49.7210 28.2652 0.2599
v 10.8433 31.5242 -16.2785
v 9.4853 32.2974 -16.0733
v 11.9582 32.2188 -17.0839
v 10.8433 31.5242 -16.2785
v 11.9582 32.2188 -17.0839
v 9.4853 32.2974 -16.0733
v -3.5692 27.2439 50.4675
v -4.8860 27.8316 50.3928
v -2.4785 27.9938 49.9767
v -3.5692 27.2439 50.4675
v -2.4785 27.9938 49.9767
v -4.8860 27.8316 50.3928
v 14.2486 31.3932 -14.2524
v 13.1596 32.1256 -15.2123
v 15.5685 32.1934 -13.8728
v 14.2486 31.3932 -14.2524
v 15.5685 32.1934 -13.8728
v 13.1596 32.1256 -15.2123
vt 0.00000 1.00000
vt 0.00000 1.00000
vt 0.00000 1.00000
vt 0.00000 1.00000
vt 0.00000 1.00000
vt 0.00000 1.00000
vt 0.00000 1.00000
vt 0.00000 1.00000
vt 0.00000 1.00000
vt 0.00000 1.00000
vt 0.00000 1.00000
vt 0.00000 1.00000
vt 0.00000 1.00000
vt 0.00000 1.00000
vt 0.00000 1.00000
vt 0.00000 1.00000
vt 0.00000 1.00000
vt 0.00000 1.00000
vt 0.00000 1.00000
vt 0.00000 1.00000
vt 0.00000 1.00000
vt 0.00000 1.00000
vt 0.00000 1.00000
vt 0.00000 1.00000
usemtl stone
f 1/1 2/2 3/3
f 4/4 5/5 6/6
f 7/7 8/8 9/9
f 10/10 11/11 12/12
f 13/13 14/14 15/15
f 16/16 17/17 18/18
f 19/19 20/20 21/21
f 22/22 23/23 24/24
