# Generated by TyraX. Do not edit - rebaked from the procedural graph of 'pines'.
# 22 instances of res/models/rock.obj
mtllib props.mtl
v 6.5342 9.5563 40.4003
v 5.3387 10.2914 40.8509
v 7.4242 10.2116 39.4756
v 6.5342 9.5563 40.4003
v 7.4242 10.2116 39.4756
v 5.3387 10.2914 40.8509
v -7.9344 12.3644 -29.7849
v -7.7816 12.6581 -30.3603
v -7.8056 12.6844 -29.2352
v -7.9344 12.3644 -29.7849
v -7.8056 12.6844 -29.2352
v -7.7816 12.6581 -30.3603
v 29.8500 11.4812 -42.9296
v 28.9472 11.9723 -42.7717
v 30.5703 11.9635 -43.4607
v 29.8500 11.4812 -42.9296
v 30.5703 11.9635 -43.4607
v 28.9472 11.9723 -42.7717
v 36.9431 10.9254 -30.7316
v 38.1735 11.7429 -29.5130
v 35.3458 11.8268 -31.1075
v 36.9431 10.9254 -30.7316
v 35.3458 11.8268 -31.1075
v 38.1735 11.7429 -29.5130
v 47.0240 10.4556 -17.3584
v 47.1337 10.9619 -16.3319
v 46.5792 11.0550 -18.1988
v 47.0240 10.4556 -17.3584
v 46.5792 11.0550 -18.1988
v 47.1337 10.9619 -16.3319
v 37.4124 8.9711 24.2713
v 36.9523 9.3738 23.6540
v 38.0697 9.3857 24.6142
v 37.4124 8.9711 24.2713
v 38.0697 9.3857 24.6142
v 36.9523 9.3738 23.6540
v 11.3535 10.4081 9.9742
v 10.6331 11.0373 11.1479
v 11.3548 11.1373 8.6861
v 11.3535 10.4081 9.9742
v 11.3548 11.1373 8.6861
v 10.6331 11.0373 11.1479
v 17.8677 10.1783 0.3620
v 17.7470 10.6530 -0.6107
v 18.5348 10.6280 1.0593
v 17.8677 10.1783 0.3620
v 18.5348 10.6280 1.0593
v 17.7470 10.6530 -0.6107
v 27.0631 9.7697 -5.0352
v 28.4336 10.6498 -4.1810
v 25.4898 10.6224 -5.2104
v 27.0631 9.7697 -5.0352
v 25.4898 10.6224 -5.2104
v 28.4336 10.6498 -4.1810
v 43.2471 11.3187 -41.4708
v 42.1675 11.8281 -41.3040
v 44.0372 11.8965 -42.1270
v 43.2471 11.3187 -41.4708
v 44.0372 11.8965 -42.1270
v 42.1675 11.8281 -41.3040
v 42.5585 10.5038 -18.9437
v 43.4947 11.2561 -19.8431
v 42.0567 11.1849 -17.7454
v 42.5585 10.5038 -18.9437
v 42.0567 11.1849 -17.7454
v 43.4947 11.2561 -19.8431
v 45.9345 8.8600 23.2248
v 45.8185 9.3892 22.1294
v 46.5927 9.4176 24.0514
v 45.9345 8.8600 23.2248
v 46.5927 9.4176 24.0514
v 45.8185 9.3892 22.1294
v -37.5790 11.6020 13.7019
v -37.9455 12.3820 15.2785
v -38.0444 12.4471 12.2341
v -37.5790 11.6020 13.7019
v -38.0444 12.4471 12.2341
v -37.9455 12.3820 15.2785
v 4.3367 13.2437 -47.9661
v 4.3077 13.9514 -49.3656
v 4.7950 14.0623 -46.7533
v 4.3367 13.2437 -47.9661
v 4.7950 14.0623 -46.7533
v 4.3077 13.9514 -49.3656
v -10.9780 12.9884 -38.1857
v -12.1441 13.6315 -38.9638
v -9.6962 13.7713 -38.0538
v -10.9780 12.9884 -38.1857
v -9.6962 13.7713 -38.0538
v -12.1441 13.6315 -38.9638
v 29.5492 10.0736 -11.3901
v 30.4304 10.5523 -11.2904
v 28.7466 10.4948 -11.0039
v 29.5492 10.0736 -11.3901
v 28.7466 10.4948 -11.0039
v 30.4304 10.5523 -11.2904
v -20.3864 10.4929 24.3249
v -19.0824 11.1475 24.4025
v -21.5178 11.1839 24.8568
v -20.3864 10.4929 24.3249
v -21.5178 11.1839 24.8568
v -19.0824 11.1475 24.4025
v -33.4780 15.2479 -33.0698
v -32.5067 15.6888 -32.3382
v -34.5003 15.9797 -33.2052
v -33.4780 15.2479 -33.0698
v -34.5003 15.9797 -33.2052
v -32.5067 15.6888 -32.3382
v 38.0357 9.1496 18.1980
v 37.9713 9.8202 19.5276
v 37.5088 9.8652 17.0432
v 38.0357 9.1496 18.1980
v 37.5088 9.8652 17.0432
v 37.9713 9.8202 19.5276
v -28.1121 11.0448 41.2095
v -28.6468 11.6862 42.5543
v -28.4567 11.7535 39.8777
v -28.1121 11.0448 41.2095
v -28.4567 11.7535 39.8777
v -28.6468 11.6862 42.5543
v -17.5490 11.7695 3.2748
v -18.2270 12.1692 2.5052
v -16.7227 12.3830 3.5896
v -17.5490 11.7695 3.2748
v -16.7227 12.3830 3.5896
v -18.2270 12.1692 2.5052
v -50.6852 12.8110 7.2482
v -51.0429 13.4834 8.4405
v -50.7169 13.5250 6.0640
v -50.6852 12.8110 7.2482
v -50.7169 13.5250 6.0640
v -51.0429 13.4834 8.4405
vt 0.00000 1.00000
vt 0.00000 1.00000
vt 0.00000 1.00000
vt 0.00000 1.00000
vt 0.00000 1.00000
vt 0.00000 1.00000
vt 0.00000 1.00000
vt 0.00000 1.00000
vt 0.00000 1.00000
vt 0.00000 1.00000
vt 0.00000 1.00000
vt 0.00000 1.00000
vt 0.00000 1.00000
vt 0.00000 1.00000
vt 0.00000 1.00000
vt 0.00000 1.00000
vt 0.00000 1.00000
vt 0.00000 1.00000
vt 0.00000 1.00000
vt 0.00000 1.00000
vt 0.00000 1.00000
vt 0.00000 1.00000
vt 0.00000 1.00000
vt 0.00000 1.00000
vt 0.00000 1.00000
vt 0.00000 1.00000
vt 0.00000 1.00000
vt 0.00000 1.00000
vt 0.00000 1.00000
vt 0.00000 1.00000
vt 0.00000 1.00000
vt 0.00000 1.00000
vt 0.00000 1.00000
vt 0.00000 1.00000
vt 0.00000 1.00000
vt 0.00000 1.00000
vt 0.00000 1.00000
vt 0.00000 1.00000
vt 0.00000 1.00000
vt 0.00000 1.00000
vt 0.00000 1.00000
vt 0.00000 1.00000
vt 0.00000 1.00000
vt 0.00000 1.00000
vt 0.00000 1.00000
vt 0.00000 1.00000
vt 0.00000 1.00000
vt 0.00000 1.00000
vt 0.00000 1.00000
vt 0.00000 1.00000
vt 0.00000 1.00000
vt 0.00000 1.00000
vt 0.00000 1.00000
vt 0.00000 1.00000
vt 0.00000 1.00000
vt 0.00000 1.00000
vt 0.00000 1.00000
vt 0.00000 1.00000
vt 0.00000 1.00000
vt 0.00000 1.00000
vt 0.00000 1.00000
vt 0.00000 1.00000
vt 0.00000 1.00000
vt 0.00000 1.00000
vt 0.00000 1.00000
vt 0.00000 1.00000
vt 0.00000 1.00000
vt 0.00000 1.00000
vt 0.00000 1.00000
vt 0.00000 1.00000
vt 0.00000 1.00000
vt 0.00000 1.00000
vt 0.00000 1.00000
vt 0.00000 1.00000
vt 0.00000 1.00000
vt 0.00000 1.00000
vt 0.00000 1.00000
vt 0.00000 1.00000
vt 0.00000 1.00000
vt 0.00000 1.00000
vt 0.00000 1.00000
vt 0.00000 1.00000
vt 0.00000 1.00000
vt 0.00000 1.00000
vt 0.00000 1.00000
vt 0.00000 1.00000
vt 0.00000 1.00000
vt 0.00000 1.00000
vt 0.00000 1.00000
vt 0.00000 1.00000
vt 0.00000 1.00000
vt 0.00000 1.00000
vt 0.00000 1.00000
vt 0.00000 1.00000
vt 0.00000 1.00000
vt 0.00000 1.00000
vt 0.00000 1.00000
vt 0.00000 1.00000
vt 0.00000 1.00000
vt 0.00000 1.00000
vt 0.00000 1.00000
vt 0.00000 1.00000
vt 0.00000 1.00000
vt 0.00000 1.00000
vt 0.00000 1.00000
vt 0.00000 1.00000
vt 0.00000 1.00000
vt 0.00000 1.00000
vt 0.00000 1.00000
vt 0.00000 1.00000
vt 0.00000 1.00000
vt 0.00000 1.00000
vt 0.00000 1.00000
vt 0.00000 1.00000
vt 0.00000 1.00000
vt 0.00000 1.00000
vt 0.00000 1.00000
vt 0.00000 1.00000
vt 0.00000 1.00000
vt 0.00000 1.00000
vt 0.00000 1.00000
vt 0.00000 1.00000
vt 0.00000 1.00000
vt 0.00000 1.00000
vt 0.00000 1.00000
vt 0.00000 1.00000
vt 0.00000 1.00000
vt 0.00000 1.00000
vt 0.00000 1.00000
vt 0.00000 1.00000
vt 0.00000 1.00000
vt 0.00000 1.00000
usemtl stone
f 1/1 2/2 3/3
f 4/4 5/5 6/6
f 7/7 8/8 9/9
f 10/10 11/11 12/12
f 13/13 14/14 15/15
f 16/16 17/17 18/18
f 19/19 20/20 21/21
f 22/22 23/23 24/24
f 25/25 26/26 27/27
f 28/28 29/29 30/30
f 31/31 32/32 33/33
f 34/34 35/35 36/36
f 37/37 38/38 39/39
f 40/40 41/41 42/42
f 43/43 44/44 45/45
f 46/46 47/47 48/48
f 49/49 50/50 51/51
f 52/52 53/53 54/54
f 55/55 56/56 57/57
f 58/58 59/59 60/60
f 61/61 62/62 63/63
f 64/64 65/65 66/66
f 67/67 68/68 69/69
f 70/70 71/71 72/72
f 73/73 74/74 75/75
f 76/76 77/77 78/78
f 79/79 80/80 81/81
f 82/82 83/83 84/84
f 85/85 86/86 87/87
f 88/88 89/89 90/90
f 91/91 92/92 93/93
f 94/94 95/95 96/96
f 97/97 98/98 99/99
f 100/100 101/101 102/102
f 103/103 104/104 105/105
f 106/106 107/107 108/108
f 109/109 110/110 111/111
f 112/112 113/113 114/114
f 115/115 116/116 117/117
f 118/118 119/119 120/120
f 121/121 122/122 123/123
f 124/124 125/125 126/126
f 127/127 128/128 129/129
f 130/130 131/131 132/132
