# Generated by TyraX. Do not edit - rebaked from the procedural graph of 'pines'.
# 7 instances of res/models/rock.obj
mtllib props.mtl
v -7.7573 21.7171 -2.6912
v -7.5783 21.9862 -3.2387
v -7.6183 22.0113 -2.1616
v -7.7573 21.7171 -2.6912
v -7.6183 22.0113 -2.1616
v -7.5783 21.9862 -3.2387
v -6.6278 16.7397 51.3290
v -5.3221 17.5358 50.8550
v -7.5757 17.4308 52.3653
v -6.6278 16.7397 51.3290
v -7.5757 17.4308 52.3653
v -5.3221 17.5358 50.8550
v -43.6722 22.0325 -5.0005
v -43.3061 22.6607 -3.6772
v -44.5664 22.7847 -5.9023
v -43.6722 22.0325 -5.0005
v -44.5664 22.7847 -5.9023
v -43.3061 22.6607 -3.6772
v 47.2171 17.5921 39.5711
v 48.0984 18.1377 39.5766
v 46.3898 18.0188 39.9714
v 47.2171 17.5921 39.5711
v 46.3898 18.0188 39.9714
v 48.0984 18.1377 39.5766
v -43.3790 18.1590 30.2605
v -42.3387 18.6971 29.6410
v -43.8561 18.7737 31.2961
v -43.3790 18.1590 30.2605
v -43.8561 18.7737 31.2961
v -42.3387 18.6971 29.6410
v -27.0645 17.0860 49.9775
v -27.4699 17.6035 50.9742
v -27.1812 17.6660 48.9713
v -27.0645 17.0860 49.9775
v -27.1812 17.6660 48.9713
v -27.4699 17.6035 50.9742
v 15.1564 19.1790 20.3913
v 15.9890 19.9391 19.0898
v 15.0252 20.0180 21.8448
v 15.1564 19.1790 20.3913
v 15.0252 20.0180 21.8448
v 15.9890 19.9391 19.0898
vt 0.00000 1.00000
vt 0.00000 1.00000
vt 0.00000 1.00000
vt 0.00000 1.00000
vt 0.00000 1.00000
vt 0.00000 1.00000
vt 0.00000 1.00000
vt 0.00000 1.00000
vt 0.00000 1.00000
vt 0.00000 1.00000
vt 0.00000 1.00000
vt 0.00000 1.00000
vt 0.00000 1.00000
vt 0.00000 1.00000
vt 0.00000 1.00000
vt 0.00000 1.00000
vt 0.00000 1.00000
vt 0.00000 1.00000
vt 0.00000 1.00000
vt 0.00000 1.00000
vt 0.00000 1.00000
vt 0.00000 1.00000
vt 0.00000 1.00000
vt 0.00000 1.00000
vt 0.00000 1.00000
vt 0.00000 1.00000
vt 0.00000 1.00000
vt 0.00000 1.00000
vt 0.00000 1.00000
vt 0.00000 1.00000
vt 0.00000 1.00000
vt 0.00000 1.00000
vt 0.00000 1.00000
vt 0.00000 1.00000
vt 0.00000 1.00000
vt 0.00000 1.00000
vt 0.00000 1.00000
vt 0.00000 1.00000
vt 0.00000 1.00000
vt 0.00000 1.00000
vt 0.00000 1.00000
vt 0.00000 1.00000
usemtl stone
f 1/1 2/2 3/3
f 4/4 5/5 6/6
f 7/7 8/8 9/9
f 10/10 11/11 12/12
f 13/13 14/14 15/15
f 16/16 17/17 18/18
f 19/19 20/20 21/21
f 22/22 23/23 24/24
f 25/25 26/26 27/27
f 28/28 29/29 30/30
f 31/31 32/32 33/33
f 34/34 35/35 36/36
f 37/37 38/38 39/39
f 40/40 41/41 42/42
