# Generated by TyraX. Do not edit - rebaked from the procedural graph of 'pines'.
# 6 instances of res/models/rock.obj
mtllib props.mtl
v 7.9366 15.5902 51.2180
v 9.6054 16.4205 51.4944
v 6.4158 16.5383 51.6445
v 7.9366 15.5902 51.2180
v 6.4158 16.5383 51.6445
v 9.6054 16.4205 51.4944
v -9.4780 15.1859 30.8342
v -10.0199 15.9729 32.2437
v -9.5546 16.0178 29.3943
v -9.4780 15.1859 30.8342
v -9.5546 16.0178 29.3943
v -10.0199 15.9729 32.2437
v -43.8337 12.6136 -42.5373
v -44.8990 13.5158 -43.7218
v -42.2931 13.3770 -42.0401
v -43.8337 12.6136 -42.5373
v -42.2931 13.3770 -42.0401
v -44.8990 13.5158 -43.7218
v -48.6872 13.5355 6.2316
v -48.3081 14.0788 7.4176
v -49.5417 14.2170 5.4771
v -48.6872 13.5355 6.2316
v -49.5417 14.2170 5.4771
v -48.3081 14.0788 7.4176
v -45.6896 13.8518 21.9251
v -46.8388 14.3842 21.6711
v -44.6541 14.4587 21.5326
v -45.6896 13.8518 21.9251
v -44.6541 14.4587 21.5326
v -46.8388 14.3842 21.6711
v 6.8407 15.5683 48.1217
v 7.6884 15.9929 47.5176
v 6.5271 16.1106 49.0248
v 6.8407 15.5683 48.1217
v 6.5271 16.1106 49.0248
v 7.6884 15.9929 47.5176
vt 0.00000 1.00000
vt 0.00000 1.00000
vt 0.00000 1.00000
vt 0.00000 1.00000
vt 0.00000 1.00000
vt 0.00000 1.00000
vt 0.00000 1.00000
vt 0.00000 1.00000
vt 0.00000 1.00000
vt 0.00000 1.00000
vt 0.00000 1.00000
vt 0.00000 1.00000
vt 0.00000 1.00000
vt 0.00000 1.00000
vt 0.00000 1.00000
vt 0.00000 1.00000
vt 0.00000 1.00000
vt 0.00000 1.00000
vt 0.00000 1.00000
vt 0.00000 1.00000
vt 0.00000 1.00000
vt 0.00000 1.00000
vt 0.00000 1.00000
vt 0.00000 1.00000
vt 0.00000 1.00000
vt 0.00000 1.00000
vt 0.00000 1.00000
vt 0.00000 1.00000
vt 0.00000 1.00000
vt 0.00000 1.00000
vt 0.00000 1.00000
vt 0.00000 1.00000
vt 0.00000 1.00000
vt 0.00000 1.00000
vt 0.00000 1.00000
vt 0.00000 1.00000
usemtl stone
f 1/1 2/2 3/3
f 4/4 5/5 6/6
f 7/7 8/8 9/9
f 10/10 11/11 12/12
f 13/13 14/14 15/15
f 16/16 17/17 18/18
f 19/19 20/20 21/21
f 22/22 23/23 24/24
f 25/25 26/26 27/27
f 28/28 29/29 30/30
f 31/31 32/32 33/33
f 34/34 35/35 36/36
