# Generated by TyraX. Do not edit - rebaked from the procedural graph of 'pines'.
# 22 instances of res/models/rock.obj
mtllib props.mtl
v -6.1167 9.9040 -16.7446
v -5.8274 10.1986 -17.2857
v -6.0844 10.2216 -16.1608
v -6.1167 9.9040 -16.7446
v -6.0844 10.2216 -16.1608
v -5.8274 10.1986 -17.2857
v -26.8985 10.3432 -0.1710
v -26.4023 10.8826 -1.1134
v -26.9213 10.9207 0.8429
v -26.8985 10.3432 -0.1710
v -26.9213 10.9207 0.8429
v -26.4023 10.8826 -1.1134
v 29.7438 9.8878 38.7677
v 30.6267 10.5047 39.4843
v 28.6022 10.4178 38.6440
v 29.7438 9.8878 38.7677
v 28.6022 10.4178 38.6440
v 30.6267 10.5047 39.4843
v 0.5794 9.8618 -5.1269
v 1.5504 10.2696 -5.1009
v -0.1831 10.3980 -4.6893
v 0.5794 9.8618 -5.1269
v -0.1831 10.3980 -4.6893
v 1.5504 10.2696 -5.1009
v -9.9084 9.7145 -20.5888
v -8.9443 10.4610 -21.5807
v -10.3950 10.4740 -19.3447
v -9.9084 9.7145 -20.5888
v -10.3950 10.4740 -19.3447
v -8.9443 10.4610 -21.5807
v -21.2425 9.9278 -16.4945
v -22.2020 10.3829 -16.8172
v -20.3331 10.5039 -16.6306
v -21.2425 9.9278 -16.4945
v -20.3331 10.5039 -16.6306
v -22.2020 10.3829 -16.8172
v -24.7327 10.1412 51.7124
v -25.1745 10.6509 50.7570
v -23.8454 10.6444 52.2288
v -24.7327 10.1412 51.7124
v -23.8454 10.6444 52.2288
v -25.1745 10.6509 50.7570
v -11.5466 9.9382 -4.1163
v -12.2845 10.3188 -4.5204
v -10.7643 10.3874 -4.1512
v -11.5466 9.9382 -4.1163
v -10.7643 10.3874 -4.1512
v -12.2845 10.3188 -4.5204
v -42.4694 11.0869 -14.2340
v -42.7388 11.6321 -15.3101
v -41.8109 11.7062 -13.4321
v -42.4694 11.0869 -14.2340
v -41.8109 11.7062 -13.4321
v -42.7388 11.6321 -15.3101
v -48.2476 11.3259 -22.3766
v -49.2337 11.8886 -22.6194
v -47.2658 11.8319 -22.6384
v -48.2476 11.3259 -22.3766
v -47.2658 11.8319 -22.6384
v -49.2337 11.8886 -22.6194
v 21.4766 10.2658 47.6977
v 22.0297 10.6359 47.1698
v 21.2877 10.6594 48.4041
v 21.4766 10.2658 47.6977
v 21.2877 10.6594 48.4041
v 22.0297 10.6359 47.1698
v 37.8951 9.3674 50.7096
v 38.1601 10.1419 52.2573
v 37.0177 10.2281 49.5184
v 37.8951 9.3674 50.7096
v 37.0177 10.2281 49.5184
v 38.1601 10.1419 52.2573
v -12.1150 9.7513 33.3692
v -11.6317 10.3893 34.6696
v -13.1622 10.4675 32.5826
v -12.1150 9.7513 33.3692
v -13.1622 10.4675 32.5826
v -11.6317 10.3893 34.6696
v -9.8586 9.9498 -10.2225
v -10.7114 10.3705 -10.6714
v -8.9727 10.4674 -10.2876
v -9.8586 9.9498 -10.2225
v -8.9727 10.4674 -10.2876
v -10.7114 10.3705 -10.6714
v 15.9069 9.1898 21.3167
v 17.1175 9.9002 21.6632
v 14.6683 9.8002 21.6186
v 15.9069 9.1898 21.3167
v 14.6683 9.8002 21.6186
v 17.1175 9.9002 21.6632
v 4.2886 10.1827 37.5631
v 2.9989 10.9759 36.6153
v 5.8399 10.9781 37.6661
v 4.2886 10.1827 37.5631
v 5.8399 10.9781 37.6661
v 2.9989 10.9759 36.6153
v -40.8446 11.2403 18.2009
v -40.1946 11.5049 18.2105
v -41.3494 11.6144 18.4765
v -40.8446 11.2403 18.2009
v -41.3494 11.6144 18.4765
v -40.1946 11.5049 18.2105
v -23.9816 9.7667 28.9785
v -24.6613 10.4966 27.6527
v -22.7920 10.5498 29.7544
v -23.9816 9.7667 28.9785
v -22.7920 10.5498 29.7544
v -24.6613 10.4966 27.6527
v -31.3206 10.2669 -46.2015
v -30.4193 10.6813 -46.7467
v -31.7139 10.8365 -45.3379
v -31.3206 10.2669 -46.2015
v -31.7139 10.8365 -45.3379
v -30.4193 10.6813 -46.7467
v -24.3666 9.9288 -20.9257
v -25.3956 10.5030 -20.9231
v -23.4828 10.4032 -21.4922
v -24.3666 9.9288 -20.9257
v -23.4828 10.4032 -21.4922
v -25.3956 10.5030 -20.9231
v 51.9336 8.4903 -20.0636
v 51.8410 8.8048 -20.6897
v 52.2748 8.8373 -19.5730
v 51.9336 8.4903 -20.0636
v 52.2748 8.8373 -19.5730
v 51.8410 8.8048 -20.6897
v 45.1912 9.2277 38.7428
v 46.5101 10.0564 39.3092
v 43.7346 9.9226 38.8875
v 45.1912 9.2277 38.7428
v 43.7346 9.9226 38.8875
v 46.5101 10.0564 39.3092
vt 0.00000 1.00000
vt 0.00000 1.00000
vt 0.00000 1.00000
vt 0.00000 1.00000
vt 0.00000 1.00000
vt 0.00000 1.00000
vt 0.00000 1.00000
vt 0.00000 1.00000
vt 0.00000 1.00000
vt 0.00000 1.00000
vt 0.00000 1.00000
vt 0.00000 1.00000
vt 0.00000 1.00000
vt 0.00000 1.00000
vt 0.00000 1.00000
vt 0.00000 1.00000
vt 0.00000 1.00000
vt 0.00000 1.00000
vt 0.00000 1.00000
vt 0.00000 1.00000
vt 0.00000 1.00000
vt 0.00000 1.00000
vt 0.00000 1.00000
vt 0.00000 1.00000
vt 0.00000 1.00000
vt 0.00000 1.00000
vt 0.00000 1.00000
vt 0.00000 1.00000
vt 0.00000 1.00000
vt 0.00000 1.00000
vt 0.00000 1.00000
vt 0.00000 1.00000
vt 0.00000 1.00000
vt 0.00000 1.00000
vt 0.00000 1.00000
vt 0.00000 1.00000
vt 0.00000 1.00000
vt 0.00000 1.00000
vt 0.00000 1.00000
vt 0.00000 1.00000
vt 0.00000 1.00000
vt 0.00000 1.00000
vt 0.00000 1.00000
vt 0.00000 1.00000
vt 0.00000 1.00000
vt 0.00000 1.00000
vt 0.00000 1.00000
vt 0.00000 1.00000
vt 0.00000 1.00000
vt 0.00000 1.00000
vt 0.00000 1.00000
vt 0.00000 1.00000
vt 0.00000 1.00000
vt 0.00000 1.00000
vt 0.00000 1.00000
vt 0.00000 1.00000
vt 0.00000 1.00000
vt 0.00000 1.00000
vt 0.00000 1.00000
vt 0.00000 1.00000
vt 0.00000 1.00000
vt 0.00000 1.00000
vt 0.00000 1.00000
vt 0.00000 1.00000
vt 0.00000 1.00000
vt 0.00000 1.00000
vt 0.00000 1.00000
vt 0.00000 1.00000
vt 0.00000 1.00000
vt 0.00000 1.00000
vt 0.00000 1.00000
vt 0.00000 1.00000
vt 0.00000 1.00000
vt 0.00000 1.00000
vt 0.00000 1.00000
vt 0.00000 1.00000
vt 0.00000 1.00000
vt 0.00000 1.00000
vt 0.00000 1.00000
vt 0.00000 1.00000
vt 0.00000 1.00000
vt 0.00000 1.00000
vt 0.00000 1.00000
vt 0.00000 1.00000
vt 0.00000 1.00000
vt 0.00000 1.00000
vt 0.00000 1.00000
vt 0.00000 1.00000
vt 0.00000 1.00000
vt 0.00000 1.00000
vt 0.00000 1.00000
vt 0.00000 1.00000
vt 0.00000 1.00000
vt 0.00000 1.00000
vt 0.00000 1.00000
vt 0.00000 1.00000
vt 0.00000 1.00000
vt 0.00000 1.00000
vt 0.00000 1.00000
vt 0.00000 1.00000
vt 0.00000 1.00000
vt 0.00000 1.00000
vt 0.00000 1.00000
vt 0.00000 1.00000
vt 0.00000 1.00000
vt 0.00000 1.00000
vt 0.00000 1.00000
vt 0.00000 1.00000
vt 0.00000 1.00000
vt 0.00000 1.00000
vt 0.00000 1.00000
vt 0.00000 1.00000
vt 0.00000 1.00000
vt 0.00000 1.00000
vt 0.00000 1.00000
vt 0.00000 1.00000
vt 0.00000 1.00000
vt 0.00000 1.00000
vt 0.00000 1.00000
vt 0.00000 1.00000
vt 0.00000 1.00000
vt 0.00000 1.00000
vt 0.00000 1.00000
vt 0.00000 1.00000
vt 0.00000 1.00000
vt 0.00000 1.00000
vt 0.00000 1.00000
vt 0.00000 1.00000
vt 0.00000 1.00000
vt 0.00000 1.00000
vt 0.00000 1.00000
vt 0.00000 1.00000
usemtl stone
f 1/1 2/2 3/3
f 4/4 5/5 6/6
f 7/7 8/8 9/9
f 10/10 11/11 12/12
f 13/13 14/14 15/15
f 16/16 17/17 18/18
f 19/19 20/20 21/21
f 22/22 23/23 24/24
f 25/25 26/26 27/27
f 28/28 29/29 30/30
f 31/31 32/32 33/33
f 34/34 35/35 36/36
f 37/37 38/38 39/39
f 40/40 41/41 42/42
f 43/43 44/44 45/45
f 46/46 47/47 48/48
f 49/49 50/50 51/51
f 52/52 53/53 54/54
f 55/55 56/56 57/57
f 58/58 59/59 60/60
f 61/61 62/62 63/63
f 64/64 65/65 66/66
f 67/67 68/68 69/69
f 70/70 71/71 72/72
f 73/73 74/74 75/75
f 76/76 77/77 78/78
f 79/79 80/80 81/81
f 82/82 83/83 84/84
f 85/85 86/86 87/87
f 88/88 89/89 90/90
f 91/91 92/92 93/93
f 94/94 95/95 96/96
f 97/97 98/98 99/99
f 100/100 101/101 102/102
f 103/103 104/104 105/105
f 106/106 107/107 108/108
f 109/109 110/110 111/111
f 112/112 113/113 114/114
f 115/115 116/116 117/117
f 118/118 119/119 120/120
f 121/121 122/122 123/123
f 124/124 125/125 126/126
f 127/127 128/128 129/129
f 130/130 131/131 132/132
