# Generated by TyraX. Do not edit - rebaked from the procedural graph of 'pines'.
# 19 instances of res/models/rock.obj
mtllib props.mtl
v -2.0031 17.0482 -47.2933
v -0.6927 17.6836 -47.7321
v -2.8445 17.7856 -46.3136
v -2.0031 17.0482 -47.2933
v -2.8445 17.7856 -46.3136
v -0.6927 17.6836 -47.7321
v -23.4077 17.9349 -17.5493
v -24.9812 18.9077 -18.1809
v -21.6885 18.7117 -17.8537
v -23.4077 17.9349 -17.5493
v -21.6885 18.7117 -17.8537
v -24.9812 18.9077 -18.1809
v -8.7220 19.9753 -0.2690
v -8.0720 20.4179 0.1428
v -9.5121 20.3336 -0.2869
v -8.7220 19.9753 -0.2690
v -9.5121 20.3336 -0.2869
v -8.0720 20.4179 0.1428
v -1.8389 19.8345 -7.2990
v -1.3495 20.3062 -6.6454
v -2.6221 20.2094 -7.6087
v -1.8389 19.8345 -7.2990
v -2.6221 20.2094 -7.6087
v -1.3495 20.3062 -6.6454
v -6.8235 21.6714 15.0724
v -7.9402 22.3412 15.7045
v -6.1541 22.3412 14.0209
v -6.8235 21.6714 15.0724
v -6.1541 22.3412 14.0209
v -7.9402 22.3412 15.7045
v -34.7453 17.5595 -15.9023
v -35.5336 18.0688 -16.2990
v -33.8561 18.0083 -15.8899
v -34.7453 17.5595 -15.9023
v -33.8561 18.0083 -15.8899
v -35.5336 18.0688 -16.2990
v 11.0358 19.6561 -21.3889
v 11.8567 20.2132 -20.4725
v 9.9198 20.2934 -21.6921
v 11.0358 19.6561 -21.3889
v 9.9198 20.2934 -21.6921
v 11.8567 20.2132 -20.4725
v 5.5451 22.4838 15.9091
v 5.3094 23.3439 17.7121
v 4.7942 23.4023 14.3408
v 5.5451 22.4838 15.9091
v 4.7942 23.4023 14.3408
v 5.3094 23.3439 17.7121
v -24.2054 20.0145 9.5422
v -23.6393 20.6992 10.6706
v -25.2556 20.6383 8.8501
v -24.2054 20.0145 9.5422
v -25.2556 20.6383 8.8501
v -23.6393 20.6992 10.6706
v -10.6402 16.7437 -44.9706
v -9.9646 17.4646 -46.2271
v -10.6627 17.5092 -43.6086
v -10.6402 16.7437 -44.9706
v -10.6627 17.5092 -43.6086
v -9.9646 17.4646 -46.2271
v 15.0378 20.5510 -15.9162
v 14.9748 21.1709 -17.1992
v 15.6541 21.2505 -14.8793
v 15.0378 20.5510 -15.9162
v 15.6541 21.2505 -14.8793
v 14.9748 21.1709 -17.1992
v -37.2875 19.6361 13.5677
v -36.3254 20.1500 14.2430
v -38.3690 20.2683 13.5066
v -37.2875 19.6361 13.5677
v -38.3690 20.2683 13.5066
v -36.3254 20.1500 14.2430
v -6.8727 19.6974 -4.5223
v -8.0269 20.2413 -4.1803
v -6.0815 20.3788 -5.2821
v -6.8727 19.6974 -4.5223
v -6.0815 20.3788 -5.2821
v -8.0269 20.2413 -4.1803
v -27.2500 15.9738 -46.5999
v -25.8699 16.9907 -45.7049
v -28.9508 16.7731 -46.8070
v -27.2500 15.9738 -46.5999
v -28.9508 16.7731 -46.8070
v -25.8699 16.9907 -45.7049
v -17.8129 20.8934 16.3421
v -16.9468 21.7929 17.7631
v -19.3077 21.6847 15.5943
v -17.8129 20.8934 16.3421
v -19.3077 21.6847 15.5943
v -16.9468 21.7929 17.7631
v -11.5757 19.1953 -8.3570
v -11.7717 19.7456 -7.2697
v -11.8786 19.7950 -9.3594
v -11.5757 19.1953 -8.3570
v -11.8786 19.7950 -9.3594
v -11.7717 19.7456 -7.2697
v -42.8266 17.1118 -13.5409
v -43.3264 17.5399 -14.1226
v -42.1178 17.5018 -13.2531
v -42.8266 17.1118 -13.5409
v -42.1178 17.5018 -13.2531
v -43.3264 17.5399 -14.1226
v -24.1000 18.9958 -1.6417
v -23.8404 19.7718 -0.0223
v -25.0840 19.8642 -2.8350
v -24.1000 18.9958 -1.6417
v -25.0840 19.8642 -2.8350
v -23.8404 19.7718 -0.0223
v 3.9426 20.5935 -4.0594
v 3.4564 21.1230 -3.0152
v 3.7468 21.1587 -5.1448
v 3.9426 20.5935 -4.0594
v 3.7468 21.1587 -5.1448
v 3.4564 21.1230 -3.0152
vt 0.00000 1.00000
vt 0.00000 1.00000
vt 0.00000 1.00000
vt 0.00000 1.00000
vt 0.00000 1.00000
vt 0.00000 1.00000
vt 0.00000 1.00000
vt 0.00000 1.00000
vt 0.00000 1.00000
vt 0.00000 1.00000
vt 0.00000 1.00000
vt 0.00000 1.00000
vt 0.00000 1.00000
vt 0.00000 1.00000
vt 0.00000 1.00000
vt 0.00000 1.00000
vt 0.00000 1.00000
vt 0.00000 1.00000
vt 0.00000 1.00000
vt 0.00000 1.00000
vt 0.00000 1.00000
vt 0.00000 1.00000
vt 0.00000 1.00000
vt 0.00000 1.00000
vt 0.00000 1.00000
vt 0.00000 1.00000
vt 0.00000 1.00000
vt 0.00000 1.00000
vt 0.00000 1.00000
vt 0.00000 1.00000
vt 0.00000 1.00000
vt 0.00000 1.00000
vt 0.00000 1.00000
vt 0.00000 1.00000
vt 0.00000 1.00000
vt 0.00000 1.00000
vt 0.00000 1.00000
vt 0.00000 1.00000
vt 0.00000 1.00000
vt 0.00000 1.00000
vt 0.00000 1.00000
vt 0.00000 1.00000
vt 0.00000 1.00000
vt 0.00000 1.00000
vt 0.00000 1.00000
vt 0.00000 1.00000
vt 0.00000 1.00000
vt 0.00000 1.00000
vt 0.00000 1.00000
vt 0.00000 1.00000
vt 0.00000 1.00000
vt 0.00000 1.00000
vt 0.00000 1.00000
vt 0.00000 1.00000
vt 0.00000 1.00000
vt 0.00000 1.00000
vt 0.00000 1.00000
vt 0.00000 1.00000
vt 0.00000 1.00000
vt 0.00000 1.00000
vt 0.00000 1.00000
vt 0.00000 1.00000
vt 0.00000 1.00000
vt 0.00000 1.00000
vt 0.00000 1.00000
vt 0.00000 1.00000
vt 0.00000 1.00000
vt 0.00000 1.00000
vt 0.00000 1.00000
vt 0.00000 1.00000
vt 0.00000 1.00000
vt 0.00000 1.00000
vt 0.00000 1.00000
vt 0.00000 1.00000
vt 0.00000 1.00000
vt 0.00000 1.00000
vt 0.00000 1.00000
vt 0.00000 1.00000
vt 0.00000 1.00000
vt 0.00000 1.00000
vt 0.00000 1.00000
vt 0.00000 1.00000
vt 0.00000 1.00000
vt 0.00000 1.00000
vt 0.00000 1.00000
vt 0.00000 1.00000
vt 0.00000 1.00000
vt 0.00000 1.00000
vt 0.00000 1.00000
vt 0.00000 1.00000
vt 0.00000 1.00000
vt 0.00000 1.00000
vt 0.00000 1.00000
vt 0.00000 1.00000
vt 0.00000 1.00000
vt 0.00000 1.00000
vt 0.00000 1.00000
vt 0.00000 1.00000
vt 0.00000 1.00000
vt 0.00000 1.00000
vt 0.00000 1.00000
vt 0.00000 1.00000
vt 0.00000 1.00000
vt 0.00000 1.00000
vt 0.00000 1.00000
vt 0.00000 1.00000
vt 0.00000 1.00000
vt 0.00000 1.00000
vt 0.00000 1.00000
vt 0.00000 1.00000
vt 0.00000 1.00000
vt 0.00000 1.00000
vt 0.00000 1.00000
vt 0.00000 1.00000
usemtl stone
f 1/1 2/2 3/3
f 4/4 5/5 6/6
f 7/7 8/8 9/9
f 10/10 11/11 12/12
f 13/13 14/14 15/15
f 16/16 17/17 18/18
f 19/19 20/20 21/21
f 22/22 23/23 24/24
f 25/25 26/26 27/27
f 28/28 29/29 30/30
f 31/31 32/32 33/33
f 34/34 35/35 36/36
f 37/37 38/38 39/39
f 40/40 41/41 42/42
f 43/43 44/44 45/45
f 46/46 47/47 48/48
f 49/49 50/50 51/51
f 52/52 53/53 54/54
f 55/55 56/56 57/57
f 58/58 59/59 60/60
f 61/61 62/62 63/63
f 64/64 65/65 66/66
f 67/67 68/68 69/69
f 70/70 71/71 72/72
f 73/73 74/74 75/75
f 76/76 77/77 78/78
f 79/79 80/80 81/81
f 82/82 83/83 84/84
f 85/85 86/86 87/87
f 88/88 89/89 90/90
f 91/91 92/92 93/93
f 94/94 95/95 96/96
f 97/97 98/98 99/99
f 100/100 101/101 102/102
f 103/103 104/104 105/105
f 106/106 107/107 108/108
f 109/109 110/110 111/111
f 112/112 113/113 114/114
