# Generated by TyraX. Do not edit - rebaked from the procedural graph of 'pines'.
# 22 instances of res/models/rock.obj
mtllib props.mtl
v -51.9267 12.1447 -41.5472
v -52.6372 12.5849 -41.8679
v -51.1518 12.5514 -41.5567
v -51.9267 12.1447 -41.5472
v -51.1518 12.5514 -41.5567
v -52.6372 12.5849 -41.8679
v -45.1612 -0.1223 32.6429
v -45.7446 0.3243 31.9996
v -44.3361 0.3008 32.8699
v -45.1612 -0.1223 32.6429
v -44.3361 0.3008 32.8699
v -45.7446 0.3243 31.9996
v 45.7092 8.2016 -8.4665
v 45.7750 8.5585 -7.7346
v 45.2629 8.5626 -9.0218
v 45.7092 8.2016 -8.4665
v 45.2629 8.5626 -9.0218
v 45.7750 8.5585 -7.7346
v -1.3707 9.2127 -26.4047
v -2.0095 9.5706 -26.2470
v -0.8698 9.5634 -26.8075
v -1.3707 9.2127 -26.4047
v -0.8698 9.5634 -26.8075
v -2.0095 9.5706 -26.2470
v -39.0002 -0.0828 46.4710
v -38.9240 0.2150 45.8851
v -38.8326 0.2449 47.0029
v -39.0002 -0.0828 46.4710
v -38.8326 0.2449 47.0029
v -38.9240 0.2150 45.8851
v -48.6447 -0.1708 41.3585
v -48.1111 0.4585 42.4523
v -49.7096 0.3871 40.7680
v -48.6447 -0.1708 41.3585
v -49.7096 0.3871 40.7680
v -48.1111 0.4585 42.4523
v 38.7413 9.9369 -41.3149
v 40.1798 10.7207 -41.0878
v 37.3988 10.6290 -40.7379
v 38.7413 9.9369 -41.3149
v 37.3988 10.6290 -40.7379
v 40.1798 10.7207 -41.0878
v -35.8393 -0.2253 32.7598
v -35.8820 0.5903 34.3894
v -36.4391 0.6856 31.3505
v -35.8393 -0.2253 32.7598
v -36.4391 0.6856 31.3505
v -35.8820 0.5903 34.3894
v -52.4368 0.2523 17.5082
v -51.5120 1.0203 16.3440
v -52.6462 1.0059 18.9452
v -52.4368 0.2523 17.5082
v -52.6462 1.0059 18.9452
v -51.5120 1.0203 16.3440
v 35.8493 9.0607 -28.6194
v 35.1501 9.7738 -29.9348
v 36.8758 9.9391 -27.7353
v 35.8493 9.0607 -28.6194
v 36.8758 9.9391 -27.7353
v 35.1501 9.7738 -29.9348
v 19.3544 7.4070 0.3437
v 18.6508 7.8262 0.7203
v 19.7927 7.8259 -0.2959
v 19.3544 7.4070 0.3437
v 19.7927 7.8259 -0.2959
v 18.6508 7.8262 0.7203
v -40.6863 -0.1520 37.9040
v -40.3080 0.3817 38.9249
v -41.5123 0.4014 37.2585
v -40.6863 -0.1520 37.9040
v -41.5123 0.4014 37.2585
v -40.3080 0.3817 38.9249
v -25.2320 -0.0697 49.9832
v -25.6228 0.2249 50.4950
v -25.1960 0.2554 49.3731
v -25.2320 -0.0697 49.9832
v -25.1960 0.2554 49.3731
v -25.6228 0.2249 50.4950
v 16.4892 9.9558 -41.4153
v 17.2748 10.3830 -41.8396
v 16.0697 10.4112 -40.6717
v 16.4892 9.9558 -41.4153
v 16.0697 10.4112 -40.6717
v 17.2748 10.3830 -41.8396
v 25.6794 8.6674 -18.3386
v 24.6293 9.4684 -17.3573
v 26.2824 9.4550 -19.6049
v 25.6794 8.6674 -18.3386
v 26.2824 9.4550 -19.6049
v 24.6293 9.4684 -17.3573
v -44.0133 0.2410 17.6996
v -42.6704 1.0746 16.8774
v -44.7198 1.0056 19.0960
v -44.0133 0.2410 17.6996
v -44.7198 1.0056 19.0960
v -42.6704 1.0746 16.8774
v 51.4721 9.0922 -22.9647
v 50.6563 9.6346 -23.3453
v 52.3924 9.5490 -22.9520
v 51.4721 9.0922 -22.9647
v 52.3924 9.5490 -22.9520
v 50.6563 9.6346 -23.3453
v 12.7546 5.6012 18.2450
v 12.0771 6.1812 17.4995
v 13.7446 6.0716 18.5447
v 12.7546 5.6012 18.2450
v 13.7446 6.0716 18.5447
v 12.0771 6.1812 17.4995
v -13.6592 11.7088 -51.6798
v -14.8265 12.2143 -52.2123
v -12.5266 12.4213 -51.8439
v -13.6592 11.7088 -51.6798
v -12.5266 12.4213 -51.8439
v -14.8265 12.2143 -52.2123
v -30.1793 -0.1191 34.0896
v -28.9133 0.6815 33.3294
v -30.8941 0.6112 35.3751
v -30.1793 -0.1191 34.0896
v -30.8941 0.6112 35.3751
v -28.9133 0.6815 33.3294
v -52.4628 8.6380 -23.0537
v -53.4362 9.2215 -22.3131
v -52.0146 9.2885 -24.1171
v -52.4628 8.6380 -23.0537
v -52.0146 9.2885 -24.1171
v -53.4362 9.2215 -22.3131
v 25.4260 8.1194 -8.0365
v 24.5624 8.7159 -7.3059
v 25.8114 8.6929 -9.0785
v 25.4260 8.1194 -8.0365
v 25.8114 8.6929 -9.0785
v 24.5624 8.7159 -7.3059
vt 0.00000 1.00000
vt 0.00000 1.00000
vt 0.00000 1.00000
vt 0.00000 1.00000
vt 0.00000 1.00000
vt 0.00000 1.00000
vt 0.00000 1.00000
vt 0.00000 1.00000
vt 0.00000 1.00000
vt 0.00000 1.00000
vt 0.00000 1.00000
vt 0.00000 1.00000
vt 0.00000 1.00000
vt 0.00000 1.00000
vt 0.00000 1.00000
vt 0.00000 1.00000
vt 0.00000 1.00000
vt 0.00000 1.00000
vt 0.00000 1.00000
vt 0.00000 1.00000
vt 0.00000 1.00000
vt 0.00000 1.00000
vt 0.00000 1.00000
vt 0.00000 1.00000
vt 0.00000 1.00000
vt 0.00000 1.00000
vt 0.00000 1.00000
vt 0.00000 1.00000
vt 0.00000 1.00000
vt 0.00000 1.00000
vt 0.00000 1.00000
vt 0.00000 1.00000
vt 0.00000 1.00000
vt 0.00000 1.00000
vt 0.00000 1.00000
vt 0.00000 1.00000
vt 0.00000 1.00000
vt 0.00000 1.00000
vt 0.00000 1.00000
vt 0.00000 1.00000
vt 0.00000 1.00000
vt 0.00000 1.00000
vt 0.00000 1.00000
vt 0.00000 1.00000
vt 0.00000 1.00000
vt 0.00000 1.00000
vt 0.00000 1.00000
vt 0.00000 1.00000
vt 0.00000 1.00000
vt 0.00000 1.00000
vt 0.00000 1.00000
vt 0.00000 1.00000
vt 0.00000 1.00000
vt 0.00000 1.00000
vt 0.00000 1.00000
vt 0.00000 1.00000
vt 0.00000 1.00000
vt 0.00000 1.00000
vt 0.00000 1.00000
vt 0.00000 1.00000
vt 0.00000 1.00000
vt 0.00000 1.00000
vt 0.00000 1.00000
vt 0.00000 1.00000
vt 0.00000 1.00000
vt 0.00000 1.00000
vt 0.00000 1.00000
vt 0.00000 1.00000
vt 0.00000 1.00000
vt 0.00000 1.00000
vt 0.00000 1.00000
vt 0.00000 1.00000
vt 0.00000 1.00000
vt 0.00000 1.00000
vt 0.00000 1.00000
vt 0.00000 1.00000
vt 0.00000 1.00000
vt 0.00000 1.00000
vt 0.00000 1.00000
vt 0.00000 1.00000
vt 0.00000 1.00000
vt 0.00000 1.00000
vt 0.00000 1.00000
vt 0.00000 1.00000
vt 0.00000 1.00000
vt 0.00000 1.00000
vt 0.00000 1.00000
vt 0.00000 1.00000
vt 0.00000 1.00000
vt 0.00000 1.00000
vt 0.00000 1.00000
vt 0.00000 1.00000
vt 0.00000 1.00000
vt 0.00000 1.00000
vt 0.00000 1.00000
vt 0.00000 1.00000
vt 0.00000 1.00000
vt 0.00000 1.00000
vt 0.00000 1.00000
vt 0.00000 1.00000
vt 0.00000 1.00000
vt 0.00000 1.00000
vt 0.00000 1.00000
vt 0.00000 1.00000
vt 0.00000 1.00000
vt 0.00000 1.00000
vt 0.00000 1.00000
vt 0.00000 1.00000
vt 0.00000 1.00000
vt 0.00000 1.00000
vt 0.00000 1.00000
vt 0.00000 1.00000
vt 0.00000 1.00000
vt 0.00000 1.00000
vt 0.00000 1.00000
vt 0.00000 1.00000
vt 0.00000 1.00000
vt 0.00000 1.00000
vt 0.00000 1.00000
vt 0.00000 1.00000
vt 0.00000 1.00000
vt 0.00000 1.00000
vt 0.00000 1.00000
vt 0.00000 1.00000
vt 0.00000 1.00000
vt 0.00000 1.00000
vt 0.00000 1.00000
vt 0.00000 1.00000
vt 0.00000 1.00000
vt 0.00000 1.00000
vt 0.00000 1.00000
vt 0.00000 1.00000
usemtl stone
f 1/1 2/2 3/3
f 4/4 5/5 6/6
f 7/7 8/8 9/9
f 10/10 11/11 12/12
f 13/13 14/14 15/15
f 16/16 17/17 18/18
f 19/19 20/20 21/21
f 22/22 23/23 24/24
f 25/25 26/26 27/27
f 28/28 29/29 30/30
f 31/31 32/32 33/33
f 34/34 35/35 36/36
f 37/37 38/38 39/39
f 40/40 41/41 42/42
f 43/43 44/44 45/45
f 46/46 47/47 48/48
f 49/49 50/50 51/51
f 52/52 53/53 54/54
f 55/55 56/56 57/57
f 58/58 59/59 60/60
f 61/61 62/62 63/63
f 64/64 65/65 66/66
f 67/67 68/68 69/69
f 70/70 71/71 72/72
f 73/73 74/74 75/75
f 76/76 77/77 78/78
f 79/79 80/80 81/81
f 82/82 83/83 84/84
f 85/85 86/86 87/87
f 88/88 89/89 90/90
f 91/91 92/92 93/93
f 94/94 95/95 96/96
f 97/97 98/98 99/99
f 100/100 101/101 102/102
f 103/103 104/104 105/105
f 106/106 107/107 108/108
f 109/109 110/110 111/111
f 112/112 113/113 114/114
f 115/115 116/116 117/117
f 118/118 119/119 120/120
f 121/121 122/122 123/123
f 124/124 125/125 126/126
f 127/127 128/128 129/129
f 130/130 131/131 132/132
