# Generated by TyraX. Do not edit - rebaked from the procedural graph of 'pines'.
# 19 instances of res/models/rock.obj
mtllib props.mtl
v 7.2077 20.0678 2.1688
v 6.5735 20.6690 1.3205
v 8.1378 20.6186 2.6679
v 7.2077 20.0678 2.1688
v 8.1378 20.6186 2.6679
v 6.5735 20.6690 1.3205
v -24.9060 21.3466 -28.4592
v -25.5643 21.7316 -28.3692
v -24.3436 21.6885 -28.8202
v -24.9060 21.3466 -28.4592
v -24.3436 21.6885 -28.8202
v -25.5643 21.7316 -28.3692
v -48.0039 19.5460 -27.7535
v -46.6768 20.4668 -28.4778
v -48.9443 20.3090 -26.5170
v -48.0039 19.5460 -27.7535
v -48.9443 20.3090 -26.5170
v -46.6768 20.4668 -28.4778
v 6.0334 21.9257 -16.9616
v 7.4561 22.6068 -17.5009
v 5.1117 22.7898 -15.9320
v 6.0334 21.9257 -16.9616
v 5.1117 22.7898 -15.9320
v 7.4561 22.6068 -17.5009
v -39.6862 20.9673 -35.0220
v -39.8557 21.6210 -36.3097
v -39.0992 21.7146 -33.9650
v -39.6862 20.9673 -35.0220
v -39.0992 21.7146 -33.9650
v -39.8557 21.6210 -36.3097
v -25.6946 18.3581 1.4211
v -25.2094 18.5950 1.7199
v -26.2076 18.6756 1.4162
v -25.6946 18.3581 1.4211
v -26.2076 18.6756 1.4162
v -25.2094 18.5950 1.7199
v -35.8468 16.1533 21.8420
v -34.8953 16.5812 21.4948
v -36.3799 16.6702 22.6192
v -35.8468 16.1533 21.8420
v -36.3799 16.6702 22.6192
v -34.8953 16.5812 21.4948
v -6.4046 23.4637 -47.5642
v -5.5704 23.9607 -47.3285
v -7.2627 23.8941 -47.3829
v -6.4046 23.4637 -47.5642
v -7.2627 23.8941 -47.3829
v -5.5704 23.9607 -47.3285
v -1.9931 22.5387 -31.3562
v -1.1919 23.0606 -30.8396
v -2.9684 22.9585 -31.3189
v -1.9931 22.5387 -31.3562
v -2.9684 22.9585 -31.3189
v -1.1919 23.0606 -30.8396
v -43.8393 20.8983 -37.6926
v -42.1875 21.5964 -37.1302
v -45.3633 21.8293 -37.2602
v -43.8393 20.8983 -37.6926
v -45.3633 21.8293 -37.2602
v -42.1875 21.5964 -37.1302
v -31.2067 18.3874 -1.4464
v -30.6111 18.9916 -0.1550
v -32.2520 19.1866 -2.1884
v -31.2067 18.3874 -1.4464
v -32.2520 19.1866 -2.1884
v -30.6111 18.9916 -0.1550
v -8.0586 18.7787 8.7352
v -8.0802 19.2897 7.6561
v -7.5543 19.3646 9.6102
v -8.0586 18.7787 8.7352
v -7.5543 19.3646 9.6102
v -8.0802 19.2897 7.6561
v -12.9671 17.5114 15.6935
v -14.0665 18.1893 16.1208
v -12.1493 18.1204 14.8397
v -12.9671 17.5114 15.6935
v -12.1493 18.1204 14.8397
v -14.0665 18.1893 16.1208
v -0.8413 20.3612 -1.8487
v -1.8980 20.8395 -1.9343
v 0.0396 20.9276 -2.2916
v -0.8413 20.3612 -1.8487
v 0.0396 20.9276 -2.2916
v -1.8980 20.8395 -1.9343
v -51.0329 15.2962 24.4680
v -51.9318 16.0330 25.5946
v -50.7193 16.0854 23.1328
v -51.0329 15.2962 24.4680
v -50.7193 16.0854 23.1328
v -51.9318 16.0330 25.5946
v -9.0615 21.5418 -19.9326
v -8.5238 22.2416 -21.1496
v -8.9879 22.2429 -18.6429
v -9.0615 21.5418 -19.9326
v -8.9879 22.2429 -18.6429
v -8.5238 22.2416 -21.1496
v -6.1288 22.1621 -30.2418
v -4.4518 23.1733 -30.4699
v -7.5364 22.9643 -29.1977
v -6.1288 22.1621 -30.2418
v -7.5364 22.9643 -29.1977
v -4.4518 23.1733 -30.4699
v -19.6971 22.9510 -48.6959
v -19.4205 23.3317 -49.3408
v -19.6994 23.3343 -48.0161
v -19.6971 22.9510 -48.6959
v -19.6994 23.3343 -48.0161
v -19.4205 23.3317 -49.3408
v -3.2914 20.6129 -5.4135
v -4.2143 21.3349 -4.4137
v -2.9798 21.3027 -6.7153
v -3.2914 20.6129 -5.4135
v -2.9798 21.3027 -6.7153
v -4.2143 21.3349 -4.4137
vt 0.00000 1.00000
vt 0.00000 1.00000
vt 0.00000 1.00000
vt 0.00000 1.00000
vt 0.00000 1.00000
vt 0.00000 1.00000
vt 0.00000 1.00000
vt 0.00000 1.00000
vt 0.00000 1.00000
vt 0.00000 1.00000
vt 0.00000 1.00000
vt 0.00000 1.00000
vt 0.00000 1.00000
vt 0.00000 1.00000
vt 0.00000 1.00000
vt 0.00000 1.00000
vt 0.00000 1.00000
vt 0.00000 1.00000
vt 0.00000 1.00000
vt 0.00000 1.00000
vt 0.00000 1.00000
vt 0.00000 1.00000
vt 0.00000 1.00000
vt 0.00000 1.00000
vt 0.00000 1.00000
vt 0.00000 1.00000
vt 0.00000 1.00000
vt 0.00000 1.00000
vt 0.00000 1.00000
vt 0.00000 1.00000
vt 0.00000 1.00000
vt 0.00000 1.00000
vt 0.00000 1.00000
vt 0.00000 1.00000
vt 0.00000 1.00000
vt 0.00000 1.00000
vt 0.00000 1.00000
vt 0.00000 1.00000
vt 0.00000 1.00000
vt 0.00000 1.00000
vt 0.00000 1.00000
vt 0.00000 1.00000
vt 0.00000 1.00000
vt 0.00000 1.00000
vt 0.00000 1.00000
vt 0.00000 1.00000
vt 0.00000 1.00000
vt 0.00000 1.00000
vt 0.00000 1.00000
vt 0.00000 1.00000
vt 0.00000 1.00000
vt 0.00000 1.00000
vt 0.00000 1.00000
vt 0.00000 1.00000
vt 0.00000 1.00000
vt 0.00000 1.00000
vt 0.00000 1.00000
vt 0.00000 1.00000
vt 0.00000 1.00000
vt 0.00000 1.00000
vt 0.00000 1.00000
vt 0.00000 1.00000
vt 0.00000 1.00000
vt 0.00000 1.00000
vt 0.00000 1.00000
vt 0.00000 1.00000
vt 0.00000 1.00000
vt 0.00000 1.00000
vt 0.00000 1.00000
vt 0.00000 1.00000
vt 0.00000 1.00000
vt 0.00000 1.00000
vt 0.00000 1.00000
vt 0.00000 1.00000
vt 0.00000 1.00000
vt 0.00000 1.00000
vt 0.00000 1.00000
vt 0.00000 1.00000
vt 0.00000 1.00000
vt 0.00000 1.00000
vt 0.00000 1.00000
vt 0.00000 1.00000
vt 0.00000 1.00000
vt 0.00000 1.00000
vt 0.00000 1.00000
vt 0.00000 1.00000
vt 0.00000 1.00000
vt 0.00000 1.00000
vt 0.00000 1.00000
vt 0.00000 1.00000
vt 0.00000 1.00000
vt 0.00000 1.00000
vt 0.00000 1.00000
vt 0.00000 1.00000
vt 0.00000 1.00000
vt 0.00000 1.00000
vt 0.00000 1.00000
vt 0.00000 1.00000
vt 0.00000 1.00000
vt 0.00000 1.00000
vt 0.00000 1.00000
vt 0.00000 1.00000
vt 0.00000 1.00000
vt 0.00000 1.00000
vt 0.00000 1.00000
vt 0.00000 1.00000
vt 0.00000 1.00000
vt 0.00000 1.00000
vt 0.00000 1.00000
vt 0.00000 1.00000
vt 0.00000 1.00000
vt 0.00000 1.00000
vt 0.00000 1.00000
vt 0.00000 1.00000
usemtl stone
f 1/1 2/2 3/3
f 4/4 5/5 6/6
f 7/7 8/8 9/9
f 10/10 11/11 12/12
f 13/13 14/14 15/15
f 16/16 17/17 18/18
f 19/19 20/20 21/21
f 22/22 23/23 24/24
f 25/25 26/26 27/27
f 28/28 29/29 30/30
f 31/31 32/32 33/33
f 34/34 35/35 36/36
f 37/37 38/38 39/39
f 40/40 41/41 42/42
f 43/43 44/44 45/45
f 46/46 47/47 48/48
f 49/49 50/50 51/51
f 52/52 53/53 54/54
f 55/55 56/56 57/57
f 58/58 59/59 60/60
f 61/61 62/62 63/63
f 64/64 65/65 66/66
f 67/67 68/68 69/69
f 70/70 71/71 72/72
f 73/73 74/74 75/75
f 76/76 77/77 78/78
f 79/79 80/80 81/81
f 82/82 83/83 84/84
f 85/85 86/86 87/87
f 88/88 89/89 90/90
f 91/91 92/92 93/93
f 94/94 95/95 96/96
f 97/97 98/98 99/99
f 100/100 101/101 102/102
f 103/103 104/104 105/105
f 106/106 107/107 108/108
f 109/109 110/110 111/111
f 112/112 113/113 114/114
