# Generated by TyraX. Do not edit - rebaked from the procedural graph of 'pines'.
# 10 instances of res/models/rock.obj
mtllib props.mtl
v 8.8989 26.8215 17.1726
v 7.8575 27.4548 17.7878
v 9.4682 27.4217 16.1251
v 8.8989 26.8215 17.1726
v 9.4682 27.4217 16.1251
v 7.8575 27.4548 17.7878
v 12.7182 27.4168 13.6977
v 12.1076 28.0172 14.7185
v 12.7888 28.0553 12.5645
v 12.7182 27.4168 13.6977
v 12.7888 28.0553 12.5645
v 12.1076 28.0172 14.7185
v -31.4495 26.1088 5.6399
v -32.0299 26.4339 5.3422
v -30.8485 26.4865 5.7008
v -31.4495 26.1088 5.6399
v -30.8485 26.4865 5.7008
v -32.0299 26.4339 5.3422
v -10.9644 26.0367 16.1601
v -10.6651 26.6481 17.4188
v -11.7626 26.7468 15.2569
v -10.9644 26.0367 16.1601
v -11.7626 26.7468 15.2569
v -10.6651 26.6481 17.4188
v 5.3884 25.8745 28.0629
v 5.8376 26.2203 28.7036
v 4.7395 26.3063 27.7596
v 5.3884 25.8745 28.0629
v 4.7395 26.3063 27.7596
v 5.8376 26.2203 28.7036
v -13.3544 25.3787 23.6517
v -12.4705 25.8474 23.5103
v -14.0299 25.8223 24.2199
v -13.3544 25.3787 23.6517
v -14.0299 25.8223 24.2199
v -12.4705 25.8474 23.5103
v -8.6440 24.7361 38.8331
v -8.0330 25.2182 39.4304
v -9.4959 25.1334 38.6430
v -8.6440 24.7361 38.8331
v -9.4959 25.1334 38.6430
v -8.0330 25.2182 39.4304
v -45.0164 24.6370 6.3126
v -45.6870 25.5624 4.5350
v -43.5938 25.6201 7.4429
v -45.0164 24.6370 6.3126
v -43.5938 25.6201 7.4429
v -45.6870 25.5624 4.5350
v -1.2418 25.0173 43.1195
v -2.1835 25.4614 43.1660
v -0.4774 25.5559 42.7148
v -1.2418 25.0173 43.1195
v -0.4774 25.5559 42.7148
v -2.1835 25.4614 43.1660
v -28.3703 27.4313 -6.9801
v -27.3335 27.9212 -6.6997
v -29.3338 27.9965 -6.6901
v -28.3703 27.4313 -6.9801
v -29.3338 27.9965 -6.6901
v -27.3335 27.9212 -6.6997
vt 0.00000 1.00000
vt 0.00000 1.00000
vt 0.00000 1.00000
vt 0.00000 1.00000
vt 0.00000 1.00000
vt 0.00000 1.00000
vt 0.00000 1.00000
vt 0.00000 1.00000
vt 0.00000 1.00000
vt 0.00000 1.00000
vt 0.00000 1.00000
vt 0.00000 1.00000
vt 0.00000 1.00000
vt 0.00000 1.00000
vt 0.00000 1.00000
vt 0.00000 1.00000
vt 0.00000 1.00000
vt 0.00000 1.00000
vt 0.00000 1.00000
vt 0.00000 1.00000
vt 0.00000 1.00000
vt 0.00000 1.00000
vt 0.00000 1.00000
vt 0.00000 1.00000
vt 0.00000 1.00000
vt 0.00000 1.00000
vt 0.00000 1.00000
vt 0.00000 1.00000
vt 0.00000 1.00000
vt 0.00000 1.00000
vt 0.00000 1.00000
vt 0.00000 1.00000
vt 0.00000 1.00000
vt 0.00000 1.00000
vt 0.00000 1.00000
vt 0.00000 1.00000
vt 0.00000 1.00000
vt 0.00000 1.00000
vt 0.00000 1.00000
vt 0.00000 1.00000
vt 0.00000 1.00000
vt 0.00000 1.00000
vt 0.00000 1.00000
vt 0.00000 1.00000
vt 0.00000 1.00000
vt 0.00000 1.00000
vt 0.00000 1.00000
vt 0.00000 1.00000
vt 0.00000 1.00000
vt 0.00000 1.00000
vt 0.00000 1.00000
vt 0.00000 1.00000
vt 0.00000 1.00000
vt 0.00000 1.00000
vt 0.00000 1.00000
vt 0.00000 1.00000
vt 0.00000 1.00000
vt 0.00000 1.00000
vt 0.00000 1.00000
vt 0.00000 1.00000
usemtl stone
f 1/1 2/2 3/3
f 4/4 5/5 6/6
f 7/7 8/8 9/9
f 10/10 11/11 12/12
f 13/13 14/14 15/15
f 16/16 17/17 18/18
f 19/19 20/20 21/21
f 22/22 23/23 24/24
f 25/25 26/26 27/27
f 28/28 29/29 30/30
f 31/31 32/32 33/33
f 34/34 35/35 36/36
f 37/37 38/38 39/39
f 40/40 41/41 42/42
f 43/43 44/44 45/45
f 46/46 47/47 48/48
f 49/49 50/50 51/51
f 52/52 53/53 54/54
f 55/55 56/56 57/57
f 58/58 59/59 60/60
