# Generated by TyraX. Do not edit - rebaked from the procedural graph of 'pines'.
# 9 instances of res/models/rock.obj
mtllib props.mtl
v -16.1359 25.2828 -31.9276
v -15.6297 25.9129 -33.2134
v -15.8248 25.9649 -30.6461
v -16.1359 25.2828 -31.9276
v -15.8248 25.9649 -30.6461
v -15.6297 25.9129 -33.2134
v 6.1784 20.4134 36.6932
v 4.9927 20.9753 37.0919
v 6.9146 21.0714 35.7863
v 6.1784 20.4134 36.6932
v 6.9146 21.0714 35.7863
v 4.9927 20.9753 37.0919
v 38.4645 22.1807 -31.0516
v 39.6221 22.8891 -31.7206
v 37.8098 22.8472 -29.9049
v 38.4645 22.1807 -31.0516
v 37.8098 22.8472 -29.9049
v 39.6221 22.8891 -31.7206
v -6.9207 20.1739 27.5956
v -7.8542 20.8554 28.5686
v -6.5615 20.8939 26.3570
v -6.9207 20.1739 27.5956
v -6.5615 20.8939 26.3570
v -7.8542 20.8554 28.5686
v 14.8203 20.2317 6.5542
v 16.0471 20.7945 6.0497
v 14.0810 20.9840 7.4879
v 14.8203 20.2317 6.5542
v 14.0810 20.9840 7.4879
v 16.0471 20.7945 6.0497
v 11.3899 20.8309 -1.8839
v 9.9436 21.5247 -2.1954
v 12.7093 21.6892 -2.1567
v 11.3899 20.8309 -1.8839
v 12.7093 21.6892 -2.1567
v 9.9436 21.5247 -2.1954
v -9.3120 20.3293 26.5113
v -10.3054 20.9233 26.9072
v -8.5885 20.8926 25.7434
v -9.3120 20.3293 26.5113
v -8.5885 20.8926 25.7434
v -10.3054 20.9233 26.9072
v -13.6694 24.5584 -27.5779
v -12.7809 25.1016 -27.9726
v -14.2917 25.0623 -26.8400
v -13.6694 24.5584 -27.5779
v -14.2917 25.0623 -26.8400
v -12.7809 25.1016 -27.9726
v 44.4922 19.8283 7.1687
v 44.7776 20.3019 6.2449
v 44.6923 20.3368 8.0683
v 44.4922 19.8283 7.1687
v 44.6923 20.3368 8.0683
v 44.7776 20.3019 6.2449
vt 0.00000 1.00000
vt 0.00000 1.00000
vt 0.00000 1.00000
vt 0.00000 1.00000
vt 0.00000 1.00000
vt 0.00000 1.00000
vt 0.00000 1.00000
vt 0.00000 1.00000
vt 0.00000 1.00000
vt 0.00000 1.00000
vt 0.00000 1.00000
vt 0.00000 1.00000
vt 0.00000 1.00000
vt 0.00000 1.00000
vt 0.00000 1.00000
vt 0.00000 1.00000
vt 0.00000 1.00000
vt 0.00000 1.00000
vt 0.00000 1.00000
vt 0.00000 1.00000
vt 0.00000 1.00000
vt 0.00000 1.00000
vt 0.00000 1.00000
vt 0.00000 1.00000
vt 0.00000 1.00000
vt 0.00000 1.00000
vt 0.00000 1.00000
vt 0.00000 1.00000
vt 0.00000 1.00000
vt 0.00000 1.00000
vt 0.00000 1.00000
vt 0.00000 1.00000
vt 0.00000 1.00000
vt 0.00000 1.00000
vt 0.00000 1.00000
vt 0.00000 1.00000
vt 0.00000 1.00000
vt 0.00000 1.00000
vt 0.00000 1.00000
vt 0.00000 1.00000
vt 0.00000 1.00000
vt 0.00000 1.00000
vt 0.00000 1.00000
vt 0.00000 1.00000
vt 0.00000 1.00000
vt 0.00000 1.00000
vt 0.00000 1.00000
vt 0.00000 1.00000
vt 0.00000 1.00000
vt 0.00000 1.00000
vt 0.00000 1.00000
vt 0.00000 1.00000
vt 0.00000 1.00000
vt 0.00000 1.00000
usemtl stone
f 1/1 2/2 3/3
f 4/4 5/5 6/6
f 7/7 8/8 9/9
f 10/10 11/11 12/12
f 13/13 14/14 15/15
f 16/16 17/17 18/18
f 19/19 20/20 21/21
f 22/22 23/23 24/24
f 25/25 26/26 27/27
f 28/28 29/29 30/30
f 31/31 32/32 33/33
f 34/34 35/35 36/36
f 37/37 38/38 39/39
f 40/40 41/41 42/42
f 43/43 44/44 45/45
f 46/46 47/47 48/48
f 49/49 50/50 51/51
f 52/52 53/53 54/54
