# Generated by TyraX. Do not edit - rebaked from the procedural graph of 'pines'.
# 17 instances of res/models/rock.obj
mtllib props.mtl
v 38.8907 13.6525 -18.7651
v 38.3616 14.1330 -17.8911
v 38.9227 14.2050 -19.7200
v 38.8907 13.6525 -18.7651
v 38.9227 14.2050 -19.7200
v 38.3616 14.1330 -17.8911
v 3.6100 17.3607 -24.8032
v 4.4850 17.7183 -24.3960
v 2.7772 17.9155 -24.6972
v 3.6100 17.3607 -24.8032
v 2.7772 17.9155 -24.6972
v 4.4850 17.7183 -24.3960
v 24.6492 14.6942 -42.2691
v 24.0609 15.0369 -41.7388
v 24.8439 15.1175 -42.9725
v 24.6492 14.6942 -42.2691
v 24.8439 15.1175 -42.9725
v 24.0609 15.0369 -41.7388
v -13.1858 22.5522 50.5755
v -14.2053 23.0425 50.5283
v -12.3295 23.0868 50.1214
v -13.1858 22.5522 50.5755
v -12.3295 23.0868 50.1214
v -14.2053 23.0425 50.5283
v 28.6876 15.4966 31.2450
v 28.9164 15.9426 32.0684
v 28.1838 15.9739 30.6075
v 28.6876 15.4966 31.2450
v 28.1838 15.9739 30.6075
v 28.9164 15.9426 32.0684
v 39.1167 14.1201 -32.2867
v 39.3261 14.4900 -31.5540
v 38.5978 14.5220 -32.7916
v 39.1167 14.1201 -32.2867
v 38.5978 14.5220 -32.7916
v 39.3261 14.4900 -31.5540
v 49.1389 12.1778 10.4922
v 50.2592 12.7623 11.1237
v 47.9751 12.9176 10.4191
v 49.1389 12.1778 10.4922
v 47.9751 12.9176 10.4191
v 50.2592 12.7623 11.1237
v 28.0388 14.4353 -45.1608
v 26.6999 15.0240 -44.8253
v 28.9023 15.1705 -46.0914
v 28.0388 14.4353 -45.1608
v 28.9023 15.1705 -46.0914
v 26.6999 15.0240 -44.8253
v 40.8800 13.3499 -9.6921
v 39.9092 13.7324 -9.8965
v 41.7005 13.9187 -9.9815
v 40.8800 13.3499 -9.6921
v 41.7005 13.9187 -9.9815
v 39.9092 13.7324 -9.8965
v 18.4769 15.4774 -5.4647
v 19.5827 16.2536 -6.8496
v 18.4215 16.3403 -3.7824
v 18.4769 15.4774 -5.4647
v 18.4215 16.3403 -3.7824
v 19.5827 16.2536 -6.8496
v -8.7044 21.7167 43.4794
v -9.5245 22.4129 42.1099
v -7.4436 22.6085 44.1960
v -8.7044 21.7167 43.4794
v -7.4436 22.6085 44.1960
v -9.5245 22.4129 42.1099
v -2.3892 18.0094 -16.7471
v -2.0092 18.3878 -16.0348
v -2.9672 18.4782 -17.2010
v -2.3892 18.0094 -16.7471
v -2.9672 18.4782 -17.2010
v -2.0092 18.3878 -16.0348
v 38.1164 13.8744 -22.6642
v 38.6957 14.3921 -23.5255
v 38.0631 14.4045 -21.6631
v 38.1164 13.8744 -22.6642
v 38.0631 14.4045 -21.6631
v 38.6957 14.3921 -23.5255
v 34.6598 14.1895 -18.4692
v 35.1582 14.5566 -17.9167
v 33.9646 14.5605 -18.6615
v 34.6598 14.1895 -18.4692
v 33.9646 14.5605 -18.6615
v 35.1582 14.5566 -17.9167
v 22.2727 15.0373 -2.7670
v 21.2034 15.6908 -2.2381
v 23.0347 15.6892 -3.6404
v 22.2727 15.0373 -2.7670
v 23.0347 15.6892 -3.6404
v 21.2034 15.6908 -2.2381
v -16.6288 22.4172 47.5038
v -17.1065 23.3187 45.6342
v -15.4873 23.5138 48.8565
v -16.6288 22.4172 47.5038
v -15.4873 23.5138 48.8565
v -17.1065 23.3187 45.6342
v 30.9343 14.6246 22.9594
v 31.6886 14.9783 22.9999
v 30.3118 15.0059 23.3229
v 30.9343 14.6246 22.9594
v 30.3118 15.0059 23.3229
v 31.6886 14.9783 22.9999
vt 0.00000 1.00000
vt 0.00000 1.00000
vt 0.00000 1.00000
vt 0.00000 1.00000
vt 0.00000 1.00000
vt 0.00000 1.00000
vt 0.00000 1.00000
vt 0.00000 1.00000
vt 0.00000 1.00000
vt 0.00000 1.00000
vt 0.00000 1.00000
vt 0.00000 1.00000
vt 0.00000 1.00000
vt 0.00000 1.00000
vt 0.00000 1.00000
vt 0.00000 1.00000
vt 0.00000 1.00000
vt 0.00000 1.00000
vt 0.00000 1.00000
vt 0.00000 1.00000
vt 0.00000 1.00000
vt 0.00000 1.00000
vt 0.00000 1.00000
vt 0.00000 1.00000
vt 0.00000 1.00000
vt 0.00000 1.00000
vt 0.00000 1.00000
vt 0.00000 1.00000
vt 0.00000 1.00000
vt 0.00000 1.00000
vt 0.00000 1.00000
vt 0.00000 1.00000
vt 0.00000 1.00000
vt 0.00000 1.00000
vt 0.00000 1.00000
vt 0.00000 1.00000
vt 0.00000 1.00000
vt 0.00000 1.00000
vt 0.00000 1.00000
vt 0.00000 1.00000
vt 0.00000 1.00000
vt 0.00000 1.00000
vt 0.00000 1.00000
vt 0.00000 1.00000
vt 0.00000 1.00000
vt 0.00000 1.00000
vt 0.00000 1.00000
vt 0.00000 1.00000
vt 0.00000 1.00000
vt 0.00000 1.00000
vt 0.00000 1.00000
vt 0.00000 1.00000
vt 0.00000 1.00000
vt 0.00000 1.00000
vt 0.00000 1.00000
vt 0.00000 1.00000
vt 0.00000 1.00000
vt 0.00000 1.00000
vt 0.00000 1.00000
vt 0.00000 1.00000
vt 0.00000 1.00000
vt 0.00000 1.00000
vt 0.00000 1.00000
vt 0.00000 1.00000
vt 0.00000 1.00000
vt 0.00000 1.00000
vt 0.00000 1.00000
vt 0.00000 1.00000
vt 0.00000 1.00000
vt 0.00000 1.00000
vt 0.00000 1.00000
vt 0.00000 1.00000
vt 0.00000 1.00000
vt 0.00000 1.00000
vt 0.00000 1.00000
vt 0.00000 1.00000
vt 0.00000 1.00000
vt 0.00000 1.00000
vt 0.00000 1.00000
vt 0.00000 1.00000
vt 0.00000 1.00000
vt 0.00000 1.00000
vt 0.00000 1.00000
vt 0.00000 1.00000
vt 0.00000 1.00000
vt 0.00000 1.00000
vt 0.00000 1.00000
vt 0.00000 1.00000
vt 0.00000 1.00000
vt 0.00000 1.00000
vt 0.00000 1.00000
vt 0.00000 1.00000
vt 0.00000 1.00000
vt 0.00000 1.00000
vt 0.00000 1.00000
vt 0.00000 1.00000
vt 0.00000 1.00000
vt 0.00000 1.00000
vt 0.00000 1.00000
vt 0.00000 1.00000
vt 0.00000 1.00000
vt 0.00000 1.00000
usemtl stone
f 1/1 2/2 3/3
f 4/4 5/5 6/6
f 7/7 8/8 9/9
f 10/10 11/11 12/12
f 13/13 14/14 15/15
f 16/16 17/17 18/18
f 19/19 20/20 21/21
f 22/22 23/23 24/24
f 25/25 26/26 27/27
f 28/28 29/29 30/30
f 31/31 32/32 33/33
f 34/34 35/35 36/36
f 37/37 38/38 39/39
f 40/40 41/41 42/42
f 43/43 44/44 45/45
f 46/46 47/47 48/48
f 49/49 50/50 51/51
f 52/52 53/53 54/54
f 55/55 56/56 57/57
f 58/58 59/59 60/60
f 61/61 62/62 63/63
f 64/64 65/65 66/66
f 67/67 68/68 69/69
f 70/70 71/71 72/72
f 73/73 74/74 75/75
f 76/76 77/77 78/78
f 79/79 80/80 81/81
f 82/82 83/83 84/84
f 85/85 86/86 87/87
f 88/88 89/89 90/90
f 91/91 92/92 93/93
f 94/94 95/95 96/96
f 97/97 98/98 99/99
f 100/100 101/101 102/102
