# Generated by TyraX. Do not edit - rebaked from the procedural graph of 'pines'.
# 19 instances of res/models/rock.obj
mtllib props.mtl
v -40.7861 13.2977 33.8496
v -41.3494 13.8383 33.0316
v -39.8965 13.7913 34.2821
v -40.7861 13.2977 33.8496
v -39.8965 13.7913 34.2821
v -41.3494 13.8383 33.0316
v 15.1413 16.9539 -4.2770
v 14.4450 17.3365 -4.6698
v 15.8922 17.3860 -4.2676
v 15.1413 16.9539 -4.2770
v 15.8922 17.3860 -4.2676
v 14.4450 17.3365 -4.6698
v -5.1937 15.5858 -18.8364
v -4.8740 16.0512 -19.7930
v -4.9494 16.0997 -17.9116
v -5.1937 15.5858 -18.8364
v -4.9494 16.0997 -17.9116
v -4.8740 16.0512 -19.7930
v 7.5651 16.0665 36.0776
v 7.5324 16.5674 37.0624
v 7.1990 16.6101 35.2184
v 7.5651 16.0665 36.0776
v 7.1990 16.6101 35.2184
v 7.5324 16.5674 37.0624
v -35.3154 13.5704 11.3608
v -35.6358 13.9853 12.1507
v -35.4341 14.0146 10.5562
v -35.3154 13.5704 11.3608
v -35.4341 14.0146 10.5562
v -35.6358 13.9853 12.1507
v 8.8626 16.0795 34.2343
v 9.1463 16.6503 33.1386
v 9.0996 16.6884 35.2873
v 8.8626 16.0795 34.2343
v 9.0996 16.6884 35.2873
v 9.1463 16.6503 33.1386
v 3.3886 16.3819 9.6930
v 3.7087 16.7767 8.8605
v 3.6161 16.8151 10.5115
v 3.3886 16.3819 9.6930
v 3.6161 16.8151 10.5115
v 3.7087 16.7767 8.8605
v -40.0015 12.4642 -4.3557
v -40.6690 12.8455 -4.7166
v -39.2844 12.8812 -4.3227
v -40.0015 12.4642 -4.3557
v -39.2844 12.8812 -4.3227
v -40.6690 12.8455 -4.7166
v -48.0290 13.1039 39.5372
v -47.6553 13.6513 40.5125
v -48.8167 13.6357 38.8849
v -48.0290 13.1039 39.5372
v -48.8167 13.6357 38.8849
v -47.6553 13.6513 40.5125
v 15.1287 16.5788 19.5975
v 14.9984 17.1404 20.7308
v 14.7538 17.2021 18.5895
v 15.1287 16.5788 19.5975
v 14.7538 17.2021 18.5895
v 14.9984 17.1404 20.7308
v -49.4001 13.0044 42.8635
v -49.5361 13.6374 41.6004
v -48.6093 13.6227 43.8217
v -49.4001 13.0044 42.8635
v -48.6093 13.6227 43.8217
v -49.5361 13.6374 41.6004
v 13.6556 16.0632 30.7237
v 14.2030 16.6676 31.9508
v 12.7767 16.8621 29.9089
v 13.6556 16.0632 30.7237
v 12.7767 16.8621 29.9089
v 14.2030 16.6676 31.9508
v -14.8948 15.3948 16.0639
v -13.8411 15.8750 16.0575
v -15.7230 15.9355 16.6146
v -14.8948 15.3948 16.0639
v -15.7230 15.9355 16.6146
v -13.8411 15.8750 16.0575
v -28.6728 13.8221 -2.0181
v -29.2627 14.2463 -2.5931
v -27.8835 14.2295 -1.8407
v -28.6728 13.8221 -2.0181
v -27.8835 14.2295 -1.8407
v -29.2627 14.2463 -2.5931
v -33.7890 13.6706 19.9449
v -33.3693 14.3360 21.2594
v -34.8307 14.3516 19.1118
v -33.7890 13.6706 19.9449
v -34.8307 14.3516 19.1118
v -33.3693 14.3360 21.2594
v 0.1581 15.6537 44.3368
v 0.8259 16.1906 43.5343
v -0.0855 16.2216 45.3040
v 0.1581 15.6537 44.3368
v -0.0855 16.2216 45.3040
v 0.8259 16.1906 43.5343
v -38.7495 13.2143 25.3794
v -39.3333 13.8389 24.3556
v -37.6842 13.7557 25.9014
v -38.7495 13.2143 25.3794
v -37.6842 13.7557 25.9014
v -39.3333 13.8389 24.3556
v -22.0909 13.6301 42.9993
v -22.6598 13.9885 42.3978
v -21.3591 14.0804 43.1976
v -22.0909 13.6301 42.9993
v -21.3591 14.0804 43.1976
v -22.6598 13.9885 42.3978
v -16.7024 14.9660 26.5696
v -17.8418 15.6037 26.8257
v -15.8682 15.5147 25.7358
v -16.7024 14.9660 26.5696
v -15.8682 15.5147 25.7358
v -17.8418 15.6037 26.8257
vt 0.00000 1.00000
vt 0.00000 1.00000
vt 0.00000 1.00000
vt 0.00000 1.00000
vt 0.00000 1.00000
vt 0.00000 1.00000
vt 0.00000 1.00000
vt 0.00000 1.00000
vt 0.00000 1.00000
vt 0.00000 1.00000
vt 0.00000 1.00000
vt 0.00000 1.00000
vt 0.00000 1.00000
vt 0.00000 1.00000
vt 0.00000 1.00000
vt 0.00000 1.00000
vt 0.00000 1.00000
vt 0.00000 1.00000
vt 0.00000 1.00000
vt 0.00000 1.00000
vt 0.00000 1.00000
vt 0.00000 1.00000
vt 0.00000 1.00000
vt 0.00000 1.00000
vt 0.00000 1.00000
vt 0.00000 1.00000
vt 0.00000 1.00000
vt 0.00000 1.00000
vt 0.00000 1.00000
vt 0.00000 1.00000
vt 0.00000 1.00000
vt 0.00000 1.00000
vt 0.00000 1.00000
vt 0.00000 1.00000
vt 0.00000 1.00000
vt 0.00000 1.00000
vt 0.00000 1.00000
vt 0.00000 1.00000
vt 0.00000 1.00000
vt 0.00000 1.00000
vt 0.00000 1.00000
vt 0.00000 1.00000
vt 0.00000 1.00000
vt 0.00000 1.00000
vt 0.00000 1.00000
vt 0.00000 1.00000
vt 0.00000 1.00000
vt 0.00000 1.00000
vt 0.00000 1.00000
vt 0.00000 1.00000
vt 0.00000 1.00000
vt 0.00000 1.00000
vt 0.00000 1.00000
vt 0.00000 1.00000
vt 0.00000 1.00000
vt 0.00000 1.00000
vt 0.00000 1.00000
vt 0.00000 1.00000
vt 0.00000 1.00000
vt 0.00000 1.00000
vt 0.00000 1.00000
vt 0.00000 1.00000
vt 0.00000 1.00000
vt 0.00000 1.00000
vt 0.00000 1.00000
vt 0.00000 1.00000
vt 0.00000 1.00000
vt 0.00000 1.00000
vt 0.00000 1.00000
vt 0.00000 1.00000
vt 0.00000 1.00000
vt 0.00000 1.00000
vt 0.00000 1.00000
vt 0.00000 1.00000
vt 0.00000 1.00000
vt 0.00000 1.00000
vt 0.00000 1.00000
vt 0.00000 1.00000
vt 0.00000 1.00000
vt 0.00000 1.00000
vt 0.00000 1.00000
vt 0.00000 1.00000
vt 0.00000 1.00000
vt 0.00000 1.00000
vt 0.00000 1.00000
vt 0.00000 1.00000
vt 0.00000 1.00000
vt 0.00000 1.00000
vt 0.00000 1.00000
vt 0.00000 1.00000
vt 0.00000 1.00000
vt 0.00000 1.00000
vt 0.00000 1.00000
vt 0.00000 1.00000
vt 0.00000 1.00000
vt 0.00000 1.00000
vt 0.00000 1.00000
vt 0.00000 1.00000
vt 0.00000 1.00000
vt 0.00000 1.00000
vt 0.00000 1.00000
vt 0.00000 1.00000
vt 0.00000 1.00000
vt 0.00000 1.00000
vt 0.00000 1.00000
vt 0.00000 1.00000
vt 0.00000 1.00000
vt 0.00000 1.00000
vt 0.00000 1.00000
vt 0.00000 1.00000
vt 0.00000 1.00000
vt 0.00000 1.00000
vt 0.00000 1.00000
vt 0.00000 1.00000
usemtl stone
f 1/1 2/2 3/3
f 4/4 5/5 6/6
f 7/7 8/8 9/9
f 10/10 11/11 12/12
f 13/13 14/14 15/15
f 16/16 17/17 18/18
f 19/19 20/20 21/21
f 22/22 23/23 24/24
f 25/25 26/26 27/27
f 28/28 29/29 30/30
f 31/31 32/32 33/33
f 34/34 35/35 36/36
f 37/37 38/38 39/39
f 40/40 41/41 42/42
f 43/43 44/44 45/45
f 46/46 47/47 48/48
f 49/49 50/50 51/51
f 52/52 53/53 54/54
f 55/55 56/56 57/57
f 58/58 59/59 60/60
f 61/61 62/62 63/63
f 64/64 65/65 66/66
f 67/67 68/68 69/69
f 70/70 71/71 72/72
f 73/73 74/74 75/75
f 76/76 77/77 78/78
f 79/79 80/80 81/81
f 82/82 83/83 84/84
f 85/85 86/86 87/87
f 88/88 89/89 90/90
f 91/91 92/92 93/93
f 94/94 95/95 96/96
f 97/97 98/98 99/99
f 100/100 101/101 102/102
f 103/103 104/104 105/105
f 106/106 107/107 108/108
f 109/109 110/110 111/111
f 112/112 113/113 114/114
