# Generated by TyraX. Do not edit - rebaked from the procedural graph of 'pines'.
# 25 instances of res/models/rock.obj
mtllib props.mtl
v -6.9288 21.2957 -44.9727
v -6.3309 21.6240 -45.0600
v -7.3894 21.5785 -44.5729
v -6.9288 21.2957 -44.9727
v -7.3894 21.5785 -44.5729
v -6.3309 21.6240 -45.0600
v -40.1038 17.5160 27.8190
v -39.3189 17.9384 27.6554
v -40.6891 17.9155 28.3506
v -40.1038 17.5160 27.8190
v -40.6891 17.9155 28.3506
v -39.3189 17.9384 27.6554
v -16.2930 14.6141 51.2145
v -17.3904 15.2662 50.0129
v -14.9855 15.5955 51.7292
v -16.2930 14.6141 51.2145
v -14.9855 15.5955 51.7292
v -17.3904 15.2662 50.0129
v -48.2491 20.8161 -29.9497
v -47.2098 21.4057 -29.7538
v -49.2531 21.3173 -29.5729
v -48.2491 20.8161 -29.9497
v -49.2531 21.3173 -29.5729
v -47.2098 21.4057 -29.7538
v -12.0921 21.0616 -39.8019
v -10.9786 21.7161 -40.6070
v -12.5370 21.7313 -38.5499
v -12.0921 21.0616 -39.8019
v -12.5370 21.7313 -38.5499
v -10.9786 21.7161 -40.6070
v -16.6189 17.4447 6.3853
v -15.8504 17.7935 6.5191
v -17.2894 17.8464 6.6800
v -16.6189 17.4447 6.3853
v -17.2894 17.8464 6.6800
v -15.8504 17.7935 6.5191
v -13.6147 19.7888 -23.1212
v -12.8195 20.3831 -22.0064
v -14.7161 20.5717 -23.6720
v -13.6147 19.7888 -23.1212
v -14.7161 20.5717 -23.6720
v -12.8195 20.3831 -22.0064
v -4.8452 21.5723 -49.8117
v -4.6552 21.9884 -50.6382
v -4.6257 22.0245 -49.0371
v -4.8452 21.5723 -49.8117
v -4.6257 22.0245 -49.0371
v -4.6552 21.9884 -50.6382
v -2.8427 16.1483 16.6789
v -3.3653 16.6823 15.8110
v -2.0336 16.6973 17.2244
v -2.8427 16.1483 16.6789
v -2.0336 16.6973 17.2244
v -3.3653 16.6823 15.8110
v 18.1721 17.9918 -5.6778
v 17.4377 18.5192 -4.9711
v 18.4591 18.5157 -6.6275
v 18.1721 17.9918 -5.6778
v 18.4591 18.5157 -6.6275
v 17.4377 18.5192 -4.9711
v -44.8901 21.1927 -34.1052
v -45.7877 21.6619 -33.8013
v -44.2599 21.7127 -34.7386
v -44.8901 21.1927 -34.1052
v -44.2599 21.7127 -34.7386
v -45.7877 21.6619 -33.8013
v 48.9481 11.9547 46.1219
v 49.8716 12.4129 45.5256
v 48.5883 12.5062 47.0821
v 48.9481 11.9547 46.1219
v 48.5883 12.5062 47.0821
v 49.8716 12.4129 45.5256
v -36.7653 21.5605 -41.4782
v -36.4796 22.0011 -40.5639
v -37.4440 22.0645 -42.0682
v -36.7653 21.5605 -41.4782
v -37.4440 22.0645 -42.0682
v -36.4796 22.0011 -40.5639
v 18.9600 17.0516 3.0339
v 19.4540 17.5274 3.9698
v 18.2590 17.6943 2.4157
v 18.9600 17.0516 3.0339
v 18.2590 17.6943 2.4157
v 19.4540 17.5274 3.9698
v -6.2764 18.4615 -10.5803
v -5.6844 18.9915 -11.4785
v -6.3056 19.0057 -9.5422
v -6.2764 18.4615 -10.5803
v -6.3056 19.0057 -9.5422
v -5.6844 18.9915 -11.4785
v -16.6420 14.9230 30.2874
v -17.4996 15.4642 29.4208
v -15.5426 15.5734 30.5499
v -16.6420 14.9230 30.2874
v -15.5426 15.5734 30.5499
v -17.4996 15.4642 29.4208
v 45.2058 19.1989 -35.8620
v 44.2109 19.6892 -35.8811
v 46.0545 19.7518 -36.2495
v 45.2058 19.1989 -35.8620
v 46.0545 19.7518 -36.2495
v 44.2109 19.6892 -35.8811
v -37.9600 18.3486 -2.4207
v -38.3569 19.0013 -3.7344
v -36.9978 19.0671 -1.5460
v -37.9600 18.3486 -2.4207
v -36.9978 19.0671 -1.5460
v -38.3569 19.0013 -3.7344
v -10.6899 22.1070 -51.1597
v -11.6309 22.6167 -50.5104
v -10.2513 22.7262 -52.1197
v -10.6899 22.1070 -51.1597
v -10.2513 22.7262 -52.1197
v -11.6309 22.6167 -50.5104
v -19.7211 17.2164 9.7499
v -20.8307 18.0494 10.7482
v -19.0746 18.0317 8.4423
v -19.7211 17.2164 9.7499
v -19.0746 18.0317 8.4423
v -20.8307 18.0494 10.7482
v -27.1197 18.9099 -9.5018
v -26.3338 19.2663 -9.3101
v -27.8300 19.3292 -9.2440
v -27.1197 18.9099 -9.5018
v -27.8300 19.3292 -9.2440
v -26.3338 19.2663 -9.3101
v 36.1156 13.5885 35.0842
v 35.3144 14.1594 35.9363
v 36.4573 14.2467 34.0502
v 36.1156 13.5885 35.0842
v 36.4573 14.2467 34.0502
v 35.3144 14.1594 35.9363
v 24.4668 13.4450 38.3728
v 23.0066 14.3268 37.8097
v 26.0283 14.2256 38.1814
v 24.4668 13.4450 38.3728
v 26.0283 14.2256 38.1814
v 23.0066 14.3268 37.8097
v 24.6596 19.0614 -21.1716
v 25.7988 19.5942 -21.5777
v 23.9611 19.7114 -20.3004
v 24.6596 19.0614 -21.1716
v 23.9611 19.7114 -20.3004
v 25.7988 19.5942 -21.5777
v -37.7976 17.0645 33.1863
v -37.4995 17.4073 32.4878
v -37.6648 17.4523 33.8903
v -37.7976 17.0645 33.1863
v -37.6648 17.4523 33.8903
v -37.4995 17.4073 32.4878
vt 0.00000 1.00000
vt 0.00000 1.00000
vt 0.00000 1.00000
vt 0.00000 1.00000
vt 0.00000 1.00000
vt 0.00000 1.00000
vt 0.00000 1.00000
vt 0.00000 1.00000
vt 0.00000 1.00000
vt 0.00000 1.00000
vt 0.00000 1.00000
vt 0.00000 1.00000
vt 0.00000 1.00000
vt 0.00000 1.00000
vt 0.00000 1.00000
vt 0.00000 1.00000
vt 0.00000 1.00000
vt 0.00000 1.00000
vt 0.00000 1.00000
vt 0.00000 1.00000
vt 0.00000 1.00000
vt 0.00000 1.00000
vt 0.00000 1.00000
vt 0.00000 1.00000
vt 0.00000 1.00000
vt 0.00000 1.00000
vt 0.00000 1.00000
vt 0.00000 1.00000
vt 0.00000 1.00000
vt 0.00000 1.00000
vt 0.00000 1.00000
vt 0.00000 1.00000
vt 0.00000 1.00000
vt 0.00000 1.00000
vt 0.00000 1.00000
vt 0.00000 1.00000
vt 0.00000 1.00000
vt 0.00000 1.00000
vt 0.00000 1.00000
vt 0.00000 1.00000
vt 0.00000 1.00000
vt 0.00000 1.00000
vt 0.00000 1.00000
vt 0.00000 1.00000
vt 0.00000 1.00000
vt 0.00000 1.00000
vt 0.00000 1.00000
vt 0.00000 1.00000
vt 0.00000 1.00000
vt 0.00000 1.00000
vt 0.00000 1.00000
vt 0.00000 1.00000
vt 0.00000 1.00000
vt 0.00000 1.00000
vt 0.00000 1.00000
vt 0.00000 1.00000
vt 0.00000 1.00000
vt 0.00000 1.00000
vt 0.00000 1.00000
vt 0.00000 1.00000
vt 0.00000 1.00000
vt 0.00000 1.00000
vt 0.00000 1.00000
vt 0.00000 1.00000
vt 0.00000 1.00000
vt 0.00000 1.00000
vt 0.00000 1.00000
vt 0.00000 1.00000
vt 0.00000 1.00000
vt 0.00000 1.00000
vt 0.00000 1.00000
vt 0.00000 1.00000
vt 0.00000 1.00000
vt 0.00000 1.00000
vt 0.00000 1.00000
vt 0.00000 1.00000
vt 0.00000 1.00000
vt 0.00000 1.00000
vt 0.00000 1.00000
vt 0.00000 1.00000
vt 0.00000 1.00000
vt 0.00000 1.00000
vt 0.00000 1.00000
vt 0.00000 1.00000
vt 0.00000 1.00000
vt 0.00000 1.00000
vt 0.00000 1.00000
vt 0.00000 1.00000
vt 0.00000 1.00000
vt 0.00000 1.00000
vt 0.00000 1.00000
vt 0.00000 1.00000
vt 0.00000 1.00000
vt 0.00000 1.00000
vt 0.00000 1.00000
vt 0.00000 1.00000
vt 0.00000 1.00000
vt 0.00000 1.00000
vt 0.00000 1.00000
vt 0.00000 1.00000
vt 0.00000 1.00000
vt 0.00000 1.00000
vt 0.00000 1.00000
vt 0.00000 1.00000
vt 0.00000 1.00000
vt 0.00000 1.00000
vt 0.00000 1.00000
vt 0.00000 1.00000
vt 0.00000 1.00000
vt 0.00000 1.00000
vt 0.00000 1.00000
vt 0.00000 1.00000
vt 0.00000 1.00000
vt 0.00000 1.00000
vt 0.00000 1.00000
vt 0.00000 1.00000
vt 0.00000 1.00000
vt 0.00000 1.00000
vt 0.00000 1.00000
vt 0.00000 1.00000
vt 0.00000 1.00000
vt 0.00000 1.00000
vt 0.00000 1.00000
vt 0.00000 1.00000
vt 0.00000 1.00000
vt 0.00000 1.00000
vt 0.00000 1.00000
vt 0.00000 1.00000
vt 0.00000 1.00000
vt 0.00000 1.00000
vt 0.00000 1.00000
vt 0.00000 1.00000
vt 0.00000 1.00000
vt 0.00000 1.00000
vt 0.00000 1.00000
vt 0.00000 1.00000
vt 0.00000 1.00000
vt 0.00000 1.00000
vt 0.00000 1.00000
vt 0.00000 1.00000
vt 0.00000 1.00000
vt 0.00000 1.00000
vt 0.00000 1.00000
vt 0.00000 1.00000
vt 0.00000 1.00000
vt 0.00000 1.00000
vt 0.00000 1.00000
vt 0.00000 1.00000
vt 0.00000 1.00000
vt 0.00000 1.00000
usemtl stone
f 1/1 2/2 3/3
f 4/4 5/5 6/6
f 7/7 8/8 9/9
f 10/10 11/11 12/12
f 13/13 14/14 15/15
f 16/16 17/17 18/18
f 19/19 20/20 21/21
f 22/22 23/23 24/24
f 25/25 26/26 27/27
f 28/28 29/29 30/30
f 31/31 32/32 33/33
f 34/34 35/35 36/36
f 37/37 38/38 39/39
f 40/40 41/41 42/42
f 43/43 44/44 45/45
f 46/46 47/47 48/48
f 49/49 50/50 51/51
f 52/52 53/53 54/54
f 55/55 56/56 57/57
f 58/58 59/59 60/60
f 61/61 62/62 63/63
f 64/64 65/65 66/66
f 67/67 68/68 69/69
f 70/70 71/71 72/72
f 73/73 74/74 75/75
f 76/76 77/77 78/78
f 79/79 80/80 81/81
f 82/82 83/83 84/84
f 85/85 86/86 87/87
f 88/88 89/89 90/90
f 91/91 92/92 93/93
f 94/94 95/95 96/96
f 97/97 98/98 99/99
f 100/100 101/101 102/102
f 103/103 104/104 105/105
f 106/106 107/107 108/108
f 109/109 110/110 111/111
f 112/112 113/113 114/114
f 115/115 116/116 117/117
f 118/118 119/119 120/120
f 121/121 122/122 123/123
f 124/124 125/125 126/126
f 127/127 128/128 129/129
f 130/130 131/131 132/132
f 133/133 134/134 135/135
f 136/136 137/137 138/138
f 139/139 140/140 141/141
f 142/142 143/143 144/144
f 145/145 146/146 147/147
f 148/148 149/149 150/150
