# Generated by TyraX. Do not edit - rebaked from the procedural graph of 'pines'.
# 27 instances of res/models/rock.obj
mtllib props.mtl
v 51.0292 9.8043 41.5310
v 50.1038 10.3021 42.2346
v 51.3728 10.4098 40.5095
v 51.0292 9.8043 41.5310
v 51.3728 10.4098 40.5095
v 50.1038 10.3021 42.2346
v -8.8369 1.5219 -47.1609
v -8.5796 1.8195 -47.6954
v -8.8195 1.8407 -46.5961
v -8.8369 1.5219 -47.1609
v -8.8195 1.8407 -46.5961
v -8.5796 1.8195 -47.6954
v 27.2591 8.2988 -27.8483
v 28.6400 9.0640 -28.8102
v 26.5975 9.2133 -26.4367
v 27.2591 8.2988 -27.8483
v 26.5975 9.2133 -26.4367
v 28.6400 9.0640 -28.8102
v -3.7988 3.4072 -25.6944
v -3.5649 4.0977 -24.3058
v -4.8286 4.0293 -26.6448
v -3.7988 3.4072 -25.6944
v -4.8286 4.0293 -26.6448
v -3.5649 4.0977 -24.3058
v -21.4677 9.3554 22.2566
v -20.9533 9.8058 22.8975
v -22.1829 9.7960 21.8908
v -21.4677 9.3554 22.2566
v -22.1829 9.7960 21.8908
v -20.9533 9.8058 22.8975
v 13.7137 6.4825 -24.2645
v 12.9551 6.8863 -24.6181
v 14.5077 6.9155 -24.3505
v 13.7137 6.4825 -24.2645
v 14.5077 6.9155 -24.3505
v 12.9551 6.8863 -24.6181
v -12.7677 0.8310 -44.5952
v -13.1456 1.6293 -46.1107
v -11.6362 1.5821 -43.5481
v -12.7677 0.8310 -44.5952
v -11.6362 1.5821 -43.5481
v -13.1456 1.6293 -46.1107
v 11.5439 9.4258 9.4772
v 10.8793 10.0463 8.6221
v 12.5983 9.9141 9.8500
v 11.5439 9.4258 9.4772
v 12.5983 9.9141 9.8500
v 10.8793 10.0463 8.6221
v -27.0285 -0.1285 -45.7643
v -26.9168 0.3399 -44.7647
v -27.5517 0.4292 -46.5335
v -27.0285 -0.1285 -45.7643
v -27.5517 0.4292 -46.5335
v -26.9168 0.3399 -44.7647
v 21.6001 8.4982 -13.0424
v 22.8269 9.1311 -13.5261
v 20.7640 9.2436 -12.1535
v 21.6001 8.4982 -13.0424
v 20.7640 9.2436 -12.1535
v 22.8269 9.1311 -13.5261
v 51.2606 11.7726 -2.3533
v 51.9892 12.3647 -3.1128
v 50.8821 12.3411 -1.3903
v 51.2606 11.7726 -2.3533
v 50.8821 12.3411 -1.3903
v 51.9892 12.3647 -3.1128
v 10.5157 7.8043 -5.4728
v 11.3299 8.2072 -5.8455
v 10.0506 8.2823 -4.7823
v 10.5157 7.8043 -5.4728
v 10.0506 8.2823 -4.7823
v 11.3299 8.2072 -5.8455
v 29.8453 9.3075 -14.7607
v 30.8053 9.8983 -15.2490
v 29.1764 9.8895 -13.9507
v 29.8453 9.3075 -14.7607
v 29.1764 9.8895 -13.9507
v 30.8053 9.8983 -15.2490
v -35.5665 -0.1697 -43.1322
v -36.7589 0.4628 -43.2589
v -34.4741 0.4767 -43.5137
v -35.5665 -0.1697 -43.1322
v -34.4741 0.4767 -43.5137
v -36.7589 0.4628 -43.2589
v -25.4165 10.4468 34.9547
v -26.3823 11.1641 34.1819
v -24.1447 11.0077 35.1023
v -25.4165 10.4468 34.9547
v -24.1447 11.0077 35.1023
v -26.3823 11.1641 34.1819
v 32.6432 9.1772 -25.7022
v 33.6230 9.8023 -26.1416
v 31.9063 9.7455 -24.9213
v 32.6432 9.1772 -25.7022
v 31.9063 9.7455 -24.9213
v 33.6230 9.8023 -26.1416
v 9.8331 8.8787 6.1309
v 9.1640 9.2559 6.1705
v 10.3965 9.1969 5.7477
v 9.8331 8.8787 6.1309
v 10.3965 9.1969 5.7477
v 9.1640 9.2559 6.1705
v 6.2518 7.5044 -3.1823
v 7.1274 8.1228 -3.7792
v 5.6134 8.0898 -2.3526
v 6.2518 7.5044 -3.1823
v 5.6134 8.0898 -2.3526
v 7.1274 8.1228 -3.7792
v -34.1270 10.1094 45.8442
v -34.2888 10.5929 44.8715
v -33.5642 10.6437 46.5862
v -34.1270 10.1094 45.8442
v -33.5642 10.6437 46.5862
v -34.2888 10.5929 44.8715
v 41.4008 9.6851 41.6000
v 41.5353 10.2286 40.4682
v 41.9095 10.2435 42.5764
v 41.4008 9.6851 41.6000
v 41.9095 10.2435 42.5764
v 41.5353 10.2286 40.4682
v -44.0425 10.1314 51.3243
v -44.2618 10.4344 50.7331
v -43.5817 10.4642 51.7045
v -44.0425 10.1314 51.3243
v -43.5817 10.4642 51.7045
v -44.2618 10.4344 50.7331
v -42.6811 7.4239 19.2799
v -41.8429 7.9598 18.3731
v -42.9424 8.1176 20.3672
v -42.6811 7.4239 19.2799
v -42.9424 8.1176 20.3672
v -41.8429 7.9598 18.3731
v 0.2788 4.7093 -20.1302
v 0.5329 5.1788 -21.0614
v 0.4992 5.2229 -19.2421
v 0.2788 4.7093 -20.1302
v 0.4992 5.2229 -19.2421
v 0.5329 5.1788 -21.0614
v 13.4415 5.6987 -38.0788
v 13.4853 6.3432 -39.3326
v 13.9668 6.3618 -36.9900
v 13.4415 5.6987 -38.0788
v 13.9668 6.3618 -36.9900
v 13.4853 6.3432 -39.3326
v 51.4242 11.4731 -16.9092
v 50.5237 11.9236 -16.6598
v 52.0654 11.9860 -17.5043
v 51.4242 11.4731 -16.9092
v 52.0654 11.9860 -17.5043
v 50.5237 11.9236 -16.6598
v 18.0012 7.6914 -15.4420
v 18.9823 8.1931 -16.1031
v 17.5517 8.3426 -14.4663
v 18.0012 7.6914 -15.4420
v 17.5517 8.3426 -14.4663
v 18.9823 8.1931 -16.1031
v 20.9918 6.7958 -48.2301
v 20.7335 7.2590 -47.2582
v 20.6666 7.2943 -49.1342
v 20.9918 6.7958 -48.2301
v 20.6666 7.2943 -49.1342
v 20.7335 7.2590 -47.2582
vt 0.00000 1.00000
vt 0.00000 1.00000
vt 0.00000 1.00000
vt 0.00000 1.00000
vt 0.00000 1.00000
vt 0.00000 1.00000
vt 0.00000 1.00000
vt 0.00000 1.00000
vt 0.00000 1.00000
vt 0.00000 1.00000
vt 0.00000 1.00000
vt 0.00000 1.00000
vt 0.00000 1.00000
vt 0.00000 1.00000
vt 0.00000 1.00000
vt 0.00000 1.00000
vt 0.00000 1.00000
vt 0.00000 1.00000
vt 0.00000 1.00000
vt 0.00000 1.00000
vt 0.00000 1.00000
vt 0.00000 1.00000
vt 0.00000 1.00000
vt 0.00000 1.00000
vt 0.00000 1.00000
vt 0.00000 1.00000
vt 0.00000 1.00000
vt 0.00000 1.00000
vt 0.00000 1.00000
vt 0.00000 1.00000
vt 0.00000 1.00000
vt 0.00000 1.00000
vt 0.00000 1.00000
vt 0.00000 1.00000
vt 0.00000 1.00000
vt 0.00000 1.00000
vt 0.00000 1.00000
vt 0.00000 1.00000
vt 0.00000 1.00000
vt 0.00000 1.00000
vt 0.00000 1.00000
vt 0.00000 1.00000
vt 0.00000 1.00000
vt 0.00000 1.00000
vt 0.00000 1.00000
vt 0.00000 1.00000
vt 0.00000 1.00000
vt 0.00000 1.00000
vt 0.00000 1.00000
vt 0.00000 1.00000
vt 0.00000 1.00000
vt 0.00000 1.00000
vt 0.00000 1.00000
vt 0.00000 1.00000
vt 0.00000 1.00000
vt 0.00000 1.00000
vt 0.00000 1.00000
vt 0.00000 1.00000
vt 0.00000 1.00000
vt 0.00000 1.00000
vt 0.00000 1.00000
vt 0.00000 1.00000
vt 0.00000 1.00000
vt 0.00000 1.00000
vt 0.00000 1.00000
vt 0.00000 1.00000
vt 0.00000 1.00000
vt 0.00000 1.00000
vt 0.00000 1.00000
vt 0.00000 1.00000
vt 0.00000 1.00000
vt 0.00000 1.00000
vt 0.00000 1.00000
vt 0.00000 1.00000
vt 0.00000 1.00000
vt 0.00000 1.00000
vt 0.00000 1.00000
vt 0.00000 1.00000
vt 0.00000 1.00000
vt 0.00000 1.00000
vt 0.00000 1.00000
vt 0.00000 1.00000
vt 0.00000 1.00000
vt 0.00000 1.00000
vt 0.00000 1.00000
vt 0.00000 1.00000
vt 0.00000 1.00000
vt 0.00000 1.00000
vt 0.00000 1.00000
vt 0.00000 1.00000
vt 0.00000 1.00000
vt 0.00000 1.00000
vt 0.00000 1.00000
vt 0.00000 1.00000
vt 0.00000 1.00000
vt 0.00000 1.00000
vt 0.00000 1.00000
vt 0.00000 1.00000
vt 0.00000 1.00000
vt 0.00000 1.00000
vt 0.00000 1.00000
vt 0.00000 1.00000
vt 0.00000 1.00000
vt 0.00000 1.00000
vt 0.00000 1.00000
vt 0.00000 1.00000
vt 0.00000 1.00000
vt 0.00000 1.00000
vt 0.00000 1.00000
vt 0.00000 1.00000
vt 0.00000 1.00000
vt 0.00000 1.00000
vt 0.00000 1.00000
vt 0.00000 1.00000
vt 0.00000 1.00000
vt 0.00000 1.00000
vt 0.00000 1.00000
vt 0.00000 1.00000
vt 0.00000 1.00000
vt 0.00000 1.00000
vt 0.00000 1.00000
vt 0.00000 1.00000
vt 0.00000 1.00000
vt 0.00000 1.00000
vt 0.00000 1.00000
vt 0.00000 1.00000
vt 0.00000 1.00000
vt 0.00000 1.00000
vt 0.00000 1.00000
vt 0.00000 1.00000
vt 0.00000 1.00000
vt 0.00000 1.00000
vt 0.00000 1.00000
vt 0.00000 1.00000
vt 0.00000 1.00000
vt 0.00000 1.00000
vt 0.00000 1.00000
vt 0.00000 1.00000
vt 0.00000 1.00000
vt 0.00000 1.00000
vt 0.00000 1.00000
vt 0.00000 1.00000
vt 0.00000 1.00000
vt 0.00000 1.00000
vt 0.00000 1.00000
vt 0.00000 1.00000
vt 0.00000 1.00000
vt 0.00000 1.00000
vt 0.00000 1.00000
vt 0.00000 1.00000
vt 0.00000 1.00000
vt 0.00000 1.00000
vt 0.00000 1.00000
vt 0.00000 1.00000
vt 0.00000 1.00000
vt 0.00000 1.00000
vt 0.00000 1.00000
vt 0.00000 1.00000
vt 0.00000 1.00000
vt 0.00000 1.00000
vt 0.00000 1.00000
vt 0.00000 1.00000
usemtl stone
f 1/1 2/2 3/3
f 4/4 5/5 6/6
f 7/7 8/8 9/9
f 10/10 11/11 12/12
f 13/13 14/14 15/15
f 16/16 17/17 18/18
f 19/19 20/20 21/21
f 22/22 23/23 24/24
f 25/25 26/26 27/27
f 28/28 29/29 30/30
f 31/31 32/32 33/33
f 34/34 35/35 36/36
f 37/37 38/38 39/39
f 40/40 41/41 42/42
f 43/43 44/44 45/45
f 46/46 47/47 48/48
f 49/49 50/50 51/51
f 52/52 53/53 54/54
f 55/55 56/56 57/57
f 58/58 59/59 60/60
f 61/61 62/62 63/63
f 64/64 65/65 66/66
f 67/67 68/68 69/69
f 70/70 71/71 72/72
f 73/73 74/74 75/75
f 76/76 77/77 78/78
f 79/79 80/80 81/81
f 82/82 83/83 84/84
f 85/85 86/86 87/87
f 88/88 89/89 90/90
f 91/91 92/92 93/93
f 94/94 95/95 96/96
f 97/97 98/98 99/99
f 100/100 101/101 102/102
f 103/103 104/104 105/105
f 106/106 107/107 108/108
f 109/109 110/110 111/111
f 112/112 113/113 114/114
f 115/115 116/116 117/117
f 118/118 119/119 120/120
f 121/121 122/122 123/123
f 124/124 125/125 126/126
f 127/127 128/128 129/129
f 130/130 131/131 132/132
f 133/133 134/134 135/135
f 136/136 137/137 138/138
f 139/139 140/140 141/141
f 142/142 143/143 144/144
f 145/145 146/146 147/147
f 148/148 149/149 150/150
f 151/151 152/152 153/153
f 154/154 155/155 156/156
f 157/157 158/158 159/159
f 160/160 161/161 162/162
