# Generated by TyraX. Do not edit - rebaked from the procedural graph of 'pines'.
# 7 instances of res/models/rock.obj
mtllib props.mtl
v 47.5556 14.3279 -16.4164
v 46.4350 15.0705 -15.7952
v 48.3635 15.0139 -17.4026
v 47.5556 14.3279 -16.4164
v 48.3635 15.0139 -17.4026
v 46.4350 15.0705 -15.7952
v 39.0920 16.0361 -39.7899
v 38.6067 16.4102 -40.4214
v 39.8038 16.4443 -39.5311
v 39.0920 16.0361 -39.7899
v 39.8038 16.4443 -39.5311
v 38.6067 16.4102 -40.4214
v 10.5115 17.6019 -39.1292
v 11.4053 18.0563 -38.5915
v 9.6020 18.2297 -39.2548
v 10.5115 17.6019 -39.1292
v 9.6020 18.2297 -39.2548
v 11.4053 18.0563 -38.5915
v 35.8834 14.6007 -2.4072
v 35.3598 15.3264 -1.1178
v 35.8027 15.3532 -3.7420
v 35.8834 14.6007 -2.4072
v 35.8027 15.3532 -3.7420
v 35.3598 15.3264 -1.1178
v 39.7302 15.7490 -34.3167
v 41.1172 16.2497 -34.4200
v 38.7800 16.5305 -33.5584
v 39.7302 15.7490 -34.3167
v 38.7800 16.5305 -33.5584
v 41.1172 16.2497 -34.4200
v 49.9321 15.7187 -46.5249
v 48.8378 16.3768 -47.2343
v 51.2069 16.3621 -46.5113
v 49.9321 15.7187 -46.5249
v 51.2069 16.3621 -46.5113
v 48.8378 16.3768 -47.2343
v 49.1194 15.3235 -34.9605
v 50.3431 15.9340 -34.7235
v 47.9960 15.9662 -34.5530
v 49.1194 15.3235 -34.9605
v 47.9960 15.9662 -34.5530
v 50.3431 15.9340 -34.7235
vt 0.00000 1.00000
vt 0.00000 1.00000
vt 0.00000 1.00000
vt 0.00000 1.00000
vt 0.00000 1.00000
vt 0.00000 1.00000
vt 0.00000 1.00000
vt 0.00000 1.00000
vt 0.00000 1.00000
vt 0.00000 1.00000
vt 0.00000 1.00000
vt 0.00000 1.00000
vt 0.00000 1.00000
vt 0.00000 1.00000
vt 0.00000 1.00000
vt 0.00000 1.00000
vt 0.00000 1.00000
vt 0.00000 1.00000
vt 0.00000 1.00000
vt 0.00000 1.00000
vt 0.00000 1.00000
vt 0.00000 1.00000
vt 0.00000 1.00000
vt 0.00000 1.00000
vt 0.00000 1.00000
vt 0.00000 1.00000
vt 0.00000 1.00000
vt 0.00000 1.00000
vt 0.00000 1.00000
vt 0.00000 1.00000
vt 0.00000 1.00000
vt 0.00000 1.00000
vt 0.00000 1.00000
vt 0.00000 1.00000
vt 0.00000 1.00000
vt 0.00000 1.00000
vt 0.00000 1.00000
vt 0.00000 1.00000
vt 0.00000 1.00000
vt 0.00000 1.00000
vt 0.00000 1.00000
vt 0.00000 1.00000
usemtl stone
f 1/1 2/2 3/3
f 4/4 5/5 6/6
f 7/7 8/8 9/9
f 10/10 11/11 12/12
f 13/13 14/14 15/15
f 16/16 17/17 18/18
f 19/19 20/20 21/21
f 22/22 23/23 24/24
f 25/25 26/26 27/27
f 28/28 29/29 30/30
f 31/31 32/32 33/33
f 34/34 35/35 36/36
f 37/37 38/38 39/39
f 40/40 41/41 42/42
