# Generated by TyraX. Do not edit - rebaked from the procedural graph of 'pines'.
# 12 instances of res/models/rock.obj
mtllib props.mtl
v -51.6825 9.6595 -3.1315
v -51.9796 10.2127 -4.2540
v -50.9060 10.2738 -2.3565
v -51.6825 9.6595 -3.1315
v -50.9060 10.2738 -2.3565
v -51.9796 10.2127 -4.2540
v -43.6554 9.8482 -8.8382
v -43.9224 10.3723 -7.8686
v -43.7918 10.4054 -9.7868
v -43.6554 9.8482 -8.8382
v -43.7918 10.4054 -9.7868
v -43.9224 10.3723 -7.8686
v 45.5638 15.3807 -20.8252
v 44.2653 16.0120 -21.1919
v 46.7874 16.1214 -21.0997
v 45.5638 15.3807 -20.8252
v 46.7874 16.1214 -21.0997
v 44.2653 16.0120 -21.1919
v 49.8312 16.8491 2.9918
v 49.2348 17.0835 3.1224
v 50.1942 17.1673 2.5725
v 49.8312 16.8491 2.9918
v 50.1942 17.1673 2.5725
v 49.2348 17.0835 3.1224
v 27.0462 13.0393 -52.4417
v 26.0574 13.6289 -53.2015
v 28.2378 13.6648 -52.3555
v 27.0462 13.0393 -52.4417
v 28.2378 13.6648 -52.3555
v 26.0574 13.6289 -53.2015
v -48.5752 9.9970 10.4929
v -47.8767 10.4825 9.6168
v -48.7045 10.6075 11.5106
v -48.5752 9.9970 10.4929
v -48.7045 10.6075 11.5106
v -47.8767 10.4825 9.6168
v 31.5900 13.8024 -20.9642
v 30.6906 14.4802 -22.0108
v 32.7391 14.5916 -20.4019
v 31.5900 13.8024 -20.9642
v 32.7391 14.5916 -20.4019
v 30.6906 14.4802 -22.0108
v 38.0643 14.2709 -24.5844
v 39.2783 14.8292 -24.7405
v 37.1376 14.9684 -23.9644
v 38.0643 14.2709 -24.5844
v 37.1376 14.9684 -23.9644
v 39.2783 14.8292 -24.7405
v 38.8996 14.6113 -19.1037
v 37.9845 15.1294 -19.2373
v 39.7773 15.0969 -19.3645
v 38.8996 14.6113 -19.1037
v 39.7773 15.0969 -19.3645
v 37.9845 15.1294 -19.2373
v 26.8311 15.2471 17.1398
v 27.2698 15.8891 18.3087
v 25.8110 15.8276 16.4283
v 26.8311 15.2471 17.1398
v 25.8110 15.8276 16.4283
v 27.2698 15.8891 18.3087
v -25.8497 10.7596 16.7735
v -26.2207 11.2472 17.7253
v -25.9874 11.3059 15.8210
v -25.8497 10.7596 16.7735
v -25.9874 11.3059 15.8210
v -26.2207 11.2472 17.7253
v -37.8051 9.9390 -22.8947
v -38.8688 10.5136 -23.0269
v -36.8221 10.4869 -23.2784
v -37.8051 9.9390 -22.8947
v -36.8221 10.4869 -23.2784
v -38.8688 10.5136 -23.0269
vt 0.00000 1.00000
vt 0.00000 1.00000
vt 0.00000 1.00000
vt 0.00000 1.00000
vt 0.00000 1.00000
vt 0.00000 1.00000
vt 0.00000 1.00000
vt 0.00000 1.00000
vt 0.00000 1.00000
vt 0.00000 1.00000
vt 0.00000 1.00000
vt 0.00000 1.00000
vt 0.00000 1.00000
vt 0.00000 1.00000
vt 0.00000 1.00000
vt 0.00000 1.00000
vt 0.00000 1.00000
vt 0.00000 1.00000
vt 0.00000 1.00000
vt 0.00000 1.00000
vt 0.00000 1.00000
vt 0.00000 1.00000
vt 0.00000 1.00000
vt 0.00000 1.00000
vt 0.00000 1.00000
vt 0.00000 1.00000
vt 0.00000 1.00000
vt 0.00000 1.00000
vt 0.00000 1.00000
vt 0.00000 1.00000
vt 0.00000 1.00000
vt 0.00000 1.00000
vt 0.00000 1.00000
vt 0.00000 1.00000
vt 0.00000 1.00000
vt 0.00000 1.00000
vt 0.00000 1.00000
vt 0.00000 1.00000
vt 0.00000 1.00000
vt 0.00000 1.00000
vt 0.00000 1.00000
vt 0.00000 1.00000
vt 0.00000 1.00000
vt 0.00000 1.00000
vt 0.00000 1.00000
vt 0.00000 1.00000
vt 0.00000 1.00000
vt 0.00000 1.00000
vt 0.00000 1.00000
vt 0.00000 1.00000
vt 0.00000 1.00000
vt 0.00000 1.00000
vt 0.00000 1.00000
vt 0.00000 1.00000
vt 0.00000 1.00000
vt 0.00000 1.00000
vt 0.00000 1.00000
vt 0.00000 1.00000
vt 0.00000 1.00000
vt 0.00000 1.00000
vt 0.00000 1.00000
vt 0.00000 1.00000
vt 0.00000 1.00000
vt 0.00000 1.00000
vt 0.00000 1.00000
vt 0.00000 1.00000
vt 0.00000 1.00000
vt 0.00000 1.00000
vt 0.00000 1.00000
vt 0.00000 1.00000
vt 0.00000 1.00000
vt 0.00000 1.00000
usemtl stone
f 1/1 2/2 3/3
f 4/4 5/5 6/6
f 7/7 8/8 9/9
f 10/10 11/11 12/12
f 13/13 14/14 15/15
f 16/16 17/17 18/18
f 19/19 20/20 21/21
f 22/22 23/23 24/24
f 25/25 26/26 27/27
f 28/28 29/29 30/30
f 31/31 32/32 33/33
f 34/34 35/35 36/36
f 37/37 38/38 39/39
f 40/40 41/41 42/42
f 43/43 44/44 45/45
f 46/46 47/47 48/48
f 49/49 50/50 51/51
f 52/52 53/53 54/54
f 55/55 56/56 57/57
f 58/58 59/59 60/60
f 61/61 62/62 63/63
f 64/64 65/65 66/66
f 67/67 68/68 69/69
f 70/70 71/71 72/72
