# Generated by TyraX. Do not edit - rebaked from the procedural graph of 'pines'.
# 25 instances of res/models/rock.obj
mtllib props.mtl
v 37.0516 18.1660 -25.1348
v 35.5850 18.9468 -24.7299
v 38.1708 19.0156 -26.0409
v 37.0516 18.1660 -25.1348
v 38.1708 19.0156 -26.0409
v 35.5850 18.9468 -24.7299
v 42.6921 14.7216 23.3957
v 41.6733 15.4147 24.0582
v 43.2657 15.3108 22.3028
v 42.6921 14.7216 23.3957
v 43.2657 15.3108 22.3028
v 41.6733 15.4147 24.0582
v 14.3510 13.2398 22.8092
v 14.0470 13.5161 22.3218
v 14.8117 13.5563 23.0845
v 14.3510 13.2398 22.8092
v 14.8117 13.5563 23.0845
v 14.0470 13.5161 22.3218
v -31.7809 16.4487 -46.8410
v -30.6594 17.0595 -46.3059
v -32.9718 17.0790 -46.7119
v -31.7809 16.4487 -46.8410
v -32.9718 17.0790 -46.7119
v -30.6594 17.0595 -46.3059
v 48.1434 16.8859 5.0593
v 48.6201 17.2331 5.6506
v 47.4837 17.2961 4.8079
v 48.1434 16.8859 5.0593
v 47.4837 17.2961 4.8079
v 48.6201 17.2331 5.6506
v 50.8186 17.6594 -3.7828
v 51.7246 18.1637 -3.3991
v 49.8709 18.1684 -3.6789
v 50.8186 17.6594 -3.7828
v 49.8709 18.1684 -3.6789
v 51.7246 18.1637 -3.3991
v -42.2811 15.5642 -42.6736
v -43.6830 16.5770 -41.7462
v -41.3502 16.4234 -44.1145
v -42.2811 15.5642 -42.6736
v -41.3502 16.4234 -44.1145
v -43.6830 16.5770 -41.7462
v 24.0440 15.2298 8.2371
v 24.7144 15.7268 7.5493
v 23.7350 15.7578 9.0994
v 24.0440 15.2298 8.2371
v 23.7350 15.7578 9.0994
v 24.7144 15.7268 7.5493
v -28.6316 11.5779 50.3179
v -29.2296 11.9454 50.2250
v -28.0331 11.8813 50.1478
v -28.6316 11.5779 50.3179
v -28.0331 11.8813 50.1478
v -29.2296 11.9454 50.2250
v -24.6322 15.4698 -32.3009
v -25.8614 16.0396 -32.2226
v -23.6800 16.1267 -32.9505
v -24.6322 15.4698 -32.3009
v -23.6800 16.1267 -32.9505
v -25.8614 16.0396 -32.2226
v -18.8970 12.3914 41.9491
v -19.4355 12.9905 42.8932
v -18.7536 12.9878 40.9023
v -18.8970 12.3914 41.9491
v -18.7536 12.9878 40.9023
v -19.4355 12.9905 42.8932
v -16.0161 13.1567 9.2509
v -15.1467 13.8300 8.3920
v -16.3759 13.7739 10.4130
v -16.0161 13.1567 9.2509
v -16.3759 13.7739 10.4130
v -15.1467 13.8300 8.3920
v 49.2662 13.0336 42.5287
v 47.8670 14.0414 43.9594
v 49.7929 14.0921 40.6849
v 49.2662 13.0336 42.5287
v 49.7929 14.0921 40.6849
v 47.8670 14.0414 43.9594
v 4.4717 17.6740 -37.7487
v 4.5236 18.1365 -38.6725
v 4.8059 18.1841 -36.9419
v 4.4717 17.6740 -37.7487
v 4.8059 18.1841 -36.9419
v 4.5236 18.1365 -38.6725
v -33.8351 11.4170 39.6532
v -35.6405 12.3018 39.9233
v -32.4609 12.3994 38.6140
v -33.8351 11.4170 39.6532
v -32.4609 12.3994 38.6140
v -35.6405 12.3018 39.9233
v 8.3004 16.0410 -15.7355
v 9.4519 16.7729 -15.5722
v 7.1385 16.5979 -15.3554
v 8.3004 16.0410 -15.7355
v 7.1385 16.5979 -15.3554
v 9.4519 16.7729 -15.5722
v 45.7084 19.9537 -39.6328
v 45.5257 20.7791 -37.9258
v 45.0336 20.8530 -41.1174
v 45.7084 19.9537 -39.6328
v 45.0336 20.8530 -41.1174
v 45.5257 20.7791 -37.9258
v 39.3447 17.7606 -17.2028
v 40.2448 18.3715 -17.7388
v 38.7956 18.2693 -16.2832
v 39.3447 17.7606 -17.2028
v 38.7956 18.2693 -16.2832
v 40.2448 18.3715 -17.7388
v -6.6156 16.9402 -36.1646
v -5.7020 17.5892 -35.3622
v -7.8522 17.4648 -36.2695
v -6.6156 16.9402 -36.1646
v -7.8522 17.4648 -36.2695
v -5.7020 17.5892 -35.3622
v -19.0068 14.2698 -12.4921
v -17.5396 14.9938 -13.0391
v -19.9632 15.1373 -11.4073
v -19.0068 14.2698 -12.4921
v -19.9632 15.1373 -11.4073
v -17.5396 14.9938 -13.0391
v 41.2535 18.6623 -26.4027
v 41.9523 19.0496 -25.9195
v 40.4790 19.1370 -26.4927
v 41.2535 18.6623 -26.4027
v 40.4790 19.1370 -26.4927
v 41.9523 19.0496 -25.9195
v -36.7631 15.5835 -40.0595
v -36.4655 15.8967 -39.5509
v -37.2819 15.8684 -40.3338
v -36.7631 15.5835 -40.0595
v -37.2819 15.8684 -40.3338
v -36.4655 15.8967 -39.5509
v 12.5616 17.8035 -34.6236
v 13.3174 18.4020 -35.5467
v 12.3651 18.4257 -33.4935
v 12.5616 17.8035 -34.6236
v 12.3651 18.4257 -33.4935
v 13.3174 18.4020 -35.5467
v 39.2008 18.0277 -20.6055
v 39.9906 18.3363 -20.5713
v 38.5976 18.4571 -20.2314
v 39.2008 18.0277 -20.6055
v 38.5976 18.4571 -20.2314
v 39.9906 18.3363 -20.5713
v 49.5518 15.3153 22.9039
v 50.0603 15.7745 22.1149
v 49.4982 15.8121 23.7950
v 49.5518 15.3153 22.9039
v 49.4982 15.8121 23.7950
v 50.0603 15.7745 22.1149
vt 0.00000 1.00000
vt 0.00000 1.00000
vt 0.00000 1.00000
vt 0.00000 1.00000
vt 0.00000 1.00000
vt 0.00000 1.00000
vt 0.00000 1.00000
vt 0.00000 1.00000
vt 0.00000 1.00000
vt 0.00000 1.00000
vt 0.00000 1.00000
vt 0.00000 1.00000
vt 0.00000 1.00000
vt 0.00000 1.00000
vt 0.00000 1.00000
vt 0.00000 1.00000
vt 0.00000 1.00000
vt 0.00000 1.00000
vt 0.00000 1.00000
vt 0.00000 1.00000
vt 0.00000 1.00000
vt 0.00000 1.00000
vt 0.00000 1.00000
vt 0.00000 1.00000
vt 0.00000 1.00000
vt 0.00000 1.00000
vt 0.00000 1.00000
vt 0.00000 1.00000
vt 0.00000 1.00000
vt 0.00000 1.00000
vt 0.00000 1.00000
vt 0.00000 1.00000
vt 0.00000 1.00000
vt 0.00000 1.00000
vt 0.00000 1.00000
vt 0.00000 1.00000
vt 0.00000 1.00000
vt 0.00000 1.00000
vt 0.00000 1.00000
vt 0.00000 1.00000
vt 0.00000 1.00000
vt 0.00000 1.00000
vt 0.00000 1.00000
vt 0.00000 1.00000
vt 0.00000 1.00000
vt 0.00000 1.00000
vt 0.00000 1.00000
vt 0.00000 1.00000
vt 0.00000 1.00000
vt 0.00000 1.00000
vt 0.00000 1.00000
vt 0.00000 1.00000
vt 0.00000 1.00000
vt 0.00000 1.00000
vt 0.00000 1.00000
vt 0.00000 1.00000
vt 0.00000 1.00000
vt 0.00000 1.00000
vt 0.00000 1.00000
vt 0.00000 1.00000
vt 0.00000 1.00000
vt 0.00000 1.00000
vt 0.00000 1.00000
vt 0.00000 1.00000
vt 0.00000 1.00000
vt 0.00000 1.00000
vt 0.00000 1.00000
vt 0.00000 1.00000
vt 0.00000 1.00000
vt 0.00000 1.00000
vt 0.00000 1.00000
vt 0.00000 1.00000
vt 0.00000 1.00000
vt 0.00000 1.00000
vt 0.00000 1.00000
vt 0.00000 1.00000
vt 0.00000 1.00000
vt 0.00000 1.00000
vt 0.00000 1.00000
vt 0.00000 1.00000
vt 0.00000 1.00000
vt 0.00000 1.00000
vt 0.00000 1.00000
vt 0.00000 1.00000
vt 0.00000 1.00000
vt 0.00000 1.00000
vt 0.00000 1.00000
vt 0.00000 1.00000
vt 0.00000 1.00000
vt 0.00000 1.00000
vt 0.00000 1.00000
vt 0.00000 1.00000
vt 0.00000 1.00000
vt 0.00000 1.00000
vt 0.00000 1.00000
vt 0.00000 1.00000
vt 0.00000 1.00000
vt 0.00000 1.00000
vt 0.00000 1.00000
vt 0.00000 1.00000
vt 0.00000 1.00000
vt 0.00000 1.00000
vt 0.00000 1.00000
vt 0.00000 1.00000
vt 0.00000 1.00000
vt 0.00000 1.00000
vt 0.00000 1.00000
vt 0.00000 1.00000
vt 0.00000 1.00000
vt 0.00000 1.00000
vt 0.00000 1.00000
vt 0.00000 1.00000
vt 0.00000 1.00000
vt 0.00000 1.00000
vt 0.00000 1.00000
vt 0.00000 1.00000
vt 0.00000 1.00000
vt 0.00000 1.00000
vt 0.00000 1.00000
vt 0.00000 1.00000
vt 0.00000 1.00000
vt 0.00000 1.00000
vt 0.00000 1.00000
vt 0.00000 1.00000
vt 0.00000 1.00000
vt 0.00000 1.00000
vt 0.00000 1.00000
vt 0.00000 1.00000
vt 0.00000 1.00000
vt 0.00000 1.00000
vt 0.00000 1.00000
vt 0.00000 1.00000
vt 0.00000 1.00000
vt 0.00000 1.00000
vt 0.00000 1.00000
vt 0.00000 1.00000
vt 0.00000 1.00000
vt 0.00000 1.00000
vt 0.00000 1.00000
vt 0.00000 1.00000
vt 0.00000 1.00000
vt 0.00000 1.00000
vt 0.00000 1.00000
vt 0.00000 1.00000
vt 0.00000 1.00000
vt 0.00000 1.00000
vt 0.00000 1.00000
vt 0.00000 1.00000
vt 0.00000 1.00000
vt 0.00000 1.00000
usemtl stone
f 1/1 2/2 3/3
f 4/4 5/5 6/6
f 7/7 8/8 9/9
f 10/10 11/11 12/12
f 13/13 14/14 15/15
f 16/16 17/17 18/18
f 19/19 20/20 21/21
f 22/22 23/23 24/24
f 25/25 26/26 27/27
f 28/28 29/29 30/30
f 31/31 32/32 33/33
f 34/34 35/35 36/36
f 37/37 38/38 39/39
f 40/40 41/41 42/42
f 43/43 44/44 45/45
f 46/46 47/47 48/48
f 49/49 50/50 51/51
f 52/52 53/53 54/54
f 55/55 56/56 57/57
f 58/58 59/59 60/60
f 61/61 62/62 63/63
f 64/64 65/65 66/66
f 67/67 68/68 69/69
f 70/70 71/71 72/72
f 73/73 74/74 75/75
f 76/76 77/77 78/78
f 79/79 80/80 81/81
f 82/82 83/83 84/84
f 85/85 86/86 87/87
f 88/88 89/89 90/90
f 91/91 92/92 93/93
f 94/94 95/95 96/96
f 97/97 98/98 99/99
f 100/100 101/101 102/102
f 103/103 104/104 105/105
f 106/106 107/107 108/108
f 109/109 110/110 111/111
f 112/112 113/113 114/114
f 115/115 116/116 117/117
f 118/118 119/119 120/120
f 121/121 122/122 123/123
f 124/124 125/125 126/126
f 127/127 128/128 129/129
f 130/130 131/131 132/132
f 133/133 134/134 135/135
f 136/136 137/137 138/138
f 139/139 140/140 141/141
f 142/142 143/143 144/144
f 145/145 146/146 147/147
f 148/148 149/149 150/150
