# Generated by TyraX. Do not edit - rebaked from the procedural graph of 'pines'.
# 32 instances of res/models/rock.obj
mtllib props.mtl
v -36.1748 15.8018 -18.0620
v -37.0682 16.3021 -18.0032
v -35.4053 16.2617 -18.5113
v -36.1748 15.8018 -18.0620
v -35.4053 16.2617 -18.5113
v -37.0682 16.3021 -18.0032
v 2.8257 11.3063 42.2845
v 3.2317 11.8626 41.2139
v 3.0312 11.8924 43.3628
v 2.8257 11.3063 42.2845
v 3.0312 11.8924 43.3628
v 3.2317 11.8626 41.2139
v 41.8709 12.3208 -11.2846
v 41.3346 12.6384 -11.7433
v 42.5038 12.7137 -11.1522
v 41.8709 12.3208 -11.2846
v 42.5038 12.7137 -11.1522
v 41.3346 12.6384 -11.7433
v -26.7595 16.2181 -44.4828
v -26.0987 16.6012 -44.7702
v -27.1882 16.5824 -43.9170
v -26.7595 16.2181 -44.4828
v -27.1882 16.5824 -43.9170
v -26.0987 16.6012 -44.7702
v 19.1581 11.3811 1.4465
v 19.9490 11.7473 1.2708
v 18.5935 11.8373 1.9245
v 19.1581 11.3811 1.4465
v 18.5935 11.8373 1.9245
v 19.9490 11.7473 1.2708
v -13.9943 12.0218 44.4890
v -12.9786 12.5299 45.2451
v -15.0822 12.7733 44.3134
v -13.9943 12.0218 44.4890
v -15.0822 12.7733 44.3134
v -12.9786 12.5299 45.2451
v -5.5366 11.9795 36.4033
v -6.3188 12.4695 36.1805
v -4.7131 12.3857 36.2666
v -5.5366 11.9795 36.4033
v -4.7131 12.3857 36.2666
v -6.3188 12.4695 36.1805
v 50.3978 11.0672 37.4656
v 49.6806 11.4347 37.1084
v 51.1316 11.5188 37.4570
v 50.3978 11.0672 37.4656
v 51.1316 11.5188 37.4570
v 49.6806 11.4347 37.1084
v 26.9709 10.3203 23.2738
v 26.4459 10.9875 24.5862
v 26.7518 11.0594 21.9544
v 26.9709 10.3203 23.2738
v 26.7518 11.0594 21.9544
v 26.4459 10.9875 24.5862
v -38.2415 14.8650 -4.2806
v -37.2569 15.3878 -4.6109
v -38.9211 15.4148 -3.5541
v -38.2415 14.8650 -4.2806
v -38.9211 15.4148 -3.5541
v -37.2569 15.3878 -4.6109
v -5.4830 14.5384 -23.5166
v -4.0402 15.3459 -24.3490
v -6.2234 15.3766 -22.0939
v -5.4830 14.5384 -23.5166
v -6.2234 15.3766 -22.0939
v -4.0402 15.3459 -24.3490
v -13.2875 12.3987 19.2559
v -11.9194 13.2311 20.6407
v -14.9188 13.5411 18.6923
v -13.2875 12.3987 19.2559
v -14.9188 13.5411 18.6923
v -11.9194 13.2311 20.6407
v 26.5629 12.8850 -26.2911
v 25.3147 13.4166 -26.2000
v 27.4988 13.5905 -26.9184
v 26.5629 12.8850 -26.2911
v 27.4988 13.5905 -26.9184
v 25.3147 13.4166 -26.2000
v 10.7926 11.4276 4.7783
v 11.0988 11.9831 3.6676
v 11.0632 12.0381 5.8355
v 10.7926 11.4276 4.7783
v 11.0632 12.0381 5.8355
v 11.0988 11.9831 3.6676
v 38.7992 15.7388 -46.8392
v 38.9978 16.3125 -45.7013
v 38.1623 16.3759 -47.7214
v 38.7992 15.7388 -46.8392
v 38.1623 16.3759 -47.7214
v 38.9978 16.3125 -45.7013
v 0.0261 14.8019 -29.9490
v 1.7271 15.8029 -29.1771
v -1.8289 15.6853 -29.6822
v 0.0261 14.8019 -29.9490
v -1.8289 15.6853 -29.6822
v 1.7271 15.8029 -29.1771
v -42.1024 13.8118 19.5369
v -41.7115 14.3302 20.5421
v -42.9705 14.3328 18.9507
v -42.1024 13.8118 19.5369
v -42.9705 14.3328 18.9507
v -41.7115 14.3302 20.5421
v 30.8867 16.0346 -51.8201
v 30.9981 16.4450 -50.9560
v 30.4805 16.5411 -52.5020
v 30.8867 16.0346 -51.8201
v 30.4805 16.5411 -52.5020
v 30.9981 16.4450 -50.9560
v 25.2395 11.4328 -4.9941
v 25.2324 11.7197 -4.4054
v 24.9902 11.7540 -5.4887
v 25.2395 11.4328 -4.9941
v 24.9902 11.7540 -5.4887
v 25.2324 11.7197 -4.4054
v -36.8139 13.9530 7.8361
v -37.0330 14.4455 8.8122
v -37.0698 14.4893 6.9223
v -36.8139 13.9530 7.8361
v -37.0698 14.4893 6.9223
v -37.0330 14.4455 8.8122
v -14.5780 15.6364 -37.6231
v -14.2302 16.0346 -38.3564
v -14.5053 16.0557 -36.8485
v -14.5780 15.6364 -37.6231
v -14.5053 16.0557 -36.8485
v -14.2302 16.0346 -38.3564
v 8.9749 10.5420 48.8855
v 9.0414 11.3438 47.1476
v 9.9307 11.3621 50.2708
v 8.9749 10.5420 48.8855
v 9.9307 11.3621 50.2708
v 9.0414 11.3438 47.1476
v -18.7668 14.2006 -6.5227
v -18.1042 14.5025 -6.8155
v -19.1012 14.5651 -5.9362
v -18.7668 14.2006 -6.5227
v -19.1012 14.5651 -5.9362
v -18.1042 14.5025 -6.8155
v -3.3612 12.2506 6.4295
v -2.2835 12.7743 6.4194
v -4.2541 12.8364 6.9110
v -3.3612 12.2506 6.4295
v -4.2541 12.8364 6.9110
v -2.2835 12.7743 6.4194
v -49.2523 17.1938 -49.2255
v -50.1303 17.8430 -49.8996
v -48.1459 17.7455 -49.0121
v -49.2523 17.1938 -49.2255
v -48.1459 17.7455 -49.0121
v -50.1303 17.8430 -49.8996
v -10.0447 14.1736 -11.9014
v -11.3918 14.7511 -11.7320
v -9.0791 14.9184 -12.6718
v -10.0447 14.1736 -11.9014
v -9.0791 14.9184 -12.6718
v -11.3918 14.7511 -11.7320
v -18.5358 13.2061 3.9052
v -18.8614 14.0565 2.2350
v -17.4401 14.0758 5.1306
v -18.5358 13.2061 3.9052
v -17.4401 14.0758 5.1306
v -18.8614 14.0565 2.2350
v -8.0854 13.2558 -4.9601
v -7.3113 13.7748 -4.1403
v -9.0272 13.9134 -5.3512
v -8.0854 13.2558 -4.9601
v -9.0272 13.9134 -5.3512
v -7.3113 13.7748 -4.1403
v 37.2120 12.2684 -14.2040
v 36.2816 12.7159 -14.6162
v 38.1344 12.8365 -14.2908
v 37.2120 12.2684 -14.2040
v 38.1344 12.8365 -14.2908
v 36.2816 12.7159 -14.6162
v 7.0911 11.5163 17.6323
v 6.3286 11.9557 18.3150
v 7.3815 12.0886 16.7527
v 7.0911 11.5163 17.6323
v 7.3815 12.0886 16.7527
v 6.3286 11.9557 18.3150
v -14.7232 13.0295 3.6804
v -13.9898 13.6344 4.5790
v -15.7237 13.6617 3.1958
v -14.7232 13.0295 3.6804
v -15.7237 13.6617 3.1958
v -13.9898 13.6344 4.5790
v -8.0801 16.3883 -48.1637
v -8.9440 16.8260 -48.8354
v -7.1176 17.0105 -48.0454
v -8.0801 16.3883 -48.1637
v -7.1176 17.0105 -48.0454
v -8.9440 16.8260 -48.8354
vt 0.00000 1.00000
vt 0.00000 1.00000
vt 0.00000 1.00000
vt 0.00000 1.00000
vt 0.00000 1.00000
vt 0.00000 1.00000
vt 0.00000 1.00000
vt 0.00000 1.00000
vt 0.00000 1.00000
vt 0.00000 1.00000
vt 0.00000 1.00000
vt 0.00000 1.00000
vt 0.00000 1.00000
vt 0.00000 1.00000
vt 0.00000 1.00000
vt 0.00000 1.00000
vt 0.00000 1.00000
vt 0.00000 1.00000
vt 0.00000 1.00000
vt 0.00000 1.00000
vt 0.00000 1.00000
vt 0.00000 1.00000
vt 0.00000 1.00000
vt 0.00000 1.00000
vt 0.00000 1.00000
vt 0.00000 1.00000
vt 0.00000 1.00000
vt 0.00000 1.00000
vt 0.00000 1.00000
vt 0.00000 1.00000
vt 0.00000 1.00000
vt 0.00000 1.00000
vt 0.00000 1.00000
vt 0.00000 1.00000
vt 0.00000 1.00000
vt 0.00000 1.00000
vt 0.00000 1.00000
vt 0.00000 1.00000
vt 0.00000 1.00000
vt 0.00000 1.00000
vt 0.00000 1.00000
vt 0.00000 1.00000
vt 0.00000 1.00000
vt 0.00000 1.00000
vt 0.00000 1.00000
vt 0.00000 1.00000
vt 0.00000 1.00000
vt 0.00000 1.00000
vt 0.00000 1.00000
vt 0.00000 1.00000
vt 0.00000 1.00000
vt 0.00000 1.00000
vt 0.00000 1.00000
vt 0.00000 1.00000
vt 0.00000 1.00000
vt 0.00000 1.00000
vt 0.00000 1.00000
vt 0.00000 1.00000
vt 0.00000 1.00000
vt 0.00000 1.00000
vt 0.00000 1.00000
vt 0.00000 1.00000
vt 0.00000 1.00000
vt 0.00000 1.00000
vt 0.00000 1.00000
vt 0.00000 1.00000
vt 0.00000 1.00000
vt 0.00000 1.00000
vt 0.00000 1.00000
vt 0.00000 1.00000
vt 0.00000 1.00000
vt 0.00000 1.00000
vt 0.00000 1.00000
vt 0.00000 1.00000
vt 0.00000 1.00000
vt 0.00000 1.00000
vt 0.00000 1.00000
vt 0.00000 1.00000
vt 0.00000 1.00000
vt 0.00000 1.00000
vt 0.00000 1.00000
vt 0.00000 1.00000
vt 0.00000 1.00000
vt 0.00000 1.00000
vt 0.00000 1.00000
vt 0.00000 1.00000
vt 0.00000 1.00000
vt 0.00000 1.00000
vt 0.00000 1.00000
vt 0.00000 1.00000
vt 0.00000 1.00000
vt 0.00000 1.00000
vt 0.00000 1.00000
vt 0.00000 1.00000
vt 0.00000 1.00000
vt 0.00000 1.00000
vt 0.00000 1.00000
vt 0.00000 1.00000
vt 0.00000 1.00000
vt 0.00000 1.00000
vt 0.00000 1.00000
vt 0.00000 1.00000
vt 0.00000 1.00000
vt 0.00000 1.00000
vt 0.00000 1.00000
vt 0.00000 1.00000
vt 0.00000 1.00000
vt 0.00000 1.00000
vt 0.00000 1.00000
vt 0.00000 1.00000
vt 0.00000 1.00000
vt 0.00000 1.00000
vt 0.00000 1.00000
vt 0.00000 1.00000
vt 0.00000 1.00000
vt 0.00000 1.00000
vt 0.00000 1.00000
vt 0.00000 1.00000
vt 0.00000 1.00000
vt 0.00000 1.00000
vt 0.00000 1.00000
vt 0.00000 1.00000
vt 0.00000 1.00000
vt 0.00000 1.00000
vt 0.00000 1.00000
vt 0.00000 1.00000
vt 0.00000 1.00000
vt 0.00000 1.00000
vt 0.00000 1.00000
vt 0.00000 1.00000
vt 0.00000 1.00000
vt 0.00000 1.00000
vt 0.00000 1.00000
vt 0.00000 1.00000
vt 0.00000 1.00000
vt 0.00000 1.00000
vt 0.00000 1.00000
vt 0.00000 1.00000
vt 0.00000 1.00000
vt 0.00000 1.00000
vt 0.00000 1.00000
vt 0.00000 1.00000
vt 0.00000 1.00000
vt 0.00000 1.00000
vt 0.00000 1.00000
vt 0.00000 1.00000
vt 0.00000 1.00000
vt 0.00000 1.00000
vt 0.00000 1.00000
vt 0.00000 1.00000
vt 0.00000 1.00000
vt 0.00000 1.00000
vt 0.00000 1.00000
vt 0.00000 1.00000
vt 0.00000 1.00000
vt 0.00000 1.00000
vt 0.00000 1.00000
vt 0.00000 1.00000
vt 0.00000 1.00000
vt 0.00000 1.00000
vt 0.00000 1.00000
vt 0.00000 1.00000
vt 0.00000 1.00000
vt 0.00000 1.00000
vt 0.00000 1.00000
vt 0.00000 1.00000
vt 0.00000 1.00000
vt 0.00000 1.00000
vt 0.00000 1.00000
vt 0.00000 1.00000
vt 0.00000 1.00000
vt 0.00000 1.00000
vt 0.00000 1.00000
vt 0.00000 1.00000
vt 0.00000 1.00000
vt 0.00000 1.00000
vt 0.00000 1.00000
vt 0.00000 1.00000
vt 0.00000 1.00000
vt 0.00000 1.00000
vt 0.00000 1.00000
vt 0.00000 1.00000
vt 0.00000 1.00000
vt 0.00000 1.00000
vt 0.00000 1.00000
vt 0.00000 1.00000
vt 0.00000 1.00000
vt 0.00000 1.00000
vt 0.00000 1.00000
vt 0.00000 1.00000
vt 0.00000 1.00000
vt 0.00000 1.00000
usemtl stone
f 1/1 2/2 3/3
f 4/4 5/5 6/6
f 7/7 8/8 9/9
f 10/10 11/11 12/12
f 13/13 14/14 15/15
f 16/16 17/17 18/18
f 19/19 20/20 21/21
f 22/22 23/23 24/24
f 25/25 26/26 27/27
f 28/28 29/29 30/30
f 31/31 32/32 33/33
f 34/34 35/35 36/36
f 37/37 38/38 39/39
f 40/40 41/41 42/42
f 43/43 44/44 45/45
f 46/46 47/47 48/48
f 49/49 50/50 51/51
f 52/52 53/53 54/54
f 55/55 56/56 57/57
f 58/58 59/59 60/60
f 61/61 62/62 63/63
f 64/64 65/65 66/66
f 67/67 68/68 69/69
f 70/70 71/71 72/72
f 73/73 74/74 75/75
f 76/76 77/77 78/78
f 79/79 80/80 81/81
f 82/82 83/83 84/84
f 85/85 86/86 87/87
f 88/88 89/89 90/90
f 91/91 92/92 93/93
f 94/94 95/95 96/96
f 97/97 98/98 99/99
f 100/100 101/101 102/102
f 103/103 104/104 105/105
f 106/106 107/107 108/108
f 109/109 110/110 111/111
f 112/112 113/113 114/114
f 115/115 116/116 117/117
f 118/118 119/119 120/120
f 121/121 122/122 123/123
f 124/124 125/125 126/126
f 127/127 128/128 129/129
f 130/130 131/131 132/132
f 133/133 134/134 135/135
f 136/136 137/137 138/138
f 139/139 140/140 141/141
f 142/142 143/143 144/144
f 145/145 146/146 147/147
f 148/148 149/149 150/150
f 151/151 152/152 153/153
f 154/154 155/155 156/156
f 157/157 158/158 159/159
f 160/160 161/161 162/162
f 163/163 164/164 165/165
f 166/166 167/167 168/168
f 169/169 170/170 171/171
f 172/172 173/173 174/174
f 175/175 176/176 177/177
f 178/178 179/179 180/180
f 181/181 182/182 183/183
f 184/184 185/185 186/186
f 187/187 188/188 189/189
f 190/190 191/191 192/192
