# Generated by TyraX. Do not edit - rebaked from the procedural graph of 'pines'.
# 31 instances of res/models/rock.obj
mtllib props.mtl
v -9.7807 19.5264 39.3145
v -9.4473 19.9756 38.4493
v -9.6164 20.0003 40.1880
v -9.7807 19.5264 39.3145
v -9.6164 20.0003 40.1880
v -9.4473 19.9756 38.4493
v -39.4001 19.7047 30.5897
v -40.6843 20.4949 29.7706
v -37.9375 20.5140 30.7304
v -39.4001 19.7047 30.5897
v -37.9375 20.5140 30.7304
v -40.6843 20.4949 29.7706
v -32.6080 13.7141 -31.4091
v -34.1124 14.3759 -31.2020
v -31.5593 14.4912 -32.3678
v -32.6080 13.7141 -31.4091
v -31.5593 14.4912 -32.3678
v -34.1124 14.3759 -31.2020
v -43.1919 16.8867 -18.9419
v -42.1789 17.3288 -18.4735
v -44.1527 17.5600 -18.9141
v -43.1919 16.8867 -18.9419
v -44.1527 17.5600 -18.9141
v -42.1789 17.3288 -18.4735
v 23.3286 17.1192 50.3505
v 22.7338 17.3996 49.9397
v 23.9441 17.5545 50.4294
v 23.3286 17.1192 50.3505
v 23.9441 17.5545 50.4294
v 22.7338 17.3996 49.9397
v 17.3958 14.0831 -7.5743
v 18.3229 14.5319 -8.1054
v 16.9115 14.6868 -6.7469
v 17.3958 14.0831 -7.5743
v 16.9115 14.6868 -6.7469
v 18.3229 14.5319 -8.1054
v -50.8592 20.6017 22.8291
v -50.0603 21.0176 22.3699
v -51.3073 21.1195 23.5419
v -50.8592 20.6017 22.8291
v -51.3073 21.1195 23.5419
v -50.0603 21.0176 22.3699
v -14.7797 17.9327 19.0227
v -15.2597 18.5632 20.2864
v -15.0577 18.6178 17.7658
v -14.7797 17.9327 19.0227
v -15.0577 18.6178 17.7658
v -15.2597 18.5632 20.2864
v -5.5536 16.5174 13.4750
v -5.9185 16.9909 14.3256
v -5.5806 17.0265 12.5956
v -5.5536 16.5174 13.4750
v -5.5806 17.0265 12.5956
v -5.9185 16.9909 14.3256
v -8.5037 19.4241 41.4303
v -8.0033 20.0394 42.7106
v -9.4425 20.2046 40.6075
v -8.5037 19.4241 41.4303
v -9.4425 20.2046 40.6075
v -8.0033 20.0394 42.7106
v -30.0158 20.0359 39.9010
v -30.6043 20.5059 39.1059
v -29.1393 20.5444 40.2464
v -30.0158 20.0359 39.9010
v -29.1393 20.5444 40.2464
v -30.6043 20.5059 39.1059
v 13.3547 15.7353 15.8699
v 14.1085 16.1249 15.6277
v 12.8480 16.1471 16.4338
v 13.3547 15.7353 15.8699
v 12.8480 16.1471 16.4338
v 14.1085 16.1249 15.6277
v 48.3197 13.0560 -16.3326
v 48.7712 13.5529 -15.5179
v 47.4807 13.4820 -16.7564
v 48.3197 13.0560 -16.3326
v 47.4807 13.4820 -16.7564
v 48.7712 13.5529 -15.5179
v -41.4084 14.0503 -40.8338
v -41.1891 14.4587 -39.9949
v -41.9826 14.5125 -41.4123
v -41.4084 14.0503 -40.8338
v -41.9826 14.5125 -41.4123
v -41.1891 14.4587 -39.9949
v -38.6894 16.6763 -15.2001
v -39.1622 16.9438 -15.6034
v -38.1525 17.0389 -15.0673
v -38.6894 16.6763 -15.2001
v -38.1525 17.0389 -15.0673
v -39.1622 16.9438 -15.6034
v -4.1060 18.4184 30.5142
v -3.2167 18.9801 29.6288
v -4.3903 19.0955 31.6400
v -4.1060 18.4184 30.5142
v -4.3903 19.0955 31.6400
v -3.2167 18.9801 29.6288
v 5.6252 12.4516 -31.1941
v 7.1597 13.3555 -31.9965
v 4.6125 13.3965 -29.8796
v 5.6252 12.4516 -31.1941
v 4.6125 13.3965 -29.8796
v 7.1597 13.3555 -31.9965
v -48.9952 20.5030 39.8052
v -50.1357 21.1369 39.2574
v -47.7704 21.1303 39.6621
v -48.9952 20.5030 39.8052
v -47.7704 21.1303 39.6621
v -50.1357 21.1369 39.2574
v 52.1314 12.0804 -26.1730
v 50.6961 12.7420 -26.9403
v 53.5930 12.9752 -26.2860
v 52.1314 12.0804 -26.1730
v 53.5930 12.9752 -26.2860
v 50.6961 12.7420 -26.9403
v -30.8576 18.8775 19.7769
v -29.6024 19.5730 19.1984
v -31.6678 19.6208 20.8157
v -30.8576 18.8775 19.7769
v -31.6678 19.6208 20.8157
v -29.6024 19.5730 19.1984
v 28.0143 11.1598 -40.1062
v 28.0892 12.1645 -38.1215
v 26.9279 12.1467 -41.7126
v 28.0143 11.1598 -40.1062
v 26.9279 12.1467 -41.7126
v 28.0892 12.1645 -38.1215
v -20.4925 17.7354 14.4667
v -21.7167 18.3167 14.2445
v -19.3965 18.3972 14.0627
v -20.4925 17.7354 14.4667
v -19.3965 18.3972 14.0627
v -21.7167 18.3167 14.2445
v -5.8727 13.6005 -13.6579
v -6.4375 14.0145 -14.3624
v -5.0676 14.0693 -13.3839
v -5.8727 13.6005 -13.6579
v -5.0676 14.0693 -13.3839
v -6.4375 14.0145 -14.3624
v -17.1637 13.4273 -21.5833
v -17.9845 13.8848 -22.0510
v -16.2443 13.8729 -21.6779
v -17.1637 13.4273 -21.5833
v -16.2443 13.8729 -21.6779
v -17.9845 13.8848 -22.0510
v -19.3886 11.6961 -46.2338
v -19.2197 12.3580 -47.6553
v -18.7296 12.3927 -45.0264
v -19.3886 11.6961 -46.2338
v -18.7296 12.3927 -45.0264
v -19.2197 12.3580 -47.6553
v -3.0036 14.1326 -5.1964
v -2.9767 14.6008 -4.2716
v -3.4832 14.6033 -5.9554
v -3.0036 14.1326 -5.1964
v -3.4832 14.6033 -5.9554
v -2.9767 14.6008 -4.2716
v -22.0149 13.6919 -23.4492
v -21.5681 13.9734 -24.0170
v -22.0164 14.0546 -22.7836
v -22.0149 13.6919 -23.4492
v -22.0164 14.0546 -22.7836
v -21.5681 13.9734 -24.0170
v -37.0014 13.5610 -39.1697
v -38.1671 14.2166 -40.2794
v -35.6633 14.5227 -38.7556
v -37.0014 13.5610 -39.1697
v -35.6633 14.5227 -38.7556
v -38.1671 14.2166 -40.2794
v 45.8857 15.5538 36.5535
v 45.0546 15.9725 36.5364
v 46.5917 15.9885 36.1787
v 45.8857 15.5538 36.5535
v 46.5917 15.9885 36.1787
v 45.0546 15.9725 36.5364
v 23.2064 10.1940 -52.1455
v 22.8844 10.5583 -51.4290
v 23.0990 10.5992 -52.8809
v 23.2064 10.1940 -52.1455
v 23.0990 10.5992 -52.8809
v 22.8844 10.5583 -51.4290
v 22.7927 17.1193 38.7581
v 22.3156 17.7336 37.6300
v 23.7813 17.7208 39.4329
v 22.7927 17.1193 38.7581
v 23.7813 17.7208 39.4329
v 22.3156 17.7336 37.6300
vt 0.00000 1.00000
vt 0.00000 1.00000
vt 0.00000 1.00000
vt 0.00000 1.00000
vt 0.00000 1.00000
vt 0.00000 1.00000
vt 0.00000 1.00000
vt 0.00000 1.00000
vt 0.00000 1.00000
vt 0.00000 1.00000
vt 0.00000 1.00000
vt 0.00000 1.00000
vt 0.00000 1.00000
vt 0.00000 1.00000
vt 0.00000 1.00000
vt 0.00000 1.00000
vt 0.00000 1.00000
vt 0.00000 1.00000
vt 0.00000 1.00000
vt 0.00000 1.00000
vt 0.00000 1.00000
vt 0.00000 1.00000
vt 0.00000 1.00000
vt 0.00000 1.00000
vt 0.00000 1.00000
vt 0.00000 1.00000
vt 0.00000 1.00000
vt 0.00000 1.00000
vt 0.00000 1.00000
vt 0.00000 1.00000
vt 0.00000 1.00000
vt 0.00000 1.00000
vt 0.00000 1.00000
vt 0.00000 1.00000
vt 0.00000 1.00000
vt 0.00000 1.00000
vt 0.00000 1.00000
vt 0.00000 1.00000
vt 0.00000 1.00000
vt 0.00000 1.00000
vt 0.00000 1.00000
vt 0.00000 1.00000
vt 0.00000 1.00000
vt 0.00000 1.00000
vt 0.00000 1.00000
vt 0.00000 1.00000
vt 0.00000 1.00000
vt 0.00000 1.00000
vt 0.00000 1.00000
vt 0.00000 1.00000
vt 0.00000 1.00000
vt 0.00000 1.00000
vt 0.00000 1.00000
vt 0.00000 1.00000
vt 0.00000 1.00000
vt 0.00000 1.00000
vt 0.00000 1.00000
vt 0.00000 1.00000
vt 0.00000 1.00000
vt 0.00000 1.00000
vt 0.00000 1.00000
vt 0.00000 1.00000
vt 0.00000 1.00000
vt 0.00000 1.00000
vt 0.00000 1.00000
vt 0.00000 1.00000
vt 0.00000 1.00000
vt 0.00000 1.00000
vt 0.00000 1.00000
vt 0.00000 1.00000
vt 0.00000 1.00000
vt 0.00000 1.00000
vt 0.00000 1.00000
vt 0.00000 1.00000
vt 0.00000 1.00000
vt 0.00000 1.00000
vt 0.00000 1.00000
vt 0.00000 1.00000
vt 0.00000 1.00000
vt 0.00000 1.00000
vt 0.00000 1.00000
vt 0.00000 1.00000
vt 0.00000 1.00000
vt 0.00000 1.00000
vt 0.00000 1.00000
vt 0.00000 1.00000
vt 0.00000 1.00000
vt 0.00000 1.00000
vt 0.00000 1.00000
vt 0.00000 1.00000
vt 0.00000 1.00000
vt 0.00000 1.00000
vt 0.00000 1.00000
vt 0.00000 1.00000
vt 0.00000 1.00000
vt 0.00000 1.00000
vt 0.00000 1.00000
vt 0.00000 1.00000
vt 0.00000 1.00000
vt 0.00000 1.00000
vt 0.00000 1.00000
vt 0.00000 1.00000
vt 0.00000 1.00000
vt 0.00000 1.00000
vt 0.00000 1.00000
vt 0.00000 1.00000
vt 0.00000 1.00000
vt 0.00000 1.00000
vt 0.00000 1.00000
vt 0.00000 1.00000
vt 0.00000 1.00000
vt 0.00000 1.00000
vt 0.00000 1.00000
vt 0.00000 1.00000
vt 0.00000 1.00000
vt 0.00000 1.00000
vt 0.00000 1.00000
vt 0.00000 1.00000
vt 0.00000 1.00000
vt 0.00000 1.00000
vt 0.00000 1.00000
vt 0.00000 1.00000
vt 0.00000 1.00000
vt 0.00000 1.00000
vt 0.00000 1.00000
vt 0.00000 1.00000
vt 0.00000 1.00000
vt 0.00000 1.00000
vt 0.00000 1.00000
vt 0.00000 1.00000
vt 0.00000 1.00000
vt 0.00000 1.00000
vt 0.00000 1.00000
vt 0.00000 1.00000
vt 0.00000 1.00000
vt 0.00000 1.00000
vt 0.00000 1.00000
vt 0.00000 1.00000
vt 0.00000 1.00000
vt 0.00000 1.00000
vt 0.00000 1.00000
vt 0.00000 1.00000
vt 0.00000 1.00000
vt 0.00000 1.00000
vt 0.00000 1.00000
vt 0.00000 1.00000
vt 0.00000 1.00000
vt 0.00000 1.00000
vt 0.00000 1.00000
vt 0.00000 1.00000
vt 0.00000 1.00000
vt 0.00000 1.00000
vt 0.00000 1.00000
vt 0.00000 1.00000
vt 0.00000 1.00000
vt 0.00000 1.00000
vt 0.00000 1.00000
vt 0.00000 1.00000
vt 0.00000 1.00000
vt 0.00000 1.00000
vt 0.00000 1.00000
vt 0.00000 1.00000
vt 0.00000 1.00000
vt 0.00000 1.00000
vt 0.00000 1.00000
vt 0.00000 1.00000
vt 0.00000 1.00000
vt 0.00000 1.00000
vt 0.00000 1.00000
vt 0.00000 1.00000
vt 0.00000 1.00000
vt 0.00000 1.00000
vt 0.00000 1.00000
vt 0.00000 1.00000
vt 0.00000 1.00000
vt 0.00000 1.00000
vt 0.00000 1.00000
vt 0.00000 1.00000
vt 0.00000 1.00000
vt 0.00000 1.00000
vt 0.00000 1.00000
vt 0.00000 1.00000
vt 0.00000 1.00000
vt 0.00000 1.00000
vt 0.00000 1.00000
vt 0.00000 1.00000
usemtl stone
f 1/1 2/2 3/3
f 4/4 5/5 6/6
f 7/7 8/8 9/9
f 10/10 11/11 12/12
f 13/13 14/14 15/15
f 16/16 17/17 18/18
f 19/19 20/20 21/21
f 22/22 23/23 24/24
f 25/25 26/26 27/27
f 28/28 29/29 30/30
f 31/31 32/32 33/33
f 34/34 35/35 36/36
f 37/37 38/38 39/39
f 40/40 41/41 42/42
f 43/43 44/44 45/45
f 46/46 47/47 48/48
f 49/49 50/50 51/51
f 52/52 53/53 54/54
f 55/55 56/56 57/57
f 58/58 59/59 60/60
f 61/61 62/62 63/63
f 64/64 65/65 66/66
f 67/67 68/68 69/69
f 70/70 71/71 72/72
f 73/73 74/74 75/75
f 76/76 77/77 78/78
f 79/79 80/80 81/81
f 82/82 83/83 84/84
f 85/85 86/86 87/87
f 88/88 89/89 90/90
f 91/91 92/92 93/93
f 94/94 95/95 96/96
f 97/97 98/98 99/99
f 100/100 101/101 102/102
f 103/103 104/104 105/105
f 106/106 107/107 108/108
f 109/109 110/110 111/111
f 112/112 113/113 114/114
f 115/115 116/116 117/117
f 118/118 119/119 120/120
f 121/121 122/122 123/123
f 124/124 125/125 126/126
f 127/127 128/128 129/129
f 130/130 131/131 132/132
f 133/133 134/134 135/135
f 136/136 137/137 138/138
f 139/139 140/140 141/141
f 142/142 143/143 144/144
f 145/145 146/146 147/147
f 148/148 149/149 150/150
f 151/151 152/152 153/153
f 154/154 155/155 156/156
f 157/157 158/158 159/159
f 160/160 161/161 162/162
f 163/163 164/164 165/165
f 166/166 167/167 168/168
f 169/169 170/170 171/171
f 172/172 173/173 174/174
f 175/175 176/176 177/177
f 178/178 179/179 180/180
f 181/181 182/182 183/183
f 184/184 185/185 186/186
