# Generated by TyraX. Do not edit - rebaked from the procedural graph of 'pines'.
# 21 instances of res/models/rock.obj
mtllib props.mtl
v -43.0119 10.4057 -25.5468
v -42.3541 10.9893 -24.6605
v -44.0190 10.9521 -25.9679
v -43.0119 10.4057 -25.5468
v -44.0190 10.9521 -25.9679
v -42.3541 10.9893 -24.6605
v -17.4837 8.9944 8.0309
v -18.0335 9.5673 6.9653
v -16.6087 9.6756 8.7079
v -17.4837 8.9944 8.0309
v -16.6087 9.6756 8.7079
v -18.0335 9.5673 6.9653
v -50.5411 10.6819 -27.6992
v -49.5465 11.2655 -27.2355
v -51.6259 11.2153 -27.5756
v -50.5411 10.6819 -27.6992
v -51.6259 11.2153 -27.5756
v -49.5465 11.2655 -27.2355
v 41.5052 -0.1910 30.3496
v 41.5325 0.4837 31.7139
v 40.8719 0.5410 29.2192
v 41.5052 -0.1910 30.3496
v 40.8719 0.5410 29.2192
v 41.5325 0.4837 31.7139
v 39.0155 -0.1990 34.8484
v 39.7086 0.5371 33.6175
v 38.8760 0.5852 36.1866
v 39.0155 -0.1990 34.8484
v 38.8760 0.5852 36.1866
v 39.7086 0.5371 33.6175
v -49.3221 9.9148 -3.9442
v -49.3936 10.2900 -3.2164
v -49.5109 10.3318 -4.6046
v -49.3221 9.9148 -3.9442
v -49.5109 10.3318 -4.6046
v -49.3936 10.2900 -3.2164
v 24.8730 5.3767 -3.7357
v 24.1013 5.7634 -3.4568
v 25.4059 5.8452 -4.2677
v 24.8730 5.3767 -3.7357
v 25.4059 5.8452 -4.2677
v 24.1013 5.7634 -3.4568
v 28.5917 -0.1104 39.1240
v 29.3913 0.3378 39.3750
v 27.7807 0.2864 39.3440
v 28.5917 -0.1104 39.1240
v 27.7807 0.2864 39.3440
v 29.3913 0.3378 39.3750
v -22.5337 10.5906 -27.4169
v -23.6176 11.2394 -27.4033
v -21.5262 11.1519 -27.8588
v -22.5337 10.5906 -27.4169
v -21.5262 11.1519 -27.8588
v -23.6176 11.2394 -27.4033
v -48.7900 9.5300 7.2716
v -48.0584 9.9360 7.8103
v -49.6048 10.0459 7.1442
v -48.7900 9.5300 7.2716
v -49.6048 10.0459 7.1442
v -48.0584 9.9360 7.8103
v 38.2232 11.8557 -41.3365
v 38.7749 12.3496 -40.3323
v 37.2973 12.4681 -41.8417
v 38.2232 11.8557 -41.3365
v 37.2973 12.4681 -41.8417
v 38.7749 12.3496 -40.3323
v -36.6684 8.3986 30.9714
v -37.1709 9.0872 32.3399
v -36.9240 9.1654 29.6183
v -36.6684 8.3986 30.9714
v -36.9240 9.1654 29.6183
v -37.1709 9.0872 32.3399
v -47.0895 9.3079 12.8001
v -45.8859 9.9147 12.4215
v -47.8765 9.9540 13.7147
v -47.0895 9.3079 12.8001
v -47.8765 9.9540 13.7147
v -45.8859 9.9147 12.4215
v 30.9109 8.0305 -17.5613
v 31.4857 8.8200 -18.9474
v 31.0225 8.8232 -16.1098
v 30.9109 8.0305 -17.5613
v 31.0225 8.8232 -16.1098
v 31.4857 8.8200 -18.9474
v 23.5288 9.9780 -24.0980
v 24.1484 10.3311 -23.8049
v 22.8535 10.2916 -23.9809
v 23.5288 9.9780 -24.0980
v 22.8535 10.2916 -23.9809
v 24.1484 10.3311 -23.8049
v -3.9233 4.0248 35.1775
v -4.9389 4.5641 35.5058
v -3.2279 4.5777 34.4175
v -3.9233 4.0248 35.1775
v -3.2279 4.5777 34.4175
v -4.9389 4.5641 35.5058
v -25.5881 6.6152 49.9647
v -24.6014 7.1966 50.6449
v -26.7354 7.2282 49.9055
v -25.5881 6.6152 49.9647
v -26.7354 7.2282 49.9055
v -24.6014 7.1966 50.6449
v -38.6494 8.5957 27.9433
v -39.2758 9.2779 26.7575
v -37.6128 9.3229 28.6921
v -38.6494 8.5957 27.9433
v -37.6128 9.3229 28.6921
v -39.2758 9.2779 26.7575
v 6.8379 11.9586 -45.5726
v 5.9941 12.5542 -44.9563
v 7.3333 12.4964 -46.4933
v 6.8379 11.9586 -45.5726
v 7.3333 12.4964 -46.4933
v 5.9941 12.5542 -44.9563
v -33.0118 11.0831 -41.8942
v -33.6202 11.5836 -42.7789
v -32.1561 11.6934 -41.4081
v -33.0118 11.0831 -41.8942
v -32.1561 11.6934 -41.4081
v -33.6202 11.5836 -42.7789
v 43.0358 12.3626 -47.3905
v 43.7967 13.0042 -48.2418
v 42.7448 12.9428 -46.2867
v 43.0358 12.3626 -47.3905
v 42.7448 12.9428 -46.2867
v 43.7967 13.0042 -48.2418
vt 0.00000 1.00000
vt 0.00000 1.00000
vt 0.00000 1.00000
vt 0.00000 1.00000
vt 0.00000 1.00000
vt 0.00000 1.00000
vt 0.00000 1.00000
vt 0.00000 1.00000
vt 0.00000 1.00000
vt 0.00000 1.00000
vt 0.00000 1.00000
vt 0.00000 1.00000
vt 0.00000 1.00000
vt 0.00000 1.00000
vt 0.00000 1.00000
vt 0.00000 1.00000
vt 0.00000 1.00000
vt 0.00000 1.00000
vt 0.00000 1.00000
vt 0.00000 1.00000
vt 0.00000 1.00000
vt 0.00000 1.00000
vt 0.00000 1.00000
vt 0.00000 1.00000
vt 0.00000 1.00000
vt 0.00000 1.00000
vt 0.00000 1.00000
vt 0.00000 1.00000
vt 0.00000 1.00000
vt 0.00000 1.00000
vt 0.00000 1.00000
vt 0.00000 1.00000
vt 0.00000 1.00000
vt 0.00000 1.00000
vt 0.00000 1.00000
vt 0.00000 1.00000
vt 0.00000 1.00000
vt 0.00000 1.00000
vt 0.00000 1.00000
vt 0.00000 1.00000
vt 0.00000 1.00000
vt 0.00000 1.00000
vt 0.00000 1.00000
vt 0.00000 1.00000
vt 0.00000 1.00000
vt 0.00000 1.00000
vt 0.00000 1.00000
vt 0.00000 1.00000
vt 0.00000 1.00000
vt 0.00000 1.00000
vt 0.00000 1.00000
vt 0.00000 1.00000
vt 0.00000 1.00000
vt 0.00000 1.00000
vt 0.00000 1.00000
vt 0.00000 1.00000
vt 0.00000 1.00000
vt 0.00000 1.00000
vt 0.00000 1.00000
vt 0.00000 1.00000
vt 0.00000 1.00000
vt 0.00000 1.00000
vt 0.00000 1.00000
vt 0.00000 1.00000
vt 0.00000 1.00000
vt 0.00000 1.00000
vt 0.00000 1.00000
vt 0.00000 1.00000
vt 0.00000 1.00000
vt 0.00000 1.00000
vt 0.00000 1.00000
vt 0.00000 1.00000
vt 0.00000 1.00000
vt 0.00000 1.00000
vt 0.00000 1.00000
vt 0.00000 1.00000
vt 0.00000 1.00000
vt 0.00000 1.00000
vt 0.00000 1.00000
vt 0.00000 1.00000
vt 0.00000 1.00000
vt 0.00000 1.00000
vt 0.00000 1.00000
vt 0.00000 1.00000
vt 0.00000 1.00000
vt 0.00000 1.00000
vt 0.00000 1.00000
vt 0.00000 1.00000
vt 0.00000 1.00000
vt 0.00000 1.00000
vt 0.00000 1.00000
vt 0.00000 1.00000
vt 0.00000 1.00000
vt 0.00000 1.00000
vt 0.00000 1.00000
vt 0.00000 1.00000
vt 0.00000 1.00000
vt 0.00000 1.00000
vt 0.00000 1.00000
vt 0.00000 1.00000
vt 0.00000 1.00000
vt 0.00000 1.00000
vt 0.00000 1.00000
vt 0.00000 1.00000
vt 0.00000 1.00000
vt 0.00000 1.00000
vt 0.00000 1.00000
vt 0.00000 1.00000
vt 0.00000 1.00000
vt 0.00000 1.00000
vt 0.00000 1.00000
vt 0.00000 1.00000
vt 0.00000 1.00000
vt 0.00000 1.00000
vt 0.00000 1.00000
vt 0.00000 1.00000
vt 0.00000 1.00000
vt 0.00000 1.00000
vt 0.00000 1.00000
vt 0.00000 1.00000
vt 0.00000 1.00000
vt 0.00000 1.00000
vt 0.00000 1.00000
vt 0.00000 1.00000
vt 0.00000 1.00000
vt 0.00000 1.00000
usemtl stone
f 1/1 2/2 3/3
f 4/4 5/5 6/6
f 7/7 8/8 9/9
f 10/10 11/11 12/12
f 13/13 14/14 15/15
f 16/16 17/17 18/18
f 19/19 20/20 21/21
f 22/22 23/23 24/24
f 25/25 26/26 27/27
f 28/28 29/29 30/30
f 31/31 32/32 33/33
f 34/34 35/35 36/36
f 37/37 38/38 39/39
f 40/40 41/41 42/42
f 43/43 44/44 45/45
f 46/46 47/47 48/48
f 49/49 50/50 51/51
f 52/52 53/53 54/54
f 55/55 56/56 57/57
f 58/58 59/59 60/60
f 61/61 62/62 63/63
f 64/64 65/65 66/66
f 67/67 68/68 69/69
f 70/70 71/71 72/72
f 73/73 74/74 75/75
f 76/76 77/77 78/78
f 79/79 80/80 81/81
f 82/82 83/83 84/84
f 85/85 86/86 87/87
f 88/88 89/89 90/90
f 91/91 92/92 93/93
f 94/94 95/95 96/96
f 97/97 98/98 99/99
f 100/100 101/101 102/102
f 103/103 104/104 105/105
f 106/106 107/107 108/108
f 109/109 110/110 111/111
f 112/112 113/113 114/114
f 115/115 116/116 117/117
f 118/118 119/119 120/120
f 121/121 122/122 123/123
f 124/124 125/125 126/126
