# Generated by TyraX. Do not edit - rebaked from the procedural graph of 'pines'.
# 19 instances of res/models/pine.obj
mtllib props.mtl
v 11.4653 31.1912 -4.9237
v 11.6569 31.1780 -5.1346
v 11.8430 32.8373 -5.0695
v 11.4653 31.1912 -4.9237
v 11.8430 32.8373 -5.0695
v 11.6515 32.8505 -4.8586
v 11.6569 31.1780 -5.1346
v 11.8658 31.1470 -4.9430
v 12.0520 32.8063 -4.8779
v 11.6569 31.1780 -5.1346
v 12.0520 32.8063 -4.8779
v 11.8430 32.8373 -5.0695
v 11.8658 31.1470 -4.9430
v 11.6743 31.1602 -4.7321
v 11.8605 32.8195 -4.6670
v 11.8658 31.1470 -4.9430
v 11.8605 32.8195 -4.6670
v 12.0520 32.8063 -4.8779
v 11.6743 31.1602 -4.7321
v 11.4653 31.1912 -4.9237
v 11.6515 32.8505 -4.8586
v 11.6743 31.1602 -4.7321
v 11.6515 32.8505 -4.8586
v 11.8605 32.8195 -4.6670
v -15.9441 30.4771 28.8343
v -15.6960 30.5034 28.8391
v -15.8485 31.9561 28.7798
v -15.9441 30.4771 28.8343
v -15.8485 31.9561 28.7798
v -16.0966 31.9298 28.7750
v -15.6960 30.5034 28.8391
v -15.7019 30.5129 29.0884
v -15.8543 31.9656 29.0291
v -15.6960 30.5034 28.8391
v -15.8543 31.9656 29.0291
v -15.8485 31.9561 28.7798
v -15.7019 30.5129 29.0884
v -15.9500 30.4867 29.0836
v -16.1024 31.9394 29.0242
v -15.7019 30.5129 29.0884
v -16.1024 31.9394 29.0242
v -15.8543 31.9656 29.0291
v -15.9500 30.4867 29.0836
v -15.9441 30.4771 28.8343
v -16.0966 31.9298 28.7750
v -15.9500 30.4867 29.0836
v -16.0966 31.9298 28.7750
v -16.1024 31.9394 29.0242
v 43.0099 27.8663 6.8105
v 43.0536 27.8687 6.5866
v 42.9140 29.1976 6.5735
v 43.0099 27.8663 6.8105
v 42.9140 29.1976 6.5735
v 42.8702 29.1952 6.7974
v 43.0536 27.8687 6.5866
v 43.2762 27.8925 6.6303
v 43.1366 29.2214 6.6172
v 43.0536 27.8687 6.5866
v 43.1366 29.2214 6.6172
v 42.9140 29.1976 6.5735
v 43.2762 27.8925 6.6303
v 43.2325 27.8901 6.8542
v 43.0928 29.2190 6.8411
v 43.2762 27.8925 6.6303
v 43.0928 29.2190 6.8411
v 43.1366 29.2214 6.6172
v 43.2325 27.8901 6.8542
v 43.0099 27.8663 6.8105
v 42.8702 29.1952 6.7974
v 43.2325 27.8901 6.8542
v 42.8702 29.1952 6.7974
v 43.0928 29.2190 6.8411
v 47.2963 24.0340 47.9702
v 47.1091 24.0500 47.7048
v 47.1824 25.9521 47.7681
v 47.2963 24.0340 47.9702
v 47.1824 25.9521 47.7681
v 47.3695 25.9361 48.0334
v 47.1091 24.0500 47.7048
v 47.3747 24.0460 47.5173
v 47.4479 25.9481 47.5806
v 47.1091 24.0500 47.7048
v 47.4479 25.9481 47.5806
v 47.1824 25.9521 47.7681
v 47.3747 24.0460 47.5173
v 47.5618 24.0300 47.7827
v 47.6351 25.9321 47.8459
v 47.3747 24.0460 47.5173
v 47.6351 25.9321 47.8459
v 47.4479 25.9481 47.5806
v 47.5618 24.0300 47.7827
v 47.2963 24.0340 47.9702
v 47.3695 25.9361 48.0334
v 47.5618 24.0300 47.7827
v 47.3695 25.9361 48.0334
v 47.6351 25.9321 47.8459
v 25.4129 25.8802 34.8181
v 25.3998 25.8800 35.1346
v 25.5077 27.7328 35.1402
v 25.4129 25.8802 34.8181
v 25.5077 27.7328 35.1402
v 25.5208 27.7330 34.8237
v 25.3998 25.8800 35.1346
v 25.0838 25.8984 35.1216
v 25.1917 27.7512 35.1272
v 25.3998 25.8800 35.1346
v 25.1917 27.7512 35.1272
v 25.5077 27.7328 35.1402
v 25.0838 25.8984 35.1216
v 25.0969 25.8986 34.8050
v 25.2048 27.7514 34.8106
v 25.0838 25.8984 35.1216
v 25.2048 27.7514 34.8106
v 25.1917 27.7512 35.1272
v 25.0969 25.8986 34.8050
v 25.4129 25.8802 34.8181
v 25.5208 27.7330 34.8237
v 25.0969 25.8986 34.8050
v 25.5208 27.7330 34.8237
v 25.2048 27.7514 34.8106
v 39.5749 29.3914 -10.3817
v 39.6331 29.3882 -10.6057
v 39.8549 30.7253 -10.5673
v 39.5749 29.3914 -10.3817
v 39.8549 30.7253 -10.5673
v 39.7968 30.7285 -10.3433
v 39.6331 29.3882 -10.6057
v 39.8539 29.3499 -10.5478
v 40.0757 30.6870 -10.5094
v 39.6331 29.3882 -10.6057
v 40.0757 30.6870 -10.5094
v 39.8549 30.7253 -10.5673
v 39.8539 29.3499 -10.5478
v 39.7957 29.3531 -10.3239
v 40.0175 30.6902 -10.2854
v 39.8539 29.3499 -10.5478
v 40.0175 30.6902 -10.2854
v 40.0757 30.6870 -10.5094
v 39.7957 29.3531 -10.3239
v 39.5749 29.3914 -10.3817
v 39.7968 30.7285 -10.3433
v 39.7957 29.3531 -10.3239
v 39.7968 30.7285 -10.3433
v 40.0175 30.6902 -10.2854
v 33.6612 28.2291 8.2714
v 33.5415 28.2346 8.5557
v 33.8100 30.0201 8.6341
v 33.6612 28.2291 8.2714
v 33.8100 30.0201 8.6341
v 33.9297 30.0146 8.3498
v 33.5415 28.2346 8.5557
v 33.2609 28.2820 8.4366
v 33.5294 30.0676 8.5150
v 33.5415 28.2346 8.5557
v 33.5294 30.0676 8.5150
v 33.8100 30.0201 8.6341
v 33.2609 28.2820 8.4366
v 33.3806 28.2765 8.1523
v 33.6491 30.0620 8.2307
v 33.2609 28.2820 8.4366
v 33.6491 30.0620 8.2307
v 33.5294 30.0676 8.5150
v 33.3806 28.2765 8.1523
v 33.6612 28.2291 8.2714
v 33.9297 30.0146 8.3498
v 33.3806 28.2765 8.1523
v 33.9297 30.0146 8.3498
v 33.6491 30.0620 8.2307
v 3.8075 28.1290 32.6742
v 3.6401 28.1421 32.6643
v 3.7112 29.1208 32.7548
v 3.8075 28.1290 32.6742
v 3.7112 29.1208 32.7548
v 3.8786 29.1077 32.7647
v 3.6401 28.1421 32.6643
v 3.6511 28.1568 32.4971
v 3.7222 29.1355 32.5876
v 3.6401 28.1421 32.6643
v 3.7222 29.1355 32.5876
v 3.7112 29.1208 32.7548
v 3.6511 28.1568 32.4971
v 3.8185 28.1437 32.5070
v 3.8896 29.1224 32.5975
v 3.6511 28.1568 32.4971
v 3.8896 29.1224 32.5975
v 3.7222 29.1355 32.5876
v 3.8185 28.1437 32.5070
v 3.8075 28.1290 32.6742
v 3.8786 29.1077 32.7647
v 3.8185 28.1437 32.5070
v 3.8786 29.1077 32.7647
v 3.8896 29.1224 32.5975
v 46.4052 29.0345 -12.9741
v 46.6178 29.0299 -12.9565
v 46.6349 30.2740 -12.8360
v 46.4052 29.0345 -12.9741
v 46.6349 30.2740 -12.8360
v 46.4223 30.2786 -12.8535
v 46.6178 29.0299 -12.9565
v 46.5999 29.0097 -12.7449
v 46.6170 30.2538 -12.6244
v 46.6178 29.0299 -12.9565
v 46.6170 30.2538 -12.6244
v 46.6349 30.2740 -12.8360
v 46.5999 29.0097 -12.7449
v 46.3873 29.0143 -12.7624
v 46.4044 30.2584 -12.6419
v 46.5999 29.0097 -12.7449
v 46.4044 30.2584 -12.6419
v 46.6170 30.2538 -12.6244
v 46.3873 29.0143 -12.7624
v 46.4052 29.0345 -12.9741
v 46.4223 30.2786 -12.8535
v 46.3873 29.0143 -12.7624
v 46.4223 30.2786 -12.8535
v 46.4044 30.2584 -12.6419
v 22.1161 27.7670 17.2687
v 21.9827 27.7567 17.4110
v 21.8931 28.8974 17.4095
v 22.1161 27.7670 17.2687
v 21.8931 28.8974 17.4095
v 22.0265 28.9077 17.2672
v 21.9827 27.7567 17.4110
v 21.8409 27.7454 17.2772
v 21.7512 28.8861 17.2757
v 21.9827 27.7567 17.4110
v 21.7512 28.8861 17.2757
v 21.8931 28.8974 17.4095
v 21.8409 27.7454 17.2772
v 21.9742 27.7557 17.1349
v 21.8846 28.8964 17.1334
v 21.8409 27.7454 17.2772
v 21.8846 28.8964 17.1334
v 21.7512 28.8861 17.2757
v 21.9742 27.7557 17.1349
v 22.1161 27.7670 17.2687
v 22.0265 28.9077 17.2672
v 21.9742 27.7557 17.1349
v 22.0265 28.9077 17.2672
v 21.8846 28.8964 17.1334
v 24.4097 31.0739 -17.4365
v 24.4607 31.0738 -17.2511
v 24.5796 32.1939 -17.2830
v 24.4097 31.0739 -17.4365
v 24.5796 32.1939 -17.2830
v 24.5286 32.1941 -17.4685
v 24.4607 31.0738 -17.2511
v 24.2764 31.0948 -17.2004
v 24.3952 32.2149 -17.2323
v 24.4607 31.0738 -17.2511
v 24.3952 32.2149 -17.2323
v 24.5796 32.1939 -17.2830
v 24.2764 31.0948 -17.2004
v 24.2254 31.0949 -17.3858
v 24.3442 32.2151 -17.4178
v 24.2764 31.0948 -17.2004
v 24.3442 32.2151 -17.4178
v 24.3952 32.2149 -17.2323
v 24.2254 31.0949 -17.3858
v 24.4097 31.0739 -17.4365
v 24.5286 32.1941 -17.4685
v 24.2254 31.0949 -17.3858
v 24.5286 32.1941 -17.4685
v 24.3442 32.2151 -17.4178
v 35.0399 25.6141 31.9133
v 34.7159 25.6085 31.8991
v 34.6830 27.5086 31.9036
v 35.0399 25.6141 31.9133
v 34.6830 27.5086 31.9036
v 35.0070 27.5142 31.9178
v 34.7159 25.6085 31.8991
v 34.7301 25.6095 31.5750
v 34.6972 27.5096 31.5796
v 34.7159 25.6085 31.8991
v 34.6972 27.5096 31.5796
v 34.6830 27.5086 31.9036
v 34.7301 25.6095 31.5750
v 35.0541 25.6151 31.5892
v 35.0212 27.5152 31.5938
v 34.7301 25.6095 31.5750
v 35.0212 27.5152 31.5938
v 34.6972 27.5096 31.5796
v 35.0541 25.6151 31.5892
v 35.0399 25.6141 31.9133
v 35.0070 27.5142 31.9178
v 35.0541 25.6151 31.5892
v 35.0070 27.5142 31.9178
v 35.0212 27.5152 31.5938
v -8.8992 28.9410 40.8921
v -8.6876 28.9590 41.0399
v -8.8185 30.4692 41.0439
v -8.8992 28.9410 40.8921
v -8.8185 30.4692 41.0439
v -9.0301 30.4513 40.8961
v -8.6876 28.9590 41.0399
v -8.8347 28.9457 41.2523
v -8.9657 30.4559 41.2563
v -8.6876 28.9590 41.0399
v -8.9657 30.4559 41.2563
v -8.8185 30.4692 41.0439
v -8.8347 28.9457 41.2523
v -9.0464 28.9277 41.1045
v -9.1773 30.4380 41.1084
v -8.8347 28.9457 41.2523
v -9.1773 30.4380 41.1084
v -8.9657 30.4559 41.2563
v -9.0464 28.9277 41.1045
v -8.8992 28.9410 40.8921
v -9.0301 30.4513 40.8961
v -9.0464 28.9277 41.1045
v -9.0301 30.4513 40.8961
v -9.1773 30.4380 41.1084
v 30.9178 29.8493 -3.9140
v 30.8598 29.8509 -4.1116
v 30.9973 31.0489 -4.1420
v 30.9178 29.8493 -3.9140
v 30.9973 31.0489 -4.1420
v 31.0553 31.0472 -3.9444
v 30.8598 29.8509 -4.1116
v 31.0559 29.8270 -4.1693
v 31.1934 31.0249 -4.1997
v 30.8598 29.8509 -4.1116
v 31.1934 31.0249 -4.1997
v 30.9973 31.0489 -4.1420
v 31.0559 29.8270 -4.1693
v 31.1139 29.8253 -3.9718
v 31.2514 31.0233 -4.0022
v 31.0559 29.8270 -4.1693
v 31.2514 31.0233 -4.0022
v 31.1934 31.0249 -4.1997
v 31.1139 29.8253 -3.9718
v 30.9178 29.8493 -3.9140
v 31.0553 31.0472 -3.9444
v 31.1139 29.8253 -3.9718
v 31.0553 31.0472 -3.9444
v 31.2514 31.0233 -4.0022
v -9.5665 31.4986 3.1432
v -9.8061 31.5138 3.1719
v -9.7142 32.9268 3.1933
v -9.5665 31.4986 3.1432
v -9.7142 32.9268 3.1933
v -9.4747 32.9117 3.1646
v -9.8061 31.5138 3.1719
v -9.8345 31.5192 2.9319
v -9.7426 32.9323 2.9533
v -9.8061 31.5138 3.1719
v -9.7426 32.9323 2.9533
v -9.7142 32.9268 3.1933
v -9.8345 31.5192 2.9319
v -9.5949 31.5041 2.9033
v -9.5031 32.9172 2.9246
v -9.8345 31.5192 2.9319
v -9.5031 32.9172 2.9246
v -9.7426 32.9323 2.9533
v -9.5949 31.5041 2.9033
v -9.5665 31.4986 3.1432
v -9.4747 32.9117 3.1646
v -9.5949 31.5041 2.9033
v -9.4747 32.9117 3.1646
v -9.5031 32.9172 2.9246
v 19.5814 31.4378 -15.5863
v 19.3395 31.4455 -15.7639
v 19.4764 33.1952 -15.8751
v 19.5814 31.4378 -15.5863
v 19.4764 33.1952 -15.8751
v 19.7182 33.1876 -15.6974
v 19.3395 31.4455 -15.7639
v 19.5158 31.4164 -16.0052
v 19.6526 33.1661 -16.1163
v 19.3395 31.4455 -15.7639
v 19.6526 33.1661 -16.1163
v 19.4764 33.1952 -15.8751
v 19.5158 31.4164 -16.0052
v 19.7577 31.4087 -15.8276
v 19.8945 33.1585 -15.9387
v 19.5158 31.4164 -16.0052
v 19.8945 33.1585 -15.9387
v 19.6526 33.1661 -16.1163
v 19.7577 31.4087 -15.8276
v 19.5814 31.4378 -15.5863
v 19.7182 33.1876 -15.6974
v 19.7577 31.4087 -15.8276
v 19.7182 33.1876 -15.6974
v 19.8945 33.1585 -15.9387
v 35.4508 29.8668 -10.4184
v 35.2098 29.8762 -10.5385
v 35.2629 31.4534 -10.5216
v 35.4508 29.8668 -10.4184
v 35.2629 31.4534 -10.5216
v 35.5039 31.4440 -10.4015
v 35.2098 29.8762 -10.5385
v 35.3300 29.8747 -10.7796
v 35.3831 31.4519 -10.7627
v 35.2098 29.8762 -10.5385
v 35.3831 31.4519 -10.7627
v 35.2629 31.4534 -10.5216
v 35.3300 29.8747 -10.7796
v 35.5709 29.8653 -10.6595
v 35.6240 31.4425 -10.6425
v 35.3300 29.8747 -10.7796
v 35.6240 31.4425 -10.6425
v 35.3831 31.4519 -10.7627
v 35.5709 29.8653 -10.6595
v 35.4508 29.8668 -10.4184
v 35.5039 31.4440 -10.4015
v 35.5709 29.8653 -10.6595
v 35.5039 31.4440 -10.4015
v 35.6240 31.4425 -10.6425
v -3.6596 28.2057 45.1257
v -3.8322 28.2135 45.2481
v -3.7037 29.4431 45.3513
v -3.6596 28.2057 45.1257
v -3.7037 29.4431 45.3513
v -3.5311 29.4353 45.2288
v -3.8322 28.2135 45.2481
v -3.9530 28.2405 45.0763
v -3.8245 29.4701 45.1795
v -3.8322 28.2135 45.2481
v -3.8245 29.4701 45.1795
v -3.7037 29.4431 45.3513
v -3.9530 28.2405 45.0763
v -3.7804 28.2328 44.9538
v -3.6519 29.4623 45.0570
v -3.9530 28.2405 45.0763
v -3.6519 29.4623 45.0570
v -3.8245 29.4701 45.1795
v -3.7804 28.2328 44.9538
v -3.6596 28.2057 45.1257
v -3.5311 29.4353 45.2288
v -3.7804 28.2328 44.9538
v -3.5311 29.4353 45.2288
v -3.6519 29.4623 45.0570
v 50.3453 28.3238 -4.3547
v 50.3301 28.3245 -4.1655
v 50.4124 29.4334 -4.1631
v 50.3453 28.3238 -4.3547
v 50.4124 29.4334 -4.1631
v 50.4276 29.4327 -4.3524
v 50.3301 28.3245 -4.1655
v 50.1414 28.3385 -4.1808
v 50.2237 29.4475 -4.1784
v 50.3301 28.3245 -4.1655
v 50.2237 29.4475 -4.1784
v 50.4124 29.4334 -4.1631
v 50.1414 28.3385 -4.1808
v 50.1566 28.3378 -4.3699
v 50.2389 29.4468 -4.3676
v 50.1414 28.3385 -4.1808
v 50.2389 29.4468 -4.3676
v 50.2237 29.4475 -4.1784
v 50.1566 28.3378 -4.3699
v 50.3453 28.3238 -4.3547
v 50.4276 29.4327 -4.3524
v 50.1566 28.3378 -4.3699
v 50.4276 29.4327 -4.3524
v 50.2389 29.4468 -4.3676
vt 0.00000 1.00000
vt 0.00000 1.00000
vt 0.00000 1.00000
vt 0.00000 1.00000
vt 0.00000 1.00000
vt 0.00000 1.00000
vt 0.00000 1.00000
vt 0.00000 1.00000
vt 0.00000 1.00000
vt 0.00000 1.00000
vt 0.00000 1.00000
vt 0.00000 1.00000
vt 0.00000 1.00000
vt 0.00000 1.00000
vt 0.00000 1.00000
vt 0.00000 1.00000
vt 0.00000 1.00000
vt 0.00000 1.00000
vt 0.00000 1.00000
vt 0.00000 1.00000
vt 0.00000 1.00000
vt 0.00000 1.00000
vt 0.00000 1.00000
vt 0.00000 1.00000
vt 0.00000 1.00000
vt 0.00000 1.00000
vt 0.00000 1.00000
vt 0.00000 1.00000
vt 0.00000 1.00000
vt 0.00000 1.00000
vt 0.00000 1.00000
vt 0.00000 1.00000
vt 0.00000 1.00000
vt 0.00000 1.00000
vt 0.00000 1.00000
vt 0.00000 1.00000
vt 0.00000 1.00000
vt 0.00000 1.00000
vt 0.00000 1.00000
vt 0.00000 1.00000
vt 0.00000 1.00000
vt 0.00000 1.00000
vt 0.00000 1.00000
vt 0.00000 1.00000
vt 0.00000 1.00000
vt 0.00000 1.00000
vt 0.00000 1.00000
vt 0.00000 1.00000
vt 0.00000 1.00000
vt 0.00000 1.00000
vt 0.00000 1.00000
vt 0.00000 1.00000
vt 0.00000 1.00000
vt 0.00000 1.00000
vt 0.00000 1.00000
vt 0.00000 1.00000
vt 0.00000 1.00000
vt 0.00000 1.00000
vt 0.00000 1.00000
vt 0.00000 1.00000
vt 0.00000 1.00000
vt 0.00000 1.00000
vt 0.00000 1.00000
vt 0.00000 1.00000
vt 0.00000 1.00000
vt 0.00000 1.00000
vt 0.00000 1.00000
vt 0.00000 1.00000
vt 0.00000 1.00000
vt 0.00000 1.00000
vt 0.00000 1.00000
vt 0.00000 1.00000
vt 0.00000 1.00000
vt 0.00000 1.00000
vt 0.00000 1.00000
vt 0.00000 1.00000
vt 0.00000 1.00000
vt 0.00000 1.00000
vt 0.00000 1.00000
vt 0.00000 1.00000
vt 0.00000 1.00000
vt 0.00000 1.00000
vt 0.00000 1.00000
vt 0.00000 1.00000
vt 0.00000 1.00000
vt 0.00000 1.00000
vt 0.00000 1.00000
vt 0.00000 1.00000
vt 0.00000 1.00000
vt 0.00000 1.00000
vt 0.00000 1.00000
vt 0.00000 1.00000
vt 0.00000 1.00000
vt 0.00000 1.00000
vt 0.00000 1.00000
vt 0.00000 1.00000
vt 0.00000 1.00000
vt 0.00000 1.00000
vt 0.00000 1.00000
vt 0.00000 1.00000
vt 0.00000 1.00000
vt 0.00000 1.00000
vt 0.00000 1.00000
vt 0.00000 1.00000
vt 0.00000 1.00000
vt 0.00000 1.00000
vt 0.00000 1.00000
vt 0.00000 1.00000
vt 0.00000 1.00000
vt 0.00000 1.00000
vt 0.00000 1.00000
vt 0.00000 1.00000
vt 0.00000 1.00000
vt 0.00000 1.00000
vt 0.00000 1.00000
vt 0.00000 1.00000
vt 0.00000 1.00000
vt 0.00000 1.00000
vt 0.00000 1.00000
vt 0.00000 1.00000
vt 0.00000 1.00000
vt 0.00000 1.00000
vt 0.00000 1.00000
vt 0.00000 1.00000
vt 0.00000 1.00000
vt 0.00000 1.00000
vt 0.00000 1.00000
vt 0.00000 1.00000
vt 0.00000 1.00000
vt 0.00000 1.00000
vt 0.00000 1.00000
vt 0.00000 1.00000
vt 0.00000 1.00000
vt 0.00000 1.00000
vt 0.00000 1.00000
vt 0.00000 1.00000
vt 0.00000 1.00000
vt 0.00000 1.00000
vt 0.00000 1.00000
vt 0.00000 1.00000
vt 0.00000 1.00000
vt 0.00000 1.00000
vt 0.00000 1.00000
vt 0.00000 1.00000
vt 0.00000 1.00000
vt 0.00000 1.00000
vt 0.00000 1.00000
vt 0.00000 1.00000
vt 0.00000 1.00000
vt 0.00000 1.00000
vt 0.00000 1.00000
vt 0.00000 1.00000
vt 0.00000 1.00000
vt 0.00000 1.00000
vt 0.00000 1.00000
vt 0.00000 1.00000
vt 0.00000 1.00000
vt 0.00000 1.00000
vt 0.00000 1.00000
vt 0.00000 1.00000
vt 0.00000 1.00000
vt 0.00000 1.00000
vt 0.00000 1.00000
vt 0.00000 1.00000
vt 0.00000 1.00000
vt 0.00000 1.00000
vt 0.00000 1.00000
vt 0.00000 1.00000
vt 0.00000 1.00000
vt 0.00000 1.00000
vt 0.00000 1.00000
vt 0.00000 1.00000
vt 0.00000 1.00000
vt 0.00000 1.00000
vt 0.00000 1.00000
vt 0.00000 1.00000
vt 0.00000 1.00000
vt 0.00000 1.00000
vt 0.00000 1.00000
vt 0.00000 1.00000
vt 0.00000 1.00000
vt 0.00000 1.00000
vt 0.00000 1.00000
vt 0.00000 1.00000
vt 0.00000 1.00000
vt 0.00000 1.00000
vt 0.00000 1.00000
vt 0.00000 1.00000
vt 0.00000 1.00000
vt 0.00000 1.00000
vt 0.00000 1.00000
vt 0.00000 1.00000
vt 0.00000 1.00000
vt 0.00000 1.00000
vt 0.00000 1.00000
vt 0.00000 1.00000
vt 0.00000 1.00000
vt 0.00000 1.00000
vt 0.00000 1.00000
vt 0.00000 1.00000
vt 0.00000 1.00000
vt 0.00000 1.00000
vt 0.00000 1.00000
vt 0.00000 1.00000
vt 0.00000 1.00000
vt 0.00000 1.00000
vt 0.00000 1.00000
vt 0.00000 1.00000
vt 0.00000 1.00000
vt 0.00000 1.00000
vt 0.00000 1.00000
vt 0.00000 1.00000
vt 0.00000 1.00000
vt 0.00000 1.00000
vt 0.00000 1.00000
vt 0.00000 1.00000
vt 0.00000 1.00000
vt 0.00000 1.00000
vt 0.00000 1.00000
vt 0.00000 1.00000
vt 0.00000 1.00000
vt 0.00000 1.00000
vt 0.00000 1.00000
vt 0.00000 1.00000
vt 0.00000 1.00000
vt 0.00000 1.00000
vt 0.00000 1.00000
vt 0.00000 1.00000
vt 0.00000 1.00000
vt 0.00000 1.00000
vt 0.00000 1.00000
vt 0.00000 1.00000
vt 0.00000 1.00000
vt 0.00000 1.00000
vt 0.00000 1.00000
vt 0.00000 1.00000
vt 0.00000 1.00000
vt 0.00000 1.00000
vt 0.00000 1.00000
vt 0.00000 1.00000
vt 0.00000 1.00000
vt 0.00000 1.00000
vt 0.00000 1.00000
vt 0.00000 1.00000
vt 0.00000 1.00000
vt 0.00000 1.00000
vt 0.00000 1.00000
vt 0.00000 1.00000
vt 0.00000 1.00000
vt 0.00000 1.00000
vt 0.00000 1.00000
vt 0.00000 1.00000
vt 0.00000 1.00000
vt 0.00000 1.00000
vt 0.00000 1.00000
vt 0.00000 1.00000
vt 0.00000 1.00000
vt 0.00000 1.00000
vt 0.00000 1.00000
vt 0.00000 1.00000
vt 0.00000 1.00000
vt 0.00000 1.00000
vt 0.00000 1.00000
vt 0.00000 1.00000
vt 0.00000 1.00000
vt 0.00000 1.00000
vt 0.00000 1.00000
vt 0.00000 1.00000
vt 0.00000 1.00000
vt 0.00000 1.00000
vt 0.00000 1.00000
vt 0.00000 1.00000
vt 0.00000 1.00000
vt 0.00000 1.00000
vt 0.00000 1.00000
vt 0.00000 1.00000
vt 0.00000 1.00000
vt 0.00000 1.00000
vt 0.00000 1.00000
vt 0.00000 1.00000
vt 0.00000 1.00000
vt 0.00000 1.00000
vt 0.00000 1.00000
vt 0.00000 1.00000
vt 0.00000 1.00000
vt 0.00000 1.00000
vt 0.00000 1.00000
vt 0.00000 1.00000
vt 0.00000 1.00000
vt 0.00000 1.00000
vt 0.00000 1.00000
vt 0.00000 1.00000
vt 0.00000 1.00000
vt 0.00000 1.00000
vt 0.00000 1.00000
vt 0.00000 1.00000
vt 0.00000 1.00000
vt 0.00000 1.00000
vt 0.00000 1.00000
vt 0.00000 1.00000
vt 0.00000 1.00000
vt 0.00000 1.00000
vt 0.00000 1.00000
vt 0.00000 1.00000
vt 0.00000 1.00000
vt 0.00000 1.00000
vt 0.00000 1.00000
vt 0.00000 1.00000
vt 0.00000 1.00000
vt 0.00000 1.00000
vt 0.00000 1.00000
vt 0.00000 1.00000
vt 0.00000 1.00000
vt 0.00000 1.00000
vt 0.00000 1.00000
vt 0.00000 1.00000
vt 0.00000 1.00000
vt 0.00000 1.00000
vt 0.00000 1.00000
vt 0.00000 1.00000
vt 0.00000 1.00000
vt 0.00000 1.00000
vt 0.00000 1.00000
vt 0.00000 1.00000
vt 0.00000 1.00000
vt 0.00000 1.00000
vt 0.00000 1.00000
vt 0.00000 1.00000
vt 0.00000 1.00000
vt 0.00000 1.00000
vt 0.00000 1.00000
vt 0.00000 1.00000
vt 0.00000 1.00000
vt 0.00000 1.00000
vt 0.00000 1.00000
vt 0.00000 1.00000
vt 0.00000 1.00000
vt 0.00000 1.00000
vt 0.00000 1.00000
vt 0.00000 1.00000
vt 0.00000 1.00000
vt 0.00000 1.00000
vt 0.00000 1.00000
vt 0.00000 1.00000
vt 0.00000 1.00000
vt 0.00000 1.00000
vt 0.00000 1.00000
vt 0.00000 1.00000
vt 0.00000 1.00000
vt 0.00000 1.00000
vt 0.00000 1.00000
vt 0.00000 1.00000
vt 0.00000 1.00000
vt 0.00000 1.00000
vt 0.00000 1.00000
vt 0.00000 1.00000
vt 0.00000 1.00000
vt 0.00000 1.00000
vt 0.00000 1.00000
vt 0.00000 1.00000
vt 0.00000 1.00000
vt 0.00000 1.00000
vt 0.00000 1.00000
vt 0.00000 1.00000
vt 0.00000 1.00000
vt 0.00000 1.00000
vt 0.00000 1.00000
vt 0.00000 1.00000
vt 0.00000 1.00000
vt 0.00000 1.00000
vt 0.00000 1.00000
vt 0.00000 1.00000
vt 0.00000 1.00000
vt 0.00000 1.00000
vt 0.00000 1.00000
vt 0.00000 1.00000
vt 0.00000 1.00000
vt 0.00000 1.00000
vt 0.00000 1.00000
vt 0.00000 1.00000
vt 0.00000 1.00000
vt 0.00000 1.00000
vt 0.00000 1.00000
vt 0.00000 1.00000
vt 0.00000 1.00000
vt 0.00000 1.00000
vt 0.00000 1.00000
vt 0.00000 1.00000
vt 0.00000 1.00000
vt 0.00000 1.00000
vt 0.00000 1.00000
vt 0.00000 1.00000
vt 0.00000 1.00000
vt 0.00000 1.00000
vt 0.00000 1.00000
vt 0.00000 1.00000
vt 0.00000 1.00000
vt 0.00000 1.00000
vt 0.00000 1.00000
vt 0.00000 1.00000
vt 0.00000 1.00000
vt 0.00000 1.00000
vt 0.00000 1.00000
vt 0.00000 1.00000
vt 0.00000 1.00000
vt 0.00000 1.00000
vt 0.00000 1.00000
vt 0.00000 1.00000
vt 0.00000 1.00000
vt 0.00000 1.00000
vt 0.00000 1.00000
vt 0.00000 1.00000
vt 0.00000 1.00000
vt 0.00000 1.00000
vt 0.00000 1.00000
vt 0.00000 1.00000
vt 0.00000 1.00000
vt 0.00000 1.00000
vt 0.00000 1.00000
vt 0.00000 1.00000
vt 0.00000 1.00000
vt 0.00000 1.00000
vt 0.00000 1.00000
vt 0.00000 1.00000
vt 0.00000 1.00000
vt 0.00000 1.00000
vt 0.00000 1.00000
vt 0.00000 1.00000
vt 0.00000 1.00000
vt 0.00000 1.00000
vt 0.00000 1.00000
vt 0.00000 1.00000
vt 0.00000 1.00000
vt 0.00000 1.00000
vt 0.00000 1.00000
vt 0.00000 1.00000
vt 0.00000 1.00000
vt 0.00000 1.00000
vt 0.00000 1.00000
vt 0.00000 1.00000
vt 0.00000 1.00000
vt 0.00000 1.00000
vt 0.00000 1.00000
vt 0.00000 1.00000
vt 0.00000 1.00000
vt 0.00000 1.00000
vt 0.00000 1.00000
vt 0.00000 1.00000
vt 0.00000 1.00000
vt 0.00000 1.00000
vt 0.00000 1.00000
vt 0.00000 1.00000
vt 0.00000 1.00000
vt 0.00000 1.00000
vt 0.00000 1.00000
vt 0.00000 1.00000
usemtl bark
f 1/1 2/2 3/3
f 4/4 5/5 6/6
f 7/7 8/8 9/9
f 10/10 11/11 12/12
f 13/13 14/14 15/15
f 16/16 17/17 18/18
f 19/19 20/20 21/21
f 22/22 23/23 24/24
f 25/25 26/26 27/27
f 28/28 29/29 30/30
f 31/31 32/32 33/33
f 34/34 35/35 36/36
f 37/37 38/38 39/39
f 40/40 41/41 42/42
f 43/43 44/44 45/45
f 46/46 47/47 48/48
f 49/49 50/50 51/51
f 52/52 53/53 54/54
f 55/55 56/56 57/57
f 58/58 59/59 60/60
f 61/61 62/62 63/63
f 64/64 65/65 66/66
f 67/67 68/68 69/69
f 70/70 71/71 72/72
f 73/73 74/74 75/75
f 76/76 77/77 78/78
f 79/79 80/80 81/81
f 82/82 83/83 84/84
f 85/85 86/86 87/87
f 88/88 89/89 90/90
f 91/91 92/92 93/93
f 94/94 95/95 96/96
f 97/97 98/98 99/99
f 100/100 101/101 102/102
f 103/103 104/104 105/105
f 106/106 107/107 108/108
f 109/109 110/110 111/111
f 112/112 113/113 114/114
f 115/115 116/116 117/117
f 118/118 119/119 120/120
f 121/121 122/122 123/123
f 124/124 125/125 126/126
f 127/127 128/128 129/129
f 130/130 131/131 132/132
f 133/133 134/134 135/135
f 136/136 137/137 138/138
f 139/139 140/140 141/141
f 142/142 143/143 144/144
f 145/145 146/146 147/147
f 148/148 149/149 150/150
f 151/151 152/152 153/153
f 154/154 155/155 156/156
f 157/157 158/158 159/159
f 160/160 161/161 162/162
f 163/163 164/164 165/165
f 166/166 167/167 168/168
f 169/169 170/170 171/171
f 172/172 173/173 174/174
f 175/175 176/176 177/177
f 178/178 179/179 180/180
f 181/181 182/182 183/183
f 184/184 185/185 186/186
f 187/187 188/188 189/189
f 190/190 191/191 192/192
f 193/193 194/194 195/195
f 196/196 197/197 198/198
f 199/199 200/200 201/201
f 202/202 203/203 204/204
f 205/205 206/206 207/207
f 208/208 209/209 210/210
f 211/211 212/212 213/213
f 214/214 215/215 216/216
f 217/217 218/218 219/219
f 220/220 221/221 222/222
f 223/223 224/224 225/225
f 226/226 227/227 228/228
f 229/229 230/230 231/231
f 232/232 233/233 234/234
f 235/235 236/236 237/237
f 238/238 239/239 240/240
f 241/241 242/242 243/243
f 244/244 245/245 246/246
f 247/247 248/248 249/249
f 250/250 251/251 252/252
f 253/253 254/254 255/255
f 256/256 257/257 258/258
f 259/259 260/260 261/261
f 262/262 263/263 264/264
f 265/265 266/266 267/267
f 268/268 269/269 270/270
f 271/271 272/272 273/273
f 274/274 275/275 276/276
f 277/277 278/278 279/279
f 280/280 281/281 282/282
f 283/283 284/284 285/285
f 286/286 287/287 288/288
f 289/289 290/290 291/291
f 292/292 293/293 294/294
f 295/295 296/296 297/297
f 298/298 299/299 300/300
f 301/301 302/302 303/303
f 304/304 305/305 306/306
f 307/307 308/308 309/309
f 310/310 311/311 312/312
f 313/313 314/314 315/315
f 316/316 317/317 318/318
f 319/319 320/320 321/321
f 322/322 323/323 324/324
f 325/325 326/326 327/327
f 328/328 329/329 330/330
f 331/331 332/332 333/333
f 334/334 335/335 336/336
f 337/337 338/338 339/339
f 340/340 341/341 342/342
f 343/343 344/344 345/345
f 346/346 347/347 348/348
f 349/349 350/350 351/351
f 352/352 353/353 354/354
f 355/355 356/356 357/357
f 358/358 359/359 360/360
f 361/361 362/362 363/363
f 364/364 365/365 366/366
f 367/367 368/368 369/369
f 370/370 371/371 372/372
f 373/373 374/374 375/375
f 376/376 377/377 378/378
f 379/379 380/380 381/381
f 382/382 383/383 384/384
f 385/385 386/386 387/387
f 388/388 389/389 390/390
f 391/391 392/392 393/393
f 394/394 395/395 396/396
f 397/397 398/398 399/399
f 400/400 401/401 402/402
f 403/403 404/404 405/405
f 406/406 407/407 408/408
f 409/409 410/410 411/411
f 412/412 413/413 414/414
f 415/415 416/416 417/417
f 418/418 419/419 420/420
f 421/421 422/422 423/423
f 424/424 425/425 426/426
f 427/427 428/428 429/429
f 430/430 431/431 432/432
f 433/433 434/434 435/435
f 436/436 437/437 438/438
f 439/439 440/440 441/441
f 442/442 443/443 444/444
f 445/445 446/446 447/447
f 448/448 449/449 450/450
f 451/451 452/452 453/453
f 454/454 455/455 456/456
v 10.8042 32.5259 -3.7747
v 10.3226 32.6206 -4.8111
v 12.1310 35.3174 -4.7706
v 10.3226 32.6206 -4.8111
v 11.7451 32.5224 -6.3782
v 12.1310 35.3174 -4.7706
v 11.7451 32.5224 -6.3782
v 13.2975 32.2924 -4.9546
v 12.1310 35.3174 -4.7706
v 13.2975 32.2924 -4.9546
v 11.8749 32.3906 -3.3875
v 12.1310 35.3174 -4.7706
v 11.8749 32.3906 -3.3875
v 10.8042 32.5259 -3.7747
v 12.1310 35.3174 -4.7706
v 10.8042 32.5259 -3.7747
v 11.7451 32.5224 -6.3782
v 10.3226 32.6206 -4.8111
v 10.8042 32.5259 -3.7747
v 13.2975 32.2924 -4.9546
v 11.7451 32.5224 -6.3782
v 10.8042 32.5259 -3.7747
v 11.8749 32.3906 -3.3875
v 13.2975 32.2924 -4.9546
v 11.1774 33.9417 -3.9531
v 11.1051 34.0152 -5.6204
v 12.2915 36.7479 -4.7145
v 11.1051 34.0152 -5.6204
v 12.7636 33.8323 -5.7004
v 12.2915 36.7479 -4.7145
v 12.7636 33.8323 -5.7004
v 12.8360 33.7587 -4.0331
v 12.2915 36.7479 -4.7145
v 12.8360 33.7587 -4.0331
v 11.1774 33.9417 -3.9531
v 12.2915 36.7479 -4.7145
v 11.1774 33.9417 -3.9531
v 12.7636 33.8323 -5.7004
v 11.1051 34.0152 -5.6204
v 11.1774 33.9417 -3.9531
v 12.8360 33.7587 -4.0331
v 12.7636 33.8323 -5.7004
v 11.3014 35.4090 -4.7306
v 12.0948 35.3542 -5.6047
v 12.4520 38.1784 -4.6584
v 12.0948 35.3542 -5.6047
v 12.9607 35.2259 -4.8107
v 12.4520 38.1784 -4.6584
v 12.9607 35.2259 -4.8107
v 12.1672 35.2807 -3.9366
v 12.4520 38.1784 -4.6584
v 12.1672 35.2807 -3.9366
v 11.3014 35.4090 -4.7306
v 12.4520 38.1784 -4.6584
v 11.3014 35.4090 -4.7306
v 12.9607 35.2259 -4.8107
v 12.0948 35.3542 -5.6047
v 11.3014 35.4090 -4.7306
v 12.1672 35.2807 -3.9366
v 12.9607 35.2259 -4.8107
v -17.2444 31.4843 28.8901
v -16.8411 31.4892 27.9716
v -16.2042 34.1268 28.8130
v -16.8411 31.4892 27.9716
v -14.9981 31.6840 28.0073
v -16.2042 34.1268 28.8130
v -14.9981 31.6840 28.0073
v -15.0415 31.7551 29.8590
v -16.2042 34.1268 28.8130
v -15.0415 31.7551 29.8590
v -16.8844 31.5602 29.8233
v -16.2042 34.1268 28.8130
v -16.8844 31.5602 29.8233
v -17.2444 31.4843 28.8901
v -16.2042 34.1268 28.8130
v -17.2444 31.4843 28.8901
v -14.9981 31.6840 28.0073
v -16.8411 31.4892 27.9716
v -17.2444 31.4843 28.8901
v -15.0415 31.7551 29.8590
v -14.9981 31.6840 28.0073
v -17.2444 31.4843 28.8901
v -16.8844 31.5602 29.8233
v -15.0415 31.7551 29.8590
v -17.1002 32.7658 28.8443
v -16.0486 32.8348 27.8318
v -16.3356 35.3791 28.7619
v -16.0486 32.8348 27.8318
v -15.0453 32.9831 28.8840
v -16.3356 35.3791 28.7619
v -15.0453 32.9831 28.8840
v -16.0969 32.9141 29.8965
v -16.3356 35.3791 28.7619
v -16.0969 32.9141 29.8965
v -17.1002 32.7658 28.8443
v -16.3356 35.3791 28.7619
v -17.1002 32.7658 28.8443
v -15.0453 32.9831 28.8840
v -16.0486 32.8348 27.8318
v -17.1002 32.7658 28.8443
v -16.0969 32.9141 29.8965
v -15.0453 32.9831 28.8840
v -16.7061 34.0526 28.2867
v -15.6781 34.1613 28.3065
v -16.4670 36.6314 28.7108
v -15.6781 34.1613 28.3065
v -15.7022 34.2009 29.3394
v -16.4670 36.6314 28.7108
v -15.7022 34.2009 29.3394
v -16.7302 34.0922 29.3195
v -16.4670 36.6314 28.7108
v -16.7302 34.0922 29.3195
v -16.7061 34.0526 28.2867
v -16.4670 36.6314 28.7108
v -16.7061 34.0526 28.2867
v -15.7022 34.2009 29.3394
v -15.6781 34.1613 28.3065
v -16.7061 34.0526 28.2867
v -16.7302 34.0922 29.3195
v -15.7022 34.2009 29.3394
v 42.8050 28.8979 7.8860
v 42.0455 28.8131 7.3792
v 42.7940 31.2018 6.6877
v 42.0455 28.8131 7.3792
v 42.3703 28.8309 5.7164
v 42.7940 31.2018 6.6877
v 42.3703 28.8309 5.7164
v 44.0239 29.0078 6.0412
v 42.7940 31.2018 6.6877
v 44.0239 29.0078 6.0412
v 43.6990 28.9901 7.7041
v 42.7940 31.2018 6.6877
v 43.6990 28.9901 7.7041
v 42.8050 28.8979 7.8860
v 42.7940 31.2018 6.6877
v 42.8050 28.8979 7.8860
v 42.3703 28.8309 5.7164
v 42.0455 28.8131 7.3792
v 42.8050 28.8979 7.8860
v 44.0239 29.0078 6.0412
v 42.3703 28.8309 5.7164
v 42.8050 28.8979 7.8860
v 43.6990 28.9901 7.7041
v 44.0239 29.0078 6.0412
v 42.7332 30.0462 7.6260
v 41.9925 29.9575 6.5178
v 42.6736 32.3475 6.6764
v 41.9925 29.9575 6.5178
v 43.0954 30.0660 5.7719
v 42.6736 32.3475 6.6764
v 43.0954 30.0660 5.7719
v 43.8362 30.1548 6.8801
v 42.6736 32.3475 6.6764
v 43.8362 30.1548 6.8801
v 42.7332 30.0462 7.6260
v 42.6736 32.3475 6.6764
v 42.7332 30.0462 7.6260
v 43.0954 30.0660 5.7719
v 41.9925 29.9575 6.5178
v 42.7332 30.0462 7.6260
v 43.8362 30.1548 6.8801
v 43.0954 30.0660 5.7719
v 42.2422 31.1475 7.0608
v 42.4234 31.1574 6.1333
v 42.5532 33.4931 6.6651
v 42.4234 31.1574 6.1333
v 43.3457 31.2561 6.3145
v 42.5532 33.4931 6.6651
v 43.3457 31.2561 6.3145
v 43.1645 31.2462 7.2420
v 42.5532 33.4931 6.6651
v 43.1645 31.2462 7.2420
v 42.2422 31.1475 7.0608
v 42.5532 33.4931 6.6651
v 42.2422 31.1475 7.0608
v 43.3457 31.2561 6.3145
v 42.4234 31.1574 6.1333
v 42.2422 31.1475 7.0608
v 43.1645 31.2462 7.2420
v 43.3457 31.2561 6.3145
v 48.3753 25.4316 49.1865
v 47.1012 25.4711 49.4748
v 47.5186 28.7954 47.9018
v 47.1012 25.4711 49.4748
v 45.7110 25.5901 47.5038
v 47.5186 28.7954 47.9018
v 45.7110 25.5901 47.5038
v 47.6835 25.5605 46.1108
v 47.5186 28.7954 47.9018
v 47.6835 25.5605 46.1108
v 49.0736 25.4414 48.0819
v 47.5186 28.7954 47.9018
v 49.0736 25.4414 48.0819
v 48.3753 25.4316 49.1865
v 47.5186 28.7954 47.9018
v 48.3753 25.4316 49.1865
v 45.7110 25.5901 47.5038
v 47.1012 25.4711 49.4748
v 48.3753 25.4316 49.1865
v 47.6835 25.5605 46.1108
v 45.7110 25.5901 47.5038
v 48.3753 25.4316 49.1865
v 49.0736 25.4414 48.0819
v 47.6835 25.5605 46.1108
v 48.2305 27.0892 48.9462
v 46.3557 27.1721 48.6239
v 47.5817 30.4351 47.9563
v 46.3557 27.1721 48.6239
v 46.6804 27.2219 46.7484
v 47.5817 30.4351 47.9563
v 46.6804 27.2219 46.7484
v 48.5551 27.1390 47.0707
v 47.5817 30.4351 47.9563
v 48.5551 27.1390 47.0707
v 48.2305 27.0892 48.9462
v 47.5817 30.4351 47.9563
v 48.2305 27.0892 48.9462
v 46.6804 27.2219 46.7484
v 46.3557 27.1721 48.6239
v 48.2305 27.0892 48.9462
v 48.5551 27.1390 47.0707
v 46.6804 27.2219 46.7484
v 47.3562 28.7704 48.8400
v 46.5807 28.8368 47.7406
v 47.6448 32.0749 48.0108
v 46.5807 28.8368 47.7406
v 47.6810 28.8203 46.9636
v 47.6448 32.0749 48.0108
v 47.6810 28.8203 46.9636
v 48.4564 28.7539 48.0630
v 47.6448 32.0749 48.0108
v 48.4564 28.7539 48.0630
v 47.3562 28.7704 48.8400
v 47.6448 32.0749 48.0108
v 47.3562 28.7704 48.8400
v 47.6810 28.8203 46.9636
v 46.5807 28.8368 47.7406
v 47.3562 28.7704 48.8400
v 48.4564 28.7539 48.0630
v 47.6810 28.8203 46.9636
v 25.4011 27.3278 33.3117
v 26.5545 27.2590 33.8472
v 25.5181 30.5213 34.9838
v 26.5545 27.2590 33.8472
v 26.4569 27.2576 36.1984
v 25.5181 30.5213 34.9838
v 26.4569 27.2576 36.1984
v 24.1097 27.3946 36.1011
v 25.5181 30.5213 34.9838
v 24.1097 27.3946 36.1011
v 24.2072 27.3960 33.7499
v 25.5181 30.5213 34.9838
v 24.2072 27.3960 33.7499
v 25.4011 27.3278 33.3117
v 25.5181 30.5213 34.9838
v 25.4011 27.3278 33.3117
v 26.4569 27.2576 36.1984
v 26.5545 27.2590 33.8472
v 25.4011 27.3278 33.3117
v 24.1097 27.3946 36.1011
v 26.4569 27.2576 36.1984
v 25.4011 27.3278 33.3117
v 24.2072 27.3960 33.7499
v 24.1097 27.3946 36.1011
v 25.4795 28.9248 33.6682
v 26.7337 28.8477 35.0333
v 25.6112 32.1185 34.9887
v 26.7337 28.8477 35.0333
v 25.3707 28.9233 36.2899
v 25.6112 32.1185 34.9887
v 25.3707 28.9233 36.2899
v 24.1165 29.0004 34.9248
v 25.6112 32.1185 34.9887
v 24.1165 29.0004 34.9248
v 25.4795 28.9248 33.6682
v 25.6112 32.1185 34.9887
v 25.4795 28.9248 33.6682
v 25.3707 28.9233 36.2899
v 26.7337 28.8477 35.0333
v 25.4795 28.9248 33.6682
v 24.1165 29.0004 34.9248
v 25.3707 28.9233 36.2899
v 26.2000 30.4835 34.3552
v 26.1456 30.4827 35.6667
v 25.7042 33.7158 34.9935
v 26.1456 30.4827 35.6667
v 24.8363 30.5591 35.6124
v 25.7042 33.7158 34.9935
v 24.8363 30.5591 35.6124
v 24.8907 30.5599 34.3010
v 25.7042 33.7158 34.9935
v 24.8907 30.5599 34.3010
v 26.2000 30.4835 34.3552
v 25.7042 33.7158 34.9935
v 26.2000 30.4835 34.3552
v 24.8363 30.5591 35.6124
v 26.1456 30.4827 35.6667
v 26.2000 30.4835 34.3552
v 24.8907 30.5599 34.3010
v 24.8363 30.5591 35.6124
v 39.5809 30.4249 -9.2584
v 38.8504 30.5623 -9.8180
v 40.2690 32.7134 -10.3686
v 38.8504 30.5623 -9.8180
v 39.2825 30.5384 -11.4819
v 40.2690 32.7134 -10.3686
v 39.2825 30.5384 -11.4819
v 40.9226 30.2539 -11.0518
v 40.2690 32.7134 -10.3686
v 40.9226 30.2539 -11.0518
v 40.4905 30.2778 -9.3880
v 40.2690 32.7134 -10.3686
v 40.4905 30.2778 -9.3880
v 39.5809 30.4249 -9.2584
v 40.2690 32.7134 -10.3686
v 39.5809 30.4249 -9.2584
v 39.2825 30.5384 -11.4819
v 38.8504 30.5623 -9.8180
v 39.5809 30.4249 -9.2584
v 40.9226 30.2539 -11.0518
v 39.2825 30.5384 -11.4819
v 39.5809 30.4249 -9.2584
v 40.4905 30.2778 -9.3880
v 40.9226 30.2539 -11.0518
v 39.8369 31.5741 -9.4742
v 39.1634 31.7194 -10.6415
v 40.4603 33.8661 -10.3354
v 39.1634 31.7194 -10.6415
v 40.3187 31.5475 -11.3294
v 40.4603 33.8661 -10.3354
v 40.3187 31.5475 -11.3294
v 40.9922 31.4021 -10.1620
v 40.4603 33.8661 -10.3354
v 40.9922 31.4021 -10.1620
v 39.8369 31.5741 -9.4742
v 40.4603 33.8661 -10.3354
v 39.8369 31.5741 -9.4742
v 40.3187 31.5475 -11.3294
v 39.1634 31.7194 -10.6415
v 39.8369 31.5741 -9.4742
v 40.9922 31.4021 -10.1620
v 40.3187 31.5475 -11.3294
v 39.6911 32.7994 -10.0245
v 39.9321 32.7861 -10.9526
v 40.6516 35.0188 -10.3023
v 39.9321 32.7861 -10.9526
v 40.8470 32.6274 -10.7127
v 40.6516 35.0188 -10.3023
v 40.8470 32.6274 -10.7127
v 40.6059 32.6407 -9.7846
v 40.6516 35.0188 -10.3023
v 40.6059 32.6407 -9.7846
v 39.6911 32.7994 -10.0245
v 40.6516 35.0188 -10.3023
v 39.6911 32.7994 -10.0245
v 40.8470 32.6274 -10.7127
v 39.9321 32.7861 -10.9526
v 39.6911 32.7994 -10.0245
v 40.6059 32.6407 -9.7846
v 40.8470 32.6274 -10.7127
v 34.2981 29.6119 6.9217
v 35.1562 29.4442 7.8013
v 34.1323 32.7194 8.5501
v 35.1562 29.4442 7.8013
v 34.2670 29.4852 9.9129
v 34.1323 32.7194 8.5501
v 34.2670 29.4852 9.9129
v 32.1826 29.8375 9.0284
v 34.1323 32.7194 8.5501
v 32.1826 29.8375 9.0284
v 33.0718 29.7965 6.9167
v 34.1323 32.7194 8.5501
v 33.0718 29.7965 6.9167
v 34.2981 29.6119 6.9217
v 34.1323 32.7194 8.5501
v 34.2981 29.6119 6.9217
v 34.2670 29.4852 9.9129
v 35.1562 29.4442 7.8013
v 34.2981 29.6119 6.9217
v 32.1826 29.8375 9.0284
v 34.2670 29.4852 9.9129
v 34.2981 29.6119 6.9217
v 33.0718 29.7965 6.9167
v 32.1826 29.8375 9.0284
v 34.3966 31.1573 7.3052
v 35.0629 30.9837 8.9756
v 34.3638 34.2587 8.6177
v 35.0629 30.9837 8.9756
v 33.4051 31.2030 9.6597
v 34.3638 34.2587 8.6177
v 33.4051 31.2030 9.6597
v 32.7388 31.3766 7.9893
v 34.3638 34.2587 8.6177
v 32.7388 31.3766 7.9893
v 34.3966 31.1573 7.3052
v 34.3638 34.2587 8.6177
v 34.3966 31.1573 7.3052
v 33.4051 31.2030 9.6597
v 35.0629 30.9837 8.9756
v 34.3966 31.1573 7.3052
v 32.7388 31.3766 7.9893
v 33.4051 31.2030 9.6597
v 34.9617 32.6097 8.2079
v 34.4657 32.6326 9.3857
v 34.5953 35.7979 8.6853
v 34.4657 32.6326 9.3857
v 33.3030 32.8291 8.8923
v 34.5953 35.7979 8.6853
v 33.3030 32.8291 8.8923
v 33.7990 32.8062 7.7144
v 34.5953 35.7979 8.6853
v 33.7990 32.8062 7.7144
v 34.9617 32.6097 8.2079
v 34.5953 35.7979 8.6853
v 34.9617 32.6097 8.2079
v 33.3030 32.8291 8.8923
v 34.4657 32.6326 9.3857
v 34.9617 32.6097 8.2079
v 33.7990 32.8062 7.7144
v 33.3030 32.8291 8.8923
v 4.6638 28.8335 32.7078
v 4.3653 28.7992 33.3136
v 3.9071 30.5896 32.8120
v 4.3653 28.7992 33.3136
v 3.1218 28.8963 33.2402
v 3.9071 30.5896 32.8120
v 3.1218 28.8963 33.2402
v 3.2037 29.0053 31.9982
v 3.9071 30.5896 32.8120
v 3.2037 29.0053 31.9982
v 4.4472 28.9081 32.0716
v 3.9071 30.5896 32.8120
v 4.4472 28.9081 32.0716
v 4.6638 28.8335 32.7078
v 3.9071 30.5896 32.8120
v 4.6638 28.8335 32.7078
v 3.1218 28.8963 33.2402
v 4.3653 28.7992 33.3136
v 4.6638 28.8335 32.7078
v 3.2037 29.0053 31.9982
v 3.1218 28.8963 33.2402
v 4.6638 28.8335 32.7078
v 4.4472 28.9081 32.0716
v 3.2037 29.0053 31.9982
v 4.5391 29.6918 32.7749
v 3.8001 29.6852 33.4264
v 3.9684 31.4333 32.8900
v 3.8001 29.6852 33.4264
v 3.1525 29.8001 32.6930
v 3.9684 31.4333 32.8900
v 3.1525 29.8001 32.6930
v 3.8914 29.8067 32.0415
v 3.9684 31.4333 32.8900
v 3.8914 29.8067 32.0415
v 4.5391 29.6918 32.7749
v 3.9684 31.4333 32.8900
v 4.5391 29.6918 32.7749
v 3.1525 29.8001 32.6930
v 3.8001 29.6852 33.4264
v 4.5391 29.6918 32.7749
v 3.8914 29.8067 32.0415
v 3.1525 29.8001 32.6930
v 4.2311 30.5321 33.1789
v 3.5374 30.5863 33.1379
v 4.0297 32.2770 32.9681
v 3.5374 30.5863 33.1379
v 3.5831 30.6471 32.4451
v 4.0297 32.2770 32.9681
v 3.5831 30.6471 32.4451
v 4.2767 30.5929 32.4861
v 4.0297 32.2770 32.9681
v 4.2767 30.5929 32.4861
v 4.2311 30.5321 33.1789
v 4.0297 32.2770 32.9681
v 4.2311 30.5321 33.1789
v 3.5831 30.6471 32.4451
v 3.5374 30.5863 33.1379
v 4.2311 30.5321 33.1789
v 4.2767 30.5929 32.4861
v 3.5831 30.6471 32.4451
v 45.3992 30.0116 -12.8580
v 45.7926 30.0797 -13.6172
v 46.5453 32.1324 -12.5582
v 45.7926 30.0797 -13.6172
v 47.3719 30.0454 -13.4870
v 46.5453 32.1324 -12.5582
v 47.3719 30.0454 -13.4870
v 47.2390 29.8950 -11.9148
v 46.5453 32.1324 -12.5582
v 47.2390 29.8950 -11.9148
v 45.6598 29.9293 -12.0450
v 46.5453 32.1324 -12.5582
v 45.6598 29.9293 -12.0450
v 45.3992 30.0116 -12.8580
v 46.5453 32.1324 -12.5582
v 45.3992 30.0116 -12.8580
v 47.3719 30.0454 -13.4870
v 45.7926 30.0797 -13.6172
v 45.3992 30.0116 -12.8580
v 47.2390 29.8950 -11.9148
v 47.3719 30.0454 -13.4870
v 45.3992 30.0116 -12.8580
v 45.6598 29.9293 -12.0450
v 47.2390 29.8950 -11.9148
v 45.6501 31.0790 -12.7346
v 46.6046 31.1438 -13.5386
v 46.5600 33.2049 -12.4543
v 46.6046 31.1438 -13.5386
v 47.4110 31.0408 -12.5895
v 46.5600 33.2049 -12.4543
v 47.4110 31.0408 -12.5895
v 46.4565 30.9760 -11.7856
v 46.5600 33.2049 -12.4543
v 46.4565 30.9760 -11.7856
v 45.6501 31.0790 -12.7346
v 46.5600 33.2049 -12.4543
v 45.6501 31.0790 -12.7346
v 47.4110 31.0408 -12.5895
v 46.6046 31.1438 -13.5386
v 45.6501 31.0790 -12.7346
v 46.4565 30.9760 -11.7856
v 47.4110 31.0408 -12.5895
v 46.1419 32.1839 -13.0330
v 47.0228 32.1648 -12.9604
v 46.5747 34.2774 -12.3504
v 47.0228 32.1648 -12.9604
v 46.9487 32.0809 -12.0834
v 46.5747 34.2774 -12.3504
v 46.9487 32.0809 -12.0834
v 46.0678 32.1000 -12.1560
v 46.5747 34.2774 -12.3504
v 46.0678 32.1000 -12.1560
v 46.1419 32.1839 -13.0330
v 46.5747 34.2774 -12.3504
v 46.1419 32.1839 -13.0330
v 46.9487 32.0809 -12.0834
v 47.0228 32.1648 -12.9604
v 46.1419 32.1839 -13.0330
v 46.0678 32.1000 -12.1560
v 46.9487 32.0809 -12.0834
v 22.6095 28.6953 16.5244
v 22.9312 28.7215 17.2402
v 21.7544 30.6080 17.2693
v 22.9312 28.7215 17.2402
v 21.9404 28.6450 18.2972
v 21.7544 30.6080 17.2693
v 21.9404 28.6450 18.2972
v 20.8867 28.5609 17.3035
v 21.7544 30.6080 17.2693
v 20.8867 28.5609 17.3035
v 21.8775 28.6374 16.2464
v 21.7544 30.6080 17.2693
v 21.8775 28.6374 16.2464
v 22.6095 28.6953 16.5244
v 21.7544 30.6080 17.2693
v 22.6095 28.6953 16.5244
v 21.9404 28.6450 18.2972
v 22.9312 28.7215 17.2402
v 22.6095 28.6953 16.5244
v 20.8867 28.5609 17.3035
v 21.9404 28.6450 18.2972
v 22.6095 28.6953 16.5244
v 21.8775 28.6374 16.2464
v 20.8867 28.5609 17.3035
v 22.3841 29.6672 16.6812
v 22.4191 29.6715 17.8246
v 21.6772 31.5914 17.2680
v 22.4191 29.6715 17.8246
v 21.2793 29.5820 17.8599
v 21.6772 31.5914 17.2680
v 21.2793 29.5820 17.8599
v 21.2442 29.5777 16.7165
v 21.6772 31.5914 17.2680
v 21.2442 29.5777 16.7165
v 22.3841 29.6672 16.6812
v 21.6772 31.5914 17.2680
v 22.3841 29.6672 16.6812
v 21.2793 29.5820 17.8599
v 22.4191 29.6715 17.8246
v 22.3841 29.6672 16.6812
v 21.2442 29.5777 16.7165
v 21.2793 29.5820 17.8599
v 22.3246 30.6528 17.2516
v 21.7720 30.6101 17.8412
v 21.5999 32.5748 17.2667
v 21.7720 30.6101 17.8412
v 21.1842 30.5632 17.2869
v 21.5999 32.5748 17.2667
v 21.1842 30.5632 17.2869
v 21.7369 30.6059 16.6973
v 21.5999 32.5748 17.2667
v 21.7369 30.6059 16.6973
v 22.3246 30.6528 17.2516
v 21.5999 32.5748 17.2667
v 22.3246 30.6528 17.2516
v 21.1842 30.5632 17.2869
v 21.7720 30.6101 17.8412
v 22.3246 30.6528 17.2516
v 21.7369 30.6059 16.6973
v 21.1842 30.5632 17.2869
v 24.1674 31.9541 -18.3174
v 24.9306 31.8759 -18.2204
v 24.6402 33.8847 -17.3983
v 24.9306 31.8759 -18.2204
v 25.3094 31.8749 -16.8427
v 24.6402 33.8847 -17.3983
v 25.3094 31.8749 -16.8427
v 23.9399 32.0310 -16.4661
v 24.6402 33.8847 -17.3983
v 23.9399 32.0310 -16.4661
v 23.5611 32.0319 -17.8438
v 24.6402 33.8847 -17.3983
v 23.5611 32.0319 -17.8438
v 24.1674 31.9541 -18.3174
v 24.6402 33.8847 -17.3983
v 24.1674 31.9541 -18.3174
v 25.3094 31.8749 -16.8427
v 24.9306 31.8759 -18.2204
v 24.1674 31.9541 -18.3174
v 23.9399 32.0310 -16.4661
v 25.3094 31.8749 -16.8427
v 24.1674 31.9541 -18.3174
v 23.5611 32.0319 -17.8438
v 23.9399 32.0310 -16.4661
v 24.3265 32.9196 -18.1389
v 25.3012 32.8321 -17.5807
v 24.7426 34.8504 -17.4258
v 25.3012 32.8321 -17.5807
v 24.7489 32.9186 -16.6027
v 24.7426 34.8504 -17.4258
v 24.7489 32.9186 -16.6027
v 23.7742 33.0061 -17.1608
v 24.7426 34.8504 -17.4258
v 23.7742 33.0061 -17.1608
v 24.3265 32.9196 -18.1389
v 24.7426 34.8504 -17.4258
v 24.3265 32.9196 -18.1389
v 24.7489 32.9186 -16.6027
v 25.3012 32.8321 -17.5807
v 24.3265 32.9196 -18.1389
v 23.7742 33.0061 -17.1608
v 24.7489 32.9186 -16.6027
v 24.9165 33.8415 -17.8876
v 25.1278 33.8410 -17.1191
v 24.8451 35.8160 -17.4534
v 25.1278 33.8410 -17.1191
v 24.3639 33.9280 -16.9090
v 24.8451 35.8160 -17.4534
v 24.3639 33.9280 -16.9090
v 24.1526 33.9285 -17.6775
v 24.8451 35.8160 -17.4534
v 24.1526 33.9285 -17.6775
v 24.9165 33.8415 -17.8876
v 24.8451 35.8160 -17.4534
v 24.9165 33.8415 -17.8876
v 24.3639 33.9280 -16.9090
v 25.1278 33.8410 -17.1191
v 24.9165 33.8415 -17.8876
v 24.1526 33.9285 -17.6775
v 24.3639 33.9280 -16.9090
v 36.5614 27.1153 31.8222
v 36.0103 27.1030 33.0040
v 34.8027 30.3621 31.7555
v 36.0103 27.1030 33.0040
v 33.6034 27.0616 32.8987
v 34.8027 30.3621 31.7555
v 33.6034 27.0616 32.8987
v 33.7086 27.0691 30.4914
v 34.8027 30.3621 31.7555
v 33.7086 27.0691 30.4914
v 36.1155 27.1105 30.5967
v 34.8027 30.3621 31.7555
v 36.1155 27.1105 30.5967
v 36.5614 27.1153 31.8222
v 34.8027 30.3621 31.7555
v 36.5614 27.1153 31.8222
v 33.6034 27.0616 32.8987
v 36.0103 27.1030 33.0040
v 36.5614 27.1153 31.8222
v 33.7086 27.0691 30.4914
v 33.6034 27.0616 32.8987
v 36.5614 27.1153 31.8222
v 36.1155 27.1105 30.5967
v 33.7086 27.0691 30.4914
v 36.1730 28.7472 31.8103
v 34.7724 28.7198 33.0937
v 34.7744 32.0001 31.7594
v 34.7724 28.7198 33.0937
v 33.4892 28.7010 31.6929
v 34.7744 32.0001 31.7594
v 33.4892 28.7010 31.6929
v 34.8898 28.7283 30.4095
v 34.7744 32.0001 31.7594
v 34.8898 28.7283 30.4095
v 36.1730 28.7472 31.8103
v 34.7744 32.0001 31.7594
v 36.1730 28.7472 31.8103
v 33.4892 28.7010 31.6929
v 34.7724 28.7198 33.0937
v 36.1730 28.7472 31.8103
v 34.8898 28.7283 30.4095
v 33.4892 28.7010 31.6929
v 35.4447 30.3715 32.4563
v 34.1021 30.3484 32.3975
v 34.7460 33.6382 31.7633
v 34.1021 30.3484 32.3975
v 34.1608 30.3527 31.0547
v 34.7460 33.6382 31.7633
v 34.1608 30.3527 31.0547
v 35.5034 30.3758 31.1135
v 34.7460 33.6382 31.7633
v 35.5034 30.3758 31.1135
v 35.4447 30.3715 32.4563
v 34.7460 33.6382 31.7633
v 35.4447 30.3715 32.4563
v 34.1608 30.3527 31.0547
v 34.1021 30.3484 32.3975
v 35.4447 30.3715 32.4563
v 35.5034 30.3758 31.1135
v 34.1608 30.3527 31.0547
v -10.0801 30.0208 40.2989
v -9.2078 30.0979 39.7375
v -9.1942 32.7190 41.0821
v -9.2078 30.0979 39.7375
v -7.6358 30.2313 40.8354
v -9.1942 32.7190 41.0821
v -7.6358 30.2313 40.8354
v -8.7292 30.1323 42.4131
v -9.1942 32.7190 41.0821
v -8.7292 30.1323 42.4131
v -10.3013 29.9989 41.3151
v -9.1942 32.7190 41.0821
v -10.3013 29.9989 41.3151
v -10.0801 30.0208 40.2989
v -9.1942 32.7190 41.0821
v -10.0801 30.0208 40.2989
v -7.6358 30.2313 40.8354
v -9.2078 30.0979 39.7375
v -10.0801 30.0208 40.2989
v -8.7292 30.1323 42.4131
v -7.6358 30.2313 40.8354
v -10.0801 30.0208 40.2989
v -10.3013 29.9989 41.3151
v -8.7292 30.1323 42.4131
v -9.9578 31.3427 40.4666
v -8.4718 31.4722 40.1991
v -9.3071 34.0210 41.0856
v -8.4718 31.4722 40.1991
v -8.2050 31.4914 41.6908
v -9.3071 34.0210 41.0856
v -8.2050 31.4914 41.6908
v -9.6910 31.3619 41.9583
v -9.3071 34.0210 41.0856
v -9.6910 31.3619 41.9583
v -9.9578 31.3427 40.4666
v -9.3071 34.0210 41.0856
v -9.9578 31.3427 40.4666
v -8.2050 31.4914 41.6908
v -8.4718 31.4722 40.1991
v -9.9578 31.3427 40.4666
v -9.6910 31.3619 41.9583
v -8.2050 31.4914 41.6908
v -9.3277 32.7094 40.3359
v -8.4509 32.7838 40.9483
v -9.4200 35.3229 41.0890
v -8.4509 32.7838 40.9483
v -9.0608 32.7286 41.8283
v -9.4200 35.3229 41.0890
v -9.0608 32.7286 41.8283
v -9.9377 32.6542 41.2159
v -9.4200 35.3229 41.0890
v -9.9377 32.6542 41.2159
v -9.3277 32.7094 40.3359
v -9.4200 35.3229 41.0890
v -9.3277 32.7094 40.3359
v -9.0608 32.7286 41.8283
v -8.4509 32.7838 40.9483
v -9.3277 32.7094 40.3359
v -9.9377 32.6542 41.2159
v -9.0608 32.7286 41.8283
v 31.3981 30.7589 -3.0277
v 30.5804 30.8505 -3.1169
v 31.3305 32.8330 -4.1177
v 30.5804 30.8505 -3.1169
v 30.1496 30.8627 -4.5843
v 31.3305 32.8330 -4.1177
v 30.1496 30.8627 -4.5843
v 31.6066 30.6846 -5.0136
v 31.3305 32.8330 -4.1177
v 31.6066 30.6846 -5.0136
v 32.0375 30.6724 -3.5462
v 31.3305 32.8330 -4.1177
v 32.0375 30.6724 -3.5462
v 31.3981 30.7589 -3.0277
v 31.3305 32.8330 -4.1177
v 31.3981 30.7589 -3.0277
v 30.1496 30.8627 -4.5843
v 30.5804 30.8505 -3.1169
v 31.3981 30.7589 -3.0277
v 31.6066 30.6846 -5.0136
v 30.1496 30.8627 -4.5843
v 31.3981 30.7589 -3.0277
v 32.0375 30.6724 -3.5462
v 31.6066 30.6846 -5.0136
v 31.4522 31.7935 -3.2734
v 30.3997 31.8996 -3.8521
v 31.4490 33.8657 -4.1439
v 30.3997 31.8996 -3.8521
v 30.9718 31.8071 -4.9096
v 31.4490 33.8657 -4.1439
v 30.9718 31.8071 -4.9096
v 32.0244 31.7010 -4.3308
v 31.4490 33.8657 -4.1439
v 32.0244 31.7010 -4.3308
v 31.4522 31.7935 -3.2734
v 31.4490 33.8657 -4.1439
v 31.4522 31.7935 -3.2734
v 30.9718 31.8071 -4.9096
v 30.3997 31.8996 -3.8521
v 31.4522 31.7935 -3.2734
v 32.0244 31.7010 -4.3308
v 30.9718 31.8071 -4.9096
v 31.0443 32.8793 -3.5887
v 30.8040 32.8861 -4.4072
v 31.5675 34.8985 -4.1700
v 30.8040 32.8861 -4.4072
v 31.6167 32.7867 -4.6466
v 31.5675 34.8985 -4.1700
v 31.6167 32.7867 -4.6466
v 31.8570 32.7799 -3.8281
v 31.5675 34.8985 -4.1700
v 31.8570 32.7799 -3.8281
v 31.0443 32.8793 -3.5887
v 31.5675 34.8985 -4.1700
v 31.0443 32.8793 -3.5887
v 31.6167 32.7867 -4.6466
v 30.8040 32.8861 -4.4072
v 31.0443 32.8793 -3.5887
v 31.8570 32.7799 -3.8281
v 31.6167 32.7867 -4.6466
v -8.3710 32.5258 2.9033
v -8.6340 32.5287 3.8389
v -9.4709 35.0416 3.0909
v -8.6340 32.5287 3.8389
v -10.4134 32.6412 4.0522
v -9.4709 35.0416 3.0909
v -10.4134 32.6412 4.0522
v -10.6245 32.6818 2.2694
v -9.4709 35.0416 3.0909
v -10.6245 32.6818 2.2694
v -8.8451 32.5694 2.0562
v -9.4709 35.0416 3.0909
v -8.8451 32.5694 2.0562
v -8.3710 32.5258 2.9033
v -9.4709 35.0416 3.0909
v -8.3710 32.5258 2.9033
v -10.4134 32.6412 4.0522
v -8.6340 32.5287 3.8389
v -8.3710 32.5258 2.9033
v -10.6245 32.6818 2.2694
v -10.4134 32.6412 4.0522
v -8.3710 32.5258 2.9033
v -8.8451 32.5694 2.0562
v -10.6245 32.6818 2.2694
v -8.5580 33.7607 2.9536
v -9.4323 33.8008 4.0664
v -9.3917 36.2597 3.1093
v -9.4323 33.8008 4.0664
v -10.5421 33.8861 3.1914
v -9.3917 36.2597 3.1093
v -10.5421 33.8861 3.1914
v -9.6678 33.8461 2.0786
v -9.3917 36.2597 3.1093
v -9.6678 33.8461 2.0786
v -8.5580 33.7607 2.9536
v -9.3917 36.2597 3.1093
v -8.5580 33.7607 2.9536
v -10.5421 33.8861 3.1914
v -9.4323 33.8008 4.0664
v -8.5580 33.7607 2.9536
v -9.6678 33.8461 2.0786
v -10.5421 33.8861 3.1914
v -8.9157 34.9989 3.5286
v -9.9083 35.0616 3.6476
v -9.3125 37.4779 3.1277
v -9.9083 35.0616 3.6476
v -10.0260 35.0843 2.6532
v -9.3125 37.4779 3.1277
v -10.0260 35.0843 2.6532
v -9.0335 35.0216 2.5342
v -9.3125 37.4779 3.1277
v -9.0335 35.0216 2.5342
v -8.9157 34.9989 3.5286
v -9.3125 37.4779 3.1277
v -8.9157 34.9989 3.5286
v -10.0260 35.0843 2.6532
v -9.9083 35.0616 3.6476
v -8.9157 34.9989 3.5286
v -9.0335 35.0216 2.5342
v -10.0260 35.0843 2.6532
v 20.9253 32.7446 -14.9492
v 19.8986 32.8644 -14.3263
v 19.8906 35.8015 -16.0736
v 19.8986 32.8644 -14.3263
v 18.1018 32.9211 -15.6455
v 19.8906 35.8015 -16.0736
v 18.1018 32.9211 -15.6455
v 19.4109 32.7050 -17.4377
v 19.8906 35.8015 -16.0736
v 19.4109 32.7050 -17.4377
v 21.2077 32.6483 -16.1184
v 19.8906 35.8015 -16.0736
v 21.2077 32.6483 -16.1184
v 20.9253 32.7446 -14.9492
v 19.8906 35.8015 -16.0736
v 20.9253 32.7446 -14.9492
v 18.1018 32.9211 -15.6455
v 19.8986 32.8644 -14.3263
v 20.9253 32.7446 -14.9492
v 19.4109 32.7050 -17.4377
v 18.1018 32.9211 -15.6455
v 20.9253 32.7446 -14.9492
v 21.2077 32.6483 -16.1184
v 19.4109 32.7050 -17.4377
v 20.7744 34.2615 -15.2423
v 19.0429 34.4136 -14.9786
v 20.0086 37.3100 -16.1693
v 19.0429 34.4136 -14.9786
v 18.7709 34.3247 -16.7133
v 20.0086 37.3100 -16.1693
v 18.7709 34.3247 -16.7133
v 20.5025 34.1726 -16.9769
v 20.0086 37.3100 -16.1693
v 20.5025 34.1726 -16.9769
v 20.7744 34.2615 -15.2423
v 20.0086 37.3100 -16.1693
v 20.7744 34.2615 -15.2423
v 18.7709 34.3247 -16.7133
v 19.0429 34.4136 -14.9786
v 20.7744 34.2615 -15.2423
v 20.5025 34.1726 -16.9769
v 18.7709 34.3247 -16.7133
v 20.0267 35.8460 -15.2058
v 19.0244 35.8776 -15.9417
v 20.1265 38.8184 -16.2651
v 19.0244 35.8776 -15.9417
v 19.7546 35.7571 -16.9413
v 20.1265 38.8184 -16.2651
v 19.7546 35.7571 -16.9413
v 20.7568 35.7254 -16.2055
v 20.1265 38.8184 -16.2651
v 20.7568 35.7254 -16.2055
v 20.0267 35.8460 -15.2058
v 20.1265 38.8184 -16.2651
v 20.0267 35.8460 -15.2058
v 19.7546 35.7571 -16.9413
v 19.0244 35.8776 -15.9417
v 20.0267 35.8460 -15.2058
v 20.7568 35.7254 -16.2055
v 19.7546 35.7571 -16.9413
v 36.6971 31.0451 -9.9549
v 35.8802 31.0649 -9.2442
v 35.5231 33.8138 -10.5567
v 35.8802 31.0649 -9.2442
v 34.0905 31.1348 -10.1365
v 35.5231 33.8138 -10.5567
v 34.0905 31.1348 -10.1365
v 34.9830 31.1239 -11.9275
v 35.5231 33.8138 -10.5567
v 34.9830 31.1239 -11.9275
v 36.7727 31.0541 -11.0352
v 35.5231 33.8138 -10.5567
v 36.7727 31.0541 -11.0352
v 36.6971 31.0451 -9.9549
v 35.5231 33.8138 -10.5567
v 36.6971 31.0451 -9.9549
v 34.0905 31.1348 -10.1365
v 35.8802 31.0649 -9.2442
v 36.6971 31.0451 -9.9549
v 34.9830 31.1239 -11.9275
v 34.0905 31.1348 -10.1365
v 36.6971 31.0451 -9.9549
v 36.7727 31.0541 -11.0352
v 34.9830 31.1239 -11.9275
v 36.4751 32.4152 -10.0738
v 34.9798 32.4601 -9.5728
v 35.5689 35.1734 -10.5421
v 34.9798 32.4601 -9.5728
v 34.4795 32.4930 -11.0688
v 35.5689 35.1734 -10.5421
v 34.4795 32.4930 -11.0688
v 35.9749 32.4481 -11.5697
v 35.5689 35.1734 -10.5421
v 35.9749 32.4481 -11.5697
v 36.4751 32.4152 -10.0738
v 35.5689 35.1734 -10.5421
v 36.4751 32.4152 -10.0738
v 34.4795 32.4930 -11.0688
v 34.9798 32.4601 -9.5728
v 36.4751 32.4152 -10.0738
v 35.9749 32.4481 -11.5697
v 34.4795 32.4930 -11.0688
v 35.7733 33.7973 -9.8083
v 34.7751 33.8363 -10.3060
v 35.6147 36.5331 -10.5275
v 34.7751 33.8363 -10.3060
v 35.2729 33.8302 -11.3050
v 35.6147 36.5331 -10.5275
v 35.2729 33.8302 -11.3050
v 36.2712 33.7913 -10.8073
v 35.6147 36.5331 -10.5275
v 36.2712 33.7913 -10.8073
v 35.7733 33.7973 -9.8083
v 35.6147 36.5331 -10.5275
v 35.7733 33.7973 -9.8083
v 35.2729 33.8302 -11.3050
v 34.7751 33.8363 -10.3060
v 35.7733 33.7973 -9.8083
v 36.2712 33.7913 -10.8073
v 35.2729 33.8302 -11.3050
v -2.8002 29.1364 44.5376
v -2.6172 29.0479 45.3643
v -3.4850 31.2971 45.3589
v -2.6172 29.0479 45.3643
v -3.8990 29.1055 46.2742
v -3.4850 31.2971 45.3589
v -3.8990 29.1055 46.2742
v -4.7960 29.3063 44.9978
v -3.4850 31.2971 45.3589
v -4.7960 29.3063 44.9978
v -3.5142 29.2487 44.0879
v -3.4850 31.2971 45.3589
v -3.5142 29.2487 44.0879
v -2.8002 29.1364 44.5376
v -3.4850 31.2971 45.3589
v -2.8002 29.1364 44.5376
v -3.8990 29.1055 46.2742
v -2.6172 29.0479 45.3643
v -2.8002 29.1364 44.5376
v -4.7960 29.3063 44.9978
v -3.8990 29.1055 46.2742
v -2.8002 29.1364 44.5376
v -3.5142 29.2487 44.0879
v -4.7960 29.3063 44.9978
v -2.8812 30.2050 44.7627
v -3.0957 30.1251 45.9816
v -3.3742 32.3571 45.4479
v -3.0957 30.1251 45.9816
v -4.3104 30.2692 45.7773
v -3.3742 32.3571 45.4479
v -4.3104 30.2692 45.7773
v -4.0959 30.3491 44.5584
v -3.3742 32.3571 45.4479
v -4.0959 30.3491 44.5584
v -2.8812 30.2050 44.7627
v -3.3742 32.3571 45.4479
v -2.8812 30.2050 44.7627
v -4.3104 30.2692 45.7773
v -3.0957 30.1251 45.9816
v -2.8812 30.2050 44.7627
v -4.0959 30.3491 44.5584
v -4.3104 30.2692 45.7773
v -2.8773 31.2250 45.4611
v -3.5923 31.2571 45.9687
v -3.2635 33.4171 45.5368
v -3.5923 31.2571 45.9687
v -4.0927 31.3692 45.2567
v -3.2635 33.4171 45.5368
v -4.0927 31.3692 45.2567
v -3.3777 31.3370 44.7492
v -3.2635 33.4171 45.5368
v -3.3777 31.3370 44.7492
v -2.8773 31.2250 45.4611
v -3.2635 33.4171 45.5368
v -2.8773 31.2250 45.4611
v -4.0927 31.3692 45.2567
v -3.5923 31.2571 45.9687
v -2.8773 31.2250 45.4611
v -3.3777 31.3370 44.7492
v -4.0927 31.3692 45.2567
v 50.3871 29.1877 -5.2596
v 51.0645 29.1367 -4.9120
v 50.4491 31.1035 -4.2618
v 51.0645 29.1367 -4.9120
v 50.9515 29.1421 -3.5067
v 50.4491 31.1035 -4.2618
v 50.9515 29.1421 -3.5067
v 49.5499 29.2463 -3.6198
v 50.4491 31.1035 -4.2618
v 49.5499 29.2463 -3.6198
v 49.6629 29.2410 -5.0251
v 50.4491 31.1035 -4.2618
v 49.6629 29.2410 -5.0251
v 50.3871 29.1877 -5.2596
v 50.4491 31.1035 -4.2618
v 50.3871 29.1877 -5.2596
v 50.9515 29.1421 -3.5067
v 51.0645 29.1367 -4.9120
v 50.3871 29.1877 -5.2596
v 49.5499 29.2463 -3.6198
v 50.9515 29.1421 -3.5067
v 50.3871 29.1877 -5.2596
v 49.6629 29.2410 -5.0251
v 49.5499 29.2463 -3.6198
v 50.4411 30.1445 -5.0474
v 51.1595 30.0894 -4.2008
v 50.5200 32.0595 -4.2598
v 51.1595 30.0894 -4.2008
v 50.3151 30.1505 -3.4803
v 50.5200 32.0595 -4.2598
v 50.3151 30.1505 -3.4803
v 49.5968 30.2056 -4.3269
v 50.5200 32.0595 -4.2598
v 49.5968 30.2056 -4.3269
v 50.4411 30.1445 -5.0474
v 50.5200 32.0595 -4.2598
v 50.4411 30.1445 -5.0474
v 50.3151 30.1505 -3.4803
v 51.1595 30.0894 -4.2008
v 50.4411 30.1445 -5.0474
v 49.5968 30.2056 -4.3269
v 50.3151 30.1505 -3.4803
v 50.8715 31.0729 -4.6222
v 50.8084 31.0759 -3.8383
v 50.5909 33.0155 -4.2577
v 50.8084 31.0759 -3.8383
v 50.0267 31.1341 -3.9014
v 50.5909 33.0155 -4.2577
v 50.0267 31.1341 -3.9014
v 50.0897 31.1311 -4.6853
v 50.5909 33.0155 -4.2577
v 50.0897 31.1311 -4.6853
v 50.8715 31.0729 -4.6222
v 50.5909 33.0155 -4.2577
v 50.8715 31.0729 -4.6222
v 50.0267 31.1341 -3.9014
v 50.8084 31.0759 -3.8383
v 50.8715 31.0729 -4.6222
v 50.0897 31.1311 -4.6853
v 50.0267 31.1341 -3.9014
vt 0.00000 1.00000
vt 0.00000 1.00000
vt 0.00000 1.00000
vt 0.00000 1.00000
vt 0.00000 1.00000
vt 0.00000 1.00000
vt 0.00000 1.00000
vt 0.00000 1.00000
vt 0.00000 1.00000
vt 0.00000 1.00000
vt 0.00000 1.00000
vt 0.00000 1.00000
vt 0.00000 1.00000
vt 0.00000 1.00000
vt 0.00000 1.00000
vt 0.00000 1.00000
vt 0.00000 1.00000
vt 0.00000 1.00000
vt 0.00000 1.00000
vt 0.00000 1.00000
vt 0.00000 1.00000
vt 0.00000 1.00000
vt 0.00000 1.00000
vt 0.00000 1.00000
vt 0.00000 1.00000
vt 0.00000 1.00000
vt 0.00000 1.00000
vt 0.00000 1.00000
vt 0.00000 1.00000
vt 0.00000 1.00000
vt 0.00000 1.00000
vt 0.00000 1.00000
vt 0.00000 1.00000
vt 0.00000 1.00000
vt 0.00000 1.00000
vt 0.00000 1.00000
vt 0.00000 1.00000
vt 0.00000 1.00000
vt 0.00000 1.00000
vt 0.00000 1.00000
vt 0.00000 1.00000
vt 0.00000 1.00000
vt 0.00000 1.00000
vt 0.00000 1.00000
vt 0.00000 1.00000
vt 0.00000 1.00000
vt 0.00000 1.00000
vt 0.00000 1.00000
vt 0.00000 1.00000
vt 0.00000 1.00000
vt 0.00000 1.00000
vt 0.00000 1.00000
vt 0.00000 1.00000
vt 0.00000 1.00000
vt 0.00000 1.00000
vt 0.00000 1.00000
vt 0.00000 1.00000
vt 0.00000 1.00000
vt 0.00000 1.00000
vt 0.00000 1.00000
vt 0.00000 1.00000
vt 0.00000 1.00000
vt 0.00000 1.00000
vt 0.00000 1.00000
vt 0.00000 1.00000
vt 0.00000 1.00000
vt 0.00000 1.00000
vt 0.00000 1.00000
vt 0.00000 1.00000
vt 0.00000 1.00000
vt 0.00000 1.00000
vt 0.00000 1.00000
vt 0.00000 1.00000
vt 0.00000 1.00000
vt 0.00000 1.00000
vt 0.00000 1.00000
vt 0.00000 1.00000
vt 0.00000 1.00000
vt 0.00000 1.00000
vt 0.00000 1.00000
vt 0.00000 1.00000
vt 0.00000 1.00000
vt 0.00000 1.00000
vt 0.00000 1.00000
vt 0.00000 1.00000
vt 0.00000 1.00000
vt 0.00000 1.00000
vt 0.00000 1.00000
vt 0.00000 1.00000
vt 0.00000 1.00000
vt 0.00000 1.00000
vt 0.00000 1.00000
vt 0.00000 1.00000
vt 0.00000 1.00000
vt 0.00000 1.00000
vt 0.00000 1.00000
vt 0.00000 1.00000
vt 0.00000 1.00000
vt 0.00000 1.00000
vt 0.00000 1.00000
vt 0.00000 1.00000
vt 0.00000 1.00000
vt 0.00000 1.00000
vt 0.00000 1.00000
vt 0.00000 1.00000
vt 0.00000 1.00000
vt 0.00000 1.00000
vt 0.00000 1.00000
vt 0.00000 1.00000
vt 0.00000 1.00000
vt 0.00000 1.00000
vt 0.00000 1.00000
vt 0.00000 1.00000
vt 0.00000 1.00000
vt 0.00000 1.00000
vt 0.00000 1.00000
vt 0.00000 1.00000
vt 0.00000 1.00000
vt 0.00000 1.00000
vt 0.00000 1.00000
vt 0.00000 1.00000
vt 0.00000 1.00000
vt 0.00000 1.00000
vt 0.00000 1.00000
vt 0.00000 1.00000
vt 0.00000 1.00000
vt 0.00000 1.00000
vt 0.00000 1.00000
vt 0.00000 1.00000
vt 0.00000 1.00000
vt 0.00000 1.00000
vt 0.00000 1.00000
vt 0.00000 1.00000
vt 0.00000 1.00000
vt 0.00000 1.00000
vt 0.00000 1.00000
vt 0.00000 1.00000
vt 0.00000 1.00000
vt 0.00000 1.00000
vt 0.00000 1.00000
vt 0.00000 1.00000
vt 0.00000 1.00000
vt 0.00000 1.00000
vt 0.00000 1.00000
vt 0.00000 1.00000
vt 0.00000 1.00000
vt 0.00000 1.00000
vt 0.00000 1.00000
vt 0.00000 1.00000
vt 0.00000 1.00000
vt 0.00000 1.00000
vt 0.00000 1.00000
vt 0.00000 1.00000
vt 0.00000 1.00000
vt 0.00000 1.00000
vt 0.00000 1.00000
vt 0.00000 1.00000
vt 0.00000 1.00000
vt 0.00000 1.00000
vt 0.00000 1.00000
vt 0.00000 1.00000
vt 0.00000 1.00000
vt 0.00000 1.00000
vt 0.00000 1.00000
vt 0.00000 1.00000
vt 0.00000 1.00000
vt 0.00000 1.00000
vt 0.00000 1.00000
vt 0.00000 1.00000
vt 0.00000 1.00000
vt 0.00000 1.00000
vt 0.00000 1.00000
vt 0.00000 1.00000
vt 0.00000 1.00000
vt 0.00000 1.00000
vt 0.00000 1.00000
vt 0.00000 1.00000
vt 0.00000 1.00000
vt 0.00000 1.00000
vt 0.00000 1.00000
vt 0.00000 1.00000
vt 0.00000 1.00000
vt 0.00000 1.00000
vt 0.00000 1.00000
vt 0.00000 1.00000
vt 0.00000 1.00000
vt 0.00000 1.00000
vt 0.00000 1.00000
vt 0.00000 1.00000
vt 0.00000 1.00000
vt 0.00000 1.00000
vt 0.00000 1.00000
vt 0.00000 1.00000
vt 0.00000 1.00000
vt 0.00000 1.00000
vt 0.00000 1.00000
vt 0.00000 1.00000
vt 0.00000 1.00000
vt 0.00000 1.00000
vt 0.00000 1.00000
vt 0.00000 1.00000
vt 0.00000 1.00000
vt 0.00000 1.00000
vt 0.00000 1.00000
vt 0.00000 1.00000
vt 0.00000 1.00000
vt 0.00000 1.00000
vt 0.00000 1.00000
vt 0.00000 1.00000
vt 0.00000 1.00000
vt 0.00000 1.00000
vt 0.00000 1.00000
vt 0.00000 1.00000
vt 0.00000 1.00000
vt 0.00000 1.00000
vt 0.00000 1.00000
vt 0.00000 1.00000
vt 0.00000 1.00000
vt 0.00000 1.00000
vt 0.00000 1.00000
vt 0.00000 1.00000
vt 0.00000 1.00000
vt 0.00000 1.00000
vt 0.00000 1.00000
vt 0.00000 1.00000
vt 0.00000 1.00000
vt 0.00000 1.00000
vt 0.00000 1.00000
vt 0.00000 1.00000
vt 0.00000 1.00000
vt 0.00000 1.00000
vt 0.00000 1.00000
vt 0.00000 1.00000
vt 0.00000 1.00000
vt 0.00000 1.00000
vt 0.00000 1.00000
vt 0.00000 1.00000
vt 0.00000 1.00000
vt 0.00000 1.00000
vt 0.00000 1.00000
vt 0.00000 1.00000
vt 0.00000 1.00000
vt 0.00000 1.00000
vt 0.00000 1.00000
vt 0.00000 1.00000
vt 0.00000 1.00000
vt 0.00000 1.00000
vt 0.00000 1.00000
vt 0.00000 1.00000
vt 0.00000 1.00000
vt 0.00000 1.00000
vt 0.00000 1.00000
vt 0.00000 1.00000
vt 0.00000 1.00000
vt 0.00000 1.00000
vt 0.00000 1.00000
vt 0.00000 1.00000
vt 0.00000 1.00000
vt 0.00000 1.00000
vt 0.00000 1.00000
vt 0.00000 1.00000
vt 0.00000 1.00000
vt 0.00000 1.00000
vt 0.00000 1.00000
vt 0.00000 1.00000
vt 0.00000 1.00000
vt 0.00000 1.00000
vt 0.00000 1.00000
vt 0.00000 1.00000
vt 0.00000 1.00000
vt 0.00000 1.00000
vt 0.00000 1.00000
vt 0.00000 1.00000
vt 0.00000 1.00000
vt 0.00000 1.00000
vt 0.00000 1.00000
vt 0.00000 1.00000
vt 0.00000 1.00000
vt 0.00000 1.00000
vt 0.00000 1.00000
vt 0.00000 1.00000
vt 0.00000 1.00000
vt 0.00000 1.00000
vt 0.00000 1.00000
vt 0.00000 1.00000
vt 0.00000 1.00000
vt 0.00000 1.00000
vt 0.00000 1.00000
vt 0.00000 1.00000
vt 0.00000 1.00000
vt 0.00000 1.00000
vt 0.00000 1.00000
vt 0.00000 1.00000
vt 0.00000 1.00000
vt 0.00000 1.00000
vt 0.00000 1.00000
vt 0.00000 1.00000
vt 0.00000 1.00000
vt 0.00000 1.00000
vt 0.00000 1.00000
vt 0.00000 1.00000
vt 0.00000 1.00000
vt 0.00000 1.00000
vt 0.00000 1.00000
vt 0.00000 1.00000
vt 0.00000 1.00000
vt 0.00000 1.00000
vt 0.00000 1.00000
vt 0.00000 1.00000
vt 0.00000 1.00000
vt 0.00000 1.00000
vt 0.00000 1.00000
vt 0.00000 1.00000
vt 0.00000 1.00000
vt 0.00000 1.00000
vt 0.00000 1.00000
vt 0.00000 1.00000
vt 0.00000 1.00000
vt 0.00000 1.00000
vt 0.00000 1.00000
vt 0.00000 1.00000
vt 0.00000 1.00000
vt 0.00000 1.00000
vt 0.00000 1.00000
vt 0.00000 1.00000
vt 0.00000 1.00000
vt 0.00000 1.00000
vt 0.00000 1.00000
vt 0.00000 1.00000
vt 0.00000 1.00000
vt 0.00000 1.00000
vt 0.00000 1.00000
vt 0.00000 1.00000
vt 0.00000 1.00000
vt 0.00000 1.00000
vt 0.00000 1.00000
vt 0.00000 1.00000
vt 0.00000 1.00000
vt 0.00000 1.00000
vt 0.00000 1.00000
vt 0.00000 1.00000
vt 0.00000 1.00000
vt 0.00000 1.00000
vt 0.00000 1.00000
vt 0.00000 1.00000
vt 0.00000 1.00000
vt 0.00000 1.00000
vt 0.00000 1.00000
vt 0.00000 1.00000
vt 0.00000 1.00000
vt 0.00000 1.00000
vt 0.00000 1.00000
vt 0.00000 1.00000
vt 0.00000 1.00000
vt 0.00000 1.00000
vt 0.00000 1.00000
vt 0.00000 1.00000
vt 0.00000 1.00000
vt 0.00000 1.00000
vt 0.00000 1.00000
vt 0.00000 1.00000
vt 0.00000 1.00000
vt 0.00000 1.00000
vt 0.00000 1.00000
vt 0.00000 1.00000
vt 0.00000 1.00000
vt 0.00000 1.00000
vt 0.00000 1.00000
vt 0.00000 1.00000
vt 0.00000 1.00000
vt 0.00000 1.00000
vt 0.00000 1.00000
vt 0.00000 1.00000
vt 0.00000 1.00000
vt 0.00000 1.00000
vt 0.00000 1.00000
vt 0.00000 1.00000
vt 0.00000 1.00000
vt 0.00000 1.00000
vt 0.00000 1.00000
vt 0.00000 1.00000
vt 0.00000 1.00000
vt 0.00000 1.00000
vt 0.00000 1.00000
vt 0.00000 1.00000
vt 0.00000 1.00000
vt 0.00000 1.00000
vt 0.00000 1.00000
vt 0.00000 1.00000
vt 0.00000 1.00000
vt 0.00000 1.00000
vt 0.00000 1.00000
vt 0.00000 1.00000
vt 0.00000 1.00000
vt 0.00000 1.00000
vt 0.00000 1.00000
vt 0.00000 1.00000
vt 0.00000 1.00000
vt 0.00000 1.00000
vt 0.00000 1.00000
vt 0.00000 1.00000
vt 0.00000 1.00000
vt 0.00000 1.00000
vt 0.00000 1.00000
vt 0.00000 1.00000
vt 0.00000 1.00000
vt 0.00000 1.00000
vt 0.00000 1.00000
vt 0.00000 1.00000
vt 0.00000 1.00000
vt 0.00000 1.00000
vt 0.00000 1.00000
vt 0.00000 1.00000
vt 0.00000 1.00000
vt 0.00000 1.00000
vt 0.00000 1.00000
vt 0.00000 1.00000
vt 0.00000 1.00000
vt 0.00000 1.00000
vt 0.00000 1.00000
vt 0.00000 1.00000
vt 0.00000 1.00000
vt 0.00000 1.00000
vt 0.00000 1.00000
vt 0.00000 1.00000
vt 0.00000 1.00000
vt 0.00000 1.00000
vt 0.00000 1.00000
vt 0.00000 1.00000
vt 0.00000 1.00000
vt 0.00000 1.00000
vt 0.00000 1.00000
vt 0.00000 1.00000
vt 0.00000 1.00000
vt 0.00000 1.00000
vt 0.00000 1.00000
vt 0.00000 1.00000
vt 0.00000 1.00000
vt 0.00000 1.00000
vt 0.00000 1.00000
vt 0.00000 1.00000
vt 0.00000 1.00000
vt 0.00000 1.00000
vt 0.00000 1.00000
vt 0.00000 1.00000
vt 0.00000 1.00000
vt 0.00000 1.00000
vt 0.00000 1.00000
vt 0.00000 1.00000
vt 0.00000 1.00000
vt 0.00000 1.00000
vt 0.00000 1.00000
vt 0.00000 1.00000
vt 0.00000 1.00000
vt 0.00000 1.00000
vt 0.00000 1.00000
vt 0.00000 1.00000
vt 0.00000 1.00000
vt 0.00000 1.00000
vt 0.00000 1.00000
vt 0.00000 1.00000
vt 0.00000 1.00000
vt 0.00000 1.00000
vt 0.00000 1.00000
vt 0.00000 1.00000
vt 0.00000 1.00000
vt 0.00000 1.00000
vt 0.00000 1.00000
vt 0.00000 1.00000
vt 0.00000 1.00000
vt 0.00000 1.00000
vt 0.00000 1.00000
vt 0.00000 1.00000
vt 0.00000 1.00000
vt 0.00000 1.00000
vt 0.00000 1.00000
vt 0.00000 1.00000
vt 0.00000 1.00000
vt 0.00000 1.00000
vt 0.00000 1.00000
vt 0.00000 1.00000
vt 0.00000 1.00000
vt 0.00000 1.00000
vt 0.00000 1.00000
vt 0.00000 1.00000
vt 0.00000 1.00000
vt 0.00000 1.00000
vt 0.00000 1.00000
vt 0.00000 1.00000
vt 0.00000 1.00000
vt 0.00000 1.00000
vt 0.00000 1.00000
vt 0.00000 1.00000
vt 0.00000 1.00000
vt 0.00000 1.00000
vt 0.00000 1.00000
vt 0.00000 1.00000
vt 0.00000 1.00000
vt 0.00000 1.00000
vt 0.00000 1.00000
vt 0.00000 1.00000
vt 0.00000 1.00000
vt 0.00000 1.00000
vt 0.00000 1.00000
vt 0.00000 1.00000
vt 0.00000 1.00000
vt 0.00000 1.00000
vt 0.00000 1.00000
vt 0.00000 1.00000
vt 0.00000 1.00000
vt 0.00000 1.00000
vt 0.00000 1.00000
vt 0.00000 1.00000
vt 0.00000 1.00000
vt 0.00000 1.00000
vt 0.00000 1.00000
vt 0.00000 1.00000
vt 0.00000 1.00000
vt 0.00000 1.00000
vt 0.00000 1.00000
vt 0.00000 1.00000
vt 0.00000 1.00000
vt 0.00000 1.00000
vt 0.00000 1.00000
vt 0.00000 1.00000
vt 0.00000 1.00000
vt 0.00000 1.00000
vt 0.00000 1.00000
vt 0.00000 1.00000
vt 0.00000 1.00000
vt 0.00000 1.00000
vt 0.00000 1.00000
vt 0.00000 1.00000
vt 0.00000 1.00000
vt 0.00000 1.00000
vt 0.00000 1.00000
vt 0.00000 1.00000
vt 0.00000 1.00000
vt 0.00000 1.00000
vt 0.00000 1.00000
vt 0.00000 1.00000
vt 0.00000 1.00000
vt 0.00000 1.00000
vt 0.00000 1.00000
vt 0.00000 1.00000
vt 0.00000 1.00000
vt 0.00000 1.00000
vt 0.00000 1.00000
vt 0.00000 1.00000
vt 0.00000 1.00000
vt 0.00000 1.00000
vt 0.00000 1.00000
vt 0.00000 1.00000
vt 0.00000 1.00000
vt 0.00000 1.00000
vt 0.00000 1.00000
vt 0.00000 1.00000
vt 0.00000 1.00000
vt 0.00000 1.00000
vt 0.00000 1.00000
vt 0.00000 1.00000
vt 0.00000 1.00000
vt 0.00000 1.00000
vt 0.00000 1.00000
vt 0.00000 1.00000
vt 0.00000 1.00000
vt 0.00000 1.00000
vt 0.00000 1.00000
vt 0.00000 1.00000
vt 0.00000 1.00000
vt 0.00000 1.00000
vt 0.00000 1.00000
vt 0.00000 1.00000
vt 0.00000 1.00000
vt 0.00000 1.00000
vt 0.00000 1.00000
vt 0.00000 1.00000
vt 0.00000 1.00000
vt 0.00000 1.00000
vt 0.00000 1.00000
vt 0.00000 1.00000
vt 0.00000 1.00000
vt 0.00000 1.00000
vt 0.00000 1.00000
vt 0.00000 1.00000
vt 0.00000 1.00000
vt 0.00000 1.00000
vt 0.00000 1.00000
vt 0.00000 1.00000
vt 0.00000 1.00000
vt 0.00000 1.00000
vt 0.00000 1.00000
vt 0.00000 1.00000
vt 0.00000 1.00000
vt 0.00000 1.00000
vt 0.00000 1.00000
vt 0.00000 1.00000
vt 0.00000 1.00000
vt 0.00000 1.00000
vt 0.00000 1.00000
vt 0.00000 1.00000
vt 0.00000 1.00000
vt 0.00000 1.00000
vt 0.00000 1.00000
vt 0.00000 1.00000
vt 0.00000 1.00000
vt 0.00000 1.00000
vt 0.00000 1.00000
vt 0.00000 1.00000
vt 0.00000 1.00000
vt 0.00000 1.00000
vt 0.00000 1.00000
vt 0.00000 1.00000
vt 0.00000 1.00000
vt 0.00000 1.00000
vt 0.00000 1.00000
vt 0.00000 1.00000
vt 0.00000 1.00000
vt 0.00000 1.00000
vt 0.00000 1.00000
vt 0.00000 1.00000
vt 0.00000 1.00000
vt 0.00000 1.00000
vt 0.00000 1.00000
vt 0.00000 1.00000
vt 0.00000 1.00000
vt 0.00000 1.00000
vt 0.00000 1.00000
vt 0.00000 1.00000
vt 0.00000 1.00000
vt 0.00000 1.00000
vt 0.00000 1.00000
vt 0.00000 1.00000
vt 0.00000 1.00000
vt 0.00000 1.00000
vt 0.00000 1.00000
vt 0.00000 1.00000
vt 0.00000 1.00000
vt 0.00000 1.00000
vt 0.00000 1.00000
vt 0.00000 1.00000
vt 0.00000 1.00000
vt 0.00000 1.00000
vt 0.00000 1.00000
vt 0.00000 1.00000
vt 0.00000 1.00000
vt 0.00000 1.00000
vt 0.00000 1.00000
vt 0.00000 1.00000
vt 0.00000 1.00000
vt 0.00000 1.00000
vt 0.00000 1.00000
vt 0.00000 1.00000
vt 0.00000 1.00000
vt 0.00000 1.00000
vt 0.00000 1.00000
vt 0.00000 1.00000
vt 0.00000 1.00000
vt 0.00000 1.00000
vt 0.00000 1.00000
vt 0.00000 1.00000
vt 0.00000 1.00000
vt 0.00000 1.00000
vt 0.00000 1.00000
vt 0.00000 1.00000
vt 0.00000 1.00000
vt 0.00000 1.00000
vt 0.00000 1.00000
vt 0.00000 1.00000
vt 0.00000 1.00000
vt 0.00000 1.00000
vt 0.00000 1.00000
vt 0.00000 1.00000
vt 0.00000 1.00000
vt 0.00000 1.00000
vt 0.00000 1.00000
vt 0.00000 1.00000
vt 0.00000 1.00000
vt 0.00000 1.00000
vt 0.00000 1.00000
vt 0.00000 1.00000
vt 0.00000 1.00000
vt 0.00000 1.00000
vt 0.00000 1.00000
vt 0.00000 1.00000
vt 0.00000 1.00000
vt 0.00000 1.00000
vt 0.00000 1.00000
vt 0.00000 1.00000
vt 0.00000 1.00000
vt 0.00000 1.00000
vt 0.00000 1.00000
vt 0.00000 1.00000
vt 0.00000 1.00000
vt 0.00000 1.00000
vt 0.00000 1.00000
vt 0.00000 1.00000
vt 0.00000 1.00000
vt 0.00000 1.00000
vt 0.00000 1.00000
vt 0.00000 1.00000
vt 0.00000 1.00000
vt 0.00000 1.00000
vt 0.00000 1.00000
vt 0.00000 1.00000
vt 0.00000 1.00000
vt 0.00000 1.00000
vt 0.00000 1.00000
vt 0.00000 1.00000
vt 0.00000 1.00000
vt 0.00000 1.00000
vt 0.00000 1.00000
vt 0.00000 1.00000
vt 0.00000 1.00000
vt 0.00000 1.00000
vt 0.00000 1.00000
vt 0.00000 1.00000
vt 0.00000 1.00000
vt 0.00000 1.00000
vt 0.00000 1.00000
vt 0.00000 1.00000
vt 0.00000 1.00000
vt 0.00000 1.00000
vt 0.00000 1.00000
vt 0.00000 1.00000
vt 0.00000 1.00000
vt 0.00000 1.00000
vt 0.00000 1.00000
vt 0.00000 1.00000
vt 0.00000 1.00000
vt 0.00000 1.00000
vt 0.00000 1.00000
vt 0.00000 1.00000
vt 0.00000 1.00000
vt 0.00000 1.00000
vt 0.00000 1.00000
vt 0.00000 1.00000
vt 0.00000 1.00000
vt 0.00000 1.00000
vt 0.00000 1.00000
vt 0.00000 1.00000
vt 0.00000 1.00000
vt 0.00000 1.00000
vt 0.00000 1.00000
vt 0.00000 1.00000
vt 0.00000 1.00000
vt 0.00000 1.00000
vt 0.00000 1.00000
vt 0.00000 1.00000
vt 0.00000 1.00000
vt 0.00000 1.00000
vt 0.00000 1.00000
vt 0.00000 1.00000
vt 0.00000 1.00000
vt 0.00000 1.00000
vt 0.00000 1.00000
vt 0.00000 1.00000
vt 0.00000 1.00000
vt 0.00000 1.00000
vt 0.00000 1.00000
vt 0.00000 1.00000
vt 0.00000 1.00000
vt 0.00000 1.00000
vt 0.00000 1.00000
vt 0.00000 1.00000
vt 0.00000 1.00000
vt 0.00000 1.00000
vt 0.00000 1.00000
vt 0.00000 1.00000
vt 0.00000 1.00000
vt 0.00000 1.00000
vt 0.00000 1.00000
vt 0.00000 1.00000
vt 0.00000 1.00000
vt 0.00000 1.00000
vt 0.00000 1.00000
vt 0.00000 1.00000
vt 0.00000 1.00000
vt 0.00000 1.00000
vt 0.00000 1.00000
vt 0.00000 1.00000
vt 0.00000 1.00000
vt 0.00000 1.00000
vt 0.00000 1.00000
vt 0.00000 1.00000
vt 0.00000 1.00000
vt 0.00000 1.00000
vt 0.00000 1.00000
vt 0.00000 1.00000
vt 0.00000 1.00000
vt 0.00000 1.00000
vt 0.00000 1.00000
vt 0.00000 1.00000
vt 0.00000 1.00000
vt 0.00000 1.00000
vt 0.00000 1.00000
vt 0.00000 1.00000
vt 0.00000 1.00000
vt 0.00000 1.00000
vt 0.00000 1.00000
vt 0.00000 1.00000
vt 0.00000 1.00000
vt 0.00000 1.00000
vt 0.00000 1.00000
vt 0.00000 1.00000
vt 0.00000 1.00000
vt 0.00000 1.00000
vt 0.00000 1.00000
vt 0.00000 1.00000
vt 0.00000 1.00000
vt 0.00000 1.00000
vt 0.00000 1.00000
vt 0.00000 1.00000
vt 0.00000 1.00000
vt 0.00000 1.00000
vt 0.00000 1.00000
vt 0.00000 1.00000
vt 0.00000 1.00000
vt 0.00000 1.00000
vt 0.00000 1.00000
vt 0.00000 1.00000
vt 0.00000 1.00000
vt 0.00000 1.00000
vt 0.00000 1.00000
vt 0.00000 1.00000
vt 0.00000 1.00000
vt 0.00000 1.00000
vt 0.00000 1.00000
vt 0.00000 1.00000
vt 0.00000 1.00000
vt 0.00000 1.00000
vt 0.00000 1.00000
vt 0.00000 1.00000
vt 0.00000 1.00000
vt 0.00000 1.00000
vt 0.00000 1.00000
vt 0.00000 1.00000
vt 0.00000 1.00000
vt 0.00000 1.00000
vt 0.00000 1.00000
vt 0.00000 1.00000
vt 0.00000 1.00000
vt 0.00000 1.00000
vt 0.00000 1.00000
vt 0.00000 1.00000
vt 0.00000 1.00000
vt 0.00000 1.00000
vt 0.00000 1.00000
vt 0.00000 1.00000
vt 0.00000 1.00000
vt 0.00000 1.00000
vt 0.00000 1.00000
vt 0.00000 1.00000
vt 0.00000 1.00000
vt 0.00000 1.00000
vt 0.00000 1.00000
vt 0.00000 1.00000
vt 0.00000 1.00000
vt 0.00000 1.00000
vt 0.00000 1.00000
vt 0.00000 1.00000
vt 0.00000 1.00000
vt 0.00000 1.00000
vt 0.00000 1.00000
vt 0.00000 1.00000
vt 0.00000 1.00000
vt 0.00000 1.00000
vt 0.00000 1.00000
vt 0.00000 1.00000
vt 0.00000 1.00000
vt 0.00000 1.00000
vt 0.00000 1.00000
vt 0.00000 1.00000
vt 0.00000 1.00000
vt 0.00000 1.00000
vt 0.00000 1.00000
vt 0.00000 1.00000
vt 0.00000 1.00000
vt 0.00000 1.00000
vt 0.00000 1.00000
vt 0.00000 1.00000
vt 0.00000 1.00000
vt 0.00000 1.00000
vt 0.00000 1.00000
vt 0.00000 1.00000
vt 0.00000 1.00000
vt 0.00000 1.00000
vt 0.00000 1.00000
vt 0.00000 1.00000
vt 0.00000 1.00000
vt 0.00000 1.00000
vt 0.00000 1.00000
vt 0.00000 1.00000
vt 0.00000 1.00000
vt 0.00000 1.00000
vt 0.00000 1.00000
vt 0.00000 1.00000
vt 0.00000 1.00000
vt 0.00000 1.00000
vt 0.00000 1.00000
vt 0.00000 1.00000
vt 0.00000 1.00000
vt 0.00000 1.00000
vt 0.00000 1.00000
vt 0.00000 1.00000
vt 0.00000 1.00000
vt 0.00000 1.00000
vt 0.00000 1.00000
vt 0.00000 1.00000
vt 0.00000 1.00000
vt 0.00000 1.00000
vt 0.00000 1.00000
vt 0.00000 1.00000
vt 0.00000 1.00000
vt 0.00000 1.00000
vt 0.00000 1.00000
vt 0.00000 1.00000
vt 0.00000 1.00000
vt 0.00000 1.00000
vt 0.00000 1.00000
vt 0.00000 1.00000
vt 0.00000 1.00000
vt 0.00000 1.00000
vt 0.00000 1.00000
vt 0.00000 1.00000
vt 0.00000 1.00000
vt 0.00000 1.00000
vt 0.00000 1.00000
vt 0.00000 1.00000
vt 0.00000 1.00000
vt 0.00000 1.00000
vt 0.00000 1.00000
vt 0.00000 1.00000
vt 0.00000 1.00000
vt 0.00000 1.00000
vt 0.00000 1.00000
vt 0.00000 1.00000
vt 0.00000 1.00000
vt 0.00000 1.00000
vt 0.00000 1.00000
vt 0.00000 1.00000
vt 0.00000 1.00000
vt 0.00000 1.00000
vt 0.00000 1.00000
vt 0.00000 1.00000
vt 0.00000 1.00000
vt 0.00000 1.00000
vt 0.00000 1.00000
vt 0.00000 1.00000
vt 0.00000 1.00000
vt 0.00000 1.00000
vt 0.00000 1.00000
vt 0.00000 1.00000
vt 0.00000 1.00000
vt 0.00000 1.00000
vt 0.00000 1.00000
vt 0.00000 1.00000
vt 0.00000 1.00000
vt 0.00000 1.00000
vt 0.00000 1.00000
vt 0.00000 1.00000
vt 0.00000 1.00000
vt 0.00000 1.00000
vt 0.00000 1.00000
vt 0.00000 1.00000
vt 0.00000 1.00000
vt 0.00000 1.00000
vt 0.00000 1.00000
vt 0.00000 1.00000
vt 0.00000 1.00000
vt 0.00000 1.00000
vt 0.00000 1.00000
vt 0.00000 1.00000
vt 0.00000 1.00000
vt 0.00000 1.00000
vt 0.00000 1.00000
vt 0.00000 1.00000
vt 0.00000 1.00000
vt 0.00000 1.00000
vt 0.00000 1.00000
vt 0.00000 1.00000
vt 0.00000 1.00000
vt 0.00000 1.00000
vt 0.00000 1.00000
vt 0.00000 1.00000
vt 0.00000 1.00000
vt 0.00000 1.00000
vt 0.00000 1.00000
vt 0.00000 1.00000
vt 0.00000 1.00000
vt 0.00000 1.00000
vt 0.00000 1.00000
vt 0.00000 1.00000
vt 0.00000 1.00000
vt 0.00000 1.00000
vt 0.00000 1.00000
vt 0.00000 1.00000
vt 0.00000 1.00000
vt 0.00000 1.00000
vt 0.00000 1.00000
vt 0.00000 1.00000
vt 0.00000 1.00000
vt 0.00000 1.00000
vt 0.00000 1.00000
vt 0.00000 1.00000
vt 0.00000 1.00000
vt 0.00000 1.00000
vt 0.00000 1.00000
vt 0.00000 1.00000
vt 0.00000 1.00000
vt 0.00000 1.00000
vt 0.00000 1.00000
vt 0.00000 1.00000
vt 0.00000 1.00000
vt 0.00000 1.00000
vt 0.00000 1.00000
vt 0.00000 1.00000
vt 0.00000 1.00000
vt 0.00000 1.00000
vt 0.00000 1.00000
vt 0.00000 1.00000
vt 0.00000 1.00000
vt 0.00000 1.00000
vt 0.00000 1.00000
vt 0.00000 1.00000
vt 0.00000 1.00000
vt 0.00000 1.00000
vt 0.00000 1.00000
vt 0.00000 1.00000
vt 0.00000 1.00000
vt 0.00000 1.00000
vt 0.00000 1.00000
vt 0.00000 1.00000
vt 0.00000 1.00000
vt 0.00000 1.00000
vt 0.00000 1.00000
vt 0.00000 1.00000
vt 0.00000 1.00000
vt 0.00000 1.00000
vt 0.00000 1.00000
vt 0.00000 1.00000
vt 0.00000 1.00000
vt 0.00000 1.00000
vt 0.00000 1.00000
vt 0.00000 1.00000
vt 0.00000 1.00000
vt 0.00000 1.00000
vt 0.00000 1.00000
vt 0.00000 1.00000
vt 0.00000 1.00000
vt 0.00000 1.00000
vt 0.00000 1.00000
vt 0.00000 1.00000
vt 0.00000 1.00000
vt 0.00000 1.00000
vt 0.00000 1.00000
vt 0.00000 1.00000
vt 0.00000 1.00000
vt 0.00000 1.00000
vt 0.00000 1.00000
vt 0.00000 1.00000
vt 0.00000 1.00000
vt 0.00000 1.00000
vt 0.00000 1.00000
vt 0.00000 1.00000
vt 0.00000 1.00000
vt 0.00000 1.00000
vt 0.00000 1.00000
vt 0.00000 1.00000
vt 0.00000 1.00000
vt 0.00000 1.00000
vt 0.00000 1.00000
vt 0.00000 1.00000
vt 0.00000 1.00000
vt 0.00000 1.00000
vt 0.00000 1.00000
vt 0.00000 1.00000
vt 0.00000 1.00000
vt 0.00000 1.00000
vt 0.00000 1.00000
vt 0.00000 1.00000
vt 0.00000 1.00000
vt 0.00000 1.00000
vt 0.00000 1.00000
vt 0.00000 1.00000
vt 0.00000 1.00000
vt 0.00000 1.00000
vt 0.00000 1.00000
vt 0.00000 1.00000
vt 0.00000 1.00000
vt 0.00000 1.00000
vt 0.00000 1.00000
vt 0.00000 1.00000
vt 0.00000 1.00000
vt 0.00000 1.00000
vt 0.00000 1.00000
vt 0.00000 1.00000
vt 0.00000 1.00000
vt 0.00000 1.00000
vt 0.00000 1.00000
vt 0.00000 1.00000
vt 0.00000 1.00000
vt 0.00000 1.00000
vt 0.00000 1.00000
vt 0.00000 1.00000
vt 0.00000 1.00000
vt 0.00000 1.00000
vt 0.00000 1.00000
vt 0.00000 1.00000
vt 0.00000 1.00000
vt 0.00000 1.00000
vt 0.00000 1.00000
vt 0.00000 1.00000
vt 0.00000 1.00000
vt 0.00000 1.00000
vt 0.00000 1.00000
vt 0.00000 1.00000
vt 0.00000 1.00000
vt 0.00000 1.00000
vt 0.00000 1.00000
vt 0.00000 1.00000
vt 0.00000 1.00000
vt 0.00000 1.00000
vt 0.00000 1.00000
vt 0.00000 1.00000
vt 0.00000 1.00000
vt 0.00000 1.00000
vt 0.00000 1.00000
vt 0.00000 1.00000
vt 0.00000 1.00000
vt 0.00000 1.00000
vt 0.00000 1.00000
vt 0.00000 1.00000
vt 0.00000 1.00000
vt 0.00000 1.00000
vt 0.00000 1.00000
vt 0.00000 1.00000
vt 0.00000 1.00000
vt 0.00000 1.00000
vt 0.00000 1.00000
usemtl needles
f 457/457 458/458 459/459
f 460/460 461/461 462/462
f 463/463 464/464 465/465
f 466/466 467/467 468/468
f 469/469 470/470 471/471
f 472/472 473/473 474/474
f 475/475 476/476 477/477
f 478/478 479/479 480/480
f 481/481 482/482 483/483
f 484/484 485/485 486/486
f 487/487 488/488 489/489
f 490/490 491/491 492/492
f 493/493 494/494 495/495
f 496/496 497/497 498/498
f 499/499 500/500 501/501
f 502/502 503/503 504/504
f 505/505 506/506 507/507
f 508/508 509/509 510/510
f 511/511 512/512 513/513
f 514/514 515/515 516/516
f 517/517 518/518 519/519
f 520/520 521/521 522/522
f 523/523 524/524 525/525
f 526/526 527/527 528/528
f 529/529 530/530 531/531
f 532/532 533/533 534/534
f 535/535 536/536 537/537
f 538/538 539/539 540/540
f 541/541 542/542 543/543
f 544/544 545/545 546/546
f 547/547 548/548 549/549
f 550/550 551/551 552/552
f 553/553 554/554 555/555
f 556/556 557/557 558/558
f 559/559 560/560 561/561
f 562/562 563/563 564/564
f 565/565 566/566 567/567
f 568/568 569/569 570/570
f 571/571 572/572 573/573
f 574/574 575/575 576/576
f 577/577 578/578 579/579
f 580/580 581/581 582/582
f 583/583 584/584 585/585
f 586/586 587/587 588/588
f 589/589 590/590 591/591
f 592/592 593/593 594/594
f 595/595 596/596 597/597
f 598/598 599/599 600/600
f 601/601 602/602 603/603
f 604/604 605/605 606/606
f 607/607 608/608 609/609
f 610/610 611/611 612/612
f 613/613 614/614 615/615
f 616/616 617/617 618/618
f 619/619 620/620 621/621
f 622/622 623/623 624/624
f 625/625 626/626 627/627
f 628/628 629/629 630/630
f 631/631 632/632 633/633
f 634/634 635/635 636/636
f 637/637 638/638 639/639
f 640/640 641/641 642/642
f 643/643 644/644 645/645
f 646/646 647/647 648/648
f 649/649 650/650 651/651
f 652/652 653/653 654/654
f 655/655 656/656 657/657
f 658/658 659/659 660/660
f 661/661 662/662 663/663
f 664/664 665/665 666/666
f 667/667 668/668 669/669
f 670/670 671/671 672/672
f 673/673 674/674 675/675
f 676/676 677/677 678/678
f 679/679 680/680 681/681
f 682/682 683/683 684/684
f 685/685 686/686 687/687
f 688/688 689/689 690/690
f 691/691 692/692 693/693
f 694/694 695/695 696/696
f 697/697 698/698 699/699
f 700/700 701/701 702/702
f 703/703 704/704 705/705
f 706/706 707/707 708/708
f 709/709 710/710 711/711
f 712/712 713/713 714/714
f 715/715 716/716 717/717
f 718/718 719/719 720/720
f 721/721 722/722 723/723
f 724/724 725/725 726/726
f 727/727 728/728 729/729
f 730/730 731/731 732/732
f 733/733 734/734 735/735
f 736/736 737/737 738/738
f 739/739 740/740 741/741
f 742/742 743/743 744/744
f 745/745 746/746 747/747
f 748/748 749/749 750/750
f 751/751 752/752 753/753
f 754/754 755/755 756/756
f 757/757 758/758 759/759
f 760/760 761/761 762/762
f 763/763 764/764 765/765
f 766/766 767/767 768/768
f 769/769 770/770 771/771
f 772/772 773/773 774/774
f 775/775 776/776 777/777
f 778/778 779/779 780/780
f 781/781 782/782 783/783
f 784/784 785/785 786/786
f 787/787 788/788 789/789
f 790/790 791/791 792/792
f 793/793 794/794 795/795
f 796/796 797/797 798/798
f 799/799 800/800 801/801
f 802/802 803/803 804/804
f 805/805 806/806 807/807
f 808/808 809/809 810/810
f 811/811 812/812 813/813
f 814/814 815/815 816/816
f 817/817 818/818 819/819
f 820/820 821/821 822/822
f 823/823 824/824 825/825
f 826/826 827/827 828/828
f 829/829 830/830 831/831
f 832/832 833/833 834/834
f 835/835 836/836 837/837
f 838/838 839/839 840/840
f 841/841 842/842 843/843
f 844/844 845/845 846/846
f 847/847 848/848 849/849
f 850/850 851/851 852/852
f 853/853 854/854 855/855
f 856/856 857/857 858/858
f 859/859 860/860 861/861
f 862/862 863/863 864/864
f 865/865 866/866 867/867
f 868/868 869/869 870/870
f 871/871 872/872 873/873
f 874/874 875/875 876/876
f 877/877 878/878 879/879
f 880/880 881/881 882/882
f 883/883 884/884 885/885
f 886/886 887/887 888/888
f 889/889 890/890 891/891
f 892/892 893/893 894/894
f 895/895 896/896 897/897
f 898/898 899/899 900/900
f 901/901 902/902 903/903
f 904/904 905/905 906/906
f 907/907 908/908 909/909
f 910/910 911/911 912/912
f 913/913 914/914 915/915
f 916/916 917/917 918/918
f 919/919 920/920 921/921
f 922/922 923/923 924/924
f 925/925 926/926 927/927
f 928/928 929/929 930/930
f 931/931 932/932 933/933
f 934/934 935/935 936/936
f 937/937 938/938 939/939
f 940/940 941/941 942/942
f 943/943 944/944 945/945
f 946/946 947/947 948/948
f 949/949 950/950 951/951
f 952/952 953/953 954/954
f 955/955 956/956 957/957
f 958/958 959/959 960/960
f 961/961 962/962 963/963
f 964/964 965/965 966/966
f 967/967 968/968 969/969
f 970/970 971/971 972/972
f 973/973 974/974 975/975
f 976/976 977/977 978/978
f 979/979 980/980 981/981
f 982/982 983/983 984/984
f 985/985 986/986 987/987
f 988/988 989/989 990/990
f 991/991 992/992 993/993
f 994/994 995/995 996/996
f 997/997 998/998 999/999
f 1000/1000 1001/1001 1002/1002
f 1003/1003 1004/1004 1005/1005
f 1006/1006 1007/1007 1008/1008
f 1009/1009 1010/1010 1011/1011
f 1012/1012 1013/1013 1014/1014
f 1015/1015 1016/1016 1017/1017
f 1018/1018 1019/1019 1020/1020
f 1021/1021 1022/1022 1023/1023
f 1024/1024 1025/1025 1026/1026
f 1027/1027 1028/1028 1029/1029
f 1030/1030 1031/1031 1032/1032
f 1033/1033 1034/1034 1035/1035
f 1036/1036 1037/1037 1038/1038
f 1039/1039 1040/1040 1041/1041
f 1042/1042 1043/1043 1044/1044
f 1045/1045 1046/1046 1047/1047
f 1048/1048 1049/1049 1050/1050
f 1051/1051 1052/1052 1053/1053
f 1054/1054 1055/1055 1056/1056
f 1057/1057 1058/1058 1059/1059
f 1060/1060 1061/1061 1062/1062
f 1063/1063 1064/1064 1065/1065
f 1066/1066 1067/1067 1068/1068
f 1069/1069 1070/1070 1071/1071
f 1072/1072 1073/1073 1074/1074
f 1075/1075 1076/1076 1077/1077
f 1078/1078 1079/1079 1080/1080
f 1081/1081 1082/1082 1083/1083
f 1084/1084 1085/1085 1086/1086
f 1087/1087 1088/1088 1089/1089
f 1090/1090 1091/1091 1092/1092
f 1093/1093 1094/1094 1095/1095
f 1096/1096 1097/1097 1098/1098
f 1099/1099 1100/1100 1101/1101
f 1102/1102 1103/1103 1104/1104
f 1105/1105 1106/1106 1107/1107
f 1108/1108 1109/1109 1110/1110
f 1111/1111 1112/1112 1113/1113
f 1114/1114 1115/1115 1116/1116
f 1117/1117 1118/1118 1119/1119
f 1120/1120 1121/1121 1122/1122
f 1123/1123 1124/1124 1125/1125
f 1126/1126 1127/1127 1128/1128
f 1129/1129 1130/1130 1131/1131
f 1132/1132 1133/1133 1134/1134
f 1135/1135 1136/1136 1137/1137
f 1138/1138 1139/1139 1140/1140
f 1141/1141 1142/1142 1143/1143
f 1144/1144 1145/1145 1146/1146
f 1147/1147 1148/1148 1149/1149
f 1150/1150 1151/1151 1152/1152
f 1153/1153 1154/1154 1155/1155
f 1156/1156 1157/1157 1158/1158
f 1159/1159 1160/1160 1161/1161
f 1162/1162 1163/1163 1164/1164
f 1165/1165 1166/1166 1167/1167
f 1168/1168 1169/1169 1170/1170
f 1171/1171 1172/1172 1173/1173
f 1174/1174 1175/1175 1176/1176
f 1177/1177 1178/1178 1179/1179
f 1180/1180 1181/1181 1182/1182
f 1183/1183 1184/1184 1185/1185
f 1186/1186 1187/1187 1188/1188
f 1189/1189 1190/1190 1191/1191
f 1192/1192 1193/1193 1194/1194
f 1195/1195 1196/1196 1197/1197
f 1198/1198 1199/1199 1200/1200
f 1201/1201 1202/1202 1203/1203
f 1204/1204 1205/1205 1206/1206
f 1207/1207 1208/1208 1209/1209
f 1210/1210 1211/1211 1212/1212
f 1213/1213 1214/1214 1215/1215
f 1216/1216 1217/1217 1218/1218
f 1219/1219 1220/1220 1221/1221
f 1222/1222 1223/1223 1224/1224
f 1225/1225 1226/1226 1227/1227
f 1228/1228 1229/1229 1230/1230
f 1231/1231 1232/1232 1233/1233
f 1234/1234 1235/1235 1236/1236
f 1237/1237 1238/1238 1239/1239
f 1240/1240 1241/1241 1242/1242
f 1243/1243 1244/1244 1245/1245
f 1246/1246 1247/1247 1248/1248
f 1249/1249 1250/1250 1251/1251
f 1252/1252 1253/1253 1254/1254
f 1255/1255 1256/1256 1257/1257
f 1258/1258 1259/1259 1260/1260
f 1261/1261 1262/1262 1263/1263
f 1264/1264 1265/1265 1266/1266
f 1267/1267 1268/1268 1269/1269
f 1270/1270 1271/1271 1272/1272
f 1273/1273 1274/1274 1275/1275
f 1276/1276 1277/1277 1278/1278
f 1279/1279 1280/1280 1281/1281
f 1282/1282 1283/1283 1284/1284
f 1285/1285 1286/1286 1287/1287
f 1288/1288 1289/1289 1290/1290
f 1291/1291 1292/1292 1293/1293
f 1294/1294 1295/1295 1296/1296
f 1297/1297 1298/1298 1299/1299
f 1300/1300 1301/1301 1302/1302
f 1303/1303 1304/1304 1305/1305
f 1306/1306 1307/1307 1308/1308
f 1309/1309 1310/1310 1311/1311
f 1312/1312 1313/1313 1314/1314
f 1315/1315 1316/1316 1317/1317
f 1318/1318 1319/1319 1320/1320
f 1321/1321 1322/1322 1323/1323
f 1324/1324 1325/1325 1326/1326
f 1327/1327 1328/1328 1329/1329
f 1330/1330 1331/1331 1332/1332
f 1333/1333 1334/1334 1335/1335
f 1336/1336 1337/1337 1338/1338
f 1339/1339 1340/1340 1341/1341
f 1342/1342 1343/1343 1344/1344
f 1345/1345 1346/1346 1347/1347
f 1348/1348 1349/1349 1350/1350
f 1351/1351 1352/1352 1353/1353
f 1354/1354 1355/1355 1356/1356
f 1357/1357 1358/1358 1359/1359
f 1360/1360 1361/1361 1362/1362
f 1363/1363 1364/1364 1365/1365
f 1366/1366 1367/1367 1368/1368
f 1369/1369 1370/1370 1371/1371
f 1372/1372 1373/1373 1374/1374
f 1375/1375 1376/1376 1377/1377
f 1378/1378 1379/1379 1380/1380
f 1381/1381 1382/1382 1383/1383
f 1384/1384 1385/1385 1386/1386
f 1387/1387 1388/1388 1389/1389
f 1390/1390 1391/1391 1392/1392
f 1393/1393 1394/1394 1395/1395
f 1396/1396 1397/1397 1398/1398
f 1399/1399 1400/1400 1401/1401
f 1402/1402 1403/1403 1404/1404
f 1405/1405 1406/1406 1407/1407
f 1408/1408 1409/1409 1410/1410
f 1411/1411 1412/1412 1413/1413
f 1414/1414 1415/1415 1416/1416
f 1417/1417 1418/1418 1419/1419
f 1420/1420 1421/1421 1422/1422
f 1423/1423 1424/1424 1425/1425
f 1426/1426 1427/1427 1428/1428
f 1429/1429 1430/1430 1431/1431
f 1432/1432 1433/1433 1434/1434
f 1435/1435 1436/1436 1437/1437
f 1438/1438 1439/1439 1440/1440
f 1441/1441 1442/1442 1443/1443
f 1444/1444 1445/1445 1446/1446
f 1447/1447 1448/1448 1449/1449
f 1450/1450 1451/1451 1452/1452
f 1453/1453 1454/1454 1455/1455
f 1456/1456 1457/1457 1458/1458
f 1459/1459 1460/1460 1461/1461
f 1462/1462 1463/1463 1464/1464
f 1465/1465 1466/1466 1467/1467
f 1468/1468 1469/1469 1470/1470
f 1471/1471 1472/1472 1473/1473
f 1474/1474 1475/1475 1476/1476
f 1477/1477 1478/1478 1479/1479
f 1480/1480 1481/1481 1482/1482
f 1483/1483 1484/1484 1485/1485
f 1486/1486 1487/1487 1488/1488
f 1489/1489 1490/1490 1491/1491
f 1492/1492 1493/1493 1494/1494
f 1495/1495 1496/1496 1497/1497
f 1498/1498 1499/1499 1500/1500
f 1501/1501 1502/1502 1503/1503
f 1504/1504 1505/1505 1506/1506
f 1507/1507 1508/1508 1509/1509
f 1510/1510 1511/1511 1512/1512
f 1513/1513 1514/1514 1515/1515
f 1516/1516 1517/1517 1518/1518
f 1519/1519 1520/1520 1521/1521
f 1522/1522 1523/1523 1524/1524
f 1525/1525 1526/1526 1527/1527
f 1528/1528 1529/1529 1530/1530
f 1531/1531 1532/1532 1533/1533
f 1534/1534 1535/1535 1536/1536
f 1537/1537 1538/1538 1539/1539
f 1540/1540 1541/1541 1542/1542
f 1543/1543 1544/1544 1545/1545
f 1546/1546 1547/1547 1548/1548
f 1549/1549 1550/1550 1551/1551
f 1552/1552 1553/1553 1554/1554
f 1555/1555 1556/1556 1557/1557
f 1558/1558 1559/1559 1560/1560
f 1561/1561 1562/1562 1563/1563
f 1564/1564 1565/1565 1566/1566
f 1567/1567 1568/1568 1569/1569
f 1570/1570 1571/1571 1572/1572
f 1573/1573 1574/1574 1575/1575
f 1576/1576 1577/1577 1578/1578
f 1579/1579 1580/1580 1581/1581
f 1582/1582 1583/1583 1584/1584
f 1585/1585 1586/1586 1587/1587
f 1588/1588 1589/1589 1590/1590
f 1591/1591 1592/1592 1593/1593
f 1594/1594 1595/1595 1596/1596
