# Generated by TyraX. Do not edit - rebaked from the procedural graph of 'pines'.
# 22 instances of res/models/rock.obj
mtllib props.mtl
v 18.4802 12.8065 4.5992
v 16.8224 13.6251 3.8810
v 20.1304 13.8150 4.4584
v 18.4802 12.8065 4.5992
v 20.1304 13.8150 4.4584
v 16.8224 13.6251 3.8810
v -22.0938 14.7631 -43.9426
v -23.5395 15.4829 -43.3393
v -21.2750 15.5518 -45.1868
v -22.0938 14.7631 -43.9426
v -21.2750 15.5518 -45.1868
v -23.5395 15.4829 -43.3393
v 21.8246 12.9951 -4.1604
v 22.0599 13.6084 -5.3516
v 22.1096 13.6626 -3.0461
v 21.8246 12.9951 -4.1604
v 22.1096 13.6626 -3.0461
v 22.0599 13.6084 -5.3516
v -50.2226 13.4774 17.8279
v -49.9644 13.9331 16.9529
v -50.0534 13.9673 18.6796
v -50.2226 13.4774 17.8279
v -50.0534 13.9673 18.6796
v -49.9644 13.9331 16.9529
v -33.3689 14.3614 -28.3835
v -33.2345 14.7112 -27.6349
v -33.8532 14.7566 -28.9117
v -33.3689 14.3614 -28.3835
v -33.8532 14.7566 -28.9117
v -33.2345 14.7112 -27.6349
v -13.8325 15.1257 -43.8770
v -13.5610 15.5138 -44.6297
v -13.7313 15.5624 -43.1322
v -13.8325 15.1257 -43.8770
v -13.7313 15.5624 -43.1322
v -13.5610 15.5138 -44.6297
v 46.7987 12.0850 -50.5307
v 46.1993 12.5921 -51.3696
v 47.6562 12.6515 -50.0772
v 46.7987 12.0850 -50.5307
v 47.6562 12.6515 -50.0772
v 46.1993 12.5921 -51.3696
v -23.5348 14.0189 -14.5345
v -23.2019 14.5915 -13.4861
v -24.2823 14.6021 -15.2901
v -23.5348 14.0189 -14.5345
v -24.2823 14.6021 -15.2901
v -23.2019 14.5915 -13.4861
v -40.9447 13.3679 13.9999
v -39.0605 14.2518 14.3469
v -42.6259 14.3981 14.6056
v -40.9447 13.3679 13.9999
v -42.6259 14.3981 14.6056
v -39.0605 14.2518 14.3469
v -9.9692 12.9915 8.5621
v -10.8583 13.5252 7.8373
v -8.9048 13.6013 8.7210
v -9.9692 12.9915 8.5621
v -8.9048 13.6013 8.7210
v -10.8583 13.5252 7.8373
v -14.8685 14.8745 -29.4869
v -15.3607 15.2720 -30.0648
v -14.1789 15.2679 -29.2194
v -14.8685 14.8745 -29.4869
v -14.1789 15.2679 -29.2194
v -15.3607 15.2720 -30.0648
v -4.2193 14.8771 -33.8336
v -4.4492 15.2563 -34.6273
v -3.7301 15.3567 -33.2673
v -4.2193 14.8771 -33.8336
v -3.7301 15.3567 -33.2673
v -4.4492 15.2563 -34.6273
v -33.7493 13.6048 6.9558
v -32.8799 14.0801 6.5499
v -34.3088 14.1281 7.6691
v -33.7493 13.6048 6.9558
v -34.3088 14.1281 7.6691
v -32.8799 14.0801 6.5499
v 45.0263 12.3132 -38.6478
v 45.9866 12.7809 -37.9866
v 44.0079 12.9923 -38.7466
v 45.0263 12.3132 -38.6478
v 44.0079 12.9923 -38.7466
v 45.9866 12.7809 -37.9866
v -38.4943 14.4948 -30.0245
v -38.4330 15.2117 -28.5449
v -39.2111 15.2931 -31.2229
v -38.4943 14.4948 -30.0245
v -39.2111 15.2931 -31.2229
v -38.4330 15.2117 -28.5449
v 19.7124 13.6730 -21.9859
v 19.3976 14.2479 -23.1097
v 20.4090 14.3327 -21.1509
v 19.7124 13.6730 -21.9859
v 20.4090 14.3327 -21.1509
v 19.3976 14.2479 -23.1097
v -48.9211 13.7270 -0.2740
v -49.4332 14.1272 0.3035
v -48.7604 14.1237 -1.0083
v -48.9211 13.7270 -0.2740
v -48.7604 14.1237 -1.0083
v -49.4332 14.1272 0.3035
v 3.4310 14.6769 -48.8950
v 2.4304 15.3392 -49.8515
v 4.6641 15.4451 -48.5210
v 3.4310 14.6769 -48.8950
v 4.6641 15.4451 -48.5210
v 2.4304 15.3392 -49.8515
v -49.2975 14.5745 -25.9682
v -50.2055 15.0572 -25.2452
v -48.9910 15.1801 -26.9927
v -49.2975 14.5745 -25.9682
v -48.9910 15.1801 -26.9927
v -50.2055 15.0572 -25.2452
v -44.8671 14.0472 -8.8563
v -44.9880 14.3726 -8.2388
v -44.9806 14.4029 -9.4395
v -44.8671 14.0472 -8.8563
v -44.9806 14.4029 -9.4395
v -44.9880 14.3726 -8.2388
v -47.4360 15.5767 -51.5065
v -48.0599 15.9067 -51.0304
v -47.1990 15.9949 -52.1861
v -47.4360 15.5767 -51.5065
v -47.1990 15.9949 -52.1861
v -48.0599 15.9067 -51.0304
v 4.7963 14.1698 -23.5597
v 4.8620 15.0471 -21.7980
v 4.0681 15.1631 -25.0392
v 4.7963 14.1698 -23.5597
v 4.0681 15.1631 -25.0392
v 4.8620 15.0471 -21.7980
vt 0.00000 1.00000
vt 0.00000 1.00000
vt 0.00000 1.00000
vt 0.00000 1.00000
vt 0.00000 1.00000
vt 0.00000 1.00000
vt 0.00000 1.00000
vt 0.00000 1.00000
vt 0.00000 1.00000
vt 0.00000 1.00000
vt 0.00000 1.00000
vt 0.00000 1.00000
vt 0.00000 1.00000
vt 0.00000 1.00000
vt 0.00000 1.00000
vt 0.00000 1.00000
vt 0.00000 1.00000
vt 0.00000 1.00000
vt 0.00000 1.00000
vt 0.00000 1.00000
vt 0.00000 1.00000
vt 0.00000 1.00000
vt 0.00000 1.00000
vt 0.00000 1.00000
vt 0.00000 1.00000
vt 0.00000 1.00000
vt 0.00000 1.00000
vt 0.00000 1.00000
vt 0.00000 1.00000
vt 0.00000 1.00000
vt 0.00000 1.00000
vt 0.00000 1.00000
vt 0.00000 1.00000
vt 0.00000 1.00000
vt 0.00000 1.00000
vt 0.00000 1.00000
vt 0.00000 1.00000
vt 0.00000 1.00000
vt 0.00000 1.00000
vt 0.00000 1.00000
vt 0.00000 1.00000
vt 0.00000 1.00000
vt 0.00000 1.00000
vt 0.00000 1.00000
vt 0.00000 1.00000
vt 0.00000 1.00000
vt 0.00000 1.00000
vt 0.00000 1.00000
vt 0.00000 1.00000
vt 0.00000 1.00000
vt 0.00000 1.00000
vt 0.00000 1.00000
vt 0.00000 1.00000
vt 0.00000 1.00000
vt 0.00000 1.00000
vt 0.00000 1.00000
vt 0.00000 1.00000
vt 0.00000 1.00000
vt 0.00000 1.00000
vt 0.00000 1.00000
vt 0.00000 1.00000
vt 0.00000 1.00000
vt 0.00000 1.00000
vt 0.00000 1.00000
vt 0.00000 1.00000
vt 0.00000 1.00000
vt 0.00000 1.00000
vt 0.00000 1.00000
vt 0.00000 1.00000
vt 0.00000 1.00000
vt 0.00000 1.00000
vt 0.00000 1.00000
vt 0.00000 1.00000
vt 0.00000 1.00000
vt 0.00000 1.00000
vt 0.00000 1.00000
vt 0.00000 1.00000
vt 0.00000 1.00000
vt 0.00000 1.00000
vt 0.00000 1.00000
vt 0.00000 1.00000
vt 0.00000 1.00000
vt 0.00000 1.00000
vt 0.00000 1.00000
vt 0.00000 1.00000
vt 0.00000 1.00000
vt 0.00000 1.00000
vt 0.00000 1.00000
vt 0.00000 1.00000
vt 0.00000 1.00000
vt 0.00000 1.00000
vt 0.00000 1.00000
vt 0.00000 1.00000
vt 0.00000 1.00000
vt 0.00000 1.00000
vt 0.00000 1.00000
vt 0.00000 1.00000
vt 0.00000 1.00000
vt 0.00000 1.00000
vt 0.00000 1.00000
vt 0.00000 1.00000
vt 0.00000 1.00000
vt 0.00000 1.00000
vt 0.00000 1.00000
vt 0.00000 1.00000
vt 0.00000 1.00000
vt 0.00000 1.00000
vt 0.00000 1.00000
vt 0.00000 1.00000
vt 0.00000 1.00000
vt 0.00000 1.00000
vt 0.00000 1.00000
vt 0.00000 1.00000
vt 0.00000 1.00000
vt 0.00000 1.00000
vt 0.00000 1.00000
vt 0.00000 1.00000
vt 0.00000 1.00000
vt 0.00000 1.00000
vt 0.00000 1.00000
vt 0.00000 1.00000
vt 0.00000 1.00000
vt 0.00000 1.00000
vt 0.00000 1.00000
vt 0.00000 1.00000
vt 0.00000 1.00000
vt 0.00000 1.00000
vt 0.00000 1.00000
vt 0.00000 1.00000
vt 0.00000 1.00000
vt 0.00000 1.00000
vt 0.00000 1.00000
usemtl stone
f 1/1 2/2 3/3
f 4/4 5/5 6/6
f 7/7 8/8 9/9
f 10/10 11/11 12/12
f 13/13 14/14 15/15
f 16/16 17/17 18/18
f 19/19 20/20 21/21
f 22/22 23/23 24/24
f 25/25 26/26 27/27
f 28/28 29/29 30/30
f 31/31 32/32 33/33
f 34/34 35/35 36/36
f 37/37 38/38 39/39
f 40/40 41/41 42/42
f 43/43 44/44 45/45
f 46/46 47/47 48/48
f 49/49 50/50 51/51
f 52/52 53/53 54/54
f 55/55 56/56 57/57
f 58/58 59/59 60/60
f 61/61 62/62 63/63
f 64/64 65/65 66/66
f 67/67 68/68 69/69
f 70/70 71/71 72/72
f 73/73 74/74 75/75
f 76/76 77/77 78/78
f 79/79 80/80 81/81
f 82/82 83/83 84/84
f 85/85 86/86 87/87
f 88/88 89/89 90/90
f 91/91 92/92 93/93
f 94/94 95/95 96/96
f 97/97 98/98 99/99
f 100/100 101/101 102/102
f 103/103 104/104 105/105
f 106/106 107/107 108/108
f 109/109 110/110 111/111
f 112/112 113/113 114/114
f 115/115 116/116 117/117
f 118/118 119/119 120/120
f 121/121 122/122 123/123
f 124/124 125/125 126/126
f 127/127 128/128 129/129
f 130/130 131/131 132/132
