# Generated by TyraX. Do not edit - rebaked from the procedural graph of 'pines'.
# 16 instances of res/models/rock.obj
mtllib props.mtl
v -36.4160 8.0724 -22.7220
v -35.7265 8.3853 -22.6487
v -37.0043 8.4639 -22.4904
v -36.4160 8.0724 -22.7220
v -37.0043 8.4639 -22.4904
v -35.7265 8.3853 -22.6487
v -35.3807 7.3462 12.6270
v -35.1757 7.7080 11.9355
v -35.2753 7.7445 13.2997
v -35.3807 7.3462 12.6270
v -35.2753 7.7445 13.2997
v -35.1757 7.7080 11.9355
v 27.0022 12.0229 -38.0228
v 27.0053 12.3699 -38.7031
v 27.3162 12.3780 -37.4460
v 27.0022 12.0229 -38.0228
v 27.3162 12.3780 -37.4460
v 27.0053 12.3699 -38.7031
v -29.1173 7.1932 5.4081
v -30.1724 8.1512 4.0007
v -27.3977 7.9571 5.9497
v -29.1173 7.1932 5.4081
v -27.3977 7.9571 5.9497
v -30.1724 8.1512 4.0007
v -6.2320 9.2464 -11.9222
v -5.1504 9.8279 -12.0606
v -7.1222 9.8303 -11.3512
v -6.2320 9.2464 -11.9222
v -7.1222 9.8303 -11.3512
v -5.1504 9.8279 -12.0606
v -44.1263 7.4497 -9.4113
v -45.1730 8.1918 -8.6168
v -43.5288 8.1289 -10.5769
v -44.1263 7.4497 -9.4113
v -43.5288 8.1289 -10.5769
v -45.1730 8.1918 -8.6168
v 6.4326 9.7334 8.3538
v 5.7465 10.4895 9.7828
v 6.2801 10.5545 6.8536
v 6.4326 9.7334 8.3538
v 6.2801 10.5545 6.8536
v 5.7465 10.4895 9.7828
v 49.8755 13.0590 19.1858
v 50.5015 13.3930 19.4226
v 49.2378 13.3939 19.3125
v 49.8755 13.0590 19.1858
v 49.2378 13.3939 19.3125
v 50.5015 13.3930 19.4226
v 14.7901 10.9182 -36.8081
v 14.5755 11.6571 -35.3220
v 14.3221 11.7331 -38.1474
v 14.7901 10.9182 -36.8081
v 14.3221 11.7331 -38.1474
v 14.5755 11.6571 -35.3220
v -8.0936 9.4237 18.3294
v -8.5143 9.8955 17.5505
v -7.3194 9.8442 18.7599
v -8.0936 9.4237 18.3294
v -7.3194 9.8442 18.7599
v -8.5143 9.8955 17.5505
v -10.4709 9.8422 30.6861
v -10.7233 10.3718 31.7561
v -10.7855 10.4153 29.6882
v -10.4709 9.8422 30.6861
v -10.7855 10.4153 29.6882
v -10.7233 10.3718 31.7561
v 46.0778 12.7086 17.8896
v 46.8081 13.0214 18.0624
v 45.4340 13.1316 18.0856
v 46.0778 12.7086 17.8896
v 45.4340 13.1316 18.0856
v 46.8081 13.0214 18.0624
v 49.1011 13.0651 -10.2702
v 48.0476 13.8239 -11.1095
v 50.4402 13.7276 -10.0426
v 49.1011 13.0651 -10.2702
v 50.4402 13.7276 -10.0426
v 48.0476 13.8239 -11.1095
v -47.7849 9.0908 41.9180
v -46.6658 9.5518 41.8256
v -48.6084 9.7331 42.4817
v -47.7849 9.0908 41.9180
v -48.6084 9.7331 42.4817
v -46.6658 9.5518 41.8256
v -11.2406 9.7761 -44.5773
v -10.8250 10.2854 -43.7637
v -12.0137 10.2198 -45.0786
v -11.2406 9.7761 -44.5773
v -12.0137 10.2198 -45.0786
v -10.8250 10.2854 -43.7637
v 2.4651 11.1463 35.4416
v 2.0542 12.0058 37.2997
v 1.7075 12.0516 33.7762
v 2.4651 11.1463 35.4416
v 1.7075 12.0516 33.7762
v 2.0542 12.0058 37.2997
vt 0.00000 1.00000
vt 0.00000 1.00000
vt 0.00000 1.00000
vt 0.00000 1.00000
vt 0.00000 1.00000
vt 0.00000 1.00000
vt 0.00000 1.00000
vt 0.00000 1.00000
vt 0.00000 1.00000
vt 0.00000 1.00000
vt 0.00000 1.00000
vt 0.00000 1.00000
vt 0.00000 1.00000
vt 0.00000 1.00000
vt 0.00000 1.00000
vt 0.00000 1.00000
vt 0.00000 1.00000
vt 0.00000 1.00000
vt 0.00000 1.00000
vt 0.00000 1.00000
vt 0.00000 1.00000
vt 0.00000 1.00000
vt 0.00000 1.00000
vt 0.00000 1.00000
vt 0.00000 1.00000
vt 0.00000 1.00000
vt 0.00000 1.00000
vt 0.00000 1.00000
vt 0.00000 1.00000
vt 0.00000 1.00000
vt 0.00000 1.00000
vt 0.00000 1.00000
vt 0.00000 1.00000
vt 0.00000 1.00000
vt 0.00000 1.00000
vt 0.00000 1.00000
vt 0.00000 1.00000
vt 0.00000 1.00000
vt 0.00000 1.00000
vt 0.00000 1.00000
vt 0.00000 1.00000
vt 0.00000 1.00000
vt 0.00000 1.00000
vt 0.00000 1.00000
vt 0.00000 1.00000
vt 0.00000 1.00000
vt 0.00000 1.00000
vt 0.00000 1.00000
vt 0.00000 1.00000
vt 0.00000 1.00000
vt 0.00000 1.00000
vt 0.00000 1.00000
vt 0.00000 1.00000
vt 0.00000 1.00000
vt 0.00000 1.00000
vt 0.00000 1.00000
vt 0.00000 1.00000
vt 0.00000 1.00000
vt 0.00000 1.00000
vt 0.00000 1.00000
vt 0.00000 1.00000
vt 0.00000 1.00000
vt 0.00000 1.00000
vt 0.00000 1.00000
vt 0.00000 1.00000
vt 0.00000 1.00000
vt 0.00000 1.00000
vt 0.00000 1.00000
vt 0.00000 1.00000
vt 0.00000 1.00000
vt 0.00000 1.00000
vt 0.00000 1.00000
vt 0.00000 1.00000
vt 0.00000 1.00000
vt 0.00000 1.00000
vt 0.00000 1.00000
vt 0.00000 1.00000
vt 0.00000 1.00000
vt 0.00000 1.00000
vt 0.00000 1.00000
vt 0.00000 1.00000
vt 0.00000 1.00000
vt 0.00000 1.00000
vt 0.00000 1.00000
vt 0.00000 1.00000
vt 0.00000 1.00000
vt 0.00000 1.00000
vt 0.00000 1.00000
vt 0.00000 1.00000
vt 0.00000 1.00000
vt 0.00000 1.00000
vt 0.00000 1.00000
vt 0.00000 1.00000
vt 0.00000 1.00000
vt 0.00000 1.00000
vt 0.00000 1.00000
usemtl stone
f 1/1 2/2 3/3
f 4/4 5/5 6/6
f 7/7 8/8 9/9
f 10/10 11/11 12/12
f 13/13 14/14 15/15
f 16/16 17/17 18/18
f 19/19 20/20 21/21
f 22/22 23/23 24/24
f 25/25 26/26 27/27
f 28/28 29/29 30/30
f 31/31 32/32 33/33
f 34/34 35/35 36/36
f 37/37 38/38 39/39
f 40/40 41/41 42/42
f 43/43 44/44 45/45
f 46/46 47/47 48/48
f 49/49 50/50 51/51
f 52/52 53/53 54/54
f 55/55 56/56 57/57
f 58/58 59/59 60/60
f 61/61 62/62 63/63
f 64/64 65/65 66/66
f 67/67 68/68 69/69
f 70/70 71/71 72/72
f 73/73 74/74 75/75
f 76/76 77/77 78/78
f 79/79 80/80 81/81
f 82/82 83/83 84/84
f 85/85 86/86 87/87
f 88/88 89/89 90/90
f 91/91 92/92 93/93
f 94/94 95/95 96/96
