# Generated by TyraX. Do not edit - rebaked from the procedural graph of 'pines'.
# 23 instances of res/models/rock.obj
mtllib props.mtl
v -0.1066 2.4092 -42.8566
v 0.9318 3.1935 -41.5767
v -1.5179 3.3164 -43.4646
v -0.1066 2.4092 -42.8566
v -1.5179 3.3164 -43.4646
v 0.9318 3.1935 -41.5767
v 30.1352 10.4949 50.0811
v 30.0865 11.1935 48.7014
v 30.6534 11.2863 51.2614
v 30.1352 10.4949 50.0811
v 30.6534 11.2863 51.2614
v 30.0865 11.1935 48.7014
v 0.9940 5.0421 -7.4192
v -0.3496 5.9422 -8.8019
v 2.7061 6.0983 -6.8897
v 0.9940 5.0421 -7.4192
v 2.7061 6.0983 -6.8897
v -0.3496 5.9422 -8.8019
v -0.1377 9.3754 27.8180
v 0.2163 9.7039 28.2997
v -0.6886 9.6664 27.5803
v -0.1377 9.3754 27.8180
v -0.6886 9.6664 27.5803
v 0.2163 9.7039 28.2997
v -15.7120 7.8046 2.3642
v -14.7659 8.5796 3.5370
v -17.0836 8.5705 1.8388
v -15.7120 7.8046 2.3642
v -17.0836 8.5705 1.8388
v -14.7659 8.5796 3.5370
v -31.6178 9.4454 43.1350
v -30.5733 10.1468 43.9078
v -32.8635 10.1345 42.8959
v -31.6178 9.4454 43.1350
v -32.8635 10.1345 42.8959
v -30.5733 10.1468 43.9078
v -11.2486 9.1809 24.7218
v -12.2313 9.7230 24.6348
v -10.3486 9.6736 24.3238
v -11.2486 9.1809 24.7218
v -10.3486 9.6736 24.3238
v -12.2313 9.7230 24.6348
v 28.8229 2.3123 -5.9365
v 30.3088 3.0443 -5.7420
v 27.4882 3.1824 -5.5903
v 28.8229 2.3123 -5.9365
v 27.4882 3.1824 -5.5903
v 30.3088 3.0443 -5.7420
v 44.9617 5.3352 12.9511
v 44.9457 5.8693 11.8198
v 45.6513 5.8497 13.8205
v 44.9617 5.3352 12.9511
v 45.6513 5.8497 13.8205
v 44.9457 5.8693 11.8198
v 39.7756 0.2199 -19.5188
v 40.4784 0.6723 -19.9482
v 39.3358 0.6519 -18.8378
v 39.7756 0.2199 -19.5188
v 39.3358 0.6519 -18.8378
v 40.4784 0.6723 -19.9482
v 15.5976 6.7028 14.0821
v 16.8461 7.2468 14.5374
v 14.4343 7.4627 14.2815
v 15.5976 6.7028 14.0821
v 14.4343 7.4627 14.2815
v 16.8461 7.2468 14.5374
v -23.3153 10.0449 45.3061
v -22.1425 10.7230 45.2413
v -24.3212 10.6005 45.9676
v -23.3153 10.0449 45.3061
v -24.3212 10.6005 45.9676
v -22.1425 10.7230 45.2413
v -24.8839 6.1895 -33.6005
v -23.4560 6.8524 -33.8956
v -25.8376 6.9134 -32.5913
v -24.8839 6.1895 -33.6005
v -25.8376 6.9134 -32.5913
v -23.4560 6.8524 -33.8956
v 32.0493 5.2569 10.2132
v 32.1449 5.9638 11.5744
v 31.4234 6.0053 9.0707
v 32.0493 5.2569 10.2132
v 31.4234 6.0053 9.0707
v 32.1449 5.9638 11.5744
v 2.8424 10.3159 42.0334
v 3.4787 10.6837 42.0226
v 2.2757 10.6299 42.3440
v 2.8424 10.3159 42.0334
v 2.2757 10.6299 42.3440
v 3.4787 10.6837 42.0226
v -40.0961 7.2277 -41.2173
v -39.5427 7.8893 -42.4221
v -39.9671 7.9093 -39.9457
v -40.0961 7.2277 -41.2173
v -39.9671 7.9093 -39.9457
v -39.5427 7.8893 -42.4221
v -42.7395 8.8644 40.3747
v -43.9464 9.7201 41.4261
v -42.1102 9.7247 38.9561
v -42.7395 8.8644 40.3747
v -42.1102 9.7247 38.9561
v -43.9464 9.7201 41.4261
v -14.5293 7.2077 -4.6445
v -13.9001 7.5536 -5.0224
v -14.8936 7.6196 -4.0728
v -14.5293 7.2077 -4.6445
v -14.8936 7.6196 -4.0728
v -13.9001 7.5536 -5.0224
v -44.1389 7.0507 -1.5265
v -44.9753 7.8483 -0.0310
v -44.1512 7.9764 -3.1256
v -44.1389 7.0507 -1.5265
v -44.1512 7.9764 -3.1256
v -44.9753 7.8483 -0.0310
v -1.7099 4.7426 -11.6626
v -2.8667 5.4528 -10.5508
v -1.3089 5.6214 -13.0802
v -1.7099 4.7426 -11.6626
v -1.3089 5.6214 -13.0802
v -2.8667 5.4528 -10.5508
v 44.1305 8.7805 27.2714
v 44.1057 9.3491 26.1383
v 44.6774 9.3763 28.2110
v 44.1305 8.7805 27.2714
v 44.6774 9.3763 28.2110
v 44.1057 9.3491 26.1383
v 22.1968 10.2431 46.7789
v 21.1807 10.8342 46.3429
v 23.2910 10.7626 46.5911
v 22.1968 10.2431 46.7789
v 23.2910 10.7626 46.5911
v 21.1807 10.8342 46.3429
v 9.3093 6.8094 12.1387
v 8.2100 7.3952 11.6791
v 10.4483 7.3931 11.9222
v 9.3093 6.8094 12.1387
v 10.4483 7.3931 11.9222
v 8.2100 7.3952 11.6791
vt 0.00000 1.00000
vt 0.00000 1.00000
vt 0.00000 1.00000
vt 0.00000 1.00000
vt 0.00000 1.00000
vt 0.00000 1.00000
vt 0.00000 1.00000
vt 0.00000 1.00000
vt 0.00000 1.00000
vt 0.00000 1.00000
vt 0.00000 1.00000
vt 0.00000 1.00000
vt 0.00000 1.00000
vt 0.00000 1.00000
vt 0.00000 1.00000
vt 0.00000 1.00000
vt 0.00000 1.00000
vt 0.00000 1.00000
vt 0.00000 1.00000
vt 0.00000 1.00000
vt 0.00000 1.00000
vt 0.00000 1.00000
vt 0.00000 1.00000
vt 0.00000 1.00000
vt 0.00000 1.00000
vt 0.00000 1.00000
vt 0.00000 1.00000
vt 0.00000 1.00000
vt 0.00000 1.00000
vt 0.00000 1.00000
vt 0.00000 1.00000
vt 0.00000 1.00000
vt 0.00000 1.00000
vt 0.00000 1.00000
vt 0.00000 1.00000
vt 0.00000 1.00000
vt 0.00000 1.00000
vt 0.00000 1.00000
vt 0.00000 1.00000
vt 0.00000 1.00000
vt 0.00000 1.00000
vt 0.00000 1.00000
vt 0.00000 1.00000
vt 0.00000 1.00000
vt 0.00000 1.00000
vt 0.00000 1.00000
vt 0.00000 1.00000
vt 0.00000 1.00000
vt 0.00000 1.00000
vt 0.00000 1.00000
vt 0.00000 1.00000
vt 0.00000 1.00000
vt 0.00000 1.00000
vt 0.00000 1.00000
vt 0.00000 1.00000
vt 0.00000 1.00000
vt 0.00000 1.00000
vt 0.00000 1.00000
vt 0.00000 1.00000
vt 0.00000 1.00000
vt 0.00000 1.00000
vt 0.00000 1.00000
vt 0.00000 1.00000
vt 0.00000 1.00000
vt 0.00000 1.00000
vt 0.00000 1.00000
vt 0.00000 1.00000
vt 0.00000 1.00000
vt 0.00000 1.00000
vt 0.00000 1.00000
vt 0.00000 1.00000
vt 0.00000 1.00000
vt 0.00000 1.00000
vt 0.00000 1.00000
vt 0.00000 1.00000
vt 0.00000 1.00000
vt 0.00000 1.00000
vt 0.00000 1.00000
vt 0.00000 1.00000
vt 0.00000 1.00000
vt 0.00000 1.00000
vt 0.00000 1.00000
vt 0.00000 1.00000
vt 0.00000 1.00000
vt 0.00000 1.00000
vt 0.00000 1.00000
vt 0.00000 1.00000
vt 0.00000 1.00000
vt 0.00000 1.00000
vt 0.00000 1.00000
vt 0.00000 1.00000
vt 0.00000 1.00000
vt 0.00000 1.00000
vt 0.00000 1.00000
vt 0.00000 1.00000
vt 0.00000 1.00000
vt 0.00000 1.00000
vt 0.00000 1.00000
vt 0.00000 1.00000
vt 0.00000 1.00000
vt 0.00000 1.00000
vt 0.00000 1.00000
vt 0.00000 1.00000
vt 0.00000 1.00000
vt 0.00000 1.00000
vt 0.00000 1.00000
vt 0.00000 1.00000
vt 0.00000 1.00000
vt 0.00000 1.00000
vt 0.00000 1.00000
vt 0.00000 1.00000
vt 0.00000 1.00000
vt 0.00000 1.00000
vt 0.00000 1.00000
vt 0.00000 1.00000
vt 0.00000 1.00000
vt 0.00000 1.00000
vt 0.00000 1.00000
vt 0.00000 1.00000
vt 0.00000 1.00000
vt 0.00000 1.00000
vt 0.00000 1.00000
vt 0.00000 1.00000
vt 0.00000 1.00000
vt 0.00000 1.00000
vt 0.00000 1.00000
vt 0.00000 1.00000
vt 0.00000 1.00000
vt 0.00000 1.00000
vt 0.00000 1.00000
vt 0.00000 1.00000
vt 0.00000 1.00000
vt 0.00000 1.00000
vt 0.00000 1.00000
vt 0.00000 1.00000
vt 0.00000 1.00000
vt 0.00000 1.00000
vt 0.00000 1.00000
usemtl stone
f 1/1 2/2 3/3
f 4/4 5/5 6/6
f 7/7 8/8 9/9
f 10/10 11/11 12/12
f 13/13 14/14 15/15
f 16/16 17/17 18/18
f 19/19 20/20 21/21
f 22/22 23/23 24/24
f 25/25 26/26 27/27
f 28/28 29/29 30/30
f 31/31 32/32 33/33
f 34/34 35/35 36/36
f 37/37 38/38 39/39
f 40/40 41/41 42/42
f 43/43 44/44 45/45
f 46/46 47/47 48/48
f 49/49 50/50 51/51
f 52/52 53/53 54/54
f 55/55 56/56 57/57
f 58/58 59/59 60/60
f 61/61 62/62 63/63
f 64/64 65/65 66/66
f 67/67 68/68 69/69
f 70/70 71/71 72/72
f 73/73 74/74 75/75
f 76/76 77/77 78/78
f 79/79 80/80 81/81
f 82/82 83/83 84/84
f 85/85 86/86 87/87
f 88/88 89/89 90/90
f 91/91 92/92 93/93
f 94/94 95/95 96/96
f 97/97 98/98 99/99
f 100/100 101/101 102/102
f 103/103 104/104 105/105
f 106/106 107/107 108/108
f 109/109 110/110 111/111
f 112/112 113/113 114/114
f 115/115 116/116 117/117
f 118/118 119/119 120/120
f 121/121 122/122 123/123
f 124/124 125/125 126/126
f 127/127 128/128 129/129
f 130/130 131/131 132/132
f 133/133 134/134 135/135
f 136/136 137/137 138/138
