# Generated by TyraX. Do not edit - rebaked from the procedural graph of 'pines'.
# 17 instances of res/models/rock.obj
mtllib props.mtl
v -31.0402 10.4098 -48.8954
v -31.3448 10.7545 -49.5053
v -30.4964 10.7646 -48.5264
v -31.0402 10.4098 -48.8954
v -30.4964 10.7646 -48.5264
v -31.3448 10.7545 -49.5053
v -6.4221 10.0648 -52.4380
v -5.9162 10.6560 -51.3884
v -7.3055 10.6928 -53.1140
v -6.4221 10.0648 -52.4380
v -7.3055 10.6928 -53.1140
v -5.9162 10.6560 -51.3884
v 30.7248 9.8433 -38.3690
v 29.7174 10.6165 -39.6068
v 32.0501 10.7488 -37.7137
v 30.7248 9.8433 -38.3690
v 32.0501 10.7488 -37.7137
v 29.7174 10.6165 -39.6068
v 36.1920 9.7121 -34.7034
v 34.8351 10.5529 -33.8450
v 36.9522 10.5405 -36.0729
v 36.1920 9.7121 -34.7034
v 36.9522 10.5405 -36.0729
v 34.8351 10.5529 -33.8450
v 6.5469 10.5948 -32.1451
v 5.5278 11.1722 -31.5806
v 7.1314 11.2071 -33.0934
v 6.5469 10.5948 -32.1451
v 7.1314 11.2071 -33.0934
v 5.5278 11.1722 -31.5806
v 26.0303 10.1146 -29.0287
v 26.8447 10.4574 -29.0444
v 25.4093 10.5606 -28.6264
v 26.0303 10.1146 -29.0287
v 25.4093 10.5606 -28.6264
v 26.8447 10.4574 -29.0444
v 0.1441 10.7731 -19.5269
v 0.8866 11.2530 -18.9568
v -0.7724 11.2317 -19.6119
v 0.1441 10.7731 -19.5269
v -0.7724 11.2317 -19.6119
v 0.8866 11.2530 -18.9568
v 44.2054 9.1197 -45.7595
v 44.3493 9.6349 -46.8413
v 44.6260 9.6868 -44.8144
v 44.2054 9.1197 -45.7595
v 44.6260 9.6868 -44.8144
v 44.3493 9.6349 -46.8413
v 31.3306 10.1342 -14.2003
v 31.7520 10.5041 -14.8449
v 31.2557 10.5587 -13.4850
v 31.3306 10.1342 -14.2003
v 31.2557 10.5587 -13.4850
v 31.7520 10.5041 -14.8449
v 51.6319 9.7284 2.9684
v 52.5766 10.4205 3.7525
v 50.4114 10.3276 2.7451
v 51.6319 9.7284 2.9684
v 50.4114 10.3276 2.7451
v 52.5766 10.4205 3.7525
v -1.3550 10.2232 10.3674
v -1.9763 10.6120 10.8123
v -1.0003 10.6441 9.7352
v -1.3550 10.2232 10.3674
v -1.0003 10.6441 9.7352
v -1.9763 10.6120 10.8123
v 14.6281 10.3920 -35.5710
v 15.9645 11.1134 -35.6702
v 13.5265 11.0588 -34.8257
v 14.6281 10.3920 -35.5710
v 13.5265 11.0588 -34.8257
v 15.9645 11.1134 -35.6702
v 12.8975 10.3937 -11.3282
v 14.1390 10.9143 -11.5376
v 12.0293 11.1105 -10.6164
v 12.8975 10.3937 -11.3282
v 12.0293 11.1105 -10.6164
v 14.1390 10.9143 -11.5376
v -2.6429 10.1789 -7.1018
v -2.1198 10.4960 -6.8306
v -3.2371 10.4400 -7.0202
v -2.6429 10.1789 -7.1018
v -3.2371 10.4400 -7.0202
v -2.1198 10.4960 -6.8306
v -14.0277 10.3051 -30.5013
v -14.9594 11.0118 -29.4714
v -13.7422 11.0183 -31.8168
v -14.0277 10.3051 -30.5013
v -13.7422 11.0183 -31.8168
v -14.9594 11.0118 -29.4714
v -9.9287 10.4115 -15.6995
v -10.9917 10.9211 -15.8638
v -8.9882 10.9651 -16.1031
v -9.9287 10.4115 -15.6995
v -8.9882 10.9651 -16.1031
v -10.9917 10.9211 -15.8638
v -21.7986 10.3098 -43.4548
v -22.9727 10.9623 -43.6274
v -20.6837 10.9298 -43.8090
v -21.7986 10.3098 -43.4548
v -20.6837 10.9298 -43.8090
v -22.9727 10.9623 -43.6274
vt 0.00000 1.00000
vt 0.00000 1.00000
vt 0.00000 1.00000
vt 0.00000 1.00000
vt 0.00000 1.00000
vt 0.00000 1.00000
vt 0.00000 1.00000
vt 0.00000 1.00000
vt 0.00000 1.00000
vt 0.00000 1.00000
vt 0.00000 1.00000
vt 0.00000 1.00000
vt 0.00000 1.00000
vt 0.00000 1.00000
vt 0.00000 1.00000
vt 0.00000 1.00000
vt 0.00000 1.00000
vt 0.00000 1.00000
vt 0.00000 1.00000
vt 0.00000 1.00000
vt 0.00000 1.00000
vt 0.00000 1.00000
vt 0.00000 1.00000
vt 0.00000 1.00000
vt 0.00000 1.00000
vt 0.00000 1.00000
vt 0.00000 1.00000
vt 0.00000 1.00000
vt 0.00000 1.00000
vt 0.00000 1.00000
vt 0.00000 1.00000
vt 0.00000 1.00000
vt 0.00000 1.00000
vt 0.00000 1.00000
vt 0.00000 1.00000
vt 0.00000 1.00000
vt 0.00000 1.00000
vt 0.00000 1.00000
vt 0.00000 1.00000
vt 0.00000 1.00000
vt 0.00000 1.00000
vt 0.00000 1.00000
vt 0.00000 1.00000
vt 0.00000 1.00000
vt 0.00000 1.00000
vt 0.00000 1.00000
vt 0.00000 1.00000
vt 0.00000 1.00000
vt 0.00000 1.00000
vt 0.00000 1.00000
vt 0.00000 1.00000
vt 0.00000 1.00000
vt 0.00000 1.00000
vt 0.00000 1.00000
vt 0.00000 1.00000
vt 0.00000 1.00000
vt 0.00000 1.00000
vt 0.00000 1.00000
vt 0.00000 1.00000
vt 0.00000 1.00000
vt 0.00000 1.00000
vt 0.00000 1.00000
vt 0.00000 1.00000
vt 0.00000 1.00000
vt 0.00000 1.00000
vt 0.00000 1.00000
vt 0.00000 1.00000
vt 0.00000 1.00000
vt 0.00000 1.00000
vt 0.00000 1.00000
vt 0.00000 1.00000
vt 0.00000 1.00000
vt 0.00000 1.00000
vt 0.00000 1.00000
vt 0.00000 1.00000
vt 0.00000 1.00000
vt 0.00000 1.00000
vt 0.00000 1.00000
vt 0.00000 1.00000
vt 0.00000 1.00000
vt 0.00000 1.00000
vt 0.00000 1.00000
vt 0.00000 1.00000
vt 0.00000 1.00000
vt 0.00000 1.00000
vt 0.00000 1.00000
vt 0.00000 1.00000
vt 0.00000 1.00000
vt 0.00000 1.00000
vt 0.00000 1.00000
vt 0.00000 1.00000
vt 0.00000 1.00000
vt 0.00000 1.00000
vt 0.00000 1.00000
vt 0.00000 1.00000
vt 0.00000 1.00000
vt 0.00000 1.00000
vt 0.00000 1.00000
vt 0.00000 1.00000
vt 0.00000 1.00000
vt 0.00000 1.00000
vt 0.00000 1.00000
usemtl stone
f 1/1 2/2 3/3
f 4/4 5/5 6/6
f 7/7 8/8 9/9
f 10/10 11/11 12/12
f 13/13 14/14 15/15
f 16/16 17/17 18/18
f 19/19 20/20 21/21
f 22/22 23/23 24/24
f 25/25 26/26 27/27
f 28/28 29/29 30/30
f 31/31 32/32 33/33
f 34/34 35/35 36/36
f 37/37 38/38 39/39
f 40/40 41/41 42/42
f 43/43 44/44 45/45
f 46/46 47/47 48/48
f 49/49 50/50 51/51
f 52/52 53/53 54/54
f 55/55 56/56 57/57
f 58/58 59/59 60/60
f 61/61 62/62 63/63
f 64/64 65/65 66/66
f 67/67 68/68 69/69
f 70/70 71/71 72/72
f 73/73 74/74 75/75
f 76/76 77/77 78/78
f 79/79 80/80 81/81
f 82/82 83/83 84/84
f 85/85 86/86 87/87
f 88/88 89/89 90/90
f 91/91 92/92 93/93
f 94/94 95/95 96/96
f 97/97 98/98 99/99
f 100/100 101/101 102/102
