# Generated by TyraX. Do not edit - rebaked from the procedural graph of 'pines'.
# 9 instances of res/models/rock.obj
mtllib props.mtl
v 45.1570 20.6982 38.8043
v 44.6394 21.1657 38.0442
v 45.9589 21.1707 39.1925
v 45.1570 20.6982 38.8043
v 45.9589 21.1707 39.1925
v 44.6394 21.1657 38.0442
v -12.4818 21.3983 9.3445
v -11.6948 22.1405 10.6394
v -13.7430 22.1968 8.6423
v -12.4818 21.3983 9.3445
v -13.7430 22.1968 8.6423
v -11.6948 22.1405 10.6394
v -46.1126 17.5073 46.5475
v -46.6293 18.0318 47.3811
v -46.0296 18.0215 45.5931
v -46.1126 17.5073 46.5475
v -46.0296 18.0215 45.5931
v -46.6293 18.0318 47.3811
v -34.5559 21.0874 -4.5581
v -35.7749 21.9932 -5.9689
v -32.8378 22.0279 -4.0383
v -34.5559 21.0874 -4.5581
v -32.8378 22.0279 -4.0383
v -35.7749 21.9932 -5.9689
v 4.5415 20.3448 35.8595
v 4.0740 20.7474 35.0773
v 5.2048 20.8854 36.3248
v 4.5415 20.3448 35.8595
v 5.2048 20.8854 36.3248
v 4.0740 20.7474 35.0773
v -41.7783 18.4058 40.4176
v -41.1123 18.7850 40.7189
v -42.4983 18.7381 40.5560
v -41.7783 18.4058 40.4176
v -42.4983 18.7381 40.5560
v -41.1123 18.7850 40.7189
v -48.8164 17.1160 49.1879
v -49.1708 17.5912 48.2787
v -48.0733 17.6171 49.7561
v -48.8164 17.1160 49.1879
v -48.0733 17.6171 49.7561
v -49.1708 17.5912 48.2787
v -13.0747 19.0805 40.7122
v -13.5203 19.5181 39.8958
v -12.4364 19.6344 41.2558
v -13.0747 19.0805 40.7122
v -12.4364 19.6344 41.2558
v -13.5203 19.5181 39.8958
v 5.3676 19.7353 43.0707
v 6.5428 20.4856 42.7766
v 4.4131 20.3130 43.9049
v 5.3676 19.7353 43.0707
v 4.4131 20.3130 43.9049
v 6.5428 20.4856 42.7766
vt 0.00000 1.00000
vt 0.00000 1.00000
vt 0.00000 1.00000
vt 0.00000 1.00000
vt 0.00000 1.00000
vt 0.00000 1.00000
vt 0.00000 1.00000
vt 0.00000 1.00000
vt 0.00000 1.00000
vt 0.00000 1.00000
vt 0.00000 1.00000
vt 0.00000 1.00000
vt 0.00000 1.00000
vt 0.00000 1.00000
vt 0.00000 1.00000
vt 0.00000 1.00000
vt 0.00000 1.00000
vt 0.00000 1.00000
vt 0.00000 1.00000
vt 0.00000 1.00000
vt 0.00000 1.00000
vt 0.00000 1.00000
vt 0.00000 1.00000
vt 0.00000 1.00000
vt 0.00000 1.00000
vt 0.00000 1.00000
vt 0.00000 1.00000
vt 0.00000 1.00000
vt 0.00000 1.00000
vt 0.00000 1.00000
vt 0.00000 1.00000
vt 0.00000 1.00000
vt 0.00000 1.00000
vt 0.00000 1.00000
vt 0.00000 1.00000
vt 0.00000 1.00000
vt 0.00000 1.00000
vt 0.00000 1.00000
vt 0.00000 1.00000
vt 0.00000 1.00000
vt 0.00000 1.00000
vt 0.00000 1.00000
vt 0.00000 1.00000
vt 0.00000 1.00000
vt 0.00000 1.00000
vt 0.00000 1.00000
vt 0.00000 1.00000
vt 0.00000 1.00000
vt 0.00000 1.00000
vt 0.00000 1.00000
vt 0.00000 1.00000
vt 0.00000 1.00000
vt 0.00000 1.00000
vt 0.00000 1.00000
usemtl stone
f 1/1 2/2 3/3
f 4/4 5/5 6/6
f 7/7 8/8 9/9
f 10/10 11/11 12/12
f 13/13 14/14 15/15
f 16/16 17/17 18/18
f 19/19 20/20 21/21
f 22/22 23/23 24/24
f 25/25 26/26 27/27
f 28/28 29/29 30/30
f 31/31 32/32 33/33
f 34/34 35/35 36/36
f 37/37 38/38 39/39
f 40/40 41/41 42/42
f 43/43 44/44 45/45
f 46/46 47/47 48/48
f 49/49 50/50 51/51
f 52/52 53/53 54/54
