# Generated by TyraX. Do not edit - rebaked from the procedural graph of 'pines'.
# 16 instances of res/models/rock.obj
mtllib props.mtl
v 46.5434 12.2752 31.4583
v 45.6815 12.7769 32.1442
v 46.8541 12.8303 30.4606
v 46.5434 12.2752 31.4583
v 46.8541 12.8303 30.4606
v 45.6815 12.7769 32.1442
v -33.5472 11.8438 -29.3109
v -32.9633 12.2758 -28.8641
v -34.2815 12.2112 -29.4548
v -33.5472 11.8438 -29.3109
v -34.2815 12.2112 -29.4548
v -32.9633 12.2758 -28.8641
v -35.3464 10.1389 -49.6318
v -37.1321 11.0751 -50.5277
v -33.4899 11.2355 -49.6880
v -35.3464 10.1389 -49.6318
v -33.4899 11.2355 -49.6880
v -37.1321 11.0751 -50.5277
v -43.8875 12.1079 -26.0031
v -44.3999 12.5440 -25.2251
v -43.8434 12.6032 -26.8771
v -43.8875 12.1079 -26.0031
v -43.8434 12.6032 -26.8771
v -44.3999 12.5440 -25.2251
v -18.2629 10.8251 -46.1890
v -18.3448 11.4694 -44.8353
v -18.8946 11.5139 -47.3209
v -18.2629 10.8251 -46.1890
v -18.8946 11.5139 -47.3209
v -18.3448 11.4694 -44.8353
v -10.4807 10.9124 -46.6264
v -8.6209 11.9355 -46.8994
v -12.0345 11.9343 -45.6679
v -10.4807 10.9124 -46.6264
v -12.0345 11.9343 -45.6679
v -8.6209 11.9355 -46.8994
v -36.7143 11.1742 -39.0018
v -37.2462 11.5733 -39.7832
v -35.9182 11.6828 -38.6644
v -36.7143 11.1742 -39.0018
v -35.9182 11.6828 -38.6644
v -37.2462 11.5733 -39.7832
v 39.8289 12.2194 13.5296
v 39.0051 12.8250 14.3051
v 40.1547 12.7846 12.4579
v 39.8289 12.2194 13.5296
v 40.1547 12.7846 12.4579
v 39.0051 12.8250 14.3051
v 51.7330 12.1345 27.0271
v 50.9688 12.5886 27.0629
v 52.4262 12.5268 26.6777
v 51.7330 12.1345 27.0271
v 52.4262 12.5268 26.6777
v 50.9688 12.5886 27.0629
v 40.6547 10.6583 -46.0565
v 39.9339 11.3286 -47.1423
v 41.8588 11.2649 -45.5716
v 40.6547 10.6583 -46.0565
v 41.8588 11.2649 -45.5716
v 39.9339 11.3286 -47.1423
v -45.8623 12.6932 -16.8799
v -46.7247 13.1555 -16.6948
v -45.1912 13.1676 -17.4018
v -45.8623 12.6932 -16.8799
v -45.1912 13.1676 -17.4018
v -46.7247 13.1555 -16.6948
v -52.0941 13.3588 -8.7760
v -51.0453 13.9667 -9.6235
v -52.5724 14.1139 -7.6393
v -52.0941 13.3588 -8.7760
v -52.5724 14.1139 -7.6393
v -51.0453 13.9667 -9.6235
v -8.7405 13.2102 3.1510
v -9.7013 13.6880 3.4587
v -8.1285 13.7213 2.4057
v -8.7405 13.2102 3.1510
v -8.1285 13.7213 2.4057
v -9.7013 13.6880 3.4587
v -47.1304 10.0365 -48.6766
v -47.2188 10.4465 -49.5394
v -46.5557 10.4387 -48.0540
v -47.1304 10.0365 -48.6766
v -46.5557 10.4387 -48.0540
v -47.2188 10.4465 -49.5394
v -39.0220 10.5720 -45.6687
v -38.0666 10.9854 -45.7611
v -39.7353 11.1150 -45.1786
v -39.0220 10.5720 -45.6687
v -39.7353 11.1150 -45.1786
v -38.0666 10.9854 -45.7611
v 21.0434 10.7117 -42.3494
v 20.1000 11.4284 -43.2449
v 22.3511 11.3006 -42.1232
v 21.0434 10.7117 -42.3494
v 22.3511 11.3006 -42.1232
v 20.1000 11.4284 -43.2449
vt 0.00000 1.00000
vt 0.00000 1.00000
vt 0.00000 1.00000
vt 0.00000 1.00000
vt 0.00000 1.00000
vt 0.00000 1.00000
vt 0.00000 1.00000
vt 0.00000 1.00000
vt 0.00000 1.00000
vt 0.00000 1.00000
vt 0.00000 1.00000
vt 0.00000 1.00000
vt 0.00000 1.00000
vt 0.00000 1.00000
vt 0.00000 1.00000
vt 0.00000 1.00000
vt 0.00000 1.00000
vt 0.00000 1.00000
vt 0.00000 1.00000
vt 0.00000 1.00000
vt 0.00000 1.00000
vt 0.00000 1.00000
vt 0.00000 1.00000
vt 0.00000 1.00000
vt 0.00000 1.00000
vt 0.00000 1.00000
vt 0.00000 1.00000
vt 0.00000 1.00000
vt 0.00000 1.00000
vt 0.00000 1.00000
vt 0.00000 1.00000
vt 0.00000 1.00000
vt 0.00000 1.00000
vt 0.00000 1.00000
vt 0.00000 1.00000
vt 0.00000 1.00000
vt 0.00000 1.00000
vt 0.00000 1.00000
vt 0.00000 1.00000
vt 0.00000 1.00000
vt 0.00000 1.00000
vt 0.00000 1.00000
vt 0.00000 1.00000
vt 0.00000 1.00000
vt 0.00000 1.00000
vt 0.00000 1.00000
vt 0.00000 1.00000
vt 0.00000 1.00000
vt 0.00000 1.00000
vt 0.00000 1.00000
vt 0.00000 1.00000
vt 0.00000 1.00000
vt 0.00000 1.00000
vt 0.00000 1.00000
vt 0.00000 1.00000
vt 0.00000 1.00000
vt 0.00000 1.00000
vt 0.00000 1.00000
vt 0.00000 1.00000
vt 0.00000 1.00000
vt 0.00000 1.00000
vt 0.00000 1.00000
vt 0.00000 1.00000
vt 0.00000 1.00000
vt 0.00000 1.00000
vt 0.00000 1.00000
vt 0.00000 1.00000
vt 0.00000 1.00000
vt 0.00000 1.00000
vt 0.00000 1.00000
vt 0.00000 1.00000
vt 0.00000 1.00000
vt 0.00000 1.00000
vt 0.00000 1.00000
vt 0.00000 1.00000
vt 0.00000 1.00000
vt 0.00000 1.00000
vt 0.00000 1.00000
vt 0.00000 1.00000
vt 0.00000 1.00000
vt 0.00000 1.00000
vt 0.00000 1.00000
vt 0.00000 1.00000
vt 0.00000 1.00000
vt 0.00000 1.00000
vt 0.00000 1.00000
vt 0.00000 1.00000
vt 0.00000 1.00000
vt 0.00000 1.00000
vt 0.00000 1.00000
vt 0.00000 1.00000
vt 0.00000 1.00000
vt 0.00000 1.00000
vt 0.00000 1.00000
vt 0.00000 1.00000
vt 0.00000 1.00000
usemtl stone
f 1/1 2/2 3/3
f 4/4 5/5 6/6
f 7/7 8/8 9/9
f 10/10 11/11 12/12
f 13/13 14/14 15/15
f 16/16 17/17 18/18
f 19/19 20/20 21/21
f 22/22 23/23 24/24
f 25/25 26/26 27/27
f 28/28 29/29 30/30
f 31/31 32/32 33/33
f 34/34 35/35 36/36
f 37/37 38/38 39/39
f 40/40 41/41 42/42
f 43/43 44/44 45/45
f 46/46 47/47 48/48
f 49/49 50/50 51/51
f 52/52 53/53 54/54
f 55/55 56/56 57/57
f 58/58 59/59 60/60
f 61/61 62/62 63/63
f 64/64 65/65 66/66
f 67/67 68/68 69/69
f 70/70 71/71 72/72
f 73/73 74/74 75/75
f 76/76 77/77 78/78
f 79/79 80/80 81/81
f 82/82 83/83 84/84
f 85/85 86/86 87/87
f 88/88 89/89 90/90
f 91/91 92/92 93/93
f 94/94 95/95 96/96
