# Generated by TyraX. Do not edit - rebaked from the procedural graph of 'pines'.
# 21 instances of res/models/rock.obj
mtllib props.mtl
v 2.2686 16.9985 45.2165
v 1.2647 17.5421 45.5625
v 2.9544 17.5488 44.4504
v 2.2686 16.9985 45.2165
v 2.9544 17.5488 44.4504
v 1.2647 17.5421 45.5625
v -48.5879 13.7999 -29.7589
v -47.2680 14.6338 -30.3081
v -49.5477 14.5226 -28.6752
v -48.5879 13.7999 -29.7589
v -49.5477 14.5226 -28.6752
v -47.2680 14.6338 -30.3081
v -23.2968 13.9920 -1.0691
v -22.2509 14.6361 -0.4839
v -24.4709 14.6156 -1.1118
v -23.2968 13.9920 -1.0691
v -24.4709 14.6156 -1.1118
v -22.2509 14.6361 -0.4839
v -23.8568 14.7672 -26.5272
v -23.7476 15.2837 -25.4474
v -24.3643 15.3864 -27.3873
v -23.8568 14.7672 -26.5272
v -24.3643 15.3864 -27.3873
v -23.7476 15.2837 -25.4474
v -25.0514 15.8277 45.6912
v -24.3332 16.3471 44.8282
v -25.2598 16.4494 46.7075
v -25.0514 15.8277 45.6912
v -25.2598 16.4494 46.7075
v -24.3332 16.3471 44.8282
v -2.6353 16.6773 47.3247
v -3.3622 17.3134 48.5390
v -2.7277 17.3858 45.9866
v -2.6353 16.6773 47.3247
v -2.7277 17.3858 45.9866
v -3.3622 17.3134 48.5390
v -18.2840 14.3754 -15.7544
v -17.6305 14.7715 -15.7536
v -18.8759 14.6734 -15.4095
v -18.2840 14.3754 -15.7544
v -18.8759 14.6734 -15.4095
v -17.6305 14.7715 -15.7536
v -18.5620 14.2265 -0.1510
v -20.1571 15.2256 -0.2477
v -17.0130 15.0040 -0.7763
v -18.5620 14.2265 -0.1510
v -17.0130 15.0040 -0.7763
v -20.1571 15.2256 -0.2477
v -25.8981 14.8267 24.3082
v -27.1521 15.5004 24.6364
v -24.9587 15.5195 23.4853
v -25.8981 14.8267 24.3082
v -24.9587 15.5195 23.4853
v -27.1521 15.5004 24.6364
v 7.5779 15.5754 -20.4994
v 8.9966 16.3550 -21.6436
v 7.0157 16.5742 -18.9366
v 7.5779 15.5754 -20.4994
v 7.0157 16.5742 -18.9366
v 8.9966 16.3550 -21.6436
v -35.9158 14.5459 29.2584
v -35.1869 15.2741 28.1463
v -36.1756 15.2802 30.5193
v -35.9158 14.5459 29.2584
v -36.1756 15.2802 30.5193
v -35.1869 15.2741 28.1463
v -14.4907 14.5016 -13.9938
v -13.4437 15.1305 -13.5687
v -15.6118 15.0774 -13.8937
v -14.4907 14.5016 -13.9938
v -15.6118 15.0774 -13.8937
v -13.4437 15.1305 -13.5687
v -11.4540 15.0715 -46.0090
v -12.0560 15.4191 -46.0363
v -10.9145 15.3408 -46.3236
v -11.4540 15.0715 -46.0090
v -10.9145 15.3408 -46.3236
v -12.0560 15.4191 -46.0363
v -33.7837 13.7322 -10.2590
v -33.4648 14.1080 -11.0191
v -33.6410 14.1547 -9.4938
v -33.7837 13.7322 -10.2590
v -33.6410 14.1547 -9.4938
v -33.4648 14.1080 -11.0191
v -13.7402 14.7535 2.3958
v -13.0823 15.0548 2.3001
v -14.2094 15.0965 2.8098
v -13.7402 14.7535 2.3958
v -14.2094 15.0965 2.8098
v -13.0823 15.0548 2.3001
v -1.3797 15.3249 -16.7447
v -0.5763 15.7376 -17.0737
v -1.9118 15.8115 -16.1422
v -1.3797 15.3249 -16.7447
v -1.9118 15.8115 -16.1422
v -0.5763 15.7376 -17.0737
v -36.2733 14.5313 -31.4764
v -36.8260 14.9442 -30.9398
v -36.0483 14.9239 -32.2012
v -36.2733 14.5313 -31.4764
v -36.0483 14.9239 -32.2012
v -36.8260 14.9442 -30.9398
v -23.6789 13.8539 -13.3958
v -24.7608 14.8536 -11.7787
v -23.5190 14.8641 -15.2739
v -23.6789 13.8539 -13.3958
v -23.5190 14.8641 -15.2739
v -24.7608 14.8536 -11.7787
v -38.3508 14.1792 22.8882
v -37.7938 14.5219 22.3388
v -38.5437 14.6141 23.5744
v -38.3508 14.1792 22.8882
v -38.5437 14.6141 23.5744
v -37.7938 14.5219 22.3388
v -49.7195 13.1568 16.6668
v -49.5000 13.7396 15.4832
v -49.3246 13.7841 17.7439
v -49.7195 13.1568 16.6668
v -49.3246 13.7841 17.7439
v -49.5000 13.7396 15.4832
v -11.9805 16.2007 38.3132
v -11.9460 16.5854 37.5230
v -11.5911 16.5935 38.9716
v -11.9805 16.2007 38.3132
v -11.5911 16.5935 38.9716
v -11.9460 16.5854 37.5230
vt 0.00000 1.00000
vt 0.00000 1.00000
vt 0.00000 1.00000
vt 0.00000 1.00000
vt 0.00000 1.00000
vt 0.00000 1.00000
vt 0.00000 1.00000
vt 0.00000 1.00000
vt 0.00000 1.00000
vt 0.00000 1.00000
vt 0.00000 1.00000
vt 0.00000 1.00000
vt 0.00000 1.00000
vt 0.00000 1.00000
vt 0.00000 1.00000
vt 0.00000 1.00000
vt 0.00000 1.00000
vt 0.00000 1.00000
vt 0.00000 1.00000
vt 0.00000 1.00000
vt 0.00000 1.00000
vt 0.00000 1.00000
vt 0.00000 1.00000
vt 0.00000 1.00000
vt 0.00000 1.00000
vt 0.00000 1.00000
vt 0.00000 1.00000
vt 0.00000 1.00000
vt 0.00000 1.00000
vt 0.00000 1.00000
vt 0.00000 1.00000
vt 0.00000 1.00000
vt 0.00000 1.00000
vt 0.00000 1.00000
vt 0.00000 1.00000
vt 0.00000 1.00000
vt 0.00000 1.00000
vt 0.00000 1.00000
vt 0.00000 1.00000
vt 0.00000 1.00000
vt 0.00000 1.00000
vt 0.00000 1.00000
vt 0.00000 1.00000
vt 0.00000 1.00000
vt 0.00000 1.00000
vt 0.00000 1.00000
vt 0.00000 1.00000
vt 0.00000 1.00000
vt 0.00000 1.00000
vt 0.00000 1.00000
vt 0.00000 1.00000
vt 0.00000 1.00000
vt 0.00000 1.00000
vt 0.00000 1.00000
vt 0.00000 1.00000
vt 0.00000 1.00000
vt 0.00000 1.00000
vt 0.00000 1.00000
vt 0.00000 1.00000
vt 0.00000 1.00000
vt 0.00000 1.00000
vt 0.00000 1.00000
vt 0.00000 1.00000
vt 0.00000 1.00000
vt 0.00000 1.00000
vt 0.00000 1.00000
vt 0.00000 1.00000
vt 0.00000 1.00000
vt 0.00000 1.00000
vt 0.00000 1.00000
vt 0.00000 1.00000
vt 0.00000 1.00000
vt 0.00000 1.00000
vt 0.00000 1.00000
vt 0.00000 1.00000
vt 0.00000 1.00000
vt 0.00000 1.00000
vt 0.00000 1.00000
vt 0.00000 1.00000
vt 0.00000 1.00000
vt 0.00000 1.00000
vt 0.00000 1.00000
vt 0.00000 1.00000
vt 0.00000 1.00000
vt 0.00000 1.00000
vt 0.00000 1.00000
vt 0.00000 1.00000
vt 0.00000 1.00000
vt 0.00000 1.00000
vt 0.00000 1.00000
vt 0.00000 1.00000
vt 0.00000 1.00000
vt 0.00000 1.00000
vt 0.00000 1.00000
vt 0.00000 1.00000
vt 0.00000 1.00000
vt 0.00000 1.00000
vt 0.00000 1.00000
vt 0.00000 1.00000
vt 0.00000 1.00000
vt 0.00000 1.00000
vt 0.00000 1.00000
vt 0.00000 1.00000
vt 0.00000 1.00000
vt 0.00000 1.00000
vt 0.00000 1.00000
vt 0.00000 1.00000
vt 0.00000 1.00000
vt 0.00000 1.00000
vt 0.00000 1.00000
vt 0.00000 1.00000
vt 0.00000 1.00000
vt 0.00000 1.00000
vt 0.00000 1.00000
vt 0.00000 1.00000
vt 0.00000 1.00000
vt 0.00000 1.00000
vt 0.00000 1.00000
vt 0.00000 1.00000
vt 0.00000 1.00000
vt 0.00000 1.00000
vt 0.00000 1.00000
vt 0.00000 1.00000
vt 0.00000 1.00000
vt 0.00000 1.00000
vt 0.00000 1.00000
usemtl stone
f 1/1 2/2 3/3
f 4/4 5/5 6/6
f 7/7 8/8 9/9
f 10/10 11/11 12/12
f 13/13 14/14 15/15
f 16/16 17/17 18/18
f 19/19 20/20 21/21
f 22/22 23/23 24/24
f 25/25 26/26 27/27
f 28/28 29/29 30/30
f 31/31 32/32 33/33
f 34/34 35/35 36/36
f 37/37 38/38 39/39
f 40/40 41/41 42/42
f 43/43 44/44 45/45
f 46/46 47/47 48/48
f 49/49 50/50 51/51
f 52/52 53/53 54/54
f 55/55 56/56 57/57
f 58/58 59/59 60/60
f 61/61 62/62 63/63
f 64/64 65/65 66/66
f 67/67 68/68 69/69
f 70/70 71/71 72/72
f 73/73 74/74 75/75
f 76/76 77/77 78/78
f 79/79 80/80 81/81
f 82/82 83/83 84/84
f 85/85 86/86 87/87
f 88/88 89/89 90/90
f 91/91 92/92 93/93
f 94/94 95/95 96/96
f 97/97 98/98 99/99
f 100/100 101/101 102/102
f 103/103 104/104 105/105
f 106/106 107/107 108/108
f 109/109 110/110 111/111
f 112/112 113/113 114/114
f 115/115 116/116 117/117
f 118/118 119/119 120/120
f 121/121 122/122 123/123
f 124/124 125/125 126/126
