# Generated by TyraX. Do not edit - rebaked from the procedural graph of 'pines'.
# 17 instances of res/models/rock.obj
mtllib props.mtl
v 35.8719 13.0360 36.7603
v 36.9016 13.5262 36.8263
v 34.9927 13.6069 37.1455
v 35.8719 13.0360 36.7603
v 34.9927 13.6069 37.1455
v 36.9016 13.5262 36.8263
v -8.7519 14.6238 0.3376
v -8.2015 14.9221 0.4326
v -9.2680 14.8894 0.5529
v -8.7519 14.6238 0.3376
v -9.2680 14.8894 0.5529
v -8.2015 14.9221 0.4326
v 40.9811 14.0474 0.9454
v 40.8206 14.6518 2.1439
v 40.6125 14.7080 -0.1383
v 40.9811 14.0474 0.9454
v 40.6125 14.7080 -0.1383
v 40.8206 14.6518 2.1439
v 35.7577 12.7559 48.2047
v 35.3078 13.0748 48.7365
v 35.8749 13.1346 47.5691
v 35.7577 12.7559 48.2047
v 35.8749 13.1346 47.5691
v 35.3078 13.0748 48.7365
v -10.6624 18.2520 -50.6401
v -9.6369 18.8471 -50.1092
v -11.7798 18.8554 -50.6198
v -10.6624 18.2520 -50.6401
v -11.7798 18.8554 -50.6198
v -9.6369 18.8471 -50.1092
v -13.8022 13.6060 18.4212
v -13.5774 14.2097 17.2987
v -13.6309 14.2576 19.4921
v -13.8022 13.6060 18.4212
v -13.6309 14.2576 19.4921
v -13.5774 14.2097 17.2987
v -1.3487 13.9912 -0.0829
v -0.1335 14.8024 0.8376
v -2.8310 14.7692 -0.3014
v -1.3487 13.9912 -0.0829
v -2.8310 14.7692 -0.3014
v -0.1335 14.8024 0.8376
v -52.1117 19.1667 -46.9548
v -53.3050 19.7562 -47.6433
v -50.8769 19.9543 -46.9209
v -52.1117 19.1667 -46.9548
v -50.8769 19.9543 -46.9209
v -53.3050 19.7562 -47.6433
v 47.6625 15.0230 -8.9040
v 46.5005 15.6574 -9.4652
v 48.9013 15.6734 -9.0396
v 47.6625 15.0230 -8.9040
v 48.9013 15.6734 -9.0396
v 46.5005 15.6574 -9.4652
v -7.0682 15.6186 -27.7976
v -7.3441 16.5215 -29.6079
v -6.1134 16.6414 -26.3741
v -7.0682 15.6186 -27.7976
v -6.1134 16.6414 -26.3741
v -7.3441 16.5215 -29.6079
v 33.5600 13.5148 7.0697
v 33.6502 14.0745 5.9962
v 33.8116 14.1387 8.0475
v 33.5600 13.5148 7.0697
v 33.8116 14.1387 8.0475
v 33.6502 14.0745 5.9962
v -0.8994 12.4140 48.2049
v -0.6949 12.8944 49.1627
v -1.4816 12.9493 47.4895
v -0.8994 12.4140 48.2049
v -1.4816 12.9493 47.4895
v -0.6949 12.8944 49.1627
v -1.9367 12.6548 34.5265
v -1.6619 13.1343 33.5183
v -1.5991 13.1702 35.4666
v -1.9367 12.6548 34.5265
v -1.5991 13.1702 35.4666
v -1.6619 13.1343 33.5183
v 16.6652 12.3217 43.7229
v 17.3236 12.9004 42.8521
v 16.4820 12.8938 44.7708
v 16.6652 12.3217 43.7229
v 16.4820 12.8938 44.7708
v 17.3236 12.9004 42.8521
v 12.0935 16.4376 -38.5570
v 12.2366 17.0912 -39.8219
v 12.4065 17.1629 -37.4024
v 12.0935 16.4376 -38.5570
v 12.4065 17.1629 -37.4024
v 12.2366 17.0912 -39.8219
v -38.6770 18.8058 -47.9998
v -37.9097 19.4719 -46.7485
v -39.7582 19.6707 -48.7521
v -38.6770 18.8058 -47.9998
v -39.7582 19.6707 -48.7521
v -37.9097 19.4719 -46.7485
v -28.0875 14.8027 4.9656
v -27.0791 15.8928 6.7165
v -29.7551 15.8507 3.8892
v -28.0875 14.8027 4.9656
v -29.7551 15.8507 3.8892
v -27.0791 15.8928 6.7165
vt 0.00000 1.00000
vt 0.00000 1.00000
vt 0.00000 1.00000
vt 0.00000 1.00000
vt 0.00000 1.00000
vt 0.00000 1.00000
vt 0.00000 1.00000
vt 0.00000 1.00000
vt 0.00000 1.00000
vt 0.00000 1.00000
vt 0.00000 1.00000
vt 0.00000 1.00000
vt 0.00000 1.00000
vt 0.00000 1.00000
vt 0.00000 1.00000
vt 0.00000 1.00000
vt 0.00000 1.00000
vt 0.00000 1.00000
vt 0.00000 1.00000
vt 0.00000 1.00000
vt 0.00000 1.00000
vt 0.00000 1.00000
vt 0.00000 1.00000
vt 0.00000 1.00000
vt 0.00000 1.00000
vt 0.00000 1.00000
vt 0.00000 1.00000
vt 0.00000 1.00000
vt 0.00000 1.00000
vt 0.00000 1.00000
vt 0.00000 1.00000
vt 0.00000 1.00000
vt 0.00000 1.00000
vt 0.00000 1.00000
vt 0.00000 1.00000
vt 0.00000 1.00000
vt 0.00000 1.00000
vt 0.00000 1.00000
vt 0.00000 1.00000
vt 0.00000 1.00000
vt 0.00000 1.00000
vt 0.00000 1.00000
vt 0.00000 1.00000
vt 0.00000 1.00000
vt 0.00000 1.00000
vt 0.00000 1.00000
vt 0.00000 1.00000
vt 0.00000 1.00000
vt 0.00000 1.00000
vt 0.00000 1.00000
vt 0.00000 1.00000
vt 0.00000 1.00000
vt 0.00000 1.00000
vt 0.00000 1.00000
vt 0.00000 1.00000
vt 0.00000 1.00000
vt 0.00000 1.00000
vt 0.00000 1.00000
vt 0.00000 1.00000
vt 0.00000 1.00000
vt 0.00000 1.00000
vt 0.00000 1.00000
vt 0.00000 1.00000
vt 0.00000 1.00000
vt 0.00000 1.00000
vt 0.00000 1.00000
vt 0.00000 1.00000
vt 0.00000 1.00000
vt 0.00000 1.00000
vt 0.00000 1.00000
vt 0.00000 1.00000
vt 0.00000 1.00000
vt 0.00000 1.00000
vt 0.00000 1.00000
vt 0.00000 1.00000
vt 0.00000 1.00000
vt 0.00000 1.00000
vt 0.00000 1.00000
vt 0.00000 1.00000
vt 0.00000 1.00000
vt 0.00000 1.00000
vt 0.00000 1.00000
vt 0.00000 1.00000
vt 0.00000 1.00000
vt 0.00000 1.00000
vt 0.00000 1.00000
vt 0.00000 1.00000
vt 0.00000 1.00000
vt 0.00000 1.00000
vt 0.00000 1.00000
vt 0.00000 1.00000
vt 0.00000 1.00000
vt 0.00000 1.00000
vt 0.00000 1.00000
vt 0.00000 1.00000
vt 0.00000 1.00000
vt 0.00000 1.00000
vt 0.00000 1.00000
vt 0.00000 1.00000
vt 0.00000 1.00000
vt 0.00000 1.00000
vt 0.00000 1.00000
usemtl stone
f 1/1 2/2 3/3
f 4/4 5/5 6/6
f 7/7 8/8 9/9
f 10/10 11/11 12/12
f 13/13 14/14 15/15
f 16/16 17/17 18/18
f 19/19 20/20 21/21
f 22/22 23/23 24/24
f 25/25 26/26 27/27
f 28/28 29/29 30/30
f 31/31 32/32 33/33
f 34/34 35/35 36/36
f 37/37 38/38 39/39
f 40/40 41/41 42/42
f 43/43 44/44 45/45
f 46/46 47/47 48/48
f 49/49 50/50 51/51
f 52/52 53/53 54/54
f 55/55 56/56 57/57
f 58/58 59/59 60/60
f 61/61 62/62 63/63
f 64/64 65/65 66/66
f 67/67 68/68 69/69
f 70/70 71/71 72/72
f 73/73 74/74 75/75
f 76/76 77/77 78/78
f 79/79 80/80 81/81
f 82/82 83/83 84/84
f 85/85 86/86 87/87
f 88/88 89/89 90/90
f 91/91 92/92 93/93
f 94/94 95/95 96/96
f 97/97 98/98 99/99
f 100/100 101/101 102/102
