# Generated by TyraX. Do not edit - rebaked from the procedural graph of 'pines'.
# 11 instances of res/models/rock.obj
mtllib props.mtl
v -46.4638 28.2154 -14.0733
v -48.0486 29.1504 -14.0540
v -45.0173 29.0164 -14.7822
v -46.4638 28.2154 -14.0733
v -45.0173 29.0164 -14.7822
v -48.0486 29.1504 -14.0540
v -13.3846 23.8382 30.4314
v -12.6087 24.2805 30.2438
v -14.0050 24.2639 30.9106
v -13.3846 23.8382 30.4314
v -14.0050 24.2639 30.9106
v -12.6087 24.2805 30.2438
v 34.8667 21.4418 33.4746
v 35.5266 22.1340 34.5647
v 33.7289 22.0519 32.8888
v 34.8667 21.4418 33.4746
v 33.7289 22.0519 32.8888
v 35.5266 22.1340 34.5647
v -26.0500 23.6929 44.2425
v -24.7798 24.2415 44.4112
v -27.1148 24.3729 44.7531
v -26.0500 23.6929 44.2425
v -27.1148 24.3729 44.7531
v -24.7798 24.2415 44.4112
v 21.0268 25.0728 -7.5838
v 20.3245 25.6145 -6.8738
v 21.3384 25.5975 -8.5118
v 21.0268 25.0728 -7.5838
v 21.3384 25.5975 -8.5118
v 20.3245 25.6145 -6.8738
v -26.3252 24.3027 21.5434
v -27.4279 24.9875 21.8429
v -25.4062 24.8989 20.8389
v -26.3252 24.3027 21.5434
v -25.4062 24.8989 20.8389
v -27.4279 24.9875 21.8429
v -9.4564 23.9555 24.0640
v -10.1210 24.3659 24.7827
v -9.3598 24.4439 23.1535
v -9.4564 23.9555 24.0640
v -9.3598 24.4439 23.1535
v -10.1210 24.3659 24.7827
v 27.9144 25.4165 -13.2178
v 27.7785 26.1204 -14.6925
v 28.8609 26.1191 -12.1314
v 27.9144 25.4165 -13.2178
v 28.8609 26.1191 -12.1314
v 27.7785 26.1204 -14.6925
v 5.4878 21.3166 49.7339
v 5.4519 21.8484 50.7800
v 5.0867 21.8888 48.8233
v 5.4878 21.3166 49.7339
v 5.0867 21.8888 48.8233
v 5.4519 21.8484 50.7800
v -51.2926 27.0292 5.9095
v -51.2038 27.5757 4.8103
v -50.8768 27.6209 6.8710
v -51.2926 27.0292 5.9095
v -50.8768 27.6209 6.8710
v -51.2038 27.5757 4.8103
v -10.2313 23.7758 27.0848
v -10.7969 24.4532 25.7061
v -9.2361 24.6382 27.9940
v -10.2313 23.7758 27.0848
v -9.2361 24.6382 27.9940
v -10.7969 24.4532 25.7061
vt 0.00000 1.00000
vt 0.00000 1.00000
vt 0.00000 1.00000
vt 0.00000 1.00000
vt 0.00000 1.00000
vt 0.00000 1.00000
vt 0.00000 1.00000
vt 0.00000 1.00000
vt 0.00000 1.00000
vt 0.00000 1.00000
vt 0.00000 1.00000
vt 0.00000 1.00000
vt 0.00000 1.00000
vt 0.00000 1.00000
vt 0.00000 1.00000
vt 0.00000 1.00000
vt 0.00000 1.00000
vt 0.00000 1.00000
vt 0.00000 1.00000
vt 0.00000 1.00000
vt 0.00000 1.00000
vt 0.00000 1.00000
vt 0.00000 1.00000
vt 0.00000 1.00000
vt 0.00000 1.00000
vt 0.00000 1.00000
vt 0.00000 1.00000
vt 0.00000 1.00000
vt 0.00000 1.00000
vt 0.00000 1.00000
vt 0.00000 1.00000
vt 0.00000 1.00000
vt 0.00000 1.00000
vt 0.00000 1.00000
vt 0.00000 1.00000
vt 0.00000 1.00000
vt 0.00000 1.00000
vt 0.00000 1.00000
vt 0.00000 1.00000
vt 0.00000 1.00000
vt 0.00000 1.00000
vt 0.00000 1.00000
vt 0.00000 1.00000
vt 0.00000 1.00000
vt 0.00000 1.00000
vt 0.00000 1.00000
vt 0.00000 1.00000
vt 0.00000 1.00000
vt 0.00000 1.00000
vt 0.00000 1.00000
vt 0.00000 1.00000
vt 0.00000 1.00000
vt 0.00000 1.00000
vt 0.00000 1.00000
vt 0.00000 1.00000
vt 0.00000 1.00000
vt 0.00000 1.00000
vt 0.00000 1.00000
vt 0.00000 1.00000
vt 0.00000 1.00000
vt 0.00000 1.00000
vt 0.00000 1.00000
vt 0.00000 1.00000
vt 0.00000 1.00000
vt 0.00000 1.00000
vt 0.00000 1.00000
usemtl stone
f 1/1 2/2 3/3
f 4/4 5/5 6/6
f 7/7 8/8 9/9
f 10/10 11/11 12/12
f 13/13 14/14 15/15
f 16/16 17/17 18/18
f 19/19 20/20 21/21
f 22/22 23/23 24/24
f 25/25 26/26 27/27
f 28/28 29/29 30/30
f 31/31 32/32 33/33
f 34/34 35/35 36/36
f 37/37 38/38 39/39
f 40/40 41/41 42/42
f 43/43 44/44 45/45
f 46/46 47/47 48/48
f 49/49 50/50 51/51
f 52/52 53/53 54/54
f 55/55 56/56 57/57
f 58/58 59/59 60/60
f 61/61 62/62 63/63
f 64/64 65/65 66/66
