# Generated by TyraX. Do not edit - rebaked from the procedural graph of 'pines'.
# 19 instances of res/models/rock.obj
mtllib props.mtl
v 1.4592 10.8228 -49.1671
v 0.5392 11.2092 -48.6627
v 1.8661 11.3963 -50.0038
v 1.4592 10.8228 -49.1671
v 1.8661 11.3963 -50.0038
v 0.5392 11.2092 -48.6627
v 40.5079 8.7920 36.0111
v 39.7732 9.2696 36.8043
v 40.6496 9.3388 35.0032
v 40.5079 8.7920 36.0111
v 40.6496 9.3388 35.0032
v 39.7732 9.2696 36.8043
v 13.5255 9.5083 -50.4220
v 14.1200 9.9365 -50.9826
v 13.2804 9.9289 -49.6627
v 13.5255 9.5083 -50.4220
v 13.2804 9.9289 -49.6627
v 14.1200 9.9365 -50.9826
v 18.1259 8.1305 24.1369
v 19.0474 8.6774 23.4956
v 17.6757 8.7170 25.1084
v 18.1259 8.1305 24.1369
v 17.6757 8.7170 25.1084
v 19.0474 8.6774 23.4956
v 26.9004 9.4431 46.5890
v 26.8211 10.1688 48.0413
v 26.2900 10.2079 45.3370
v 26.9004 9.4431 46.5890
v 26.2900 10.2079 45.3370
v 26.8211 10.1688 48.0413
v 31.8021 8.9819 40.5265
v 31.4585 9.5258 41.6167
v 31.5574 9.5838 39.4733
v 31.8021 8.9819 40.5265
v 31.5574 9.5838 39.4733
v 31.4585 9.5258 41.6167
v -43.6418 12.6176 -45.2128
v -42.9622 13.2114 -44.3347
v -44.6235 13.1981 -45.6759
v -43.6418 12.6176 -45.2128
v -44.6235 13.1981 -45.6759
v -42.9622 13.2114 -44.3347
v -17.1044 9.8886 -8.0695
v -18.8813 10.6916 -8.8409
v -15.3823 10.9814 -8.2771
v -17.1044 9.8886 -8.0695
v -15.3823 10.9814 -8.2771
v -18.8813 10.6916 -8.8409
v -16.0438 8.8840 1.8287
v -14.6677 9.6309 2.1212
v -17.3592 9.5492 2.3305
v -16.0438 8.8840 1.8287
v -17.3592 9.5492 2.3305
v -14.6677 9.6309 2.1212
v 4.5168 9.0372 37.4780
v 5.2821 9.3850 37.5071
v 3.8960 9.4374 37.8393
v 4.5168 9.0372 37.4780
v 3.8960 9.4374 37.8393
v 5.2821 9.3850 37.5071
v -34.7451 10.5813 20.0664
v -33.6855 11.1505 20.8616
v -35.9317 11.3266 19.9118
v -34.7451 10.5813 20.0664
v -35.9317 11.3266 19.9118
v -33.6855 11.1505 20.8616
v 29.6544 7.8112 12.5144
v 30.7182 8.5653 11.7117
v 29.0313 8.5061 13.6848
v 29.6544 7.8112 12.5144
v 29.0313 8.5061 13.6848
v 30.7182 8.5653 11.7117
v -25.9871 9.5573 21.4563
v -27.0140 10.0321 21.6845
v -25.2384 10.1669 20.8722
v -25.9871 9.5573 21.4563
v -25.2384 10.1669 20.8722
v -27.0140 10.0321 21.6845
v 12.4281 8.6937 35.1222
v 12.6883 9.2360 33.9976
v 12.8146 9.2734 36.1563
v 12.4281 8.6937 35.1222
v 12.8146 9.2734 36.1563
v 12.6883 9.2360 33.9976
v -29.1417 9.9575 -4.1015
v -29.6189 10.9101 -5.9607
v -28.0098 11.0334 -2.7050
v -29.1417 9.9575 -4.1015
v -28.0098 11.0334 -2.7050
v -29.6189 10.9101 -5.9607
v 10.3493 9.7717 48.8844
v 9.9994 10.0608 49.3682
v 10.3859 10.0740 48.3118
v 10.3493 9.7717 48.8844
v 10.3859 10.0740 48.3118
v 9.9994 10.0608 49.3682
v 48.9480 7.4489 -46.5233
v 49.3199 8.0436 -47.6519
v 49.1161 8.0943 -45.4085
v 48.9480 7.4489 -46.5233
v 49.1161 8.0943 -45.4085
v 49.3199 8.0436 -47.6519
v -28.5839 11.8653 -25.9997
v -27.6839 12.2967 -26.1726
v -29.2519 12.3753 -25.4760
v -28.5839 11.8653 -25.9997
v -29.2519 12.3753 -25.4760
v -27.6839 12.2967 -26.1726
v -52.1781 12.9847 -30.3940
v -52.7149 13.4711 -31.3529
v -51.3634 13.6203 -29.8351
v -52.1781 12.9847 -30.3940
v -51.3634 13.6203 -29.8351
v -52.7149 13.4711 -31.3529
vt 0.00000 1.00000
vt 0.00000 1.00000
vt 0.00000 1.00000
vt 0.00000 1.00000
vt 0.00000 1.00000
vt 0.00000 1.00000
vt 0.00000 1.00000
vt 0.00000 1.00000
vt 0.00000 1.00000
vt 0.00000 1.00000
vt 0.00000 1.00000
vt 0.00000 1.00000
vt 0.00000 1.00000
vt 0.00000 1.00000
vt 0.00000 1.00000
vt 0.00000 1.00000
vt 0.00000 1.00000
vt 0.00000 1.00000
vt 0.00000 1.00000
vt 0.00000 1.00000
vt 0.00000 1.00000
vt 0.00000 1.00000
vt 0.00000 1.00000
vt 0.00000 1.00000
vt 0.00000 1.00000
vt 0.00000 1.00000
vt 0.00000 1.00000
vt 0.00000 1.00000
vt 0.00000 1.00000
vt 0.00000 1.00000
vt 0.00000 1.00000
vt 0.00000 1.00000
vt 0.00000 1.00000
vt 0.00000 1.00000
vt 0.00000 1.00000
vt 0.00000 1.00000
vt 0.00000 1.00000
vt 0.00000 1.00000
vt 0.00000 1.00000
vt 0.00000 1.00000
vt 0.00000 1.00000
vt 0.00000 1.00000
vt 0.00000 1.00000
vt 0.00000 1.00000
vt 0.00000 1.00000
vt 0.00000 1.00000
vt 0.00000 1.00000
vt 0.00000 1.00000
vt 0.00000 1.00000
vt 0.00000 1.00000
vt 0.00000 1.00000
vt 0.00000 1.00000
vt 0.00000 1.00000
vt 0.00000 1.00000
vt 0.00000 1.00000
vt 0.00000 1.00000
vt 0.00000 1.00000
vt 0.00000 1.00000
vt 0.00000 1.00000
vt 0.00000 1.00000
vt 0.00000 1.00000
vt 0.00000 1.00000
vt 0.00000 1.00000
vt 0.00000 1.00000
vt 0.00000 1.00000
vt 0.00000 1.00000
vt 0.00000 1.00000
vt 0.00000 1.00000
vt 0.00000 1.00000
vt 0.00000 1.00000
vt 0.00000 1.00000
vt 0.00000 1.00000
vt 0.00000 1.00000
vt 0.00000 1.00000
vt 0.00000 1.00000
vt 0.00000 1.00000
vt 0.00000 1.00000
vt 0.00000 1.00000
vt 0.00000 1.00000
vt 0.00000 1.00000
vt 0.00000 1.00000
vt 0.00000 1.00000
vt 0.00000 1.00000
vt 0.00000 1.00000
vt 0.00000 1.00000
vt 0.00000 1.00000
vt 0.00000 1.00000
vt 0.00000 1.00000
vt 0.00000 1.00000
vt 0.00000 1.00000
vt 0.00000 1.00000
vt 0.00000 1.00000
vt 0.00000 1.00000
vt 0.00000 1.00000
vt 0.00000 1.00000
vt 0.00000 1.00000
vt 0.00000 1.00000
vt 0.00000 1.00000
vt 0.00000 1.00000
vt 0.00000 1.00000
vt 0.00000 1.00000
vt 0.00000 1.00000
vt 0.00000 1.00000
vt 0.00000 1.00000
vt 0.00000 1.00000
vt 0.00000 1.00000
vt 0.00000 1.00000
vt 0.00000 1.00000
vt 0.00000 1.00000
vt 0.00000 1.00000
vt 0.00000 1.00000
vt 0.00000 1.00000
vt 0.00000 1.00000
vt 0.00000 1.00000
usemtl stone
f 1/1 2/2 3/3
f 4/4 5/5 6/6
f 7/7 8/8 9/9
f 10/10 11/11 12/12
f 13/13 14/14 15/15
f 16/16 17/17 18/18
f 19/19 20/20 21/21
f 22/22 23/23 24/24
f 25/25 26/26 27/27
f 28/28 29/29 30/30
f 31/31 32/32 33/33
f 34/34 35/35 36/36
f 37/37 38/38 39/39
f 40/40 41/41 42/42
f 43/43 44/44 45/45
f 46/46 47/47 48/48
f 49/49 50/50 51/51
f 52/52 53/53 54/54
f 55/55 56/56 57/57
f 58/58 59/59 60/60
f 61/61 62/62 63/63
f 64/64 65/65 66/66
f 67/67 68/68 69/69
f 70/70 71/71 72/72
f 73/73 74/74 75/75
f 76/76 77/77 78/78
f 79/79 80/80 81/81
f 82/82 83/83 84/84
f 85/85 86/86 87/87
f 88/88 89/89 90/90
f 91/91 92/92 93/93
f 94/94 95/95 96/96
f 97/97 98/98 99/99
f 100/100 101/101 102/102
f 103/103 104/104 105/105
f 106/106 107/107 108/108
f 109/109 110/110 111/111
f 112/112 113/113 114/114
