# Generated by TyraX. Do not edit - rebaked from the procedural graph of 'pines'.
# 15 instances of res/models/rock.obj
mtllib props.mtl
v -5.3222 23.4707 -37.8781
v -6.3979 24.2054 -36.6929
v -5.0453 24.3144 -39.3532
v -5.3222 23.4707 -37.8781
v -5.0453 24.3144 -39.3532
v -6.3979 24.2054 -36.6929
v 48.9573 20.9349 45.7153
v 48.8114 21.3391 46.4970
v 48.7742 21.3754 44.9853
v 48.9573 20.9349 45.7153
v 48.7742 21.3754 44.9853
v 48.8114 21.3391 46.4970
v 7.5748 23.7453 22.2694
v 7.3380 24.2762 21.1862
v 8.1837 24.3795 23.0887
v 7.5748 23.7453 22.2694
v 8.1837 24.3795 23.0887
v 7.3380 24.2762 21.1862
v -1.6927 22.1650 -46.3480
v -1.3143 22.5920 -45.6092
v -2.3047 22.6262 -46.8435
v -1.6927 22.1650 -46.3480
v -2.3047 22.6262 -46.8435
v -1.3143 22.5920 -45.6092
v -14.8783 23.0779 -49.9519
v -13.3438 23.9193 -49.9016
v -16.2391 23.8424 -49.2494
v -14.8783 23.0779 -49.9519
v -16.2391 23.8424 -49.2494
v -13.3438 23.9193 -49.9016
v 13.2413 23.1819 27.0183
v 13.6164 23.5766 26.2444
v 13.3694 23.6076 27.8295
v 13.2413 23.1819 27.0183
v 13.3694 23.6076 27.8295
v 13.6164 23.5766 26.2444
v 49.5764 16.1931 -42.8113
v 49.3294 16.5709 -42.0833
v 49.4792 16.6163 -43.5273
v 49.5764 16.1931 -42.8113
v 49.4792 16.6163 -43.5273
v 49.3294 16.5709 -42.0833
v 13.3954 22.9913 32.6936
v 12.5355 23.5763 33.3892
v 13.8694 23.5921 31.7394
v 13.3954 22.9913 32.6936
v 13.8694 23.5921 31.7394
v 12.5355 23.5763 33.3892
v 1.0930 21.9923 -42.2753
v -0.6842 22.8360 -43.0893
v 2.8705 23.0523 -42.4969
v 1.0930 21.9923 -42.2753
v 2.8705 23.0523 -42.4969
v -0.6842 22.8360 -43.0893
v 8.4373 23.4028 31.0653
v 9.6692 23.9542 31.1680
v 7.4102 24.0785 31.5547
v 8.4373 23.4028 31.0653
v 7.4102 24.0785 31.5547
v 9.6692 23.9542 31.1680
v 17.7313 22.7139 34.8676
v 18.5163 23.0809 34.7249
v 17.1559 23.1565 35.3261
v 17.7313 22.7139 34.8676
v 17.1559 23.1565 35.3261
v 18.5163 23.0809 34.7249
v 10.9601 23.8739 -1.3329
v 12.2526 24.6710 -0.7861
v 9.5553 24.5864 -1.2417
v 10.9601 23.8739 -1.3329
v 9.5553 24.5864 -1.2417
v 12.2526 24.6710 -0.7861
v 0.1850 24.1448 -12.6293
v 1.0067 24.6882 -13.6510
v 0.0964 24.8330 -11.4277
v 0.1850 24.1448 -12.6293
v 0.0964 24.8330 -11.4277
v 1.0067 24.6882 -13.6510
v 23.9644 22.4814 21.8110
v 25.5888 23.3272 21.7935
v 22.5653 23.3591 22.5027
v 23.9644 22.4814 21.8110
v 22.5653 23.3591 22.5027
v 25.5888 23.3272 21.7935
v 1.5974 24.8248 4.0456
v 0.8427 25.1760 4.4196
v 1.9821 25.2731 3.3769
v 1.5974 24.8248 4.0456
v 1.9821 25.2731 3.3769
v 0.8427 25.1760 4.4196
vt 0.00000 1.00000
vt 0.00000 1.00000
vt 0.00000 1.00000
vt 0.00000 1.00000
vt 0.00000 1.00000
vt 0.00000 1.00000
vt 0.00000 1.00000
vt 0.00000 1.00000
vt 0.00000 1.00000
vt 0.00000 1.00000
vt 0.00000 1.00000
vt 0.00000 1.00000
vt 0.00000 1.00000
vt 0.00000 1.00000
vt 0.00000 1.00000
vt 0.00000 1.00000
vt 0.00000 1.00000
vt 0.00000 1.00000
vt 0.00000 1.00000
vt 0.00000 1.00000
vt 0.00000 1.00000
vt 0.00000 1.00000
vt 0.00000 1.00000
vt 0.00000 1.00000
vt 0.00000 1.00000
vt 0.00000 1.00000
vt 0.00000 1.00000
vt 0.00000 1.00000
vt 0.00000 1.00000
vt 0.00000 1.00000
vt 0.00000 1.00000
vt 0.00000 1.00000
vt 0.00000 1.00000
vt 0.00000 1.00000
vt 0.00000 1.00000
vt 0.00000 1.00000
vt 0.00000 1.00000
vt 0.00000 1.00000
vt 0.00000 1.00000
vt 0.00000 1.00000
vt 0.00000 1.00000
vt 0.00000 1.00000
vt 0.00000 1.00000
vt 0.00000 1.00000
vt 0.00000 1.00000
vt 0.00000 1.00000
vt 0.00000 1.00000
vt 0.00000 1.00000
vt 0.00000 1.00000
vt 0.00000 1.00000
vt 0.00000 1.00000
vt 0.00000 1.00000
vt 0.00000 1.00000
vt 0.00000 1.00000
vt 0.00000 1.00000
vt 0.00000 1.00000
vt 0.00000 1.00000
vt 0.00000 1.00000
vt 0.00000 1.00000
vt 0.00000 1.00000
vt 0.00000 1.00000
vt 0.00000 1.00000
vt 0.00000 1.00000
vt 0.00000 1.00000
vt 0.00000 1.00000
vt 0.00000 1.00000
vt 0.00000 1.00000
vt 0.00000 1.00000
vt 0.00000 1.00000
vt 0.00000 1.00000
vt 0.00000 1.00000
vt 0.00000 1.00000
vt 0.00000 1.00000
vt 0.00000 1.00000
vt 0.00000 1.00000
vt 0.00000 1.00000
vt 0.00000 1.00000
vt 0.00000 1.00000
vt 0.00000 1.00000
vt 0.00000 1.00000
vt 0.00000 1.00000
vt 0.00000 1.00000
vt 0.00000 1.00000
vt 0.00000 1.00000
vt 0.00000 1.00000
vt 0.00000 1.00000
vt 0.00000 1.00000
vt 0.00000 1.00000
vt 0.00000 1.00000
vt 0.00000 1.00000
usemtl stone
f 1/1 2/2 3/3
f 4/4 5/5 6/6
f 7/7 8/8 9/9
f 10/10 11/11 12/12
f 13/13 14/14 15/15
f 16/16 17/17 18/18
f 19/19 20/20 21/21
f 22/22 23/23 24/24
f 25/25 26/26 27/27
f 28/28 29/29 30/30
f 31/31 32/32 33/33
f 34/34 35/35 36/36
f 37/37 38/38 39/39
f 40/40 41/41 42/42
f 43/43 44/44 45/45
f 46/46 47/47 48/48
f 49/49 50/50 51/51
f 52/52 53/53 54/54
f 55/55 56/56 57/57
f 58/58 59/59 60/60
f 61/61 62/62 63/63
f 64/64 65/65 66/66
f 67/67 68/68 69/69
f 70/70 71/71 72/72
f 73/73 74/74 75/75
f 76/76 77/77 78/78
f 79/79 80/80 81/81
f 82/82 83/83 84/84
f 85/85 86/86 87/87
f 88/88 89/89 90/90
