# Aster authored mesh; metres, Y up
mtllib aster.mtl
v -0.55000 0.00000 -8.52500
v 0.55000 0.00000 -9.57500
v 0.55000 0.00000 -8.52500
v -0.55000 0.00000 -9.57500
v 0.55000 4.00000 -8.52500
v -0.55000 4.00000 -9.57500
v 0.55000 4.00000 -9.57500
v -0.55000 4.00000 -8.52500
v -0.55000 4.01200 -9.60002
v 0.55000 4.01200 -9.60002
v 0.55000 4.01632 -8.52003
v -0.55000 4.01632 -8.52003
v -0.55000 4.57350 -9.65533
v 0.55000 4.77996 -8.59524
v -0.55000 4.77996 -8.59524
v 0.55000 4.57350 -9.65533
v -0.55000 4.59704 -9.66001
v 0.55000 4.59704 -9.66001
v 0.55000 4.81197 -8.60161
v -0.55000 4.81197 -8.60161
v -0.55000 5.13695 -9.82379
v 0.55000 5.13695 -9.82379
v 0.55000 5.54626 -8.82436
v -0.55000 5.54626 -8.82436
v -0.55000 5.15913 -9.83298
v 0.55000 5.15913 -9.83298
v 0.55000 5.57641 -8.83685
v -0.55000 5.65672 -10.09894
v -0.55000 5.57641 -8.83685
v 0.55000 5.65672 -10.09894
v 0.55000 6.25314 -9.19856
v -0.55000 6.25314 -9.19856
v -0.55000 7.38330 -10.31972
v -0.55000 6.89651 -9.72657
v 0.55000 6.89651 -9.72657
v -0.55000 6.12979 -10.48718
v 0.55000 7.38330 -10.31972
v 0.55000 6.12979 -10.48718
v -0.55000 6.48772 -10.92333
v -0.55000 6.50106 -10.94328
v 0.55000 7.40144 -10.34686
v -0.55000 7.40144 -10.34686
v -0.55000 7.76315 -11.02359
v 0.55000 6.48772 -10.92333
v 0.55000 6.50106 -10.94328
v 0.55000 7.76315 -11.02359
v -0.55000 6.76702 -11.44087
v 0.55000 6.76702 -11.44087
v -0.55000 6.77621 -11.46305
v 0.55000 7.77564 -11.05374
v -0.55000 7.77564 -11.05374
v -0.55000 7.99839 -11.78803
v 0.55000 6.77621 -11.46305
v 0.55000 7.99839 -11.78803
v -0.55000 6.93999 -12.00296
v 0.55000 6.93999 -12.00296
v -0.55000 0.00000 -15.62500
v 0.55000 0.00000 -16.67500
v 0.55000 0.00000 -15.62500
v -0.55000 0.00000 -16.67500
v 0.55000 4.00000 -15.62500
v -0.55000 4.00000 -16.67500
v 0.55000 4.00000 -16.67500
v -0.55000 4.00000 -15.62500
v -0.55000 4.59704 -15.53999
v 0.55000 4.81197 -16.59839
v 0.55000 4.59704 -15.53999
v -0.55000 4.81197 -16.59839
v 0.55000 5.13695 -15.37621
v -0.55000 5.13695 -15.37621
v -0.55000 5.54626 -16.37564
v 0.55000 5.54626 -16.37564
v -0.55000 5.15913 -15.36702
v 0.55000 5.57641 -16.36315
v 0.55000 5.15913 -15.36702
v 0.55000 5.65672 -15.10106
v -0.55000 5.57641 -16.36315
v -0.55000 5.65672 -15.10106
v -0.55000 6.25314 -16.00144
v 0.55000 6.25314 -16.00144
v -0.55000 5.67667 -15.08772
v 0.55000 5.67667 -15.08772
v 0.55000 6.11282 -14.72979
v 0.55000 6.28028 -15.98330
v -0.55000 6.11282 -14.72979
v -0.55000 6.28028 -15.98330
v -0.55000 6.87343 -15.49651
v -0.55000 6.99998 -12.61200
v 0.55000 6.99998 -12.61200
v 0.55000 8.07997 -12.61632
v -0.55000 8.07997 -12.61632
v -0.55000 6.94467 -13.17350
v 0.55000 8.00476 -13.37996
v -0.55000 8.00476 -13.37996
v 0.55000 6.94467 -13.17350
v -0.55000 6.93999 -13.19704
v 0.55000 6.93999 -13.19704
v 0.55000 7.99839 -13.41197
v -0.55000 7.99839 -13.41197
v -0.55000 6.77621 -13.73695
v 0.55000 6.77621 -13.73695
v 0.55000 7.77564 -14.14626
v -0.55000 7.77564 -14.14626
v -0.55000 6.76702 -13.75913
v 0.55000 6.76702 -13.75913
v 0.55000 7.76315 -14.17641
v -0.55000 6.50106 -14.25672
v -0.55000 7.76315 -14.17641
v 0.55000 6.50106 -14.25672
v 0.55000 7.40144 -14.85314
v -0.55000 7.40144 -14.85314
v 0.55000 6.87343 -15.49651
v -0.70000 0.00000 -8.37500
v -0.70000 0.36000 -8.37500
v -0.70000 0.36000 -9.72500
v -0.70000 0.00000 -9.72500
v 0.70000 0.00000 -8.37500
v 0.70000 0.00000 -9.72500
v 0.70000 0.36000 -9.72500
v 0.70000 0.36000 -8.37500
v -0.70000 0.00000 -15.47500
v -0.70000 0.36000 -15.47500
v -0.70000 0.36000 -16.82500
v -0.70000 0.00000 -16.82500
v 0.70000 0.00000 -15.47500
v 0.70000 0.00000 -16.82500
v 0.70000 0.36000 -16.82500
v 0.70000 0.36000 -15.47500
v -0.72500 3.72000 -8.35000
v 0.72500 3.72000 -9.75000
v 0.72500 3.72000 -8.35000
v -0.72500 3.72000 -9.75000
v 0.72500 4.00000 -8.35000
v -0.72500 4.00000 -9.75000
v 0.72500 4.00000 -9.75000
v -0.72500 4.00000 -8.35000
v -0.55000 6.11282 -10.47021
v 0.55000 5.67667 -10.11228
v -0.55000 5.67667 -10.11228
v 0.55000 6.28028 -9.21670
v 0.55000 6.11282 -10.47021
v -0.55000 6.28028 -9.21670
v 0.55000 6.87343 -9.70349
v -0.55000 6.87343 -9.70349
v -0.55000 6.99998 -12.58800
v 0.55000 6.94467 -12.02650
v -0.55000 6.94467 -12.02650
v 0.55000 6.99998 -12.58800
v 0.55000 8.00476 -11.82004
v -0.55000 8.00476 -11.82004
v 0.55000 8.07997 -12.58368
v -0.55000 8.07997 -12.58368
v -0.72500 8.09000 -8.50000
v 0.72500 8.09000 -16.70000
v 0.72500 8.09000 -8.50000
v 0.72500 8.43000 -8.50000
v -0.72500 8.43000 -8.50000
v -0.72500 8.43000 -16.70000
v 0.72500 8.43000 -16.70000
v -0.72500 3.72000 -15.45000
v 0.72500 3.72000 -16.85000
v 0.72500 3.72000 -15.45000
v -0.72500 3.72000 -16.85000
v 0.72500 4.00000 -15.45000
v -0.72500 4.00000 -16.85000
v 0.72500 4.00000 -16.85000
v -0.72500 4.00000 -15.45000
v -0.55000 4.01200 -15.59998
v 0.55000 4.01632 -16.67997
v 0.55000 4.01200 -15.59998
v -0.55000 4.01632 -16.67997
v 0.55000 4.57350 -15.54467
v -0.55000 4.77996 -16.60476
v 0.55000 4.77996 -16.60476
v -0.55000 4.57350 -15.54467
v -0.55000 6.12979 -14.71282
v 0.55000 6.12979 -14.71282
v 0.55000 6.48772 -14.27667
v -0.55000 6.48772 -14.27667
v 0.55000 6.89651 -15.47343
v -0.55000 6.89651 -15.47343
v -0.55000 7.38330 -14.88028
v 0.55000 7.38330 -14.88028
v -0.72500 8.09000 -16.70000
v -0.61882 5.93004 -10.30680
v -0.61882 5.93004 -9.05352
v -0.61882 7.18332 -9.05352
v -0.61882 7.18332 -10.30680
v -0.60897 5.73315 -10.69824
v -0.77889 5.58752 -9.70596
v -0.76691 6.59358 -9.55626
v -0.59699 6.73921 -10.54854
v -0.57887 5.36454 -9.02206
v -0.59135 6.34993 -8.76991
v -0.79233 6.59473 -9.73655
v -0.77984 5.60935 -9.98870
v -0.57164 5.42662 -9.12327
v -0.57005 6.41561 -9.36120
v -0.70676 6.18004 -10.34127
v -0.70835 5.19106 -10.10333
v -0.78553 4.92847 -9.55640
v -0.77850 5.94557 -9.56878
v -0.50767 5.93177 -10.54918
v -0.51470 4.91466 -10.53680
v -0.63599 5.36880 -9.50725
v -0.66995 5.55814 -9.60494
v -0.71192 5.55644 -9.72315
v -0.74576 5.36435 -9.81650
v -0.66151 4.98459 -9.57524
v -0.61741 5.25657 -9.45369
v -0.78567 5.24975 -9.92781
v -0.71780 4.98230 -9.73383
v -0.74285 5.65643 -8.97445
v -0.71218 5.84577 -9.07323
v -0.67578 5.84407 -9.19326
v -0.64759 5.65198 -9.28848
v -0.72302 5.27222 -9.04432
v -0.75969 5.54420 -8.92032
v -0.61363 5.53738 -9.40175
v -0.67417 5.26993 -9.20535
v -0.55418 4.55464 -9.27579
v -0.55474 5.37177 -9.37787
v -0.60771 5.26987 -10.19330
v -0.60716 4.45274 -10.09123
v -0.68778 4.57250 -9.88310
v -0.71625 5.34625 -9.60271
v -0.58117 5.62740 -10.36483
v -0.55269 4.85365 -10.64523
v -0.67601 4.66171 -9.85469
v -0.63944 4.85105 -9.95144
v -0.59585 4.84935 -10.06905
v -0.56196 4.65726 -10.16240
v -0.65200 4.27750 -9.92323
v -0.69609 4.54949 -9.80167
v -0.52123 4.54266 -10.27341
v -0.59352 4.27522 -10.08102
v -0.68509 4.79734 -9.69532
v -0.69088 4.98668 -9.79859
v -0.69708 4.98498 -9.92386
v -0.70134 4.79289 -10.02307
v -0.68738 4.41313 -9.76791
v -0.68188 4.68511 -9.63871
v -0.70681 4.67828 -10.14120
v -0.69571 4.41084 -9.93598
v -0.67601 4.42428 -9.75293
v -0.63944 4.61362 -9.84968
v -0.59585 4.61192 -9.96730
v -0.56196 4.41983 -10.06064
v -0.65200 4.04007 -9.82148
v -0.69609 4.31206 -9.69992
v -0.52123 4.30523 -10.17165
v -0.59352 4.03779 -9.97927
v -0.65064 4.08873 -9.93959
v -0.64803 4.23866 -10.00243
v -0.59216 4.03079 -10.08637
v -0.62516 4.24566 -10.07070
v -0.57944 4.15351 -10.16796
v -0.65064 3.98884 -9.71701
v -0.64803 4.15135 -9.71270
v -0.59216 3.99632 -9.87463
v -0.62516 4.18578 -9.77206
v -0.57944 4.14172 -9.89860
v -0.65064 3.88077 -9.79886
v -0.64803 4.01865 -9.88497
v -0.59216 3.80000 -9.93443
v -0.62516 4.01459 -9.95348
v -0.57944 3.90802 -10.03467
v -0.59890 5.49222 -8.73185
v -0.60887 6.30935 -8.83344
v -0.64025 6.20745 -9.65000
v -0.63028 5.39032 -9.54841
v -0.54978 5.59929 -8.75242
v -0.59614 5.78863 -8.84488
v -0.65162 5.78693 -8.95738
v -0.69495 5.59484 -9.04673
v -0.58073 5.21508 -8.81813
v -0.52434 5.48707 -8.70176
v -0.74691 5.48024 -9.15295
v -0.65517 5.21280 -8.96904
v -0.68121 5.73492 -8.85587
v -0.69120 5.92426 -8.95882
v -0.70413 5.92256 -9.08358
v -0.71502 5.73047 -9.18228
v -0.68999 5.35071 -8.92797
v -0.67576 5.62269 -8.79944
v -0.72759 5.61586 -9.29986
v -0.70733 5.34842 -9.09535
v -0.56027 5.36186 -8.85363
v -0.60663 5.55120 -8.94610
v -0.66211 5.54950 -9.05859
v -0.70544 5.35741 -9.14794
v -0.59122 4.97765 -8.91934
v -0.53484 5.24964 -8.80297
v -0.75740 5.24281 -9.25416
v -0.66566 4.97537 -9.07026
v -0.58216 5.02631 -8.76282
v -0.59123 5.17624 -8.82506
v -0.65546 4.96837 -8.90279
v -0.62102 5.18324 -8.89060
v -0.67652 5.09109 -8.98263
v -0.59414 4.92642 -9.03813
v -0.59606 5.08893 -9.03348
v -0.67592 4.93390 -9.18502
v -0.62771 5.12336 -9.08867
v -0.69215 5.07931 -9.20677
v -0.56868 4.81835 -8.87279
v -0.58437 4.95623 -8.95750
v -0.64711 4.73758 -8.99788
v -0.61740 4.95217 -9.02173
v -0.67494 4.84560 -9.09502
v -0.80000 7.60000 -13.50000
v -0.80000 5.43000 -13.50000
v -0.70000 5.27250 -13.27500
v -0.70000 7.60000 -13.27500
v -0.60000 5.11500 -13.05000
v -0.60000 7.60000 -13.05000
v -0.70000 4.95750 -12.82500
v -0.70000 7.60000 -12.82500
v -0.80000 4.80000 -12.60000
v -0.80000 7.60000 -12.60000
v -0.70000 4.95750 -12.37500
v -0.70000 7.60000 -12.37500
v -0.60000 5.11500 -12.15000
v -0.60000 7.60000 -12.15000
v -0.70000 5.27250 -11.92500
v -0.70000 7.60000 -11.92500
v -0.80000 5.43000 -11.70000
v -0.80000 7.60000 -11.70000
v -0.65000 7.60000 -13.70000
v -0.65000 7.70000 -13.70000
v -0.65000 7.70000 -11.50000
v -0.65000 7.60000 -11.50000
v -0.75000 7.60000 -13.70000
v -0.75000 7.60000 -11.50000
v -0.75000 7.70000 -11.50000
v -0.75000 7.70000 -13.70000
v -0.55000 0.00000 -0.12500
v 0.55000 0.00000 -1.17500
v 0.55000 0.00000 -0.12500
v -0.55000 0.00000 -1.17500
v 0.55000 4.00000 -0.12500
v -0.55000 4.00000 -1.17500
v 0.55000 4.00000 -1.17500
v -0.55000 4.00000 -0.12500
v -0.55000 4.01200 -1.20002
v 0.55000 4.01200 -1.20002
v 0.55000 4.01632 -0.12003
v -0.55000 4.01632 -0.12003
v -0.55000 4.57350 -1.25533
v 0.55000 4.77996 -0.19524
v -0.55000 4.77996 -0.19524
v 0.55000 4.57350 -1.25533
v -0.55000 4.59704 -1.26001
v 0.55000 4.59704 -1.26001
v 0.55000 4.81197 -0.20161
v -0.55000 4.81197 -0.20161
v -0.55000 5.13695 -1.42379
v 0.55000 5.13695 -1.42379
v 0.55000 5.54626 -0.42436
v -0.55000 5.54626 -0.42436
v -0.55000 5.15913 -1.43298
v 0.55000 5.15913 -1.43298
v 0.55000 5.57641 -0.43685
v -0.55000 5.65672 -1.69894
v -0.55000 5.57641 -0.43685
v 0.55000 5.65672 -1.69894
v 0.55000 6.25314 -0.79856
v -0.55000 6.25314 -0.79856
v -0.55000 7.38330 -1.91972
v -0.55000 6.89651 -1.32657
v 0.55000 6.89651 -1.32657
v -0.55000 6.12979 -2.08718
v 0.55000 7.38330 -1.91972
v 0.55000 6.12979 -2.08718
v -0.55000 6.48772 -2.52333
v -0.55000 6.50106 -2.54328
v 0.55000 7.40144 -1.94686
v -0.55000 7.40144 -1.94686
v -0.55000 7.76315 -2.62359
v 0.55000 6.48772 -2.52333
v 0.55000 6.50106 -2.54328
v 0.55000 7.76315 -2.62359
v -0.55000 6.76702 -3.04087
v 0.55000 6.76702 -3.04087
v -0.55000 6.77621 -3.06305
v 0.55000 7.77564 -2.65374
v -0.55000 7.77564 -2.65374
v -0.55000 7.99839 -3.38803
v 0.55000 6.77621 -3.06305
v 0.55000 7.99839 -3.38803
v -0.55000 6.93999 -3.60296
v 0.55000 6.93999 -3.60296
v -0.55000 0.00000 -7.22500
v 0.55000 0.00000 -8.27500
v 0.55000 0.00000 -7.22500
v -0.55000 0.00000 -8.27500
v 0.55000 4.00000 -7.22500
v -0.55000 4.00000 -8.27500
v 0.55000 4.00000 -8.27500
v -0.55000 4.00000 -7.22500
v -0.55000 4.59704 -7.13999
v 0.55000 4.81197 -8.19839
v 0.55000 4.59704 -7.13999
v -0.55000 4.81197 -8.19839
v 0.55000 5.13695 -6.97621
v -0.55000 5.13695 -6.97621
v -0.55000 5.54626 -7.97564
v 0.55000 5.54626 -7.97564
v -0.55000 5.15913 -6.96702
v 0.55000 5.57641 -7.96315
v 0.55000 5.15913 -6.96702
v 0.55000 5.65672 -6.70106
v -0.55000 5.57641 -7.96315
v -0.55000 5.65672 -6.70106
v -0.55000 6.25314 -7.60144
v 0.55000 6.25314 -7.60144
v -0.55000 5.67667 -6.68772
v 0.55000 5.67667 -6.68772
v 0.55000 6.11282 -6.32979
v 0.55000 6.28028 -7.58330
v -0.55000 6.11282 -6.32979
v -0.55000 6.28028 -7.58330
v -0.55000 6.87343 -7.09651
v -0.55000 6.99998 -4.21200
v 0.55000 6.99998 -4.21200
v 0.55000 8.07997 -4.21632
v -0.55000 8.07997 -4.21632
v -0.55000 6.94467 -4.77350
v 0.55000 8.00476 -4.97996
v -0.55000 8.00476 -4.97996
v 0.55000 6.94467 -4.77350
v -0.55000 6.93999 -4.79704
v 0.55000 6.93999 -4.79704
v 0.55000 7.99839 -5.01197
v -0.55000 7.99839 -5.01197
v -0.55000 6.77621 -5.33695
v 0.55000 6.77621 -5.33695
v 0.55000 7.77564 -5.74626
v -0.55000 7.77564 -5.74626
v -0.55000 6.76702 -5.35913
v 0.55000 6.76702 -5.35913
v 0.55000 7.76315 -5.77641
v -0.55000 6.50106 -5.85672
v -0.55000 7.76315 -5.77641
v 0.55000 6.50106 -5.85672
v 0.55000 7.40144 -6.45314
v -0.55000 7.40144 -6.45314
v 0.55000 6.87343 -7.09651
v -0.70000 0.00000 0.02500
v -0.70000 0.36000 0.02500
v -0.70000 0.36000 -1.32500
v -0.70000 0.00000 -1.32500
v 0.70000 0.00000 0.02500
v 0.70000 0.00000 -1.32500
v 0.70000 0.36000 -1.32500
v 0.70000 0.36000 0.02500
v -0.70000 0.00000 -7.07500
v -0.70000 0.36000 -7.07500
v -0.70000 0.36000 -8.42500
v -0.70000 0.00000 -8.42500
v 0.70000 0.00000 -7.07500
v 0.70000 0.00000 -8.42500
v 0.70000 0.36000 -8.42500
v 0.70000 0.36000 -7.07500
v -0.72500 3.72000 0.05000
v 0.72500 3.72000 -1.35000
v 0.72500 3.72000 0.05000
v -0.72500 3.72000 -1.35000
v 0.72500 4.00000 0.05000
v -0.72500 4.00000 -1.35000
v 0.72500 4.00000 -1.35000
v -0.72500 4.00000 0.05000
v -0.55000 6.11282 -2.07021
v 0.55000 5.67667 -1.71228
v -0.55000 5.67667 -1.71228
v 0.55000 6.28028 -0.81670
v 0.55000 6.11282 -2.07021
v -0.55000 6.28028 -0.81670
v 0.55000 6.87343 -1.30349
v -0.55000 6.87343 -1.30349
v -0.55000 6.99998 -4.18800
v 0.55000 6.94467 -3.62650
v -0.55000 6.94467 -3.62650
v 0.55000 6.99998 -4.18800
v 0.55000 8.00476 -3.42004
v -0.55000 8.00476 -3.42004
v 0.55000 8.07997 -4.18368
v -0.55000 8.07997 -4.18368
v -0.72500 8.09000 -0.10000
v 0.72500 8.09000 -8.30000
v 0.72500 8.09000 -0.10000
v 0.72500 8.43000 -0.10000
v -0.72500 8.43000 -0.10000
v -0.72500 8.43000 -8.30000
v 0.72500 8.43000 -8.30000
v -0.72500 3.72000 -7.05000
v 0.72500 3.72000 -8.45000
v 0.72500 3.72000 -7.05000
v -0.72500 3.72000 -8.45000
v 0.72500 4.00000 -7.05000
v -0.72500 4.00000 -8.45000
v 0.72500 4.00000 -8.45000
v -0.72500 4.00000 -7.05000
v -0.55000 4.01200 -7.19998
v 0.55000 4.01632 -8.27997
v 0.55000 4.01200 -7.19998
v -0.55000 4.01632 -8.27997
v 0.55000 4.57350 -7.14467
v -0.55000 4.77996 -8.20476
v 0.55000 4.77996 -8.20476
v -0.55000 4.57350 -7.14467
v -0.55000 6.12979 -6.31282
v 0.55000 6.12979 -6.31282
v 0.55000 6.48772 -5.87667
v -0.55000 6.48772 -5.87667
v 0.55000 6.89651 -7.07343
v -0.55000 6.89651 -7.07343
v -0.55000 7.38330 -6.48028
v 0.55000 7.38330 -6.48028
v -0.72500 8.09000 -8.30000
v -0.61882 5.93004 -1.90680
v -0.61882 5.93004 -0.65352
v -0.61882 7.18332 -0.65352
v -0.61882 7.18332 -1.90680
v -0.60897 5.73315 -2.29824
v -0.77889 5.58752 -1.30596
v -0.76691 6.59358 -1.15626
v -0.59699 6.73921 -2.14854
v -0.57887 5.36454 -0.62206
v -0.59135 6.34993 -0.36992
v -0.79233 6.59473 -1.33655
v -0.77984 5.60935 -1.58870
v -0.57164 5.42662 -0.72327
v -0.57005 6.41561 -0.96120
v -0.70676 6.18004 -1.94127
v -0.70835 5.19106 -1.70333
v -0.78553 4.92847 -1.15640
v -0.77850 5.94557 -1.16878
v -0.50767 5.93177 -2.14918
v -0.51470 4.91466 -2.13680
v -0.63599 5.36880 -1.10725
v -0.66995 5.55814 -1.20494
v -0.71192 5.55644 -1.32315
v -0.74576 5.36435 -1.41650
v -0.66151 4.98459 -1.17524
v -0.61741 5.25657 -1.05369
v -0.78567 5.24975 -1.52781
v -0.71780 4.98230 -1.33383
v -0.74285 5.65643 -0.57445
v -0.71218 5.84577 -0.67323
v -0.67578 5.84407 -0.79326
v -0.64759 5.65198 -0.88848
v -0.72302 5.27222 -0.64432
v -0.75969 5.54420 -0.52032
v -0.61363 5.53738 -1.00175
v -0.67417 5.26993 -0.80535
v -0.55418 4.55464 -0.87579
v -0.55474 5.37177 -0.97787
v -0.60771 5.26987 -1.79330
v -0.60716 4.45274 -1.69123
v -0.68778 4.57250 -1.48310
v -0.71625 5.34625 -1.20271
v -0.58117 5.62740 -1.96483
v -0.55269 4.85365 -2.24523
v -0.67601 4.66171 -1.45469
v -0.63944 4.85105 -1.55144
v -0.59585 4.84935 -1.66905
v -0.56196 4.65726 -1.76240
v -0.65200 4.27750 -1.52323
v -0.69609 4.54949 -1.40167
v -0.52123 4.54266 -1.87341
v -0.59352 4.27522 -1.68102
v -0.68509 4.79734 -1.29532
v -0.69088 4.98668 -1.39859
v -0.69708 4.98498 -1.52386
v -0.70134 4.79289 -1.62307
v -0.68738 4.41313 -1.36791
v -0.68188 4.68511 -1.23871
v -0.70681 4.67828 -1.74120
v -0.69571 4.41084 -1.53598
v -0.67601 4.42428 -1.35293
v -0.63944 4.61362 -1.44968
v -0.59585 4.61192 -1.56730
v -0.56196 4.41983 -1.66064
v -0.65200 4.04007 -1.42148
v -0.69609 4.31206 -1.29992
v -0.52123 4.30523 -1.77165
v -0.59352 4.03779 -1.57927
v -0.65064 4.08873 -1.53959
v -0.64803 4.23866 -1.60243
v -0.59216 4.03079 -1.68637
v -0.62516 4.24566 -1.67070
v -0.57944 4.15351 -1.76796
v -0.65064 3.98884 -1.31701
v -0.64803 4.15135 -1.31270
v -0.59216 3.99632 -1.47463
v -0.62516 4.18578 -1.37206
v -0.57944 4.14172 -1.49860
v -0.65064 3.88077 -1.39886
v -0.64803 4.01865 -1.48497
v -0.59216 3.80000 -1.53443
v -0.62516 4.01459 -1.55348
v -0.57944 3.90802 -1.63467
v -0.59890 5.49222 -0.33185
v -0.60887 6.30935 -0.43344
v -0.64025 6.20745 -1.25000
v -0.63028 5.39032 -1.14841
v -0.54978 5.59929 -0.35242
v -0.59614 5.78863 -0.44488
v -0.65162 5.78693 -0.55738
v -0.69495 5.59484 -0.64673
v -0.58073 5.21508 -0.41813
v -0.52434 5.48707 -0.30176
v -0.74691 5.48024 -0.75295
v -0.65517 5.21280 -0.56904
v -0.68121 5.73492 -0.45587
v -0.69120 5.92426 -0.55882
v -0.70413 5.92256 -0.68358
v -0.71502 5.73047 -0.78228
v -0.68999 5.35071 -0.52797
v -0.67576 5.62269 -0.39944
v -0.72759 5.61586 -0.89986
v -0.70733 5.34842 -0.69535
v -0.56027 5.36186 -0.45364
v -0.60663 5.55120 -0.54610
v -0.66211 5.54950 -0.65859
v -0.70544 5.35741 -0.74794
v -0.59122 4.97765 -0.51934
v -0.53484 5.24964 -0.40297
v -0.75740 5.24281 -0.85416
v -0.66566 4.97537 -0.67026
v -0.58216 5.02631 -0.36282
v -0.59123 5.17624 -0.42506
v -0.65546 4.96837 -0.50279
v -0.62102 5.18324 -0.49060
v -0.67652 5.09109 -0.58263
v -0.59414 4.92642 -0.63813
v -0.59606 5.08893 -0.63348
v -0.67592 4.93390 -0.78502
v -0.62771 5.12336 -0.68867
v -0.69215 5.07931 -0.80677
v -0.56868 4.81835 -0.47279
v -0.58437 4.95623 -0.55750
v -0.64711 4.73758 -0.59788
v -0.61740 4.95217 -0.62173
v -0.67494 4.84560 -0.69502
v -0.80000 7.60000 -5.10000
v -0.80000 5.43000 -5.10000
v -0.70000 5.27250 -4.87500
v -0.70000 7.60000 -4.87500
v -0.60000 5.11500 -4.65000
v -0.60000 7.60000 -4.65000
v -0.70000 4.95750 -4.42500
v -0.70000 7.60000 -4.42500
v -0.80000 4.80000 -4.20000
v -0.80000 7.60000 -4.20000
v -0.70000 4.95750 -3.97500
v -0.70000 7.60000 -3.97500
v -0.60000 5.11500 -3.75000
v -0.60000 7.60000 -3.75000
v -0.70000 5.27250 -3.52500
v -0.70000 7.60000 -3.52500
v -0.80000 5.43000 -3.30000
v -0.80000 7.60000 -3.30000
v -0.65000 7.60000 -5.30000
v -0.65000 7.70000 -5.30000
v -0.65000 7.70000 -3.10000
v -0.65000 7.60000 -3.10000
v -0.75000 7.60000 -5.30000
v -0.75000 7.60000 -3.10000
v -0.75000 7.70000 -3.10000
v -0.75000 7.70000 -5.30000
v -0.55000 0.00000 8.27500
v 0.55000 0.00000 7.22500
v 0.55000 0.00000 8.27500
v -0.55000 0.00000 7.22500
v 0.55000 4.00000 8.27500
v -0.55000 4.00000 7.22500
v 0.55000 4.00000 7.22500
v -0.55000 4.00000 8.27500
v -0.55000 4.01200 7.19998
v 0.55000 4.01200 7.19998
v 0.55000 4.01632 8.27997
v -0.55000 4.01632 8.27997
v -0.55000 4.57350 7.14467
v 0.55000 4.77996 8.20476
v -0.55000 4.77996 8.20476
v 0.55000 4.57350 7.14467
v -0.55000 4.59704 7.13999
v 0.55000 4.59704 7.13999
v 0.55000 4.81197 8.19839
v -0.55000 4.81197 8.19839
v -0.55000 5.13695 6.97621
v 0.55000 5.13695 6.97621
v 0.55000 5.54626 7.97564
v -0.55000 5.54626 7.97564
v -0.55000 5.15913 6.96702
v 0.55000 5.15913 6.96702
v 0.55000 5.57641 7.96315
v -0.55000 5.65672 6.70106
v -0.55000 5.57641 7.96315
v 0.55000 5.65672 6.70106
v 0.55000 6.25314 7.60144
v -0.55000 6.25314 7.60144
v -0.55000 7.38330 6.48028
v -0.55000 6.89651 7.07343
v 0.55000 6.89651 7.07343
v -0.55000 6.12979 6.31282
v 0.55000 7.38330 6.48028
v 0.55000 6.12979 6.31282
v -0.55000 6.48772 5.87667
v -0.55000 6.50106 5.85672
v 0.55000 7.40144 6.45314
v -0.55000 7.40144 6.45314
v -0.55000 7.76315 5.77641
v 0.55000 6.48772 5.87667
v 0.55000 6.50106 5.85672
v 0.55000 7.76315 5.77641
v -0.55000 6.76702 5.35913
v 0.55000 6.76702 5.35913
v -0.55000 6.77621 5.33695
v 0.55000 7.77564 5.74626
v -0.55000 7.77564 5.74626
v -0.55000 7.99839 5.01197
v 0.55000 6.77621 5.33695
v 0.55000 7.99839 5.01197
v -0.55000 6.93999 4.79704
v 0.55000 6.93999 4.79704
v -0.55000 0.00000 1.17500
v 0.55000 0.00000 0.12500
v 0.55000 0.00000 1.17500
v -0.55000 0.00000 0.12500
v 0.55000 4.00000 1.17500
v -0.55000 4.00000 0.12500
v 0.55000 4.00000 0.12500
v -0.55000 4.00000 1.17500
v -0.55000 4.59704 1.26001
v 0.55000 4.81197 0.20161
v 0.55000 4.59704 1.26001
v -0.55000 4.81197 0.20161
v 0.55000 5.13695 1.42379
v -0.55000 5.13695 1.42379
v -0.55000 5.54626 0.42436
v 0.55000 5.54626 0.42436
v -0.55000 5.15913 1.43298
v 0.55000 5.57641 0.43685
v 0.55000 5.15913 1.43298
v 0.55000 5.65672 1.69894
v -0.55000 5.57641 0.43685
v -0.55000 5.65672 1.69894
v -0.55000 6.25314 0.79856
v 0.55000 6.25314 0.79856
v -0.55000 5.67667 1.71228
v 0.55000 5.67667 1.71228
v 0.55000 6.11282 2.07021
v 0.55000 6.28028 0.81670
v -0.55000 6.11282 2.07021
v -0.55000 6.28028 0.81670
v -0.55000 6.87343 1.30349
v -0.55000 6.99998 4.18800
v 0.55000 6.99998 4.18800
v 0.55000 8.07997 4.18368
v -0.55000 8.07997 4.18368
v -0.55000 6.94467 3.62650
v 0.55000 8.00476 3.42004
v -0.55000 8.00476 3.42004
v 0.55000 6.94467 3.62650
v -0.55000 6.93999 3.60296
v 0.55000 6.93999 3.60296
v 0.55000 7.99839 3.38803
v -0.55000 7.99839 3.38803
v -0.55000 6.77621 3.06305
v 0.55000 6.77621 3.06305
v 0.55000 7.77564 2.65374
v -0.55000 7.77564 2.65374
v -0.55000 6.76702 3.04087
v 0.55000 6.76702 3.04087
v 0.55000 7.76315 2.62359
v -0.55000 6.50106 2.54328
v -0.55000 7.76315 2.62359
v 0.55000 6.50106 2.54328
v 0.55000 7.40144 1.94686
v -0.55000 7.40144 1.94686
v 0.55000 6.87343 1.30349
v -0.70000 0.00000 8.42500
v -0.70000 0.36000 8.42500
v -0.70000 0.36000 7.07500
v -0.70000 0.00000 7.07500
v 0.70000 0.00000 8.42500
v 0.70000 0.00000 7.07500
v 0.70000 0.36000 7.07500
v 0.70000 0.36000 8.42500
v -0.70000 0.00000 1.32500
v -0.70000 0.36000 1.32500
v -0.70000 0.36000 -0.02500
v -0.70000 0.00000 -0.02500
v 0.70000 0.00000 1.32500
v 0.70000 0.00000 -0.02500
v 0.70000 0.36000 -0.02500
v 0.70000 0.36000 1.32500
v -0.72500 3.72000 8.45000
v 0.72500 3.72000 7.05000
v 0.72500 3.72000 8.45000
v -0.72500 3.72000 7.05000
v 0.72500 4.00000 8.45000
v -0.72500 4.00000 7.05000
v 0.72500 4.00000 7.05000
v -0.72500 4.00000 8.45000
v -0.55000 6.11282 6.32979
v 0.55000 5.67667 6.68772
v -0.55000 5.67667 6.68772
v 0.55000 6.28028 7.58330
v 0.55000 6.11282 6.32979
v -0.55000 6.28028 7.58330
v 0.55000 6.87343 7.09651
v -0.55000 6.87343 7.09651
v -0.55000 6.99998 4.21200
v 0.55000 6.94467 4.77350
v -0.55000 6.94467 4.77350
v 0.55000 6.99998 4.21200
v 0.55000 8.00476 4.97996
v -0.55000 8.00476 4.97996
v 0.55000 8.07997 4.21632
v -0.55000 8.07997 4.21632
v -0.72500 8.09000 8.30000
v 0.72500 8.09000 0.10000
v 0.72500 8.09000 8.30000
v 0.72500 8.43000 8.30000
v -0.72500 8.43000 8.30000
v -0.72500 8.43000 0.10000
v 0.72500 8.43000 0.10000
v -0.72500 3.72000 1.35000
v 0.72500 3.72000 -0.05000
v 0.72500 3.72000 1.35000
v -0.72500 3.72000 -0.05000
v 0.72500 4.00000 1.35000
v -0.72500 4.00000 -0.05000
v 0.72500 4.00000 -0.05000
v -0.72500 4.00000 1.35000
v -0.55000 4.01200 1.20002
v 0.55000 4.01632 0.12003
v 0.55000 4.01200 1.20002
v -0.55000 4.01632 0.12003
v 0.55000 4.57350 1.25533
v -0.55000 4.77996 0.19524
v 0.55000 4.77996 0.19524
v -0.55000 4.57350 1.25533
v -0.55000 6.12979 2.08718
v 0.55000 6.12979 2.08718
v 0.55000 6.48772 2.52333
v -0.55000 6.48772 2.52333
v 0.55000 6.89651 1.32657
v -0.55000 6.89651 1.32657
v -0.55000 7.38330 1.91972
v 0.55000 7.38330 1.91972
v -0.72500 8.09000 0.10000
v -0.61882 5.93004 6.49320
v -0.61882 5.93004 7.74648
v -0.61882 7.18332 7.74648
v -0.61882 7.18332 6.49320
v -0.60897 5.73315 6.10176
v -0.77889 5.58752 7.09404
v -0.76691 6.59358 7.24374
v -0.59699 6.73921 6.25146
v -0.57887 5.36454 7.77794
v -0.59135 6.34993 8.03008
v -0.79233 6.59473 7.06345
v -0.77984 5.60935 6.81130
v -0.57164 5.42662 7.67673
v -0.57005 6.41561 7.43880
v -0.70676 6.18004 6.45873
v -0.70835 5.19106 6.69667
v -0.78553 4.92847 7.24360
v -0.77850 5.94557 7.23122
v -0.50767 5.93177 6.25082
v -0.51470 4.91466 6.26320
v -0.63599 5.36880 7.29275
v -0.66995 5.55814 7.19506
v -0.71192 5.55644 7.07685
v -0.74576 5.36435 6.98350
v -0.66151 4.98459 7.22476
v -0.61741 5.25657 7.34631
v -0.78567 5.24975 6.87219
v -0.71780 4.98230 7.06617
v -0.74285 5.65643 7.82555
v -0.71218 5.84577 7.72677
v -0.67578 5.84407 7.60674
v -0.64759 5.65198 7.51152
v -0.72302 5.27222 7.75568
v -0.75969 5.54420 7.87968
v -0.61363 5.53738 7.39825
v -0.67417 5.26993 7.59465
v -0.55418 4.55464 7.52421
v -0.55474 5.37177 7.42213
v -0.60771 5.26987 6.60670
v -0.60716 4.45274 6.70877
v -0.68778 4.57250 6.91690
v -0.71625 5.34625 7.19729
v -0.58117 5.62740 6.43517
v -0.55269 4.85365 6.15477
v -0.67601 4.66171 6.94531
v -0.63944 4.85105 6.84856
v -0.59585 4.84935 6.73095
v -0.56196 4.65726 6.63760
v -0.65200 4.27750 6.87677
v -0.69609 4.54949 6.99833
v -0.52123 4.54266 6.52659
v -0.59352 4.27522 6.71898
v -0.68509 4.79734 7.10468
v -0.69088 4.98668 7.00141
v -0.69708 4.98498 6.87614
v -0.70134 4.79289 6.77693
v -0.68738 4.41313 7.03209
v -0.68188 4.68511 7.16129
v -0.70681 4.67828 6.65880
v -0.69571 4.41084 6.86402
v -0.67601 4.42428 7.04707
v -0.63944 4.61362 6.95032
v -0.59585 4.61192 6.83270
v -0.56196 4.41983 6.73936
v -0.65200 4.04007 6.97852
v -0.69609 4.31206 7.10008
v -0.52123 4.30523 6.62835
v -0.59352 4.03779 6.82073
v -0.65064 4.08873 6.86041
v -0.64803 4.23866 6.79757
v -0.59216 4.03079 6.71363
v -0.62516 4.24566 6.72930
v -0.57944 4.15351 6.63204
v -0.65064 3.98884 7.08299
v -0.64803 4.15135 7.08730
v -0.59216 3.99632 6.92537
v -0.62516 4.18578 7.02794
v -0.57944 4.14172 6.90140
v -0.65064 3.88077 7.00114
v -0.64803 4.01865 6.91503
v -0.59216 3.80000 6.86557
v -0.62516 4.01459 6.84652
v -0.57944 3.90802 6.76533
v -0.59890 5.49222 8.06815
v -0.60887 6.30935 7.96656
v -0.64025 6.20745 7.15000
v -0.63028 5.39032 7.25159
v -0.54978 5.59929 8.04758
v -0.59614 5.78863 7.95512
v -0.65162 5.78693 7.84262
v -0.69495 5.59484 7.75327
v -0.58073 5.21508 7.98187
v -0.52434 5.48707 8.09824
v -0.74691 5.48024 7.64705
v -0.65517 5.21280 7.83096
v -0.68121 5.73492 7.94413
v -0.69120 5.92426 7.84118
v -0.70413 5.92256 7.71642
v -0.71502 5.73047 7.61772
v -0.68999 5.35071 7.87203
v -0.67576 5.62269 8.00056
v -0.72759 5.61586 7.50014
v -0.70733 5.34842 7.70465
v -0.56027 5.36186 7.94637
v -0.60663 5.55120 7.85390
v -0.66211 5.54950 7.74141
v -0.70544 5.35741 7.65206
v -0.59122 4.97765 7.88066
v -0.53484 5.24964 7.99703
v -0.75740 5.24281 7.54584
v -0.66566 4.97537 7.72974
v -0.58216 5.02631 8.03718
v -0.59123 5.17624 7.97494
v -0.65546 4.96837 7.89721
v -0.62102 5.18324 7.90940
v -0.67652 5.09109 7.81737
v -0.59414 4.92642 7.76187
v -0.59606 5.08893 7.76652
v -0.67592 4.93390 7.61498
v -0.62771 5.12336 7.71133
v -0.69215 5.07931 7.59323
v -0.56868 4.81835 7.92721
v -0.58437 4.95623 7.84250
v -0.64711 4.73758 7.80212
v -0.61740 4.95217 7.77827
v -0.67494 4.84560 7.70498
v -0.80000 7.60000 3.30000
v -0.80000 5.43000 3.30000
v -0.70000 5.27250 3.52500
v -0.70000 7.60000 3.52500
v -0.60000 5.11500 3.75000
v -0.60000 7.60000 3.75000
v -0.70000 4.95750 3.97500
v -0.70000 7.60000 3.97500
v -0.80000 4.80000 4.20000
v -0.80000 7.60000 4.20000
v -0.70000 4.95750 4.42500
v -0.70000 7.60000 4.42500
v -0.60000 5.11500 4.65000
v -0.60000 7.60000 4.65000
v -0.70000 5.27250 4.87500
v -0.70000 7.60000 4.87500
v -0.80000 5.43000 5.10000
v -0.80000 7.60000 5.10000
v -0.65000 7.60000 3.10000
v -0.65000 7.70000 3.10000
v -0.65000 7.70000 5.30000
v -0.65000 7.60000 5.30000
v -0.75000 7.60000 3.10000
v -0.75000 7.60000 5.30000
v -0.75000 7.70000 5.30000
v -0.75000 7.70000 3.10000
v -0.55000 0.00000 16.67500
v 0.55000 0.00000 15.62500
v 0.55000 0.00000 16.67500
v -0.55000 0.00000 15.62500
v 0.55000 4.00000 16.67500
v -0.55000 4.00000 15.62500
v 0.55000 4.00000 15.62500
v -0.55000 4.00000 16.67500
v -0.55000 4.01200 15.59998
v 0.55000 4.01200 15.59998
v 0.55000 4.01632 16.67997
v -0.55000 4.01632 16.67997
v -0.55000 4.57350 15.54467
v 0.55000 4.77996 16.60476
v -0.55000 4.77996 16.60476
v 0.55000 4.57350 15.54467
v -0.55000 4.59704 15.53999
v 0.55000 4.59704 15.53999
v 0.55000 4.81197 16.59839
v -0.55000 4.81197 16.59839
v -0.55000 5.13695 15.37621
v 0.55000 5.13695 15.37621
v 0.55000 5.54626 16.37564
v -0.55000 5.54626 16.37564
v -0.55000 5.15913 15.36702
v 0.55000 5.15913 15.36702
v 0.55000 5.57641 16.36315
v -0.55000 5.65672 15.10106
v -0.55000 5.57641 16.36315
v 0.55000 5.65672 15.10106
v 0.55000 6.25314 16.00144
v -0.55000 6.25314 16.00144
v -0.55000 7.38330 14.88028
v -0.55000 6.89651 15.47343
v 0.55000 6.89651 15.47343
v -0.55000 6.12979 14.71282
v 0.55000 7.38330 14.88028
v 0.55000 6.12979 14.71282
v -0.55000 6.48772 14.27667
v -0.55000 6.50106 14.25672
v 0.55000 7.40144 14.85314
v -0.55000 7.40144 14.85314
v -0.55000 7.76315 14.17641
v 0.55000 6.48772 14.27667
v 0.55000 6.50106 14.25672
v 0.55000 7.76315 14.17641
v -0.55000 6.76702 13.75913
v 0.55000 6.76702 13.75913
v -0.55000 6.77621 13.73695
v 0.55000 7.77564 14.14626
v -0.55000 7.77564 14.14626
v -0.55000 7.99839 13.41197
v 0.55000 6.77621 13.73695
v 0.55000 7.99839 13.41197
v -0.55000 6.93999 13.19704
v 0.55000 6.93999 13.19704
v -0.55000 0.00000 9.57500
v 0.55000 0.00000 8.52500
v 0.55000 0.00000 9.57500
v -0.55000 0.00000 8.52500
v 0.55000 4.00000 9.57500
v -0.55000 4.00000 8.52500
v 0.55000 4.00000 8.52500
v -0.55000 4.00000 9.57500
v -0.55000 4.59704 9.66001
v 0.55000 4.81197 8.60161
v 0.55000 4.59704 9.66001
v -0.55000 4.81197 8.60161
v 0.55000 5.13695 9.82379
v -0.55000 5.13695 9.82379
v -0.55000 5.54626 8.82436
v 0.55000 5.54626 8.82436
v -0.55000 5.15913 9.83298
v 0.55000 5.57641 8.83685
v 0.55000 5.15913 9.83298
v 0.55000 5.65672 10.09894
v -0.55000 5.57641 8.83685
v -0.55000 5.65672 10.09894
v -0.55000 6.25314 9.19856
v 0.55000 6.25314 9.19856
v -0.55000 5.67667 10.11228
v 0.55000 5.67667 10.11228
v 0.55000 6.11282 10.47021
v 0.55000 6.28028 9.21670
v -0.55000 6.11282 10.47021
v -0.55000 6.28028 9.21670
v -0.55000 6.87343 9.70349
v -0.55000 6.99998 12.58800
v 0.55000 6.99998 12.58800
v 0.55000 8.07997 12.58368
v -0.55000 8.07997 12.58368
v -0.55000 6.94467 12.02650
v 0.55000 8.00476 11.82004
v -0.55000 8.00476 11.82004
v 0.55000 6.94467 12.02650
v -0.55000 6.93999 12.00296
v 0.55000 6.93999 12.00296
v 0.55000 7.99839 11.78803
v -0.55000 7.99839 11.78803
v -0.55000 6.77621 11.46305
v 0.55000 6.77621 11.46305
v 0.55000 7.77564 11.05374
v -0.55000 7.77564 11.05374
v -0.55000 6.76702 11.44087
v 0.55000 6.76702 11.44087
v 0.55000 7.76315 11.02359
v -0.55000 6.50106 10.94328
v -0.55000 7.76315 11.02359
v 0.55000 6.50106 10.94328
v 0.55000 7.40144 10.34686
v -0.55000 7.40144 10.34686
v 0.55000 6.87343 9.70349
v -0.70000 0.00000 16.82500
v -0.70000 0.36000 16.82500
v -0.70000 0.36000 15.47500
v -0.70000 0.00000 15.47500
v 0.70000 0.00000 16.82500
v 0.70000 0.00000 15.47500
v 0.70000 0.36000 15.47500
v 0.70000 0.36000 16.82500
v -0.70000 0.00000 9.72500
v -0.70000 0.36000 9.72500
v -0.70000 0.36000 8.37500
v -0.70000 0.00000 8.37500
v 0.70000 0.00000 9.72500
v 0.70000 0.00000 8.37500
v 0.70000 0.36000 8.37500
v 0.70000 0.36000 9.72500
v -0.72500 3.72000 16.85000
v 0.72500 3.72000 15.45000
v 0.72500 3.72000 16.85000
v -0.72500 3.72000 15.45000
v 0.72500 4.00000 16.85000
v -0.72500 4.00000 15.45000
v 0.72500 4.00000 15.45000
v -0.72500 4.00000 16.85000
v -0.55000 6.11282 14.72979
v 0.55000 5.67667 15.08772
v -0.55000 5.67667 15.08772
v 0.55000 6.28028 15.98330
v 0.55000 6.11282 14.72979
v -0.55000 6.28028 15.98330
v 0.55000 6.87343 15.49651
v -0.55000 6.87343 15.49651
v -0.55000 6.99998 12.61200
v 0.55000 6.94467 13.17350
v -0.55000 6.94467 13.17350
v 0.55000 6.99998 12.61200
v 0.55000 8.00476 13.37996
v -0.55000 8.00476 13.37996
v 0.55000 8.07997 12.61632
v -0.55000 8.07997 12.61632
v -0.72500 8.09000 16.70000
v 0.72500 8.09000 8.50000
v 0.72500 8.09000 16.70000
v 0.72500 8.43000 16.70000
v -0.72500 8.43000 16.70000
v -0.72500 8.43000 8.50000
v 0.72500 8.43000 8.50000
v -0.72500 3.72000 9.75000
v 0.72500 3.72000 8.35000
v 0.72500 3.72000 9.75000
v -0.72500 3.72000 8.35000
v 0.72500 4.00000 9.75000
v -0.72500 4.00000 8.35000
v 0.72500 4.00000 8.35000
v -0.72500 4.00000 9.75000
v -0.55000 4.01200 9.60002
v 0.55000 4.01632 8.52003
v 0.55000 4.01200 9.60002
v -0.55000 4.01632 8.52003
v 0.55000 4.57350 9.65533
v -0.55000 4.77996 8.59524
v 0.55000 4.77996 8.59524
v -0.55000 4.57350 9.65533
v -0.55000 6.12979 10.48718
v 0.55000 6.12979 10.48718
v 0.55000 6.48772 10.92333
v -0.55000 6.48772 10.92333
v 0.55000 6.89651 9.72657
v -0.55000 6.89651 9.72657
v -0.55000 7.38330 10.31972
v 0.55000 7.38330 10.31972
v -0.72500 8.09000 8.50000
v -0.61882 5.93004 14.89320
v -0.61882 5.93004 16.14648
v -0.61882 7.18332 16.14648
v -0.61882 7.18332 14.89320
v -0.60897 5.73315 14.50176
v -0.77889 5.58752 15.49404
v -0.76691 6.59358 15.64374
v -0.59699 6.73921 14.65146
v -0.57887 5.36454 16.17794
v -0.59135 6.34993 16.43008
v -0.79233 6.59473 15.46345
v -0.77984 5.60935 15.21130
v -0.57164 5.42662 16.07673
v -0.57005 6.41561 15.83880
v -0.70676 6.18004 14.85873
v -0.70835 5.19106 15.09667
v -0.78553 4.92847 15.64360
v -0.77850 5.94557 15.63122
v -0.50767 5.93177 14.65082
v -0.51470 4.91466 14.66320
v -0.63599 5.36880 15.69275
v -0.66995 5.55814 15.59506
v -0.71192 5.55644 15.47685
v -0.74576 5.36435 15.38350
v -0.66151 4.98459 15.62476
v -0.61741 5.25657 15.74631
v -0.78567 5.24975 15.27219
v -0.71780 4.98230 15.46617
v -0.74285 5.65643 16.22555
v -0.71218 5.84577 16.12677
v -0.67578 5.84407 16.00674
v -0.64759 5.65198 15.91152
v -0.72302 5.27222 16.15568
v -0.75969 5.54420 16.27968
v -0.61363 5.53738 15.79825
v -0.67417 5.26993 15.99465
v -0.55418 4.55464 15.92421
v -0.55474 5.37177 15.82213
v -0.60771 5.26987 15.00670
v -0.60716 4.45274 15.10877
v -0.68778 4.57250 15.31690
v -0.71625 5.34625 15.59729
v -0.58117 5.62740 14.83517
v -0.55269 4.85365 14.55477
v -0.67601 4.66171 15.34531
v -0.63944 4.85105 15.24856
v -0.59585 4.84935 15.13095
v -0.56196 4.65726 15.03760
v -0.65200 4.27750 15.27677
v -0.69609 4.54949 15.39833
v -0.52123 4.54266 14.92659
v -0.59352 4.27522 15.11898
v -0.68509 4.79734 15.50468
v -0.69088 4.98668 15.40141
v -0.69708 4.98498 15.27614
v -0.70134 4.79289 15.17693
v -0.68738 4.41313 15.43209
v -0.68188 4.68511 15.56129
v -0.70681 4.67828 15.05880
v -0.69571 4.41084 15.26402
v -0.67601 4.42428 15.44707
v -0.63944 4.61362 15.35032
v -0.59585 4.61192 15.23270
v -0.56196 4.41983 15.13936
v -0.65200 4.04007 15.37852
v -0.69609 4.31206 15.50008
v -0.52123 4.30523 15.02835
v -0.59352 4.03779 15.22073
v -0.65064 4.08873 15.26041
v -0.64803 4.23866 15.19757
v -0.59216 4.03079 15.11363
v -0.62516 4.24566 15.12930
v -0.57944 4.15351 15.03204
v -0.65064 3.98884 15.48299
v -0.64803 4.15135 15.48730
v -0.59216 3.99632 15.32537
v -0.62516 4.18578 15.42794
v -0.57944 4.14172 15.30140
v -0.65064 3.88077 15.40114
v -0.64803 4.01865 15.31503
v -0.59216 3.80000 15.26557
v -0.62516 4.01459 15.24652
v -0.57944 3.90802 15.16533
v -0.59890 5.49222 16.46815
v -0.60887 6.30935 16.36656
v -0.64025 6.20745 15.55000
v -0.63028 5.39032 15.65159
v -0.54978 5.59929 16.44758
v -0.59614 5.78863 16.35512
v -0.65162 5.78693 16.24262
v -0.69495 5.59484 16.15327
v -0.58073 5.21508 16.38187
v -0.52434 5.48707 16.49824
v -0.74691 5.48024 16.04705
v -0.65517 5.21280 16.23096
v -0.68121 5.73492 16.34413
v -0.69120 5.92426 16.24118
v -0.70413 5.92256 16.11642
v -0.71502 5.73047 16.01772
v -0.68999 5.35071 16.27203
v -0.67576 5.62269 16.40056
v -0.72759 5.61586 15.90014
v -0.70733 5.34842 16.10465
v -0.56027 5.36186 16.34636
v -0.60663 5.55120 16.25390
v -0.66211 5.54950 16.14141
v -0.70544 5.35741 16.05206
v -0.59122 4.97765 16.28066
v -0.53484 5.24964 16.39703
v -0.75740 5.24281 15.94584
v -0.66566 4.97537 16.12974
v -0.58216 5.02631 16.43718
v -0.59123 5.17624 16.37494
v -0.65546 4.96837 16.29721
v -0.62102 5.18324 16.30940
v -0.67652 5.09109 16.21737
v -0.59414 4.92642 16.16187
v -0.59606 5.08893 16.16652
v -0.67592 4.93390 16.01498
v -0.62771 5.12336 16.11133
v -0.69215 5.07931 15.99323
v -0.56868 4.81835 16.32721
v -0.58437 4.95623 16.24250
v -0.64711 4.73758 16.20212
v -0.61740 4.95217 16.17827
v -0.67494 4.84560 16.10498
v -0.80000 7.60000 11.70000
v -0.80000 5.43000 11.70000
v -0.70000 5.27250 11.92500
v -0.70000 7.60000 11.92500
v -0.60000 5.11500 12.15000
v -0.60000 7.60000 12.15000
v -0.70000 4.95750 12.37500
v -0.70000 7.60000 12.37500
v -0.80000 4.80000 12.60000
v -0.80000 7.60000 12.60000
v -0.70000 4.95750 12.82500
v -0.70000 7.60000 12.82500
v -0.60000 5.11500 13.05000
v -0.60000 7.60000 13.05000
v -0.70000 5.27250 13.27500
v -0.70000 7.60000 13.27500
v -0.80000 5.43000 13.50000
v -0.80000 7.60000 13.50000
v -0.65000 7.60000 11.50000
v -0.65000 7.70000 11.50000
v -0.65000 7.70000 13.70000
v -0.65000 7.60000 13.70000
v -0.75000 7.60000 11.50000
v -0.75000 7.60000 13.70000
v -0.75000 7.70000 13.70000
v -0.75000 7.70000 11.50000
v -0.80000 -0.27000 -17.00000
v -0.80000 0.03000 -17.00000
v 0.00000 0.03000 -17.00000
v 0.00000 -0.27000 -17.00000
v -0.80000 -0.27000 17.00000
v 0.00000 -0.27000 17.00000
v 0.00000 0.03000 17.00000
v -0.80000 0.03000 17.00000
vt 0.00000 0.00000
vt 0.52500 0.55000
vt 0.00000 0.55000
vt 0.52500 0.00000
vt 0.55000 0.00000
vt 0.55000 2.00000
vt 2.00000 0.52500
vt 0.00000 0.52500
vt 0.52500 2.00000
vt 2.00000 0.55000
vt 0.00000 2.00000
vt 2.00000 0.00000
vt 0.55000 0.52500
vt 0.55000 0.54000
vt 0.00000 0.54000
vt 0.55000 0.28211
vt 0.00000 0.28211
vt 0.28211 0.00000
vt 0.28211 0.54000
vt 0.38367 0.00000
vt 0.38367 0.54000
vt 0.38367 0.55000
vt 0.54000 0.55000
vt 0.54000 0.00000
vt 0.18000 0.00000
vt 0.18000 0.67500
vt 0.00000 0.67500
vt 0.67500 0.00000
vt 0.67500 0.18000
vt 0.00000 0.18000
vt 0.70000 0.00000
vt 0.70000 0.18000
vt 0.18000 0.70000
vt 0.00000 0.70000
vt 0.70000 0.67500
vt 0.67500 0.70000
vt 1.00000 0.00000
vt 1.00000 1.00000
vt 0.00000 1.00000
vt 0.50487 0.78917
vt 0.61627 1.00000
vt 0.75494 1.00000
vt 0.86760 0.78917
vt 0.59087 0.36557
vt 0.44394 0.66427
vt 1.00000 0.66427
vt 0.77688 0.36557
vt 0.59513 0.54524
vt 0.66709 0.58015
vt 0.81373 0.52487
vt 0.15000 0.00000
vt 0.15000 0.40000
vt 0.00000 0.40000
vt 0.40000 0.00000
vt 0.40000 0.15000
vt 0.00000 0.15000
vt 17.00000 0.00000
vt 17.00000 0.15000
vt 0.15000 17.00000
vt 0.00000 17.00000
vt 17.00000 0.40000
vt 0.40000 17.00000
usemtl limestone
f 57/1 60/4 58/2
f 57/1 58/2 59/3
f 60/1 63/10 58/3
f 57/1 62/7 60/8
f 59/1 58/4 63/9
f 57/1 59/5 61/6
f 60/1 62/12 63/10
f 57/1 64/12 62/7
f 59/1 63/9 61/11
f 57/1 61/6 64/11
f 64/1 63/13 62/8
f 64/1 61/5 63/13
f 65/1 66/23 67/3
f 65/1 68/24 66/23
f 65/1 67/5 69/16
f 66/1 69/21 67/15
f 65/1 69/16 70/17
f 65/1 71/19 68/15
f 68/1 72/22 66/3
f 65/1 70/18 71/19
f 66/1 72/20 69/21
f 70/1 69/5 72/14
f 73/1 74/23 75/3
f 68/1 71/20 72/22
f 73/1 75/5 76/16
f 70/1 72/14 71/15
f 73/1 77/24 74/23
f 74/1 76/21 75/15
f 73/1 76/16 78/17
f 73/1 79/19 77/15
f 73/1 78/18 79/19
f 77/1 80/22 74/3
f 81/1 82/5 83/16
f 74/1 80/20 76/21
f 78/1 76/5 80/14
f 81/1 84/23 82/3
f 81/1 83/16 85/17
f 84/1 83/21 82/15
f 77/1 79/20 80/22
f 78/1 80/14 79/15
f 81/1 86/24 84/23
f 81/1 85/18 87/19
f 86/1 112/22 84/3
f 86/1 87/20 112/22
f 81/1 87/19 86/15
f 84/1 112/20 83/21
f 85/1 112/14 87/15
f 85/1 83/5 112/14
f 107/1 111/24 110/23
f 111/1 106/22 110/3
f 107/1 110/23 109/3
f 107/1 108/19 111/15
f 111/1 108/20 106/22
f 110/1 105/21 109/15
f 110/1 106/20 105/21
f 107/1 109/5 105/16
f 107/1 104/18 108/19
f 104/1 106/14 108/15
f 100/1 103/24 102/23
f 107/1 105/16 104/17
f 103/1 98/22 102/3
f 104/1 105/5 106/14
f 100/1 102/23 101/3
f 100/1 99/19 103/15
f 102/1 97/21 101/15
f 103/1 99/20 98/22
f 102/1 98/20 97/21
f 100/1 101/5 97/16
f 100/1 96/18 99/19
f 100/1 97/16 96/17
f 96/1 98/14 99/15
f 92/1 94/24 93/23
f 96/1 97/5 98/14
f 92/1 93/23 95/3
f 94/1 90/22 93/3
f 92/1 91/19 94/15
f 93/1 89/21 95/15
f 92/1 95/5 89/16
f 94/1 91/20 90/22
f 93/1 90/20 89/21
f 92/1 88/18 91/19
f 92/1 89/16 88/17
f 88/1 90/14 91/15
f 88/1 89/5 90/14
f 1/1 4/4 2/2
f 1/1 2/2 3/3
f 4/1 7/10 2/3
f 1/1 6/7 4/8
f 3/1 2/4 7/9
f 1/1 3/5 5/6
f 4/1 6/12 7/10
f 1/1 8/12 6/7
f 3/1 7/9 5/11
f 1/1 5/6 8/11
f 8/1 7/13 6/8
f 8/1 5/5 7/13
f 9/1 10/5 11/14
f 9/1 11/14 12/15
f 13/1 10/16 9/17
f 13/1 9/18 12/19
f 14/1 11/20 10/21
f 15/1 12/20 11/22
f 13/1 16/5 10/16
f 14/1 10/21 16/15
f 13/1 12/19 15/15
f 15/1 11/22 14/3
f 13/1 14/23 16/3
f 17/1 18/5 19/14
f 13/1 15/24 14/23
f 17/1 19/14 20/15
f 21/1 18/16 17/17
f 21/1 17/18 20/19
f 21/1 22/5 18/16
f 23/1 19/20 18/21
f 24/1 20/20 19/22
f 23/1 18/21 22/15
f 21/1 20/19 24/15
f 21/1 23/23 22/3
f 25/1 26/5 27/14
f 24/1 19/22 23/3
f 28/1 26/16 25/17
f 21/1 24/24 23/23
f 25/1 27/14 29/15
f 28/1 25/18 29/19
f 28/1 30/5 26/16
f 31/1 27/20 26/21
f 55/1 54/23 56/3
f 55/1 52/24 54/23
f 55/1 56/5 53/16
f 54/1 53/21 56/15
f 55/1 53/16 49/17
f 55/1 51/19 52/15
f 52/1 50/22 54/3
f 55/1 49/18 51/19
f 54/1 50/20 53/21
f 49/1 53/5 50/14
f 47/1 46/23 48/3
f 52/1 51/20 50/22
f 47/1 48/5 45/16
f 49/1 50/14 51/15
f 47/1 43/24 46/23
f 46/1 45/21 48/15
f 47/1 45/16 40/17
f 47/1 42/19 43/15
f 47/1 40/18 42/19
f 43/1 41/22 46/3
f 39/1 44/5 38/16
f 46/1 41/20 45/21
f 40/1 45/5 41/14
f 39/1 37/23 44/3
f 39/1 38/16 36/17
f 37/1 38/21 44/15
f 43/1 42/20 41/22
f 40/1 41/14 42/15
f 39/1 33/24 37/23
f 39/1 36/18 34/19
f 39/1 34/19 33/15
f 36/1 38/5 35/14
f 37/1 35/20 38/21
f 33/1 35/22 37/3
f 36/1 35/14 34/15
f 33/1 34/20 35/22
f 28/1 31/23 30/3
f 31/1 26/21 30/15
f 28/1 32/24 31/23
f 28/1 29/19 32/15
f 32/1 27/22 31/3
f 32/1 29/20 27/22
f 393/1 396/4 394/2
f 393/1 394/2 395/3
f 396/1 399/10 394/3
f 393/1 398/7 396/8
f 395/1 394/4 399/9
f 393/1 395/5 397/6
f 396/1 398/12 399/10
f 393/1 400/12 398/7
f 395/1 399/9 397/11
f 393/1 397/6 400/11
f 400/1 399/13 398/8
f 400/1 397/5 399/13
f 401/1 402/23 403/3
f 401/1 404/24 402/23
f 401/1 403/5 405/16
f 402/1 405/21 403/15
f 401/1 405/16 406/17
f 401/1 407/19 404/15
f 404/1 408/22 402/3
f 401/1 406/18 407/19
f 402/1 408/20 405/21
f 406/1 405/5 408/14
f 409/1 410/23 411/3
f 404/1 407/20 408/22
f 409/1 411/5 412/16
f 406/1 408/14 407/15
f 409/1 413/24 410/23
f 410/1 412/21 411/15
f 409/1 412/16 414/17
f 409/1 415/19 413/15
f 409/1 414/18 415/19
f 413/1 416/22 410/3
f 417/1 418/5 419/16
f 410/1 416/20 412/21
f 414/1 412/5 416/14
f 417/1 420/23 418/3
f 417/1 419/16 421/17
f 420/1 419/21 418/15
f 413/1 415/20 416/22
f 414/1 416/14 415/15
f 417/1 422/24 420/23
f 417/1 421/18 423/19
f 422/1 448/22 420/3
f 422/1 423/20 448/22
f 417/1 423/19 422/15
f 420/1 448/20 419/21
f 421/1 448/14 423/15
f 421/1 419/5 448/14
f 443/1 447/24 446/23
f 447/1 442/22 446/3
f 443/1 446/23 445/3
f 443/1 444/19 447/15
f 447/1 444/20 442/22
f 446/1 441/21 445/15
f 446/1 442/20 441/21
f 443/1 445/5 441/16
f 443/1 440/18 444/19
f 440/1 442/14 444/15
f 436/1 439/24 438/23
f 443/1 441/16 440/17
f 439/1 434/22 438/3
f 440/1 441/5 442/14
f 436/1 438/23 437/3
f 436/1 435/19 439/15
f 438/1 433/21 437/15
f 439/1 435/20 434/22
f 438/1 434/20 433/21
f 436/1 437/5 433/16
f 436/1 432/18 435/19
f 436/1 433/16 432/17
f 432/1 434/14 435/15
f 428/1 430/24 429/23
f 432/1 433/5 434/14
f 428/1 429/23 431/3
f 430/1 426/22 429/3
f 428/1 427/19 430/15
f 429/1 425/21 431/15
f 428/1 431/5 425/16
f 430/1 427/20 426/22
f 429/1 426/20 425/21
f 428/1 424/18 427/19
f 428/1 425/16 424/17
f 424/1 426/14 427/15
f 424/1 425/5 426/14
f 337/1 340/4 338/2
f 337/1 338/2 339/3
f 340/1 343/10 338/3
f 337/1 342/7 340/8
f 339/1 338/4 343/9
f 337/1 339/5 341/6
f 340/1 342/12 343/10
f 337/1 344/12 342/7
f 339/1 343/9 341/11
f 337/1 341/6 344/11
f 344/1 343/13 342/8
f 344/1 341/5 343/13
f 345/1 346/5 347/14
f 345/1 347/14 348/15
f 349/1 346/16 345/17
f 349/1 345/18 348/19
f 350/1 347/20 346/21
f 351/1 348/20 347/22
f 349/1 352/5 346/16
f 350/1 346/21 352/15
f 349/1 348/19 351/15
f 351/1 347/22 350/3
f 349/1 350/23 352/3
f 353/1 354/5 355/14
f 349/1 351/24 350/23
f 353/1 355/14 356/15
f 357/1 354/16 353/17
f 357/1 353/18 356/19
f 357/1 358/5 354/16
f 359/1 355/20 354/21
f 360/1 356/20 355/22
f 359/1 354/21 358/15
f 357/1 356/19 360/15
f 357/1 359/23 358/3
f 361/1 362/5 363/14
f 360/1 355/22 359/3
f 364/1 362/16 361/17
f 357/1 360/24 359/23
f 361/1 363/14 365/15
f 364/1 361/18 365/19
f 364/1 366/5 362/16
f 367/1 363/20 362/21
f 391/1 390/23 392/3
f 391/1 388/24 390/23
f 391/1 392/5 389/16
f 390/1 389/21 392/15
f 391/1 389/16 385/17
f 391/1 387/19 388/15
f 388/1 386/22 390/3
f 391/1 385/18 387/19
f 390/1 386/20 389/21
f 385/1 389/5 386/14
f 383/1 382/23 384/3
f 388/1 387/20 386/22
f 383/1 384/5 381/16
f 385/1 386/14 387/15
f 383/1 379/24 382/23
f 382/1 381/21 384/15
f 383/1 381/16 376/17
f 383/1 378/19 379/15
f 383/1 376/18 378/19
f 379/1 377/22 382/3
f 375/1 380/5 374/16
f 382/1 377/20 381/21
f 376/1 381/5 377/14
f 375/1 373/23 380/3
f 375/1 374/16 372/17
f 373/1 374/21 380/15
f 379/1 378/20 377/22
f 376/1 377/14 378/15
f 375/1 369/24 373/23
f 375/1 372/18 370/19
f 375/1 370/19 369/15
f 372/1 374/5 371/14
f 373/1 371/20 374/21
f 369/1 371/22 373/3
f 372/1 371/14 370/15
f 369/1 370/20 371/22
f 364/1 367/23 366/3
f 367/1 362/21 366/15
f 364/1 368/24 367/23
f 364/1 365/19 368/15
f 368/1 363/22 367/3
f 368/1 365/20 363/22
f 729/1 732/4 730/2
f 729/1 730/2 731/3
f 732/1 735/10 730/3
f 729/1 734/7 732/8
f 731/1 730/4 735/9
f 729/1 731/5 733/6
f 732/1 734/12 735/10
f 729/1 736/12 734/7
f 731/1 735/9 733/11
f 729/1 733/6 736/11
f 736/1 735/13 734/8
f 736/1 733/5 735/13
f 737/1 738/23 739/3
f 737/1 740/24 738/23
f 737/1 739/5 741/16
f 738/1 741/21 739/15
f 737/1 741/16 742/17
f 737/1 743/19 740/15
f 740/1 744/22 738/3
f 737/1 742/18 743/19
f 738/1 744/20 741/21
f 742/1 741/5 744/14
f 745/1 746/23 747/3
f 740/1 743/20 744/22
f 745/1 747/5 748/16
f 742/1 744/14 743/15
f 745/1 749/24 746/23
f 746/1 748/21 747/15
f 745/1 748/16 750/17
f 745/1 751/19 749/15
f 745/1 750/18 751/19
f 749/1 752/22 746/3
f 753/1 754/5 755/16
f 746/1 752/20 748/21
f 750/1 748/5 752/14
f 753/1 756/23 754/3
f 753/1 755/16 757/17
f 756/1 755/21 754/15
f 749/1 751/20 752/22
f 750/1 752/14 751/15
f 753/1 758/24 756/23
f 753/1 757/18 759/19
f 758/1 784/22 756/3
f 758/1 759/20 784/22
f 753/1 759/19 758/15
f 756/1 784/20 755/21
f 757/1 784/14 759/15
f 757/1 755/5 784/14
f 779/1 783/24 782/23
f 783/1 778/22 782/3
f 779/1 782/23 781/3
f 779/1 780/19 783/15
f 783/1 780/20 778/22
f 782/1 777/21 781/15
f 782/1 778/20 777/21
f 779/1 781/5 777/16
f 779/1 776/18 780/19
f 776/1 778/14 780/15
f 772/1 775/24 774/23
f 779/1 777/16 776/17
f 775/1 770/22 774/3
f 776/1 777/5 778/14
f 772/1 774/23 773/3
f 772/1 771/19 775/15
f 774/1 769/21 773/15
f 775/1 771/20 770/22
f 774/1 770/20 769/21
f 772/1 773/5 769/16
f 772/1 768/18 771/19
f 772/1 769/16 768/17
f 768/1 770/14 771/15
f 764/1 766/24 765/23
f 768/1 769/5 770/14
f 764/1 765/23 767/3
f 766/1 762/22 765/3
f 764/1 763/19 766/15
f 765/1 761/21 767/15
f 764/1 767/5 761/16
f 766/1 763/20 762/22
f 765/1 762/20 761/21
f 764/1 760/18 763/19
f 764/1 761/16 760/17
f 760/1 762/14 763/15
f 760/1 761/5 762/14
f 673/1 676/4 674/2
f 673/1 674/2 675/3
f 676/1 679/10 674/3
f 673/1 678/7 676/8
f 675/1 674/4 679/9
f 673/1 675/5 677/6
f 676/1 678/12 679/10
f 673/1 680/12 678/7
f 675/1 679/9 677/11
f 673/1 677/6 680/11
f 680/1 679/13 678/8
f 680/1 677/5 679/13
f 681/1 682/5 683/14
f 681/1 683/14 684/15
f 685/1 682/16 681/17
f 685/1 681/18 684/19
f 686/1 683/20 682/21
f 687/1 684/20 683/22
f 685/1 688/5 682/16
f 686/1 682/21 688/15
f 685/1 684/19 687/15
f 687/1 683/22 686/3
f 685/1 686/23 688/3
f 689/1 690/5 691/14
f 685/1 687/24 686/23
f 689/1 691/14 692/15
f 693/1 690/16 689/17
f 693/1 689/18 692/19
f 693/1 694/5 690/16
f 695/1 691/20 690/21
f 696/1 692/20 691/22
f 695/1 690/21 694/15
f 693/1 692/19 696/15
f 693/1 695/23 694/3
f 697/1 698/5 699/14
f 696/1 691/22 695/3
f 700/1 698/16 697/17
f 693/1 696/24 695/23
f 697/1 699/14 701/15
f 700/1 697/18 701/19
f 700/1 702/5 698/16
f 703/1 699/20 698/21
f 727/1 726/23 728/3
f 727/1 724/24 726/23
f 727/1 728/5 725/16
f 726/1 725/21 728/15
f 727/1 725/16 721/17
f 727/1 723/19 724/15
f 724/1 722/22 726/3
f 727/1 721/18 723/19
f 726/1 722/20 725/21
f 721/1 725/5 722/14
f 719/1 718/23 720/3
f 724/1 723/20 722/22
f 719/1 720/5 717/16
f 721/1 722/14 723/15
f 719/1 715/24 718/23
f 718/1 717/21 720/15
f 719/1 717/16 712/17
f 719/1 714/19 715/15
f 719/1 712/18 714/19
f 715/1 713/22 718/3
f 711/1 716/5 710/16
f 718/1 713/20 717/21
f 712/1 717/5 713/14
f 711/1 709/23 716/3
f 711/1 710/16 708/17
f 709/1 710/21 716/15
f 715/1 714/20 713/22
f 712/1 713/14 714/15
f 711/1 705/24 709/23
f 711/1 708/18 706/19
f 711/1 706/19 705/15
f 708/1 710/5 707/14
f 709/1 707/20 710/21
f 705/1 707/22 709/3
f 708/1 707/14 706/15
f 705/1 706/20 707/22
f 700/1 703/23 702/3
f 703/1 698/21 702/15
f 700/1 704/24 703/23
f 700/1 701/19 704/15
f 704/1 699/22 703/3
f 704/1 701/20 699/22
f 1065/1 1068/4 1066/2
f 1065/1 1066/2 1067/3
f 1068/1 1071/10 1066/3
f 1065/1 1070/7 1068/8
f 1067/1 1066/4 1071/9
f 1065/1 1067/5 1069/6
f 1068/1 1070/12 1071/10
f 1065/1 1072/12 1070/7
f 1067/1 1071/9 1069/11
f 1065/1 1069/6 1072/11
f 1072/1 1071/13 1070/8
f 1072/1 1069/5 1071/13
f 1073/1 1074/23 1075/3
f 1073/1 1076/24 1074/23
f 1073/1 1075/5 1077/16
f 1074/1 1077/21 1075/15
f 1073/1 1077/16 1078/17
f 1073/1 1079/19 1076/15
f 1076/1 1080/22 1074/3
f 1073/1 1078/18 1079/19
f 1074/1 1080/20 1077/21
f 1078/1 1077/5 1080/14
f 1081/1 1082/23 1083/3
f 1076/1 1079/20 1080/22
f 1081/1 1083/5 1084/16
f 1078/1 1080/14 1079/15
f 1081/1 1085/24 1082/23
f 1082/1 1084/21 1083/15
f 1081/1 1084/16 1086/17
f 1081/1 1087/19 1085/15
f 1081/1 1086/18 1087/19
f 1085/1 1088/22 1082/3
f 1089/1 1090/5 1091/16
f 1082/1 1088/20 1084/21
f 1086/1 1084/5 1088/14
f 1089/1 1092/23 1090/3
f 1089/1 1091/16 1093/17
f 1092/1 1091/21 1090/15
f 1085/1 1087/20 1088/22
f 1086/1 1088/14 1087/15
f 1089/1 1094/24 1092/23
f 1089/1 1093/18 1095/19
f 1094/1 1120/22 1092/3
f 1094/1 1095/20 1120/22
f 1089/1 1095/19 1094/15
f 1092/1 1120/20 1091/21
f 1093/1 1120/14 1095/15
f 1093/1 1091/5 1120/14
f 1115/1 1119/24 1118/23
f 1119/1 1114/22 1118/3
f 1115/1 1118/23 1117/3
f 1115/1 1116/19 1119/15
f 1119/1 1116/20 1114/22
f 1118/1 1113/21 1117/15
f 1118/1 1114/20 1113/21
f 1115/1 1117/5 1113/16
f 1115/1 1112/18 1116/19
f 1112/1 1114/14 1116/15
f 1108/1 1111/24 1110/23
f 1115/1 1113/16 1112/17
f 1111/1 1106/22 1110/3
f 1112/1 1113/5 1114/14
f 1108/1 1110/23 1109/3
f 1108/1 1107/19 1111/15
f 1110/1 1105/21 1109/15
f 1111/1 1107/20 1106/22
f 1110/1 1106/20 1105/21
f 1108/1 1109/5 1105/16
f 1108/1 1104/18 1107/19
f 1108/1 1105/16 1104/17
f 1104/1 1106/14 1107/15
f 1100/1 1102/24 1101/23
f 1104/1 1105/5 1106/14
f 1100/1 1101/23 1103/3
f 1102/1 1098/22 1101/3
f 1100/1 1099/19 1102/15
f 1101/1 1097/21 1103/15
f 1100/1 1103/5 1097/16
f 1102/1 1099/20 1098/22
f 1101/1 1098/20 1097/21
f 1100/1 1096/18 1099/19
f 1100/1 1097/16 1096/17
f 1096/1 1098/14 1099/15
f 1096/1 1097/5 1098/14
f 1009/1 1012/4 1010/2
f 1009/1 1010/2 1011/3
f 1012/1 1015/10 1010/3
f 1009/1 1014/7 1012/8
f 1011/1 1010/4 1015/9
f 1009/1 1011/5 1013/6
f 1012/1 1014/12 1015/10
f 1009/1 1016/12 1014/7
f 1011/1 1015/9 1013/11
f 1009/1 1013/6 1016/11
f 1016/1 1015/13 1014/8
f 1016/1 1013/5 1015/13
f 1017/1 1018/5 1019/14
f 1017/1 1019/14 1020/15
f 1021/1 1018/16 1017/17
f 1021/1 1017/18 1020/19
f 1022/1 1019/20 1018/21
f 1023/1 1020/20 1019/22
f 1021/1 1024/5 1018/16
f 1022/1 1018/21 1024/15
f 1021/1 1020/19 1023/15
f 1023/1 1019/22 1022/3
f 1021/1 1022/23 1024/3
f 1025/1 1026/5 1027/14
f 1021/1 1023/24 1022/23
f 1025/1 1027/14 1028/15
f 1029/1 1026/16 1025/17
f 1029/1 1025/18 1028/19
f 1029/1 1030/5 1026/16
f 1031/1 1027/20 1026/21
f 1032/1 1028/20 1027/22
f 1031/1 1026/21 1030/15
f 1029/1 1028/19 1032/15
f 1029/1 1031/23 1030/3
f 1033/1 1034/5 1035/14
f 1032/1 1027/22 1031/3
f 1036/1 1034/16 1033/17
f 1029/1 1032/24 1031/23
f 1033/1 1035/14 1037/15
f 1036/1 1033/18 1037/19
f 1036/1 1038/5 1034/16
f 1039/1 1035/20 1034/21
f 1063/1 1062/23 1064/3
f 1063/1 1060/24 1062/23
f 1063/1 1064/5 1061/16
f 1062/1 1061/21 1064/15
f 1063/1 1061/16 1057/17
f 1063/1 1059/19 1060/15
f 1060/1 1058/22 1062/3
f 1063/1 1057/18 1059/19
f 1062/1 1058/20 1061/21
f 1057/1 1061/5 1058/14
f 1055/1 1054/23 1056/3
f 1060/1 1059/20 1058/22
f 1055/1 1056/5 1053/16
f 1057/1 1058/14 1059/15
f 1055/1 1051/24 1054/23
f 1054/1 1053/21 1056/15
f 1055/1 1053/16 1048/17
f 1055/1 1050/19 1051/15
f 1055/1 1048/18 1050/19
f 1051/1 1049/22 1054/3
f 1047/1 1052/5 1046/16
f 1054/1 1049/20 1053/21
f 1048/1 1053/5 1049/14
f 1047/1 1045/23 1052/3
f 1047/1 1046/16 1044/17
f 1045/1 1046/21 1052/15
f 1051/1 1050/20 1049/22
f 1048/1 1049/14 1050/15
f 1047/1 1041/24 1045/23
f 1047/1 1044/18 1042/19
f 1047/1 1042/19 1041/15
f 1044/1 1046/5 1043/14
f 1045/1 1043/20 1046/21
f 1041/1 1043/22 1045/3
f 1044/1 1043/14 1042/15
f 1041/1 1042/20 1043/22
f 1036/1 1039/23 1038/3
f 1039/1 1034/21 1038/15
f 1036/1 1040/24 1039/23
f 1036/1 1037/19 1040/15
f 1040/1 1035/22 1039/3
f 1040/1 1037/20 1035/22
usemtl shadowstone
f 124/1 123/25 127/33
f 124/1 127/33 126/34
f 121/1 123/26 124/27
f 125/1 126/28 127/29
f 122/1 127/35 123/27
f 121/1 124/28 126/36
f 121/1 122/25 123/26
f 125/1 127/29 128/30
f 122/1 128/31 127/35
f 121/1 126/36 125/34
f 121/1 125/31 128/32
f 121/1 128/32 122/30
f 116/1 115/25 119/33
f 116/1 119/33 118/34
f 113/1 115/26 116/27
f 117/1 118/28 119/29
f 114/1 119/35 115/27
f 113/1 116/28 118/36
f 113/1 114/25 115/26
f 117/1 119/29 120/30
f 114/1 120/31 119/35
f 113/1 118/36 117/34
f 460/1 459/25 463/33
f 460/1 463/33 462/34
f 113/1 117/31 120/32
f 113/1 120/32 114/30
f 457/1 459/26 460/27
f 461/1 462/28 463/29
f 458/1 463/35 459/27
f 457/1 460/28 462/36
f 457/1 458/25 459/26
f 461/1 463/29 464/30
f 458/1 464/31 463/35
f 457/1 462/36 461/34
f 457/1 461/31 464/32
f 457/1 464/32 458/30
f 452/1 451/25 455/33
f 452/1 455/33 454/34
f 449/1 451/26 452/27
f 453/1 454/28 455/29
f 450/1 455/35 451/27
f 449/1 452/28 454/36
f 449/1 450/25 451/26
f 453/1 455/29 456/30
f 450/1 456/31 455/35
f 449/1 454/36 453/34
f 796/1 795/25 799/33
f 796/1 799/33 798/34
f 449/1 453/31 456/32
f 449/1 456/32 450/30
f 793/1 795/26 796/27
f 797/1 798/28 799/29
f 794/1 799/35 795/27
f 793/1 796/28 798/36
f 793/1 794/25 795/26
f 797/1 799/29 800/30
f 794/1 800/31 799/35
f 793/1 798/36 797/34
f 793/1 797/31 800/32
f 793/1 800/32 794/30
f 788/1 787/25 791/33
f 788/1 791/33 790/34
f 785/1 787/26 788/27
f 789/1 790/28 791/29
f 786/1 791/35 787/27
f 785/1 788/28 790/36
f 785/1 786/25 787/26
f 789/1 791/29 792/30
f 786/1 792/31 791/35
f 785/1 790/36 789/34
f 1132/1 1131/25 1135/33
f 1132/1 1135/33 1134/34
f 785/1 789/31 792/32
f 785/1 792/32 786/30
f 1129/1 1131/26 1132/27
f 1133/1 1134/28 1135/29
f 1130/1 1135/35 1131/27
f 1129/1 1132/28 1134/36
f 1129/1 1130/25 1131/26
f 1133/1 1135/29 1136/30
f 1130/1 1136/31 1135/35
f 1129/1 1134/36 1133/34
f 1129/1 1133/31 1136/32
f 1129/1 1136/32 1130/30
f 1124/1 1123/25 1127/33
f 1124/1 1127/33 1126/34
f 1121/1 1123/26 1124/27
f 1125/1 1126/28 1127/29
f 1122/1 1127/35 1123/27
f 1121/1 1124/28 1126/36
f 1121/1 1122/25 1123/26
f 1125/1 1127/29 1128/30
f 1122/1 1128/31 1127/35
f 1121/1 1126/36 1125/34
f 1121/1 1125/31 1128/32
f 1121/1 1128/32 1122/30
usemtl ivory
f 160/1 163/1 161/1
f 160/1 161/1 162/1
f 163/1 166/1 161/1
f 160/1 165/1 163/1
f 162/1 161/1 166/1
f 160/1 162/1 164/1
f 163/1 165/1 166/1
f 160/1 167/1 165/1
f 162/1 166/1 164/1
f 160/1 164/1 167/1
f 167/1 166/1 165/1
f 167/1 164/1 166/1
f 168/1 169/1 170/1
f 168/1 171/1 169/1
f 168/1 170/1 172/1
f 169/1 172/1 170/1
f 168/1 173/1 171/1
f 171/1 174/1 169/1
f 168/1 172/1 175/1
f 168/1 175/1 173/1
f 169/1 174/1 172/1
f 171/1 173/1 174/1
f 175/1 172/1 174/1
f 175/1 174/1 173/1
f 176/1 177/1 178/1
f 176/1 178/1 179/1
f 176/1 180/1 177/1
f 180/1 178/1 177/1
f 176/1 181/1 180/1
f 176/1 179/1 182/1
f 179/1 178/1 183/1
f 176/1 182/1 181/1
f 180/1 183/1 178/1
f 181/1 183/1 180/1
f 179/1 183/1 182/1
f 181/1 182/1 183/1
f 153/1 184/1 154/1
f 184/1 159/1 154/1
f 153/1 158/1 184/1
f 155/1 154/1 159/1
f 184/1 158/1 159/1
f 157/1 159/1 158/1
f 129/1 132/1 130/1
f 129/1 130/1 131/1
f 132/1 135/1 130/1
f 129/1 134/1 132/1
f 131/1 130/1 135/1
f 499/1 502/1 497/1
f 132/1 134/1 135/1
f 129/1 136/1 134/1
f 131/1 135/1 133/1
f 499/1 501/1 502/1
f 136/1 135/1 134/1
f 136/1 133/1 135/1
f 137/1 138/1 139/1
f 139/1 138/1 140/1
f 137/1 141/1 138/1
f 137/1 139/1 142/1
f 139/1 140/1 142/1
f 143/1 138/1 141/1
f 143/1 140/1 138/1
f 137/1 143/1 141/1
f 137/1 142/1 144/1
f 144/1 142/1 140/1
f 137/1 144/1 143/1
f 144/1 140/1 143/1
f 145/1 146/1 147/1
f 145/1 148/1 146/1
f 147/1 146/1 149/1
f 145/1 147/1 150/1
f 151/1 146/1 148/1
f 145/1 151/1 148/1
f 147/1 149/1 150/1
f 151/1 149/1 146/1
f 145/1 150/1 152/1
f 145/1 152/1 151/1
f 152/1 150/1 149/1
f 152/1 149/1 151/1
f 153/1 154/1 155/1
f 153/1 155/1 156/1
f 153/1 157/1 158/1
f 155/1 159/1 156/1
f 153/1 156/1 157/1
f 157/1 156/1 159/1
f 496/1 499/1 497/1
f 496/1 497/1 498/1
f 129/1 131/1 133/1
f 496/1 501/1 499/1
f 498/1 497/1 502/1
f 496/1 498/1 500/1
f 129/1 133/1 136/1
f 496/1 503/1 501/1
f 498/1 502/1 500/1
f 496/1 500/1 503/1
f 503/1 502/1 501/1
f 503/1 500/1 502/1
f 504/1 505/1 506/1
f 504/1 507/1 505/1
f 504/1 506/1 508/1
f 505/1 508/1 506/1
f 504/1 509/1 507/1
f 507/1 510/1 505/1
f 504/1 508/1 511/1
f 504/1 511/1 509/1
f 505/1 510/1 508/1
f 507/1 509/1 510/1
f 511/1 508/1 510/1
f 511/1 510/1 509/1
f 512/1 513/1 514/1
f 512/1 514/1 515/1
f 512/1 516/1 513/1
f 516/1 514/1 513/1
f 512/1 517/1 516/1
f 512/1 515/1 518/1
f 515/1 514/1 519/1
f 512/1 518/1 517/1
f 516/1 519/1 514/1
f 517/1 519/1 516/1
f 515/1 519/1 518/1
f 517/1 518/1 519/1
f 489/1 520/1 490/1
f 520/1 495/1 490/1
f 489/1 494/1 520/1
f 491/1 490/1 495/1
f 520/1 494/1 495/1
f 493/1 495/1 494/1
f 465/1 468/1 466/1
f 465/1 466/1 467/1
f 468/1 471/1 466/1
f 465/1 470/1 468/1
f 467/1 466/1 471/1
f 835/1 838/1 833/1
f 468/1 470/1 471/1
f 465/1 472/1 470/1
f 467/1 471/1 469/1
f 835/1 837/1 838/1
f 472/1 471/1 470/1
f 472/1 469/1 471/1
f 473/1 474/1 475/1
f 475/1 474/1 476/1
f 473/1 477/1 474/1
f 473/1 475/1 478/1
f 475/1 476/1 478/1
f 479/1 474/1 477/1
f 479/1 476/1 474/1
f 473/1 479/1 477/1
f 473/1 478/1 480/1
f 480/1 478/1 476/1
f 473/1 480/1 479/1
f 480/1 476/1 479/1
f 481/1 482/1 483/1
f 481/1 484/1 482/1
f 483/1 482/1 485/1
f 481/1 483/1 486/1
f 487/1 482/1 484/1
f 481/1 487/1 484/1
f 483/1 485/1 486/1
f 487/1 485/1 482/1
f 481/1 486/1 488/1
f 481/1 488/1 487/1
f 488/1 486/1 485/1
f 488/1 485/1 487/1
f 489/1 490/1 491/1
f 489/1 491/1 492/1
f 489/1 493/1 494/1
f 491/1 495/1 492/1
f 489/1 492/1 493/1
f 493/1 492/1 495/1
f 832/1 835/1 833/1
f 832/1 833/1 834/1
f 465/1 467/1 469/1
f 832/1 837/1 835/1
f 834/1 833/1 838/1
f 832/1 834/1 836/1
f 465/1 469/1 472/1
f 832/1 839/1 837/1
f 834/1 838/1 836/1
f 832/1 836/1 839/1
f 839/1 838/1 837/1
f 839/1 836/1 838/1
f 840/1 841/1 842/1
f 840/1 843/1 841/1
f 840/1 842/1 844/1
f 841/1 844/1 842/1
f 840/1 845/1 843/1
f 843/1 846/1 841/1
f 840/1 844/1 847/1
f 840/1 847/1 845/1
f 841/1 846/1 844/1
f 843/1 845/1 846/1
f 847/1 844/1 846/1
f 847/1 846/1 845/1
f 848/1 849/1 850/1
f 848/1 850/1 851/1
f 848/1 852/1 849/1
f 852/1 850/1 849/1
f 848/1 853/1 852/1
f 848/1 851/1 854/1
f 851/1 850/1 855/1
f 848/1 854/1 853/1
f 852/1 855/1 850/1
f 853/1 855/1 852/1
f 851/1 855/1 854/1
f 853/1 854/1 855/1
f 825/1 856/1 826/1
f 856/1 831/1 826/1
f 825/1 830/1 856/1
f 827/1 826/1 831/1
f 856/1 830/1 831/1
f 829/1 831/1 830/1
f 801/1 804/1 802/1
f 801/1 802/1 803/1
f 804/1 807/1 802/1
f 801/1 806/1 804/1
f 803/1 802/1 807/1
f 1171/1 1174/1 1169/1
f 804/1 806/1 807/1
f 801/1 808/1 806/1
f 803/1 807/1 805/1
f 1171/1 1173/1 1174/1
f 808/1 807/1 806/1
f 808/1 805/1 807/1
f 809/1 810/1 811/1
f 811/1 810/1 812/1
f 809/1 813/1 810/1
f 809/1 811/1 814/1
f 811/1 812/1 814/1
f 815/1 810/1 813/1
f 815/1 812/1 810/1
f 809/1 815/1 813/1
f 809/1 814/1 816/1
f 816/1 814/1 812/1
f 809/1 816/1 815/1
f 816/1 812/1 815/1
f 817/1 818/1 819/1
f 817/1 820/1 818/1
f 819/1 818/1 821/1
f 817/1 819/1 822/1
f 823/1 818/1 820/1
f 817/1 823/1 820/1
f 819/1 821/1 822/1
f 823/1 821/1 818/1
f 817/1 822/1 824/1
f 817/1 824/1 823/1
f 824/1 822/1 821/1
f 824/1 821/1 823/1
f 825/1 826/1 827/1
f 825/1 827/1 828/1
f 825/1 829/1 830/1
f 827/1 831/1 828/1
f 825/1 828/1 829/1
f 829/1 828/1 831/1
f 1168/1 1171/1 1169/1
f 1168/1 1169/1 1170/1
f 801/1 803/1 805/1
f 1168/1 1173/1 1171/1
f 1170/1 1169/1 1174/1
f 1168/1 1170/1 1172/1
f 801/1 805/1 808/1
f 1168/1 1175/1 1173/1
f 1170/1 1174/1 1172/1
f 1168/1 1172/1 1175/1
f 1175/1 1174/1 1173/1
f 1175/1 1172/1 1174/1
f 1176/1 1177/1 1178/1
f 1176/1 1179/1 1177/1
f 1176/1 1178/1 1180/1
f 1177/1 1180/1 1178/1
f 1176/1 1181/1 1179/1
f 1179/1 1182/1 1177/1
f 1176/1 1180/1 1183/1
f 1176/1 1183/1 1181/1
f 1177/1 1182/1 1180/1
f 1179/1 1181/1 1182/1
f 1183/1 1180/1 1182/1
f 1183/1 1182/1 1181/1
f 1184/1 1185/1 1186/1
f 1184/1 1186/1 1187/1
f 1184/1 1188/1 1185/1
f 1188/1 1186/1 1185/1
f 1184/1 1189/1 1188/1
f 1184/1 1187/1 1190/1
f 1187/1 1186/1 1191/1
f 1184/1 1190/1 1189/1
f 1188/1 1191/1 1186/1
f 1189/1 1191/1 1188/1
f 1187/1 1191/1 1190/1
f 1189/1 1190/1 1191/1
f 1161/1 1192/1 1162/1
f 1192/1 1167/1 1162/1
f 1161/1 1166/1 1192/1
f 1163/1 1162/1 1167/1
f 1192/1 1166/1 1167/1
f 1165/1 1167/1 1166/1
f 1137/1 1140/1 1138/1
f 1137/1 1138/1 1139/1
f 1140/1 1143/1 1138/1
f 1137/1 1142/1 1140/1
f 1139/1 1138/1 1143/1
f 1137/1 1139/1 1141/1
f 1140/1 1142/1 1143/1
f 1137/1 1144/1 1142/1
f 1139/1 1143/1 1141/1
f 1137/1 1141/1 1144/1
f 1144/1 1143/1 1142/1
f 1144/1 1141/1 1143/1
f 1145/1 1146/1 1147/1
f 1147/1 1146/1 1148/1
f 1145/1 1149/1 1146/1
f 1145/1 1147/1 1150/1
f 1147/1 1148/1 1150/1
f 1151/1 1146/1 1149/1
f 1151/1 1148/1 1146/1
f 1145/1 1151/1 1149/1
f 1145/1 1150/1 1152/1
f 1152/1 1150/1 1148/1
f 1145/1 1152/1 1151/1
f 1152/1 1148/1 1151/1
f 1153/1 1154/1 1155/1
f 1153/1 1156/1 1154/1
f 1155/1 1154/1 1157/1
f 1153/1 1155/1 1158/1
f 1159/1 1154/1 1156/1
f 1153/1 1159/1 1156/1
f 1155/1 1157/1 1158/1
f 1159/1 1157/1 1154/1
f 1153/1 1158/1 1160/1
f 1153/1 1160/1 1159/1
f 1160/1 1158/1 1157/1
f 1160/1 1157/1 1159/1
f 1161/1 1162/1 1163/1
f 1161/1 1163/1 1164/1
f 1161/1 1165/1 1166/1
f 1163/1 1167/1 1164/1
f 1161/1 1164/1 1165/1
f 1165/1 1164/1 1167/1
usemtl ivy
f 225/1 227/38 228/37
f 255/47 256/49 257/50
f 233/44 235/46 236/47
f 234/45 232/43 235/46
f 255/47 254/48 256/49
f 229/40 231/42 232/43
f 253/44 254/48 255/47
f 233/44 234/45 235/46
f 249/44 251/46 252/47
f 250/45 248/43 251/46
f 265/47 266/49 267/50
f 229/40 230/41 231/42
f 241/44 243/46 244/47
f 234/45 229/40 232/43
f 242/45 240/43 243/46
f 245/40 247/42 248/43
f 265/47 264/48 266/49
f 249/44 250/45 251/46
f 237/40 239/42 240/43
f 263/44 264/48 265/47
f 245/40 246/41 247/42
f 221/1 223/38 224/37
f 241/44 242/45 243/46
f 260/47 261/49 262/50
f 250/45 245/40 248/43
f 237/40 238/41 239/42
f 260/47 259/48 261/49
f 242/45 237/40 240/43
f 258/44 259/48 260/47
f 209/44 211/46 212/47
f 221/1 222/39 223/38
f 303/47 304/49 305/50
f 303/47 302/48 304/49
f 301/44 302/48 303/47
f 292/44 294/46 295/47
f 308/47 309/49 310/50
f 308/47 307/48 309/49
f 306/44 307/48 308/47
f 298/47 299/49 300/50
f 298/47 297/48 299/49
f 296/44 297/48 298/47
f 292/44 293/45 294/46
f 209/44 210/45 211/46
f 225/1 226/39 227/38
f 201/1 203/38 204/37
f 293/45 291/43 294/46
f 210/45 208/43 211/46
f 276/44 278/46 279/47
f 293/45 288/40 291/43
f 210/45 205/40 208/43
f 217/44 219/46 220/47
f 276/44 277/45 278/46
f 288/40 290/42 291/43
f 205/40 207/42 208/43
f 284/44 286/46 287/47
f 217/44 218/45 219/46
f 288/40 289/41 290/42
f 205/40 206/41 207/42
f 277/45 275/43 278/46
f 284/44 285/45 286/46
f 277/45 272/40 275/43
f 218/45 216/43 219/46
f 197/1 199/38 200/37
f 201/1 202/39 203/38
f 218/45 213/40 216/43
f 285/45 283/43 286/46
f 272/40 274/42 275/43
f 285/45 280/40 283/43
f 268/1 270/38 271/37
f 213/40 215/42 216/43
f 272/40 273/41 274/42
f 213/40 214/41 215/42
f 280/40 282/42 283/43
f 193/1 195/38 196/37
f 280/40 281/41 282/42
f 189/1 190/37 191/38
f 268/1 269/39 270/38
f 197/1 198/39 199/38
f 193/1 194/39 195/38
f 185/1 186/37 187/38
f 189/1 191/38 192/39
f 185/1 187/38 188/39
f 561/1 563/38 564/37
f 591/47 592/49 593/50
f 569/44 571/46 572/47
f 570/45 568/43 571/46
f 591/47 590/48 592/49
f 565/40 567/42 568/43
f 589/44 590/48 591/47
f 569/44 570/45 571/46
f 585/44 587/46 588/47
f 586/45 584/43 587/46
f 601/47 602/49 603/50
f 565/40 566/41 567/42
f 577/44 579/46 580/47
f 570/45 565/40 568/43
f 578/45 576/43 579/46
f 581/40 583/42 584/43
f 601/47 600/48 602/49
f 585/44 586/45 587/46
f 573/40 575/42 576/43
f 599/44 600/48 601/47
f 581/40 582/41 583/42
f 557/1 559/38 560/37
f 577/44 578/45 579/46
f 596/47 597/49 598/50
f 586/45 581/40 584/43
f 573/40 574/41 575/42
f 596/47 595/48 597/49
f 578/45 573/40 576/43
f 594/44 595/48 596/47
f 545/44 547/46 548/47
f 557/1 558/39 559/38
f 639/47 640/49 641/50
f 639/47 638/48 640/49
f 637/44 638/48 639/47
f 628/44 630/46 631/47
f 644/47 645/49 646/50
f 644/47 643/48 645/49
f 642/44 643/48 644/47
f 634/47 635/49 636/50
f 634/47 633/48 635/49
f 632/44 633/48 634/47
f 628/44 629/45 630/46
f 545/44 546/45 547/46
f 561/1 562/39 563/38
f 537/1 539/38 540/37
f 629/45 627/43 630/46
f 546/45 544/43 547/46
f 612/44 614/46 615/47
f 629/45 624/40 627/43
f 546/45 541/40 544/43
f 553/44 555/46 556/47
f 612/44 613/45 614/46
f 624/40 626/42 627/43
f 541/40 543/42 544/43
f 620/44 622/46 623/47
f 553/44 554/45 555/46
f 624/40 625/41 626/42
f 541/40 542/41 543/42
f 613/45 611/43 614/46
f 620/44 621/45 622/46
f 613/45 608/40 611/43
f 554/45 552/43 555/46
f 533/1 535/38 536/37
f 537/1 538/39 539/38
f 554/45 549/40 552/43
f 621/45 619/43 622/46
f 608/40 610/42 611/43
f 621/45 616/40 619/43
f 604/1 606/38 607/37
f 549/40 551/42 552/43
f 608/40 609/41 610/42
f 549/40 550/41 551/42
f 616/40 618/42 619/43
f 529/1 531/38 532/37
f 616/40 617/41 618/42
f 525/1 526/37 527/38
f 604/1 605/39 606/38
f 533/1 534/39 535/38
f 529/1 530/39 531/38
f 521/1 522/37 523/38
f 525/1 527/38 528/39
f 521/1 523/38 524/39
f 897/1 899/38 900/37
f 927/47 928/49 929/50
f 905/44 907/46 908/47
f 906/45 904/43 907/46
f 927/47 926/48 928/49
f 901/40 903/42 904/43
f 925/44 926/48 927/47
f 905/44 906/45 907/46
f 921/44 923/46 924/47
f 922/45 920/43 923/46
f 937/47 938/49 939/50
f 901/40 902/41 903/42
f 913/44 915/46 916/47
f 906/45 901/40 904/43
f 914/45 912/43 915/46
f 917/40 919/42 920/43
f 937/47 936/48 938/49
f 921/44 922/45 923/46
f 909/40 911/42 912/43
f 935/44 936/48 937/47
f 917/40 918/41 919/42
f 893/1 895/38 896/37
f 913/44 914/45 915/46
f 932/47 933/49 934/50
f 922/45 917/40 920/43
f 909/40 910/41 911/42
f 932/47 931/48 933/49
f 914/45 909/40 912/43
f 930/44 931/48 932/47
f 881/44 883/46 884/47
f 893/1 894/39 895/38
f 975/47 976/49 977/50
f 975/47 974/48 976/49
f 973/44 974/48 975/47
f 964/44 966/46 967/47
f 980/47 981/49 982/50
f 980/47 979/48 981/49
f 978/44 979/48 980/47
f 970/47 971/49 972/50
f 970/47 969/48 971/49
f 968/44 969/48 970/47
f 964/44 965/45 966/46
f 881/44 882/45 883/46
f 897/1 898/39 899/38
f 873/1 875/38 876/37
f 965/45 963/43 966/46
f 882/45 880/43 883/46
f 948/44 950/46 951/47
f 965/45 960/40 963/43
f 882/45 877/40 880/43
f 889/44 891/46 892/47
f 948/44 949/45 950/46
f 960/40 962/42 963/43
f 877/40 879/42 880/43
f 956/44 958/46 959/47
f 889/44 890/45 891/46
f 960/40 961/41 962/42
f 877/40 878/41 879/42
f 949/45 947/43 950/46
f 956/44 957/45 958/46
f 949/45 944/40 947/43
f 890/45 888/43 891/46
f 869/1 871/38 872/37
f 873/1 874/39 875/38
f 890/45 885/40 888/43
f 957/45 955/43 958/46
f 944/40 946/42 947/43
f 957/45 952/40 955/43
f 940/1 942/38 943/37
f 885/40 887/42 888/43
f 944/40 945/41 946/42
f 885/40 886/41 887/42
f 952/40 954/42 955/43
f 865/1 867/38 868/37
f 952/40 953/41 954/42
f 861/1 862/37 863/38
f 940/1 941/39 942/38
f 869/1 870/39 871/38
f 865/1 866/39 867/38
f 857/1 858/37 859/38
f 861/1 863/38 864/39
f 857/1 859/38 860/39
f 1233/1 1235/38 1236/37
f 1263/47 1264/49 1265/50
f 1241/44 1243/46 1244/47
f 1242/45 1240/43 1243/46
f 1263/47 1262/48 1264/49
f 1237/40 1239/42 1240/43
f 1261/44 1262/48 1263/47
f 1241/44 1242/45 1243/46
f 1257/44 1259/46 1260/47
f 1258/45 1256/43 1259/46
f 1273/47 1274/49 1275/50
f 1237/40 1238/41 1239/42
f 1249/44 1251/46 1252/47
f 1242/45 1237/40 1240/43
f 1250/45 1248/43 1251/46
f 1253/40 1255/42 1256/43
f 1273/47 1272/48 1274/49
f 1257/44 1258/45 1259/46
f 1245/40 1247/42 1248/43
f 1271/44 1272/48 1273/47
f 1253/40 1254/41 1255/42
f 1229/1 1231/38 1232/37
f 1249/44 1250/45 1251/46
f 1268/47 1269/49 1270/50
f 1258/45 1253/40 1256/43
f 1245/40 1246/41 1247/42
f 1268/47 1267/48 1269/49
f 1250/45 1245/40 1248/43
f 1266/44 1267/48 1268/47
f 1217/44 1219/46 1220/47
f 1229/1 1230/39 1231/38
f 1311/47 1312/49 1313/50
f 1311/47 1310/48 1312/49
f 1309/44 1310/48 1311/47
f 1300/44 1302/46 1303/47
f 1316/47 1317/49 1318/50
f 1316/47 1315/48 1317/49
f 1314/44 1315/48 1316/47
f 1306/47 1307/49 1308/50
f 1306/47 1305/48 1307/49
f 1304/44 1305/48 1306/47
f 1300/44 1301/45 1302/46
f 1217/44 1218/45 1219/46
f 1233/1 1234/39 1235/38
f 1209/1 1211/38 1212/37
f 1301/45 1299/43 1302/46
f 1218/45 1216/43 1219/46
f 1284/44 1286/46 1287/47
f 1301/45 1296/40 1299/43
f 1218/45 1213/40 1216/43
f 1225/44 1227/46 1228/47
f 1284/44 1285/45 1286/46
f 1296/40 1298/42 1299/43
f 1213/40 1215/42 1216/43
f 1292/44 1294/46 1295/47
f 1225/44 1226/45 1227/46
f 1296/40 1297/41 1298/42
f 1213/40 1214/41 1215/42
f 1285/45 1283/43 1286/46
f 1292/44 1293/45 1294/46
f 1285/45 1280/40 1283/43
f 1226/45 1224/43 1227/46
f 1205/1 1207/38 1208/37
f 1209/1 1210/39 1211/38
f 1226/45 1221/40 1224/43
f 1293/45 1291/43 1294/46
f 1280/40 1282/42 1283/43
f 1293/45 1288/40 1291/43
f 1276/1 1278/38 1279/37
f 1221/40 1223/42 1224/43
f 1280/40 1281/41 1282/42
f 1221/40 1222/41 1223/42
f 1288/40 1290/42 1291/43
f 1201/1 1203/38 1204/37
f 1288/40 1289/41 1290/42
f 1197/1 1198/37 1199/38
f 1276/1 1277/39 1278/38
f 1205/1 1206/39 1207/38
f 1201/1 1202/39 1203/38
f 1193/1 1194/37 1195/38
f 1197/1 1199/38 1200/39
f 1193/1 1195/38 1196/39
usemtl copper
f 311/1 312/1 313/1
f 311/1 313/1 314/1
f 314/1 313/1 315/1
f 314/1 315/1 316/1
f 316/1 315/1 317/1
f 316/1 317/1 318/1
f 318/1 317/1 319/1
f 318/1 319/1 320/1
f 320/1 319/1 321/1
f 320/1 321/1 322/1
f 322/1 321/1 323/1
f 322/1 323/1 324/1
f 324/1 323/1 325/1
f 324/1 325/1 326/1
f 326/1 325/1 327/1
f 326/1 327/1 328/1
f 647/1 648/1 649/1
f 647/1 649/1 650/1
f 650/1 649/1 651/1
f 650/1 651/1 652/1
f 652/1 651/1 653/1
f 652/1 653/1 654/1
f 654/1 653/1 655/1
f 654/1 655/1 656/1
f 656/1 655/1 657/1
f 656/1 657/1 658/1
f 658/1 657/1 659/1
f 658/1 659/1 660/1
f 660/1 659/1 661/1
f 660/1 661/1 662/1
f 662/1 661/1 663/1
f 662/1 663/1 664/1
f 983/1 984/1 985/1
f 983/1 985/1 986/1
f 986/1 985/1 987/1
f 986/1 987/1 988/1
f 988/1 987/1 989/1
f 988/1 989/1 990/1
f 990/1 989/1 991/1
f 990/1 991/1 992/1
f 992/1 991/1 993/1
f 992/1 993/1 994/1
f 994/1 993/1 995/1
f 994/1 995/1 996/1
f 996/1 995/1 997/1
f 996/1 997/1 998/1
f 998/1 997/1 999/1
f 998/1 999/1 1000/1
f 1319/1 1320/1 1321/1
f 1319/1 1321/1 1322/1
f 1322/1 1321/1 1323/1
f 1322/1 1323/1 1324/1
f 1324/1 1323/1 1325/1
f 1324/1 1325/1 1326/1
f 1326/1 1325/1 1327/1
f 1326/1 1327/1 1328/1
f 1328/1 1327/1 1329/1
f 1328/1 1329/1 1330/1
f 1330/1 1329/1 1331/1
f 1330/1 1331/1 1332/1
f 1332/1 1331/1 1333/1
f 1332/1 1333/1 1334/1
f 1334/1 1333/1 1335/1
f 1334/1 1335/1 1336/1
usemtl gold
f 329/1 333/1 336/1
f 329/1 336/1 330/1
f 329/1 330/1 331/1
f 333/1 335/1 336/1
f 330/1 336/1 335/1
f 329/1 334/1 333/1
f 329/1 331/1 332/1
f 333/1 334/1 335/1
f 330/1 335/1 331/1
f 329/1 332/1 334/1
f 332/1 331/1 335/1
f 332/1 335/1 334/1
f 665/1 669/1 672/1
f 665/1 672/1 666/1
f 665/1 666/1 667/1
f 669/1 671/1 672/1
f 666/1 672/1 671/1
f 665/1 670/1 669/1
f 665/1 667/1 668/1
f 669/1 670/1 671/1
f 666/1 671/1 667/1
f 665/1 668/1 670/1
f 668/1 667/1 671/1
f 668/1 671/1 670/1
f 1001/1 1005/1 1008/1
f 1001/1 1008/1 1002/1
f 1001/1 1002/1 1003/1
f 1005/1 1007/1 1008/1
f 1002/1 1008/1 1007/1
f 1001/1 1006/1 1005/1
f 1001/1 1003/1 1004/1
f 1005/1 1006/1 1007/1
f 1002/1 1007/1 1003/1
f 1001/1 1004/1 1006/1
f 1004/1 1003/1 1007/1
f 1004/1 1007/1 1006/1
f 1337/1 1341/1 1344/1
f 1337/1 1344/1 1338/1
f 1337/1 1338/1 1339/1
f 1341/1 1343/1 1344/1
f 1338/1 1344/1 1343/1
f 1337/1 1342/1 1341/1
f 1337/1 1339/1 1340/1
f 1341/1 1342/1 1343/1
f 1338/1 1343/1 1339/1
f 1337/1 1340/1 1342/1
f 1340/1 1339/1 1343/1
f 1340/1 1343/1 1342/1
usemtl paving
f 1345/1 1346/51 1347/52
f 1345/1 1347/52 1348/53
f 1349/1 1350/54 1351/55
f 1349/1 1351/55 1352/56
f 1345/1 1349/57 1352/58
f 1345/1 1352/58 1346/56
f 1348/1 1347/51 1351/59
f 1348/1 1351/59 1350/60
f 1346/1 1352/57 1351/61
f 1346/1 1351/61 1347/53
f 1345/1 1348/54 1350/62
f 1345/1 1350/62 1349/60
