# Quaternius / Medieval Village MegaKit / CC0
mtllib aster.mtl
usemtl bark
v 0.727354 0.591780 -2.012008
v 0.652748 0.598971 -2.010662
v 0.743906 0.870943 -1.959746
v 0.669298 0.878135 -1.958399
v 0.727354 0.018018 1.990140
v 0.652748 0.025210 1.991486
v 0.743906 0.127633 2.010662
v 0.669298 0.134824 2.012007
v 0.669298 0.318684 1.029920
v 0.669298 0.368250 0.765162
v 0.669298 0.331075 0.963731
v 0.669298 0.343466 0.897542
v 0.669298 0.355858 0.831352
v 0.727354 0.177773 0.729796
v 0.727354 0.170926 1.002259
v 0.727354 0.182819 0.793115
v 0.727354 0.183290 0.867130
v 0.727354 0.179114 0.940572
v 0.743906 0.361058 0.763817
v 0.743906 0.311492 1.028575
v 0.743906 0.348667 0.830006
v 0.743906 0.336275 0.896195
v 0.743906 0.323883 0.962385
v 0.652748 0.178118 1.003605
v 0.652748 0.184965 0.731142
v 0.652748 0.186305 0.941918
v 0.652748 0.190481 0.868477
v 0.652748 0.190010 0.794462
v 0.743906 0.391551 0.600939
v 0.743906 0.441113 0.336199
v 0.743906 0.403942 0.534754
v 0.743906 0.416332 0.468569
v 0.743906 0.428723 0.402384
v 0.652748 0.162302 0.557797
v 0.652748 0.169142 0.285283
v 0.652748 0.157253 0.494457
v 0.652748 0.156781 0.420426
v 0.652748 0.160955 0.346974
v 0.669298 0.448305 0.337546
v 0.669298 0.398742 0.602284
v 0.669298 0.435914 0.403730
v 0.669298 0.423524 0.469915
v 0.669298 0.411133 0.536100
v 0.727354 0.155110 0.556451
v 0.727354 0.161950 0.283936
v 0.727354 0.150062 0.493111
v 0.727354 0.149589 0.419080
v 0.727354 0.153764 0.345628
v 0.691067 0.205610 0.292002
v 0.693300 0.218137 0.225001
v 0.691490 0.274680 0.304933
v 0.693724 0.287208 0.237931
v -0.000000 0.215337 0.266725
v -0.000000 0.227864 0.199724
v -0.000000 0.284407 0.279656
v -0.000000 0.296935 0.212655
v 0.692417 0.440661 -0.666763
v 0.692417 0.453212 -0.733803
v 0.692843 0.509732 -0.653832
v 0.692843 0.522283 -0.720872
v -0.000000 0.445490 -0.665859
v -0.000000 0.458041 -0.732899
v -0.000000 0.514561 -0.652928
v -0.000000 0.527112 -0.719968
v 0.693083 0.626255 -1.658138
v 0.691525 0.638812 -1.725155
v 0.693506 0.695326 -1.645207
v 0.691948 0.707883 -1.712225
v -0.000000 0.627661 -1.638960
v -0.000000 0.640219 -1.705978
v -0.000000 0.696732 -1.626029
v -0.000000 0.709290 -1.693047
v 0.011866 0.742252 -1.983838
v 0.012352 0.815793 -1.970070
v 0.231424 0.740850 -1.984101
v 0.231911 0.814390 -1.970333
v 0.011866 0.204244 0.593124
v 0.012352 0.277784 0.606892
v 0.231424 0.202841 0.592862
v 0.231911 0.276382 0.606630
v 0.484417 0.808465 -1.947596
v 0.483931 0.734924 -1.961364
v 0.264858 0.809867 -1.947334
v 0.264372 0.736327 -1.961102
v 0.484417 0.270456 0.629366
v 0.483931 0.196915 0.615598
v 0.264860 0.271858 0.629628
v 0.264374 0.198317 0.615861
v 0.659475 0.812728 -1.978653
v 0.658989 0.739188 -1.992421
v 0.499390 0.814131 -1.978391
v 0.498903 0.740590 -1.992158
v 0.659477 0.274719 0.598309
v 0.658991 0.201179 0.584542
v 0.499392 0.276122 0.598572
v 0.498905 0.202581 0.584804
v -0.727354 0.591780 -2.012008
v -0.652748 0.598971 -2.010662
v -0.743906 0.870943 -1.959746
v -0.669300 0.878135 -1.958399
v -0.727352 0.018018 1.990141
v -0.652746 0.025209 1.991486
v -0.743904 0.127633 2.010662
v -0.669296 0.134824 2.012008
v -0.669298 0.318683 1.029921
v -0.669298 0.368250 0.765163
v -0.669298 0.331075 0.963731
v -0.669298 0.343466 0.897542
v -0.669298 0.355858 0.831352
v -0.727354 0.177773 0.729796
v -0.727354 0.170926 1.002259
v -0.727354 0.182819 0.793116
v -0.727354 0.183290 0.867131
v -0.727354 0.179114 0.940572
v -0.743904 0.361058 0.763817
v -0.743904 0.311492 1.028575
v -0.743904 0.348666 0.830006
v -0.743904 0.336275 0.896196
v -0.743904 0.323883 0.962385
v -0.652746 0.178118 1.003606
v -0.652746 0.184965 0.731142
v -0.652746 0.186305 0.941919
v -0.652746 0.190481 0.868478
v -0.652746 0.190010 0.794462
v -0.743904 0.391551 0.600939
v -0.743904 0.441113 0.336199
v -0.743904 0.403941 0.534754
v -0.743904 0.416332 0.468569
v -0.743904 0.428723 0.402384
v -0.652746 0.162302 0.557797
v -0.652746 0.169142 0.285283
v -0.652746 0.157253 0.494458
v -0.652746 0.156780 0.420427
v -0.652746 0.160955 0.346974
v -0.669298 0.448305 0.337546
v -0.669298 0.398742 0.602285
v -0.669298 0.435914 0.403731
v -0.669298 0.423524 0.469915
v -0.669298 0.411133 0.536100
v -0.727354 0.155110 0.556451
v -0.727354 0.161950 0.283937
v -0.727354 0.150062 0.493111
v -0.727354 0.149589 0.419080
v -0.727354 0.153764 0.345628
v -0.691067 0.205609 0.292002
v -0.693298 0.218137 0.225001
v -0.691490 0.274680 0.304933
v -0.693724 0.287208 0.237932
v -0.692417 0.440661 -0.666762
v -0.692417 0.453212 -0.733802
v -0.692842 0.509732 -0.653831
v -0.692842 0.522283 -0.720871
v -0.693083 0.626255 -1.658138
v -0.691524 0.638812 -1.725155
v -0.693506 0.695326 -1.645207
v -0.691950 0.707883 -1.712224
v -0.011867 0.742252 -1.983838
v -0.012354 0.815793 -1.970070
v -0.231426 0.740850 -1.984101
v -0.231913 0.814390 -1.970333
v -0.011866 0.204244 0.593124
v -0.012352 0.277784 0.606892
v -0.231424 0.202841 0.592862
v -0.231911 0.276382 0.606630
v -0.484417 0.808465 -1.947596
v -0.483931 0.734924 -1.961364
v -0.264860 0.809867 -1.947334
v -0.264374 0.736327 -1.961101
v -0.484417 0.270456 0.629366
v -0.483931 0.196915 0.615598
v -0.264858 0.271858 0.629629
v -0.264372 0.198317 0.615861
v -0.659477 0.812728 -1.978652
v -0.658991 0.739188 -1.992421
v -0.499392 0.814131 -1.978390
v -0.498905 0.740590 -1.992158
v -0.659475 0.274719 0.598309
v -0.658989 0.201179 0.584542
v -0.499390 0.276122 0.598572
v -0.498903 0.202581 0.584804
v 0.460644 1.288777 -1.848048
v 0.392483 1.291165 -1.847785
v 0.460644 1.281089 -1.778198
v 0.392483 1.283478 -1.777934
v 0.440628 0.724336 -1.910169
v 0.372465 0.726724 -1.909906
v 0.440628 0.716648 -1.840318
v 0.372465 0.719037 -1.840056
v -0.322790 1.290222 -1.847888
v -0.390995 1.290222 -1.847888
v -0.322790 1.282534 -1.778038
v -0.390995 1.282534 -1.778038
v -0.322790 0.735447 -1.908945
v -0.390995 0.735447 -1.908945
v -0.322790 0.727759 -1.839095
v -0.390995 0.727759 -1.839095
v -0.656874 1.016602 -1.752745
v -0.656874 1.024787 -1.827115
v -0.656874 0.798357 -1.776764
v -0.656874 0.806542 -1.851135
v 0.656141 1.016603 -1.752745
v 0.656141 1.024788 -1.827115
v 0.656141 0.798358 -1.776764
v 0.656141 0.806543 -1.851136
v -0.688185 1.249731 -1.727087
v -0.688185 1.257916 -1.801458
v -0.688185 1.031486 -1.751107
v -0.688185 1.039671 -1.825477
v 0.663464 1.249731 -1.727088
v 0.663464 1.257917 -1.801459
v 0.663464 1.031487 -1.751108
v 0.663464 1.039671 -1.825478
v 0.683289 0.218538 1.005029
v 0.686186 0.233246 0.926581
v 0.679375 0.287522 1.018021
v 0.682272 0.302230 0.939573
v -0.682272 0.212842 0.996783
v -0.679375 0.227550 0.918335
v -0.686186 0.281826 1.009775
v -0.683289 0.296534 0.931328
v 0.664574 0.308482 0.455036
v 0.664574 0.299631 0.529281
v 0.664574 0.393345 0.466549
v 0.664574 0.384494 0.540795
v -0.638912 0.308481 0.455037
v -0.638912 0.299630 0.529282
v -0.638912 0.393344 0.466550
v -0.638912 0.384493 0.540796
v 0.787560 1.111506 0.463662
v 0.787741 1.126121 0.397052
v 0.717487 1.116087 0.464519
v 0.717669 1.130702 0.397909
v 0.738478 0.415539 0.304206
v 0.738640 0.430154 0.237595
v 0.675486 0.420120 0.305063
v 0.675648 0.434735 0.238453
v 0.787668 1.294507 -0.506912
v 0.787668 1.307058 -0.573952
v 0.717596 1.299089 -0.506054
v 0.717596 1.311640 -0.573094
v 0.738541 0.592830 -0.638275
v 0.738541 0.605381 -0.705315
v 0.675549 0.597411 -0.637417
v 0.675549 0.609962 -0.704457
v 0.787722 1.480983 -1.499564
v 0.787596 1.492083 -1.566854
v 0.717650 1.485564 -1.498706
v 0.717524 1.496664 -1.565996
v 0.738606 0.775836 -1.611220
v 0.738493 0.786936 -1.678510
v 0.675613 0.780417 -1.610362
v 0.675501 0.791517 -1.677653
v 0.682819 0.913522 -1.951774
v 0.608213 0.918400 -1.950861
v 0.699371 1.102863 -1.916328
v 0.624764 1.107741 -1.915414
v 0.682821 0.429201 0.635239
v 0.608213 0.434078 0.636152
v 0.699371 0.618541 0.670686
v 0.624765 0.623419 0.671600
v 0.643799 1.321182 -1.851610
v 0.718405 1.316304 -1.852523
v 0.627247 1.131841 -1.887057
v 0.701855 1.126963 -1.887969
v 0.643801 0.836861 0.735404
v 0.718407 0.831983 0.734491
v 0.627249 0.647520 0.699958
v 0.701857 0.642643 0.699044
v 0.661480 1.529197 -1.844521
v 0.736086 1.524319 -1.845435
v 0.644928 1.339856 -1.879969
v 0.719534 1.334978 -1.880882
v 0.661480 1.044876 0.742492
v 0.736088 1.039998 0.741579
v 0.644928 0.855535 0.707045
v 0.719536 0.850658 0.706132
v -0.787559 1.111506 0.463662
v -0.787741 1.126121 0.397052
v -0.717487 1.116087 0.464519
v -0.717668 1.130702 0.397909
v -0.738478 0.415539 0.304206
v -0.738640 0.430154 0.237595
v -0.675486 0.420120 0.305063
v -0.675648 0.434735 0.238453
v -0.787668 1.294507 -0.506912
v -0.787668 1.307058 -0.573952
v -0.717596 1.299089 -0.506054
v -0.717596 1.311640 -0.573094
v -0.738541 0.592830 -0.638275
v -0.738541 0.605381 -0.705315
v -0.675549 0.597411 -0.637417
v -0.675549 0.609962 -0.704457
v -0.787722 1.480983 -1.499564
v -0.787596 1.492083 -1.566854
v -0.717649 1.485564 -1.498706
v -0.717524 1.496664 -1.565996
v -0.738605 0.775836 -1.611220
v -0.738493 0.786936 -1.678510
v -0.675613 0.780417 -1.610362
v -0.675501 0.791517 -1.677653
v -0.682819 0.913522 -1.951774
v -0.608213 0.918400 -1.950861
v -0.699371 1.102863 -1.916328
v -0.624763 1.107741 -1.915414
v -0.682821 0.429201 0.635239
v -0.608213 0.434078 0.636152
v -0.699371 0.618541 0.670686
v -0.624765 0.623419 0.671600
v -0.643799 1.321182 -1.851610
v -0.718405 1.316304 -1.852523
v -0.627247 1.131841 -1.887057
v -0.701855 1.126963 -1.887969
v -0.643801 0.836861 0.735404
v -0.718407 0.831983 0.734491
v -0.627249 0.647520 0.699958
v -0.701857 0.642643 0.699044
v -0.661480 1.529197 -1.844521
v -0.736086 1.524319 -1.845435
v -0.644928 1.339856 -1.879969
v -0.719534 1.334978 -1.880882
v -0.661480 1.044876 0.742492
v -0.736088 1.039998 0.741579
v -0.644928 0.855535 0.707045
v -0.719536 0.850658 0.706132
v 0.810715 0.551842 -1.774967
v 0.923939 0.551842 -1.774967
v 0.810715 0.444183 -1.764364
v 0.923939 0.444183 -1.764364
v 0.810715 0.340661 -1.732961
v 0.923939 0.340661 -1.732961
v 0.810715 0.245255 -1.681965
v 0.923939 0.245255 -1.681965
v 0.810715 0.161631 -1.613336
v 0.923939 0.161631 -1.613336
v 0.810715 0.093002 -1.529712
v 0.923939 0.093002 -1.529712
v 0.810715 0.042006 -1.434306
v 0.923939 0.042006 -1.434306
v 0.810715 0.010603 -1.330784
v 0.923939 0.010603 -1.330784
v 0.810715 0.000000 -1.223125
v 0.923939 0.000000 -1.223125
v 0.810715 0.010603 -1.115467
v 0.923939 0.010603 -1.115467
v 0.810715 0.042006 -1.011945
v 0.923939 0.042006 -1.011945
v 0.810715 0.093002 -0.916539
v 0.923939 0.093002 -0.916539
v 0.810715 0.161631 -0.832914
v 0.923939 0.161631 -0.832914
v 0.810715 0.245255 -0.764285
v 0.923939 0.245255 -0.764285
v 0.810715 0.340661 -0.713290
v 0.923939 0.340661 -0.713290
v 0.810715 0.444183 -0.681887
v 0.923939 0.444183 -0.681887
v 0.810715 0.551842 -0.671284
v 0.923939 0.551842 -0.671284
v 0.810715 0.659501 -0.681887
v 0.923939 0.659501 -0.681887
v 0.810715 0.763023 -0.713290
v 0.923939 0.763023 -0.713290
v 0.810715 0.858429 -0.764285
v 0.923939 0.858429 -0.764285
v 0.810715 0.942053 -0.832914
v 0.923939 0.942053 -0.832914
v 0.810715 1.010681 -0.916539
v 0.923939 1.010681 -0.916539
v 0.810715 1.061677 -1.011945
v 0.923939 1.061677 -1.011945
v 0.810713 1.093080 -1.115467
v 0.923939 1.093080 -1.115467
v 0.810713 1.103684 -1.223125
v 0.923939 1.103684 -1.223125
v 0.810713 1.093080 -1.330784
v 0.923939 1.093080 -1.330784
v 0.810713 1.061677 -1.434306
v 0.923939 1.061677 -1.434306
v 0.810713 1.010681 -1.529712
v 0.923939 1.010681 -1.529712
v 0.810713 0.942053 -1.613336
v 0.923939 0.942053 -1.613336
v 0.810713 0.858429 -1.681965
v 0.923939 0.858429 -1.681965
v 0.810713 0.763023 -1.732961
v 0.923939 0.763023 -1.732961
v 0.810713 0.659501 -1.764364
v 0.923939 0.659501 -1.764364
v 0.813021 0.551842 -1.699272
v 0.813021 0.458950 -1.690122
v 0.921631 0.458950 -1.690122
v 0.921631 0.551842 -1.699272
v 0.813021 0.369628 -1.663027
v 0.921631 0.369628 -1.663027
v 0.813021 0.287309 -1.619027
v 0.921631 0.287309 -1.619027
v 0.813021 0.215155 -1.559812
v 0.921631 0.215155 -1.559812
v 0.813021 0.155941 -1.487658
v 0.921631 0.155941 -1.487658
v 0.813021 0.111940 -1.405339
v 0.921631 0.111940 -1.405339
v 0.813021 0.084844 -1.316017
v 0.921631 0.084844 -1.316017
v 0.813021 0.075695 -1.223125
v 0.921631 0.075695 -1.223125
v 0.813021 0.084844 -1.130234
v 0.921631 0.084844 -1.130234
v 0.813021 0.111940 -1.040912
v 0.921631 0.111940 -1.040912
v 0.813021 0.155941 -0.958593
v 0.921631 0.155941 -0.958593
v 0.813021 0.215155 -0.886439
v 0.921631 0.215155 -0.886439
v 0.813021 0.287309 -0.827224
v 0.921631 0.287309 -0.827224
v 0.813021 0.369628 -0.783223
v 0.921631 0.369628 -0.783223
v 0.813021 0.458950 -0.756128
v 0.921631 0.458950 -0.756128
v 0.813021 0.551842 -0.746979
v 0.921631 0.551842 -0.746979
v 0.813021 0.644733 -0.756128
v 0.921631 0.644733 -0.756128
v 0.813021 0.734055 -0.783223
v 0.921631 0.734055 -0.783223
v 0.813021 0.816374 -0.827224
v 0.921631 0.816374 -0.827224
v 0.813021 0.888528 -0.886439
v 0.921631 0.888528 -0.886439
v 0.813021 0.947743 -0.958593
v 0.921631 0.947743 -0.958593
v 0.813021 0.991743 -1.040912
v 0.921631 0.991743 -1.040912
v 0.813021 1.018839 -1.130234
v 0.921631 1.018839 -1.130234
v 0.813021 1.027988 -1.223125
v 0.921631 1.027988 -1.223125
v 0.813021 1.018839 -1.316017
v 0.921631 1.018839 -1.316017
v 0.813021 0.991743 -1.405339
v 0.921631 0.991743 -1.405339
v 0.813021 0.947743 -1.487658
v 0.921631 0.947743 -1.487658
v 0.813021 0.888528 -1.559812
v 0.921631 0.888528 -1.559812
v 0.813021 0.816374 -1.619027
v 0.921631 0.816374 -1.619027
v 0.813021 0.734055 -1.663027
v 0.921631 0.734055 -1.663027
v 0.813021 0.644733 -1.690123
v 0.921631 0.644733 -1.690123
v 0.905254 1.090580 -1.200008
v 0.905254 1.090580 -1.246242
v 0.861616 1.090402 -1.200008
v 0.861616 1.090402 -1.246242
v 0.907145 0.551931 -1.200009
v 0.907145 0.551931 -1.246242
v 0.863506 0.551753 -1.200008
v 0.863506 0.551753 -1.246242
v 0.908728 1.029961 -1.472474
v 0.908728 1.006844 -1.512514
v 0.861094 1.029807 -1.472385
v 0.861094 1.006690 -1.512425
v 0.910791 0.563477 -1.203150
v 0.910791 0.540360 -1.243189
v 0.863155 0.563323 -1.203061
v 0.863155 0.540206 -1.243101
v 0.905254 0.841231 -1.678128
v 0.905254 0.801191 -1.701245
v 0.861616 0.841142 -1.677974
v 0.861616 0.801102 -1.701090
v 0.907145 0.571906 -1.211644
v 0.907145 0.531866 -1.234761
v 0.863506 0.571817 -1.211490
v 0.863506 0.531777 -1.234607
v 0.904228 0.574959 -1.761863
v 0.904228 0.528725 -1.761863
v 0.861771 0.574959 -1.761685
v 0.861771 0.528725 -1.761685
v 0.906069 0.574959 -1.223215
v 0.906069 0.528725 -1.223215
v 0.863609 0.574959 -1.223036
v 0.863609 0.528725 -1.223036
v 0.905254 0.302492 -1.701245
v 0.905254 0.262453 -1.678128
v 0.861616 0.302582 -1.701091
v 0.861616 0.262542 -1.677974
v 0.907145 0.571817 -1.234761
v 0.907145 0.531777 -1.211644
v 0.863506 0.571906 -1.234607
v 0.863506 0.531866 -1.211490
v 0.908728 0.096839 -1.512514
v 0.908728 0.073722 -1.472475
v 0.861094 0.096993 -1.512425
v 0.861094 0.073876 -1.472386
v 0.910791 0.563323 -1.243189
v 0.910791 0.540206 -1.203150
v 0.863155 0.563477 -1.243101
v 0.863155 0.540360 -1.203061
v 0.905254 0.013103 -1.246242
v 0.905254 0.013103 -1.200009
v 0.861616 0.013282 -1.246242
v 0.861616 0.013281 -1.200009
v 0.907145 0.551753 -1.246242
v 0.907145 0.551753 -1.200008
v 0.863506 0.551931 -1.246242
v 0.863506 0.551931 -1.200009
v 0.908728 0.073722 -0.973776
v 0.908728 0.096839 -0.933736
v 0.861094 0.073876 -0.973865
v 0.861094 0.096993 -0.933825
v 0.910791 0.540206 -1.243101
v 0.910791 0.563323 -1.203061
v 0.863155 0.540360 -1.243190
v 0.863155 0.563477 -1.203150
v 0.905254 0.262453 -0.768122
v 0.905254 0.302492 -0.745006
v 0.861616 0.262542 -0.768277
v 0.861616 0.302581 -0.745160
v 0.907145 0.531777 -1.234607
v 0.907145 0.571817 -1.211490
v 0.863506 0.531866 -1.234761
v 0.863506 0.571906 -1.211644
v 0.904228 0.528725 -0.684387
v 0.904228 0.574959 -0.684387
v 0.861771 0.528725 -0.684565
v 0.861771 0.574959 -0.684565
v 0.906069 0.528725 -1.223036
v 0.906069 0.574958 -1.223036
v 0.863609 0.528725 -1.223215
v 0.863609 0.574958 -1.223215
v 0.905254 0.801191 -0.745006
v 0.905254 0.841231 -0.768122
v 0.861616 0.801102 -0.745160
v 0.861616 0.841142 -0.768277
v 0.907145 0.531866 -1.211490
v 0.907145 0.571906 -1.234607
v 0.863506 0.531777 -1.211644
v 0.863506 0.571817 -1.234761
v 0.908728 1.006844 -0.933736
v 0.908728 1.029961 -0.973776
v 0.861094 1.006690 -0.933825
v 0.861094 1.029807 -0.973865
v 0.910791 0.540360 -1.203061
v 0.910791 0.563477 -1.243101
v 0.863155 0.540206 -1.203150
v 0.863155 0.563323 -1.243190
v 0.923700 0.551919 -1.293454
v 0.923700 0.521405 -1.286489
v 0.923700 0.496934 -1.266974
v 0.923700 0.483354 -1.238775
v 0.923700 0.483354 -1.207476
v 0.923700 0.496934 -1.179276
v 0.923700 0.521405 -1.159762
v 0.923700 0.551919 -1.152797
v 0.923700 0.582433 -1.159762
v 0.923700 0.606904 -1.179276
v 0.923700 0.620484 -1.207476
v 0.923700 0.620484 -1.238775
v 0.923700 0.606904 -1.266974
v 0.923700 0.582433 -1.286489
v 0.923700 0.534004 -1.260326
v 0.923700 0.551919 -1.264415
v 0.923700 0.519638 -1.248869
v 0.923700 0.511665 -1.232313
v 0.923700 0.511665 -1.213938
v 0.923700 0.519638 -1.197382
v 0.923700 0.534004 -1.185925
v 0.923700 0.551919 -1.181836
v 0.923700 0.569834 -1.185925
v 0.923700 0.584200 -1.197382
v 0.923700 0.592173 -1.213938
v 0.923700 0.592173 -1.232313
v 0.923700 0.584200 -1.248869
v 0.923700 0.569834 -1.260326
v 0.949974 0.538434 -1.251128
v 0.949974 0.551919 -1.254206
v 0.949974 0.527619 -1.242504
v 0.949974 0.521618 -1.230041
v 0.949974 0.521618 -1.216209
v 0.949974 0.527619 -1.203747
v 0.949974 0.538434 -1.195123
v 0.949974 0.551919 -1.192045
v 0.949974 0.565404 -1.195123
v 0.949974 0.576219 -1.203747
v 0.949974 0.582220 -1.216209
v 0.949974 0.582220 -1.230041
v 0.949974 0.576219 -1.242504
v 0.949974 0.565404 -1.251128
v 0.963621 0.542240 -1.243223
v 0.963621 0.551919 -1.245432
v 0.963621 0.534479 -1.237033
v 0.963621 0.530172 -1.228089
v 0.963621 0.530172 -1.218162
v 0.963621 0.534479 -1.209217
v 0.963621 0.542240 -1.203028
v 0.963621 0.551919 -1.200819
v 0.963621 0.561597 -1.203028
v 0.963621 0.569359 -1.209217
v 0.963621 0.573666 -1.218162
v 0.963621 0.573666 -1.228089
v 0.963621 0.569359 -1.237033
v 0.963621 0.561597 -1.243223
v 0.975704 0.551919 -1.223125
v 0.882048 0.551919 -1.293454
v 0.838139 0.551919 -1.293454
v 0.882048 0.582433 -1.286489
v 0.838139 0.582433 -1.286489
v 0.882048 0.606904 -1.266974
v 0.838139 0.606904 -1.266974
v 0.882048 0.620484 -1.238775
v 0.838139 0.620484 -1.238775
v 0.882048 0.620484 -1.207476
v 0.838139 0.620484 -1.207476
v 0.882048 0.606904 -1.179276
v 0.838139 0.606904 -1.179276
v 0.882048 0.582433 -1.159762
v 0.838139 0.582433 -1.159762
v 0.882048 0.551919 -1.152797
v 0.838139 0.551919 -1.152797
v 0.882048 0.521405 -1.159762
v 0.838139 0.521405 -1.159762
v 0.882048 0.496934 -1.179276
v 0.838139 0.496934 -1.179276
v 0.882048 0.483354 -1.207476
v 0.838139 0.483354 -1.207476
v 0.882048 0.483354 -1.238775
v 0.838139 0.483354 -1.238775
v 0.882048 0.496934 -1.266974
v 0.838139 0.496934 -1.266974
v 0.882048 0.521405 -1.286489
v 0.838139 0.521405 -1.286489
v 0.838139 0.569834 -1.260326
v 0.838139 0.551919 -1.264415
v 0.838139 0.584200 -1.248869
v 0.838139 0.592173 -1.232313
v 0.838139 0.592173 -1.213938
v 0.838139 0.584200 -1.197382
v 0.838139 0.569834 -1.185925
v 0.838139 0.551919 -1.181836
v 0.838139 0.534004 -1.185925
v 0.838139 0.519638 -1.197382
v 0.838139 0.511665 -1.213938
v 0.838139 0.511665 -1.232313
v 0.838139 0.519638 -1.248869
v 0.838139 0.534004 -1.260326
v -0.000000 0.534004 -1.260326
v -0.000000 0.519638 -1.248869
v -0.000000 0.511665 -1.232313
v -0.000000 0.511665 -1.213938
v -0.000000 0.519638 -1.197382
v -0.000000 0.534004 -1.185925
v -0.000000 0.551919 -1.181836
v -0.000000 0.569834 -1.185925
v -0.000000 0.584200 -1.197382
v -0.000000 0.592173 -1.213938
v -0.000000 0.592173 -1.232313
v -0.000000 0.584200 -1.248869
v -0.000000 0.551919 -1.264415
v -0.000000 0.569834 -1.260326
v -0.810715 0.551842 -1.774967
v -0.923939 0.551842 -1.774967
v -0.810715 0.444183 -1.764364
v -0.923939 0.444183 -1.764364
v -0.810715 0.340661 -1.732961
v -0.923939 0.340661 -1.732961
v -0.810715 0.245255 -1.681965
v -0.923939 0.245255 -1.681965
v -0.810715 0.161631 -1.613336
v -0.923939 0.161631 -1.613336
v -0.810715 0.093002 -1.529712
v -0.923939 0.093002 -1.529712
v -0.810715 0.042006 -1.434306
v -0.923939 0.042006 -1.434306
v -0.810715 0.010603 -1.330784
v -0.923939 0.010603 -1.330784
v -0.810715 0.000000 -1.223125
v -0.923939 0.000000 -1.223125
v -0.810715 0.010603 -1.115467
v -0.923939 0.010603 -1.115467
v -0.810715 0.042006 -1.011945
v -0.923939 0.042006 -1.011945
v -0.810715 0.093002 -0.916539
v -0.923939 0.093002 -0.916539
v -0.810715 0.161631 -0.832914
v -0.923939 0.161631 -0.832914
v -0.810715 0.245255 -0.764285
v -0.923939 0.245255 -0.764285
v -0.810715 0.340661 -0.713290
v -0.923939 0.340661 -0.713290
v -0.810715 0.444183 -0.681887
v -0.923939 0.444183 -0.681887
v -0.810715 0.551842 -0.671284
v -0.923939 0.551842 -0.671284
v -0.810715 0.659501 -0.681887
v -0.923939 0.659501 -0.681887
v -0.810715 0.763023 -0.713290
v -0.923939 0.763023 -0.713290
v -0.810715 0.858429 -0.764285
v -0.923939 0.858429 -0.764285
v -0.810715 0.942053 -0.832914
v -0.923939 0.942053 -0.832914
v -0.810715 1.010681 -0.916539
v -0.923939 1.010681 -0.916539
v -0.810715 1.061677 -1.011945
v -0.923939 1.061677 -1.011945
v -0.810713 1.093080 -1.115467
v -0.923939 1.093080 -1.115467
v -0.810713 1.103684 -1.223125
v -0.923939 1.103684 -1.223125
v -0.810713 1.093080 -1.330784
v -0.923939 1.093080 -1.330784
v -0.810713 1.061677 -1.434306
v -0.923939 1.061677 -1.434306
v -0.810713 1.010681 -1.529712
v -0.923939 1.010681 -1.529712
v -0.810713 0.942053 -1.613336
v -0.923939 0.942053 -1.613336
v -0.810713 0.858429 -1.681965
v -0.923939 0.858429 -1.681965
v -0.810713 0.763023 -1.732961
v -0.923939 0.763023 -1.732961
v -0.810713 0.659501 -1.764364
v -0.923939 0.659501 -1.764364
v -0.813021 0.551842 -1.699272
v -0.813021 0.458950 -1.690122
v -0.921631 0.458950 -1.690122
v -0.921631 0.551842 -1.699272
v -0.813021 0.369628 -1.663027
v -0.921631 0.369628 -1.663027
v -0.813021 0.287309 -1.619027
v -0.921631 0.287309 -1.619027
v -0.813021 0.215155 -1.559812
v -0.921631 0.215155 -1.559812
v -0.813021 0.155941 -1.487658
v -0.921631 0.155941 -1.487658
v -0.813021 0.111940 -1.405339
v -0.921631 0.111940 -1.405339
v -0.813021 0.084844 -1.316017
v -0.921631 0.084844 -1.316017
v -0.813021 0.075695 -1.223125
v -0.921631 0.075695 -1.223125
v -0.813021 0.084844 -1.130234
v -0.921631 0.084844 -1.130234
v -0.813021 0.111940 -1.040912
v -0.921631 0.111940 -1.040912
v -0.813021 0.155941 -0.958593
v -0.921631 0.155941 -0.958593
v -0.813021 0.215155 -0.886439
v -0.921631 0.215155 -0.886439
v -0.813021 0.287309 -0.827224
v -0.921631 0.287309 -0.827224
v -0.813021 0.369628 -0.783223
v -0.921631 0.369628 -0.783223
v -0.813021 0.458950 -0.756128
v -0.921631 0.458950 -0.756128
v -0.813021 0.551842 -0.746979
v -0.921631 0.551842 -0.746979
v -0.813021 0.644733 -0.756128
v -0.921631 0.644733 -0.756128
v -0.813021 0.734055 -0.783223
v -0.921631 0.734055 -0.783223
v -0.813021 0.816374 -0.827224
v -0.921631 0.816374 -0.827224
v -0.813021 0.888528 -0.886439
v -0.921631 0.888528 -0.886439
v -0.813021 0.947743 -0.958593
v -0.921631 0.947743 -0.958593
v -0.813021 0.991743 -1.040912
v -0.921631 0.991743 -1.040912
v -0.813021 1.018839 -1.130234
v -0.921631 1.018839 -1.130234
v -0.813021 1.027988 -1.223125
v -0.921631 1.027988 -1.223125
v -0.813021 1.018839 -1.316017
v -0.921631 1.018839 -1.316017
v -0.813021 0.991743 -1.405339
v -0.921631 0.991743 -1.405339
v -0.813021 0.947743 -1.487658
v -0.921631 0.947743 -1.487658
v -0.813021 0.888528 -1.559812
v -0.921631 0.888528 -1.559812
v -0.813021 0.816374 -1.619027
v -0.921631 0.816374 -1.619027
v -0.813021 0.734055 -1.663027
v -0.921631 0.734055 -1.663027
v -0.813021 0.644733 -1.690123
v -0.921631 0.644733 -1.690123
v -0.905254 1.090580 -1.200008
v -0.905254 1.090580 -1.246242
v -0.861616 1.090402 -1.200008
v -0.861616 1.090402 -1.246242
v -0.907145 0.551931 -1.200009
v -0.907145 0.551931 -1.246242
v -0.863506 0.551753 -1.200008
v -0.863506 0.551753 -1.246242
v -0.908728 1.029961 -1.472474
v -0.908728 1.006844 -1.512514
v -0.861093 1.029807 -1.472385
v -0.861093 1.006690 -1.512425
v -0.910791 0.563477 -1.203150
v -0.910791 0.540360 -1.243189
v -0.863155 0.563323 -1.203061
v -0.863155 0.540206 -1.243101
v -0.905254 0.841231 -1.678128
v -0.905254 0.801191 -1.701245
v -0.861616 0.841142 -1.677974
v -0.861616 0.801102 -1.701090
v -0.907145 0.571906 -1.211644
v -0.907145 0.531866 -1.234761
v -0.863506 0.571817 -1.211490
v -0.863506 0.531777 -1.234607
v -0.904228 0.574959 -1.761863
v -0.904228 0.528725 -1.761863
v -0.861771 0.574959 -1.761685
v -0.861771 0.528725 -1.761685
v -0.906069 0.574959 -1.223215
v -0.906069 0.528725 -1.223215
v -0.863609 0.574959 -1.223036
v -0.863609 0.528725 -1.223036
v -0.905254 0.302492 -1.701245
v -0.905254 0.262453 -1.678128
v -0.861616 0.302582 -1.701091
v -0.861616 0.262542 -1.677974
v -0.907145 0.571817 -1.234761
v -0.907145 0.531777 -1.211644
v -0.863506 0.571906 -1.234607
v -0.863506 0.531866 -1.211490
v -0.908728 0.096839 -1.512514
v -0.908728 0.073722 -1.472475
v -0.861093 0.096993 -1.512425
v -0.861093 0.073876 -1.472386
v -0.910791 0.563323 -1.243189
v -0.910791 0.540206 -1.203150
v -0.863155 0.563477 -1.243101
v -0.863155 0.540360 -1.203061
v -0.905254 0.013103 -1.246242
v -0.905254 0.013103 -1.200009
v -0.861616 0.013282 -1.246242
v -0.861616 0.013281 -1.200009
v -0.907145 0.551753 -1.246242
v -0.907145 0.551753 -1.200008
v -0.863506 0.551931 -1.246242
v -0.863506 0.551931 -1.200009
v -0.908728 0.073722 -0.973776
v -0.908728 0.096839 -0.933736
v -0.861093 0.073876 -0.973865
v -0.861093 0.096993 -0.933825
v -0.910791 0.540206 -1.243101
v -0.910791 0.563323 -1.203061
v -0.863155 0.540360 -1.243190
v -0.863155 0.563477 -1.203150
v -0.905254 0.262453 -0.768122
v -0.905254 0.302492 -0.745006
v -0.861616 0.262542 -0.768277
v -0.861616 0.302581 -0.745160
v -0.907145 0.531777 -1.234607
v -0.907145 0.571817 -1.211490
v -0.863506 0.531866 -1.234761
v -0.863506 0.571906 -1.211644
v -0.904228 0.528725 -0.684387
v -0.904228 0.574959 -0.684387
v -0.861771 0.528725 -0.684565
v -0.861771 0.574959 -0.684565
v -0.906069 0.528725 -1.223036
v -0.906069 0.574958 -1.223036
v -0.863609 0.528725 -1.223215
v -0.863609 0.574958 -1.223215
v -0.905254 0.801191 -0.745006
v -0.905254 0.841231 -0.768122
v -0.861616 0.801102 -0.745160
v -0.861616 0.841142 -0.768277
v -0.907145 0.531866 -1.211490
v -0.907145 0.571906 -1.234607
v -0.863506 0.531777 -1.211644
v -0.863506 0.571817 -1.234761
v -0.908728 1.006844 -0.933736
v -0.908728 1.029961 -0.973776
v -0.861093 1.006690 -0.933825
v -0.861093 1.029807 -0.973865
v -0.910791 0.540360 -1.203061
v -0.910791 0.563477 -1.243101
v -0.863155 0.540206 -1.203150
v -0.863155 0.563323 -1.243190
v -0.923700 0.551919 -1.293454
v -0.923700 0.521405 -1.286489
v -0.923700 0.496934 -1.266974
v -0.923700 0.483354 -1.238775
v -0.923700 0.483354 -1.207476
v -0.923700 0.496934 -1.179276
v -0.923700 0.521405 -1.159762
v -0.923700 0.551919 -1.152797
v -0.923700 0.582433 -1.159762
v -0.923700 0.606904 -1.179276
v -0.923700 0.620484 -1.207476
v -0.923700 0.620484 -1.238775
v -0.923700 0.606904 -1.266974
v -0.923700 0.582433 -1.286489
v -0.923700 0.534004 -1.260326
v -0.923700 0.551919 -1.264415
v -0.923700 0.519638 -1.248869
v -0.923700 0.511665 -1.232313
v -0.923700 0.511665 -1.213938
v -0.923700 0.519638 -1.197382
v -0.923700 0.534004 -1.185925
v -0.923700 0.551919 -1.181836
v -0.923700 0.569834 -1.185925
v -0.923700 0.584200 -1.197382
v -0.923700 0.592173 -1.213938
v -0.923700 0.592173 -1.232313
v -0.923700 0.584200 -1.248869
v -0.923700 0.569834 -1.260326
v -0.949974 0.538434 -1.251128
v -0.949974 0.551919 -1.254206
v -0.949974 0.527619 -1.242504
v -0.949974 0.521618 -1.230041
v -0.949974 0.521618 -1.216209
v -0.949974 0.527619 -1.203747
v -0.949974 0.538434 -1.195123
v -0.949974 0.551919 -1.192045
v -0.949974 0.565404 -1.195123
v -0.949974 0.576219 -1.203747
v -0.949974 0.582220 -1.216209
v -0.949974 0.582220 -1.230041
v -0.949974 0.576219 -1.242504
v -0.949974 0.565404 -1.251128
v -0.963621 0.542240 -1.243223
v -0.963621 0.551919 -1.245432
v -0.963621 0.534479 -1.237033
v -0.963621 0.530172 -1.228089
v -0.963621 0.530172 -1.218162
v -0.963621 0.534479 -1.209217
v -0.963621 0.542240 -1.203028
v -0.963621 0.551919 -1.200819
v -0.963621 0.561597 -1.203028
v -0.963621 0.569359 -1.209217
v -0.963621 0.573666 -1.218162
v -0.963621 0.573666 -1.228089
v -0.963621 0.569359 -1.237033
v -0.963621 0.561597 -1.243223
v -0.975704 0.551919 -1.223125
v -0.882048 0.551919 -1.293454
v -0.838139 0.551919 -1.293454
v -0.882048 0.582433 -1.286489
v -0.838139 0.582433 -1.286489
v -0.882048 0.606904 -1.266974
v -0.838139 0.606904 -1.266974
v -0.882048 0.620484 -1.238775
v -0.838139 0.620484 -1.238775
v -0.882048 0.620484 -1.207476
v -0.838139 0.620484 -1.207476
v -0.882048 0.606904 -1.179276
v -0.838139 0.606904 -1.179276
v -0.882048 0.582433 -1.159762
v -0.838139 0.582433 -1.159762
v -0.882048 0.551919 -1.152797
v -0.838139 0.551919 -1.152797
v -0.882048 0.521405 -1.159762
v -0.838139 0.521405 -1.159762
v -0.882048 0.496934 -1.179276
v -0.838139 0.496934 -1.179276
v -0.882048 0.483354 -1.207476
v -0.838139 0.483354 -1.207476
v -0.882048 0.483354 -1.238775
v -0.838139 0.483354 -1.238775
v -0.882048 0.496934 -1.266974
v -0.838139 0.496934 -1.266974
v -0.882048 0.521405 -1.286489
v -0.838139 0.521405 -1.286489
v -0.838139 0.569834 -1.260326
v -0.838139 0.551919 -1.264415
v -0.838139 0.584200 -1.248869
v -0.838139 0.592173 -1.232313
v -0.838139 0.592173 -1.213938
v -0.838139 0.584200 -1.197382
v -0.838139 0.569834 -1.185925
v -0.838139 0.551919 -1.181836
v -0.838139 0.534004 -1.185925
v -0.838139 0.519638 -1.197382
v -0.838139 0.511665 -1.213938
v -0.838139 0.511665 -1.232313
v -0.838139 0.519638 -1.248869
v -0.838139 0.534004 -1.260326
vn -0.0000 0.1840 -0.9829
vn -0.0000 -0.1840 0.9829
vn -0.9969 0.0783 0.0018
vn 0.9983 -0.0572 -0.0107
vn 0.9969 -0.0783 -0.0018
vn 0.9916 -0.1271 -0.0217
vn -0.0928 -0.9873 0.1291
vn 0.0976 0.9782 0.1831
vn -0.0976 -0.9782 -0.1831
vn -0.9983 0.0572 0.0107
vn -0.0976 -0.9835 -0.1522
vn -0.0975 -0.9866 -0.1309
vn -0.0968 -0.9937 -0.0565
vn -0.0958 -0.9954 0.0063
vn -0.0942 -0.9924 0.0791
vn 0.9935 -0.1122 -0.0181
vn 0.9940 -0.1083 -0.0129
vn 0.9948 -0.1015 -0.0086
vn 0.9956 -0.0933 -0.0053
vn -0.9956 0.0933 0.0053
vn -0.9948 0.1015 0.0086
vn -0.9940 0.1083 0.0129
vn -0.9935 0.1122 0.0181
vn 0.9978 -0.0667 -0.0038
vn 0.9980 -0.0625 -0.0053
vn 0.9982 -0.0596 -0.0071
vn 0.9983 -0.0578 -0.0093
vn -0.0958 -0.9954 0.0064
vn -0.9983 0.0578 0.0093
vn -0.9982 0.0596 0.0071
vn -0.9980 0.0625 0.0053
vn -0.9978 0.0667 0.0038
vn -0.9916 0.1271 0.0217
vn 0.0071 0.9829 0.1839
vn 0.0384 0.1838 -0.9822
vn -0.0385 -0.1838 0.9822
vn -0.0071 -0.9829 -0.1839
vn 0.0071 0.9829 0.1840
vn -0.0071 -0.9829 -0.1840
vn 0.0071 0.9829 0.1841
vn -0.0269 0.1840 -0.9826
vn 0.0268 -0.1840 0.9826
vn -0.0071 -0.9829 -0.1841
vn 1.0000 -0.0064 -0.0013
vn 0.0065 0.9789 0.2044
vn -0.0065 -0.9789 -0.2044
vn -1.0000 0.0064 0.0013
vn -0.0089 -0.9789 -0.2044
vn 0.0089 0.9789 0.2044
vn 0.9969 0.0783 0.0018
vn -0.9983 -0.0572 -0.0107
vn -0.9969 -0.0783 -0.0018
vn -0.9916 -0.1271 -0.0217
vn 0.0928 -0.9873 0.1291
vn -0.0976 0.9782 0.1831
vn 0.0976 -0.9782 -0.1831
vn 0.9983 0.0572 0.0107
vn 0.0976 -0.9835 -0.1522
vn 0.0975 -0.9866 -0.1309
vn 0.0968 -0.9937 -0.0565
vn 0.0958 -0.9954 0.0063
vn 0.0942 -0.9924 0.0791
vn -0.9935 -0.1122 -0.0181
vn -0.9940 -0.1083 -0.0129
vn -0.9948 -0.1015 -0.0086
vn -0.9956 -0.0933 -0.0053
vn 0.9956 0.0933 0.0053
vn 0.9948 0.1015 0.0086
vn 0.9940 0.1083 0.0129
vn 0.9935 0.1122 0.0181
vn -0.9978 -0.0667 -0.0038
vn -0.9980 -0.0625 -0.0053
vn -0.9982 -0.0596 -0.0071
vn -0.9983 -0.0578 -0.0093
vn 0.0958 -0.9954 0.0064
vn 0.9983 0.0578 0.0093
vn 0.9982 0.0596 0.0071
vn 0.9980 0.0625 0.0053
vn 0.9978 0.0667 0.0038
vn 0.9916 0.1271 0.0217
vn -0.0071 0.9829 0.1839
vn -0.0384 0.1838 -0.9822
vn 0.0385 -0.1838 0.9822
vn 0.0071 -0.9829 -0.1839
vn -0.0071 0.9829 0.1840
vn 0.0071 -0.9829 -0.1840
vn -0.0071 0.9829 0.1841
vn 0.0269 0.1840 -0.9826
vn -0.0268 -0.1840 0.9826
vn 0.0071 -0.9829 -0.1841
vn -1.0000 -0.0064 -0.0013
vn -0.0065 0.9789 0.2044
vn 0.0065 -0.9789 -0.2044
vn 1.0000 0.0064 0.0013
vn 0.0089 -0.9789 -0.2044
vn -0.0089 0.9789 0.2044
vn -0.0000 -0.1094 0.9940
vn -0.9994 0.0350 0.0039
vn 0.9994 -0.0350 -0.0039
vn -0.0000 0.1094 -0.9940
vn 0.0352 0.9934 0.1093
vn -1.0000 -0.0000 -0.0000
vn 1.0000 -0.0000 -0.0000
vn -0.0000 0.9940 0.1094
vn -0.0000 -0.9940 -0.1094
vn -0.0052 0.9829 0.1841
vn 0.0052 0.1854 -0.9827
vn -0.0052 -0.1854 0.9827
vn 0.0052 -0.9829 -0.1841
vn -0.0000 0.9930 0.1184
vn -0.0000 -0.1344 0.9909
vn -0.0000 0.1344 -0.9909
vn -0.0000 -0.9930 -0.1184
vn -0.9983 0.0579 0.0101
vn 0.0028 0.2232 -0.9748
vn -0.0028 -0.2232 0.9748
vn 0.9976 -0.0676 -0.0123
vn 0.0663 0.9746 0.2140
vn -0.9983 0.0578 0.0108
vn 0.9976 -0.0675 -0.0126
vn 0.0664 0.9808 0.1836
vn -0.9983 0.0577 0.0113
vn -0.0020 0.1565 -0.9877
vn 0.0020 -0.1565 0.9877
vn 0.9976 -0.0674 -0.0129
vn 0.0664 0.9845 0.1623
vn -0.9963 0.0841 0.0158
vn 0.9963 -0.0841 -0.0158
vn -0.0664 -0.9808 -0.1836
vn 0.9983 0.0579 0.0101
vn -0.0028 0.2232 -0.9748
vn 0.0028 -0.2232 0.9748
vn -0.9976 -0.0676 -0.0123
vn -0.0663 0.9746 0.2140
vn 0.9983 0.0578 0.0108
vn -0.9976 -0.0675 -0.0126
vn -0.0664 0.9808 0.1836
vn 0.9983 0.0577 0.0113
vn 0.0020 0.1565 -0.9877
vn -0.0020 -0.1565 0.9877
vn -0.9976 -0.0674 -0.0129
vn -0.0664 0.9845 0.1623
vn 0.9963 0.0841 0.0158
vn -0.9963 -0.0841 -0.0158
vn 0.0664 -0.9808 -0.1836
vn -0.0000 -0.0000 -1.0000
vn -0.0000 -0.1951 -0.9808
vn -0.0000 -0.3827 -0.9239
vn -0.0000 -0.5556 -0.8315
vn -0.0000 -0.7071 -0.7071
vn -0.0000 -0.8315 -0.5556
vn -0.0000 -0.9239 -0.3827
vn -0.0000 -0.9808 -0.1951
vn -0.0000 -1.0000 -0.0000
vn -0.0000 -0.9808 0.1951
vn -0.0000 -0.9239 0.3827
vn -0.0000 -0.8315 0.5556
vn -0.0000 -0.7071 0.7071
vn -0.0000 -0.5556 0.8315
vn -0.0000 -0.3827 0.9239
vn -0.0000 -0.1951 0.9808
vn -0.0000 -0.0000 1.0000
vn -0.0000 0.1951 0.9808
vn -0.0000 0.3827 0.9239
vn -0.0000 0.5556 0.8315
vn -0.0000 0.7071 0.7071
vn -0.0000 0.8315 0.5556
vn -0.0000 0.9239 0.3827
vn -0.0000 0.9808 0.1951
vn -0.0000 1.0000 -0.0000
vn -0.0000 0.9808 -0.1951
vn -0.0000 0.9239 -0.3827
vn -0.0000 0.8315 -0.5556
vn -0.0000 0.7071 -0.7071
vn -0.0000 0.5556 -0.8315
vn -0.0000 0.3827 -0.9239
vn -0.0000 0.1951 -0.9808
vn -0.9995 -0.0215 -0.0215
vn -0.9995 -0.0169 -0.0253
vn 0.9995 0.0282 -0.0117
vn 0.9995 0.0253 -0.0169
vn -0.9995 -0.0169 0.0253
vn -0.9995 -0.0215 0.0215
vn 0.9995 -0.0169 -0.0253
vn 0.9995 -0.0215 -0.0215
vn -0.9995 0.0169 0.0253
vn -0.9995 0.0117 0.0281
vn 0.9995 -0.0215 0.0215
vn 0.9995 -0.0169 0.0253
vn -0.9995 0.0215 -0.0215
vn -0.9995 0.0253 -0.0169
vn 0.9995 0.0117 0.0282
vn 0.9995 0.0169 0.0253
vn -0.9995 -0.0253 -0.0169
vn 0.9995 0.0215 -0.0215
vn -0.9995 -0.0117 0.0282
vn 0.9995 -0.0253 -0.0169
vn -0.9995 0.0215 0.0215
vn 0.9995 -0.0117 0.0282
vn -0.9995 0.0169 -0.0253
vn 0.9995 0.0215 0.0215
vn -0.9995 -0.0281 -0.0116
vn 0.9995 0.0169 -0.0253
vn -0.9995 -0.0059 0.0299
vn 0.9995 -0.0282 -0.0117
vn -0.9995 0.0253 0.0169
vn 0.9995 -0.0059 0.0299
vn -0.9995 0.0117 -0.0281
vn 0.9995 0.0253 0.0169
vn -0.9995 -0.0299 -0.0059
vn 0.9995 0.0117 -0.0282
vn -0.9995 -0.0000 0.0305
vn 0.9995 -0.0299 -0.0059
vn -0.9995 0.0281 0.0117
vn 0.9995 -0.0000 0.0305
vn -0.9995 0.0059 -0.0299
vn 0.9995 0.0282 0.0117
vn -0.9995 -0.0305 -0.0000
vn 0.9995 0.0059 -0.0299
vn 0.9995 -0.0305 -0.0000
vn -0.9995 0.0299 0.0059
vn -0.9995 -0.0000 -0.0304
vn 0.9995 0.0299 0.0059
vn -0.9995 -0.0299 0.0059
vn 0.9995 -0.0000 -0.0305
vn 0.9995 -0.0299 0.0059
vn -0.9995 0.0304 -0.0000
vn -0.9995 -0.0059 -0.0299
vn 0.9995 0.0305 -0.0000
vn -0.9995 -0.0282 0.0117
vn 0.9995 -0.0059 -0.0299
vn 0.9995 -0.0282 0.0117
vn -0.9995 0.0299 -0.0059
vn -0.9995 -0.0117 -0.0281
vn 0.9995 0.0299 -0.0059
vn -0.9995 0.0059 0.0299
vn -0.9995 -0.0253 0.0169
vn 0.9995 -0.0117 -0.0282
vn 0.9995 0.0059 0.0299
vn 0.9995 -0.0253 0.0169
vn -0.9995 0.0281 -0.0117
vn -1.0000 -0.0035 -0.0000
vn 1.0000 0.0035 -0.0000
vn -0.0041 1.0000 -0.0000
vn -1.0000 -0.0033 0.0019
vn -0.0000 -0.5000 -0.8660
vn -0.0000 0.5000 0.8660
vn 1.0000 0.0033 -0.0019
vn -0.0037 0.8660 -0.5000
vn -1.0000 -0.0018 0.0030
vn -0.0000 -0.8660 -0.5000
vn -0.0000 0.8660 0.5000
vn 1.0000 0.0018 -0.0030
vn -0.0041 0.5000 -0.8660
vn -1.0000 -0.0000 0.0034
vn 1.0000 -0.0000 -0.0034
vn -0.0042 -0.0000 -1.0000
vn -1.0000 0.0018 0.0030
vn -0.0000 -0.8660 0.5000
vn -0.0000 0.8660 -0.5000
vn 1.0000 -0.0018 -0.0030
vn -0.0041 -0.5000 -0.8660
vn -1.0000 0.0033 0.0019
vn -0.0000 -0.5000 0.8660
vn -0.0000 0.5000 -0.8660
vn 1.0000 -0.0033 -0.0019
vn -0.0037 -0.8660 -0.5000
vn -1.0000 0.0035 -0.0000
vn 1.0000 -0.0035 -0.0000
vn -0.0041 -1.0000 -0.0000
vn -1.0000 0.0033 -0.0019
vn 1.0000 -0.0033 0.0019
vn -0.0037 -0.8660 0.5000
vn -1.0000 0.0018 -0.0030
vn 1.0000 -0.0018 0.0030
vn -0.0041 -0.5000 0.8660
vn -1.0000 -0.0000 -0.0034
vn 1.0000 -0.0000 0.0034
vn -0.0042 -0.0000 1.0000
vn -1.0000 -0.0018 -0.0030
vn 1.0000 0.0018 0.0030
vn -0.0041 0.5000 0.8660
vn -1.0000 -0.0033 -0.0019
vn 1.0000 0.0033 0.0019
vn -0.0037 0.8660 0.5000
vn -0.0000 -0.4339 -0.9010
vn -0.0000 -0.7818 -0.6235
vn -0.0000 -0.9749 -0.2225
vn -0.0000 -0.9749 0.2225
vn -0.0000 -0.7818 0.6235
vn -0.0000 -0.4339 0.9010
vn -0.0000 0.4339 0.9010
vn -0.0000 0.7818 0.6235
vn -0.0000 0.9749 0.2225
vn -0.0000 0.9749 -0.2225
vn -0.0000 0.7818 -0.6235
vn -0.0000 0.4339 -0.9010
vn 0.3622 0.7288 0.5812
vn 0.3622 0.4044 0.8398
vn 0.4481 0.3879 0.8054
vn 0.4481 0.6989 0.5574
vn 0.4481 -0.8716 -0.1989
vn 0.4481 -0.6989 -0.5574
vn 0.7158 -0.5459 -0.4354
vn 0.7158 -0.6808 -0.1554
vn 0.3622 -0.7288 -0.5812
vn 0.3622 -0.4044 -0.8398
vn 0.4481 -0.3879 -0.8054
vn 0.3622 0.9087 0.2074
vn 0.4481 0.8716 0.1989
vn 0.3622 -0.9087 -0.2074
vn 0.3622 0.9087 -0.2074
vn 0.4481 0.8716 -0.1989
vn 0.3622 -0.9087 0.2074
vn 0.4481 -0.8716 0.1989
vn 0.3622 0.7288 -0.5812
vn 0.4481 0.6989 -0.5574
vn 0.3622 -0.7288 0.5812
vn 0.4481 -0.6989 0.5574
vn 0.3622 0.4044 -0.8398
vn 0.4481 0.3879 -0.8054
vn 0.3622 -0.4044 0.8398
vn 0.4481 -0.3879 0.8054
vn 0.3622 -0.0000 -0.9321
vn 0.4481 -0.0000 -0.8940
vn 0.3622 -0.0000 0.9321
vn 0.4481 -0.0000 0.8940
vn 0.7158 0.5459 -0.4354
vn 0.7158 0.6808 -0.1554
vn 0.7158 0.6808 0.1554
vn 0.7158 -0.6808 0.1554
vn 0.7158 -0.5459 0.4354
vn 0.7158 0.3030 -0.6291
vn 0.7158 -0.3030 0.6291
vn 0.7158 -0.0000 -0.6983
vn 0.7158 -0.0000 0.6983
vn 0.7158 0.3030 0.6291
vn 0.7158 -0.3030 -0.6291
vn 0.7158 0.5459 0.4354
vn -0.9995 0.0282 -0.0117
vn 0.9995 0.0117 0.0281
vn -0.9995 0.0117 0.0282
vn 0.9995 -0.0281 -0.0116
vn -0.9995 -0.0282 -0.0117
vn 0.9995 0.0117 -0.0281
vn -0.9995 0.0117 -0.0282
vn 0.9995 0.0281 0.0117
vn -0.9995 0.0282 0.0117
vn -0.9995 -0.0000 -0.0305
vn 0.9995 0.0304 -0.0000
vn -0.9995 0.0305 -0.0000
vn 0.9995 -0.0117 -0.0281
vn -0.9995 -0.0117 -0.0282
vn 0.9995 0.0281 -0.0117
vn 0.0041 1.0000 -0.0000
vn 0.0037 0.8660 -0.5000
vn 0.0041 0.5000 -0.8660
vn 0.0042 -0.0000 -1.0000
vn 0.0041 -0.5000 -0.8660
vn 0.0037 -0.8660 -0.5000
vn 0.0041 -1.0000 -0.0000
vn 0.0037 -0.8660 0.5000
vn 0.0041 -0.5000 0.8660
vn 0.0042 -0.0000 1.0000
vn 0.0041 0.5000 0.8660
vn 0.0037 0.8660 0.5000
vn -0.3622 0.7288 0.5812
vn -0.4481 0.6989 0.5574
vn -0.4481 0.3879 0.8054
vn -0.3622 0.4044 0.8398
vn -0.4481 -0.8716 -0.1989
vn -0.7158 -0.6808 -0.1554
vn -0.7158 -0.5459 -0.4354
vn -0.4481 -0.6989 -0.5574
vn -0.3622 -0.7288 -0.5812
vn -0.4481 -0.3879 -0.8054
vn -0.3622 -0.4044 -0.8398
vn -0.3622 0.9087 0.2074
vn -0.4481 0.8716 0.1989
vn -0.3622 -0.9087 -0.2074
vn -0.3622 0.9087 -0.2074
vn -0.4481 0.8716 -0.1989
vn -0.3622 -0.9087 0.2074
vn -0.4481 -0.8716 0.1989
vn -0.3622 0.7288 -0.5812
vn -0.4481 0.6989 -0.5574
vn -0.3622 -0.7288 0.5812
vn -0.4481 -0.6989 0.5574
vn -0.3622 0.4044 -0.8398
vn -0.4481 0.3879 -0.8054
vn -0.3622 -0.4044 0.8398
vn -0.4481 -0.3879 0.8054
vn -0.3622 -0.0000 -0.9321
vn -0.4481 -0.0000 -0.8940
vn -0.3622 -0.0000 0.9321
vn -0.4481 -0.0000 0.8940
vn -0.7158 0.5459 -0.4354
vn -0.7158 0.6808 -0.1554
vn -0.7158 0.6808 0.1554
vn -0.7158 -0.6808 0.1554
vn -0.7158 -0.5459 0.4354
vn -0.7158 0.3030 -0.6291
vn -0.7158 -0.3030 0.6291
vn -0.7158 -0.0000 -0.6983
vn -0.7158 -0.0000 0.6983
vn -0.7158 0.3030 0.6291
vn -0.7158 -0.3030 -0.6291
vn -0.7158 0.5459 0.4354
vt 0.087826 0.378476
vt 0.158826 0.378476
vt 0.158826 0.212019
vt 0.087826 0.212019
vt 0.685965 0.867594
vt 0.644942 0.867594
vt 0.644888 0.757548
vt 0.686037 0.757548
vt 0.000000 0.867594
vt 0.578264 0.867594
vt 0.578264 0.757548
vt 0.000000 0.757548
vt 0.644942 0.867594
vt 0.752648 0.867594
vt 1.000000 0.867594
vt 1.000000 0.757548
vt 0.752648 0.757548
vt 0.355112 0.694275
vt 0.355112 0.747131
vt 0.313963 0.747131
vt 0.313963 0.694275
vt 0.355058 0.694275
vt 0.355058 0.747131
vt 0.314035 0.747131
vt 0.314035 0.694275
vt 0.247352 0.694275
vt 0.247352 0.747131
vt 0.000000 0.747131
vt 0.000000 0.694275
vt 1.000000 0.694275
vt 1.000000 0.747131
vt 0.421736 0.747131
vt 0.421736 0.694275
vt 0.421736 0.747131
vt 0.421736 0.694275
vt 0.578264 0.867594
vt 0.578264 0.757548
vt 0.247352 0.694275
vt 0.247352 0.747131
vt 0.262735 0.694600
vt 0.262735 0.747456
vt 0.280993 0.695525
vt 0.280993 0.747131
vt 0.299120 0.694564
vt 0.299120 0.747419
vt 0.737265 0.755029
vt 0.735978 0.867594
vt 0.719007 0.757548
vt 0.719007 0.867594
vt 0.701214 0.755629
vt 0.702636 0.867594
vt 0.701214 0.755629
vt 0.737265 0.755029
vt 0.264022 0.694275
vt 0.264022 0.747131
vt 0.280993 0.694275
vt 0.297364 0.694275
vt 0.297364 0.747131
vt 0.371727 0.694275
vt 0.371727 0.747131
vt 0.388095 0.694275
vt 0.388095 0.747131
vt 0.405066 0.694275
vt 0.405066 0.747131
vt 0.629706 0.759012
vt 0.628273 0.867594
vt 0.611905 0.762465
vt 0.611905 0.867594
vt 0.593649 0.758826
vt 0.594934 0.867594
vt 0.369960 0.693987
vt 0.369960 0.746843
vt 0.388095 0.694275
vt 0.388095 0.745880
vt 0.406351 0.693951
vt 0.406351 0.746806
vt 0.593649 0.758826
vt 0.594934 0.867594
vt 0.611905 0.762465
vt 0.611905 0.867594
vt 0.629706 0.759012
vt 0.734107 0.691876
vt 0.734107 0.750551
vt 0.000000 0.750551
vt 0.000000 0.691876
vt 1.300223 0.750551
vt 0.566116 0.750551
vt 0.566116 0.691876
vt 1.300223 0.691876
vt 0.566116 0.750551
vt 0.566116 0.691876
vt 0.734107 0.691876
vt 0.734107 0.750551
vt 0.734107 0.691876
vt 0.734107 0.750551
vt 0.566116 0.750551
vt 0.566116 0.691876
vt 0.734107 0.750551
vt 0.566116 0.750551
vt 0.566116 0.750551
vt 0.734107 0.691876
vt 0.734107 0.750551
vt 1.000000 0.996838
vt 0.000000 0.996838
vt 0.000000 0.883658
vt 1.000000 0.883658
vt 0.554288 0.694275
vt 0.554288 0.747131
vt -0.445712 0.747131
vt -0.445712 0.694275
vt 0.554288 0.867594
vt -0.445712 0.867594
vt -0.445712 0.757548
vt 0.554288 0.757548
vt 0.790037 0.691876
vt 0.790037 0.750551
vt 0.238343 0.750551
vt 0.238343 0.691876
vt 1.061880 0.750551
vt 0.510186 0.750551
vt 0.510186 0.691876
vt 1.061880 0.691876
vt 0.510186 0.750551
vt 0.510186 0.691876
vt 0.238343 0.750551
vt 0.495282 0.213531
vt 0.495282 0.373969
vt 0.339564 0.373969
vt 0.339564 0.213531
vt 0.248127 0.750551
vt 0.248127 0.691876
vt 1.052096 0.750551
vt 1.052096 0.691876
vt 1.052096 0.750551
vt 0.248127 0.691876
vt 0.158826 0.212019
vt 0.158826 0.212019
vt 0.158826 0.378476
vt 0.545282 0.694275
vt 0.545282 0.747131
vt 0.046408 0.747131
vt 0.046408 0.694275
vt 0.953592 0.996838
vt 0.454718 0.996838
vt 0.454718 0.883658
vt 0.953592 0.883658
vt 0.454718 0.996838
vt 0.953592 0.996838
vt 0.953592 0.883658
vt 0.454718 0.883658
vt 0.158827 0.378476
vt 0.158826 0.212019
vt 0.087826 0.212019
vt 0.099570 0.694275
vt 0.099570 0.747131
vt -0.413982 0.747131
vt -0.413982 0.694275
vt 0.522558 0.867594
vt 0.009006 0.867594
vt 0.009006 0.757548
vt 0.522558 0.757548
vt 0.009006 0.867594
vt 0.522558 0.867594
vt 0.522558 0.757548
vt 0.009006 0.757548
vt 0.099570 0.747131
vt 0.845658 0.691876
vt 0.845658 0.750551
vt -0.258421 0.750551
vt -0.258421 0.691876
vt 1.558643 0.750551
vt 0.454565 0.750551
vt 0.454565 0.691876
vt 1.558643 0.691876
vt 0.454565 0.750551
vt 0.454565 0.691876
vt 0.538863 0.745859
vt 0.538863 0.698928
vt -0.461137 0.698928
vt -0.461137 0.745859
vt 0.204277 0.440064
vt 0.204277 0.391898
vt 0.145828 0.391898
vt 0.145828 0.440064
vt 0.087379 0.391898
vt 0.087379 0.440064
vt 0.028931 0.391898
vt 0.028931 0.440064
vt -0.029518 0.391898
vt -0.029518 0.440064
vt -0.087967 0.391898
vt -0.087967 0.440064
vt -0.146416 0.391898
vt -0.146416 0.440064
vt -0.204864 0.391898
vt -0.204864 0.440064
vt -0.263313 0.391898
vt -0.263313 0.440064
vt 1.607048 0.440064
vt 1.607048 0.391898
vt 1.548599 0.391898
vt 1.548599 0.440064
vt 1.490149 0.391898
vt 1.490149 0.440064
vt 1.431701 0.391898
vt 1.431701 0.440064
vt 1.373252 0.391898
vt 1.373252 0.440064
vt 1.314803 0.391898
vt 1.314803 0.440064
vt 1.256354 0.391898
vt 1.256354 0.440064
vt 1.197906 0.391898
vt 1.197906 0.440064
vt 1.139457 0.391898
vt 1.139457 0.440064
vt 1.081008 0.391898
vt 1.081008 0.440064
vt 1.022560 0.391898
vt 1.022560 0.440064
vt 0.964111 0.391898
vt 0.964111 0.440064
vt 0.905662 0.391898
vt 0.905662 0.440064
vt 0.847213 0.391898
vt 0.847213 0.440064
vt 0.788765 0.391898
vt 0.788765 0.440064
vt 0.730316 0.391898
vt 0.730316 0.440064
vt 0.671867 0.391898
vt 0.671867 0.440064
vt 0.613418 0.391898
vt 0.613418 0.440064
vt 0.554969 0.391898
vt 0.554970 0.440064
vt 0.496521 0.391898
vt 0.496521 0.440064
vt 0.438072 0.391898
vt 0.438072 0.440064
vt 0.379623 0.391898
vt 0.379623 0.440064
vt 0.321175 0.391898
vt 0.321175 0.440064
vt 0.262726 0.391898
vt 0.262726 0.440064
vt 0.262726 0.440064
vt 0.321175 0.440064
vt 0.321175 0.391898
vt 0.262726 0.391898
vt 0.204278 0.440064
vt 0.204278 0.391898
vt 0.379624 0.440064
vt 0.379624 0.391898
vt 0.438072 0.440064
vt 0.438072 0.391898
vt 0.496521 0.440064
vt 0.496521 0.391898
vt 0.554970 0.391898
vt 0.671867 0.440064
vt 0.671867 0.391898
vt 0.730316 0.440064
vt 0.730316 0.391898
vt 0.788764 0.440064
vt 0.788764 0.391898
vt 0.847213 0.440064
vt 0.847213 0.391898
vt 0.905662 0.440064
vt 0.905662 0.391898
vt 0.964110 0.440064
vt 0.964110 0.391898
vt 1.022559 0.440064
vt 1.022559 0.391898
vt 1.081008 0.440064
vt 1.081008 0.391898
vt 1.139456 0.440064
vt 1.139456 0.391898
vt 1.197905 0.440064
vt 1.197905 0.391898
vt 1.256354 0.440064
vt 1.256354 0.391898
vt 1.314802 0.440064
vt 1.314802 0.391898
vt 1.373251 0.440064
vt 1.373251 0.391898
vt 1.431700 0.440064
vt 1.431700 0.391898
vt 1.490148 0.440064
vt 1.490148 0.391898
vt 1.548597 0.440064
vt 1.548597 0.391898
vt 1.607046 0.440064
vt 1.607046 0.391898
vt -0.263312 0.440064
vt -0.204863 0.440064
vt -0.204863 0.391898
vt -0.263312 0.391898
vt -0.146414 0.440064
vt -0.146414 0.391898
vt -0.087966 0.440064
vt -0.087966 0.391898
vt -0.029517 0.440064
vt -0.029517 0.391898
vt 0.028932 0.440064
vt 0.028932 0.391898
vt 0.087380 0.440064
vt 0.087380 0.391898
vt 0.145829 0.440064
vt 0.145829 0.391898
vt 0.655969 0.391898
vt 0.655969 0.440064
vt 0.719217 0.440064
vt 0.719217 0.391898
vt -0.295186 0.391898
vt -0.295186 0.440064
vt -0.231937 0.440064
vt -0.231937 0.391898
vt 0.086733 0.391898
vt 0.086733 0.440064
vt 0.149982 0.440064
vt 0.149982 0.391898
vt 0.274050 0.391898
vt 0.274050 0.440064
vt 0.337298 0.440064
vt 0.337298 0.391898
vt -0.292757 0.391898
vt -0.292757 0.440064
vt -0.229509 0.440064
vt -0.229509 0.391898
vt 0.843285 0.391898
vt 0.843285 0.440064
vt 0.906533 0.440064
vt 0.906533 0.391898
vt 1.161956 0.391898
vt 1.161956 0.440064
vt 1.225204 0.440064
vt 1.225204 0.391898
vt 1.222775 0.391898
vt 1.222775 0.440064
vt 1.286023 0.440064
vt 1.286023 0.391898
vt 0.592720 0.391898
vt 0.592720 0.440064
vt -0.168689 0.440064
vt -0.168689 0.391898
vt 0.023485 0.391898
vt 0.023485 0.440064
vt 0.400546 0.440064
vt 0.400546 0.391898
vt -0.356006 0.391898
vt -0.356006 0.440064
vt 0.969782 0.440064
vt 0.969782 0.391898
vt 1.098707 0.391898
vt 1.098707 0.440064
vt 1.349272 0.440064
vt 1.349272 0.391898
vt 0.529472 0.391898
vt 0.529472 0.440064
vt -0.105441 0.440064
vt -0.105441 0.391898
vt -0.039764 0.391898
vt -0.039764 0.440064
vt 0.463795 0.440064
vt 0.463795 0.391898
vt -0.419254 0.391898
vt -0.419254 0.440064
vt 1.033030 0.440064
vt 1.033030 0.391898
vt 1.035459 0.391898
vt 1.035459 0.440064
vt 1.412520 0.440064
vt 1.412520 0.391898
vt 0.466223 0.391898
vt 0.466223 0.440064
vt -0.042192 0.440064
vt -0.042192 0.391898
vt -0.103012 0.391898
vt -0.103012 0.440064
vt 0.527043 0.440064
vt 0.527043 0.391898
vt -0.482502 0.391898
vt -0.482502 0.440064
vt 1.096278 0.440064
vt 1.096278 0.391898
vt 0.972211 0.391898
vt 0.972211 0.440064
vt 1.475768 0.440064
vt 1.475768 0.391898
vt 0.402975 0.391898
vt 0.402975 0.440064
vt 0.021056 0.440064
vt 0.021056 0.391898
vt 0.590292 0.440064
vt 0.590292 0.391898
vt -0.545751 0.391898
vt -0.545751 0.440064
vt 0.908962 0.391898
vt 0.908962 0.440064
vt 1.539017 0.440064
vt 1.539017 0.391898
vt 0.339727 0.391898
vt 0.339727 0.440064
vt 0.084305 0.440064
vt 0.084305 0.391898
vt 0.653540 0.440064
vt 0.653540 0.391898
vt -0.608999 0.391898
vt -0.608999 0.440064
vt 0.845714 0.391898
vt 0.845714 0.440064
vt 1.602265 0.440064
vt 1.602266 0.391898
vt 0.276478 0.391898
vt 0.276478 0.440064
vt 0.147553 0.440064
vt 0.147553 0.391898
vt 0.716788 0.440064
vt 0.716788 0.391898
vt 1.351701 0.391898
vt 1.351701 0.440064
vt 1.414949 0.440064
vt 1.414949 0.391898
vt 0.782465 0.391898
vt 0.782465 0.440064
vt -0.421683 0.391898
vt -0.421683 0.440064
vt -0.358434 0.440064
vt -0.358434 0.391898
vt -0.166260 0.391898
vt -0.166260 0.440064
vt 0.213230 0.391898
vt 0.213230 0.440064
vt 0.210801 0.440064
vt 0.210801 0.391898
vt 1.159527 0.440064
vt 1.159527 0.391898
vt 0.780037 0.440064
vt 0.780037 0.391898
vt 1.288452 0.391898
vt 1.288452 0.440064
vt 0.790037 0.384803
vt 0.790037 0.432731
vt 0.000000 0.432731
vt 0.000000 0.384803
vt 1.300223 0.432731
vt 0.510186 0.432731
vt 0.510186 0.384803
vt 1.300223 0.384803
vt 0.510186 0.432731
vt 0.510186 0.384803
vt 0.847381 0.199965
vt 0.847381 0.123353
vt 0.918805 0.123353
vt 0.918805 0.199965
vt 0.990229 0.123353
vt 0.990229 0.199965
vt 1.061653 0.123353
vt 1.061653 0.199965
vt 0.061714 0.199965
vt 0.061714 0.123353
vt 0.133138 0.123353
vt 0.133138 0.199965
vt 0.204563 0.123353
vt 0.204562 0.199965
vt 0.275987 0.123353
vt 0.275987 0.199965
vt 0.347411 0.123353
vt 0.347411 0.199965
vt 0.418835 0.123353
vt 0.418835 0.199965
vt 0.490259 0.123353
vt 0.490259 0.199965
vt 0.561684 0.123353
vt 0.561684 0.199965
vt 0.633108 0.123353
vt 0.633108 0.199965
vt 0.704532 0.123353
vt 0.704532 0.199965
vt 0.709810 0.199965
vt 0.642263 0.199965
vt 0.642263 0.123353
vt 0.709810 0.123353
vt 0.775957 0.123353
vt 0.775956 0.199965
vt 0.513935 0.193942
vt 0.502501 0.183004
vt 0.518390 0.172243
vt 0.524150 0.177212
vt 0.236982 0.199965
vt 0.169435 0.199965
vt 0.169435 0.123353
vt 0.236982 0.123353
vt 0.574717 0.199965
vt 0.507170 0.199965
vt 0.507170 0.123353
vt 0.574716 0.123353
vt 1.047545 0.199965
vt 0.979998 0.199965
vt 0.979998 0.123353
vt 1.047545 0.123353
vt 0.439623 0.199965
vt 0.372076 0.199965
vt 0.372076 0.123353
vt 0.439623 0.123353
vt 0.912451 0.199965
vt 0.844904 0.199965
vt 0.844904 0.123353
vt 0.912451 0.123353
vt 0.777357 0.199965
vt 0.777357 0.123353
vt 0.304529 0.199965
vt 0.304529 0.123353
vt 0.101888 0.199965
vt 0.101888 0.123353
vt 0.532996 0.144393
vt 0.540699 0.146409
vt 0.536864 0.153574
vt 0.532862 0.152356
vt 0.549403 0.127393
vt 0.563214 0.138321
vt 0.546715 0.151678
vt 0.529284 0.199228
vt 0.531482 0.179310
vt 0.532476 0.123834
vt 0.545928 0.197433
vt 0.539116 0.178032
vt 0.516093 0.127996
vt 0.525330 0.145928
vt 0.560653 0.188274
vt 0.545453 0.173505
vt 0.503461 0.138594
vt 0.519144 0.150593
vt 0.570182 0.172834
vt 0.549021 0.166692
vt 0.496758 0.153164
vt 0.515558 0.157430
vt 0.570776 0.154530
vt 0.549690 0.158993
vt 0.496758 0.168679
vt 0.515167 0.165196
vt 0.539655 0.168105
vt 0.536228 0.170658
vt 0.532410 0.161860
vt 0.532010 0.171482
vt 0.528697 0.153065
vt 0.525248 0.155535
vt 0.541634 0.164343
vt 0.523201 0.159265
vt 0.541809 0.160102
vt 0.522960 0.163530
vt 0.524603 0.167501
vt 0.540099 0.156232
vt 0.527806 0.170420
vt 0.009671 0.642761
vt 0.009671 0.635939
vt 0.944984 0.635939
vt 0.944984 0.642761
vt 0.009671 0.595012
vt 0.009671 0.588191
vt 0.944984 0.588191
vt 0.944984 0.595012
vt 0.009671 0.629118
vt 0.944984 0.629118
vt 0.009671 0.581369
vt 0.944984 0.581369
vt 0.009671 0.622297
vt 0.944984 0.622297
vt 0.009671 0.676867
vt 0.009671 0.670046
vt 0.944984 0.670045
vt 0.944984 0.676867
vt 0.009671 0.615476
vt 0.944984 0.615476
vt 0.009671 0.663224
vt 0.944984 0.663224
vt 0.009671 0.608654
vt 0.944984 0.608654
vt 0.009671 0.656403
vt 0.944984 0.656403
vt 0.009671 0.601833
vt 0.944984 0.601833
vt 0.009671 0.649582
vt 0.944984 0.649582
f 1/1/1 2/2/1 4/3/1 3/4/1
f 7/4/2 8/3/2 6/2/2 5/1/2
f 10/5/3 40/6/3 34/7/3 25/8/3
f 3/9/4 30/10/4 45/11/4 1/12/4
f 29/13/5 19/5/5 14/8/5 44/7/5
f 20/14/6 7/15/6 5/16/6 15/17/6
f 34/18/7 44/19/7 14/20/7 25/21/7
f 29/22/8 40/23/8 10/24/8 19/25/8
f 20/26/8 9/27/8 8/28/8 7/29/8
f 2/30/9 1/31/9 45/32/9 35/33/9
f 3/30/8 4/31/8 39/34/8 30/35/8
f 39/36/10 4/9/10 2/12/10 35/37/10
f 24/38/11 15/39/11 5/28/11 6/29/11
f 15/39/12 24/38/12 26/40/12 18/41/12
f 18/41/13 26/40/13 27/42/13 17/43/13
f 17/43/14 27/42/14 28/44/14 16/45/14
f 16/45/15 28/44/15 25/21/15 14/20/15
f 20/14/16 15/17/16 18/46/16 23/47/16
f 23/47/17 18/46/17 17/48/17 22/49/17
f 22/49/18 17/48/18 16/50/18 21/51/18
f 21/51/19 16/50/19 14/8/19 19/5/19
f 10/5/20 25/8/20 28/52/20 13/51/20
f 13/51/21 28/52/21 27/48/21 12/49/21
f 12/49/22 27/48/22 26/53/22 11/47/22
f 11/47/23 26/53/23 24/17/23 9/14/23
f 9/27/8 20/26/8 23/54/8 11/55/8
f 11/55/8 23/54/8 22/56/8 12/43/8
f 12/43/8 22/56/8 21/57/8 13/58/8
f 13/58/8 21/57/8 19/25/8 10/24/8
f 40/23/8 29/22/8 31/59/8 43/60/8
f 43/60/8 31/59/8 32/61/8 42/62/8
f 42/62/8 32/61/8 33/63/8 41/64/8
f 41/64/8 33/63/8 30/35/8 39/34/8
f 29/13/24 44/7/24 46/65/24 31/66/24
f 31/66/25 46/65/25 47/67/25 32/68/25
f 32/68/26 47/67/26 48/69/26 33/70/26
f 33/70/27 48/69/27 45/11/27 30/10/27
f 44/19/15 34/18/15 36/71/15 46/72/15
f 46/72/28 36/71/28 37/73/28 47/74/28
f 47/74/13 37/73/13 38/75/13 48/76/13
f 48/76/12 38/75/12 35/33/12 45/32/12
f 39/36/29 35/37/29 38/77/29 41/78/29
f 41/78/30 38/77/30 37/79/30 42/80/30
f 42/80/31 37/79/31 36/81/31 43/66/31
f 43/66/32 36/81/32 34/7/32 40/6/32
f 8/15/33 9/14/33 24/17/33 6/16/33
f 51/82/34 52/83/34 56/84/34 55/85/34
f 56/86/35 52/87/35 50/88/35 54/89/35
f 51/90/36 55/86/36 53/89/36 49/91/36
f 50/92/37 49/93/37 53/84/37 54/85/37
f 59/94/38 60/95/38 64/84/38 63/85/38
f 64/86/1 60/87/1 58/91/1 62/89/1
f 59/96/2 63/86/2 61/89/2 57/97/2
f 58/94/39 57/95/39 61/84/39 62/85/39
f 67/94/40 68/98/40 72/84/40 71/85/40
f 72/86/41 68/99/41 66/88/41 70/89/41
f 67/100/42 71/86/42 69/89/42 65/97/42
f 66/101/43 65/102/43 69/84/43 70/85/43
f 73/1/1 74/2/1 76/3/1 75/4/1
f 79/4/2 80/3/2 78/2/2 77/1/2
f 75/30/44 76/31/44 80/28/44 79/29/44
f 80/15/45 76/9/45 74/12/45 78/16/45
f 75/9/46 79/15/46 77/16/46 73/12/46
f 74/30/47 73/31/47 77/28/47 78/29/47
f 81/1/1 82/2/1 84/3/1 83/4/1
f 87/4/2 88/3/2 86/2/2 85/1/2
f 83/30/47 84/31/47 88/28/47 87/29/47
f 88/103/46 84/104/46 82/105/46 86/106/46
f 83/104/45 87/103/45 85/106/45 81/105/45
f 82/30/44 81/31/44 85/28/44 86/29/44
f 89/1/1 90/2/1 92/3/1 91/4/1
f 95/4/2 96/3/2 94/2/2 93/1/2
f 91/107/47 92/108/47 96/109/47 95/110/47
f 96/111/48 92/112/48 90/113/48 94/114/48
f 91/112/49 95/111/49 93/114/49 89/113/49
f 90/107/44 89/108/44 93/109/44 94/110/44
f 97/1/1 99/4/1 100/3/1 98/2/1
f 103/4/2 101/1/2 102/2/2 104/3/2
f 106/5/50 121/8/50 130/7/50 136/6/50
f 99/9/51 97/12/51 141/11/51 126/10/51
f 125/13/52 140/7/52 110/8/52 115/5/52
f 116/14/53 111/17/53 101/16/53 103/15/53
f 130/18/54 121/21/54 110/20/54 140/19/54
f 125/22/55 115/25/55 106/24/55 136/23/55
f 116/26/55 103/29/55 104/28/55 105/27/55
f 98/30/56 131/33/56 141/32/56 97/31/56
f 99/30/55 126/35/55 135/34/55 100/31/55
f 135/36/57 131/37/57 98/12/57 100/9/57
f 120/38/58 102/29/58 101/28/58 111/39/58
f 111/39/59 114/41/59 122/40/59 120/38/59
f 114/41/60 113/43/60 123/42/60 122/40/60
f 113/43/61 112/45/61 124/44/61 123/42/61
f 112/45/62 110/20/62 121/21/62 124/44/62
f 116/14/63 119/47/63 114/46/63 111/17/63
f 119/47/64 118/49/64 113/48/64 114/46/64
f 118/49/65 117/51/65 112/50/65 113/48/65
f 117/51/66 115/5/66 110/8/66 112/50/66
f 106/5/67 109/51/67 124/52/67 121/8/67
f 109/51/68 108/49/68 123/48/68 124/52/68
f 108/49/69 107/47/69 122/53/69 123/48/69
f 107/47/70 105/14/70 120/17/70 122/53/70
f 105/27/55 107/55/55 119/54/55 116/26/55
f 107/55/55 108/43/55 118/56/55 119/54/55
f 108/43/55 109/58/55 117/57/55 118/56/55
f 109/58/55 106/24/55 115/25/55 117/57/55
f 136/23/55 139/60/55 127/59/55 125/22/55
f 139/60/55 138/62/55 128/61/55 127/59/55
f 138/62/55 137/64/55 129/63/55 128/61/55
f 137/64/55 135/34/55 126/35/55 129/63/55
f 125/13/71 127/66/71 142/65/71 140/7/71
f 127/66/72 128/68/72 143/67/72 142/65/72
f 128/68/73 129/70/73 144/69/73 143/67/73
f 129/70/74 126/10/74 141/11/74 144/69/74
f 140/19/62 142/72/62 132/71/62 130/18/62
f 142/72/75 143/74/75 133/73/75 132/71/75
f 143/74/60 144/76/60 134/75/60 133/73/60
f 144/76/59 141/32/59 131/33/59 134/75/59
f 135/36/76 137/78/76 134/77/76 131/37/76
f 137/78/77 138/80/77 133/79/77 134/77/77
f 138/80/78 139/66/78 132/81/78 133/79/78
f 139/66/79 136/6/79 130/7/79 132/81/79
f 104/15/80 102/16/80 120/17/80 105/14/80
f 147/82/81 55/85/81 56/84/81 148/83/81
f 56/86/82 54/89/82 146/88/82 148/87/82
f 147/90/83 145/91/83 53/89/83 55/86/83
f 146/92/84 54/85/84 53/84/84 145/93/84
f 151/94/85 63/85/85 64/84/85 152/95/85
f 64/86/1 62/89/1 150/91/1 152/87/1
f 151/96/2 149/97/2 61/89/2 63/86/2
f 150/94/86 62/85/86 61/84/86 149/95/86
f 155/94/87 71/85/87 72/84/87 156/98/87
f 72/86/88 70/89/88 154/88/88 156/99/88
f 155/100/89 153/97/89 69/89/89 71/86/89
f 154/101/90 70/85/90 69/84/90 153/102/90
f 157/1/1 159/4/1 160/3/1 158/2/1
f 163/4/2 161/1/2 162/2/2 164/3/2
f 159/30/91 163/29/91 164/28/91 160/31/91
f 164/15/92 162/16/92 158/12/92 160/9/92
f 159/9/93 157/12/93 161/16/93 163/15/93
f 158/30/94 162/29/94 161/28/94 157/31/94
f 165/1/1 167/4/1 168/3/1 166/2/1
f 171/4/2 169/1/2 170/2/2 172/3/2
f 167/30/94 171/29/94 172/28/94 168/31/94
f 172/103/93 170/106/93 166/105/93 168/104/93
f 167/104/92 165/105/92 169/106/92 171/103/92
f 166/30/91 170/29/91 169/28/91 165/31/91
f 173/1/1 175/4/1 176/3/1 174/2/1
f 179/4/2 177/1/2 178/2/2 180/3/2
f 175/107/94 179/110/94 180/109/94 176/108/94
f 180/111/95 178/114/95 174/113/95 176/112/95
f 175/112/96 173/113/96 177/114/96 179/111/96
f 174/107/91 178/110/91 177/109/91 173/108/91
f 183/115/97 184/116/97 188/117/97 187/118/97
f 188/119/98 184/120/98 182/121/98 186/122/98
f 183/123/99 187/119/99 185/122/99 181/124/99
f 182/115/100 181/116/100 185/125/100 186/118/100
f 183/126/101 181/127/101 182/128/101 184/129/101
f 191/115/97 192/116/97 196/130/97 195/131/97
f 196/132/102 192/120/102 190/121/102 194/133/102
f 191/123/103 195/134/103 193/133/103 189/124/103
f 190/115/100 189/116/100 193/130/100 194/135/100
f 191/126/104 189/127/104 190/128/104 192/129/104
f 197/1/102 198/2/102 200/136/102 199/4/102
f 203/4/103 204/137/103 202/138/103 201/1/103
f 199/139/105 200/140/105 204/141/105 203/142/105
f 204/143/100 200/144/100 198/145/100 202/146/100
f 199/147/97 203/148/97 201/149/97 197/150/97
f 198/139/104 197/140/104 201/141/104 202/142/104
f 205/1/102 206/151/102 208/152/102 207/153/102
f 211/4/103 212/3/103 210/2/103 209/1/103
f 207/154/105 208/155/105 212/156/105 211/157/105
f 212/158/100 208/159/100 206/160/100 210/161/100
f 207/162/97 211/163/97 209/164/97 205/165/97
f 206/154/104 205/166/104 209/156/104 210/157/104
f 215/167/106 216/168/106 220/169/106 219/170/106
f 220/171/107 216/172/107 214/173/107 218/174/107
f 215/175/108 219/171/108 217/174/108 213/176/108
f 214/167/109 213/168/109 217/169/109 218/170/109
f 221/1/103 223/4/103 224/3/103 222/2/103
f 227/4/102 225/1/102 226/2/102 228/3/102
f 223/30/110 227/29/110 228/28/110 224/31/110
f 228/177/111 226/178/111 222/179/111 224/180/111
f 223/180/112 221/179/112 225/178/112 227/177/112
f 222/30/113 226/29/113 225/28/113 221/31/113
f 231/115/114 232/116/114 236/84/114 235/85/114
f 236/86/115 232/120/115 230/121/115 234/89/115
f 231/123/116 235/86/116 233/89/116 229/124/116
f 230/115/117 229/116/117 233/84/117 234/85/117
f 231/126/118 229/127/118 230/128/118 232/129/118
f 239/115/119 240/116/119 244/84/119 243/85/119
f 244/86/1 240/120/1 238/121/1 242/89/1
f 239/123/2 243/86/2 241/89/2 237/124/2
f 238/115/120 237/116/120 241/84/120 242/85/120
f 239/126/121 237/127/121 238/128/121 240/129/121
f 247/115/122 248/116/122 252/84/122 251/85/122
f 252/86/123 248/120/123 246/121/123 250/89/123
f 247/123/124 251/86/124 249/89/124 245/124/124
f 246/115/125 245/116/125 249/84/125 250/85/125
f 247/126/126 245/127/126 246/128/126 248/129/126
f 253/1/1 254/2/1 256/3/1 255/4/1
f 259/4/2 260/3/2 258/2/2 257/1/2
f 255/30/121 256/31/121 260/28/121 259/29/121
f 260/15/127 256/9/127 254/12/127 258/16/127
f 255/9/128 259/15/128 257/16/128 253/12/128
f 254/30/129 253/31/129 257/28/129 258/29/129
f 261/1/1 262/2/1 264/3/1 263/4/1
f 267/4/2 268/3/2 266/2/2 265/1/2
f 263/30/129 264/31/129 268/28/129 267/29/129
f 268/103/128 264/104/128 262/105/128 266/106/128
f 263/104/127 267/103/127 265/106/127 261/105/127
f 262/30/121 261/31/121 265/28/121 266/29/121
f 269/1/1 270/2/1 272/3/1 271/4/1
f 275/4/2 276/3/2 274/2/2 273/1/2
f 271/107/129 272/108/129 276/109/129 275/110/129
f 276/111/128 272/112/128 270/113/128 274/114/128
f 271/112/127 275/111/127 273/114/127 269/113/127
f 270/107/121 269/108/121 273/109/121 274/110/121
f 279/115/130 283/85/130 284/84/130 280/116/130
f 284/86/131 282/89/131 278/121/131 280/120/131
f 279/123/132 277/124/132 281/89/132 283/86/132
f 278/115/133 282/85/133 281/84/133 277/116/133
f 279/126/134 280/129/134 278/128/134 277/127/134
f 287/115/135 291/85/135 292/84/135 288/116/135
f 292/86/1 290/89/1 286/121/1 288/120/1
f 287/123/2 285/124/2 289/89/2 291/86/2
f 286/115/136 290/85/136 289/84/136 285/116/136
f 287/126/137 288/129/137 286/128/137 285/127/137
f 295/115/138 299/85/138 300/84/138 296/116/138
f 300/86/139 298/89/139 294/121/139 296/120/139
f 295/123/140 293/124/140 297/89/140 299/86/140
f 294/115/141 298/85/141 297/84/141 293/116/141
f 295/126/142 296/129/142 294/128/142 293/127/142
f 301/1/1 303/4/1 304/3/1 302/2/1
f 307/4/2 305/1/2 306/2/2 308/3/2
f 303/30/137 307/29/137 308/28/137 304/31/137
f 308/15/143 306/16/143 302/12/143 304/9/143
f 303/9/144 301/12/144 305/16/144 307/15/144
f 302/30/145 306/29/145 305/28/145 301/31/145
f 309/1/1 311/4/1 312/3/1 310/2/1
f 315/4/2 313/1/2 314/2/2 316/3/2
f 311/30/145 315/29/145 316/28/145 312/31/145
f 316/103/144 314/106/144 310/105/144 312/104/144
f 311/104/143 309/105/143 313/106/143 315/103/143
f 310/30/137 314/29/137 313/28/137 309/31/137
f 317/1/1 319/4/1 320/3/1 318/2/1
f 323/4/2 321/1/2 322/2/2 324/3/2
f 319/107/145 323/110/145 324/109/145 320/108/145
f 324/111/144 322/114/144 318/113/144 320/112/144
f 319/112/143 317/113/143 321/114/143 323/111/143
f 318/107/137 322/110/137 321/109/137 317/108/137
f 325/181/146 326/182/146 328/183/147 327/184/147
f 327/184/147 328/183/147 330/185/148 329/186/148
f 329/186/148 330/185/148 332/187/149 331/188/149
f 331/188/149 332/187/149 334/189/150 333/190/150
f 333/190/150 334/189/150 336/191/151 335/192/151
f 335/192/151 336/191/151 338/193/152 337/194/152
f 337/194/152 338/193/152 340/195/153 339/196/153
f 339/196/153 340/195/153 342/197/154 341/198/154
f 341/199/154 342/200/154 344/201/155 343/202/155
f 343/202/155 344/201/155 346/203/156 345/204/156
f 345/204/156 346/203/156 348/205/157 347/206/157
f 347/206/157 348/205/157 350/207/158 349/208/158
f 349/208/158 350/207/158 352/209/159 351/210/159
f 351/210/159 352/209/159 354/211/160 353/212/160
f 353/212/160 354/211/160 356/213/161 355/214/161
f 355/214/161 356/213/161 358/215/162 357/216/162
f 357/216/162 358/215/162 360/217/163 359/218/163
f 359/218/163 360/217/163 362/219/164 361/220/164
f 361/220/164 362/219/164 364/221/165 363/222/165
f 363/222/165 364/221/165 366/223/166 365/224/166
f 365/224/166 366/223/166 368/225/167 367/226/167
f 367/226/167 368/225/167 370/227/168 369/228/168
f 369/228/168 370/227/168 372/229/169 371/230/169
f 371/230/169 372/229/169 374/231/170 373/232/170
f 373/232/170 374/231/170 376/233/171 375/234/171
f 375/234/171 376/233/171 378/235/172 377/236/172
f 377/236/172 378/235/172 380/237/173 379/238/173
f 379/238/173 380/237/173 382/239/174 381/240/174
f 381/240/174 382/239/174 384/241/175 383/242/175
f 383/242/175 384/241/175 386/243/176 385/244/176
f 385/244/176 386/243/176 388/245/177 387/246/177
f 387/246/177 388/245/177 326/182/146 325/181/146
f 390/247/163 393/248/164 394/249/164 391/250/163
f 389/251/162 390/247/163 391/250/163 392/252/162
f 393/248/164 395/253/165 396/254/165 394/249/164
f 395/253/165 397/255/166 398/256/166 396/254/165
f 397/255/166 399/257/167 400/258/167 398/256/166
f 399/257/167 401/236/168 402/259/168 400/258/167
f 401/236/168 403/234/169 404/233/169 402/259/168
f 403/234/169 405/260/170 406/261/170 404/233/169
f 405/260/170 407/262/171 408/263/171 406/261/170
f 407/262/171 409/264/172 410/265/172 408/263/171
f 409/264/172 411/266/173 412/267/173 410/265/172
f 411/266/173 413/268/174 414/269/174 412/267/173
f 413/268/174 415/270/175 416/271/175 414/269/174
f 415/270/175 417/272/176 418/273/176 416/271/175
f 417/272/176 419/274/177 420/275/177 418/273/176
f 419/274/177 421/276/146 422/277/146 420/275/177
f 421/276/146 423/278/147 424/279/147 422/277/146
f 423/278/147 425/280/148 426/281/148 424/279/147
f 425/280/148 427/282/149 428/283/149 426/281/148
f 427/282/149 429/284/150 430/285/150 428/283/149
f 429/284/150 431/286/151 432/287/151 430/285/150
f 431/286/151 433/288/152 434/289/152 432/287/151
f 433/288/152 435/290/153 436/291/153 434/289/152
f 435/290/153 437/292/154 438/293/154 436/291/153
f 437/294/154 439/295/155 440/296/155 438/297/154
f 439/295/155 441/298/156 442/299/156 440/296/155
f 441/298/156 443/300/157 444/301/157 442/299/156
f 443/300/157 445/302/158 446/303/158 444/301/157
f 445/302/158 447/304/159 448/305/159 446/303/158
f 447/304/159 449/306/160 450/307/160 448/305/159
f 449/306/160 451/308/161 452/309/161 450/307/160
f 365/310/178 429/311/178 427/312/179 363/313/179
f 346/314/180 410/315/180 412/316/181 348/317/181
f 383/318/182 447/319/182 445/320/183 381/321/183
f 364/322/184 428/323/184 430/324/185 366/325/185
f 331/326/186 395/327/186 393/328/187 329/329/187
f 382/330/188 446/331/188 448/332/189 384/333/189
f 349/334/190 413/335/190 411/336/191 347/337/191
f 330/338/192 394/339/192 396/340/193 332/341/193
f 367/342/194 431/343/194 429/311/178 365/310/178
f 348/317/181 412/316/181 414/344/195 350/345/195
f 385/346/196 449/347/196 447/319/182 383/318/182
f 366/325/185 430/324/185 432/348/197 368/349/197
f 333/350/198 397/351/198 395/327/186 331/326/186
f 384/333/189 448/332/189 450/352/199 386/353/199
f 351/354/200 415/355/200 413/335/190 349/334/190
f 332/341/193 396/340/193 398/356/201 334/357/201
f 369/358/202 433/359/202 431/343/194 367/342/194
f 350/345/195 414/344/195 416/360/203 352/361/203
f 387/362/204 451/363/204 449/347/196 385/346/196
f 368/349/197 432/348/197 434/364/205 370/365/205
f 335/366/206 399/367/206 397/351/198 333/350/198
f 386/353/199 450/352/199 452/368/207 388/369/207
f 353/370/208 417/371/208 415/355/200 351/354/200
f 334/357/201 398/356/201 400/372/209 336/373/209
f 371/374/210 435/375/210 433/359/202 369/358/202
f 352/361/203 416/360/203 418/376/211 354/377/211
f 325/378/212 389/379/212 451/363/204 387/362/204
f 370/365/205 434/364/205 436/380/213 372/381/213
f 337/382/214 401/383/214 399/367/206 335/366/206
f 388/369/207 452/368/207 392/384/215 326/385/215
f 355/386/216 419/387/216 417/371/208 353/370/208
f 336/373/209 400/372/209 402/388/217 338/389/217
f 373/390/218 437/391/218 435/375/210 371/374/210
f 354/377/211 418/376/211 420/392/219 356/393/219
f 372/381/213 436/380/213 438/394/220 374/395/220
f 339/396/221 403/397/221 401/383/214 337/382/214
f 357/398/222 421/399/222 419/387/216 355/386/216
f 338/389/217 402/388/217 404/400/223 340/401/223
f 375/402/224 439/403/224 437/391/218 373/390/218
f 356/393/219 420/392/219 422/404/225 358/405/225
f 374/395/220 438/394/220 440/406/226 376/407/226
f 341/408/227 405/409/227 403/397/221 339/396/221
f 359/410/228 423/411/228 421/399/222 357/398/222
f 340/401/223 404/400/223 406/412/229 342/413/229
f 377/414/230 441/415/230 439/403/224 375/402/224
f 358/405/225 422/404/225 424/416/231 360/417/231
f 376/407/226 440/406/226 442/418/232 378/419/232
f 343/420/233 407/421/233 405/422/227 341/423/227
f 361/424/234 425/425/234 423/411/228 359/410/228
f 342/426/229 406/427/229 408/428/235 344/429/235
f 327/430/236 390/431/236 389/379/212 325/378/212
f 379/432/237 443/433/237 441/415/230 377/414/230
f 360/417/231 424/416/231 426/434/238 362/435/238
f 326/385/215 392/384/215 391/436/239 328/437/239
f 378/419/232 442/418/232 444/438/240 380/439/240
f 345/440/241 409/441/241 407/421/233 343/420/233
f 363/313/179 427/312/179 425/425/234 361/424/234
f 344/429/235 408/428/235 410/315/180 346/314/180
f 381/321/183 445/320/183 443/433/237 379/432/237
f 362/435/238 426/434/238 428/323/184 364/322/184
f 329/329/187 393/328/187 390/431/236 327/430/236
f 380/439/240 444/438/240 446/331/188 382/330/188
f 347/337/191 411/336/191 409/441/241 345/440/241
f 328/437/239 391/436/239 394/339/192 330/338/192
f 451/308/161 389/251/162 392/252/162 452/309/161
f 455/442/242 456/443/242 460/444/242 459/445/242
f 460/446/146 456/447/146 454/448/146 458/449/146
f 455/450/162 459/446/162 457/449/162 453/451/162
f 454/442/243 453/443/243 457/444/243 458/445/243
f 455/126/244 453/127/244 454/128/244 456/129/244
f 463/442/245 464/443/245 468/444/245 467/445/245
f 468/446/246 464/447/246 462/448/246 466/449/246
f 463/450/247 467/446/247 465/449/247 461/451/247
f 462/442/248 461/443/248 465/444/248 466/445/248
f 463/126/249 461/127/249 462/128/249 464/129/249
f 471/442/250 472/443/250 476/444/250 475/445/250
f 476/446/251 472/447/251 470/448/251 474/449/251
f 471/450/252 475/446/252 473/449/252 469/451/252
f 470/442/253 469/443/253 473/444/253 474/445/253
f 471/126/254 469/127/254 470/128/254 472/129/254
f 479/442/255 480/443/255 484/444/255 483/445/255
f 484/446/154 480/447/154 478/448/154 482/449/154
f 479/450/170 483/446/170 481/449/170 477/451/170
f 478/442/256 477/443/256 481/444/256 482/445/256
f 479/126/257 477/127/257 478/128/257 480/129/257
f 487/442/258 488/443/258 492/444/258 491/445/258
f 492/446/259 488/447/259 486/448/259 490/449/259
f 487/450/260 491/446/260 489/449/260 485/451/260
f 486/442/261 485/443/261 489/444/261 490/445/261
f 487/126/262 485/127/262 486/128/262 488/129/262
f 495/442/263 496/443/263 500/444/263 499/445/263
f 500/446/264 496/447/264 494/448/264 498/449/264
f 495/450/265 499/446/265 497/449/265 493/451/265
f 494/442/266 493/443/266 497/444/266 498/445/266
f 495/126/267 493/127/267 494/128/267 496/129/267
f 503/442/268 504/443/268 508/444/268 507/445/268
f 508/446/162 504/447/162 502/448/162 506/449/162
f 503/450/146 507/446/146 505/449/146 501/451/146
f 502/442/269 501/443/269 505/444/269 506/445/269
f 503/126/270 501/127/270 502/128/270 504/129/270
f 511/442/271 512/443/271 516/444/271 515/445/271
f 516/446/247 512/447/247 510/448/247 514/449/247
f 511/450/246 515/446/246 513/449/246 509/451/246
f 510/442/272 509/443/272 513/444/272 514/445/272
f 511/126/273 509/127/273 510/128/273 512/129/273
f 519/442/274 520/443/274 524/444/274 523/445/274
f 524/446/252 520/447/252 518/448/252 522/449/252
f 519/450/251 523/446/251 521/449/251 517/451/251
f 518/442/275 517/443/275 521/444/275 522/445/275
f 519/126/276 517/127/276 518/128/276 520/129/276
f 527/442/277 528/443/277 532/444/277 531/445/277
f 532/446/170 528/447/170 526/448/170 530/449/170
f 527/450/154 531/446/154 529/449/154 525/451/154
f 526/442/278 525/443/278 529/444/278 530/445/278
f 527/126/279 525/127/279 526/128/279 528/129/279
f 535/442/280 536/443/280 540/444/280 539/445/280
f 540/446/260 536/447/260 534/448/260 538/449/260
f 535/450/259 539/446/259 537/449/259 533/451/259
f 534/442/281 533/443/281 537/444/281 538/445/281
f 535/126/282 533/127/282 534/128/282 536/129/282
f 543/442/283 544/443/283 548/444/283 547/445/283
f 548/446/265 544/447/265 542/448/265 546/449/265
f 543/450/264 547/446/264 545/449/264 541/451/264
f 542/442/284 541/443/284 545/444/284 546/445/284
f 543/126/285 541/127/285 542/128/285 544/129/285
f 606/452/146 549/453/146 550/454/286 632/455/286
f 632/455/286 550/454/286 551/456/287 630/457/287
f 630/457/287 551/456/287 552/458/288 628/459/288
f 628/460/288 552/461/288 553/462/289 626/463/289
f 626/463/289 553/462/289 554/464/290 624/465/290
f 624/465/290 554/464/290 555/466/291 622/467/291
f 622/467/291 555/466/291 556/468/162 620/469/162
f 620/469/162 556/468/162 557/470/292 618/471/292
f 618/471/292 557/470/292 558/472/293 616/473/293
f 616/473/293 558/472/293 559/474/294 614/475/294
f 614/475/294 559/474/294 560/476/295 612/477/295
f 612/477/295 560/476/295 561/478/296 610/479/296
f 561/480/103 560/481/103 574/482/103 575/483/103
f 610/479/296 561/478/296 562/484/297 608/485/297
f 608/485/297 562/484/297 549/453/146 606/452/146
f 572/486/298 571/487/299 585/488/300 586/489/301
f 554/490/103 553/491/103 567/492/103 568/493/103
f 559/494/103 558/495/103 572/496/103 573/497/103
f 552/498/103 551/499/103 565/500/103 566/501/103
f 557/502/103 556/503/103 570/504/103 571/505/103
f 550/506/103 549/507/103 564/508/103 563/509/103
f 562/510/103 561/480/103 575/483/103 576/511/103
f 555/512/103 554/490/103 568/493/103 569/513/103
f 560/481/103 559/494/103 573/497/103 574/482/103
f 553/491/103 552/514/103 566/515/103 567/492/103
f 558/495/103 557/502/103 571/505/103 572/496/103
f 549/507/103 562/510/103 576/511/103 564/508/103
f 551/499/103 550/506/103 563/509/103 565/500/103
f 556/503/103 555/512/103 569/513/103 570/504/103
f 580/516/302 579/517/303 593/518/304 594/519/305
f 565/520/306 563/521/307 577/522/308 579/517/303
f 573/523/309 572/486/298 586/489/301 587/524/310
f 566/525/311 565/520/306 579/517/303 580/516/302
f 574/526/312 573/523/309 587/524/310 588/527/313
f 567/528/314 566/525/311 580/516/302 581/529/315
f 575/530/316 574/526/312 588/527/313 589/531/317
f 568/532/318 567/528/314 581/529/315 582/533/319
f 576/534/320 575/530/316 589/531/317 590/535/321
f 569/536/322 568/532/318 582/533/319 583/537/323
f 564/538/324 576/534/320 590/535/321 578/539/325
f 570/540/326 569/536/322 583/537/323 584/541/327
f 571/487/299 570/540/326 584/541/327 585/488/300
f 563/521/307 564/538/324 578/539/325 577/522/308
f 603/542/328 602/543/329 605/544/103
f 588/527/313 587/524/310 601/545/330 602/543/329
f 581/529/315 580/516/302 594/519/305 595/546/331
f 589/531/317 588/527/313 602/543/329 603/542/328
f 582/533/319 581/529/315 595/546/331 596/547/332
f 590/535/321 589/531/317 603/542/328 604/548/333
f 583/537/323 582/533/319 596/547/332 597/549/334
f 578/539/325 590/535/321 604/548/333 592/550/335
f 584/541/327 583/537/323 597/549/334 598/551/336
f 585/488/300 584/541/327 598/551/336 599/552/337
f 577/522/308 578/539/325 592/550/335 591/553/338
f 586/489/301 585/488/300 599/552/337 600/554/339
f 579/517/303 577/522/308 591/553/338 593/518/304
f 587/524/310 586/489/301 600/554/339 601/545/330
f 596/547/332 595/546/331 605/544/103
f 604/548/333 603/542/328 605/544/103
f 597/549/334 596/547/332 605/544/103
f 592/550/335 604/548/333 605/544/103
f 598/551/336 597/549/334 605/544/103
f 599/552/337 598/551/336 605/544/103
f 591/553/338 592/550/335 605/544/103
f 600/554/339 599/552/337 605/544/103
f 593/518/304 591/553/338 605/544/103
f 601/545/330 600/554/339 605/544/103
f 594/519/305 593/518/304 605/544/103
f 602/543/329 601/545/330 605/544/103
f 595/546/331 594/519/305 605/544/103
f 606/452/146 607/453/146 609/454/297 608/455/297
f 608/455/297 609/454/297 611/456/296 610/457/296
f 610/457/296 611/456/296 613/458/295 612/459/295
f 612/460/295 613/461/295 615/462/294 614/463/294
f 614/463/294 615/462/294 617/464/293 616/465/293
f 616/465/293 617/464/293 619/466/292 618/467/292
f 618/467/292 619/466/292 621/468/162 620/469/162
f 620/469/162 621/468/162 623/470/291 622/471/291
f 622/471/291 623/470/291 625/472/290 624/473/290
f 624/473/290 625/472/290 627/474/289 626/475/289
f 626/475/289 627/474/289 629/476/288 628/477/288
f 628/477/288 629/476/288 631/478/287 630/479/287
f 631/480/102 629/481/102 645/482/102 646/483/102
f 630/479/287 631/478/287 633/484/286 632/485/286
f 632/485/286 633/484/286 607/453/146 606/452/146
f 617/490/102 615/491/102 638/492/102 639/493/102
f 627/494/102 625/495/102 643/496/102 644/497/102
f 613/498/102 611/499/102 636/500/102 637/501/102
f 623/502/102 621/503/102 641/504/102 642/505/102
f 609/506/102 607/507/102 635/508/102 634/509/102
f 633/510/102 631/480/102 646/483/102 647/511/102
f 619/512/102 617/490/102 639/493/102 640/513/102
f 629/481/102 627/494/102 644/497/102 645/482/102
f 615/491/102 613/514/102 637/515/102 638/492/102
f 625/495/102 623/502/102 642/505/102 643/496/102
f 607/507/102 633/510/102 647/511/102 635/508/102
f 611/499/102 609/506/102 634/509/102 636/500/102
f 621/503/102 619/512/102 640/513/102 641/504/102
f 640/555/292 639/556/293 656/557/293 655/558/292
f 647/559/286 646/560/287 649/561/287 648/562/286
f 639/556/293 638/563/294 657/564/294 656/557/293
f 646/560/287 645/565/288 650/566/288 649/561/287
f 638/563/294 637/567/295 658/568/295 657/564/294
f 645/569/288 644/570/289 651/571/289 650/572/288
f 637/567/295 636/573/296 659/574/296 658/568/295
f 644/570/289 643/575/290 652/576/290 651/571/289
f 636/573/296 634/577/297 661/578/297 659/574/296
f 643/575/290 642/579/291 653/580/291 652/576/290
f 634/577/297 635/581/146 660/582/146 661/578/297
f 642/579/291 641/583/162 654/584/162 653/580/291
f 641/583/162 640/555/292 655/558/292 654/584/162
f 635/581/146 647/559/286 648/562/286 660/582/146
f 662/181/146 664/184/147 665/183/147 663/182/146
f 664/184/147 666/186/148 667/185/148 665/183/147
f 666/186/148 668/188/149 669/187/149 667/185/148
f 668/188/149 670/190/150 671/189/150 669/187/149
f 670/190/150 672/192/151 673/191/151 671/189/150
f 672/192/151 674/194/152 675/193/152 673/191/151
f 674/194/152 676/196/153 677/195/153 675/193/152
f 676/196/153 678/198/154 679/197/154 677/195/153
f 678/199/154 680/202/155 681/201/155 679/200/154
f 680/202/155 682/204/156 683/203/156 681/201/155
f 682/204/156 684/206/157 685/205/157 683/203/156
f 684/206/157 686/208/158 687/207/158 685/205/157
f 686/208/158 688/210/159 689/209/159 687/207/158
f 688/210/159 690/212/160 691/211/160 689/209/159
f 690/212/160 692/214/161 693/213/161 691/211/160
f 692/214/161 694/216/162 695/215/162 693/213/161
f 694/216/162 696/218/163 697/217/163 695/215/162
f 696/218/163 698/220/164 699/219/164 697/217/163
f 698/220/164 700/222/165 701/221/165 699/219/164
f 700/222/165 702/224/166 703/223/166 701/221/165
f 702/224/166 704/226/167 705/225/167 703/223/166
f 704/226/167 706/228/168 707/227/168 705/225/167
f 706/228/168 708/230/169 709/229/169 707/227/168
f 708/230/169 710/232/170 711/231/170 709/229/169
f 710/232/170 712/234/171 713/233/171 711/231/170
f 712/234/171 714/236/172 715/235/172 713/233/171
f 714/236/172 716/238/173 717/237/173 715/235/172
f 716/238/173 718/240/174 719/239/174 717/237/173
f 718/240/174 720/242/175 721/241/175 719/239/174
f 720/242/175 722/244/176 723/243/176 721/241/175
f 722/244/176 724/246/177 725/245/177 723/243/176
f 724/246/177 662/181/146 663/182/146 725/245/177
f 727/247/163 728/250/163 731/249/164 730/248/164
f 726/251/162 729/252/162 728/250/163 727/247/163
f 730/248/164 731/249/164 733/254/165 732/253/165
f 732/253/165 733/254/165 735/256/166 734/255/166
f 734/255/166 735/256/166 737/258/167 736/257/167
f 736/257/167 737/258/167 739/259/168 738/236/168
f 738/236/168 739/259/168 741/233/169 740/234/169
f 740/234/169 741/233/169 743/261/170 742/260/170
f 742/260/170 743/261/170 745/263/171 744/262/171
f 744/262/171 745/263/171 747/265/172 746/264/172
f 746/264/172 747/265/172 749/267/173 748/266/173
f 748/266/173 749/267/173 751/269/174 750/268/174
f 750/268/174 751/269/174 753/271/175 752/270/175
f 752/270/175 753/271/175 755/273/176 754/272/176
f 754/272/176 755/273/176 757/275/177 756/274/177
f 756/274/177 757/275/177 759/277/146 758/276/146
f 758/276/146 759/277/146 761/279/147 760/278/147
f 760/278/147 761/279/147 763/281/148 762/280/148
f 762/280/148 763/281/148 765/283/149 764/282/149
f 764/282/149 765/283/149 767/285/150 766/284/150
f 766/284/150 767/285/150 769/287/151 768/286/151
f 768/286/151 769/287/151 771/289/152 770/288/152
f 770/288/152 771/289/152 773/291/153 772/290/153
f 772/290/153 773/291/153 775/293/154 774/292/154
f 774/294/154 775/297/154 777/296/155 776/295/155
f 776/295/155 777/296/155 779/299/156 778/298/156
f 778/298/156 779/299/156 781/301/157 780/300/157
f 780/300/157 781/301/157 783/303/158 782/302/158
f 782/302/158 783/303/158 785/305/159 784/304/159
f 784/304/159 785/305/159 787/307/160 786/306/160
f 786/306/160 787/307/160 789/309/161 788/308/161
f 702/310/185 700/313/184 764/312/184 766/311/185
f 683/314/340 685/317/191 749/316/191 747/315/340
f 720/318/189 718/321/188 782/320/188 784/319/189
f 701/322/179 703/325/178 767/324/178 765/323/179
f 668/326/193 666/329/341 730/328/341 732/327/193
f 719/330/183 721/333/182 785/332/182 783/331/183
f 686/334/195 684/337/181 748/336/181 750/335/195
f 667/338/342 669/341/186 733/340/186 731/339/342
f 704/342/197 702/310/185 766/311/185 768/343/197
f 685/317/191 687/345/190 751/344/190 749/316/191
f 722/346/199 720/318/189 784/319/189 786/347/199
f 703/325/178 705/349/194 769/348/194 767/324/178
f 670/350/201 668/326/193 732/327/193 734/351/201
f 721/333/182 723/353/196 787/352/196 785/332/182
f 688/354/203 686/334/195 750/335/195 752/355/203
f 669/341/186 671/357/198 735/356/198 733/340/186
f 706/358/343 704/342/197 768/343/197 770/359/343
f 687/345/190 689/361/200 753/360/200 751/344/190
f 724/362/207 722/346/199 786/347/199 788/363/207
f 705/349/194 707/365/344 771/364/344 769/348/194
f 672/366/209 670/350/201 734/351/201 736/367/209
f 723/353/196 725/369/204 789/368/204 787/352/196
f 690/370/345 688/354/203 752/355/203 754/371/345
f 671/357/198 673/373/206 737/372/206 735/356/198
f 708/374/213 706/358/343 770/359/343 772/375/213
f 689/361/200 691/377/346 755/376/346 753/360/200
f 662/378/215 724/362/207 788/363/207 726/379/215
f 707/365/344 709/381/210 773/380/210 771/364/344
f 674/382/347 672/366/209 736/367/209 738/383/347
f 725/369/204 663/385/212 729/384/212 789/368/204
f 692/386/219 690/370/345 754/371/345 756/387/219
f 673/373/206 675/389/348 739/388/348 737/372/206
f 710/390/220 708/374/213 772/375/213 774/391/220
f 691/377/346 693/393/216 757/392/216 755/376/346
f 709/381/210 711/395/218 775/394/218 773/380/210
f 676/396/223 674/382/347 738/383/347 740/397/223
f 694/398/225 692/386/219 756/387/219 758/399/225
f 675/389/348 677/401/221 741/400/221 739/388/348
f 712/402/226 710/390/220 774/391/220 776/403/226
f 693/393/216 695/405/349 759/404/349 757/392/216
f 711/395/218 713/407/224 777/406/224 775/394/218
f 678/408/350 676/396/223 740/397/223 742/409/350
f 696/410/231 694/398/225 758/399/225 760/411/231
f 677/401/221 679/413/351 743/412/351 741/400/221
f 714/414/232 712/402/226 776/403/226 778/415/232
f 695/405/349 697/417/228 761/416/228 759/404/349
f 713/407/224 715/419/230 779/418/230 777/406/224
f 680/420/235 678/423/350 742/422/350 744/421/235
f 698/424/352 696/410/231 760/411/231 762/425/352
f 679/426/351 681/429/233 745/428/233 743/427/351
f 664/430/239 662/378/215 726/379/215 727/431/239
f 716/432/240 714/414/232 778/415/232 780/433/240
f 697/417/228 699/435/353 763/434/353 761/416/228
f 663/385/212 665/437/236 728/436/236 729/384/212
f 715/419/230 717/439/237 781/438/237 779/418/230
f 682/440/354 680/420/235 744/421/235 746/441/354
f 700/313/184 698/424/352 762/425/352 764/312/184
f 681/429/233 683/314/340 747/315/340 745/428/233
f 718/321/188 716/432/240 780/433/240 782/320/188
f 699/435/353 701/322/179 765/323/179 763/434/353
f 666/329/341 664/430/239 727/431/239 730/328/341
f 717/439/237 719/330/183 783/331/183 781/438/237
f 684/337/181 682/440/354 746/441/354 748/336/181
f 665/437/236 667/338/342 731/339/342 728/436/236
f 788/308/161 789/309/161 729/252/162 726/251/162
f 792/442/269 796/445/269 797/444/269 793/443/269
f 797/446/146 795/449/146 791/448/146 793/447/146
f 792/450/162 790/451/162 794/449/162 796/446/162
f 791/442/268 795/445/268 794/444/268 790/443/268
f 792/126/355 793/129/355 791/128/355 790/127/355
f 800/442/272 804/445/272 805/444/272 801/443/272
f 805/446/246 803/449/246 799/448/246 801/447/246
f 800/450/247 798/451/247 802/449/247 804/446/247
f 799/442/271 803/445/271 802/444/271 798/443/271
f 800/126/356 801/129/356 799/128/356 798/127/356
f 808/442/275 812/445/275 813/444/275 809/443/275
f 813/446/251 811/449/251 807/448/251 809/447/251
f 808/450/252 806/451/252 810/449/252 812/446/252
f 807/442/274 811/445/274 810/444/274 806/443/274
f 808/126/357 809/129/357 807/128/357 806/127/357
f 816/442/278 820/445/278 821/444/278 817/443/278
f 821/446/154 819/449/154 815/448/154 817/447/154
f 816/450/170 814/451/170 818/449/170 820/446/170
f 815/442/277 819/445/277 818/444/277 814/443/277
f 816/126/358 817/129/358 815/128/358 814/127/358
f 824/442/281 828/445/281 829/444/281 825/443/281
f 829/446/259 827/449/259 823/448/259 825/447/259
f 824/450/260 822/451/260 826/449/260 828/446/260
f 823/442/280 827/445/280 826/444/280 822/443/280
f 824/126/359 825/129/359 823/128/359 822/127/359
f 832/442/284 836/445/284 837/444/284 833/443/284
f 837/446/264 835/449/264 831/448/264 833/447/264
f 832/450/265 830/451/265 834/449/265 836/446/265
f 831/442/283 835/445/283 834/444/283 830/443/283
f 832/126/360 833/129/360 831/128/360 830/127/360
f 840/442/243 844/445/243 845/444/243 841/443/243
f 845/446/162 843/449/162 839/448/162 841/447/162
f 840/450/146 838/451/146 842/449/146 844/446/146
f 839/442/242 843/445/242 842/444/242 838/443/242
f 840/126/361 841/129/361 839/128/361 838/127/361
f 848/442/248 852/445/248 853/444/248 849/443/248
f 853/446/247 851/449/247 847/448/247 849/447/247
f 848/450/246 846/451/246 850/449/246 852/446/246
f 847/442/245 851/445/245 850/444/245 846/443/245
f 848/126/362 849/129/362 847/128/362 846/127/362
f 856/442/253 860/445/253 861/444/253 857/443/253
f 861/446/252 859/449/252 855/448/252 857/447/252
f 856/450/251 854/451/251 858/449/251 860/446/251
f 855/442/250 859/445/250 858/444/250 854/443/250
f 856/126/363 857/129/363 855/128/363 854/127/363
f 864/442/256 868/445/256 869/444/256 865/443/256
f 869/446/170 867/449/170 863/448/170 865/447/170
f 864/450/154 862/451/154 866/449/154 868/446/154
f 863/442/255 867/445/255 866/444/255 862/443/255
f 864/126/364 865/129/364 863/128/364 862/127/364
f 872/442/261 876/445/261 877/444/261 873/443/261
f 877/446/260 875/449/260 871/448/260 873/447/260
f 872/450/259 870/451/259 874/449/259 876/446/259
f 871/442/258 875/445/258 874/444/258 870/443/258
f 872/126/365 873/129/365 871/128/365 870/127/365
f 880/442/266 884/445/266 885/444/266 881/443/266
f 885/446/265 883/449/265 879/448/265 881/447/265
f 880/450/264 878/451/264 882/449/264 884/446/264
f 879/442/263 883/445/263 882/444/263 878/443/263
f 880/126/366 881/129/366 879/128/366 878/127/366
f 943/452/146 969/455/286 887/454/286 886/453/146
f 969/455/286 967/457/287 888/456/287 887/454/286
f 967/457/287 965/459/288 889/458/288 888/456/287
f 965/460/288 963/463/289 890/462/289 889/461/288
f 963/463/289 961/465/290 891/464/290 890/462/289
f 961/465/290 959/467/291 892/466/291 891/464/290
f 959/467/291 957/469/162 893/468/162 892/466/291
f 957/469/162 955/471/292 894/470/292 893/468/162
f 955/471/292 953/473/293 895/472/293 894/470/292
f 953/473/293 951/475/294 896/474/294 895/472/293
f 951/475/294 949/477/295 897/476/295 896/474/294
f 949/477/295 947/479/296 898/478/296 897/476/295
f 898/480/102 912/483/102 911/482/102 897/481/102
f 947/479/296 945/485/297 899/484/297 898/478/296
f 945/485/297 943/452/146 886/453/146 899/484/297
f 909/486/367 923/489/368 922/488/369 908/487/370
f 891/490/102 905/493/102 904/492/102 890/491/102
f 896/494/102 910/497/102 909/496/102 895/495/102
f 889/498/102 903/501/102 902/500/102 888/499/102
f 894/502/102 908/505/102 907/504/102 893/503/102
f 887/506/102 900/509/102 901/508/102 886/507/102
f 899/510/102 913/511/102 912/483/102 898/480/102
f 892/512/102 906/513/102 905/493/102 891/490/102
f 897/481/102 911/482/102 910/497/102 896/494/102
f 890/491/102 904/492/102 903/515/102 889/514/102
f 895/495/102 909/496/102 908/505/102 894/502/102
f 886/507/102 901/508/102 913/511/102 899/510/102
f 888/499/102 902/500/102 900/509/102 887/506/102
f 893/503/102 907/504/102 906/513/102 892/512/102
f 917/516/371 931/519/372 930/518/373 916/517/374
f 902/520/375 916/517/374 914/522/376 900/521/377
f 910/523/378 924/524/379 923/489/368 909/486/367
f 903/525/380 917/516/371 916/517/374 902/520/375
f 911/526/381 925/527/382 924/524/379 910/523/378
f 904/528/383 918/529/384 917/516/371 903/525/380
f 912/530/385 926/531/386 925/527/382 911/526/381
f 905/532/387 919/533/388 918/529/384 904/528/383
f 913/534/389 927/535/390 926/531/386 912/530/385
f 906/536/391 920/537/392 919/533/388 905/532/387
f 901/538/393 915/539/394 927/535/390 913/534/389
f 907/540/395 921/541/396 920/537/392 906/536/391
f 908/487/370 922/488/369 921/541/396 907/540/395
f 900/521/377 914/522/376 915/539/394 901/538/393
f 940/542/397 942/544/102 939/543/398
f 925/527/382 939/543/398 938/545/399 924/524/379
f 918/529/384 932/546/400 931/519/372 917/516/371
f 926/531/386 940/542/397 939/543/398 925/527/382
f 919/533/388 933/547/401 932/546/400 918/529/384
f 927/535/390 941/548/402 940/542/397 926/531/386
f 920/537/392 934/549/403 933/547/401 919/533/388
f 915/539/394 929/550/404 941/548/402 927/535/390
f 921/541/396 935/551/405 934/549/403 920/537/392
f 922/488/369 936/552/406 935/551/405 921/541/396
f 914/522/376 928/553/407 929/550/404 915/539/394
f 923/489/368 937/554/408 936/552/406 922/488/369
f 916/517/374 930/518/373 928/553/407 914/522/376
f 924/524/379 938/545/399 937/554/408 923/489/368
f 933/547/401 942/544/102 932/546/400
f 941/548/402 942/544/102 940/542/397
f 934/549/403 942/544/102 933/547/401
f 929/550/404 942/544/102 941/548/402
f 935/551/405 942/544/102 934/549/403
f 936/552/406 942/544/102 935/551/405
f 928/553/407 942/544/102 929/550/404
f 937/554/408 942/544/102 936/552/406
f 930/518/373 942/544/102 928/553/407
f 938/545/399 942/544/102 937/554/408
f 931/519/372 942/544/102 930/518/373
f 939/543/398 942/544/102 938/545/399
f 932/546/400 942/544/102 931/519/372
f 943/452/146 945/455/297 946/454/297 944/453/146
f 945/455/297 947/457/296 948/456/296 946/454/297
f 947/457/296 949/459/295 950/458/295 948/456/296
f 949/460/295 951/463/294 952/462/294 950/461/295
f 951/463/294 953/465/293 954/464/293 952/462/294
f 953/465/293 955/467/292 956/466/292 954/464/293
f 955/467/292 957/469/162 958/468/162 956/466/292
f 957/469/162 959/471/291 960/470/291 958/468/162
f 959/471/291 961/473/290 962/472/290 960/470/291
f 961/473/290 963/475/289 964/474/289 962/472/290
f 963/475/289 965/477/288 966/476/288 964/474/289
f 965/477/288 967/479/287 968/478/287 966/476/288
f 968/480/103 983/483/103 982/482/103 966/481/103
f 967/479/287 969/485/286 970/484/286 968/478/287
f 969/485/286 943/452/146 944/453/146 970/484/286
f 954/490/103 976/493/103 975/492/103 952/491/103
f 964/494/103 981/497/103 980/496/103 962/495/103
f 950/498/103 974/501/103 973/500/103 948/499/103
f 960/502/103 979/505/103 978/504/103 958/503/103
f 946/506/103 971/509/103 972/508/103 944/507/103
f 970/510/103 984/511/103 983/483/103 968/480/103
f 956/512/103 977/513/103 976/493/103 954/490/103
f 966/481/103 982/482/103 981/497/103 964/494/103
f 952/491/103 975/492/103 974/515/103 950/514/103
f 962/495/103 980/496/103 979/505/103 960/502/103
f 944/507/103 972/508/103 984/511/103 970/510/103
f 948/499/103 973/500/103 971/509/103 946/506/103
f 958/503/103 978/504/103 977/513/103 956/512/103
f 977/555/292 655/558/292 656/557/293 976/556/293
f 984/559/286 648/562/286 649/561/287 983/560/287
f 976/556/293 656/557/293 657/564/294 975/563/294
f 983/560/287 649/561/287 650/566/288 982/565/288
f 975/563/294 657/564/294 658/568/295 974/567/295
f 982/569/288 650/572/288 651/571/289 981/570/289
f 974/567/295 658/568/295 659/574/296 973/573/296
f 981/570/289 651/571/289 652/576/290 980/575/290
f 973/573/296 659/574/296 661/578/297 971/577/297
f 980/575/290 652/576/290 653/580/291 979/579/291
f 971/577/297 661/578/297 660/582/146 972/581/146
f 979/579/291 653/580/291 654/584/162 978/583/162
f 978/583/162 654/584/162 655/558/292 977/555/292
f 972/581/146 660/582/146 648/562/286 984/559/286
