# Parked car - generated by authoring/generate-city.py
mtllib city-car.mtl
usemtl car_tyre
v -0.850 0.000 -1.450
v 0.850 0.000 -1.450
v 0.850 0.420 -1.450
v -0.850 0.420 -1.450
v -0.850 0.000 1.450
v 0.850 0.000 1.450
v 0.850 0.420 1.450
v -0.850 0.420 1.450
f 1 2 3
f 1 3 4
f 6 5 8
f 6 8 7
f 5 1 4
f 5 4 8
f 2 6 7
f 2 7 3
f 4 3 7
f 4 7 8
f 5 6 2
f 5 2 1
usemtl car_paint
v -0.900 0.300 -2.100
v 0.900 0.300 -2.100
v 0.900 0.950 -2.100
v -0.900 0.950 -2.100
v -0.900 0.300 2.100
v 0.900 0.300 2.100
v 0.900 0.950 2.100
v -0.900 0.950 2.100
f 9 10 11
f 9 11 12
f 14 13 16
f 14 16 15
f 13 9 12
f 13 12 16
f 10 14 15
f 10 15 11
f 12 11 15
f 12 15 16
f 13 14 10
f 13 10 9
usemtl car_glass
v -0.750 0.950 -0.900
v 0.750 0.950 -0.900
v 0.750 1.420 -0.900
v -0.750 1.420 -0.900
v -0.750 0.950 1.100
v 0.750 0.950 1.100
v 0.750 1.420 1.100
v -0.750 1.420 1.100
f 17 18 19
f 17 19 20
f 22 21 24
f 22 24 23
f 21 17 20
f 21 20 24
f 18 22 23
f 18 23 19
f 20 19 23
f 20 23 24
f 21 22 18
f 21 18 17
