# Stacked lean tower, 2 facade bands - generated by authoring/generate-city.py
mtllib district-buildings.mtl
usemtl district_facade
v -4.000000 0.000000 -4.000000
vt 0.007812 0.210938
v -4.000000 0.000000 4.000000
vt 0.382812 0.210938
v -4.000000 16.000000 4.000000
vt 0.382812 0.992188
v -4.000000 16.000000 -4.000000
vt 0.007812 0.992188
f 1/1 2/2 3/3
f 1/1 3/3 4/4
v -4.000000 0.000000 4.000000
vt 0.007812 0.210938
v 4.000000 0.000000 4.000000
vt 0.382812 0.210938
v 4.000000 16.000000 4.000000
vt 0.382812 0.992188
v -4.000000 16.000000 4.000000
vt 0.007812 0.992188
f 5/5 6/6 7/7
f 5/5 7/7 8/8
v 4.000000 0.000000 4.000000
vt 0.007812 0.210938
v 4.000000 0.000000 -4.000000
vt 0.382812 0.210938
v 4.000000 16.000000 -4.000000
vt 0.382812 0.992188
v 4.000000 16.000000 4.000000
vt 0.007812 0.992188
f 9/9 10/10 11/11
f 9/9 11/11 12/12
v 4.000000 0.000000 -4.000000
vt 0.007812 0.210938
v -4.000000 0.000000 -4.000000
vt 0.382812 0.210938
v -4.000000 16.000000 -4.000000
vt 0.382812 0.992188
v 4.000000 16.000000 -4.000000
vt 0.007812 0.992188
f 13/13 14/14 15/15
f 13/13 15/15 16/16
v -4.000000 16.000000 -4.000000
vt 0.007812 0.210938
v -4.000000 16.000000 4.000000
vt 0.382812 0.210938
v -4.000000 32.000000 4.000000
vt 0.382812 0.992188
v -4.000000 32.000000 -4.000000
vt 0.007812 0.992188
f 17/17 18/18 19/19
f 17/17 19/19 20/20
v -4.000000 16.000000 4.000000
vt 0.007812 0.210938
v 4.000000 16.000000 4.000000
vt 0.382812 0.210938
v 4.000000 32.000000 4.000000
vt 0.382812 0.992188
v -4.000000 32.000000 4.000000
vt 0.007812 0.992188
f 21/21 22/22 23/23
f 21/21 23/23 24/24
v 4.000000 16.000000 4.000000
vt 0.007812 0.210938
v 4.000000 16.000000 -4.000000
vt 0.382812 0.210938
v 4.000000 32.000000 -4.000000
vt 0.382812 0.992188
v 4.000000 32.000000 4.000000
vt 0.007812 0.992188
f 25/25 26/26 27/27
f 25/25 27/27 28/28
v 4.000000 16.000000 -4.000000
vt 0.007812 0.210938
v -4.000000 16.000000 -4.000000
vt 0.382812 0.210938
v -4.000000 32.000000 -4.000000
vt 0.382812 0.992188
v 4.000000 32.000000 -4.000000
vt 0.007812 0.992188
f 29/29 30/30 31/31
f 29/29 31/31 32/32
v -4.000000 32.000000 -4.000000
vt 0.398438 0.039062
v 4.000000 32.000000 -4.000000
vt 0.523438 0.039062
v 4.000000 32.000000 4.000000
vt 0.523438 0.164062
v -4.000000 32.000000 4.000000
vt 0.398438 0.164062
f 33/33 34/34 35/35
f 33/33 35/35 36/36
