# city-lamp - generated by authoring/generate-city.py
mtllib city-props.mtl
usemtl prop_metal
v 0.045 0.000 0.078
v -0.090 0.000 0.000
v 0.045 0.000 -0.078
v 0.030 6.000 0.052
v -0.060 6.000 0.000
v 0.030 6.000 -0.052
f 1 2 5
f 1 5 4
f 2 3 6
f 2 6 5
f 3 1 4
f 3 4 6
usemtl prop_lamp
v 0.450 5.550 0.000
v 0.450 5.550 0.000
v 0.450 5.550 0.000
v 0.450 5.550 0.000
v 0.747 5.850 0.297
v 0.153 5.850 0.297
v 0.153 5.850 -0.297
v 0.747 5.850 -0.297
v 0.450 6.100 0.000
v 0.450 6.100 0.000
v 0.450 6.100 0.000
v 0.450 6.100 0.000
f 7 12 11
f 8 13 12
f 9 14 13
f 10 11 14
f 11 12 16
f 12 13 17
f 13 14 18
f 14 11 15
