# city-pine - generated by authoring/generate-city.py
mtllib city-props.mtl
usemtl prop_bark
v 0.100 0.000 0.173
v -0.200 0.000 0.000
v 0.100 0.000 -0.173
v 0.075 1.800 0.130
v -0.150 1.800 0.000
v 0.075 1.800 -0.130
f 1 2 5
f 1 5 4
f 2 3 6
f 2 6 5
f 3 1 4
f 3 4 6
usemtl prop_pine
v 0.000 1.400 0.000
v 0.000 1.400 0.000
v 0.000 1.400 0.000
v 0.000 1.400 0.000
v 1.414 1.800 1.414
v -1.414 1.800 1.414
v -1.414 1.800 -1.414
v 1.414 1.800 -1.414
v 0.000 7.600 0.000
v 0.000 7.600 0.000
v 0.000 7.600 0.000
v 0.000 7.600 0.000
f 7 12 11
f 8 13 12
f 9 14 13
f 10 11 14
f 11 12 16
f 12 13 17
f 13 14 18
f 14 11 15
