# Stacked lean tower, 5 facade bands - generated by authoring/generate-city.py
mtllib district-buildings.mtl
usemtl district_facade
v -4.000000 0.000000 -4.000000
vt 0.007812 0.210938
v -4.000000 0.000000 4.000000
vt 0.382812 0.210938
v -4.000000 16.000000 4.000000
vt 0.382812 0.992188
v -4.000000 16.000000 -4.000000
vt 0.007812 0.992188
f 1/1 2/2 3/3
f 1/1 3/3 4/4
v -4.000000 0.000000 4.000000
vt 0.007812 0.210938
v 4.000000 0.000000 4.000000
vt 0.382812 0.210938
v 4.000000 16.000000 4.000000
vt 0.382812 0.992188
v -4.000000 16.000000 4.000000
vt 0.007812 0.992188
f 5/5 6/6 7/7
f 5/5 7/7 8/8
v 4.000000 0.000000 4.000000
vt 0.007812 0.210938
v 4.000000 0.000000 -4.000000
vt 0.382812 0.210938
v 4.000000 16.000000 -4.000000
vt 0.382812 0.992188
v 4.000000 16.000000 4.000000
vt 0.007812 0.992188
f 9/9 10/10 11/11
f 9/9 11/11 12/12
v 4.000000 0.000000 -4.000000
vt 0.007812 0.210938
v -4.000000 0.000000 -4.000000
vt 0.382812 0.210938
v -4.000000 16.000000 -4.000000
vt 0.382812 0.992188
v 4.000000 16.000000 -4.000000
vt 0.007812 0.992188
f 13/13 14/14 15/15
f 13/13 15/15 16/16
v -4.000000 16.000000 -4.000000
vt 0.007812 0.210938
v -4.000000 16.000000 4.000000
vt 0.382812 0.210938
v -4.000000 32.000000 4.000000
vt 0.382812 0.992188
v -4.000000 32.000000 -4.000000
vt 0.007812 0.992188
f 17/17 18/18 19/19
f 17/17 19/19 20/20
v -4.000000 16.000000 4.000000
vt 0.007812 0.210938
v 4.000000 16.000000 4.000000
vt 0.382812 0.210938
v 4.000000 32.000000 4.000000
vt 0.382812 0.992188
v -4.000000 32.000000 4.000000
vt 0.007812 0.992188
f 21/21 22/22 23/23
f 21/21 23/23 24/24
v 4.000000 16.000000 4.000000
vt 0.007812 0.210938
v 4.000000 16.000000 -4.000000
vt 0.382812 0.210938
v 4.000000 32.000000 -4.000000
vt 0.382812 0.992188
v 4.000000 32.000000 4.000000
vt 0.007812 0.992188
f 25/25 26/26 27/27
f 25/25 27/27 28/28
v 4.000000 16.000000 -4.000000
vt 0.007812 0.210938
v -4.000000 16.000000 -4.000000
vt 0.382812 0.210938
v -4.000000 32.000000 -4.000000
vt 0.382812 0.992188
v 4.000000 32.000000 -4.000000
vt 0.007812 0.992188
f 29/29 30/30 31/31
f 29/29 31/31 32/32
v -4.000000 32.000000 -4.000000
vt 0.007812 0.210938
v -4.000000 32.000000 4.000000
vt 0.382812 0.210938
v -4.000000 48.000000 4.000000
vt 0.382812 0.992188
v -4.000000 48.000000 -4.000000
vt 0.007812 0.992188
f 33/33 34/34 35/35
f 33/33 35/35 36/36
v -4.000000 32.000000 4.000000
vt 0.007812 0.210938
v 4.000000 32.000000 4.000000
vt 0.382812 0.210938
v 4.000000 48.000000 4.000000
vt 0.382812 0.992188
v -4.000000 48.000000 4.000000
vt 0.007812 0.992188
f 37/37 38/38 39/39
f 37/37 39/39 40/40
v 4.000000 32.000000 4.000000
vt 0.007812 0.210938
v 4.000000 32.000000 -4.000000
vt 0.382812 0.210938
v 4.000000 48.000000 -4.000000
vt 0.382812 0.992188
v 4.000000 48.000000 4.000000
vt 0.007812 0.992188
f 41/41 42/42 43/43
f 41/41 43/43 44/44
v 4.000000 32.000000 -4.000000
vt 0.007812 0.210938
v -4.000000 32.000000 -4.000000
vt 0.382812 0.210938
v -4.000000 48.000000 -4.000000
vt 0.382812 0.992188
v 4.000000 48.000000 -4.000000
vt 0.007812 0.992188
f 45/45 46/46 47/47
f 45/45 47/47 48/48
v -4.000000 48.000000 -4.000000
vt 0.007812 0.210938
v -4.000000 48.000000 4.000000
vt 0.382812 0.210938
v -4.000000 64.000000 4.000000
vt 0.382812 0.992188
v -4.000000 64.000000 -4.000000
vt 0.007812 0.992188
f 49/49 50/50 51/51
f 49/49 51/51 52/52
v -4.000000 48.000000 4.000000
vt 0.007812 0.210938
v 4.000000 48.000000 4.000000
vt 0.382812 0.210938
v 4.000000 64.000000 4.000000
vt 0.382812 0.992188
v -4.000000 64.000000 4.000000
vt 0.007812 0.992188
f 53/53 54/54 55/55
f 53/53 55/55 56/56
v 4.000000 48.000000 4.000000
vt 0.007812 0.210938
v 4.000000 48.000000 -4.000000
vt 0.382812 0.210938
v 4.000000 64.000000 -4.000000
vt 0.382812 0.992188
v 4.000000 64.000000 4.000000
vt 0.007812 0.992188
f 57/57 58/58 59/59
f 57/57 59/59 60/60
v 4.000000 48.000000 -4.000000
vt 0.007812 0.210938
v -4.000000 48.000000 -4.000000
vt 0.382812 0.210938
v -4.000000 64.000000 -4.000000
vt 0.382812 0.992188
v 4.000000 64.000000 -4.000000
vt 0.007812 0.992188
f 61/61 62/62 63/63
f 61/61 63/63 64/64
v -4.000000 64.000000 -4.000000
vt 0.007812 0.210938
v -4.000000 64.000000 4.000000
vt 0.382812 0.210938
v -4.000000 80.000000 4.000000
vt 0.382812 0.992188
v -4.000000 80.000000 -4.000000
vt 0.007812 0.992188
f 65/65 66/66 67/67
f 65/65 67/67 68/68
v -4.000000 64.000000 4.000000
vt 0.007812 0.210938
v 4.000000 64.000000 4.000000
vt 0.382812 0.210938
v 4.000000 80.000000 4.000000
vt 0.382812 0.992188
v -4.000000 80.000000 4.000000
vt 0.007812 0.992188
f 69/69 70/70 71/71
f 69/69 71/71 72/72
v 4.000000 64.000000 4.000000
vt 0.007812 0.210938
v 4.000000 64.000000 -4.000000
vt 0.382812 0.210938
v 4.000000 80.000000 -4.000000
vt 0.382812 0.992188
v 4.000000 80.000000 4.000000
vt 0.007812 0.992188
f 73/73 74/74 75/75
f 73/73 75/75 76/76
v 4.000000 64.000000 -4.000000
vt 0.007812 0.210938
v -4.000000 64.000000 -4.000000
vt 0.382812 0.210938
v -4.000000 80.000000 -4.000000
vt 0.382812 0.992188
v 4.000000 80.000000 -4.000000
vt 0.007812 0.992188
f 77/77 78/78 79/79
f 77/77 79/79 80/80
v -4.000000 80.000000 -4.000000
vt 0.398438 0.039062
v 4.000000 80.000000 -4.000000
vt 0.523438 0.039062
v 4.000000 80.000000 4.000000
vt 0.523438 0.164062
v -4.000000 80.000000 4.000000
vt 0.398438 0.164062
f 81/81 82/82 83/83
f 81/81 83/83 84/84
