# Lean exterior shell; Kenney Retro Urban Kit derived, CC0
mtllib district-buildings.mtl
usemtl district_facade
v -6.000000 0.000000 -4.000000
vt 0.398438 0.179688
v -6.000000 0.000000 4.000000
vt 0.773438 0.179688
v -6.000000 3.200000 4.000000
vt 0.773438 0.335938
v -6.000000 3.200000 -4.000000
vt 0.398438 0.335938
f 1/1 2/2 3/3
f 1/1 3/3 4/4
v -6.000000 0.000000 4.000000
vt 0.398438 0.351562
v 6.000000 0.000000 4.000000
vt 0.960938 0.351562
v 6.000000 3.200000 4.000000
vt 0.960938 0.507812
v -6.000000 3.200000 4.000000
vt 0.398438 0.507812
f 5/5 6/6 7/7
f 5/5 7/7 8/8
v 6.000000 0.000000 4.000000
vt 0.398438 0.179688
v 6.000000 0.000000 -4.000000
vt 0.773438 0.179688
v 6.000000 3.200000 -4.000000
vt 0.773438 0.335938
v 6.000000 3.200000 4.000000
vt 0.398438 0.335938
f 9/9 10/10 11/11
f 9/9 11/11 12/12
v 6.000000 0.000000 -4.000000
vt 0.398438 0.351562
v -6.000000 0.000000 -4.000000
vt 0.960938 0.351562
v -6.000000 3.200000 -4.000000
vt 0.960938 0.507812
v 6.000000 3.200000 -4.000000
vt 0.398438 0.507812
f 13/13 14/14 15/15
f 13/13 15/15 16/16
v -6.000000 3.200000 -4.000000
vt 0.789062 0.179688
v -6.000000 4.200000 -2.000000
vt 0.976562 0.179688
v 6.000000 4.200000 -2.000000
vt 0.976562 0.335938
v 6.000000 3.200000 -4.000000
vt 0.789062 0.335938
f 17/17 18/18 19/19
f 17/17 19/19 20/20
v -6.000000 4.200000 -2.000000
vt 0.789062 0.179688
v -6.000000 3.200000 0.000000
vt 0.976562 0.179688
v 6.000000 3.200000 0.000000
vt 0.976562 0.335938
v 6.000000 4.200000 -2.000000
vt 0.789062 0.335938
f 21/21 22/22 23/23
f 21/21 23/23 24/24
v -6.000000 3.200000 0.000000
vt 0.007812 0.093750
v -6.000000 4.200000 -2.000000
vt 0.195312 0.187500
v -6.000000 3.200000 -4.000000
vt 0.382812 0.093750
f 25/25 26/26 27/27
v 6.000000 3.200000 -4.000000
vt 0.007812 0.093750
v 6.000000 4.200000 -2.000000
vt 0.195312 0.187500
v 6.000000 3.200000 0.000000
vt 0.382812 0.093750
f 28/28 29/29 30/30
v -6.000000 3.200000 0.000000
vt 0.789062 0.179688
v -6.000000 4.200000 2.000000
vt 0.976562 0.179688
v 6.000000 4.200000 2.000000
vt 0.976562 0.335938
v 6.000000 3.200000 0.000000
vt 0.789062 0.335938
f 31/31 32/32 33/33
f 31/31 33/33 34/34
v -6.000000 4.200000 2.000000
vt 0.789062 0.179688
v -6.000000 3.200000 4.000000
vt 0.976562 0.179688
v 6.000000 3.200000 4.000000
vt 0.976562 0.335938
v 6.000000 4.200000 2.000000
vt 0.789062 0.335938
f 35/35 36/36 37/37
f 35/35 37/37 38/38
v -6.000000 3.200000 4.000000
vt 0.007812 0.093750
v -6.000000 4.200000 2.000000
vt 0.195312 0.187500
v -6.000000 3.200000 0.000000
vt 0.382812 0.093750
f 39/39 40/40 41/41
v 6.000000 3.200000 0.000000
vt 0.007812 0.093750
v 6.000000 4.200000 2.000000
vt 0.195312 0.187500
v 6.000000 3.200000 4.000000
vt 0.382812 0.093750
f 42/42 43/43 44/44
v 6.000000 0.000000 -4.000000
vt 0.398438 0.039062
v 6.000000 0.000000 4.000000
vt 0.523438 0.039062
v -6.000000 0.000000 4.000000
vt 0.523438 0.164062
v -6.000000 0.000000 -4.000000
vt 0.398438 0.164062
f 45/45 46/46 47/47
f 45/45 47/47 48/48
