# Kit-bashed from Kenney's Retro Urban Kit (CC0 1.0).
# www.kenney.nl - see THIRD-PARTY-NOTICES.txt

mtllib trucks.mtl

g trucks

v -1.6568 0.0000 1.0459
v -3.2184 0.1547 1.2654
v -3.2184 0.0000 1.2654
v -1.6568 0.1547 1.0459
v -3.5476 0.0000 -1.0771
v -1.9860 0.0000 -1.2966
v -3.5476 0.1547 -1.0771
v -3.5314 1.9113 -0.9618
v -3.4725 1.9113 -0.5422
v -3.1635 1.9113 1.6558
v -3.1635 0.1547 1.6558
v -3.5544 1.5717 -1.1253
v -3.5641 1.5717 -1.1940
v -3.5787 1.4815 -1.2984
v -3.5981 0.1547 -1.4363
v -3.5981 1.0161 -1.4363
v -1.9860 0.1547 -1.2966
v -1.9927 1.5717 -1.3447
v -2.0024 1.5717 -1.4135
v -1.6019 1.9113 1.4363
v -1.6019 0.1547 1.4363
v -1.9108 1.9113 -0.7617
v -1.9698 1.9113 -1.1813
v -2.0171 1.4815 -1.5179
v -2.0365 0.1547 -1.6558
v -2.0365 1.0161 -1.6558
v 0.7092 1.4029 1.5621
v 0.8640 0.0000 -0.6521
v 0.8640 1.4029 -0.6521
v 0.7092 0.0000 1.5621
v -0.8640 0.0000 1.4521
v -0.8640 1.4029 1.4521
v -0.7092 1.4029 -0.7621
v -0.7092 0.0000 -0.7621
v 1.7938 0.0000 -0.9782
v 3.3622 0.1547 -1.1430
v 3.3622 0.0000 -1.1430
v 1.7938 0.1547 -0.9782
v 3.6095 0.0000 1.2095
v 2.0411 0.0000 1.3744
v 3.6095 0.1547 1.2095
v 3.5973 1.9113 1.0937
v 3.5530 1.9113 0.6723
v 3.3210 1.9113 -1.5351
v 3.3210 0.1547 -1.5351
v 3.6145 1.5717 1.2579
v 3.6218 1.5717 1.3269
v 3.6328 1.4815 1.4318
v 3.6474 0.1547 1.5703
v 3.6474 1.0161 1.5703
v 2.0411 0.1547 1.3744
v 2.0462 1.5717 1.4227
v 2.0534 1.5717 1.4917
v 1.7526 1.9113 -1.3703
v 1.7526 0.1547 -1.3703
v 1.9846 1.9113 0.8372
v 2.0289 1.9113 1.2585
v 2.0645 1.4815 1.5966
v 2.0790 0.1547 1.7351
v 2.0790 1.0161 1.7351

vt 0.6560 0.0305
vt 0.3354 0.0619
vt 0.3354 0.0305
vt 0.6560 0.0619
vt -0.2837 0.0641
vt -0.1065 0.3298
vt -0.2837 0.3298
vt -0.1065 0.0641
vt -2.1263 1.3879
vt -2.8838 1.4374
vt -2.8838 1.3879
vt -2.8465 2.0000
vt -2.7109 2.0000
vt -2.1263 1.4374
vt -2.0000 2.0000
vt -2.0000 1.4374
vt -2.8994 1.8912
vt -2.9216 1.8912
vt -2.9554 1.8623
vt -3.0000 1.4374
vt -3.0000 1.7133
vt -0.5962 0.0619
vt -0.9321 0.0289
vt -0.5962 0.0289
vt -0.9321 0.0619
vt -0.6631 0.3286
vt -0.9990 0.3434
vt -0.9990 0.3286
vt -0.6631 0.3434
vt -0.6631 0.1956
vt -0.9990 0.0120
vt -0.6631 0.0120
vt -0.9990 0.1956
vt -0.6631 0.2990
vt -0.9990 0.2990
vt -0.7595 0.3664
vt -0.9567 0.3192
vt -0.7595 0.3192
vt -0.9567 0.3664
vt -0.5938 0.0092
vt -0.9297 0.0864
vt -0.9297 0.0092
vt -0.5938 0.0864
vt 0.6604 0.3791
vt 0.3399 0.0220
vt 0.6604 0.0220
vt 0.3399 0.3791
vt 0.3224 0.0841
vt 0.6430 0.0039
vt 0.6430 0.0841
vt 0.3224 0.0039
vt -0.7705 0.3230
vt -0.9627 0.3746
vt -0.9627 0.3230
vt -0.7705 0.3746
vt -2.7120 2.5669
vt -2.1196 2.9878
vt -2.7120 2.9878
vt -2.1196 2.5669
vt -2.0000 2.0000
vt -2.7109 1.5507
vt -2.7109 2.0000
vt -2.0000 1.5507
vt 0.6604 0.3791
vt 0.3399 0.0939
vt 0.6604 0.0939
vt 0.3399 0.3791
vt -2.7120 2.5669
vt -2.1196 2.9878
vt -2.7120 2.9878
vt -2.1196 2.5669
vt 0.6560 0.0305
vt 0.3354 0.0619
vt 0.3354 0.0305
vt 0.6560 0.0619
vt -0.2837 0.0641
vt -0.1065 0.3298
vt -0.2837 0.3298
vt -0.1065 0.0641
vt -2.1263 1.3879
vt -2.8838 1.4374
vt -2.8838 1.3879
vt -2.8465 2.0000
vt -2.7109 2.0000
vt -2.1263 1.4374
vt -2.0000 2.0000
vt -2.0000 1.4374
vt -2.8994 1.8912
vt -2.9216 1.8912
vt -2.9554 1.8623
vt -3.0000 1.4374
vt -3.0000 1.7133
vt -0.5962 0.0619
vt -0.9321 0.0289
vt -0.5962 0.0289
vt -0.9321 0.0619
vt -0.6631 0.3286
vt -0.9990 0.3434
vt -0.9990 0.3286
vt -0.6631 0.3434
vt -0.6631 0.1956
vt -0.9990 0.0120
vt -0.6631 0.0120
vt -0.9990 0.1956
vt -0.6631 0.2990
vt -0.9990 0.2990
vt -0.7595 0.3664
vt -0.9567 0.3192
vt -0.7595 0.3192
vt -0.9567 0.3664
vt -0.5938 0.0092
vt -0.9297 0.0864
vt -0.9297 0.0092
vt -0.5938 0.0864
vt 0.6604 0.3791
vt 0.3399 0.0220
vt 0.6604 0.0220
vt 0.3399 0.3791
vt 0.3224 0.0841
vt 0.6430 0.0039
vt 0.6430 0.0841
vt 0.3224 0.0039
vt -0.7705 0.3230
vt -0.9627 0.3746
vt -0.9627 0.3230
vt -0.7705 0.3746
vt -2.7120 2.5669
vt -2.1196 2.9878
vt -2.7120 2.9878
vt -2.1196 2.5669

vn 0.1392 0.0000 0.9903
vn 0.0000 -1.0000 0.0000
vn -0.9903 0.0000 0.1392
vn -0.1392 0.0000 -0.9903
vn 0.0000 1.0000 0.0000
vn 0.9903 0.0000 -0.1392
vn -0.1377 0.1449 -0.9798
vn -0.1166 0.5455 -0.8299
vn -0.0905 0.7600 -0.6436
vn -0.0738 0.8477 -0.5253
vn -0.1252 0.4372 -0.8906
vn 0.9976 0.0000 0.0698
vn -0.0698 0.0000 0.9976
vn 0.0000 1.0000 0.0000
vn -0.9976 0.0000 -0.0698
vn 0.0698 0.0000 -0.9976
vn 0.0000 -1.0000 0.0000
vn -0.1045 0.0000 -0.9945
vn -0.0000 -1.0000 0.0000
vn 0.9945 0.0000 -0.1045
vn 0.1045 0.0000 0.9945
vn -0.0000 1.0000 0.0000
vn -0.9945 0.0000 0.1045
vn 0.1034 0.1449 0.9840
vn 0.0876 0.5455 0.8335
vn 0.0679 0.7600 0.6464
vn 0.0555 0.8477 0.5276
vn 0.0940 0.4372 0.8945

usemtl truck
f 1/1/1 2/2/1 3/3/1
f 2/2/1 1/1/1 4/4/1
f 1/5/2 5/6/2 6/7/2
f 5/6/2 1/5/2 3/8/2
f 3/9/3 7/10/3 5/11/3
f 7/10/3 3/9/3 8/12/3
f 8/12/3 3/9/3 9/13/3
f 9/13/3 3/9/3 2/14/3
f 9/13/3 2/14/3 10/15/3
f 10/15/3 2/14/3 11/16/3
f 12/17/3 7/10/3 8/12/3
f 13/18/3 7/10/3 12/17/3
f 14/19/3 7/10/3 13/18/3
f 14/19/3 15/20/3 7/10/3
f 15/20/3 14/19/3 16/21/3
f 7/22/4 6/23/4 5/24/4
f 6/23/4 7/22/4 17/25/4
f 13/26/5 18/27/5 19/28/5
f 18/27/5 13/26/5 12/29/5
f 4/14/6 20/15/6 21/16/6
f 20/15/6 4/14/6 22/13/6
f 1/9/6 22/13/6 4/14/6
f 1/9/6 23/12/6 22/13/6
f 6/11/6 23/12/6 1/9/6
f 17/10/6 23/12/6 6/11/6
f 17/10/6 18/17/6 23/12/6
f 17/10/6 19/18/6 18/17/6
f 17/10/6 24/19/6 19/18/6
f 25/20/6 24/19/6 17/10/6
f 24/19/6 25/20/6 26/21/6
f 16/30/7 25/31/4 15/32/4
f 25/31/4 16/30/7 26/33/7
f 14/34/8 26/33/7 16/30/7
f 26/33/7 14/34/8 24/35/8
f 14/34/8 19/28/9 24/35/8
f 19/28/9 14/34/8 13/26/9
f 8/36/10 18/37/11 12/38/11
f 18/37/11 8/36/10 23/39/10
f 7/40/2 25/41/2 17/42/2
f 25/41/2 7/40/2 15/43/2
f 20/44/1 11/45/1 21/46/1
f 11/45/1 20/44/1 10/47/1
f 11/48/2 4/49/2 21/50/2
f 4/49/2 11/48/2 2/51/2
f 8/52/10 22/53/5 23/54/10
f 22/53/5 8/52/10 9/55/5
f 9/56/5 20/57/5 22/58/5
f 20/57/5 9/56/5 10/59/5
f 27/60/12 28/61/12 29/62/12
f 28/61/12 27/60/12 30/63/12
f 27/64/13 31/65/13 30/66/13
f 31/65/13 27/64/13 32/67/13
f 33/68/14 27/69/14 29/70/14
f 27/69/14 33/68/14 32/71/14
f 31/63/15 33/62/15 34/61/15
f 33/62/15 31/63/15 32/60/15
f 34/65/16 29/64/16 28/66/16
f 29/64/16 34/65/16 33/67/16
f 31/71/17 28/70/17 30/69/17
f 28/70/17 31/71/17 34/68/17
f 35/72/18 36/73/18 37/74/18
f 36/73/18 35/72/18 38/75/18
f 35/76/19 39/77/19 40/78/19
f 39/77/19 35/76/19 37/79/19
f 37/80/20 41/81/20 39/82/20
f 41/81/20 37/80/20 42/83/20
f 42/83/20 37/80/20 43/84/20
f 43/84/20 37/80/20 36/85/20
f 43/84/20 36/85/20 44/86/20
f 44/86/20 36/85/20 45/87/20
f 46/88/20 41/81/20 42/83/20
f 47/89/20 41/81/20 46/88/20
f 48/90/20 41/81/20 47/89/20
f 48/90/20 49/91/20 41/81/20
f 49/91/20 48/90/20 50/92/20
f 41/93/21 40/94/21 39/95/21
f 40/94/21 41/93/21 51/96/21
f 47/97/22 52/98/22 53/99/22
f 52/98/22 47/97/22 46/100/22
f 38/85/23 54/86/23 55/87/23
f 54/86/23 38/85/23 56/84/23
f 35/80/23 56/84/23 38/85/23
f 35/80/23 57/83/23 56/84/23
f 40/82/23 57/83/23 35/80/23
f 51/81/23 57/83/23 40/82/23
f 51/81/23 52/88/23 57/83/23
f 51/81/23 53/89/23 52/88/23
f 51/81/23 58/90/23 53/89/23
f 59/91/23 58/90/23 51/81/23
f 58/90/23 59/91/23 60/92/23
f 50/101/24 59/102/21 49/103/21
f 59/102/21 50/101/24 60/104/24
f 48/105/25 60/104/24 50/101/24
f 60/104/24 48/105/25 58/106/25
f 48/105/25 53/99/26 58/106/25
f 53/99/26 48/105/25 47/97/26
f 42/107/27 52/108/28 46/109/28
f 52/108/28 42/107/27 57/110/27
f 41/111/19 59/112/19 51/113/19
f 59/112/19 41/111/19 49/114/19
f 54/115/18 45/116/18 55/117/18
f 45/116/18 54/115/18 44/118/18
f 45/119/19 38/120/19 55/121/19
f 38/120/19 45/119/19 36/122/19
f 42/123/27 56/124/22 57/125/27
f 56/124/22 42/123/27 43/126/22
f 43/127/22 54/128/22 56/129/22
f 54/128/22 43/127/22 44/130/22
