# Generated by TyraX Tree Generator (seed 6540, 740 triangles)
mtllib fern-bush.mtl
v 0.00000 0.00000 -0.10912
v -0.10912 0.00000 0.00000
v -0.07689 0.53466 0.01446
v 0.00996 0.53540 -0.07232
v 0.00000 0.00000 0.10912
v 0.00987 0.53069 0.10125
v 0.10912 0.00000 -0.00000
v 0.09672 0.53143 0.01446
v -0.00000 0.00000 -0.10912
v 0.00996 0.53540 -0.07232
v -0.04629 1.06610 0.05909
v 0.02352 1.07017 -0.01038
v 0.02325 1.05851 0.12853
v 0.09306 1.06257 0.05906
v 0.02352 1.07017 -0.01038
v -0.00326 1.59897 0.08868
v 0.05125 1.59915 0.03408
v 0.05120 1.59311 0.14303
v 0.10571 1.59328 0.08842
v 0.05125 1.59915 0.03408
v 0.07072 1.96838 0.10919
v 0.05076 0.01332 -0.04467
v -0.01937 -0.04191 -0.05117
v -0.15206 0.18476 -0.35768
v -0.09208 0.23109 -0.35106
v -0.06762 0.01332 0.00014
v -0.19138 0.22881 -0.30970
v 0.00251 0.06855 0.00664
v -0.13139 0.27514 -0.30308
v 0.05076 0.01332 -0.04467
v -0.27506 0.43240 -0.65105
v -0.22457 0.46862 -0.64306
v -0.30666 0.46733 -0.60974
v -0.25616 0.50355 -0.60175
v -0.22457 0.46862 -0.64306
v -0.40642 0.71367 -0.91039
v -0.36614 0.74087 -0.90256
v -0.42956 0.73748 -0.87405
v -0.38929 0.76468 -0.86622
v -0.49042 0.92902 -1.07164
v -0.10913 0.23616 -0.32308
v -0.14124 0.21220 -0.35935
v 0.03222 0.44346 -0.59763
v 0.05503 0.45956 -0.56641
v -0.15504 0.26013 -0.33854
v 0.01821 0.47679 -0.57648
v -0.10913 0.23616 -0.32308
v 0.05503 0.45956 -0.56641
v 0.19598 0.68718 -0.82387
v 0.21187 0.69820 -0.80130
v 0.18535 0.70989 -0.80791
v 0.31154 0.86537 -0.97262
v -0.14260 0.22663 -0.36418
v -0.15330 0.20044 -0.31813
v -0.45753 0.18408 -0.46054
v -0.44375 0.20512 -0.49403
v -0.16574 0.25281 -0.32296
v -0.46009 0.22588 -0.46153
v -0.75788 0.21100 -0.60225
v -0.74630 0.22593 -0.62520
v -0.75622 0.24067 -0.60137
v -0.96324 0.24045 -0.70590
v -0.26704 0.47676 -0.65293
v -0.28910 0.47714 -0.61428
v -0.34225 0.83196 -0.64941
v -0.32520 0.83203 -0.67939
v -0.24497 0.48285 -0.61476
v -0.30821 0.83749 -0.64987
v -0.37576 1.19068 -0.68568
v -0.36356 1.19002 -0.70689
v -0.35142 1.19327 -0.68588
v -0.39044 1.44157 -0.71610
v -0.04250 0.54695 0.00637
v -0.01237 0.50830 0.05802
v -0.12303 0.72469 0.23878
v -0.14672 0.75371 0.19124
v 0.04716 0.54695 0.05223
v -0.07213 0.75695 0.23312
v 0.01702 0.58561 0.00057
v -0.09582 0.78598 0.18558
v -0.04250 0.54695 0.00637
v -0.22101 0.94981 0.41300
v -0.24024 0.97324 0.37343
v -0.17813 0.97446 0.40676
v -0.19737 0.99790 0.36719
v -0.30545 1.17736 0.58869
v -0.32077 1.19628 0.55801
v -0.27124 1.19551 0.58281
v -0.28656 1.21443 0.55213
v -0.35678 1.35133 0.69664
v -0.11891 0.76118 0.18755
v -0.12987 0.74318 0.22503
v -0.35918 0.91937 0.22905
v -0.35002 0.93287 0.20000
v -0.10637 0.77918 0.22453
v -0.33932 0.94613 0.22864
v -0.35002 0.93287 0.20000
v -0.56838 1.12033 0.22397
v -0.56042 1.12865 0.20331
v -0.55228 1.13764 0.22361
v -0.70796 1.26613 0.21538
v -0.13013 0.75583 0.22956
v -0.09418 0.73435 0.21980
v -0.02645 0.80122 0.44657
v -0.05523 0.81741 0.45107
v -0.09475 0.77730 0.21789
v -0.02889 0.83345 0.43844
v 0.04867 0.90089 0.65563
v 0.02807 0.91223 0.65818
v 0.04597 0.92265 0.64676
v 0.09533 0.97812 0.79924
v -0.21157 0.97935 0.36865
v -0.22861 0.97897 0.39969
v -0.29286 1.20349 0.36727
v -0.27979 1.20424 0.34316
v -0.19452 0.98843 0.39833
v -0.26659 1.21133 0.36615
v -0.34340 1.43389 0.35041
v -0.33424 1.43499 0.33326
v -0.32445 1.43834 0.34976
v -0.33424 1.43499 0.33326
v -0.37203 1.59631 0.33440
v 0.03347 1.07275 0.10109
v 0.05788 1.03735 0.06342
v 0.34073 1.23224 0.11504
v 0.31646 1.26013 0.14657
v 0.04358 1.07275 0.02088
v 0.32767 1.26186 0.07880
v 0.01916 1.10815 0.05854
v 0.30341 1.28975 0.11033
v 0.03347 1.07275 0.10109
v 0.61125 1.43713 0.18093
v 0.58930 1.45871 0.20651
v 0.60059 1.46163 0.15113
v 0.57865 1.48320 0.17671
v 0.85656 1.67676 0.23924
v 0.83740 1.69214 0.25886
v 0.84588 1.69406 0.21525
v 0.82673 1.70944 0.23488
v 1.01433 1.85615 0.27782
v 0.30767 1.26295 0.12881
v 0.33635 1.24614 0.11949
v 0.48035 1.39645 0.43378
v 0.45712 1.40870 0.43888
v 0.33298 1.27975 0.11241
v 0.47586 1.42109 0.42436
v 0.60377 1.58368 0.73523
v 0.58668 1.59162 0.73753
v 0.59978 1.60023 0.72682
v 0.68469 1.72001 0.94379
v 0.61058 1.46098 0.18745
v 0.59674 1.44686 0.16703
v 0.81535 1.54326 -0.00635
v 0.82452 1.55380 0.01068
v 0.59417 1.47510 0.16903
v 0.80983 1.56415 -0.00206
v 0.82452 1.55380 0.01068
v 1.02714 1.67648 -0.16097
v 1.03253 1.68333 -0.14799
v 1.02168 1.69049 -0.15668
v 1.17450 1.77422 -0.26440
v 0.59595 1.46771 0.16265
v 0.58188 1.46891 0.18732
v 0.63199 1.78512 0.18932
v 0.64283 1.78375 0.17019
v 0.61002 1.46488 0.18719
v 0.65378 1.78189 0.18921
v 0.67739 2.10159 0.17262
v 0.68499 2.09994 0.15906
v 0.69288 2.09952 0.17255
v 0.71464 2.32208 0.15770
v 0.04855 1.60560 0.05553
v 0.02020 1.58283 0.08162
v -0.18096 1.84520 0.03737
v -0.15470 1.86213 0.01567
v 0.03475 1.60560 0.11730
v -0.16636 1.86205 0.06819
v 0.06309 1.62837 0.09120
v -0.14010 1.87898 0.04649
v 0.04855 1.60560 0.05553
v -0.35244 2.12838 0.00463
v -0.32956 2.14057 -0.01296
v -0.33882 2.13995 0.03036
v -0.31594 2.15214 0.01277
v -0.32956 2.14057 -0.01296
v -0.51994 2.40981 -0.03351
v -0.50176 2.41906 -0.04729
v -0.50938 2.41913 -0.01332
v -0.49120 2.42838 -0.02710
v -0.62554 2.61428 -0.05761
v -0.14864 1.86360 0.02989
v -0.17141 1.85043 0.03607
v -0.27719 1.97852 -0.26144
v -0.25869 1.98796 -0.26415
v -0.16908 1.87677 0.04168
v -0.27423 1.99799 -0.25431
v -0.37061 2.16449 -0.53080
v -0.35704 2.17053 -0.53151
v -0.36764 2.17701 -0.52335
v -0.43164 2.29844 -0.71656
v -0.34701 2.14182 0.00332
v -0.33567 2.13115 0.01922
v -0.50248 2.25295 0.18130
v -0.51017 2.26060 0.16789
v -0.33121 2.15250 0.01480
v -0.49689 2.26830 0.17576
v -0.34701 2.14182 0.00332
v -0.65821 2.40566 0.32600
v -0.66303 2.41054 0.31586
v -0.65319 2.41567 0.32104
v -0.76662 2.51563 0.42315
v -0.33509 2.14506 0.02181
v -0.32049 2.13951 0.00596
v -0.19873 2.41052 0.03345
v -0.21019 2.41459 0.04568
v -0.33902 2.15061 0.00063
v -0.21374 2.41786 0.02913
v -0.33509 2.14506 0.02181
v -0.08821 2.68455 0.07307
v -0.09661 2.68680 0.08168
v -0.09899 2.68946 0.06997
v -0.01554 2.87777 0.10208
v -0.00123 0.47148 -0.49976
v -0.17692 0.69917 -0.51500
v -0.41926 0.50452 -0.62934
v -0.24357 0.27683 -0.61410
v -0.29518 0.81768 -0.76835
v -0.19606 0.63205 -0.91074
v -0.35607 0.72122 -1.13838
v -0.45519 0.90686 -0.99599
v -0.48659 0.84089 -1.26247
v -0.70941 0.95436 -1.18893
v -0.59432 1.00387 -0.91664
v -0.37151 0.89040 -0.99018
v 0.07216 0.27736 -0.61540
v 0.34048 0.44333 -0.62817
v 0.18162 0.71418 -0.44580
v -0.08669 0.54822 -0.43303
v 0.36667 0.64676 -0.92156
v 0.33978 0.85855 -0.76853
v 0.05826 0.89690 -0.87110
v 0.08515 0.68512 -1.02412
v -0.06937 0.88163 -0.77405
v 0.24571 0.91454 -0.61439
v 0.43280 0.81676 -0.96348
v 0.11773 0.78386 -1.12314
v -0.51794 -0.03489 -0.39536
v -0.41871 0.15638 -0.61241
v -0.46939 0.42867 -0.39562
v -0.56862 0.23740 -0.17857
v -0.78302 0.12082 -0.73558
v -0.84454 0.15738 -0.48913
v -0.57165 0.25622 -0.43568
v -0.51013 0.21966 -0.68213
v -1.16692 0.08799 -0.75132
v -1.03793 0.11974 -0.53938
v -0.89057 0.33462 -0.66125
v -1.01956 0.30287 -0.87319
v -0.38013 0.88745 -0.51350
v -0.17805 0.91826 -0.72253
v -0.36126 0.72534 -0.92808
v -0.56334 0.69453 -0.71906
v -0.39340 1.18786 -0.43125
v -0.24842 1.18470 -0.62800
v -0.47444 1.19590 -0.79472
v -0.61942 1.19905 -0.59797
v -0.30952 1.65346 -0.63392
v -0.50553 1.58244 -0.81179
v -0.47741 1.28147 -0.72262
v -0.28139 1.35249 -0.54475
v -0.19949 0.96448 0.18744
v -0.38753 1.14249 0.34579
v -0.13107 1.21210 0.57208
v 0.05697 1.03410 0.41372
v -0.18228 1.02919 0.61588
v -0.44535 1.03938 0.57559
v -0.42297 1.33648 0.50465
v -0.15991 1.32630 0.54494
v -0.23323 1.04847 0.52076
v -0.40161 1.31121 0.47587
v -0.48939 1.31505 0.82764
v -0.32101 1.05231 0.87252
v -0.31090 0.76312 0.12241
v -0.48193 0.91454 0.24843
v -0.26306 1.11015 0.31044
v -0.09203 0.95873 0.18442
v -0.53833 1.06029 0.15904
v -0.68059 1.27192 0.15260
v -0.50735 1.39454 0.35510
v -0.36508 1.18291 0.36153
v -0.47534 1.12041 0.28266
v -0.47765 1.41629 0.40643
v -0.82556 1.46124 0.29248
v -0.82325 1.16536 0.16871
v -0.16215 1.11377 0.56522
v -0.21657 0.92346 0.32841
v -0.02641 0.67003 0.48839
v 0.02801 0.86034 0.72519
v 0.00568 0.77038 0.88208
v 0.05914 1.09504 0.83976
v 0.04717 1.04769 0.46139
v -0.00628 0.72303 0.50371
v -0.18419 0.95936 0.60808
v 0.13773 0.89130 0.45101
v 0.33027 1.11531 0.74857
v 0.00836 1.18337 0.90564
v -0.34987 0.96850 0.27833
v -0.25906 1.20046 0.18608
v -0.14603 1.26604 0.46221
v -0.23684 1.03407 0.55446
v -0.22066 1.67389 0.34661
v -0.25329 1.55075 0.01214
v -0.53665 1.28063 0.13923
v -0.50403 1.40377 0.47370
v -0.08480 1.48304 0.30495
v -0.36164 1.39925 0.20070
v -0.51493 1.57547 0.46613
v -0.23810 1.65926 0.57038
v 0.84705 1.33239 0.43537
v 0.80966 1.67585 0.44801
v 0.56527 1.66078 0.13477
v 0.60266 1.31732 0.12212
v 0.82671 1.51833 0.37561
v 0.81594 1.81388 0.57239
v 0.91702 2.03579 0.24464
v 0.92779 1.74024 0.04785
v 0.69696 1.77579 0.27197
v 0.96338 1.58959 0.28060
v 1.14195 1.83496 0.06216
v 0.87554 2.02117 0.05352
v 0.59350 1.15282 0.35162
v 0.58095 1.40278 0.11405
v 0.37331 1.63023 0.36433
v 0.38587 1.38027 0.60190
v 0.65143 1.36312 0.72085
v 0.86228 1.49216 0.79887
v 0.70935 1.74787 0.78922
v 0.49851 1.61883 0.71120
v 0.53180 1.66923 1.03710
v 0.72571 1.77715 0.80538
v 0.68935 1.45689 0.62580
v 0.49545 1.34898 0.85752
v 0.66591 1.64267 0.04090
v 0.75920 1.89825 -0.19580
v 1.10190 1.68499 -0.29102
v 1.00862 1.42941 -0.05432
v 1.08489 2.02795 -0.21998
v 1.33174 1.84762 -0.24979
v 1.13979 1.56838 -0.15011
v 0.89294 1.74870 -0.12030
v 0.88039 1.90191 -0.10746
v 1.20631 1.87962 -0.07280
v 1.23137 1.71715 -0.41295
v 0.90545 1.73944 -0.44761
v 0.77244 1.87886 0.37260
v 0.57139 2.00689 0.44015
v 0.46382 1.97622 0.17813
v 0.66487 1.84819 0.11058
v 0.67138 2.52357 0.18231
v 0.82060 2.38475 -0.10313
v 0.65972 2.02607 -0.01280
v 0.51050 2.16490 0.27265
v 0.68570 2.26375 0.35297
v 0.97339 2.32460 0.16238
v 0.84990 2.05471 -0.11020
v 0.56221 1.99386 0.08039
v -0.70287 2.34002 0.06182
v -0.49940 2.23491 0.27006
v -0.25629 2.19614 0.01295
v -0.45976 2.30125 -0.19529
v -0.23879 2.39188 0.00283
v -0.46019 2.24218 -0.05323
v -0.64177 2.49486 -0.01081
v -0.42037 2.64455 0.04525
v -0.74179 2.79457 -0.04396
v -0.64294 2.59949 0.09335
v -0.58676 2.45122 -0.15774
v -0.68560 2.64631 -0.29505
v -0.37218 2.02077 -0.43858
v -0.46459 2.13183 -0.24213
v -0.20743 2.21651 -0.16904
v -0.11502 2.10544 -0.36548
v -0.67713 2.15284 -0.75220
v -0.58295 2.47411 -0.67675
v -0.23882 2.34046 -0.53720
v -0.33300 2.01918 -0.61265
v -0.27368 2.21006 -0.72250
v -0.34975 2.38395 -0.92125
v -0.60828 2.45972 -0.75601
v -0.53221 2.28583 -0.55725
v -0.71499 2.15818 0.40539
v -0.49458 2.25432 0.48645
v -0.44492 2.36445 0.22081
v -0.66533 2.26832 0.13975
v -0.71463 2.25618 0.18168
v -0.70611 2.47964 0.04906
v -0.65513 2.62856 0.30327
v -0.66365 2.40509 0.43588
v -0.93974 2.31282 0.47744
v -0.87951 2.53073 0.57250
v -0.74603 2.59815 0.33336
v -0.80626 2.38024 0.23831
v -0.36998 2.65660 -0.04965
v -0.20698 2.46840 0.19845
v -0.06116 2.22040 -0.08548
v -0.22416 2.40860 -0.33358
v -0.24246 2.70453 0.07001
v -0.04344 2.96633 0.08327
v 0.21067 2.76336 0.27690
v 0.01164 2.50155 0.26364
v 0.03955 2.73540 -0.02771
v 0.06714 2.93068 0.23287
v -0.29782 3.01659 0.20713
v -0.32541 2.82131 -0.05345
v -0.19823 0.56835 -0.50417
v -0.25902 0.25948 -0.60314
v -0.22743 0.36921 -0.96504
v -0.16664 0.67809 -0.86608
v -0.59895 0.88935 -1.12487
v -0.38044 0.60592 -1.17296
v -0.13306 0.74522 -0.86992
v -0.35157 1.02864 -0.82183
v -0.18237 1.08855 -1.06705
v -0.37288 1.10846 -0.77786
v -0.62655 0.83881 -0.92642
v -0.43603 0.81890 -1.21560
v 0.33411 0.56518 -0.44256
v 0.06464 0.45535 -0.38296
v -0.00457 0.44376 -0.71726
v 0.26490 0.55359 -0.77686
v 0.27705 0.89580 -1.12426
v 0.33854 0.60737 -0.91441
v 0.01848 0.71591 -0.67143
v -0.04302 1.00434 -0.88128
v 0.18806 1.08160 -0.87046
v 0.35808 0.95136 -0.75288
v 0.34338 0.75300 -0.95133
v 0.17336 0.88324 -1.06891
v -0.60816 0.40805 -0.37059
v -0.48717 0.42827 -0.65086
v -0.33631 0.11325 -0.60846
v -0.45731 0.09304 -0.32819
v -0.80080 -0.04400 -0.53963
v -0.82993 0.16221 -0.29870
v -0.84430 0.43938 -0.53767
v -0.81517 0.23316 -0.77860
v -1.07265 0.27907 -0.66475
v -0.95962 0.38517 -0.46647
v -0.71010 0.39307 -0.61294
v -0.82313 0.28697 -0.81122
v -0.54436 0.81596 -0.87751
v -0.26562 0.69278 -0.87142
v -0.20224 0.85134 -0.56530
v -0.48098 0.97452 -0.57139
v -0.11491 1.27881 -0.74054
v -0.37278 1.48184 -0.79321
v -0.56899 1.30417 -0.51742
v -0.31112 1.10114 -0.46475
v -0.44906 1.33629 -0.97283
v -0.23461 1.12071 -0.86663
v -0.22408 1.29271 -0.53874
v -0.43853 1.50829 -0.64495
v -0.37403 1.09479 0.17900
v -0.47243 1.10954 0.42573
v -0.19090 1.07416 0.54012
v -0.09250 1.05941 0.29340
v -0.43621 1.09571 0.56940
v -0.25137 1.10816 0.77410
v -0.07695 1.31192 0.60420
v -0.26179 1.29947 0.39950
v -0.23855 1.23611 0.89337
v -0.26184 1.05063 0.70273
v -0.32970 1.26936 0.49821
v -0.30641 1.45484 0.68884
v -0.43078 0.99827 0.05335
v -0.36081 0.86535 0.27706
v -0.29632 1.13435 0.41672
v -0.36629 1.26727 0.19301
v -0.52098 1.07176 0.32804
v -0.54423 1.27762 0.15927
v -0.81622 1.16984 0.06528
v -0.79297 0.96398 0.23405
v -0.83380 1.07644 0.34830
v -0.73821 1.32821 0.47695
v -0.44953 1.31316 0.29192
v -0.54511 1.06139 0.16327
v -0.10267 0.68150 0.35020
v 0.15492 0.72561 0.35371
v 0.10557 1.00623 0.44941
v -0.15202 0.96212 0.44589
v 0.00364 0.95828 0.86972
v 0.18165 0.74974 0.73640
v 0.34005 1.00263 0.55232
v 0.16203 1.21117 0.68564
v 0.21752 1.19736 0.96822
v 0.20467 0.96999 1.11778
v 0.07162 0.81938 0.87739
v 0.08448 1.04675 0.72783
v -0.28791 1.06891 0.45597
v -0.23098 1.37250 0.42373
v -0.19973 1.32914 0.07061
v -0.25666 1.02555 0.10285
v -0.26326 1.47387 0.14412
v -0.46181 1.49426 0.33388
v -0.24737 1.58520 0.54848
v -0.04882 1.56481 0.35872
v -0.27691 1.72907 0.52794
v -0.03495 1.63319 0.29414
v -0.32258 1.47554 0.06113
v -0.56454 1.57143 0.29493
v 0.79603 1.32959 0.28792
v 0.65462 1.20480 0.12552
v 0.52412 1.44863 0.05178
v 0.66553 1.57343 0.21418
v 1.04714 1.79356 0.46803
v 0.88922 1.54005 0.29206
v 0.92019 1.75349 -0.04322
v 1.07810 2.00700 0.13275
v 0.84460 1.80707 0.07064
v 0.76696 1.77619 0.30547
v 1.02715 1.68103 0.37899
v 1.10480 1.71191 0.14416
v 0.62682 1.28314 0.39671
v 0.45293 1.47743 0.44056
v 0.60319 1.55488 0.69330
v 0.77708 1.36059 0.64945
v 0.88841 1.63459 0.62152
v 0.64561 1.52345 0.53991
v 0.52255 1.57822 0.83140
v 0.76536 1.68935 0.91302
v 0.73974 1.38598 0.99577
v 0.84471 1.65993 1.20263
v 0.62512 1.92024 0.96934
v 0.52015 1.64629 0.76247
v 0.95068 1.72019 0.08587
v 0.83232 1.69987 -0.15517
v 0.65104 1.47325 -0.04705
v 0.76940 1.49357 0.19399
v 0.97580 1.56957 -0.24585
v 0.95668 1.73890 -0.04388
v 1.25141 1.69832 0.01804
v 1.27054 1.52899 -0.18392
v 0.94693 2.01958 -0.12185
v 0.88909 1.72397 -0.04724
v 1.16416 1.61921 -0.24904
v 1.22200 1.91483 -0.32365
v 0.83098 1.70459 0.10082
v 0.91634 1.93493 0.08398
v 0.69053 2.02904 0.22657
v 0.60517 1.79870 0.24341
v 0.47549 2.05167 0.34011
v 0.67648 2.24635 0.34634
v 0.79107 2.13702 0.06613
v 0.59008 1.94233 0.05990
v 0.68382 2.44068 0.09309
v 0.60993 2.21147 0.13983
v 0.86295 2.11402 0.06189
v 0.93684 2.34323 0.01515
v -0.42574 2.03875 0.05873
v -0.27768 2.10919 -0.16420
v -0.45400 2.37192 -0.19829
v -0.60206 2.30148 0.02464
v -0.52788 2.51171 0.13577
v -0.28338 2.34563 -0.02927
v -0.42730 2.47096 -0.36860
v -0.67179 2.63705 -0.20355
v -0.89781 2.62427 -0.09713
v -0.57859 2.66561 -0.21476
v -0.45655 2.36683 0.01142
v -0.77577 2.32548 0.12905
v -0.14692 2.07082 -0.06682
v 0.06118 1.97345 -0.29560
v -0.22316 1.84409 -0.49918
v -0.43126 1.94145 -0.27039
v -0.26169 2.29581 -0.68858
v -0.14262 2.22096 -0.46694
v -0.39812 2.08981 -0.37397
v -0.51719 2.16466 -0.59561
v -0.13408 2.25423 -0.71338
v -0.36444 2.15815 -0.78810
v -0.50439 2.37134 -0.63081
v -0.27402 2.46742 -0.55608
v -0.61932 2.39719 0.08792
v -0.75411 2.10579 0.09182
v -0.45344 1.96893 0.25681
v -0.31866 2.26034 0.25290
v -0.76869 2.45955 0.08659
v -0.52833 2.58467 0.17421
v -0.64171 2.58733 0.48145
v -0.88207 2.46221 0.39383
v -0.59302 2.44628 0.19093
v -0.50549 2.27139 0.41201
v -0.77185 2.37183 0.59692
v -0.85937 2.54673 0.37584
v -0.23596 2.36092 0.24305
v -0.48172 2.42685 0.14262
v -0.34381 2.56609 -0.10346
v -0.09805 2.50016 -0.00303
v -0.03128 2.91378 0.30988
v -0.21329 2.64772 0.31135
v -0.01924 2.51339 0.02546
v 0.16277 2.77945 0.02399
v 0.10214 2.77121 0.17454
v -0.05899 2.85128 -0.02391
v -0.25099 2.97588 0.18227
v -0.08986 2.89582 0.38071
v -0.38626 0.25679 -0.44529
v -0.44518 0.27970 -0.73559
v -0.32332 0.59890 -0.73513
v -0.26440 0.57599 -0.44483
v -0.69606 0.71531 -1.02602
v -0.52316 0.46364 -0.84837
v -0.18261 0.68434 -0.86716
v -0.35551 0.93601 -1.04481
v -0.44142 0.82449 -1.17738
v -0.50569 1.13179 -1.11415
v -0.43930 1.07216 -0.75683
v -0.37502 0.76486 -0.82006
v 0.26181 0.72196 -0.57344
v 0.20809 0.46706 -0.39617
v -0.12501 0.43987 -0.53621
v -0.07129 0.69477 -0.71348
v 0.01349 0.88814 -1.00090
v 0.34132 0.84324 -0.92574
v 0.24475 0.56302 -0.67192
v -0.08308 0.60792 -0.74708
v 0.32868 0.67629 -0.68494
v 0.46897 0.69867 -1.00732
v 0.10207 0.77398 -1.16176
v -0.03822 0.75160 -0.83938
v -0.43018 0.29476 -0.58545
v -0.67775 0.40710 -0.47968
v -0.67205 0.18392 -0.22929
v -0.42448 0.07158 -0.33506
v -0.82488 -0.03881 -0.55490
v -0.74211 0.20231 -0.48866
v -0.78123 0.29429 -0.77459
v -0.86400 0.05318 -0.84083
v -0.82593 -0.02005 -0.64203
v -0.76676 0.26414 -0.45096
v -1.11715 0.41617 -0.56858
v -1.17632 0.13198 -0.75966
v -0.10832 0.77421 -0.57419
v -0.08403 1.03592 -0.63751
v -0.35485 1.02422 -0.78977
v -0.37914 0.76251 -0.72645
v -0.20501 1.04638 -0.60106
v -0.29664 1.26570 -0.85575
v -0.59048 1.41065 -0.62521
v -0.49885 1.19133 -0.37052
v -0.36041 1.49733 -0.72827
v -0.25277 1.26258 -0.67554
v -0.51334 1.17119 -0.55053
v -0.62098 1.40593 -0.60327
v -0.01690 0.91693 0.45784
v -0.28075 0.93598 0.23792
v -0.33971 1.31326 0.34133
v -0.07586 1.29421 0.56125
v -0.10989 1.11186 0.47420
v -0.19726 1.37229 0.35102
v -0.48010 1.37182 0.55065
v -0.39274 1.11140 0.67383
v -0.62018 1.51687 0.60032
v -0.30581 1.54151 0.70180
v -0.26286 1.16530 0.66010
v -0.57723 1.14066 0.55862
v -0.15849 1.07091 0.08096
v -0.29789 0.87159 0.08620
v -0.43719 0.97478 0.30580
v -0.29780 1.17411 0.30056
v -0.77884 1.08798 0.31788
v -0.78851 1.27848 0.11883
v -0.53023 1.15207 -0.01470
v -0.52056 0.96157 0.18436
v -0.51661 1.25023 0.17661
v -0.73531 1.28691 0.39783
v -0.92405 1.01464 0.25637
v -0.70535 0.97797 0.03515
v -0.11430 0.72163 0.26150
v -0.11293 0.62206 0.50912
v 0.10326 0.82460 0.58937
v 0.10189 0.92418 0.34175
v 0.35700 1.04722 0.75622
v 0.06386 1.02715 0.55334
v -0.12717 0.81728 0.85012
v 0.16598 0.83735 1.05300
v 0.33111 0.76578 0.91592
v 0.21069 1.04944 1.09145
v -0.01557 1.15330 0.76840
v 0.10486 0.86964 0.59287
v -0.02599 1.08581 0.35640
v -0.30454 1.03589 0.13208
v -0.54623 1.26350 0.38154
v -0.26768 1.31342 0.60586
v -0.39374 1.57118 0.49519
v -0.19717 1.59184 0.22775
v -0.40542 1.32232 0.05385
v -0.60199 1.30166 0.32129
v -0.36355 1.71821 0.16729
v -0.33112 1.72291 0.44026
v -0.17338 1.44927 0.42623
v -0.20581 1.44457 0.15327
v 0.48154 1.30991 0.23822
v 0.74383 1.36538 0.11253
v 0.79566 1.61972 0.33291
v 0.53337 1.56425 0.45861
v 0.92266 1.72704 -0.02296
v 0.67381 1.74063 0.17038
v 0.89319 1.82428 0.44687
v 1.14204 1.81069 0.25353
v 0.81376 1.99810 0.21102
v 0.94028 1.94668 0.47663
v 0.97437 1.61453 0.39609
v 0.84785 1.66595 0.13048
v 0.48782 1.68439 0.35628
v 0.44006 1.38801 0.16432
v 0.28663 1.19917 0.49405
v 0.33439 1.49555 0.68601
v 0.47209 1.53076 0.50725
v 0.39216 1.66638 0.71384
v 0.62606 1.56607 0.87018
v 0.70599 1.43045 0.66359
v 0.76737 1.68327 1.01661
v 0.68724 1.46419 0.88220
v 0.40523 1.58762 0.84914
v 0.48536 1.80671 0.98355
v 0.94766 1.80173 -0.00343
v 1.21962 1.60764 -0.09568
v 0.97403 1.30786 -0.18896
v 0.70208 1.50195 -0.09671
v 1.17092 1.78427 -0.17850
v 1.13944 1.58358 -0.31449
v 0.88201 1.67178 -0.38505
v 0.91349 1.87246 -0.24907
v 1.44825 1.77135 -0.27657
v 1.26983 1.99065 -0.25647
v 1.03486 1.78997 -0.15279
v 1.21328 1.57068 -0.17288
v 0.56161 2.07522 0.31708
v 0.77066 2.11960 0.16136
v 0.67832 1.89832 -0.02566
v 0.46928 1.85394 0.13006
v 0.81609 1.97748 0.35157
v 0.89298 2.19853 0.14886
v 0.56563 2.33618 0.17478
v 0.48873 2.11513 0.37749
v 0.83184 2.31893 0.14270
v 0.69764 2.10565 0.11047
v 0.52865 2.17764 0.33766
v 0.66286 2.39092 0.36989
v -0.22257 1.96205 -0.11404
v -0.19584 2.27090 -0.02893
v -0.48422 2.23297 0.19926
v -0.51095 1.92412 0.11415
v -0.33779 2.42731 -0.04495
v -0.55246 2.54271 0.12413
v -0.74549 2.58986 -0.15315
v -0.53082 2.47446 -0.32222
v -0.45293 2.76831 -0.14968
v -0.62441 2.59781 -0.21286
v -0.67353 2.54418 0.06521
v -0.50205 2.71468 0.12838
v -0.35106 1.79053 -0.12126
v -0.21723 1.78277 -0.32954
v -0.28777 2.05313 -0.38493
v -0.42161 2.06089 -0.17665
v -0.36301 2.32127 -0.52940
v -0.17550 2.11033 -0.63443
v -0.37287 1.86397 -0.49199
v -0.56037 2.07491 -0.38696
v -0.50345 2.18354 -0.46952
v -0.63039 2.27640 -0.73735
v -0.37112 2.51901 -0.77612
v -0.24418 2.42615 -0.50828
v -0.64765 2.40602 0.01534
v -0.58913 2.33154 0.31469
v -0.25944 2.21727 0.22182
v -0.31796 2.29175 -0.07754
v -0.90824 2.51788 0.22495
v -0.76789 2.45332 0.48189
v -0.49187 2.34742 0.30450
v -0.63222 2.41197 0.04757
v -0.70406 2.66566 0.54433
v -0.86930 2.46270 0.44462
v -0.61034 2.27993 0.38748
v -0.44510 2.48288 0.48719
v -0.19595 2.24162 0.12107
v 0.12746 2.33481 0.10404
v 0.02475 2.65648 -0.08617
v -0.29866 2.56328 -0.06914
v 0.01768 2.70089 -0.24779
v 0.02668 2.93651 -0.01904
v -0.05437 2.68107 0.24726
v -0.06336 2.44545 0.01851
v -0.24320 2.98268 0.05386
v -0.07397 3.02034 0.30955
v 0.03345 2.68238 0.28824
v -0.13578 2.64472 0.03255
v -0.22807 0.36851 -0.77117
v -0.38358 0.55724 -0.94375
v -0.56992 0.65333 -0.67076
v -0.41440 0.46459 -0.49818
v -0.69764 0.88523 -0.92488
v -0.56713 0.65022 -0.98695
v -0.30585 0.75707 -0.84214
v -0.43635 0.99207 -0.78006
v -0.35448 0.88965 -0.90935
v -0.56522 0.66834 -0.84406
v -0.69419 0.69245 -1.17861
v -0.48346 0.91376 -1.24390
v 0.16885 0.63505 -0.54964
v 0.28088 0.63044 -0.84192
v 0.05253 0.36489 -0.92525
v -0.05950 0.36950 -0.63297
v 0.12458 0.80811 -0.66920
v 0.34699 0.92922 -0.80501
v 0.44694 0.63123 -0.90707
v 0.22453 0.51012 -0.77126
v 0.14515 0.68448 -0.88011
v 0.11760 0.86841 -0.69553
v 0.25668 1.06785 -0.87353
v 0.28423 0.88392 -1.05810
v -0.47927 0.03965 -0.73471
v -0.73992 0.11040 -0.59950
v -0.57170 0.15589 -0.29903
v -0.31105 0.08513 -0.43425
v -0.99258 0.17044 -0.43965
v -0.91935 0.50245 -0.49530
v -0.74807 0.40697 -0.83957
v -0.82130 0.07496 -0.78392
v -0.73135 0.25994 -0.77200
v -1.02425 0.31441 -0.91596
v -1.17700 0.39141 -0.57605
v -0.88409 0.33694 -0.43209
v -0.23344 0.86668 -0.74976
v -0.29403 0.89361 -0.45439
v -0.63395 0.85877 -0.52095
v -0.57336 0.83184 -0.81631
v -0.41456 1.16320 -0.77690
v -0.48553 1.20465 -0.53175
v -0.20001 1.20263 -0.44875
v -0.12904 1.16118 -0.69390
v -0.36091 1.48300 -0.72346
v -0.58827 1.31960 -0.83027
v -0.52910 1.08002 -0.58972
v -0.30174 1.24342 -0.48291
v -0.31226 1.08183 0.36555
v -0.30861 0.92744 0.59646
v -0.03029 1.05981 0.68056
v -0.03394 1.21419 0.44964
v -0.38981 1.20196 0.50890
v -0.46545 1.35656 0.75076
v -0.15887 1.50671 0.75066
v -0.08323 1.35211 0.50880
v -0.48432 1.55952 0.90850
v -0.17021 1.50015 0.85696
v -0.26058 1.23461 0.61205
v -0.57469 1.29399 0.66358
v -0.35056 0.99986 -0.02128
v -0.45899 0.88320 0.16541
v -0.36579 1.08139 0.34339
v -0.25736 1.19806 0.15670
v -0.44073 0.95812 0.00622
v -0.54221 0.82296 0.29077
v -0.74060 1.13803 0.36968
v -0.63912 1.27319 0.08514
v -0.85071 1.37259 0.37198
v -0.84013 1.09951 0.45443
v -0.60832 1.04062 0.22959
v -0.61890 1.31369 0.14715
v -0.20714 0.84516 0.50033
v -0.02031 0.87648 0.33546
v 0.14892 0.97771 0.54646
v -0.03791 0.94639 0.71133
v 0.14772 1.04095 0.46225
v -0.06027 1.12530 0.60149
v 0.05597 0.99859 0.85188
v 0.26396 0.91425 0.71264
v -0.01143 0.95005 0.84419
v 0.24183 0.88136 0.95809
v 0.38828 0.94397 0.67024
v 0.13501 1.01266 0.55633
v -0.58063 1.14755 0.30598
v -0.46239 1.33390 0.52312
v -0.13713 1.20537 0.45630
v -0.25537 1.01902 0.23916
v -0.43268 1.09525 0.36822
v -0.14023 1.23024 0.48729
v -0.25564 1.58773 0.36549
v -0.54809 1.45274 0.24642
v -0.60520 1.37386 0.38931
v -0.34810 1.35513 0.26463
v -0.25362 1.63076 0.41805
v -0.51071 1.64950 0.54273
v 0.81583 1.66322 0.03414
v 0.67776 1.78970 0.27192
v 0.45430 1.52312 0.28396
v 0.59237 1.39664 0.04618
v 0.83526 1.51583 0.03497
v 0.90579 1.85695 0.12746
v 0.98300 1.73559 0.51617
v 0.91247 1.39447 0.42368
v 1.01263 1.69394 0.52503
v 0.97719 1.62262 0.22945
v 0.85844 1.94774 0.16524
v 0.89387 2.01906 0.46082
v 0.63303 1.55999 0.41547
v 0.74928 1.41280 0.57663
v 0.50003 1.29858 0.65210
v 0.38378 1.44577 0.49094
v 0.55964 1.81554 0.68378
v 0.50583 1.51438 0.75068
v 0.72324 1.53908 1.03672
v 0.77704 1.84024 0.96982
v 0.56892 1.73328 0.75238
v 0.58260 1.90349 0.97294
v 0.89608 1.84163 1.00123
v 0.88239 1.67143 0.78067
v 0.79326 1.68349 0.18227
v 0.76105 1.38622 -0.00426
v 1.07628 1.49622 -0.23401
v 1.10849 1.79349 -0.04748
v 1.23415 1.69754 -0.01345
v 1.32716 1.82629 -0.33199
v 0.93645 1.92240 -0.40722
v 0.84345 1.79366 -0.08868
v 1.01755 1.88228 -0.40813
v 1.04197 1.67785 -0.22452
v 1.35052 1.74401 -0.19190
v 1.32610 1.94844 -0.37552
v 0.83051 1.89418 0.13235
v 0.78401 1.57336 0.01623
v 0.45245 1.54378 0.23073
v 0.49896 1.86461 0.34685
v 0.95900 2.12730 0.33585
v 0.83978 2.19627 0.03037
v 0.51137 2.32301 0.18716
v 0.63059 2.25404 0.49263
v 0.53758 2.25936 0.09256
v 0.64517 2.28339 0.36294
v 0.93818 2.38847 0.23701
v 0.83059 2.36445 -0.03337
v -0.16138 2.21785 0.13920
v -0.23920 2.45636 -0.06439
v -0.59335 2.34405 -0.06058
v -0.51553 2.10555 0.14301
v -0.70390 2.39672 0.08477
v -0.49387 2.60053 -0.02671
v -0.30134 2.32800 -0.16224
v -0.51137 2.12419 -0.05076
v -0.41017 2.86864 -0.04424
v -0.27547 2.55604 -0.03126
v -0.62881 2.40098 -0.09877
v -0.76351 2.71358 -0.11175
v -0.31510 2.03929 -0.11712
v -0.47554 2.13033 -0.41548
v -0.29801 1.82169 -0.60511
v -0.13757 1.73066 -0.30675
v -0.37996 2.13061 -0.72212
v -0.37157 2.42225 -0.54425
v -0.15413 2.24729 -0.26762
v -0.16252 1.95565 -0.44548
v -0.46360 2.22366 -0.89056
v -0.65948 2.08512 -0.74712
v -0.51472 2.16568 -0.47163
v -0.31884 2.30422 -0.61507
v -0.41603 2.15658 0.44598
v -0.25393 2.41385 0.25304
v -0.62135 2.59024 0.17954
v -0.78346 2.33297 0.37248
v -0.82230 2.24316 0.42738
v -0.74219 2.46235 0.60101
v -0.46566 2.50627 0.41797
v -0.54578 2.28708 0.24434
v -0.63916 2.48631 0.15330
v -0.89096 2.58126 0.15127
v -0.93030 2.48315 0.44215
v -0.67850 2.38819 0.44418
v -0.27505 2.44661 -0.02847
v -0.29740 2.34678 0.23017
v -0.03761 2.51221 0.31647
v -0.01526 2.61204 0.05783
v -0.05354 2.58545 0.18360
v 0.21168 2.68994 0.02495
v -0.00613 2.88147 -0.21302
v -0.27135 2.77699 -0.05437
v 0.18115 2.83652 0.05901
v 0.02804 2.95687 -0.09674
v -0.17049 2.75342 -0.05880
v -0.01737 2.63306 0.09695
v -0.24708 0.29032 -0.57239
v -0.50074 0.28972 -0.82270
v -0.46517 0.69631 -0.85971
v -0.21151 0.69691 -0.60941
v -0.46845 0.87621 -0.92374
v -0.37852 0.69538 -1.06491
v -0.14078 0.69327 -0.91075
v -0.23070 0.87409 -0.76959
v -0.72135 0.88836 -1.30841
v -0.74150 0.93247 -0.99099
v -0.37491 0.89790 -0.96292
v -0.35477 0.85379 -1.28035
v 0.25630 0.48219 -0.52102
v 0.13153 0.78556 -0.66037
v -0.24613 0.62654 -0.66841
v -0.12137 0.32317 -0.52906
v 0.21448 0.57214 -0.97687
v 0.11416 0.76048 -0.85426
v 0.23038 0.66604 -0.61410
v 0.33070 0.47770 -0.73671
v 0.29236 0.77987 -1.18807
v 0.11915 0.69749 -0.99019
v 0.35200 0.72112 -0.77652
v 0.52522 0.80349 -0.97440
v -0.71493 -0.03384 -0.33254
v -0.74066 0.24083 -0.56765
v -0.32627 0.24109 -0.61271
v -0.30053 -0.03358 -0.37759
v -0.87187 0.09489 -0.61431
v -1.03081 0.38930 -0.60851
v -0.69274 0.57218 -0.62706
v -0.53380 0.27777 -0.63286
v -0.89664 0.28171 -0.41967
v -1.06544 0.09600 -0.48926
v -1.05516 0.19281 -0.77249
v -0.88637 0.37852 -0.70290
v -0.12743 0.91383 -0.55393
v -0.28878 0.89258 -0.81858
v -0.53411 0.69250 -0.65295
v -0.37276 0.71374 -0.38829
v -0.33523 1.23600 -0.81557
v -0.53598 1.27833 -0.60627
v -0.39225 1.03727 -0.41965
v -0.19150 0.99493 -0.62894
v -0.54327 1.13096 -0.54355
v -0.54278 1.45326 -0.45944
v -0.24222 1.51279 -0.68932
v -0.24271 1.19050 -0.77343
v -0.15261 0.87188 0.49960
v 0.04884 1.06118 0.54867
v -0.14606 1.29595 0.44310
v -0.34750 1.10665 0.39403
v -0.34579 1.40390 0.70246
v -0.21056 1.42165 0.42501
v -0.13859 1.07371 0.43783
v -0.27382 1.05596 0.71528
v -0.18864 1.50584 0.79678
v -0.45863 1.49534 0.84504
v -0.45857 1.18685 0.77825
v -0.18858 1.19735 0.72999
v -0.71442 1.05807 0.08356
v -0.69200 0.98377 0.38945
v -0.33593 0.92617 0.34936
v -0.35836 1.00046 0.04347
v -0.77974 1.06577 0.17368
v -0.43605 1.09159 0.16172
v -0.46063 1.47096 0.27470
v -0.80431 1.44513 0.28665
v -0.69154 1.07368 0.30770
v -0.57108 1.02963 0.07514
v -0.71340 1.27196 -0.04448
v -0.83386 1.31600 0.18809
vt 0.00000 1.00000
vt 0.25000 1.00000
vt 0.25000 0.14433
vt 0.00000 0.14433
vt 0.50000 1.00000
vt 0.50000 0.14433
vt 0.75000 1.00000
vt 0.75000 0.14433
vt 1.00000 1.00000
vt 1.00000 0.14433
vt 0.25000 -0.71134
vt 0.00000 -0.71134
vt 0.50000 -0.71134
vt 0.75000 -0.71134
vt 1.00000 -0.71134
vt 0.25000 -1.56702
vt 0.00000 -1.56702
vt 0.50000 -1.56702
vt 0.75000 -1.56702
vt 1.00000 -1.56702
vt 0.12500 -2.16599
vt 0.37500 -2.16599
vt 0.62500 -2.16599
vt 0.87500 -2.16599
vt 0.25000 -0.00472
vt 0.00000 -0.00472
vt 0.50000 -0.00472
vt 0.75000 -0.00472
vt 1.00000 -0.00472
vt 0.25000 -1.00945
vt 0.00000 -1.00945
vt 0.50000 -1.00945
vt 0.75000 -1.00945
vt 1.00000 -1.00945
vt 0.25000 -2.01417
vt 0.00000 -2.01417
vt 0.50000 -2.01417
vt 0.75000 -2.01417
vt 1.00000 -2.01417
vt 0.12500 -2.71748
vt 0.37500 -2.71748
vt 0.62500 -2.71748
vt 0.87500 -2.71748
vt 0.33333 1.00000
vt 0.33333 -0.88526
vt 0.00000 -0.88526
vt 0.66667 1.00000
vt 0.66667 -0.88526
vt 1.00000 -0.88526
vt 0.33333 -2.77052
vt 0.00000 -2.77052
vt 0.66667 -2.77052
vt 1.00000 -2.77052
vt 0.16667 -4.09020
vt 0.50000 -4.09020
vt 0.83333 -4.09020
vt 0.33333 -0.68533
vt 0.00000 -0.68533
vt 0.66667 -0.68533
vt 1.00000 -0.68533
vt 0.33333 -2.37066
vt 0.00000 -2.37066
vt 0.66667 -2.37066
vt 1.00000 -2.37066
vt 0.16667 -3.55039
vt 0.50000 -3.55039
vt 0.83333 -3.55039
vt 0.33333 -1.23651
vt 0.00000 -1.23651
vt 0.66667 -1.23651
vt 1.00000 -1.23651
vt 0.33333 -3.47302
vt 0.00000 -3.47302
vt 0.66667 -3.47302
vt 1.00000 -3.47302
vt 0.16667 -5.03858
vt 0.50000 -5.03858
vt 0.83333 -5.03858
vt 0.25000 0.05519
vt 0.00000 0.05519
vt 0.50000 0.05519
vt 0.75000 0.05519
vt 1.00000 0.05519
vt 0.25000 -0.88962
vt 0.00000 -0.88962
vt 0.50000 -0.88962
vt 0.75000 -0.88962
vt 1.00000 -0.88962
vt 0.25000 -1.83443
vt 0.00000 -1.83443
vt 0.50000 -1.83443
vt 0.75000 -1.83443
vt 1.00000 -1.83443
vt 0.12500 -2.49579
vt 0.37500 -2.49579
vt 0.62500 -2.49579
vt 0.87500 -2.49579
vt 0.33333 -0.84606
vt 0.00000 -0.84606
vt 0.66667 -0.84606
vt 1.00000 -0.84606
vt 0.33333 -2.69212
vt 0.00000 -2.69212
vt 0.66667 -2.69212
vt 1.00000 -2.69212
vt 0.16667 -3.98437
vt 0.50000 -3.98437
vt 0.83333 -3.98437
vt 0.33333 -0.54826
vt 0.00000 -0.54826
vt 0.66667 -0.54826
vt 1.00000 -0.54826
vt 0.33333 -2.09652
vt 0.00000 -2.09652
vt 0.66667 -2.09652
vt 1.00000 -2.09652
vt 0.16667 -3.18030
vt 0.50000 -3.18030
vt 0.83333 -3.18030
vt 0.33333 -0.83850
vt 0.00000 -0.83850
vt 0.66667 -0.83850
vt 1.00000 -0.83850
vt 0.33333 -2.67700
vt 0.00000 -2.67700
vt 0.66667 -2.67700
vt 1.00000 -2.67700
vt 0.16667 -3.96395
vt 0.50000 -3.96395
vt 0.83333 -3.96395
vt 0.25000 -0.35534
vt 0.00000 -0.35534
vt 0.50000 -0.35534
vt 0.75000 -0.35534
vt 1.00000 -0.35534
vt 0.25000 -1.71069
vt 0.00000 -1.71069
vt 0.50000 -1.71069
vt 0.75000 -1.71069
vt 1.00000 -1.71069
vt 0.25000 -3.06603
vt 0.00000 -3.06603
vt 0.50000 -3.06603
vt 0.75000 -3.06603
vt 1.00000 -3.06603
vt 0.12500 -4.01477
vt 0.37500 -4.01477
vt 0.62500 -4.01477
vt 0.87500 -4.01477
vt 0.33333 -1.98617
vt 0.00000 -1.98617
vt 0.66667 -1.98617
vt 1.00000 -1.98617
vt 0.33333 -4.97233
vt 0.00000 -4.97233
vt 0.66667 -4.97233
vt 1.00000 -4.97233
vt 0.16667 -7.06265
vt 0.50000 -7.06265
vt 0.83333 -7.06265
vt 0.33333 -1.83518
vt 0.00000 -1.83518
vt 0.66667 -1.83518
vt 1.00000 -1.83518
vt 0.33333 -4.67036
vt 0.00000 -4.67036
vt 0.66667 -4.67036
vt 1.00000 -4.67036
vt 0.16667 -6.65499
vt 0.50000 -6.65499
vt 0.83333 -6.65499
vt 0.33333 -2.10221
vt 0.00000 -2.10221
vt 0.66667 -2.10221
vt 1.00000 -2.10221
vt 0.33333 -5.20442
vt 0.00000 -5.20442
vt 0.66667 -5.20442
vt 1.00000 -5.20442
vt 0.16667 -7.37597
vt 0.50000 -7.37597
vt 0.83333 -7.37597
vt 0.25000 -0.65773
vt 0.00000 -0.65773
vt 0.50000 -0.65773
vt 0.75000 -0.65773
vt 1.00000 -0.65773
vt 0.25000 -2.31547
vt 0.00000 -2.31547
vt 0.50000 -2.31547
vt 0.75000 -2.31547
vt 1.00000 -2.31547
vt 0.25000 -3.97321
vt 0.00000 -3.97321
vt 0.50000 -3.97321
vt 0.75000 -3.97321
vt 1.00000 -3.97321
vt 0.12500 -5.13362
vt 0.37500 -5.13362
vt 0.62500 -5.13362
vt 0.87500 -5.13362
vt 0.33333 -2.45183
vt 0.00000 -2.45183
vt 0.66667 -2.45183
vt 1.00000 -2.45183
vt 0.33333 -5.90367
vt 0.00000 -5.90367
vt 0.66667 -5.90367
vt 1.00000 -5.90367
vt 0.16667 -8.31995
vt 0.50000 -8.31995
vt 0.83333 -8.31995
vt 0.33333 -2.22621
vt 0.00000 -2.22621
vt 0.66667 -2.22621
vt 1.00000 -2.22621
vt 0.33333 -5.45242
vt 0.00000 -5.45242
vt 0.66667 -5.45242
vt 1.00000 -5.45242
vt 0.16667 -7.71076
vt 0.50000 -7.71076
vt 0.83333 -7.71076
vt 0.33333 -2.68697
vt 0.00000 -2.68697
vt 0.66667 -2.68697
vt 1.00000 -2.68697
vt 0.33333 -6.37393
vt 0.00000 -6.37393
vt 0.66667 -6.37393
vt 1.00000 -6.37393
vt 0.16667 -8.95481
vt 0.50000 -8.95481
vt 0.83333 -8.95481
vt 0.00000 0.00000
vt 1.00000 0.00000
usemtl bark
f 1/1 2/2 3/3
f 1/1 3/3 4/4
f 2/2 5/5 6/6
f 2/2 6/6 3/3
f 5/5 7/7 8/8
f 5/5 8/8 6/6
f 7/7 9/9 10/10
f 7/7 10/10 8/8
f 4/4 3/3 11/11
f 4/4 11/11 12/12
f 3/3 6/6 13/13
f 3/3 13/13 11/11
f 6/6 8/8 14/14
f 6/6 14/14 13/13
f 8/8 10/10 15/15
f 8/8 15/15 14/14
f 12/12 11/11 16/16
f 12/12 16/16 17/17
f 11/11 13/13 18/18
f 11/11 18/18 16/16
f 13/13 14/14 19/19
f 13/13 19/19 18/18
f 14/14 15/15 20/20
f 14/14 20/20 19/19
f 17/17 16/16 21/21
f 16/16 18/18 21/22
f 18/18 19/19 21/23
f 19/19 20/20 21/24
f 22/1 23/2 24/25
f 22/1 24/25 25/26
f 23/2 26/5 27/27
f 23/2 27/27 24/25
f 26/5 28/7 29/28
f 26/5 29/28 27/27
f 28/7 30/9 25/29
f 28/7 25/29 29/28
f 25/26 24/25 31/30
f 25/26 31/30 32/31
f 24/25 27/27 33/32
f 24/25 33/32 31/30
f 27/27 29/28 34/33
f 27/27 34/33 33/32
f 29/28 25/29 35/34
f 29/28 35/34 34/33
f 32/31 31/30 36/35
f 32/31 36/35 37/36
f 31/30 33/32 38/37
f 31/30 38/37 36/35
f 33/32 34/33 39/38
f 33/32 39/38 38/37
f 34/33 35/34 37/39
f 34/33 37/39 39/38
f 37/36 36/35 40/40
f 36/35 38/37 40/41
f 38/37 39/38 40/42
f 39/38 37/39 40/43
f 41/1 42/44 43/45
f 41/1 43/45 44/46
f 42/44 45/47 46/48
f 42/44 46/48 43/45
f 45/47 47/9 48/49
f 45/47 48/49 46/48
f 44/46 43/45 49/50
f 44/46 49/50 50/51
f 43/45 46/48 51/52
f 43/45 51/52 49/50
f 46/48 48/49 50/53
f 46/48 50/53 51/52
f 50/51 49/50 52/54
f 49/50 51/52 52/55
f 51/52 50/53 52/56
f 53/1 54/44 55/57
f 53/1 55/57 56/58
f 54/44 57/47 58/59
f 54/44 58/59 55/57
f 57/47 53/9 56/60
f 57/47 56/60 58/59
f 56/58 55/57 59/61
f 56/58 59/61 60/62
f 55/57 58/59 61/63
f 55/57 61/63 59/61
f 58/59 56/60 60/64
f 58/59 60/64 61/63
f 60/62 59/61 62/65
f 59/61 61/63 62/66
f 61/63 60/64 62/67
f 63/1 64/44 65/68
f 63/1 65/68 66/69
f 64/44 67/47 68/70
f 64/44 68/70 65/68
f 67/47 63/9 66/71
f 67/47 66/71 68/70
f 66/69 65/68 69/72
f 66/69 69/72 70/73
f 65/68 68/70 71/74
f 65/68 71/74 69/72
f 68/70 66/71 70/75
f 68/70 70/75 71/74
f 70/73 69/72 72/76
f 69/72 71/74 72/77
f 71/74 70/75 72/78
f 73/1 74/2 75/79
f 73/1 75/79 76/80
f 74/2 77/5 78/81
f 74/2 78/81 75/79
f 77/5 79/7 80/82
f 77/5 80/82 78/81
f 79/7 81/9 76/83
f 79/7 76/83 80/82
f 76/80 75/79 82/84
f 76/80 82/84 83/85
f 75/79 78/81 84/86
f 75/79 84/86 82/84
f 78/81 80/82 85/87
f 78/81 85/87 84/86
f 80/82 76/83 83/88
f 80/82 83/88 85/87
f 83/85 82/84 86/89
f 83/85 86/89 87/90
f 82/84 84/86 88/91
f 82/84 88/91 86/89
f 84/86 85/87 89/92
f 84/86 89/92 88/91
f 85/87 83/88 87/93
f 85/87 87/93 89/92
f 87/90 86/89 90/94
f 86/89 88/91 90/95
f 88/91 89/92 90/96
f 89/92 87/93 90/97
f 91/1 92/44 93/98
f 91/1 93/98 94/99
f 92/44 95/47 96/100
f 92/44 96/100 93/98
f 95/47 91/9 97/101
f 95/47 97/101 96/100
f 94/99 93/98 98/102
f 94/99 98/102 99/103
f 93/98 96/100 100/104
f 93/98 100/104 98/102
f 96/100 97/101 99/105
f 96/100 99/105 100/104
f 99/103 98/102 101/106
f 98/102 100/104 101/107
f 100/104 99/105 101/108
f 102/1 103/44 104/109
f 102/1 104/109 105/110
f 103/44 106/47 107/111
f 103/44 107/111 104/109
f 106/47 102/9 105/112
f 106/47 105/112 107/111
f 105/110 104/109 108/113
f 105/110 108/113 109/114
f 104/109 107/111 110/115
f 104/109 110/115 108/113
f 107/111 105/112 109/116
f 107/111 109/116 110/115
f 109/114 108/113 111/117
f 108/113 110/115 111/118
f 110/115 109/116 111/119
f 112/1 113/44 114/120
f 112/1 114/120 115/121
f 113/44 116/47 117/122
f 113/44 117/122 114/120
f 116/47 112/9 115/123
f 116/47 115/123 117/122
f 115/121 114/120 118/124
f 115/121 118/124 119/125
f 114/120 117/122 120/126
f 114/120 120/126 118/124
f 117/122 115/123 121/127
f 117/122 121/127 120/126
f 119/125 118/124 122/128
f 118/124 120/126 122/129
f 120/126 121/127 122/130
f 123/1 124/2 125/131
f 123/1 125/131 126/132
f 124/2 127/5 128/133
f 124/2 128/133 125/131
f 127/5 129/7 130/134
f 127/5 130/134 128/133
f 129/7 131/9 126/135
f 129/7 126/135 130/134
f 126/132 125/131 132/136
f 126/132 132/136 133/137
f 125/131 128/133 134/138
f 125/131 134/138 132/136
f 128/133 130/134 135/139
f 128/133 135/139 134/138
f 130/134 126/135 133/140
f 130/134 133/140 135/139
f 133/137 132/136 136/141
f 133/137 136/141 137/142
f 132/136 134/138 138/143
f 132/136 138/143 136/141
f 134/138 135/139 139/144
f 134/138 139/144 138/143
f 135/139 133/140 137/145
f 135/139 137/145 139/144
f 137/142 136/141 140/146
f 136/141 138/143 140/147
f 138/143 139/144 140/148
f 139/144 137/145 140/149
f 141/1 142/44 143/150
f 141/1 143/150 144/151
f 142/44 145/47 146/152
f 142/44 146/152 143/150
f 145/47 141/9 144/153
f 145/47 144/153 146/152
f 144/151 143/150 147/154
f 144/151 147/154 148/155
f 143/150 146/152 149/156
f 143/150 149/156 147/154
f 146/152 144/153 148/157
f 146/152 148/157 149/156
f 148/155 147/154 150/158
f 147/154 149/156 150/159
f 149/156 148/157 150/160
f 151/1 152/44 153/161
f 151/1 153/161 154/162
f 152/44 155/47 156/163
f 152/44 156/163 153/161
f 155/47 151/9 157/164
f 155/47 157/164 156/163
f 154/162 153/161 158/165
f 154/162 158/165 159/166
f 153/161 156/163 160/167
f 153/161 160/167 158/165
f 156/163 157/164 159/168
f 156/163 159/168 160/167
f 159/166 158/165 161/169
f 158/165 160/167 161/170
f 160/167 159/168 161/171
f 162/1 163/44 164/172
f 162/1 164/172 165/173
f 163/44 166/47 167/174
f 163/44 167/174 164/172
f 166/47 162/9 165/175
f 166/47 165/175 167/174
f 165/173 164/172 168/176
f 165/173 168/176 169/177
f 164/172 167/174 170/178
f 164/172 170/178 168/176
f 167/174 165/175 169/179
f 167/174 169/179 170/178
f 169/177 168/176 171/180
f 168/176 170/178 171/181
f 170/178 169/179 171/182
f 172/1 173/2 174/183
f 172/1 174/183 175/184
f 173/2 176/5 177/185
f 173/2 177/185 174/183
f 176/5 178/7 179/186
f 176/5 179/186 177/185
f 178/7 180/9 175/187
f 178/7 175/187 179/186
f 175/184 174/183 181/188
f 175/184 181/188 182/189
f 174/183 177/185 183/190
f 174/183 183/190 181/188
f 177/185 179/186 184/191
f 177/185 184/191 183/190
f 179/186 175/187 185/192
f 179/186 185/192 184/191
f 182/189 181/188 186/193
f 182/189 186/193 187/194
f 181/188 183/190 188/195
f 181/188 188/195 186/193
f 183/190 184/191 189/196
f 183/190 189/196 188/195
f 184/191 185/192 187/197
f 184/191 187/197 189/196
f 187/194 186/193 190/198
f 186/193 188/195 190/199
f 188/195 189/196 190/200
f 189/196 187/197 190/201
f 191/1 192/44 193/202
f 191/1 193/202 194/203
f 192/44 195/47 196/204
f 192/44 196/204 193/202
f 195/47 191/9 194/205
f 195/47 194/205 196/204
f 194/203 193/202 197/206
f 194/203 197/206 198/207
f 193/202 196/204 199/208
f 193/202 199/208 197/206
f 196/204 194/205 198/209
f 196/204 198/209 199/208
f 198/207 197/206 200/210
f 197/206 199/208 200/211
f 199/208 198/209 200/212
f 201/1 202/44 203/213
f 201/1 203/213 204/214
f 202/44 205/47 206/215
f 202/44 206/215 203/213
f 205/47 207/9 204/216
f 205/47 204/216 206/215
f 204/214 203/213 208/217
f 204/214 208/217 209/218
f 203/213 206/215 210/219
f 203/213 210/219 208/217
f 206/215 204/216 209/220
f 206/215 209/220 210/219
f 209/218 208/217 211/221
f 208/217 210/219 211/222
f 210/219 209/220 211/223
f 212/1 213/44 214/224
f 212/1 214/224 215/225
f 213/44 216/47 217/226
f 213/44 217/226 214/224
f 216/47 218/9 215/227
f 216/47 215/227 217/226
f 215/225 214/224 219/228
f 215/225 219/228 220/229
f 214/224 217/226 221/230
f 214/224 221/230 219/228
f 217/226 215/227 220/231
f 217/226 220/231 221/230
f 220/229 219/228 222/232
f 219/228 221/230 222/233
f 221/230 220/231 222/234
usemtl leaf
f 223/235 224/236 225/9
f 223/235 225/9 226/1
f 227/235 228/236 229/9
f 227/235 229/9 230/1
f 231/235 232/236 233/9
f 231/235 233/9 234/1
f 235/235 236/236 237/9
f 235/235 237/9 238/1
f 239/235 240/236 241/9
f 239/235 241/9 242/1
f 243/235 244/236 245/9
f 243/235 245/9 246/1
f 247/235 248/236 249/9
f 247/235 249/9 250/1
f 251/235 252/236 253/9
f 251/235 253/9 254/1
f 255/235 256/236 257/9
f 255/235 257/9 258/1
f 259/235 260/236 261/9
f 259/235 261/9 262/1
f 263/235 264/236 265/9
f 263/235 265/9 266/1
f 267/235 268/236 269/9
f 267/235 269/9 270/1
f 271/235 272/236 273/9
f 271/235 273/9 274/1
f 275/235 276/236 277/9
f 275/235 277/9 278/1
f 279/235 280/236 281/9
f 279/235 281/9 282/1
f 283/235 284/236 285/9
f 283/235 285/9 286/1
f 287/235 288/236 289/9
f 287/235 289/9 290/1
f 291/235 292/236 293/9
f 291/235 293/9 294/1
f 295/235 296/236 297/9
f 295/235 297/9 298/1
f 299/235 300/236 301/9
f 299/235 301/9 302/1
f 303/235 304/236 305/9
f 303/235 305/9 306/1
f 307/235 308/236 309/9
f 307/235 309/9 310/1
f 311/235 312/236 313/9
f 311/235 313/9 314/1
f 315/235 316/236 317/9
f 315/235 317/9 318/1
f 319/235 320/236 321/9
f 319/235 321/9 322/1
f 323/235 324/236 325/9
f 323/235 325/9 326/1
f 327/235 328/236 329/9
f 327/235 329/9 330/1
f 331/235 332/236 333/9
f 331/235 333/9 334/1
f 335/235 336/236 337/9
f 335/235 337/9 338/1
f 339/235 340/236 341/9
f 339/235 341/9 342/1
f 343/235 344/236 345/9
f 343/235 345/9 346/1
f 347/235 348/236 349/9
f 347/235 349/9 350/1
f 351/235 352/236 353/9
f 351/235 353/9 354/1
f 355/235 356/236 357/9
f 355/235 357/9 358/1
f 359/235 360/236 361/9
f 359/235 361/9 362/1
f 363/235 364/236 365/9
f 363/235 365/9 366/1
f 367/235 368/236 369/9
f 367/235 369/9 370/1
f 371/235 372/236 373/9
f 371/235 373/9 374/1
f 375/235 376/236 377/9
f 375/235 377/9 378/1
f 379/235 380/236 381/9
f 379/235 381/9 382/1
f 383/235 384/236 385/9
f 383/235 385/9 386/1
f 387/235 388/236 389/9
f 387/235 389/9 390/1
f 391/235 392/236 393/9
f 391/235 393/9 394/1
f 395/235 396/236 397/9
f 395/235 397/9 398/1
f 399/235 400/236 401/9
f 399/235 401/9 402/1
f 403/235 404/236 405/9
f 403/235 405/9 406/1
f 407/235 408/236 409/9
f 407/235 409/9 410/1
f 411/235 412/236 413/9
f 411/235 413/9 414/1
f 415/235 416/236 417/9
f 415/235 417/9 418/1
f 419/235 420/236 421/9
f 419/235 421/9 422/1
f 423/235 424/236 425/9
f 423/235 425/9 426/1
f 427/235 428/236 429/9
f 427/235 429/9 430/1
f 431/235 432/236 433/9
f 431/235 433/9 434/1
f 435/235 436/236 437/9
f 435/235 437/9 438/1
f 439/235 440/236 441/9
f 439/235 441/9 442/1
f 443/235 444/236 445/9
f 443/235 445/9 446/1
f 447/235 448/236 449/9
f 447/235 449/9 450/1
f 451/235 452/236 453/9
f 451/235 453/9 454/1
f 455/235 456/236 457/9
f 455/235 457/9 458/1
f 459/235 460/236 461/9
f 459/235 461/9 462/1
f 463/235 464/236 465/9
f 463/235 465/9 466/1
f 467/235 468/236 469/9
f 467/235 469/9 470/1
f 471/235 472/236 473/9
f 471/235 473/9 474/1
f 475/235 476/236 477/9
f 475/235 477/9 478/1
f 479/235 480/236 481/9
f 479/235 481/9 482/1
f 483/235 484/236 485/9
f 483/235 485/9 486/1
f 487/235 488/236 489/9
f 487/235 489/9 490/1
f 491/235 492/236 493/9
f 491/235 493/9 494/1
f 495/235 496/236 497/9
f 495/235 497/9 498/1
f 499/235 500/236 501/9
f 499/235 501/9 502/1
f 503/235 504/236 505/9
f 503/235 505/9 506/1
f 507/235 508/236 509/9
f 507/235 509/9 510/1
f 511/235 512/236 513/9
f 511/235 513/9 514/1
f 515/235 516/236 517/9
f 515/235 517/9 518/1
f 519/235 520/236 521/9
f 519/235 521/9 522/1
f 523/235 524/236 525/9
f 523/235 525/9 526/1
f 527/235 528/236 529/9
f 527/235 529/9 530/1
f 531/235 532/236 533/9
f 531/235 533/9 534/1
f 535/235 536/236 537/9
f 535/235 537/9 538/1
f 539/235 540/236 541/9
f 539/235 541/9 542/1
f 543/235 544/236 545/9
f 543/235 545/9 546/1
f 547/235 548/236 549/9
f 547/235 549/9 550/1
f 551/235 552/236 553/9
f 551/235 553/9 554/1
f 555/235 556/236 557/9
f 555/235 557/9 558/1
f 559/235 560/236 561/9
f 559/235 561/9 562/1
f 563/235 564/236 565/9
f 563/235 565/9 566/1
f 567/235 568/236 569/9
f 567/235 569/9 570/1
f 571/235 572/236 573/9
f 571/235 573/9 574/1
f 575/235 576/236 577/9
f 575/235 577/9 578/1
f 579/235 580/236 581/9
f 579/235 581/9 582/1
f 583/235 584/236 585/9
f 583/235 585/9 586/1
f 587/235 588/236 589/9
f 587/235 589/9 590/1
f 591/235 592/236 593/9
f 591/235 593/9 594/1
f 595/235 596/236 597/9
f 595/235 597/9 598/1
f 599/235 600/236 601/9
f 599/235 601/9 602/1
f 603/235 604/236 605/9
f 603/235 605/9 606/1
f 607/235 608/236 609/9
f 607/235 609/9 610/1
f 611/235 612/236 613/9
f 611/235 613/9 614/1
f 615/235 616/236 617/9
f 615/235 617/9 618/1
f 619/235 620/236 621/9
f 619/235 621/9 622/1
f 623/235 624/236 625/9
f 623/235 625/9 626/1
f 627/235 628/236 629/9
f 627/235 629/9 630/1
f 631/235 632/236 633/9
f 631/235 633/9 634/1
f 635/235 636/236 637/9
f 635/235 637/9 638/1
f 639/235 640/236 641/9
f 639/235 641/9 642/1
f 643/235 644/236 645/9
f 643/235 645/9 646/1
f 647/235 648/236 649/9
f 647/235 649/9 650/1
f 651/235 652/236 653/9
f 651/235 653/9 654/1
f 655/235 656/236 657/9
f 655/235 657/9 658/1
f 659/235 660/236 661/9
f 659/235 661/9 662/1
f 663/235 664/236 665/9
f 663/235 665/9 666/1
f 667/235 668/236 669/9
f 667/235 669/9 670/1
f 671/235 672/236 673/9
f 671/235 673/9 674/1
f 675/235 676/236 677/9
f 675/235 677/9 678/1
f 679/235 680/236 681/9
f 679/235 681/9 682/1
f 683/235 684/236 685/9
f 683/235 685/9 686/1
f 687/235 688/236 689/9
f 687/235 689/9 690/1
f 691/235 692/236 693/9
f 691/235 693/9 694/1
f 695/235 696/236 697/9
f 695/235 697/9 698/1
f 699/235 700/236 701/9
f 699/235 701/9 702/1
f 703/235 704/236 705/9
f 703/235 705/9 706/1
f 707/235 708/236 709/9
f 707/235 709/9 710/1
f 711/235 712/236 713/9
f 711/235 713/9 714/1
f 715/235 716/236 717/9
f 715/235 717/9 718/1
f 719/235 720/236 721/9
f 719/235 721/9 722/1
f 723/235 724/236 725/9
f 723/235 725/9 726/1
f 727/235 728/236 729/9
f 727/235 729/9 730/1
f 731/235 732/236 733/9
f 731/235 733/9 734/1
f 735/235 736/236 737/9
f 735/235 737/9 738/1
f 739/235 740/236 741/9
f 739/235 741/9 742/1
f 743/235 744/236 745/9
f 743/235 745/9 746/1
f 747/235 748/236 749/9
f 747/235 749/9 750/1
f 751/235 752/236 753/9
f 751/235 753/9 754/1
f 755/235 756/236 757/9
f 755/235 757/9 758/1
f 759/235 760/236 761/9
f 759/235 761/9 762/1
f 763/235 764/236 765/9
f 763/235 765/9 766/1
f 767/235 768/236 769/9
f 767/235 769/9 770/1
f 771/235 772/236 773/9
f 771/235 773/9 774/1
f 775/235 776/236 777/9
f 775/235 777/9 778/1
f 779/235 780/236 781/9
f 779/235 781/9 782/1
f 783/235 784/236 785/9
f 783/235 785/9 786/1
f 787/235 788/236 789/9
f 787/235 789/9 790/1
f 791/235 792/236 793/9
f 791/235 793/9 794/1
f 795/235 796/236 797/9
f 795/235 797/9 798/1
f 799/235 800/236 801/9
f 799/235 801/9 802/1
f 803/235 804/236 805/9
f 803/235 805/9 806/1
f 807/235 808/236 809/9
f 807/235 809/9 810/1
f 811/235 812/236 813/9
f 811/235 813/9 814/1
f 815/235 816/236 817/9
f 815/235 817/9 818/1
f 819/235 820/236 821/9
f 819/235 821/9 822/1
f 823/235 824/236 825/9
f 823/235 825/9 826/1
f 827/235 828/236 829/9
f 827/235 829/9 830/1
f 831/235 832/236 833/9
f 831/235 833/9 834/1
f 835/235 836/236 837/9
f 835/235 837/9 838/1
f 839/235 840/236 841/9
f 839/235 841/9 842/1
f 843/235 844/236 845/9
f 843/235 845/9 846/1
f 847/235 848/236 849/9
f 847/235 849/9 850/1
f 851/235 852/236 853/9
f 851/235 853/9 854/1
f 855/235 856/236 857/9
f 855/235 857/9 858/1
f 859/235 860/236 861/9
f 859/235 861/9 862/1
f 863/235 864/236 865/9
f 863/235 865/9 866/1
f 867/235 868/236 869/9
f 867/235 869/9 870/1
f 871/235 872/236 873/9
f 871/235 873/9 874/1
f 875/235 876/236 877/9
f 875/235 877/9 878/1
f 879/235 880/236 881/9
f 879/235 881/9 882/1
f 883/235 884/236 885/9
f 883/235 885/9 886/1
f 887/235 888/236 889/9
f 887/235 889/9 890/1
f 891/235 892/236 893/9
f 891/235 893/9 894/1
f 895/235 896/236 897/9
f 895/235 897/9 898/1
f 899/235 900/236 901/9
f 899/235 901/9 902/1
f 903/235 904/236 905/9
f 903/235 905/9 906/1
f 907/235 908/236 909/9
f 907/235 909/9 910/1
f 911/235 912/236 913/9
f 911/235 913/9 914/1
f 915/235 916/236 917/9
f 915/235 917/9 918/1
f 919/235 920/236 921/9
f 919/235 921/9 922/1
f 923/235 924/236 925/9
f 923/235 925/9 926/1
f 927/235 928/236 929/9
f 927/235 929/9 930/1
f 931/235 932/236 933/9
f 931/235 933/9 934/1
f 935/235 936/236 937/9
f 935/235 937/9 938/1
f 939/235 940/236 941/9
f 939/235 941/9 942/1
f 943/235 944/236 945/9
f 943/235 945/9 946/1
f 947/235 948/236 949/9
f 947/235 949/9 950/1
f 951/235 952/236 953/9
f 951/235 953/9 954/1
f 955/235 956/236 957/9
f 955/235 957/9 958/1
f 959/235 960/236 961/9
f 959/235 961/9 962/1
f 963/235 964/236 965/9
f 963/235 965/9 966/1
f 967/235 968/236 969/9
f 967/235 969/9 970/1
f 971/235 972/236 973/9
f 971/235 973/9 974/1
f 975/235 976/236 977/9
f 975/235 977/9 978/1
f 979/235 980/236 981/9
f 979/235 981/9 982/1
f 983/235 984/236 985/9
f 983/235 985/9 986/1
f 987/235 988/236 989/9
f 987/235 989/9 990/1
f 991/235 992/236 993/9
f 991/235 993/9 994/1
f 995/235 996/236 997/9
f 995/235 997/9 998/1
f 999/235 1000/236 1001/9
f 999/235 1001/9 1002/1
f 1003/235 1004/236 1005/9
f 1003/235 1005/9 1006/1
f 1007/235 1008/236 1009/9
f 1007/235 1009/9 1010/1
f 1011/235 1012/236 1013/9
f 1011/235 1013/9 1014/1
f 1015/235 1016/236 1017/9
f 1015/235 1017/9 1018/1
f 1019/235 1020/236 1021/9
f 1019/235 1021/9 1022/1
f 1023/235 1024/236 1025/9
f 1023/235 1025/9 1026/1
f 1027/235 1028/236 1029/9
f 1027/235 1029/9 1030/1
f 1031/235 1032/236 1033/9
f 1031/235 1033/9 1034/1
f 1035/235 1036/236 1037/9
f 1035/235 1037/9 1038/1
f 1039/235 1040/236 1041/9
f 1039/235 1041/9 1042/1
f 1043/235 1044/236 1045/9
f 1043/235 1045/9 1046/1
f 1047/235 1048/236 1049/9
f 1047/235 1049/9 1050/1
f 1051/235 1052/236 1053/9
f 1051/235 1053/9 1054/1
f 1055/235 1056/236 1057/9
f 1055/235 1057/9 1058/1
f 1059/235 1060/236 1061/9
f 1059/235 1061/9 1062/1
