# Generated by TyraX Tree Generator (seed 4918, 1016 triangles)
mtllib old-oak.mtl
v 0.00000 0.00000 -0.64500
v -0.55859 0.00000 -0.32250
v -0.37575 2.01557 -0.19453
v 0.04990 2.01129 -0.44018
v -0.55859 0.00000 0.32250
v -0.37606 2.00301 0.29679
v 0.00000 0.00000 0.64500
v 0.04928 1.98617 0.54244
v 0.55859 0.00000 0.32250
v 0.47493 1.98189 0.29679
v 0.55859 0.00000 -0.32250
v 0.47524 1.99445 -0.19453
v -0.00000 0.00000 -0.64500
v 0.04990 2.01129 -0.44018
v -0.20966 4.01394 -0.10495
v 0.12850 4.00444 -0.30038
v -0.20981 4.00630 0.28566
v 0.12819 3.98916 0.48084
v 0.46634 3.97966 0.28541
v 0.46650 3.98729 -0.10520
v 0.12850 4.00444 -0.30038
v 0.02815 6.01167 -0.09732
v 0.30715 5.98440 -0.25966
v 0.02896 6.01582 0.22659
v 0.30878 5.99270 0.38817
v 0.58778 5.96542 0.22583
v 0.58696 5.96127 -0.09809
v 0.30715 5.98440 -0.25966
v 0.14767 7.99912 -0.02660
v 0.38662 7.99292 -0.16520
v 0.14798 7.99264 0.24962
v 0.38722 7.97996 0.38725
v 0.62617 7.97376 0.24866
v 0.62587 7.98024 -0.02757
v 0.38662 7.99292 -0.16520
v 0.28245 9.99309 -0.02449
v 0.48669 9.98177 -0.14320
v 0.28309 9.99516 0.21200
v 0.48797 9.98591 0.32978
v 0.69220 9.97459 0.21107
v 0.69156 9.97252 -0.02542
v 0.48669 9.98177 -0.14320
v 0.55761 11.38202 0.08088
v 0.36175 4.06571 0.13090
v 0.29081 3.91301 -0.07551
v 0.71018 4.86766 -0.92527
v 0.77397 5.00497 -0.74370
v 0.03856 3.97134 -0.13819
v 0.48649 4.91981 -0.98125
v -0.04638 4.16009 0.02948
v 0.41203 5.08935 -0.83427
v 0.15336 4.21842 0.19579
v 0.58970 5.14198 -0.68746
v 0.36175 4.06571 0.13090
v 1.16642 5.87237 -1.70983
v 1.21775 5.98243 -1.54288
v 0.97310 5.92237 -1.76224
v 0.90495 6.06332 -1.62769
v 1.05615 6.10045 -1.49211
v 1.21775 5.98243 -1.54288
v 1.58003 6.91662 -2.46920
v 1.62251 7.00777 -2.32418
v 1.41289 6.95508 -2.51078
v 1.35208 7.07001 -2.39146
v 1.48163 7.10257 -2.27614
v 1.62251 7.00777 -2.32418
v 1.97331 7.98255 -3.20192
v 2.00763 8.05588 -3.07982
v 1.83397 8.01302 -3.23538
v 1.78216 8.10518 -3.13395
v 1.88949 8.13167 -3.03781
v 2.18255 8.79073 -3.65817
v 0.65796 5.03709 -0.72924
v 0.68237 4.95974 -0.91427
v 1.58705 5.97118 -1.07441
v 1.55938 6.02237 -0.92905
v 0.55569 5.11444 -0.88536
v 1.47567 6.07824 -1.04899
v 1.55938 6.02237 -0.92905
v 2.36518 7.08438 -1.19019
v 2.34064 7.11459 -1.08611
v 2.27759 7.14986 -1.17053
v 2.87878 7.88092 -1.24097
v 1.15591 5.99278 -1.68837
v 1.00399 5.90506 -1.66972
v 0.68796 6.24727 -3.05230
v 0.80598 6.31522 -3.06443
v 1.00734 6.08051 -1.65157
v 0.69346 6.38058 -3.02247
v 0.45954 6.83955 -4.37287
v 0.54603 6.88339 -4.36954
v 0.46729 6.92878 -4.33556
v 0.32423 7.28259 -5.27837
v 1.44637 7.04475 -2.31740
v 1.58250 7.01434 -2.37472
v 1.90614 8.28410 -2.10541
v 1.79940 8.30365 -2.06200
v 1.47574 7.07517 -2.46216
v 1.82068 8.32226 -2.17540
v 2.24515 9.54118 -1.83014
v 2.16963 9.55588 -1.79915
v 2.18481 9.56939 -1.87956
v 2.45032 10.43199 -1.64169
v 0.17173 6.05433 -0.07349
v 0.11279 5.95010 0.11211
v -0.48719 7.17360 0.57288
v -0.43347 7.26421 0.40756
v 0.26736 5.98991 0.26478
v -0.34335 7.19660 0.70406
v 0.42184 6.11874 0.17353
v -0.20073 7.30143 0.61981
v 0.36273 6.15856 -0.03553
v -0.25643 7.34322 0.43657
v 0.17173 6.05433 -0.07349
v -0.43347 7.26421 0.40756
v -1.03564 8.44972 0.93128
v -0.98278 8.51581 0.78249
v -0.91113 8.47258 1.04651
v -0.78133 8.55279 0.96893
v -0.82561 8.57951 0.80575
v -0.98278 8.51581 0.78249
v -1.53585 9.72005 1.34867
v -1.49219 9.78011 1.22258
v -1.42653 9.73284 1.44509
v -1.31530 9.80080 1.37860
v -1.35588 9.83002 1.24108
v -2.04399 11.00940 1.68426
v -2.00544 11.05346 1.57782
v -1.95501 11.02448 1.76558
v -1.86146 11.07786 1.70939
v -1.89263 11.09577 1.59335
v -2.32029 11.94779 1.90329
v -0.89040 8.53672 0.81947
v -0.99249 8.47945 0.90720
v -2.01285 9.72799 0.23670
v -1.92703 9.76515 0.17260
v -0.91337 8.59400 0.95210
v -1.94291 9.80791 0.27639
v -2.96481 11.08104 -0.30178
v -2.90356 11.10713 -0.34696
v -2.91095 11.13219 -0.27086
v -3.60230 12.04462 -0.68110
v -1.50335 9.78038 1.32453
v -1.41130 9.71976 1.38358
v -1.89020 10.17690 2.52170
v -1.96081 10.22353 2.47446
v -1.39854 9.84100 1.35577
v -1.87656 10.26812 2.49197
v -2.27681 10.78843 3.62186
v -2.32633 10.82117 3.58714
v -2.26401 10.84962 3.59320
v -2.55495 11.23756 4.37401
v -1.40473 9.80098 1.39768
v -1.35939 9.77462 1.28417
v -0.92466 11.03717 1.29688
v -0.96257 11.05038 1.38508
v -1.47218 9.82734 1.29574
v -1.01556 11.06943 1.30621
v -0.53342 12.30658 1.27132
v -0.56007 12.31682 1.33389
v -0.59859 12.32756 1.27793
v -0.28153 13.20225 1.26987
v 0.41667 8.02993 0.27739
v 0.52774 7.91153 0.18182
v 1.41587 8.78591 0.23915
v 1.31273 8.88720 0.32315
v 0.51757 7.95676 -0.00078
v 1.39743 8.81720 0.07594
v 0.40022 8.10311 -0.01806
v 1.28289 8.93782 0.05908
v 0.33785 8.14834 0.15386
v 1.23054 8.98109 0.21186
v 0.41667 8.02993 0.27739
v 2.28085 9.65521 0.34697
v 2.18767 9.74064 0.42002
v 2.26886 9.68654 0.20487
v 2.16828 9.79133 0.19011
v 2.11810 9.82477 0.32308
v 3.12045 10.55350 0.46598
v 3.03806 10.62375 0.52806
v 3.11037 10.58049 0.34454
v 3.02175 10.66741 0.33157
v 2.97706 10.69415 0.44499
v 3.03806 10.62375 0.52806
v 3.91389 11.49316 0.59603
v 3.84217 11.54781 0.64707
v 3.90539 11.51546 0.49520
v 3.82841 11.58390 0.48393
v 3.78934 11.60389 0.57779
v 4.41746 12.19633 0.65589
v 2.14869 9.75428 0.34990
v 2.25973 9.69920 0.33561
v 2.59429 10.46476 1.32268
v 2.50497 10.50169 1.32562
v 2.23731 9.80936 0.28149
v 2.57266 10.54323 1.27047
v 2.14869 9.75428 0.34990
v 2.92143 11.33560 2.21299
v 2.85745 11.36041 2.21332
v 2.90420 11.38663 2.17047
v 3.13030 11.96124 2.82380
v 3.10911 10.62677 0.46044
v 3.06390 10.57376 0.37968
v 4.18569 10.93725 -0.25710
v 4.21242 10.97617 -0.18926
v 3.05408 10.67978 0.38602
v 4.16739 11.01699 -0.24529
v 5.25404 11.43282 -0.88426
v 5.27110 11.45976 -0.83502
v 5.23597 11.48747 -0.87296
v 5.99934 11.79826 -1.30755
v 3.04991 10.65405 0.36326
v 2.99709 10.64086 0.45497
v 2.85616 11.76049 0.46883
v 2.89755 11.76747 0.39762
v 3.10274 10.65539 0.45591
v 2.93805 11.77168 0.46955
v 2.89755 11.76747 0.39762
v 2.73958 12.87860 0.54429
v 2.76872 12.88567 0.49387
v 2.79786 12.88528 0.54477
v 2.67874 13.66483 0.58526
v -0.14100 5.74758 -1.01753
v 0.73336 6.23889 -0.18662
v 1.75943 6.25785 -1.27757
v 0.88507 5.76654 -2.10847
v 2.23482 6.55776 -2.55279
v 1.46330 7.95902 -3.40262
v -0.31980 7.59106 -2.39057
v 0.45172 6.18980 -1.54073
v 2.31004 8.58824 -2.04273
v 1.50682 9.26916 -3.33757
v 0.84311 7.53860 -3.83590
v 1.64633 6.85768 -2.54107
v 1.40611 9.86429 -2.91847
v 1.78292 8.16569 -2.44234
v 3.45819 8.19449 -3.66542
v 3.08138 9.89308 -4.14155
v 2.31831 7.31675 -2.45549
v 2.47799 5.84440 -1.67447
v 1.49911 6.53729 -0.16813
v 1.33942 8.00964 -0.94915
v 3.30746 6.74456 -0.91187
v 2.53102 6.74673 0.49393
v 1.04198 7.46467 -0.32961
v 1.81842 7.46250 -1.73540
v 1.90177 7.99936 0.20498
v 3.37040 8.53621 -0.11252
v 3.49558 7.36277 -1.51762
v 2.02695 6.82592 -1.20012
v 0.41846 7.34929 -3.78875
v -0.48001 6.76381 -2.87555
v -0.32152 5.34039 -3.63222
v 0.57694 5.92587 -4.54542
v 0.67352 7.55454 -3.46159
v 1.23232 7.09008 -4.84079
v -0.18399 6.01134 -5.05134
v -0.74279 6.47580 -3.67214
v 0.58987 7.88139 -4.73017
v -0.35808 6.61802 -4.15582
v 0.77189 5.35051 -5.07893
v 1.71984 6.61389 -5.65327
v 0.93087 8.21599 -3.13893
v 1.12824 7.73106 -1.35118
v 3.24948 7.97965 -1.51794
v 3.05211 8.46458 -3.30568
v 2.01964 8.73366 -1.24187
v 2.21323 8.72697 -3.09491
v 1.69221 10.80434 -3.15685
v 1.49862 10.81103 -1.30381
v 1.18288 10.10341 -1.46242
v 1.53942 9.82227 -3.07755
v 3.40522 9.61897 -2.63028
v 3.04868 9.90012 -1.01515
v -1.73523 8.44460 0.73278
v -1.08898 8.54842 2.10738
v 0.47613 8.21542 1.39672
v -0.17012 8.11160 0.02212
v -1.81700 8.77170 0.30574
v -1.36460 9.09532 1.77233
v -1.55524 10.85835 1.44209
v -2.00764 10.53473 -0.02449
v -3.16283 10.65494 1.46176
v -2.06342 10.81603 2.14852
v -1.47531 11.61403 1.01985
v -2.57472 11.45294 0.33309
v -2.68916 13.06031 2.00305
v -1.93131 12.64460 3.46263
v -1.32334 10.96911 2.66975
v -2.08119 11.38482 1.21017
v -2.68210 8.92916 -0.18537
v -1.09618 9.02038 -0.18182
v -1.18537 10.53121 0.84127
v -2.77129 10.43999 0.83773
v -2.91581 13.18342 -0.16609
v -3.22362 11.93776 0.82876
v -3.12349 10.75917 -0.61596
v -2.81568 12.00483 -1.61082
v -4.20701 12.64381 -1.74358
v -2.60180 11.87058 -2.21033
v -2.32511 11.23649 -0.20836
v -3.93032 12.00972 0.25839
v -2.40011 11.47034 1.98733
v -1.21748 10.45833 2.90438
v -2.25770 8.74562 2.35581
v -3.44034 9.75764 1.43875
v -4.07803 11.70630 3.33398
v -3.20618 10.19151 2.60499
v -1.53212 10.50151 3.96296
v -2.40397 12.01631 4.69195
v -3.25882 10.91924 3.45022
v -3.27775 12.63971 3.81713
v -1.98075 12.32952 5.33855
v -1.96182 10.60905 4.97163
v -0.55347 11.52646 2.12709
v 0.71113 11.44568 1.33345
v -0.20112 11.48010 -0.12365
v -1.46572 11.56088 0.66998
v -0.64969 12.14586 -0.08525
v -1.62081 11.65434 0.63977
v -0.92665 12.12456 1.88834
v 0.04446 12.61609 1.16332
v 0.09466 13.69096 0.43491
v -1.01264 14.02273 1.52696
v 0.06588 13.32966 2.83109
v 1.17318 12.99789 1.73903
v 2.71680 10.88332 -1.05246
v 1.26449 10.20262 -0.68011
v 1.85503 9.91407 1.09571
v 3.30734 10.59477 0.72336
v 2.30428 11.29386 1.39703
v 3.30592 11.67203 0.47399
v 3.62548 10.10563 0.17901
v 2.62384 9.72746 1.10205
v 2.82297 11.32985 0.32636
v 3.54460 11.75033 1.65021
v 4.50394 12.97122 0.73950
v 3.78231 12.55074 -0.58435
v 4.16258 10.56648 -0.29676
v 5.25189 11.05764 0.39778
v 4.38843 12.30602 0.86921
v 3.29911 11.81486 0.17467
v 3.96042 10.02956 1.63871
v 2.62799 10.98524 0.78822
v 1.47287 10.96110 2.57078
v 2.80529 10.00541 3.42127
v 2.88218 10.94413 2.80819
v 2.15244 10.63042 1.63411
v 1.98598 12.21993 1.31285
v 2.71572 12.53364 2.48694
v 2.02222 11.71627 2.04135
v 2.16452 11.96412 3.52909
v 3.64180 12.84172 3.24160
v 3.49951 12.59387 1.75386
v 4.42078 11.43954 0.51135
v 5.36688 10.22495 -0.57296
v 5.12847 11.55207 -2.26755
v 4.18237 12.76666 -1.18323
v 4.73980 12.02981 -1.38923
v 6.01490 12.69691 -0.13860
v 6.51560 10.64390 0.44601
v 5.24049 9.97680 -0.80463
v 7.59667 12.00941 -1.09006
v 7.21003 11.94736 -2.67515
v 5.52534 11.24372 -2.23666
v 5.91198 11.30577 -0.65158
v 3.16539 11.51440 0.96928
v 2.99820 12.94638 0.68795
v 1.48433 12.63564 0.00592
v 1.65152 11.20366 0.28726
v 3.32811 13.14362 -0.46464
v 1.82591 13.45815 -0.41687
v 1.66544 12.47075 1.03831
v 3.16765 12.15622 0.99053
v 3.32521 12.67716 1.52658
v 2.49447 12.44759 0.10369
v 3.00132 14.19926 -0.47486
v 3.83206 14.42884 0.94804
v 1.93359 6.03173 -1.62731
v 0.82731 6.12111 -2.40621
v -0.04462 6.37510 -1.13865
v 1.06167 6.28572 -0.35975
v 2.60277 7.51524 -1.74334
v 2.32300 7.46165 -3.00204
v 0.93105 7.06345 -2.67571
v 1.21081 7.11703 -1.41700
v 2.52434 7.92340 -3.29548
v 1.30432 8.02726 -3.94234
v 0.64048 8.57493 -2.60239
v 1.86050 8.47107 -1.95552
v 1.52254 9.50687 -3.17285
v 2.95210 8.28771 -2.98932
v 3.29622 8.36877 -5.13127
v 1.86666 9.58793 -5.31480
v 1.74920 7.44694 -0.23963
v 1.72815 5.72864 0.47707
v 1.14079 4.94213 -1.42584
v 1.16185 6.66043 -2.14254
v 3.60645 7.44863 -0.33658
v 2.05247 7.75987 -0.00010
v 1.52560 6.50592 -1.27349
v 3.07958 6.19468 -1.60997
v 2.73614 6.38016 -0.94404
v 1.61503 7.19726 -1.31360
v 2.64526 8.33962 -1.91314
v 3.76636 7.52252 -1.54358
v 1.13047 7.56685 -3.85536
v 1.26558 6.19379 -3.89021
v 0.15476 6.05593 -2.76498
v 0.01965 7.42899 -2.73013
v 0.17831 7.28385 -5.12816
v 0.96757 6.66639 -4.32787
v 0.19649 7.17238 -3.17701
v -0.59278 7.78984 -3.97730
v -0.76590 7.20190 -4.03625
v 0.82136 7.71186 -4.57620
v 0.31768 7.26770 -6.47631
v -1.26958 6.75774 -5.93636
v 2.81411 8.81553 -1.44804
v 2.92866 9.77417 -2.75989
v 1.06071 9.81489 -2.89323
v 0.94617 8.85625 -1.58139
v 1.69371 8.63268 -2.16252
v 1.38747 9.89313 -1.83860
v 2.85051 10.30717 -2.06654
v 3.15675 9.04672 -2.39046
v 2.84740 10.86011 -2.68360
v 2.27087 11.36733 -1.41379
v 3.26313 10.29310 -0.53418
v 3.83966 9.78589 -1.80400
v -0.56986 7.87265 0.50617
v -1.25909 9.52858 -0.02505
v -2.10861 9.80289 1.93224
v -1.41938 8.14696 2.46346
v -1.26031 9.75244 2.98860
v 0.18274 10.34178 2.07402
v -1.05501 10.97532 0.52931
v -2.49806 10.38598 1.44389
v -2.18392 10.94424 1.92874
v -3.24683 11.09299 1.19096
v -3.22243 12.56743 1.45307
v -2.15951 12.41868 2.19086
v -2.90636 11.12183 1.15703
v -3.31036 12.22799 2.51881
v -1.64976 13.38181 2.07423
v -1.24575 12.27564 0.71245
v -1.08341 9.94124 -0.59068
v -2.80650 10.30633 -0.06433
v -2.81254 8.56005 1.12718
v -1.08945 8.19495 0.60083
v -2.89297 11.16524 0.86414
v -2.61556 11.23947 -0.74595
v -3.97828 12.52387 -0.92153
v -4.25569 12.44964 0.68856
v -3.50539 12.36239 -0.85601
v -2.15923 11.85365 -0.17251
v -2.99002 10.29072 0.30046
v -4.33619 10.79945 -0.38304
v -2.22701 11.53013 3.48710
v -2.29139 9.78375 3.42522
v -1.15702 9.80076 1.76484
v -1.09263 11.54714 1.82672
v -1.57409 10.01976 3.99780
v -2.67553 10.27904 3.04314
v -3.44495 11.26473 4.19857
v -2.34351 11.00545 5.15323
v -1.62974 9.99936 4.24974
v -2.74580 9.99984 5.07735
v -2.90112 11.57614 4.86698
v -1.78506 11.57566 4.03937
v -1.75268 11.80077 0.93061
v -1.23356 12.78340 1.84524
v 0.30836 12.29167 1.49837
v -0.21075 11.30904 0.58375
v -0.63161 10.99190 0.97492
v -0.49390 12.24119 2.04950
v -0.61298 13.48636 0.61715
v -0.75069 12.23707 -0.45743
v 0.37849 14.76487 1.30624
v -0.22665 13.63594 0.01288
v -1.02420 12.37816 1.48390
v -0.41907 13.50708 2.77726
v 3.56071 9.50297 0.63595
v 3.29755 10.41692 -0.70926
v 1.56010 9.67892 -0.87077
v 1.82326 8.76498 0.47444
v 3.31413 10.08890 0.15691
v 2.25649 10.15509 0.97311
v 2.97975 11.21249 1.82457
v 4.03739 11.14631 1.00837
v 3.95776 12.45263 1.42760
v 4.48786 10.95051 1.66477
v 3.19004 10.31004 0.50912
v 2.65993 11.81216 0.27195
v 4.37611 11.15993 1.64811
v 5.55590 12.32358 1.46898
v 5.20427 12.39020 -0.41409
v 4.02448 11.22655 -0.23495
v 1.61484 10.11894 1.99798
v 1.86891 11.50301 1.18233
v 2.94034 10.58338 -0.04444
v 2.68627 9.19931 0.77121
v 3.37189 11.39731 3.57933
v 4.26152 10.59556 2.65032
v 3.65723 11.50182 1.28954
v 2.76760 12.30357 2.21855
v 2.85051 11.23700 2.48272
v 2.51718 11.03490 3.97702
v 3.24111 12.61269 4.35190
v 3.57444 12.81479 2.85760
v 3.80892 10.95983 -0.78701
v 3.96143 11.39310 0.96272
v 6.00942 11.66398 0.71713
v 5.85691 11.23071 -1.03260
v 5.38985 11.18115 -0.35213
v 6.41590 11.95438 -1.06414
v 5.88109 11.31225 -2.53217
v 4.85504 10.53902 -1.82016
v 6.31205 11.91297 0.16197
v 7.31232 12.53688 -0.84022
v 6.66503 11.49889 -2.13246
v 5.66476 10.87498 -1.13028
v 4.41397 11.95782 0.97653
v 3.88986 12.69136 -0.65307
v 2.03309 13.30499 0.22031
v 2.55719 12.57145 1.84991
v 3.61764 12.07134 -0.31778
v 2.14481 12.64834 -0.82296
v 2.30849 14.12090 0.38177
v 3.78131 13.54390 0.88696
v 3.12301 12.53479 0.52233
v 2.97611 14.07386 0.18352
v 1.24035 14.02838 0.72952
v 1.38725 12.48931 1.06832
v 0.50890 6.12722 -2.53293
v 0.26650 5.64818 -0.81405
v 2.00015 6.65223 -0.28975
v 2.24256 7.13127 -2.00863
v 2.45321 6.77730 -2.04548
v 2.27320 7.66073 -3.65827
v 0.23509 7.06778 -3.75559
v 0.41510 6.18435 -2.14280
v 2.31721 7.96446 -2.86864
v 0.91072 8.59724 -3.13394
v 1.57287 9.47048 -4.56147
v 2.97936 8.83770 -4.29617
v 0.35433 8.66294 -3.03232
v 1.48602 7.45986 -2.29038
v 2.88108 7.84958 -3.78632
v 1.74939 9.05266 -4.52826
v 0.67385 4.92579 -1.38402
v 1.01389 5.74915 -0.25229
v 2.02847 6.64386 -1.20805
v 1.68843 5.82050 -2.33978
v 2.14756 8.31346 -1.22684
v 3.17613 7.37373 -2.48289
v 4.04711 6.20323 -0.89393
v 3.01854 7.14296 0.36212
v 1.38049 6.46297 -1.53199
v 1.49883 7.49282 -0.07525
v 3.42782 7.99067 -0.58392
v 3.30948 6.96082 -2.04066
v 1.81927 5.43824 -3.35382
v 0.62256 6.24089 -3.98447
v 0.49771 7.23699 -2.47975
v 1.69442 6.43434 -1.84911
v -0.29594 7.35676 -4.65056
v 0.56662 6.91560 -5.78957
v 1.95224 7.53222 -4.97908
v 1.08969 7.97338 -3.84007
v 0.65724 8.09674 -4.11388
v 1.51304 6.84271 -5.01510
v 0.11130 6.93943 -6.48078
v -0.74450 8.19346 -5.57956
v 1.22819 7.01676 -2.40849
v 1.91903 8.13094 -3.79589
v 2.17757 9.76591 -2.35417
v 1.48674 8.65174 -0.96676
v 1.40980 10.87241 -1.98833
v 2.24398 10.49689 -3.02228
v 2.42420 9.06649 -2.35737
v 1.59001 9.44202 -1.32343
v 2.36701 11.03561 -2.28837
v 1.14720 11.11299 -1.70472
v 1.37189 9.71756 -1.05011
v 2.59170 9.64017 -1.63376
v -1.69907 7.76514 1.24957
v -0.49912 9.09458 1.58370
v -0.50271 9.60831 -0.44741
v -1.70267 8.27887 -0.78154
v -1.20800 9.41520 1.54400
v -2.18931 10.53558 1.02014
v -1.45310 11.72271 2.17998
v -0.47180 10.60234 2.70384
v -1.52107 11.72704 1.63586
v -1.89433 10.48226 1.86099
v -3.32885 10.94362 2.03351
v -2.95559 12.18840 1.80838
v -3.24076 12.42889 1.59817
v -3.60192 11.39394 3.03795
v -1.59956 10.83644 3.13950
v -1.23839 11.87140 1.69972
v -2.16592 10.84566 0.03475
v -0.86538 10.55946 -0.20165
v -1.21650 9.04766 -0.30300
v -2.51704 9.33386 -0.06660
v -3.06593 12.50410 -1.26586
v -4.23242 11.82933 -1.62708
v -3.84433 10.62823 -0.63663
v -2.67784 11.30301 -0.27541
v -3.89703 11.21423 -1.49361
v -4.13125 11.92246 0.00664
v -2.28186 12.46204 0.04064
v -2.04765 11.75380 -1.45961
v -1.29124 8.93624 2.06300
v -1.86143 9.89836 3.56909
v -1.68931 11.73956 2.45807
v -1.11911 10.77744 0.95198
v -3.20016 11.60795 3.85613
v -2.31490 12.33332 3.23426
v -1.23746 11.38429 3.66105
v -2.12271 10.65892 4.28292
v -2.92235 9.66934 4.39504
v -1.14167 9.91449 5.02450
v -1.12563 11.93957 4.19042
v -2.90631 11.69442 3.56096
v -1.41456 12.07666 0.26684
v -1.45322 10.78319 1.31377
v -0.33902 11.74218 2.53975
v -0.30036 13.03566 1.49283
v -0.52158 12.93804 0.82103
v -1.20349 11.91381 1.39968
v 0.08181 11.50513 2.19095
v 0.76372 12.52936 1.61231
v 0.08443 12.32964 2.49511
v 0.30146 13.58673 1.28042
v -1.50823 13.13538 0.48998
v -1.72525 11.87829 1.70466
v 1.23697 9.84002 0.92134
v 2.55918 10.13417 1.19286
v 2.73323 10.70935 -0.27781
v 1.41102 10.41520 -0.54933
v 3.47230 11.40519 -0.72296
v 3.86225 10.53311 0.56556
v 2.28830 11.03856 1.38399
v 1.89834 11.91063 0.09546
v 3.94074 10.77403 -0.08593
v 2.72343 10.90409 1.08021
v 3.90299 11.97819 2.19173
v 5.12029 11.84814 1.02559
v 4.15196 12.04629 1.24249
v 5.17591 13.22201 1.00151
v 5.32822 12.73266 -0.73885
v 4.30427 11.55694 -0.49787
v 2.61908 9.90598 2.44706
v 3.13000 10.79983 1.27467
v 1.50111 10.74630 0.52400
v 0.99019 9.85245 1.69639
v 3.82731 10.64710 1.87408
v 4.38229 12.18644 1.55255
v 2.76272 12.92039 2.27099
v 2.20775 11.38105 2.59251
v 4.64774 12.73134 2.81241
v 3.97751 12.17673 1.59270
v 2.64992 11.65549 2.55921
v 3.32015 12.21009 3.77892
v 4.97143 10.32659 -1.55341
v 4.39877 11.67273 -0.98818
v 3.60239 10.77003 0.35482
v 4.17505 9.42388 -0.21042
v 6.77903 12.11181 -0.51484
v 6.51041 11.41944 -2.26017
v 4.35764 11.69046 -2.03636
v 4.62626 12.38284 -0.29103
v 4.53545 12.51049 -1.58136
v 5.04834 10.99897 -1.08980
v 6.56340 11.79620 -0.21919
v 6.05051 13.30771 -0.71075
v 2.22508 11.11195 0.64803
v 3.39806 10.67383 0.93470
v 3.99499 11.68705 0.04071
v 2.82200 12.12517 -0.24596
v 3.18231 14.34081 0.09223
v 2.84142 13.27075 -1.28845
v 1.97103 11.91681 -0.02422
v 2.31193 12.98686 1.35646
v 1.44741 14.36505 1.18565
v 2.90759 14.47379 0.34412
v 2.85360 12.56251 0.00347
v 1.39342 12.45377 0.84501
v 1.00958 4.72540 -1.97513
v 1.26446 6.02207 -2.77078
v 2.08735 6.72328 -1.36443
v 1.83248 5.42662 -0.56877
v 1.43747 7.46734 -1.77487
v 2.02617 8.33816 -3.01240
v 2.24708 6.77399 -4.00799
v 1.65838 5.90317 -2.77046
v 2.87703 8.24502 -5.06221
v 1.42699 7.53087 -4.49337
v 1.62292 8.49365 -2.78522
v 3.07296 9.20780 -3.35406
v 2.50383 8.17342 -2.61119
v 2.63212 7.79947 -3.97224
v 1.01261 7.86657 -4.14332
v 0.88432 8.24052 -2.78227
v 0.88037 6.28940 -0.39378
v 1.74768 7.75529 -0.44362
v 2.80841 7.07665 -1.94502
v 1.94111 5.61076 -1.89518
v 3.44711 7.93279 -1.14957
v 1.99310 7.40322 -1.86119
v 1.64939 6.26010 -0.30823
v 3.10340 6.78967 0.40339
v 2.61145 6.42746 -1.83852
v 3.72422 7.22148 -1.77385
v 3.09622 8.00274 -0.56052
v 1.98346 7.20872 -0.62519
v 1.55049 5.77801 -2.46612
v 0.98001 5.04760 -3.74500
v -0.61425 5.88627 -3.51284
v -0.04378 6.61669 -2.23396
v -0.58782 6.35008 -4.86915
v 0.50239 5.80194 -5.83405
v 1.66829 7.00022 -5.19745
v 0.57809 7.54836 -4.23255
v -0.16163 8.18604 -6.11413
v -0.73837 6.53100 -6.16584
v -0.16123 6.27007 -4.25147
v 0.41551 7.92511 -4.19975
v 1.69745 9.00757 -2.96765
v 2.19304 9.00863 -1.20451
v 2.49419 6.92576 -1.28792
v 1.99860 6.92470 -3.05105
v 1.57820 10.03788 -1.30041
v 3.00907 9.36553 -0.68812
v 3.20233 8.30023 -2.30957
v 1.77146 8.97258 -2.92185
v 3.87018 10.58254 -1.89458
v 2.74652 11.37626 -3.06748
v 1.14693 10.34113 -2.23553
v 2.27059 9.54741 -1.06263
v -0.02288 8.50817 2.02727
v -0.05645 9.06024 0.32233
v -1.66454 10.27745 0.74813
v -1.63097 9.72538 2.45307
v -1.41314 11.39881 1.35000
v -0.50347 10.16149 1.71540
v -1.53140 9.09562 0.66519
v -2.44107 10.33294 0.29979
v -1.64294 9.85949 1.02958
v -2.96382 10.77676 1.19481
v -1.89200 12.27341 1.45454
v -0.57112 11.35614 1.28931
v -2.52499 10.81178 2.29518
v -1.21473 11.47972 2.20700
v -1.32950 11.48168 0.51657
v -2.63976 10.81374 0.60475
v -1.00166 9.36382 0.16123
v -2.25440 10.39461 -0.68996
v -3.12946 10.86528 1.16789
v -1.87672 9.83449 2.01908
v -2.55273 11.69264 -1.12042
v -3.52026 11.54619 -0.08554
v -3.59826 9.93798 -0.38605
v -2.63073 10.08443 -1.42093
v -3.47827 12.04561 0.67528
v -3.79129 12.51354 -0.57597
v -3.95074 11.03052 -1.09068
v -3.63773 10.56260 0.16057
v -0.63689 10.70479 2.29832
v -1.57518 9.79694 1.52610
v -2.89109 10.26982 2.56904
v -1.95280 11.17768 3.34126
v -1.43517 11.79963 3.73683
v -1.33549 10.08688 3.51417
v -2.93919 9.84378 4.66626
v -3.03887 11.55653 4.88892
v -2.11758 10.52246 5.90667
v -1.20364 11.63659 5.07733
v -2.31885 11.40790 3.54113
v -3.23279 10.29377 4.37048
v -1.33818 11.57677 0.89035
v -0.91937 11.76345 2.40594
v 0.64569 10.89120 2.08089
v 0.22688 10.70453 0.56529
v 0.27085 14.03276 0.84303
v -0.71561 14.08130 2.37910
v -0.57327 11.99193 2.53652
v 0.41319 11.94340 1.00045
v 1.03664 12.06774 1.77168
v 0.94641 13.61613 1.37009
v -0.89057 13.49132 1.30164
v -0.80034 11.94293 1.70323
v 2.55640 10.66588 1.58670
v 1.86785 10.09895 0.46632
v 3.10448 10.55149 -0.52267
v 3.79303 11.11843 0.59771
v 2.48180 11.17061 1.53584
v 2.53918 10.02679 0.92247
v 3.86513 10.40263 0.34562
v 3.80776 11.54646 0.95900
v 3.40525 11.05224 0.61513
v 3.69308 12.22478 -0.47851
v 4.80989 13.09493 0.74834
v 4.52206 11.92239 1.84198
v 2.83425 12.41486 0.36241
v 3.97545 13.28587 1.14637
v 5.32068 12.38741 0.18637
v 4.17948 11.51640 -0.59760
v 3.57214 9.94674 1.36063
v 3.26334 11.57265 2.19071
v 1.21987 11.04283 2.46830
v 1.52867 9.41691 1.63822
v 1.76902 11.28981 0.98640
v 2.08799 12.31910 2.56119
v 4.19975 11.72380 2.52254
v 3.88078 10.69451 0.94775
v 3.24972 11.87391 1.22857
v 3.22724 13.10106 2.10748
v 2.52420 12.16831 3.39183
v 2.54668 10.94115 2.51292
v 5.52425 9.66600 -0.43901
v 5.96710 11.22069 0.35053
v 4.36020 12.14496 -0.56815
v 3.91735 10.59027 -1.35770
v 6.15835 10.11710 -0.03488
v 6.55298 11.88881 -0.09639
v 5.19960 12.13571 -1.66788
v 4.80496 10.36400 -1.60637
v 5.10313 11.12223 0.03149
v 6.26547 11.92421 -0.09909
v 5.92999 12.15325 -1.67861
v 4.76765 11.35127 -1.54803
v 2.07134 11.42075 1.50664
v 2.23085 10.92472 0.14088
v 3.44550 12.05533 -0.12789
v 3.28599 12.55136 1.23787
v 3.16483 13.81862 1.32165
v 4.25014 13.31248 0.72371
v 3.34927 12.51747 -0.23847
v 2.26397 13.02361 0.35947
v 1.99872 12.29378 1.49256
v 2.49244 13.77016 1.77039
v 3.37348 13.77491 0.17952
v 2.87977 12.29853 -0.09831
v 1.13144 5.27740 -2.04434
v -0.21007 6.16002 -2.39717
v 0.11963 7.26125 -0.89599
v 1.46115 6.37863 -0.54316
v 1.65110 7.16922 -3.54566
v 1.90323 5.83796 -3.08462
v 1.60300 6.31648 -1.53870
v 1.35087 7.64774 -1.99974
v 1.49019 7.92882 -2.67854
v 2.64803 7.85358 -3.41246
v 2.83471 9.41559 -3.27810
v 1.67687 9.49083 -2.54418
v 2.12007 7.76778 -3.59169
v 0.65370 8.80979 -4.22827
v 2.03140 10.44296 -4.72852
v 3.49777 9.40095 -4.09194
v 1.77782 5.54583 -0.71217
v 2.59082 5.46617 -1.76599
v 1.87896 6.66417 -2.40573
v 1.06596 6.74383 -1.35191
v 1.79927 8.31858 -0.81770
v 2.70991 8.76476 -2.38178
v 3.84087 6.94914 -2.24123
v 2.93022 6.50297 -0.67715
v 2.43531 7.11333 0.20145
v 3.04657 8.30067 -0.56597
v 2.00050 7.94447 -1.95027
v 1.38923 6.75714 -1.18284
v 0.51578 6.86838 -2.18516
v 1.43200 7.27993 -3.55917
v 1.57057 5.38619 -4.03400
v 0.65435 4.97464 -2.65999
v 0.51289 6.21871 -5.12943
v 1.51502 7.03281 -5.12973
v 0.61627 8.13929 -4.71429
v -0.38586 7.32520 -4.71400
v -0.64747 6.90003 -5.13898
v 0.73176 6.34636 -5.36579
v 1.41055 7.68694 -4.51063
v 0.03131 8.24061 -4.28382
v 2.60190 8.62227 -1.93670
v 2.08124 7.22652 -1.71172
v 0.72635 7.56674 -2.73659
v 1.24701 8.96249 -2.96158
v 0.81768 8.64436 -2.19907
v 2.56156 9.13813 -2.82483
v 2.54329 10.89358 -1.49058
v 0.79941 10.39982 -0.86481
v 1.99132 11.76219 -1.47184
v 3.41746 11.48896 -0.82544
v 3.66464 10.08178 -1.96557
v 2.23849 10.35501 -2.61197
v -1.92701 9.03807 -0.42487
v -2.51402 9.95432 0.77639
v -1.33554 9.14300 1.97110
v -0.74853 8.22675 0.76984
v -1.13516 10.43670 2.78991
v -0.30590 10.27049 1.08003
v -2.23824 10.63487 0.10747
v -3.06749 10.80107 1.81735
v -1.35690 11.10704 2.34614
v -0.68896 11.89725 1.44052
v -2.06773 12.31733 0.79014
v -2.73567 11.52712 1.69576
v -1.51992 12.03103 3.03574
v -1.72739 11.71426 1.38633
v -3.29328 12.86966 1.36140
v -3.08581 13.18643 3.01081
v -2.54890 9.76983 1.14329
v -1.19750 10.39781 1.27285
v -1.25280 10.85856 -0.38354
v -2.60419 10.23057 -0.51311
v -2.86665 10.66080 -0.97092
v -3.38399 11.84960 -0.60052
v -2.07722 12.17936 0.16631
v -1.55987 10.99056 -0.20409
v -2.71796 12.72100 -2.09885
v -4.37914 12.36721 -1.28086
v -3.35590 11.49685 0.42071
v -1.69472 11.85065 -0.39728
v -2.69320 9.79141 2.32131
v -2.67969 11.34632 2.92671
v -0.91006 11.60220 2.23004
v -0.92357 10.04729 1.62464
v -1.27180 12.11801 4.10492
v -0.56531 10.42979 4.48075
v -2.43814 9.52584 3.94080
v -3.14463 11.21407 3.56498
v -2.15016 10.81853 3.97470
v -2.65639 12.15032 3.42695
v -3.98905 12.11343 4.56890
v -3.48282 10.78164 5.11665
v 0.38196 11.74425 0.44375
v -0.97557 11.72730 -0.19120
v -1.62020 10.95377 1.20768
v -0.26267 10.97072 1.84263
v 0.00114 12.88385 2.64980
v -1.12218 13.86096 1.63155
v -1.74703 12.13530 0.66493
v -0.62370 11.15819 1.68319
v 1.36028 13.04521 2.02169
v 0.12854 11.79664 2.76232
v -1.30336 12.26727 1.17431
v -0.07161 13.51584 0.43368
v 3.79022 10.41798 0.24224
v 2.08221 11.26502 0.21560
v 1.19897 9.51492 1.19791
v 2.90697 8.66787 1.22455
v 2.89289 10.89952 1.37933
v 2.22105 11.56759 0.50348
v 3.44798 11.72780 -0.31546
v 4.11982 11.05973 0.56039
v 2.82691 11.82193 0.55341
v 4.00572 12.19995 0.07358
v 4.65958 11.85742 1.41012
v 3.48077 11.47940 1.88994
v 4.19615 11.18893 0.95520
v 3.65913 11.89033 2.02005
v 3.93200 13.25908 1.25609
v 4.46902 12.55769 0.19124
v 3.47031 11.29659 1.00507
v 4.07349 10.32679 1.66486
v 2.77827 9.53779 1.68924
v 2.17509 10.50760 1.02945
v 2.85074 10.87957 2.14869
v 2.05419 11.88830 2.70937
v 2.99765 13.00848 2.03438
v 3.79420 11.99975 1.47370
v 3.79569 13.09270 1.75423
v 2.11639 12.34140 1.72065
v 2.33964 11.75212 3.74066
v 4.01894 12.50342 3.77424
v 4.21910 11.91819 -0.81957
v 4.82397 11.06431 0.67146
v 4.49336 9.21426 -0.25391
v 3.88849 10.06815 -1.74494
v 5.54208 12.64669 -0.32617
v 6.47947 11.15406 -0.95569
v 5.29479 11.16793 -2.75263
v 4.35739 12.66055 -2.12310
v 6.27526 10.92267 -1.18844
v 5.96120 11.47724 -2.65839
v 6.00613 13.20378 -2.01662
v 6.32020 12.64920 -0.54666
v 2.96313 11.52144 2.17394
v 4.54237 11.28560 1.23045
v 3.61758 12.08503 -0.51735
v 2.03833 12.32088 0.42614
v 1.62642 14.12578 -0.23647
v 3.10037 14.35133 0.27778
v 3.30187 12.56068 0.48564
v 1.82791 12.33513 -0.02862
v 3.38461 12.43250 -0.03928
v 3.17874 12.94990 1.12210
v 2.95399 14.27200 0.49325
v 3.15986 13.75459 -0.66813
v 0.47988 6.51542 -1.12373
v 1.00004 6.24497 -2.49213
v 2.58402 6.62471 -1.96508
v 2.06386 6.89516 -0.59668
v 1.74941 6.73629 -1.28780
v 2.12249 7.93676 -2.12610
v 1.34567 7.21639 -3.50341
v 0.97259 6.01591 -2.66511
v 2.66176 8.64235 -2.91090
v 1.43801 7.89105 -2.31926
v 0.39738 8.57988 -3.59696
v 1.62112 9.33119 -4.18861
v 0.56935 9.49050 -3.64484
v 0.94467 7.91221 -2.68696
v 2.70993 7.59442 -3.90226
v 2.33462 9.17271 -4.86013
v 1.44908 5.60751 -1.98991
v 1.70272 5.46775 -0.33010
v 3.07862 6.82868 -0.42576
v 2.82497 6.96844 -2.08558
v 4.00616 7.04817 -1.06720
v 3.20946 7.68832 -2.06223
v 2.27642 8.35249 -0.88788
v 3.07312 7.71234 0.10715
v 1.70913 8.78682 -0.33788
v 2.35606 9.00614 -1.74642
v 3.04596 7.34434 -1.68831
v 2.39903 7.12502 -0.27977
v -0.41131 6.53506 -3.45253
v -0.49232 6.51245 -1.70922
v 1.45340 6.02701 -1.62511
v 1.53441 6.04962 -3.36841
v -0.01643 7.61371 -4.75842
v -0.55513 5.88568 -5.17493
v 1.16046 5.10810 -4.16773
v 1.69915 6.83613 -3.75122
v 0.36530 6.24478 -4.86081
v 1.23563 7.30329 -4.25748
v -0.05007 8.44010 -4.39730
v -0.92039 7.38160 -5.00062
v 1.78733 7.71843 -1.55918
v 2.36568 8.44732 -2.57013
v 1.20760 9.51676 -2.46159
v 0.62925 8.78787 -1.45064
v 2.54776 11.39697 -1.37606
v 2.53921 9.95774 -0.57041
v 2.29349 9.04014 -2.21222
v 2.30204 10.47937 -3.01788
v 1.96832 10.55605 -1.49694
v 2.39314 11.17981 -2.59492
v 3.51230 10.14489 -2.74985
v 3.08748 9.52113 -1.65187
v -0.12475 8.38480 1.54799
v 0.20922 10.17070 1.51367
v -1.78761 10.53456 1.01636
v -2.12159 8.74866 1.05068
v -2.50840 8.82718 0.53910
v -1.59927 10.45306 0.36171
v -0.87099 10.26583 2.37795
v -1.78012 8.63995 2.55535
v -1.33103 11.27811 2.60126
v -2.66326 10.58678 1.40829
v -2.88185 12.58216 0.49607
v -1.54961 13.27350 1.68904
v -3.75585 11.81470 2.61003
v -2.74470 12.84201 2.65955
v -2.08537 12.26084 1.25291
v -3.09652 11.23353 1.20339
v -2.24447 9.38534 -0.15588
v -0.97361 9.69705 -0.37465
v -1.31850 11.17930 -0.26625
v -2.58937 10.86759 -0.04748
v -3.83509 11.07989 -1.69799
v -2.99802 12.29006 -1.94889
v -2.37809 12.19252 -0.35111
v -3.21516 10.98235 -0.10021
v -2.42940 10.93185 0.36951
v -3.31712 12.21118 0.51149
v -4.20122 11.76424 -0.98917
v -3.31350 10.48491 -1.13115
v -1.89491 10.31403 1.93514
v -3.51053 10.99540 2.22457
v -3.41270 10.39817 4.17663
v -1.79708 9.71680 3.88720
v -1.63213 9.98928 3.41758
v -2.32884 10.80678 4.16619
v -2.86689 11.47920 2.93116
v -2.17018 10.66169 2.18254
v -2.34546 10.96908 4.10421
v -3.23326 10.90471 5.03833
v -2.71185 12.16595 5.62079
v -1.82405 12.23032 4.68667
v -0.20486 10.93609 1.26569
v -1.26078 10.21164 1.45537
v -1.91263 11.34719 2.16374
v -0.85672 12.07165 1.97406
v 0.47235 11.18221 1.20352
v -1.14956 11.44087 0.33912
v -1.74157 12.81513 1.86114
v -0.11965 12.55648 2.72554
v -0.70423 12.29184 0.92127
v -0.14668 13.06356 -0.43912
v 0.42595 14.53728 0.63159
v -0.13160 13.76557 1.99197
v 2.67236 8.32979 0.16889
v 1.80001 9.59248 1.13068
v 2.66814 11.08226 -0.03778
v 3.54049 9.81957 -0.99957
v 1.86407 10.90042 0.33704
v 2.48401 11.46292 -0.93273
v 4.07721 11.28664 -0.23298
v 3.45727 10.72414 1.03680
v 3.60664 12.13248 2.31536
v 4.72113 13.29525 1.61526
v 4.71236 12.25968 -0.11865
v 3.59787 11.09690 0.58145
v 5.05161 12.33089 1.36871
v 4.00180 11.16828 1.60817
v 3.46102 11.29916 -0.12716
v 4.51083 12.46178 -0.36662
v 2.38053 9.89288 1.67319
v 1.61109 10.77321 2.31879
v 1.82261 11.78876 1.18610
v 2.59205 10.90844 0.54050
v 2.47364 10.04047 2.75536
v 1.61280 10.81755 1.69397
v 3.05232 11.82245 1.26218
v 3.91316 11.04537 2.32356
v 2.53560 12.01282 1.96332
v 2.67513 12.85337 3.06250
v 4.25958 12.63853 3.02566
v 4.12005 11.79797 1.92648
v 4.14504 11.54350 -1.66286
v 5.26987 10.78356 -1.33736
v 5.36597 11.53258 0.07928
v 4.24114 12.29252 -0.24621
v 4.29061 12.33227 -0.49975
v 4.90421 10.64116 -0.47512
v 5.86275 10.96267 -2.28030
v 5.24916 12.65377 -2.30493
v 6.28684 10.89937 -1.38447
v 5.29015 11.93372 -1.84627
v 6.53074 13.14625 -1.80795
v 7.52743 12.11189 -1.34615
v 3.69186 12.46214 0.61002
v 2.31031 12.97357 1.06594
v 1.64675 11.33847 0.88939
v 3.02830 10.82703 0.43347
v 2.16038 13.06427 -0.48414
v 2.26208 14.67826 0.28505
v 2.25053 13.79287 2.14438
v 2.14883 12.17889 1.37520
v 2.78832 12.95377 -0.15857
v 3.19864 13.88766 0.73050
v 2.11846 13.40156 1.73963
v 1.70814 12.46767 0.85057
v 0.93957 6.05131 -0.19453
v 2.03123 4.83464 -0.68537
v 1.62177 5.22543 -2.56472
v 0.53011 6.44210 -2.07388
v 0.22474 7.59650 -3.40717
v 0.50977 7.03510 -1.82622
v 2.42975 7.32540 -2.06929
v 2.14472 7.88680 -3.65024
v 1.66092 6.86256 -2.39493
v 2.91191 7.98744 -3.05827
v 1.41422 9.30128 -3.65476
v 0.16323 8.17640 -2.99142
v 1.36886 8.05121 -4.46067
v 2.65751 7.70751 -4.55530
v 3.05882 9.02273 -3.86727
v 1.77017 9.36642 -3.77263
v 2.43714 6.86366 -0.78212
v 2.56784 6.56011 -2.17457
v 1.09833 5.81940 -2.15102
v 0.96764 6.12294 -0.75857
v 1.51133 6.85807 -0.52220
v 2.06274 7.33777 -1.60361
v 3.39547 7.36165 -0.91347
v 2.84406 6.88195 0.16795
v 3.50701 5.79015 -1.54430
v 2.23434 6.81636 -2.47005
v 2.36030 8.34516 -0.94852
v 3.63297 7.31895 -0.02277
v 0.13150 6.05400 -3.61924
v 0.69780 5.89425 -2.46227
v 1.36459 7.22205 -2.60530
v 0.79830 7.38181 -3.76227
v -0.26881 6.49903 -4.69850
v 0.40927 6.78112 -6.21717
v 2.06299 7.34490 -5.37407
v 1.38491 7.06281 -3.85540
v 0.35652 6.26678 -4.52537
v -0.30498 5.91736 -5.59079
v 0.02805 7.23043 -6.22821
v 0.68955 7.57986 -5.16279
v 2.23503 8.10989 -2.71521
v 1.04671 8.64336 -1.40001
v 1.81644 10.62509 -1.50836
v 3.00476 10.09163 -2.82356
v 1.46841 8.26540 -1.86892
v 0.85465 9.68716 -2.09007
v 2.24164 10.42256 -1.21164
v 2.85541 9.00079 -0.99049
v 3.05349 11.03232 -2.19693
v 1.36518 10.91737 -2.01027
v 1.52044 8.97694 -1.80092
v 3.20876 9.09189 -1.98758
v -1.35360 9.70951 1.20196
v -0.23454 8.83853 0.74436
v -0.71246 7.63490 1.86651
v -1.83153 8.50588 2.32412
v -2.72053 10.48296 1.54951
v -2.08903 9.68098 2.33172
v -1.34138 9.14173 1.17526
v -1.97288 9.94371 0.39304
v -3.43616 10.68976 1.83931
v -2.35761 10.17696 2.47323
v -1.42328 10.85241 1.42993
v -2.50184 11.36521 0.79602
v -1.27338 12.44803 2.65237
v -1.88190 12.02252 1.51463
v -3.27720 12.19697 2.19566
v -2.66868 12.62249 3.33340
v -1.97123 9.34889 -0.30992
v -1.42376 10.08026 1.31376
v -2.20412 11.98487 0.71897
v -2.75159 11.25351 -0.90470
v -2.44445 11.06799 0.35401
v -1.61236 11.86162 -0.55625
v -3.00116 12.49412 -1.27432
v -3.83324 11.70048 -0.36406
v -3.60698 11.32159 -0.58723
v -3.71165 12.26092 0.31116
v -3.66273 13.29970 -0.76926
v -3.55807 12.36037 -1.66765
v -3.32115 11.17354 2.62145
v -2.99481 10.06817 1.48434
v -1.76769 9.25656 2.62548
v -2.09403 10.36192 3.76258
v -1.70074 11.86842 3.29062
v -2.89949 11.54125 4.22460
v -3.41751 10.24647 3.10617
v -2.21875 10.57365 2.17219
v -1.98244 10.32420 5.32539
v -1.00532 10.27217 4.16863
v -2.08513 11.24980 3.21254
v -3.06224 11.30183 4.36929
v -0.04304 10.65413 0.76553
v -0.50274 11.71853 0.01673
v -0.69656 12.56811 1.34337
v -0.23686 11.50371 2.09217
v -1.12364 11.74029 1.85110
v -1.43599 12.48626 0.59606
v 0.23138 12.49520 0.18641
v 0.54373 11.74924 1.44144
v -0.19245 13.54878 0.91441
v -0.61641 13.84116 2.33618
v -1.22419 12.21897 2.48854
v -0.80023 11.92659 1.06677
v 2.45904 9.28378 0.46753
v 3.13874 10.43054 -0.22684
v 1.78338 11.44503 0.12189
v 1.10368 10.29826 0.81626
v 3.42608 11.03638 0.60647
v 2.44749 10.61116 -0.11466
v 2.43011 9.34596 0.65494
v 3.40870 9.77117 1.37608
v 5.43300 11.95456 0.00853
v 4.07926 12.70034 -1.00200
v 2.63759 11.67442 0.17219
v 3.99132 10.92865 1.18271
v 5.02424 12.94297 0.81532
v 5.38944 11.73538 1.07117
v 4.04153 11.44149 1.60808
v 3.67632 12.64908 1.35222
v 1.14816 10.21249 2.45532
v 2.65258 11.35587 2.18363
v 2.95570 10.48375 0.19183
v 1.45128 9.34037 0.46352
v 4.67657 12.44088 2.42774
v 3.24675 12.41007 1.53497
v 2.38786 11.39443 2.94559
v 3.81768 11.42525 3.83836
v 3.68863 11.74593 2.13400
v 2.83696 12.06033 1.15931
v 1.66483 11.61865 2.04102
v 2.51650 11.30425 3.01571
v 4.54860 11.68568 -1.19104
v 3.64777 12.38871 -0.17077
v 3.90563 11.06840 0.96668
v 4.80647 10.36537 -0.05359
v 5.98149 11.73040 -1.98418
v 4.54642 12.42780 -2.18216
v 3.97411 11.70511 -0.57940
v 5.40918 11.00771 -0.38143
v 5.57628 11.69408 -1.79391
v 6.13928 11.64804 -0.62362
v 7.48610 11.65943 -1.27109
v 6.92309 11.70546 -2.44139
v 1.74258 11.27007 1.39829
v 2.73235 12.26560 1.80005
v 3.19999 12.44736 0.19755
v 2.21023 11.45183 -0.20420
v 4.23054 13.02765 0.29270
v 3.39476 11.71967 0.94636
v 1.95168 12.90197 1.46702
v 2.78745 14.20995 0.81335
v 1.95600 13.17356 1.25012
v 1.17264 13.33792 0.00419
v 2.53262 14.02011 -0.76089
v 3.31598 13.85575 0.48505
v 0.26368 5.98160 -1.34830
v 1.50705 4.80766 -1.70825
v 2.15512 5.95847 -3.22290
v 0.91174 7.13242 -2.86294
v 2.91692 7.14993 -3.21573
v 1.51594 7.75413 -3.52300
v 1.13755 7.76637 -1.77370
v 2.53853 7.16216 -1.46643
v 0.83969 9.08019 -3.97232
v 2.34646 8.52057 -4.82664
v 2.58597 6.99992 -3.40811
v 1.07920 7.55955 -2.55379
v 0.91549 8.39356 -3.20138
v 2.11139 7.97539 -3.84749
v 2.97880 8.98063 -2.89259
v 1.78290 9.39880 -2.24648
v 2.92387 6.49691 -0.34288
v 2.19173 6.18186 -1.64375
v 0.70560 5.92913 -0.74613
v 1.43774 6.24417 0.55474
v 1.62396 9.10488 -1.40031
v 1.35830 7.30668 -1.88804
v 3.12896 6.74399 -0.77791
v 3.39462 8.54218 -0.29018
v 3.29093 9.09879 -1.09112
v 2.61455 7.88533 -1.85312
v 3.23906 6.73894 -0.58188
v 3.91545 7.95239 0.18012
v -0.76786 5.21758 -3.36714
v 0.40218 5.32754 -2.06938
v 1.16287 6.99806 -2.89675
v -0.00717 6.88810 -4.19452
v -0.66786 7.26758 -4.68451
v 0.12723 6.64777 -3.86202
v 0.81602 5.99570 -5.01924
v 0.02093 6.61551 -5.84173
v -0.12284 7.50896 -7.09942
v 1.36366 7.38169 -6.20462
v 0.32431 7.13013 -4.51375
v -1.16219 7.25740 -5.40854
v 3.46673 7.77493 -1.90940
v 3.14125 8.65154 -3.53007
v 1.04045 8.72209 -3.07000
v 1.36593 7.84548 -1.44934
v 2.41877 11.53265 -1.89243
v 1.73757 10.88488 -3.06204
v 2.20623 9.33146 -2.47466
v 2.88743 9.97923 -1.30505
v 3.77871 10.32409 -1.28038
v 2.37125 11.09256 -1.89645
v 1.24750 9.68478 -1.08521
v 2.65497 8.91630 -0.46914
v -1.76820 8.92728 0.33099
v -0.99341 8.10764 1.37749
v 0.40778 9.16812 1.17068
v -0.36702 9.98776 0.12419
v -2.36870 11.15534 0.88380
v -1.31477 10.18344 0.47131
v -1.63150 9.24535 1.87235
v -2.68544 10.21725 2.28484
v -3.42300 10.17805 1.65836
v -1.61791 10.10601 1.91607
v -1.46263 12.13288 1.39497
v -3.26772 12.20491 1.13726
v -1.51768 12.47679 1.57450
v -2.57195 11.73071 1.43997
v -2.79975 11.78669 2.91477
v -1.74547 12.53277 3.04929
v -1.13890 10.32477 1.35933
v -1.61441 10.75466 -0.15401
v -2.32483 9.02393 -0.42243
v -1.84933 8.59403 1.09090
v -2.40398 11.49721 -1.04052
v -3.61318 11.47649 -0.24844
v -2.98042 10.25535 0.68559
v -1.77122 10.27607 -0.10649
v -5.08247 12.71656 -0.37734
v -4.41653 11.54362 0.72953
v -3.10205 10.96686 -0.67252
v -3.76799 12.13979 -1.77938
v -1.99196 11.03332 2.39068
v -0.95283 10.98510 3.43014
v -1.16583 9.31288 3.56550
v -2.20496 9.36110 2.52604
v -2.02033 11.49456 5.05206
v -1.89841 11.60840 3.65980
v -3.49754 11.46657 3.50816
v -3.61946 11.35273 4.90043
v -3.31565 12.03933 4.65903
v -1.73998 11.32062 5.13259
v -1.24634 11.09056 3.14097
v -2.82202 11.80926 2.66741
v 0.26711 11.35200 0.73546
v -1.18598 11.38398 0.09273
v -1.87648 11.96319 1.68265
v -0.42339 11.93121 2.32537
v -0.24114 11.44497 1.51847
v -0.91088 12.42928 2.58792
v -1.98310 13.13352 1.26826
v -1.31336 12.14921 0.19882
v 0.23368 12.62404 1.22520
v 0.51803 14.10003 1.49284
v -1.07292 14.51786 0.87878
v -1.35727 13.04188 0.61114
v 2.88617 8.78471 1.01345
v 3.83053 9.52311 0.18202
v 2.55822 10.36664 -0.51397
v 1.61386 9.62824 0.31747
v 3.66599 11.65633 0.28764
v 3.01118 11.28152 -0.91815
v 1.95496 10.37217 -0.06190
v 2.60977 10.74699 1.14389
v 3.24865 12.12168 0.87873
v 4.35959 11.39778 1.75293
v 5.55398 11.57602 0.38268
v 4.44304 12.29991 -0.49152
v 4.46926 12.77243 0.12143
v 3.64573 11.64105 0.07487
v 3.27799 11.84476 1.62918
v 4.10153 12.97614 1.67574
v 1.97390 9.42874 1.32612
v 3.06395 9.56346 2.84568
v 3.98191 11.33581 2.03005
v 2.89186 11.20109 0.51049
v 3.87728 10.52676 3.30267
v 4.40726 12.04761 2.82753
v 2.64528 12.44897 2.14690
v 2.11530 10.92812 2.62203
v 3.29803 11.72799 3.41309
v 3.27294 11.16323 2.21108
v 1.82793 11.62251 2.02544
v 1.85302 12.18727 3.22746
v 4.16873 12.00965 0.43865
v 4.52048 10.75630 0.07947
v 5.30567 11.32441 -1.13400
v 4.95392 12.57776 -0.77481
v 6.34319 11.26978 -1.26515
v 6.70365 12.34095 -0.64763
v 5.28177 12.70249 -0.44479
v 4.92131 11.63132 -1.06230
v 5.44091 11.64554 -2.05278
v 5.50804 11.38536 -0.34269
v 7.48298 11.63244 -0.38263
v 7.41585 11.89262 -2.09272
v 3.40289 13.06693 1.24697
v 2.50640 11.87584 1.91339
v 3.03279 10.71028 0.53830
v 3.92929 11.90137 -0.12811
v 3.12344 12.72899 1.48971
v 2.62621 13.90837 1.16967
v 3.39469 13.87747 -0.13817
v 3.89192 12.69808 0.18187
v 4.12084 14.53892 0.39573
v 3.37230 13.17103 -0.19449
v 1.68362 13.82182 0.43888
v 2.43217 15.18971 1.02910
v 1.58195 5.59499 -2.10152
v 0.60967 6.59218 -2.14637
v 1.74825 7.70925 -1.99228
v 2.72053 6.71206 -1.94744
v 0.85425 7.40467 -3.74278
v 0.37633 8.22690 -2.72049
v 1.48260 7.62870 -1.72218
v 1.96052 6.80647 -2.74447
v 2.70651 8.85069 -3.28493
v 2.65073 7.48217 -4.24968
v 0.72604 7.56774 -4.25978
v 0.78182 8.93626 -3.29503
v 2.62575 9.70422 -4.33015
v 1.88312 8.22770 -4.04832
v 2.40210 8.32067 -2.19369
v 3.14474 9.79720 -2.47552
v 2.44511 5.90363 -2.38723
v 2.25998 5.02259 -1.15041
v 2.29174 6.45297 -0.12673
v 2.47688 7.33401 -1.36354
v 2.68422 8.00562 -0.48774
v 2.68910 6.29594 -0.61312
v 3.26843 6.43541 -2.49233
v 3.26355 8.14509 -2.36695
v 3.19215 6.31770 -0.71493
v 4.36750 7.50213 -1.26777
v 3.06105 8.98951 -0.85869
v 1.88570 7.80508 -0.30586
v 0.83254 6.22703 -4.28491
v -0.32073 5.22582 -3.88581
v -0.03141 5.59187 -2.13150
v 1.12185 6.59308 -2.53060
v 0.12364 8.22456 -5.39205
v -1.17848 7.36674 -5.02694
v -0.18008 6.34651 -3.86328
v 1.12204 7.20432 -4.22840
v 0.44287 8.10406 -5.80491
v 0.96535 6.70451 -5.33024
v 0.60593 7.15006 -3.62093
v 0.08345 8.54961 -4.09560
v 1.06136 8.35615 -3.20616
v 1.98476 9.23868 -1.85301
v 2.06204 7.42371 -0.72202
v 1.13864 6.54118 -2.07517
v 2.70619 10.02501 -2.21397
v 1.41507 10.09088 -1.38989
v 1.83707 8.56853 -0.60706
v 3.12818 8.50267 -1.43114
v 1.88595 9.36233 -0.84964
v 0.69559 9.77589 -1.87210
v 1.75805 11.15081 -2.55291
v 2.94841 10.73725 -1.53044
v -1.48553 10.14569 0.39225
v -1.72260 8.67582 -0.69933
v -1.21904 7.39441 0.91680
v -0.98196 8.86428 2.00838
v -0.67949 10.21032 0.65914
v -1.95192 9.54198 1.22999
v -2.38414 11.06189 2.04607
v -1.11171 11.73024 1.47522
v -2.43037 12.67033 1.83821
v -0.91538 12.15026 2.57208
v -0.84190 10.57285 1.30255
v -2.35689 11.09292 0.56868
v -3.04011 10.69511 0.93253
v -1.52471 11.70452 0.86341
v -2.28113 12.94359 2.37451
v -3.79653 11.93418 2.44363
v -2.88207 9.95903 0.95721
v -1.39981 9.54974 1.02668
v -1.38785 9.29573 -0.72516
v -2.87011 9.70503 -0.79462
v -2.54767 11.58191 -1.56521
v -3.10343 10.48565 -0.93524
v -2.76299 11.12528 0.47815
v -2.20724 12.22154 -0.15182
v -4.18738 11.65143 -2.01512
v -3.90960 10.78282 -0.66284
v -2.66123 12.06324 -0.09683
v -2.93901 12.93185 -1.44911
v -1.98226 11.67703 2.68682
v -3.23503 11.27849 2.24882
v -2.88067 9.76747 2.61019
v -1.62790 10.16601 3.04819
v -3.09564 9.26438 2.92757
v -1.38071 9.67081 3.60954
v -2.08181 11.64192 4.19790
v -3.79675 11.23550 3.51593
v -2.36170 12.02102 4.90843
v -0.88055 11.62259 4.28626
v -1.63663 10.07392 3.47809
v -3.11778 10.47235 4.10026
v -0.42020 12.21394 0.54751
v -0.49985 10.77268 0.93396
v -2.04644 11.04523 1.63168
v -1.96679 12.48649 1.24523
v -0.70074 13.62755 1.08572
v 0.28159 13.05696 2.41810
v 0.72375 11.39026 1.37834
v -0.25858 11.96086 0.04596
v -0.78009 13.80989 -0.13310
v -2.10633 13.72322 1.12703
v -0.66617 13.34539 2.61675
v 0.66006 13.43205 1.35663
v 3.49005 9.22250 -0.13853
v 2.90279 10.50895 0.78167
v 1.13433 10.23901 0.03044
v 1.72159 8.95256 -0.88976
v 3.00379 11.46128 0.91546
v 3.72465 11.45119 -0.18549
v 2.79487 10.41840 -0.78482
v 2.07401 10.42848 0.31613
vt 0.00000 1.00000
vt 0.16667 1.00000
vt 0.16667 0.25974
vt 0.00000 0.25974
vt 0.33333 1.00000
vt 0.33333 0.25974
vt 0.50000 1.00000
vt 0.50000 0.25974
vt 0.66667 1.00000
vt 0.66667 0.25974
vt 0.83333 1.00000
vt 0.83333 0.25974
vt 1.00000 1.00000
vt 1.00000 0.25974
vt 0.16667 -0.48051
vt 0.00000 -0.48051
vt 0.33333 -0.48051
vt 0.50000 -0.48051
vt 0.66667 -0.48051
vt 0.83333 -0.48051
vt 1.00000 -0.48051
vt 0.16667 -1.22077
vt 0.00000 -1.22077
vt 0.33333 -1.22077
vt 0.50000 -1.22077
vt 0.66667 -1.22077
vt 0.83333 -1.22077
vt 1.00000 -1.22077
vt 0.16667 -1.96102
vt 0.00000 -1.96102
vt 0.33333 -1.96102
vt 0.50000 -1.96102
vt 0.66667 -1.96102
vt 0.83333 -1.96102
vt 1.00000 -1.96102
vt 0.16667 -2.70128
vt 0.00000 -2.70128
vt 0.33333 -2.70128
vt 0.50000 -2.70128
vt 0.66667 -2.70128
vt 0.83333 -2.70128
vt 1.00000 -2.70128
vt 0.08333 -3.21946
vt 0.25000 -3.21946
vt 0.41667 -3.21946
vt 0.58333 -3.21946
vt 0.75000 -3.21946
vt 0.91667 -3.21946
vt 0.20000 1.00000
vt 0.20000 0.05363
vt 0.00000 0.05363
vt 0.40000 1.00000
vt 0.40000 0.05363
vt 0.60000 1.00000
vt 0.60000 0.05363
vt 0.80000 1.00000
vt 0.80000 0.05363
vt 1.00000 0.05363
vt 0.20000 -0.89275
vt 0.00000 -0.89275
vt 0.40000 -0.89275
vt 0.60000 -0.89275
vt 0.80000 -0.89275
vt 1.00000 -0.89275
vt 0.20000 -1.83912
vt 0.00000 -1.83912
vt 0.40000 -1.83912
vt 0.60000 -1.83912
vt 0.80000 -1.83912
vt 1.00000 -1.83912
vt 0.20000 -2.78549
vt 0.00000 -2.78549
vt 0.40000 -2.78549
vt 0.60000 -2.78549
vt 0.80000 -2.78549
vt 1.00000 -2.78549
vt 0.10000 -3.44795
vt 0.30000 -3.44795
vt 0.50000 -3.44795
vt 0.70000 -3.44795
vt 0.90000 -3.44795
vt 0.33333 -0.84588
vt 0.00000 -0.84588
vt 0.66667 -0.84588
vt 1.00000 -0.84588
vt 0.33333 -2.69176
vt 0.00000 -2.69176
vt 0.66667 -2.69176
vt 1.00000 -2.69176
vt 0.16667 -3.98388
vt 0.50000 -3.98388
vt 0.83333 -3.98388
vt 0.33333 -1.26701
vt 0.00000 -1.26701
vt 0.66667 -1.26701
vt 1.00000 -1.26701
vt 0.33333 -3.53403
vt 0.00000 -3.53403
vt 0.66667 -3.53403
vt 1.00000 -3.53403
vt 0.16667 -5.12094
vt 0.50000 -5.12094
vt 0.83333 -5.12094
vt 0.33333 -1.43406
vt 0.00000 -1.43406
vt 0.66667 -1.43406
vt 1.00000 -1.43406
vt 0.33333 -3.86811
vt 0.00000 -3.86811
vt 0.66667 -3.86811
vt 1.00000 -3.86811
vt 0.16667 -5.57195
vt 0.50000 -5.57195
vt 0.83333 -5.57195
vt 0.20000 -0.20661
vt 0.00000 -0.20661
vt 0.40000 -0.20661
vt 0.60000 -0.20661
vt 0.80000 -0.20661
vt 1.00000 -0.20661
vt 0.20000 -1.41321
vt 0.00000 -1.41321
vt 0.40000 -1.41321
vt 0.60000 -1.41321
vt 0.80000 -1.41321
vt 1.00000 -1.41321
vt 0.20000 -2.61982
vt 0.00000 -2.61982
vt 0.40000 -2.61982
vt 0.60000 -2.61982
vt 0.80000 -2.61982
vt 1.00000 -2.61982
vt 0.20000 -3.82642
vt 0.00000 -3.82642
vt 0.40000 -3.82642
vt 0.60000 -3.82642
vt 0.80000 -3.82642
vt 1.00000 -3.82642
vt 0.10000 -4.67105
vt 0.30000 -4.67105
vt 0.50000 -4.67105
vt 0.70000 -4.67105
vt 0.90000 -4.67105
vt 0.33333 -2.27136
vt 0.00000 -2.27136
vt 0.66667 -2.27136
vt 1.00000 -2.27136
vt 0.33333 -5.54272
vt 0.00000 -5.54272
vt 0.66667 -5.54272
vt 1.00000 -5.54272
vt 0.16667 -7.83267
vt 0.50000 -7.83267
vt 0.83333 -7.83267
vt 0.33333 -1.89191
vt 0.00000 -1.89191
vt 0.66667 -1.89191
vt 1.00000 -1.89191
vt 0.33333 -4.78382
vt 0.00000 -4.78382
vt 0.66667 -4.78382
vt 1.00000 -4.78382
vt 0.16667 -6.80815
vt 0.50000 -6.80815
vt 0.83333 -6.80815
vt 0.33333 -1.92745
vt 0.00000 -1.92745
vt 0.66667 -1.92745
vt 1.00000 -1.92745
vt 0.33333 -4.85490
vt 0.00000 -4.85490
vt 0.66667 -4.85490
vt 1.00000 -4.85490
vt 0.16667 -6.90411
vt 0.50000 -6.90411
vt 0.83333 -6.90411
vt 0.20000 -0.22364
vt 0.00000 -0.22364
vt 0.40000 -0.22364
vt 0.60000 -0.22364
vt 0.80000 -0.22364
vt 1.00000 -0.22364
vt 0.20000 -1.44728
vt 0.00000 -1.44728
vt 0.40000 -1.44728
vt 0.60000 -1.44728
vt 0.80000 -1.44728
vt 1.00000 -1.44728
vt 0.20000 -2.67092
vt 0.00000 -2.67092
vt 0.40000 -2.67092
vt 0.60000 -2.67092
vt 0.80000 -2.67092
vt 1.00000 -2.67092
vt 0.20000 -3.89456
vt 0.00000 -3.89456
vt 0.40000 -3.89456
vt 0.60000 -3.89456
vt 0.80000 -3.89456
vt 1.00000 -3.89456
vt 0.10000 -4.75111
vt 0.30000 -4.75111
vt 0.50000 -4.75111
vt 0.70000 -4.75111
vt 0.90000 -4.75111
vt 0.33333 -1.83465
vt 0.00000 -1.83465
vt 0.66667 -1.83465
vt 1.00000 -1.83465
vt 0.33333 -4.66931
vt 0.00000 -4.66931
vt 0.66667 -4.66931
vt 1.00000 -4.66931
vt 0.16667 -6.65357
vt 0.50000 -6.65357
vt 0.83333 -6.65357
vt 0.33333 -2.43813
vt 0.00000 -2.43813
vt 0.66667 -2.43813
vt 1.00000 -2.43813
vt 0.33333 -5.87626
vt 0.00000 -5.87626
vt 0.66667 -5.87626
vt 1.00000 -5.87626
vt 0.16667 -8.28295
vt 0.50000 -8.28295
vt 0.83333 -8.28295
vt 0.33333 -1.91292
vt 0.00000 -1.91292
vt 0.66667 -1.91292
vt 1.00000 -1.91292
vt 0.33333 -4.82585
vt 0.00000 -4.82585
vt 0.66667 -4.82585
vt 1.00000 -4.82585
vt 0.16667 -6.86490
vt 0.50000 -6.86490
vt 0.83333 -6.86490
vt 0.00000 0.00000
vt 1.00000 0.00000
usemtl bark
f 1/1 2/2 3/3
f 1/1 3/3 4/4
f 2/2 5/5 6/6
f 2/2 6/6 3/3
f 5/5 7/7 8/8
f 5/5 8/8 6/6
f 7/7 9/9 10/10
f 7/7 10/10 8/8
f 9/9 11/11 12/12
f 9/9 12/12 10/10
f 11/11 13/13 14/14
f 11/11 14/14 12/12
f 4/4 3/3 15/15
f 4/4 15/15 16/16
f 3/3 6/6 17/17
f 3/3 17/17 15/15
f 6/6 8/8 18/18
f 6/6 18/18 17/17
f 8/8 10/10 19/19
f 8/8 19/19 18/18
f 10/10 12/12 20/20
f 10/10 20/20 19/19
f 12/12 14/14 21/21
f 12/12 21/21 20/20
f 16/16 15/15 22/22
f 16/16 22/22 23/23
f 15/15 17/17 24/24
f 15/15 24/24 22/22
f 17/17 18/18 25/25
f 17/17 25/25 24/24
f 18/18 19/19 26/26
f 18/18 26/26 25/25
f 19/19 20/20 27/27
f 19/19 27/27 26/26
f 20/20 21/21 28/28
f 20/20 28/28 27/27
f 23/23 22/22 29/29
f 23/23 29/29 30/30
f 22/22 24/24 31/31
f 22/22 31/31 29/29
f 24/24 25/25 32/32
f 24/24 32/32 31/31
f 25/25 26/26 33/33
f 25/25 33/33 32/32
f 26/26 27/27 34/34
f 26/26 34/34 33/33
f 27/27 28/28 35/35
f 27/27 35/35 34/34
f 30/30 29/29 36/36
f 30/30 36/36 37/37
f 29/29 31/31 38/38
f 29/29 38/38 36/36
f 31/31 32/32 39/39
f 31/31 39/39 38/38
f 32/32 33/33 40/40
f 32/32 40/40 39/39
f 33/33 34/34 41/41
f 33/33 41/41 40/40
f 34/34 35/35 42/42
f 34/34 42/42 41/41
f 37/37 36/36 43/43
f 36/36 38/38 43/44
f 38/38 39/39 43/45
f 39/39 40/40 43/46
f 40/40 41/41 43/47
f 41/41 42/42 43/48
f 44/1 45/49 46/50
f 44/1 46/50 47/51
f 45/49 48/52 49/53
f 45/49 49/53 46/50
f 48/52 50/54 51/55
f 48/52 51/55 49/53
f 50/54 52/56 53/57
f 50/54 53/57 51/55
f 52/56 54/13 47/58
f 52/56 47/58 53/57
f 47/51 46/50 55/59
f 47/51 55/59 56/60
f 46/50 49/53 57/61
f 46/50 57/61 55/59
f 49/53 51/55 58/62
f 49/53 58/62 57/61
f 51/55 53/57 59/63
f 51/55 59/63 58/62
f 53/57 47/58 60/64
f 53/57 60/64 59/63
f 56/60 55/59 61/65
f 56/60 61/65 62/66
f 55/59 57/61 63/67
f 55/59 63/67 61/65
f 57/61 58/62 64/68
f 57/61 64/68 63/67
f 58/62 59/63 65/69
f 58/62 65/69 64/68
f 59/63 60/64 66/70
f 59/63 66/70 65/69
f 62/66 61/65 67/71
f 62/66 67/71 68/72
f 61/65 63/67 69/73
f 61/65 69/73 67/71
f 63/67 64/68 70/74
f 63/67 70/74 69/73
f 64/68 65/69 71/75
f 64/68 71/75 70/74
f 65/69 66/70 68/76
f 65/69 68/76 71/75
f 68/72 67/71 72/77
f 67/71 69/73 72/78
f 69/73 70/74 72/79
f 70/74 71/75 72/80
f 71/75 68/76 72/81
f 73/1 74/5 75/82
f 73/1 75/82 76/83
f 74/5 77/9 78/84
f 74/5 78/84 75/82
f 77/9 73/13 79/85
f 77/9 79/85 78/84
f 76/83 75/82 80/86
f 76/83 80/86 81/87
f 75/82 78/84 82/88
f 75/82 82/88 80/86
f 78/84 79/85 81/89
f 78/84 81/89 82/88
f 81/87 80/86 83/90
f 80/86 82/88 83/91
f 82/88 81/89 83/92
f 84/1 85/5 86/93
f 84/1 86/93 87/94
f 85/5 88/9 89/95
f 85/5 89/95 86/93
f 88/9 84/13 87/96
f 88/9 87/96 89/95
f 87/94 86/93 90/97
f 87/94 90/97 91/98
f 86/93 89/95 92/99
f 86/93 92/99 90/97
f 89/95 87/96 91/100
f 89/95 91/100 92/99
f 91/98 90/97 93/101
f 90/97 92/99 93/102
f 92/99 91/100 93/103
f 94/1 95/5 96/104
f 94/1 96/104 97/105
f 95/5 98/9 99/106
f 95/5 99/106 96/104
f 98/9 94/13 97/107
f 98/9 97/107 99/106
f 97/105 96/104 100/108
f 97/105 100/108 101/109
f 96/104 99/106 102/110
f 96/104 102/110 100/108
f 99/106 97/107 101/111
f 99/106 101/111 102/110
f 101/109 100/108 103/112
f 100/108 102/110 103/113
f 102/110 101/111 103/114
f 104/1 105/49 106/115
f 104/1 106/115 107/116
f 105/49 108/52 109/117
f 105/49 109/117 106/115
f 108/52 110/54 111/118
f 108/52 111/118 109/117
f 110/54 112/56 113/119
f 110/54 113/119 111/118
f 112/56 114/13 115/120
f 112/56 115/120 113/119
f 107/116 106/115 116/121
f 107/116 116/121 117/122
f 106/115 109/117 118/123
f 106/115 118/123 116/121
f 109/117 111/118 119/124
f 109/117 119/124 118/123
f 111/118 113/119 120/125
f 111/118 120/125 119/124
f 113/119 115/120 121/126
f 113/119 121/126 120/125
f 117/122 116/121 122/127
f 117/122 122/127 123/128
f 116/121 118/123 124/129
f 116/121 124/129 122/127
f 118/123 119/124 125/130
f 118/123 125/130 124/129
f 119/124 120/125 126/131
f 119/124 126/131 125/130
f 120/125 121/126 123/132
f 120/125 123/132 126/131
f 123/128 122/127 127/133
f 123/128 127/133 128/134
f 122/127 124/129 129/135
f 122/127 129/135 127/133
f 124/129 125/130 130/136
f 124/129 130/136 129/135
f 125/130 126/131 131/137
f 125/130 131/137 130/136
f 126/131 123/132 128/138
f 126/131 128/138 131/137
f 128/134 127/133 132/139
f 127/133 129/135 132/140
f 129/135 130/136 132/141
f 130/136 131/137 132/142
f 131/137 128/138 132/143
f 133/1 134/5 135/144
f 133/1 135/144 136/145
f 134/5 137/9 138/146
f 134/5 138/146 135/144
f 137/9 133/13 136/147
f 137/9 136/147 138/146
f 136/145 135/144 139/148
f 136/145 139/148 140/149
f 135/144 138/146 141/150
f 135/144 141/150 139/148
f 138/146 136/147 140/151
f 138/146 140/151 141/150
f 140/149 139/148 142/152
f 139/148 141/150 142/153
f 141/150 140/151 142/154
f 143/1 144/5 145/155
f 143/1 145/155 146/156
f 144/5 147/9 148/157
f 144/5 148/157 145/155
f 147/9 143/13 146/158
f 147/9 146/158 148/157
f 146/156 145/155 149/159
f 146/156 149/159 150/160
f 145/155 148/157 151/161
f 145/155 151/161 149/159
f 148/157 146/158 150/162
f 148/157 150/162 151/161
f 150/160 149/159 152/163
f 149/159 151/161 152/164
f 151/161 150/162 152/165
f 153/1 154/5 155/166
f 153/1 155/166 156/167
f 154/5 157/9 158/168
f 154/5 158/168 155/166
f 157/9 153/13 156/169
f 157/9 156/169 158/168
f 156/167 155/166 159/170
f 156/167 159/170 160/171
f 155/166 158/168 161/172
f 155/166 161/172 159/170
f 158/168 156/169 160/173
f 158/168 160/173 161/172
f 160/171 159/170 162/174
f 159/170 161/172 162/175
f 161/172 160/173 162/176
f 163/1 164/49 165/177
f 163/1 165/177 166/178
f 164/49 167/52 168/179
f 164/49 168/179 165/177
f 167/52 169/54 170/180
f 167/52 170/180 168/179
f 169/54 171/56 172/181
f 169/54 172/181 170/180
f 171/56 173/13 166/182
f 171/56 166/182 172/181
f 166/178 165/177 174/183
f 166/178 174/183 175/184
f 165/177 168/179 176/185
f 165/177 176/185 174/183
f 168/179 170/180 177/186
f 168/179 177/186 176/185
f 170/180 172/181 178/187
f 170/180 178/187 177/186
f 172/181 166/182 175/188
f 172/181 175/188 178/187
f 175/184 174/183 179/189
f 175/184 179/189 180/190
f 174/183 176/185 181/191
f 174/183 181/191 179/189
f 176/185 177/186 182/192
f 176/185 182/192 181/191
f 177/186 178/187 183/193
f 177/186 183/193 182/192
f 178/187 175/188 184/194
f 178/187 184/194 183/193
f 180/190 179/189 185/195
f 180/190 185/195 186/196
f 179/189 181/191 187/197
f 179/189 187/197 185/195
f 181/191 182/192 188/198
f 181/191 188/198 187/197
f 182/192 183/193 189/199
f 182/192 189/199 188/198
f 183/193 184/194 186/200
f 183/193 186/200 189/199
f 186/196 185/195 190/201
f 185/195 187/197 190/202
f 187/197 188/198 190/203
f 188/198 189/199 190/204
f 189/199 186/200 190/205
f 191/1 192/5 193/206
f 191/1 193/206 194/207
f 192/5 195/9 196/208
f 192/5 196/208 193/206
f 195/9 197/13 194/209
f 195/9 194/209 196/208
f 194/207 193/206 198/210
f 194/207 198/210 199/211
f 193/206 196/208 200/212
f 193/206 200/212 198/210
f 196/208 194/209 199/213
f 196/208 199/213 200/212
f 199/211 198/210 201/214
f 198/210 200/212 201/215
f 200/212 199/213 201/216
f 202/1 203/5 204/217
f 202/1 204/217 205/218
f 203/5 206/9 207/219
f 203/5 207/219 204/217
f 206/9 202/13 205/220
f 206/9 205/220 207/219
f 205/218 204/217 208/221
f 205/218 208/221 209/222
f 204/217 207/219 210/223
f 204/217 210/223 208/221
f 207/219 205/220 209/224
f 207/219 209/224 210/223
f 209/222 208/221 211/225
f 208/221 210/223 211/226
f 210/223 209/224 211/227
f 212/1 213/5 214/228
f 212/1 214/228 215/229
f 213/5 216/9 217/230
f 213/5 217/230 214/228
f 216/9 212/13 218/231
f 216/9 218/231 217/230
f 215/229 214/228 219/232
f 215/229 219/232 220/233
f 214/228 217/230 221/234
f 214/228 221/234 219/232
f 217/230 218/231 220/235
f 217/230 220/235 221/234
f 220/233 219/232 222/236
f 219/232 221/234 222/237
f 221/234 220/235 222/238
usemtl leaf
f 223/239 224/240 225/13
f 223/239 225/13 226/1
f 227/239 228/240 229/13
f 227/239 229/13 230/1
f 231/239 232/240 233/13
f 231/239 233/13 234/1
f 235/239 236/240 237/13
f 235/239 237/13 238/1
f 239/239 240/240 241/13
f 239/239 241/13 242/1
f 243/239 244/240 245/13
f 243/239 245/13 246/1
f 247/239 248/240 249/13
f 247/239 249/13 250/1
f 251/239 252/240 253/13
f 251/239 253/13 254/1
f 255/239 256/240 257/13
f 255/239 257/13 258/1
f 259/239 260/240 261/13
f 259/239 261/13 262/1
f 263/239 264/240 265/13
f 263/239 265/13 266/1
f 267/239 268/240 269/13
f 267/239 269/13 270/1
f 271/239 272/240 273/13
f 271/239 273/13 274/1
f 275/239 276/240 277/13
f 275/239 277/13 278/1
f 279/239 280/240 281/13
f 279/239 281/13 282/1
f 283/239 284/240 285/13
f 283/239 285/13 286/1
f 287/239 288/240 289/13
f 287/239 289/13 290/1
f 291/239 292/240 293/13
f 291/239 293/13 294/1
f 295/239 296/240 297/13
f 295/239 297/13 298/1
f 299/239 300/240 301/13
f 299/239 301/13 302/1
f 303/239 304/240 305/13
f 303/239 305/13 306/1
f 307/239 308/240 309/13
f 307/239 309/13 310/1
f 311/239 312/240 313/13
f 311/239 313/13 314/1
f 315/239 316/240 317/13
f 315/239 317/13 318/1
f 319/239 320/240 321/13
f 319/239 321/13 322/1
f 323/239 324/240 325/13
f 323/239 325/13 326/1
f 327/239 328/240 329/13
f 327/239 329/13 330/1
f 331/239 332/240 333/13
f 331/239 333/13 334/1
f 335/239 336/240 337/13
f 335/239 337/13 338/1
f 339/239 340/240 341/13
f 339/239 341/13 342/1
f 343/239 344/240 345/13
f 343/239 345/13 346/1
f 347/239 348/240 349/13
f 347/239 349/13 350/1
f 351/239 352/240 353/13
f 351/239 353/13 354/1
f 355/239 356/240 357/13
f 355/239 357/13 358/1
f 359/239 360/240 361/13
f 359/239 361/13 362/1
f 363/239 364/240 365/13
f 363/239 365/13 366/1
f 367/239 368/240 369/13
f 367/239 369/13 370/1
f 371/239 372/240 373/13
f 371/239 373/13 374/1
f 375/239 376/240 377/13
f 375/239 377/13 378/1
f 379/239 380/240 381/13
f 379/239 381/13 382/1
f 383/239 384/240 385/13
f 383/239 385/13 386/1
f 387/239 388/240 389/13
f 387/239 389/13 390/1
f 391/239 392/240 393/13
f 391/239 393/13 394/1
f 395/239 396/240 397/13
f 395/239 397/13 398/1
f 399/239 400/240 401/13
f 399/239 401/13 402/1
f 403/239 404/240 405/13
f 403/239 405/13 406/1
f 407/239 408/240 409/13
f 407/239 409/13 410/1
f 411/239 412/240 413/13
f 411/239 413/13 414/1
f 415/239 416/240 417/13
f 415/239 417/13 418/1
f 419/239 420/240 421/13
f 419/239 421/13 422/1
f 423/239 424/240 425/13
f 423/239 425/13 426/1
f 427/239 428/240 429/13
f 427/239 429/13 430/1
f 431/239 432/240 433/13
f 431/239 433/13 434/1
f 435/239 436/240 437/13
f 435/239 437/13 438/1
f 439/239 440/240 441/13
f 439/239 441/13 442/1
f 443/239 444/240 445/13
f 443/239 445/13 446/1
f 447/239 448/240 449/13
f 447/239 449/13 450/1
f 451/239 452/240 453/13
f 451/239 453/13 454/1
f 455/239 456/240 457/13
f 455/239 457/13 458/1
f 459/239 460/240 461/13
f 459/239 461/13 462/1
f 463/239 464/240 465/13
f 463/239 465/13 466/1
f 467/239 468/240 469/13
f 467/239 469/13 470/1
f 471/239 472/240 473/13
f 471/239 473/13 474/1
f 475/239 476/240 477/13
f 475/239 477/13 478/1
f 479/239 480/240 481/13
f 479/239 481/13 482/1
f 483/239 484/240 485/13
f 483/239 485/13 486/1
f 487/239 488/240 489/13
f 487/239 489/13 490/1
f 491/239 492/240 493/13
f 491/239 493/13 494/1
f 495/239 496/240 497/13
f 495/239 497/13 498/1
f 499/239 500/240 501/13
f 499/239 501/13 502/1
f 503/239 504/240 505/13
f 503/239 505/13 506/1
f 507/239 508/240 509/13
f 507/239 509/13 510/1
f 511/239 512/240 513/13
f 511/239 513/13 514/1
f 515/239 516/240 517/13
f 515/239 517/13 518/1
f 519/239 520/240 521/13
f 519/239 521/13 522/1
f 523/239 524/240 525/13
f 523/239 525/13 526/1
f 527/239 528/240 529/13
f 527/239 529/13 530/1
f 531/239 532/240 533/13
f 531/239 533/13 534/1
f 535/239 536/240 537/13
f 535/239 537/13 538/1
f 539/239 540/240 541/13
f 539/239 541/13 542/1
f 543/239 544/240 545/13
f 543/239 545/13 546/1
f 547/239 548/240 549/13
f 547/239 549/13 550/1
f 551/239 552/240 553/13
f 551/239 553/13 554/1
f 555/239 556/240 557/13
f 555/239 557/13 558/1
f 559/239 560/240 561/13
f 559/239 561/13 562/1
f 563/239 564/240 565/13
f 563/239 565/13 566/1
f 567/239 568/240 569/13
f 567/239 569/13 570/1
f 571/239 572/240 573/13
f 571/239 573/13 574/1
f 575/239 576/240 577/13
f 575/239 577/13 578/1
f 579/239 580/240 581/13
f 579/239 581/13 582/1
f 583/239 584/240 585/13
f 583/239 585/13 586/1
f 587/239 588/240 589/13
f 587/239 589/13 590/1
f 591/239 592/240 593/13
f 591/239 593/13 594/1
f 595/239 596/240 597/13
f 595/239 597/13 598/1
f 599/239 600/240 601/13
f 599/239 601/13 602/1
f 603/239 604/240 605/13
f 603/239 605/13 606/1
f 607/239 608/240 609/13
f 607/239 609/13 610/1
f 611/239 612/240 613/13
f 611/239 613/13 614/1
f 615/239 616/240 617/13
f 615/239 617/13 618/1
f 619/239 620/240 621/13
f 619/239 621/13 622/1
f 623/239 624/240 625/13
f 623/239 625/13 626/1
f 627/239 628/240 629/13
f 627/239 629/13 630/1
f 631/239 632/240 633/13
f 631/239 633/13 634/1
f 635/239 636/240 637/13
f 635/239 637/13 638/1
f 639/239 640/240 641/13
f 639/239 641/13 642/1
f 643/239 644/240 645/13
f 643/239 645/13 646/1
f 647/239 648/240 649/13
f 647/239 649/13 650/1
f 651/239 652/240 653/13
f 651/239 653/13 654/1
f 655/239 656/240 657/13
f 655/239 657/13 658/1
f 659/239 660/240 661/13
f 659/239 661/13 662/1
f 663/239 664/240 665/13
f 663/239 665/13 666/1
f 667/239 668/240 669/13
f 667/239 669/13 670/1
f 671/239 672/240 673/13
f 671/239 673/13 674/1
f 675/239 676/240 677/13
f 675/239 677/13 678/1
f 679/239 680/240 681/13
f 679/239 681/13 682/1
f 683/239 684/240 685/13
f 683/239 685/13 686/1
f 687/239 688/240 689/13
f 687/239 689/13 690/1
f 691/239 692/240 693/13
f 691/239 693/13 694/1
f 695/239 696/240 697/13
f 695/239 697/13 698/1
f 699/239 700/240 701/13
f 699/239 701/13 702/1
f 703/239 704/240 705/13
f 703/239 705/13 706/1
f 707/239 708/240 709/13
f 707/239 709/13 710/1
f 711/239 712/240 713/13
f 711/239 713/13 714/1
f 715/239 716/240 717/13
f 715/239 717/13 718/1
f 719/239 720/240 721/13
f 719/239 721/13 722/1
f 723/239 724/240 725/13
f 723/239 725/13 726/1
f 727/239 728/240 729/13
f 727/239 729/13 730/1
f 731/239 732/240 733/13
f 731/239 733/13 734/1
f 735/239 736/240 737/13
f 735/239 737/13 738/1
f 739/239 740/240 741/13
f 739/239 741/13 742/1
f 743/239 744/240 745/13
f 743/239 745/13 746/1
f 747/239 748/240 749/13
f 747/239 749/13 750/1
f 751/239 752/240 753/13
f 751/239 753/13 754/1
f 755/239 756/240 757/13
f 755/239 757/13 758/1
f 759/239 760/240 761/13
f 759/239 761/13 762/1
f 763/239 764/240 765/13
f 763/239 765/13 766/1
f 767/239 768/240 769/13
f 767/239 769/13 770/1
f 771/239 772/240 773/13
f 771/239 773/13 774/1
f 775/239 776/240 777/13
f 775/239 777/13 778/1
f 779/239 780/240 781/13
f 779/239 781/13 782/1
f 783/239 784/240 785/13
f 783/239 785/13 786/1
f 787/239 788/240 789/13
f 787/239 789/13 790/1
f 791/239 792/240 793/13
f 791/239 793/13 794/1
f 795/239 796/240 797/13
f 795/239 797/13 798/1
f 799/239 800/240 801/13
f 799/239 801/13 802/1
f 803/239 804/240 805/13
f 803/239 805/13 806/1
f 807/239 808/240 809/13
f 807/239 809/13 810/1
f 811/239 812/240 813/13
f 811/239 813/13 814/1
f 815/239 816/240 817/13
f 815/239 817/13 818/1
f 819/239 820/240 821/13
f 819/239 821/13 822/1
f 823/239 824/240 825/13
f 823/239 825/13 826/1
f 827/239 828/240 829/13
f 827/239 829/13 830/1
f 831/239 832/240 833/13
f 831/239 833/13 834/1
f 835/239 836/240 837/13
f 835/239 837/13 838/1
f 839/239 840/240 841/13
f 839/239 841/13 842/1
f 843/239 844/240 845/13
f 843/239 845/13 846/1
f 847/239 848/240 849/13
f 847/239 849/13 850/1
f 851/239 852/240 853/13
f 851/239 853/13 854/1
f 855/239 856/240 857/13
f 855/239 857/13 858/1
f 859/239 860/240 861/13
f 859/239 861/13 862/1
f 863/239 864/240 865/13
f 863/239 865/13 866/1
f 867/239 868/240 869/13
f 867/239 869/13 870/1
f 871/239 872/240 873/13
f 871/239 873/13 874/1
f 875/239 876/240 877/13
f 875/239 877/13 878/1
f 879/239 880/240 881/13
f 879/239 881/13 882/1
f 883/239 884/240 885/13
f 883/239 885/13 886/1
f 887/239 888/240 889/13
f 887/239 889/13 890/1
f 891/239 892/240 893/13
f 891/239 893/13 894/1
f 895/239 896/240 897/13
f 895/239 897/13 898/1
f 899/239 900/240 901/13
f 899/239 901/13 902/1
f 903/239 904/240 905/13
f 903/239 905/13 906/1
f 907/239 908/240 909/13
f 907/239 909/13 910/1
f 911/239 912/240 913/13
f 911/239 913/13 914/1
f 915/239 916/240 917/13
f 915/239 917/13 918/1
f 919/239 920/240 921/13
f 919/239 921/13 922/1
f 923/239 924/240 925/13
f 923/239 925/13 926/1
f 927/239 928/240 929/13
f 927/239 929/13 930/1
f 931/239 932/240 933/13
f 931/239 933/13 934/1
f 935/239 936/240 937/13
f 935/239 937/13 938/1
f 939/239 940/240 941/13
f 939/239 941/13 942/1
f 943/239 944/240 945/13
f 943/239 945/13 946/1
f 947/239 948/240 949/13
f 947/239 949/13 950/1
f 951/239 952/240 953/13
f 951/239 953/13 954/1
f 955/239 956/240 957/13
f 955/239 957/13 958/1
f 959/239 960/240 961/13
f 959/239 961/13 962/1
f 963/239 964/240 965/13
f 963/239 965/13 966/1
f 967/239 968/240 969/13
f 967/239 969/13 970/1
f 971/239 972/240 973/13
f 971/239 973/13 974/1
f 975/239 976/240 977/13
f 975/239 977/13 978/1
f 979/239 980/240 981/13
f 979/239 981/13 982/1
f 983/239 984/240 985/13
f 983/239 985/13 986/1
f 987/239 988/240 989/13
f 987/239 989/13 990/1
f 991/239 992/240 993/13
f 991/239 993/13 994/1
f 995/239 996/240 997/13
f 995/239 997/13 998/1
f 999/239 1000/240 1001/13
f 999/239 1001/13 1002/1
f 1003/239 1004/240 1005/13
f 1003/239 1005/13 1006/1
f 1007/239 1008/240 1009/13
f 1007/239 1009/13 1010/1
f 1011/239 1012/240 1013/13
f 1011/239 1013/13 1014/1
f 1015/239 1016/240 1017/13
f 1015/239 1017/13 1018/1
f 1019/239 1020/240 1021/13
f 1019/239 1021/13 1022/1
f 1023/239 1024/240 1025/13
f 1023/239 1025/13 1026/1
f 1027/239 1028/240 1029/13
f 1027/239 1029/13 1030/1
f 1031/239 1032/240 1033/13
f 1031/239 1033/13 1034/1
f 1035/239 1036/240 1037/13
f 1035/239 1037/13 1038/1
f 1039/239 1040/240 1041/13
f 1039/239 1041/13 1042/1
f 1043/239 1044/240 1045/13
f 1043/239 1045/13 1046/1
f 1047/239 1048/240 1049/13
f 1047/239 1049/13 1050/1
f 1051/239 1052/240 1053/13
f 1051/239 1053/13 1054/1
f 1055/239 1056/240 1057/13
f 1055/239 1057/13 1058/1
f 1059/239 1060/240 1061/13
f 1059/239 1061/13 1062/1
f 1063/239 1064/240 1065/13
f 1063/239 1065/13 1066/1
f 1067/239 1068/240 1069/13
f 1067/239 1069/13 1070/1
f 1071/239 1072/240 1073/13
f 1071/239 1073/13 1074/1
f 1075/239 1076/240 1077/13
f 1075/239 1077/13 1078/1
f 1079/239 1080/240 1081/13
f 1079/239 1081/13 1082/1
f 1083/239 1084/240 1085/13
f 1083/239 1085/13 1086/1
f 1087/239 1088/240 1089/13
f 1087/239 1089/13 1090/1
f 1091/239 1092/240 1093/13
f 1091/239 1093/13 1094/1
f 1095/239 1096/240 1097/13
f 1095/239 1097/13 1098/1
f 1099/239 1100/240 1101/13
f 1099/239 1101/13 1102/1
f 1103/239 1104/240 1105/13
f 1103/239 1105/13 1106/1
f 1107/239 1108/240 1109/13
f 1107/239 1109/13 1110/1
f 1111/239 1112/240 1113/13
f 1111/239 1113/13 1114/1
f 1115/239 1116/240 1117/13
f 1115/239 1117/13 1118/1
f 1119/239 1120/240 1121/13
f 1119/239 1121/13 1122/1
f 1123/239 1124/240 1125/13
f 1123/239 1125/13 1126/1
f 1127/239 1128/240 1129/13
f 1127/239 1129/13 1130/1
f 1131/239 1132/240 1133/13
f 1131/239 1133/13 1134/1
f 1135/239 1136/240 1137/13
f 1135/239 1137/13 1138/1
f 1139/239 1140/240 1141/13
f 1139/239 1141/13 1142/1
f 1143/239 1144/240 1145/13
f 1143/239 1145/13 1146/1
f 1147/239 1148/240 1149/13
f 1147/239 1149/13 1150/1
f 1151/239 1152/240 1153/13
f 1151/239 1153/13 1154/1
f 1155/239 1156/240 1157/13
f 1155/239 1157/13 1158/1
f 1159/239 1160/240 1161/13
f 1159/239 1161/13 1162/1
f 1163/239 1164/240 1165/13
f 1163/239 1165/13 1166/1
f 1167/239 1168/240 1169/13
f 1167/239 1169/13 1170/1
f 1171/239 1172/240 1173/13
f 1171/239 1173/13 1174/1
f 1175/239 1176/240 1177/13
f 1175/239 1177/13 1178/1
f 1179/239 1180/240 1181/13
f 1179/239 1181/13 1182/1
f 1183/239 1184/240 1185/13
f 1183/239 1185/13 1186/1
f 1187/239 1188/240 1189/13
f 1187/239 1189/13 1190/1
f 1191/239 1192/240 1193/13
f 1191/239 1193/13 1194/1
f 1195/239 1196/240 1197/13
f 1195/239 1197/13 1198/1
f 1199/239 1200/240 1201/13
f 1199/239 1201/13 1202/1
f 1203/239 1204/240 1205/13
f 1203/239 1205/13 1206/1
f 1207/239 1208/240 1209/13
f 1207/239 1209/13 1210/1
f 1211/239 1212/240 1213/13
f 1211/239 1213/13 1214/1
f 1215/239 1216/240 1217/13
f 1215/239 1217/13 1218/1
f 1219/239 1220/240 1221/13
f 1219/239 1221/13 1222/1
f 1223/239 1224/240 1225/13
f 1223/239 1225/13 1226/1
f 1227/239 1228/240 1229/13
f 1227/239 1229/13 1230/1
f 1231/239 1232/240 1233/13
f 1231/239 1233/13 1234/1
f 1235/239 1236/240 1237/13
f 1235/239 1237/13 1238/1
f 1239/239 1240/240 1241/13
f 1239/239 1241/13 1242/1
f 1243/239 1244/240 1245/13
f 1243/239 1245/13 1246/1
f 1247/239 1248/240 1249/13
f 1247/239 1249/13 1250/1
f 1251/239 1252/240 1253/13
f 1251/239 1253/13 1254/1
f 1255/239 1256/240 1257/13
f 1255/239 1257/13 1258/1
f 1259/239 1260/240 1261/13
f 1259/239 1261/13 1262/1
f 1263/239 1264/240 1265/13
f 1263/239 1265/13 1266/1
f 1267/239 1268/240 1269/13
f 1267/239 1269/13 1270/1
f 1271/239 1272/240 1273/13
f 1271/239 1273/13 1274/1
f 1275/239 1276/240 1277/13
f 1275/239 1277/13 1278/1
f 1279/239 1280/240 1281/13
f 1279/239 1281/13 1282/1
f 1283/239 1284/240 1285/13
f 1283/239 1285/13 1286/1
f 1287/239 1288/240 1289/13
f 1287/239 1289/13 1290/1
f 1291/239 1292/240 1293/13
f 1291/239 1293/13 1294/1
f 1295/239 1296/240 1297/13
f 1295/239 1297/13 1298/1
f 1299/239 1300/240 1301/13
f 1299/239 1301/13 1302/1
f 1303/239 1304/240 1305/13
f 1303/239 1305/13 1306/1
f 1307/239 1308/240 1309/13
f 1307/239 1309/13 1310/1
f 1311/239 1312/240 1313/13
f 1311/239 1313/13 1314/1
f 1315/239 1316/240 1317/13
f 1315/239 1317/13 1318/1
f 1319/239 1320/240 1321/13
f 1319/239 1321/13 1322/1
f 1323/239 1324/240 1325/13
f 1323/239 1325/13 1326/1
f 1327/239 1328/240 1329/13
f 1327/239 1329/13 1330/1
f 1331/239 1332/240 1333/13
f 1331/239 1333/13 1334/1
f 1335/239 1336/240 1337/13
f 1335/239 1337/13 1338/1
f 1339/239 1340/240 1341/13
f 1339/239 1341/13 1342/1
f 1343/239 1344/240 1345/13
f 1343/239 1345/13 1346/1
f 1347/239 1348/240 1349/13
f 1347/239 1349/13 1350/1
f 1351/239 1352/240 1353/13
f 1351/239 1353/13 1354/1
f 1355/239 1356/240 1357/13
f 1355/239 1357/13 1358/1
f 1359/239 1360/240 1361/13
f 1359/239 1361/13 1362/1
f 1363/239 1364/240 1365/13
f 1363/239 1365/13 1366/1
f 1367/239 1368/240 1369/13
f 1367/239 1369/13 1370/1
f 1371/239 1372/240 1373/13
f 1371/239 1373/13 1374/1
f 1375/239 1376/240 1377/13
f 1375/239 1377/13 1378/1
f 1379/239 1380/240 1381/13
f 1379/239 1381/13 1382/1
f 1383/239 1384/240 1385/13
f 1383/239 1385/13 1386/1
f 1387/239 1388/240 1389/13
f 1387/239 1389/13 1390/1
f 1391/239 1392/240 1393/13
f 1391/239 1393/13 1394/1
f 1395/239 1396/240 1397/13
f 1395/239 1397/13 1398/1
f 1399/239 1400/240 1401/13
f 1399/239 1401/13 1402/1
f 1403/239 1404/240 1405/13
f 1403/239 1405/13 1406/1
f 1407/239 1408/240 1409/13
f 1407/239 1409/13 1410/1
f 1411/239 1412/240 1413/13
f 1411/239 1413/13 1414/1
f 1415/239 1416/240 1417/13
f 1415/239 1417/13 1418/1
f 1419/239 1420/240 1421/13
f 1419/239 1421/13 1422/1
f 1423/239 1424/240 1425/13
f 1423/239 1425/13 1426/1
f 1427/239 1428/240 1429/13
f 1427/239 1429/13 1430/1
f 1431/239 1432/240 1433/13
f 1431/239 1433/13 1434/1
f 1435/239 1436/240 1437/13
f 1435/239 1437/13 1438/1
f 1439/239 1440/240 1441/13
f 1439/239 1441/13 1442/1
f 1443/239 1444/240 1445/13
f 1443/239 1445/13 1446/1
f 1447/239 1448/240 1449/13
f 1447/239 1449/13 1450/1
f 1451/239 1452/240 1453/13
f 1451/239 1453/13 1454/1
f 1455/239 1456/240 1457/13
f 1455/239 1457/13 1458/1
f 1459/239 1460/240 1461/13
f 1459/239 1461/13 1462/1
f 1463/239 1464/240 1465/13
f 1463/239 1465/13 1466/1
f 1467/239 1468/240 1469/13
f 1467/239 1469/13 1470/1
f 1471/239 1472/240 1473/13
f 1471/239 1473/13 1474/1
f 1475/239 1476/240 1477/13
f 1475/239 1477/13 1478/1
f 1479/239 1480/240 1481/13
f 1479/239 1481/13 1482/1
f 1483/239 1484/240 1485/13
f 1483/239 1485/13 1486/1
f 1487/239 1488/240 1489/13
f 1487/239 1489/13 1490/1
f 1491/239 1492/240 1493/13
f 1491/239 1493/13 1494/1
f 1495/239 1496/240 1497/13
f 1495/239 1497/13 1498/1
f 1499/239 1500/240 1501/13
f 1499/239 1501/13 1502/1
f 1503/239 1504/240 1505/13
f 1503/239 1505/13 1506/1
f 1507/239 1508/240 1509/13
f 1507/239 1509/13 1510/1
f 1511/239 1512/240 1513/13
f 1511/239 1513/13 1514/1
f 1515/239 1516/240 1517/13
f 1515/239 1517/13 1518/1
f 1519/239 1520/240 1521/13
f 1519/239 1521/13 1522/1
f 1523/239 1524/240 1525/13
f 1523/239 1525/13 1526/1
f 1527/239 1528/240 1529/13
f 1527/239 1529/13 1530/1
f 1531/239 1532/240 1533/13
f 1531/239 1533/13 1534/1
f 1535/239 1536/240 1537/13
f 1535/239 1537/13 1538/1
f 1539/239 1540/240 1541/13
f 1539/239 1541/13 1542/1
f 1543/239 1544/240 1545/13
f 1543/239 1545/13 1546/1
f 1547/239 1548/240 1549/13
f 1547/239 1549/13 1550/1
f 1551/239 1552/240 1553/13
f 1551/239 1553/13 1554/1
f 1555/239 1556/240 1557/13
f 1555/239 1557/13 1558/1
f 1559/239 1560/240 1561/13
f 1559/239 1561/13 1562/1
f 1563/239 1564/240 1565/13
f 1563/239 1565/13 1566/1
f 1567/239 1568/240 1569/13
f 1567/239 1569/13 1570/1
f 1571/239 1572/240 1573/13
f 1571/239 1573/13 1574/1
f 1575/239 1576/240 1577/13
f 1575/239 1577/13 1578/1
f 1579/239 1580/240 1581/13
f 1579/239 1581/13 1582/1
