# TyraX cylindrical impostor: select one part
mtllib old-oak-impostor.mtl
usemtl view0
v -5.46284 -0.455691 0
v 7.97704 -0.455691 0
v 7.97704 15.6454 0
v -5.46284 15.6454 0
vt 0 0.5
vt 0.25 0.5
vt 0.25 1
vt 0 1
f 1/1 2/2 3/3
f 1/1 3/3 4/4
usemtl view1
v -6.47286 -0.455691 0
v 7.382 -0.455691 0
v 7.382 15.6454 0
v -6.47286 15.6454 0
vt 0.25 0.5
vt 0.5 0.5
vt 0.5 1
vt 0.25 1
f 5/5 6/6 7/7
f 5/5 7/7 8/8
usemtl view2
v -6.29685 -0.455691 0
v 7.4896 -0.455691 0
v 7.4896 15.6454 0
v -6.29685 15.6454 0
vt 0.5 0.5
vt 0.75 0.5
vt 0.75 1
vt 0.5 1
f 9/9 10/10 11/11
f 9/9 11/11 12/12
usemtl view3
v -5.82914 -0.455691 0
v 5.42543 -0.455691 0
v 5.42543 15.6454 0
v -5.82914 15.6454 0
vt 0.75 0.5
vt 1 0.5
vt 1 1
vt 0.75 1
f 13/13 14/14 15/15
f 13/13 15/15 16/16
usemtl view4
v -7.97704 -0.455691 0
v 5.46284 -0.455691 0
v 5.46284 15.6454 0
v -7.97704 15.6454 0
vt 0 0
vt 0.25 0
vt 0.25 0.5
vt 0 0.5
f 17/17 18/18 19/19
f 17/17 19/19 20/20
usemtl view5
v -7.382 -0.455691 0
v 6.47286 -0.455691 0
v 6.47286 15.6454 0
v -7.382 15.6454 0
vt 0.25 0
vt 0.5 0
vt 0.5 0.5
vt 0.25 0.5
f 21/21 22/22 23/23
f 21/21 23/23 24/24
usemtl view6
v -7.4896 -0.455691 0
v 6.29685 -0.455691 0
v 6.29685 15.6454 0
v -7.4896 15.6454 0
vt 0.5 0
vt 0.75 0
vt 0.75 0.5
vt 0.5 0.5
f 25/25 26/26 27/27
f 25/25 27/27 28/28
usemtl view7
v -5.42543 -0.455691 0
v 5.82914 -0.455691 0
v 5.82914 15.6454 0
v -5.42543 15.6454 0
vt 0.75 0
vt 1 0
vt 1 0.5
vt 0.75 0.5
f 29/29 30/30 31/31
f 29/29 31/31 32/32
