# Generated by TyraX Tree Generator (seed 4107, 897 triangles)
mtllib silver-birch.mtl
v 0.00000 0.00000 -0.27000
v -0.25679 0.00000 -0.08343
v -0.24252 1.79594 -0.07505
v -0.03023 1.79898 -0.22930
v -0.15870 0.00000 0.21843
v -0.16145 1.79814 0.17454
v 0.15870 0.00000 0.21843
v 0.10094 1.80255 0.17454
v 0.25679 0.00000 -0.08343
v 0.18204 1.80307 -0.07505
v -0.00000 0.00000 -0.27000
v -0.03023 1.79898 -0.22930
v -0.17653 3.60253 -0.06775
v 0.00204 3.59906 -0.19748
v -0.10834 3.60173 0.14220
v 0.11237 3.59777 0.14222
v 0.18059 3.59612 -0.06771
v 0.00204 3.59906 -0.19748
v -0.17434 5.39767 -0.03682
v -0.02266 5.40110 -0.14703
v -0.11638 5.39626 0.14151
v 0.07113 5.39883 0.14152
v 0.12905 5.40182 -0.03680
v -0.02266 5.40110 -0.14703
v -0.12868 7.19992 -0.05259
v -0.00013 7.19709 -0.14605
v -0.07950 7.20126 0.09856
v 0.07945 7.19926 0.09851
v 0.12850 7.19669 -0.05266
v -0.00013 7.19709 -0.14605
v -0.09752 8.99962 -0.03030
v 0.00944 8.99971 -0.10807
v -0.05662 8.99833 0.09546
v 0.07563 8.99763 0.09541
v 0.11646 8.99848 -0.03038
v 0.00944 8.99971 -0.10807
v 0.01616 10.25869 0.01512
v 0.07333 5.42958 0.01614
v 0.00674 5.36981 -0.07932
v 0.22609 6.22492 -0.64910
v 0.28272 6.27041 -0.56060
v -0.10291 5.42958 -0.04026
v 0.12959 6.27483 -0.61299
v -0.03631 5.48935 0.05520
v 0.18622 6.32031 -0.52450
v 0.07333 5.42958 0.01614
v 0.45407 7.10571 -1.16918
v 0.50159 7.14062 -1.09074
v 0.37098 7.14700 -1.13722
v 0.41850 7.18191 -1.05878
v 0.66572 8.01113 -1.65093
v 0.70480 8.03815 -1.58437
v 0.59587 8.04310 -1.62291
v 0.63494 8.07012 -1.55635
v 0.82127 8.95464 -2.08045
v 0.85214 8.97474 -2.02638
v 0.76444 8.97576 -2.05586
v 0.79531 8.99585 -2.00179
v 0.91886 9.62948 -2.34736
v 0.46892 7.15535 -1.08710
v 0.45584 7.12932 -1.15043
v 0.99863 7.97562 -1.52690
v 1.00646 7.99281 -1.47815
v 0.41682 7.18138 -1.12540
v 0.96414 8.00809 -1.50478
v 1.45524 8.88319 -1.86467
v 1.45977 8.89351 -1.83169
v 1.43053 8.90189 -1.84871
v 1.76965 9.52334 -2.08992
v 0.47816 7.15174 -1.12419
v 0.42029 7.12074 -1.14764
v 0.53538 7.70748 -1.89317
v 0.57821 7.72782 -1.87114
v 0.41626 7.18274 -1.11602
v 0.53136 7.74902 -1.86168
v 0.61151 8.41276 -2.52998
v 0.63981 8.42488 -2.51364
v 0.60818 8.43643 -2.50461
v 0.66990 8.91230 -2.96460
v 0.65137 8.05762 -1.63595
v 0.62240 8.05578 -1.58563
v 0.69977 8.89304 -1.53622
v 0.72144 8.89365 -1.57401
v 0.68034 8.05160 -1.58596
v 0.74319 8.88942 -1.53650
v 0.78377 9.73070 -1.51071
v 0.79814 9.73028 -1.53594
v 0.81269 9.72805 -1.51091
v 0.79814 9.73028 -1.53594
v 0.85191 10.31602 -1.49838
v -0.05033 7.22531 -0.07462
v -0.07582 7.17654 0.02167
v -0.56729 7.93366 0.23533
v -0.54337 7.97404 0.15039
v 0.01155 7.22531 0.06951
v -0.48903 7.97374 0.27642
v 0.03704 7.27409 -0.02678
v -0.46512 8.01412 0.19147
v -0.05033 7.22531 -0.07462
v -0.98675 8.73767 0.44254
v -0.96425 8.76909 0.36888
v -0.91635 8.76638 0.47629
v -0.89385 8.79781 0.40263
v -1.38199 9.54960 0.64580
v -1.36280 9.57495 0.58421
v -1.32261 9.57214 0.67358
v -1.30342 9.59749 0.61198
v -1.73546 10.37900 0.85767
v -1.71982 10.39875 0.80826
v -1.68685 10.39465 0.87930
v -1.67122 10.41440 0.82989
v -1.95578 10.97291 0.99420
v -0.91881 8.77896 0.39444
v -0.97323 8.75987 0.40730
v -1.27702 9.56564 0.03008
v -1.23526 9.57786 0.02171
v -0.94604 8.79805 0.44328
v -1.25423 9.58874 0.06026
v -1.23526 9.57786 0.02171
v -1.50691 10.42644 -0.26624
v -1.47843 10.43264 -0.27105
v -1.49058 10.43845 -0.24475
v -1.65751 11.03107 -0.46930
v -1.37175 9.58033 0.62060
v -1.34506 9.55983 0.65655
v -1.68810 10.16777 1.13180
v -1.70641 10.18073 1.10247
v -1.32916 9.60083 0.63439
v -1.67270 10.19357 1.11035
v -1.99492 10.83818 1.53780
v -2.00648 10.84551 1.51733
v -1.98355 10.85320 1.52195
v -2.20912 11.31109 1.81327
v -1.34331 9.58696 0.60100
v -1.36790 9.58397 0.64355
v -1.39392 10.21376 0.67647
v -1.37551 10.21655 0.64458
v -1.31872 9.58639 0.64365
v -1.35704 10.21564 0.67655
v -1.39818 10.84465 0.71399
v -1.38590 10.84624 0.69272
v -1.37357 10.84506 0.71400
v -1.39316 11.28632 0.73563
v 0.88185 6.93977 -0.38122
v 0.70613 8.56533 -0.21125
v 0.30020 8.71388 -2.05158
v 0.47592 7.08832 -2.22156
v 0.29922 7.17018 -1.26514
v 0.83746 7.04815 -2.59669
v 1.76590 8.39810 -2.34511
v 1.22765 8.52013 -1.01356
v 0.83677 9.24274 -3.01541
v -0.09744 8.07366 -2.26483
v 0.99029 8.22003 -0.68300
v 1.92450 9.38910 -1.43358
v 0.04026 9.06649 -2.02950
v 1.17923 9.35618 -2.11737
v 0.85055 10.40991 -2.90376
v -0.28841 10.12023 -2.81589
v 0.28897 7.46274 -1.21464
v 1.45554 7.16707 -1.83226
v 1.45219 8.56769 -2.50911
v 0.28561 8.86335 -1.89150
v 1.16362 8.58182 -1.35794
v 0.56518 9.71618 -2.22419
v 1.82944 9.44856 -3.44804
v 2.42788 8.31420 -2.58179
v 1.03841 9.17234 -2.96270
v 1.34038 9.32293 -1.75130
v 2.18859 10.44058 -2.10167
v 1.88662 10.28999 -3.31308
v 0.66881 7.79929 -3.43589
v 1.29593 8.94591 -2.36441
v 1.31592 7.61322 -0.94995
v 0.68880 6.46659 -2.02142
v 0.37105 9.18713 -2.26317
v 1.70112 8.57683 -2.23865
v 1.42695 7.91808 -3.76307
v 0.09689 8.52838 -3.78759
v 0.41312 8.70320 -1.80488
v -0.43133 8.01807 -2.51289
v -0.01654 8.76875 -3.73403
v 0.82791 9.45387 -3.02603
v -0.08482 8.71326 -2.53001
v 0.66071 8.26286 -1.75185
v 0.74350 9.45602 -1.14056
v -0.00203 9.90642 -1.91872
v 0.38849 9.72618 -1.07184
v 1.93114 10.19982 -1.38496
v 1.29859 11.37489 -2.72388
v -0.24406 10.90125 -2.41076
v 0.14125 11.49825 -1.96384
v 0.97759 11.32899 -0.58991
v 0.83272 9.47995 -0.72952
v -0.00362 9.64922 -2.10345
v -1.71680 7.92984 -0.26435
v -0.53485 7.51007 0.42216
v -0.16114 9.07981 0.73858
v -1.34309 9.49958 0.05208
v -2.56043 9.43372 1.00515
v -2.10521 9.69954 -0.37601
v -0.50328 9.37059 0.08867
v -0.95850 9.10477 1.46983
v -0.96922 9.55652 0.51455
v -1.71209 10.60094 -0.00912
v -2.83055 10.36067 1.09831
v -2.08768 9.31625 1.62199
v -1.99340 11.48964 1.08145
v -1.16760 10.77545 1.70690
v -0.74818 10.16977 0.46151
v -1.57398 10.88396 -0.16394
v -0.95231 10.14916 -1.07601
v -2.61464 10.13231 -0.80723
v -2.36311 8.90754 0.67164
v -0.70079 8.92439 0.40287
v -0.99429 10.65578 -1.36962
v -1.96626 9.50833 -0.88099
v -2.03858 10.27170 0.76779
v -1.06660 11.41915 0.27916
v -0.46308 12.08365 -0.76202
v -1.07883 10.86711 -1.68401
v -1.86252 10.09602 -0.14318
v -1.24677 11.31256 0.77881
v -0.77464 11.60077 0.94896
v -1.86194 11.12611 -0.04849
v -2.58086 10.10321 1.22196
v -1.49356 10.57787 2.21941
v -1.63098 12.28512 1.12760
v -1.79316 11.81235 2.48991
v -1.76416 10.23499 1.94597
v -1.60198 10.70776 0.58365
v -1.76870 10.59007 2.54225
v -2.39440 11.62122 2.18836
v -1.86876 11.48056 0.84915
v -1.24306 10.44941 1.20304
v -0.16472 9.95174 0.70261
v -0.11580 11.25858 0.51798
v -1.63161 11.32506 0.58692
v -1.68053 10.01822 0.77156
v -2.02822 11.50882 0.75717
v -2.05207 10.42916 1.59740
v -0.48816 10.30220 1.47865
v -0.46431 11.38187 0.63843
v -0.88910 12.21488 0.41963
v -0.09538 11.15848 1.34143
v -1.70555 10.53475 2.01307
v -2.49927 11.59115 1.09127
v 0.18806 7.49949 -0.13795
v 1.30253 7.55988 -0.48221
v 1.02591 6.75241 -1.51934
v -0.08856 6.69202 -1.17508
v 0.95760 7.46886 -1.45101
v 1.75984 8.22752 -2.10338
v 0.61640 8.81508 -2.82621
v -0.18584 8.05642 -2.17384
v 0.69328 9.86737 -3.40643
v -0.44360 8.84116 -2.61972
v 1.02336 8.01478 -1.57775
v 2.16024 9.04099 -2.36447
v 1.62131 9.76829 -1.99967
v 0.63325 9.66246 -3.21347
v -0.67511 9.11143 -2.10039
v 0.31295 9.21727 -0.88659
v 0.58166 9.50884 -2.32993
v 0.98571 8.23826 -3.02680
v 1.02346 7.41574 -1.50523
v 0.61940 8.68632 -0.80836
v 2.34083 9.59813 -1.74119
v 1.01392 9.66530 -2.03389
v 0.78601 8.29437 -1.31529
v 2.11292 8.22720 -1.02259
v 2.68713 10.46449 -2.96625
v 2.68848 10.89670 -1.39776
v 1.54601 9.46852 -1.00324
v 1.54467 9.03631 -2.57172
v 1.65158 7.49312 -3.05731
v 0.33179 6.70901 -3.22192
v -0.39880 7.66455 -1.91588
v 0.92099 8.44866 -1.75127
v 0.28863 9.06944 -3.26339
v 0.07100 7.91821 -3.45734
v 1.26994 7.59571 -2.88841
v 1.48757 8.74695 -2.69446
v 1.51613 9.59067 -4.09683
v 0.73909 8.17009 -3.70492
v 0.48913 8.80108 -1.91330
v 1.26617 10.22166 -2.30521
v 1.64105 9.60559 -2.84499
v 0.10400 10.29408 -2.81316
v -0.28700 9.34521 -1.17017
v 1.25005 8.65672 -1.20200
v 0.28357 10.51056 -0.46348
v 0.27579 9.04227 -0.32063
v 1.40369 8.91363 -1.58139
v 1.41147 10.38192 -1.72424
v 0.35433 10.09117 -1.70645
v 1.64469 9.43569 -1.71538
v 2.38510 10.88871 -1.38245
v 1.09474 11.54418 -1.37351
v -1.59484 9.33821 1.99615
v -2.24529 9.58082 0.59734
v -0.64938 9.33256 -0.18783
v 0.00108 9.08996 1.21098
v -1.20749 9.40803 0.85969
v -1.06285 10.86775 1.20116
v -2.03069 11.28515 -0.17321
v -2.17533 9.82543 -0.51467
v -2.24147 11.20674 -0.30459
v -0.90972 11.63691 0.18018
v -0.90061 10.35061 1.29660
v -2.23236 9.92043 0.81182
v -1.60468 10.61510 1.91920
v -2.50686 9.99789 1.27453
v -1.72467 10.13363 0.04995
v -0.82249 10.75084 0.69462
v -1.01315 10.19512 -0.00729
v -1.83853 9.97352 -1.01120
v -2.43356 8.79713 -0.26233
v -1.60818 9.01873 0.74158
v -2.21234 10.42296 -1.23467
v -1.39062 9.21895 -1.29495
v -0.70900 9.60994 0.18744
v -1.53073 10.81394 0.24772
v -1.67778 10.71618 1.13000
v -0.93579 9.93970 0.19604
v -1.63953 10.75205 -1.03842
v -2.38151 11.52854 -0.10446
v -2.98638 9.71819 1.44375
v -1.83253 10.22734 2.10036
v -1.76594 11.45972 1.02771
v -2.91979 10.95057 0.37111
v -1.50233 11.99554 0.82173
v -1.91843 12.11374 2.09803
v -2.91069 10.94290 1.88296
v -2.49459 10.82470 0.60667
v -2.25312 11.65199 0.53043
v -2.70937 12.31310 1.97235
v -2.60281 10.60339 2.78997
v -2.14655 9.94227 1.34805
v -2.60158 10.98659 0.05743
v -2.61603 10.65092 1.31374
v -1.14371 10.89981 1.39717
v -1.12926 11.23547 0.14086
v -1.17091 11.60341 0.62626
v -2.40166 11.09553 0.38997
v -1.79404 9.66724 0.29506
v -0.56330 10.17512 0.53135
v -0.25986 11.52918 0.66871
v -1.13253 12.35862 1.05825
v -2.15955 11.61192 0.34739
v -1.28688 10.78248 -0.04215
v 2.10785 7.76731 -1.68140
v 0.58029 8.51656 -1.56672
v -0.12469 6.93767 -0.64156
v 1.40287 6.18842 -0.75624
v 0.06135 8.29794 -0.59586
v 1.24904 7.48317 -0.28555
v 1.65946 7.45547 -1.92920
v 0.47178 8.27023 -2.23951
v 1.35452 10.41155 -1.64063
v 0.82545 9.38278 -0.67594
v 0.86615 8.18714 -1.92870
v 1.39522 9.21591 -2.89338
v 1.42285 10.01300 -2.06457
v 0.55313 9.38825 -1.61365
v -0.31579 10.03052 -2.39972
v 0.55393 10.65527 -2.85064
v 1.20879 9.02565 -2.45832
v 1.52735 7.73712 -1.94542
v 1.37404 8.30680 -0.41904
v 1.05548 9.59533 -0.93194
v 1.18557 10.46040 -1.27654
v 1.85982 10.41380 -2.48590
v 1.48710 8.87192 -2.63429
v 0.81285 8.91852 -1.42494
v 2.92933 9.25190 -2.28459
v 2.72044 10.07070 -1.07289
v 1.05797 9.72510 -1.12594
v 1.26685 8.90630 -2.33765
v -0.53779 7.02968 -2.24469
v 0.20424 6.74485 -1.32832
v 0.84601 7.97585 -1.46538
v 0.10398 8.26068 -2.38174
v 1.18664 9.12124 -2.01956
v 0.38152 9.53957 -2.92202
v -0.52120 8.41221 -2.63926
v 0.28391 7.99388 -1.73680
v -0.43225 8.33769 -3.50746
v -0.44641 9.21661 -2.58134
v 0.97102 8.94946 -2.30613
v 0.98518 8.07054 -3.23225
v 1.01851 10.60545 -0.89158
v 1.69537 9.99098 -2.04050
v 1.14884 8.47075 -1.54943
v 0.47197 9.08522 -0.40050
v 1.11677 9.01849 -1.78611
v 0.89817 10.59520 -2.04126
v -0.18927 10.68696 -0.54255
v 0.02934 9.11024 -0.28741
v 1.70218 11.29924 -1.71964
v 1.04972 10.36150 -1.91875
v 0.12963 10.82147 -1.07007
v 0.78209 11.75921 -0.87096
v -1.14503 9.67006 -0.56606
v -0.51011 8.18930 -0.46829
v -1.48839 7.87187 1.07696
v -2.12331 9.35263 0.97918
v -2.56543 9.58444 1.15459
v -2.25013 10.80391 1.23240
v -1.22165 10.60204 0.22859
v -1.53695 9.38257 0.15078
v -2.97393 10.19697 0.43175
v -2.36276 10.32431 1.80871
v -1.23916 11.50373 1.20092
v -1.85033 11.37639 -0.17604
v -1.24025 10.75667 1.61046
v -0.88947 10.42363 0.50948
v -2.01768 11.01508 -0.02889
v -2.36846 11.34812 1.07210
v -1.91760 8.85112 -0.64627
v -2.03620 10.06517 0.07181
v -0.56802 10.52376 -0.46103
v -0.44942 9.30971 -1.17911
v -1.55654 11.98973 -0.03531
v -0.65921 11.24490 0.81216
v -1.16098 9.83310 0.10262
v -2.05831 10.57793 -0.74484
v -2.28638 9.37010 0.24015
v -1.00457 10.22121 0.73912
v -1.15743 11.32475 -0.75051
v -2.43924 10.47364 -1.24949
v -0.96938 11.58140 1.04821
v -2.40125 11.59387 0.29439
v -2.90334 10.06116 1.22277
v -1.47147 10.04869 1.97658
v -2.19252 11.07342 2.53409
v -1.64195 9.92142 2.26424
v -1.98080 10.09940 0.81311
v -2.53137 11.25139 1.08296
v -1.11279 10.13509 0.99578
v -0.79355 11.69567 1.51795
v -2.67764 11.98477 1.80580
v -2.99688 10.42419 1.28364
v -2.27944 9.47573 1.43797
v -1.37933 8.93187 0.44540
v -1.03985 10.46955 -0.08927
v -1.93996 11.01341 0.90329
v -0.57680 10.69655 1.00843
v -1.00475 11.30465 0.05956
v -2.30075 11.05035 0.48111
v -1.87279 10.44225 1.42998
v -1.77478 11.71190 1.84702
v -1.74779 10.20186 1.36070
v -0.38170 10.59472 0.21668
v -0.40868 12.10476 0.70300
v 0.64339 8.18330 -2.26136
v -0.35194 7.23801 -1.89953
v 0.39988 6.99307 -0.47131
v 1.39521 7.93836 -0.83314
v 0.43320 8.02416 -2.70941
v -0.20680 7.33088 -1.97931
v -0.02222 8.23226 -0.96160
v 0.61778 8.92554 -1.69170
v 1.60945 8.36136 -2.22458
v 0.68461 9.47611 -1.45332
v -0.09702 9.96655 -3.09947
v 0.82782 8.85180 -3.87072
v 1.99611 10.35185 -1.86858
v 1.85572 9.50054 -2.98404
v 0.67203 8.69619 -2.22119
v 0.81242 9.54750 -1.10573
v 0.55278 7.40068 -2.28615
v 1.56792 8.13130 -2.35719
v 1.30304 8.62827 -1.03118
v 0.28791 7.89765 -0.96013
v 2.22909 8.84766 -2.23803
v 0.97428 8.28368 -2.85999
v 0.12710 8.51719 -1.36254
v 1.38192 9.08116 -0.74058
v 1.49533 8.93810 -2.98876
v 0.66731 10.01214 -2.48900
v 1.28733 9.78069 -0.96433
v 2.11534 8.70665 -1.46408
v 1.30153 8.55632 -3.45025
v -0.18063 7.94986 -3.10134
v 0.15709 8.18290 -1.26168
v 1.63925 8.78936 -1.61060
v 0.76820 8.57445 -2.53121
v 1.36611 9.57073 -2.60687
v 0.48016 10.03482 -3.49723
v -0.11775 9.03854 -3.42157
v -0.01758 9.61193 -2.78508
v 0.52428 9.05091 -1.50287
v 1.91751 8.47546 -2.34344
v 1.37565 9.03648 -3.62565
v 0.20194 9.70248 -1.92853
v 0.95111 8.43518 -2.65932
v 2.13106 8.28561 -1.19033
v 1.38188 9.55292 -0.45953
v 0.07595 8.98675 -1.82454
v 0.06220 9.81145 -0.69213
v 0.74135 10.99634 -1.54679
v 0.75510 10.17164 -2.67921
v 1.31103 10.65774 -1.74145
v 0.89028 10.03658 -0.73983
v 0.70088 8.86115 -1.54833
v 1.12163 9.48231 -2.54995
v -1.50843 9.57833 0.33704
v -0.83401 9.05450 1.41531
v -0.31379 7.86480 0.51197
v -0.98822 8.38863 -0.56630
v -2.61084 9.70633 0.23664
v -2.57110 10.30639 1.50402
v -1.10718 9.67714 1.75605
v -1.14691 9.07708 0.48867
v -1.01926 11.09748 1.26233
v -0.57914 10.15069 0.72149
v -1.64793 10.12687 -0.10654
v -2.08805 11.07365 0.43430
v -1.58844 10.33752 2.00364
v -1.39303 9.34609 0.64147
v -1.78388 10.86399 -0.51938
v -1.97929 11.85542 0.84280
v -0.50022 10.01260 -0.80260
v -0.76869 11.18201 -0.68322
v -1.98665 10.84418 -0.11297
v -1.71817 9.67476 -0.23235
v -1.56574 9.69525 0.16076
v -0.72296 10.79843 1.09256
v -1.26365 12.21262 -0.09269
v -2.10643 11.10944 -1.02449
v -1.00110 11.60999 -0.24354
v -0.69362 10.95136 -1.51153
v -2.24744 10.31208 -1.55626
v -2.55492 10.97071 -0.28827
v -2.67116 9.73065 0.13928
v -2.52874 10.13572 1.78920
v -0.65871 10.64975 1.50159
v -0.80113 10.24468 -0.14833
v -2.25249 10.44889 1.68543
v -2.66380 11.36972 1.04222
v -3.09560 11.98250 2.19561
v -2.68429 11.06166 2.83882
v -1.84408 11.48033 2.12005
v -2.01609 10.51073 1.42550
v -2.63527 11.30341 0.47226
v -2.46326 12.27300 1.16680
v -1.70551 10.20225 -0.34243
v -2.44636 9.77108 0.71054
v -1.25933 10.08622 1.67475
v -0.51848 10.51738 0.62178
v -1.79251 10.63554 1.21809
v -1.34294 11.69952 0.88304
v -1.75394 11.46399 -0.41638
v -2.20351 10.40002 -0.08133
v -0.99510 11.24457 -0.34431
v -1.95736 10.22211 -0.26188
v -2.44105 10.79292 1.17211
v -1.47878 11.81538 1.08969
v -0.26756 6.13753 -2.12141
v 0.43771 7.39246 -2.58509
v 0.94989 7.70759 -0.95315
v 0.24463 6.45266 -0.48948
v 0.26049 8.64449 -1.13011
v 1.06760 7.33805 -0.94019
v 0.74148 6.89073 -2.63134
v -0.06563 8.19717 -2.82126
v 0.25063 10.37784 -2.06560
v 0.44645 9.64434 -0.93384
v 0.68783 8.36425 -1.80523
v 0.49202 9.09775 -2.93700
v -0.21992 9.74669 -1.51383
v 0.84986 10.49716 -1.15450
v 1.65917 9.91774 -2.35383
v 0.58939 9.16727 -2.71315
v 0.51618 8.51892 -0.29516
v 0.23512 8.98563 -1.44480
v 1.23194 8.10063 -2.04778
v 1.51300 7.63392 -0.89813
v 1.05822 9.35085 -2.05462
v 1.32997 8.26144 -1.68535
v 2.48062 8.30362 -2.40769
v 2.20887 9.39303 -2.77696
v 2.79236 10.53591 -1.62852
v 1.17622 10.11568 -2.01944
v 1.81084 8.43805 -2.83964
v 3.42698 8.85828 -2.44871
v 1.23284 7.56897 -1.24527
v 0.52505 8.68857 -2.00907
v 0.67226 7.76559 -3.49844
v 1.38006 6.64599 -2.73465
v 0.79683 8.26569 -2.04927
v 1.41106 9.33203 -2.37124
v 0.16756 9.88693 -2.90571
v -0.44667 8.82059 -2.58374
v -0.16112 7.66619 -2.49806
v 1.40684 8.05492 -2.86455
v 0.80606 9.61135 -3.78403
v -0.76191 9.22261 -3.41755
v 0.43051 8.52302 -0.57363
v -0.29865 8.81806 -1.92771
v 0.58982 10.37837 -2.06617
v 1.31897 10.08333 -0.71209
v 0.40256 9.99196 -1.36993
v 0.98322 11.03568 -1.42191
v 1.99392 10.43778 -2.13686
v 1.41326 9.39406 -2.08488
v 0.21710 8.99989 -1.99521
v -0.52160 9.72044 -0.99722
v 0.48533 11.01494 -1.18655
v 1.22403 10.29438 -2.18454
v -0.02231 9.05421 0.52224
v -0.26025 10.26087 0.90581
v -1.67920 9.90605 1.14185
v -1.44127 8.69939 0.75827
v -1.33133 8.72913 0.39027
v -2.36411 9.64349 0.28511
v -1.95683 10.26528 1.69169
v -0.92405 9.35091 1.79684
v -2.60082 10.69163 2.32451
v -3.02898 11.00276 0.91640
v -1.55421 10.32466 0.31815
v -1.12605 10.01354 1.72625
v -2.15469 11.94889 -0.03767
v -2.53303 10.37466 -0.46840
v -2.52730 9.86491 1.38962
v -2.14896 11.43914 1.82034
v -1.31528 10.07261 -1.20497
v -2.79838 10.07731 -0.53165
v -2.17013 8.99207 0.85979
v -0.68702 8.98738 0.18648
v -2.27287 9.32771 -1.21681
v -2.50224 10.11064 0.21449
v -1.08817 11.29846 -0.20864
v -0.85879 10.51552 -1.63994
v -2.57066 10.10381 -0.43486
v -1.55826 10.75294 0.11059
v -1.54414 11.71689 -1.06280
v -2.55654 11.06776 -1.60824
v -2.74966 11.25769 0.59462
v -2.12772 9.92546 0.80905
v -1.48478 10.46516 2.29731
v -2.10671 11.79738 2.08288
v -2.65862 11.88855 0.57619
v -2.95587 11.51423 1.81270
v -1.62171 10.78328 1.91215
v -1.32446 11.15759 0.67565
v -2.23732 12.26029 2.34557
v -1.99863 11.14129 1.99261
v -2.57197 11.40503 0.76875
v -2.81066 12.52403 1.12172
v -0.19710 10.86865 0.20595
v -0.71952 9.61471 0.01221
v -2.13869 10.13617 0.46396
v -1.61627 11.39011 0.65770
v -0.98135 10.55052 0.52355
v -1.04931 11.16427 1.82069
v -2.56649 11.72108 1.47774
v -2.49853 11.10732 0.18060
v -1.48798 11.81647 0.40036
v -1.56429 12.15856 1.60108
v -1.73067 10.78170 1.98278
v -1.65435 10.43960 0.78206
v 0.82340 6.45687 -0.70196
v 1.73545 7.16469 -1.48443
v 0.54659 7.61617 -2.46177
v -0.36547 6.90835 -1.67930
v 0.93846 7.06239 -1.75439
v 0.05585 8.00316 -2.03591
v 0.58927 8.84615 -0.89120
v 1.47188 7.90537 -0.60968
v -0.33845 8.77197 -1.05660
v 1.01178 7.74504 -1.24310
v 1.48616 8.67098 -2.90723
v 0.13593 9.69791 -2.72074
v 0.67396 8.96199 -1.17524
v 1.45458 8.40338 -2.12003
v 1.05832 9.52582 -3.11107
v 0.27769 10.08442 -2.16628
v -0.06044 7.21781 -2.03769
v 0.86631 6.48351 -0.86137
v 1.74025 8.15377 -0.50725
v 0.81350 8.88807 -1.68357
v 1.70448 8.38093 -2.45636
v 0.34952 9.32953 -2.56045
v 0.38601 9.58881 -0.67264
v 1.74097 8.64020 -0.56855
v 1.46228 8.40228 -1.24334
v 2.14571 9.95916 -1.38255
v 2.44505 9.65651 -3.29767
v 1.76162 8.09963 -3.15847
v -0.26764 6.64700 -2.32080
v 0.97486 6.79227 -3.25182
v 1.41549 8.32146 -2.42517
v 0.17299 8.17619 -1.49415
v -0.28090 7.72697 -3.70782
v 0.52276 7.59628 -2.40904
v 1.07878 9.25978 -2.58571
v 0.27512 9.39046 -3.88449
v 0.55735 8.00494 -2.42807
v 0.13037 9.07643 -2.36896
v -0.03326 9.08394 -3.68701
v 0.39372 8.01245 -3.74612
v 0.96327 8.07333 -2.17084
v 0.41770 7.90035 -1.11759
v 0.37737 9.26325 -0.91465
v 0.92295 9.43623 -1.96790
v 1.26349 10.70592 -1.20039
v 0.66661 9.59575 -0.78811
v 1.34100 8.81584 -1.91188
v 1.93788 9.92601 -2.32415
v 0.94909 9.13877 -1.00252
v 1.39815 10.22921 -1.42434
v 0.11476 10.53399 -2.00273
v -0.33430 9.44356 -1.58090
v -0.77969 9.59567 0.91244
v -1.49672 9.19445 -0.42976
v -1.80109 7.53633 0.22850
v -1.08406 7.93755 1.57070
v -1.20059 8.95117 0.35717
v -1.96970 10.07790 0.35432
v -1.49761 10.40384 1.81450
v -0.72851 9.27711 1.81736
v -3.14965 10.99851 0.98716
v -2.06573 11.86928 1.10682
v -1.21320 10.94512 0.10952
v -2.29712 10.07435 -0.01015
v -1.47002 11.12590 1.57985
v -0.63132 10.42254 1.00018
v -1.36304 10.55158 -0.21508
v -2.20173 11.25494 0.36460
v -1.45019 8.61141 0.57424
v -2.09261 10.09325 1.09067
v -2.09040 10.73583 -0.75041
v -1.44798 9.25399 -1.26684
v -2.30643 10.30216 0.05930
v -1.37978 11.68782 -0.12538
v -0.63822 10.97448 -1.75669
v -1.56487 9.58883 -1.57201
v -1.61985 11.74195 -0.58941
v -2.66700 11.03006 -0.24576
v -2.09963 9.84072 -0.98069
v -1.05248 10.55261 -1.32434
v -2.10019 10.51285 2.14990
v -2.70601 9.44073 1.14360
v -2.21837 10.49269 -0.27072
v -1.61256 11.56480 0.73558
v -2.63256 11.17575 1.16334
v -1.01454 11.52899 1.35057
v -0.84325 10.08347 2.59747
v -2.46126 9.73023 2.41024
v -3.18979 11.78578 1.55573
v -1.99407 11.78755 1.72053
v -2.08437 10.57428 2.38879
v -3.28009 10.57251 2.22400
v -0.52871 11.88151 1.57965
v -0.25359 10.30511 1.13885
v -1.71573 10.39219 -0.08512
v -1.99085 11.96859 0.35569
v -0.86750 10.71254 2.15387
v -0.01550 11.51211 1.15514
v -1.46044 11.85359 0.19588
v -2.31243 11.05402 1.19461
v -0.30242 12.16725 0.14223
v -1.45741 11.86005 -0.17245
v -1.72268 11.48085 1.17136
v -0.56769 11.78805 1.48604
v 0.85895 7.01248 -1.11022
v 0.77709 7.65398 -0.13847
v -0.20442 8.37801 -0.69914
v -0.12256 7.73651 -1.67088
v 0.48508 9.20976 -2.60692
v 0.32199 8.53328 -1.64808
v 1.37520 7.75288 -2.01951
v 1.53830 8.42936 -2.97835
v 0.79448 9.73371 -2.46936
v 1.41796 9.37332 -1.14752
v 1.50343 7.71589 -1.63972
v 0.87994 8.07628 -2.96156
v 1.08136 8.67348 -1.03061
v 1.37932 10.34531 -1.16213
v 1.37811 10.19190 -3.11487
v 1.08015 8.52007 -2.98334
v 1.60054 7.40424 -2.19513
v 1.04868 8.19159 -2.92437
v 0.26479 8.62420 -1.86406
v 0.81664 7.83686 -1.13482
v 0.57418 9.88474 -1.11054
v 1.95496 10.50812 -1.73927
v 1.89640 9.23516 -3.13004
v 0.51562 8.61177 -2.50132
v 0.81135 8.27894 -1.93806
v 1.68209 9.37073 -1.04153
v 2.66249 9.86946 -2.60107
v 1.79175 8.77767 -3.49760
v 0.12348 8.09697 -1.71157
v 1.41115 7.71004 -2.11094
v 0.94202 7.74142 -3.65389
v -0.34564 8.12836 -3.25451
v 0.44138 9.60862 -3.64086
v 0.77039 8.12379 -4.08453
v 0.13992 7.50768 -2.49012
v -0.18908 8.99251 -2.04645
v 1.03460 9.04901 -2.12694
v 1.65462 8.48716 -3.21857
v 1.05515 9.62193 -4.14311
v 0.43512 10.18378 -3.05148
v 0.77221 9.17655 -0.37630
v 0.72843 8.10878 -1.46866
v 1.47342 9.23197 -2.59642
v 1.51720 10.29974 -1.50407
v 0.76355 9.47661 -0.77136
v 0.10803 10.66543 -1.66112
v 1.53960 10.56162 -2.85451
v 2.19512 9.37280 -1.96475
v 1.16550 8.67290 -1.58081
v 0.36653 9.42623 -2.89070
v 0.56617 11.17156 -2.00873
v 1.36515 10.41824 -0.69884
v -0.65449 9.00260 1.26537
v -0.73723 10.17490 1.08029
v -1.90099 9.98329 0.38689
v -1.81825 8.81099 0.57197
v -1.71929 10.16364 1.57962
v -1.57383 10.15555 -0.05871
v -0.87590 8.39892 0.01193
v -1.02136 8.40701 1.65026
v -2.68251 10.41673 0.74282
v -1.35760 11.28058 0.52327
v -0.56245 10.42046 1.93751
v -1.88736 9.55661 2.15706
v -0.41117 10.75143 0.58846
v -1.86876 10.19987 -0.04342
v -2.67272 10.31363 1.71182
v -1.21512 10.86519 2.34369
v -0.53769 10.81420 -0.21963
v -0.87718 9.68554 -1.09014
v -2.51603 9.97414 -0.82522
v -2.17654 11.10281 0.04530
v -0.85135 11.96313 -0.96620
v -0.08128 10.71641 -0.32157
v -1.61004 9.70011 -0.46089
v -2.38010 10.94683 -1.10551
v -1.09268 10.99748 0.01717
v -2.42040 11.87754 0.38738
v -2.96137 11.81869 -1.41284
v -1.63365 10.93863 -1.78306
v -1.26916 10.62466 0.65860
v -2.52136 10.72596 1.00898
v -2.56779 9.24968 1.26983
v -1.31559 9.14838 0.91945
v -2.23647 12.01307 1.57709
v -3.54928 11.09008 1.73978
v -2.48825 9.56981 1.67670
v -1.17544 10.49280 1.51401
v -2.65069 11.31208 1.50604
v -2.92044 11.94550 2.66990
v -1.42113 12.33544 2.80518
v -1.15138 11.70202 1.64132
v -1.08390 11.13666 0.05951
v -0.54527 9.85999 0.70701
v -2.09447 9.07103 0.44015
v -2.63310 10.34771 -0.20735
v -1.37605 10.97117 -0.19716
v -2.13266 10.80918 1.02361
v -2.09360 12.45308 1.26597
v -1.33699 12.61508 0.04520
v -2.07264 10.91197 1.30802
v -1.48601 11.44058 0.03689
v 0.01247 11.70811 0.83970
v -0.57416 11.17949 2.11083
v 1.34556 7.93168 -1.23956
v 1.28040 6.88984 -2.02295
v -0.20744 7.05935 -2.12462
v -0.14227 8.10119 -1.34122
v 0.87764 8.12750 -1.26995
v 1.48990 8.80084 -2.16842
v 0.28062 9.60880 -2.38697
v -0.33164 8.93546 -1.48851
v -0.21987 8.59087 -2.02143
v 1.02935 8.36520 -1.95468
v 1.28404 9.80186 -1.86403
v 0.03482 10.02753 -1.93078
v 1.57137 8.63884 -2.85125
v 0.46078 8.32179 -1.85385
v 0.59983 9.93835 -1.18516
v 1.71042 10.25540 -2.18256
v 0.55310 7.35578 -1.00426
v 1.03216 8.72406 -1.26175
v 1.75732 8.19966 -2.69922
v 1.27826 6.83138 -2.44173
v 2.18936 7.81253 -2.51464
v 1.32844 8.03774 -1.44608
v 1.01695 9.50299 -2.00586
v 1.87787 9.27779 -3.07442
v 1.49981 9.57574 -2.86846
v 2.85146 9.20588 -2.15536
v 1.95607 8.90724 -0.61306
v 0.60441 9.27710 -1.32617
v 0.51339 7.96966 -1.22512
v 1.36135 8.17902 -2.43577
v 0.00719 8.82103 -3.27322
v -0.84077 8.61166 -2.06257
v 1.55723 9.23818 -2.48814
v 1.87537 8.06914 -3.43532
v 0.17746 8.00451 -3.92586
v -0.14069 9.17354 -2.97868
v 1.01820 9.49765 -2.54502
v 0.07464 8.74909 -2.90983
v 1.02363 7.69747 -3.20649
v 1.96719 8.44603 -2.84169
v -0.01590 8.19522 -1.71503
v 0.63206 8.91790 -0.47088
v 0.69604 10.47142 -1.40658
v 0.04808 9.74874 -2.65073
v 1.48612 10.73322 -2.41366
v 1.34476 9.42332 -2.43157
v 0.39882 9.50926 -1.25094
v 0.54019 10.81916 -1.23303
v 1.04407 10.03193 -2.79530
v -0.04642 9.47914 -2.18707
v 0.07015 10.52835 -1.02449
v 1.16064 11.08113 -1.63271
v -1.08359 9.63955 -0.72443
v -0.60167 10.38146 0.11781
v -0.87795 9.43022 1.11383
v -1.35987 8.68831 0.27159
v -2.58778 10.18305 0.69619
v -1.23697 10.44450 0.67095
v -0.96607 8.99055 0.10791
v -2.31688 8.72909 0.13314
v -0.93147 11.24174 0.10100
v -1.72246 10.09680 -0.00555
v -1.71601 9.94366 1.59213
v -0.92502 11.08859 1.69869
v -1.25287 10.57063 1.33748
v -0.78279 11.55203 0.63910
v -2.05673 11.61856 -0.12489
v -2.52680 10.63716 0.57349
v -2.35467 9.20766 -0.18484
v -0.91883 9.34604 0.34039
v -1.05011 11.10347 0.23622
v -2.48594 10.96509 -0.28901
v -2.07568 9.56362 -0.50089
v -1.09650 10.69460 0.16918
v -1.92434 12.02909 -0.87352
v -2.90353 10.89812 -1.54359
v -0.22343 11.50598 -0.80012
v -1.54698 11.91127 -1.21681
v -2.17698 10.51265 -0.57608
v -0.85343 10.10736 -0.15939
v -0.92127 10.87112 1.84171
v -1.35578 10.32819 0.64635
v -2.85806 10.67825 1.03343
v -2.42355 11.22117 2.22879
v -3.15113 10.82732 2.21846
v -2.41822 11.88256 3.20862
v -0.81919 11.64536 2.27780
v -1.55209 10.59013 1.28765
v -2.51419 10.56744 2.79112
v -2.05683 9.80429 1.54093
v -2.02057 11.31602 0.63139
v -2.47793 12.07917 1.88158
v -1.68461 10.67176 1.03299
v -0.39667 10.77837 0.88641
v -0.48600 10.05881 -0.42182
v -1.77394 9.95220 -0.27524
v -1.57432 10.51602 1.91546
v -0.38910 11.34876 1.80679
v -0.49330 11.27969 0.14099
v -1.67853 10.44694 0.24966
v -0.07291 11.18472 1.15743
v -0.22879 12.10789 0.21193
v -1.74395 11.89890 0.25766
v -1.58808 10.97573 1.20316
v 0.27280 6.55343 -1.40259
v 0.71202 7.49376 -0.17332
v 0.52144 8.98765 -1.24798
v 0.08222 8.04733 -2.47724
v 0.63708 8.23855 -1.13159
v 1.00598 7.10277 -1.30064
v 0.60160 7.16865 -2.62575
v 0.23269 8.30444 -2.45670
v 2.49790 9.01406 -2.78838
v 1.69163 10.46948 -2.62489
v 0.24550 9.56832 -1.73433
v 1.05178 8.11290 -1.89782
v 0.62441 8.79109 -1.57958
v 0.34027 9.99196 -1.36456
v 1.28394 10.39619 -2.37509
v 1.56808 9.19531 -2.59011
v 1.32124 8.23485 -2.49271
v 1.84948 8.63176 -1.26986
v 1.49321 7.20140 -0.65169
v 0.96497 6.80449 -1.87454
v 1.67663 9.16428 -1.24753
v 1.12171 8.11311 -2.18247
v 1.97520 8.84342 -3.51015
v 2.53012 9.89459 -2.57522
v 0.73716 10.17253 -2.37722
v 0.85335 9.13704 -1.25377
v 2.57488 9.48496 -1.11113
v 2.45869 10.52045 -2.23458
v -0.00197 7.50185 -2.82545
v -0.51027 7.56161 -1.24913
v 1.27948 7.27263 -0.66104
v 1.78778 7.21287 -2.23737
v -0.33609 8.35149 -2.66523
v 0.25261 8.43802 -1.52480
v 1.26782 9.33630 -2.11701
v 0.67911 9.24977 -3.25744
v 0.30067 9.77950 -2.96362
v -0.55941 9.03743 -2.48521
v 0.05484 7.92294 -3.10962
v 0.91492 8.66502 -3.58803
v 0.34847 9.19407 -2.41062
v 0.19703 10.07693 -1.07780
v 0.40528 8.55813 -0.04808
v 0.55672 7.67527 -1.38090
v 2.26638 10.19648 -1.10016
v 1.57439 11.23655 -1.57551
v 0.28971 10.39292 -1.55122
v 0.98170 9.35285 -1.07587
v 0.29835 11.54425 -0.65260
v -0.24081 10.85592 -1.94581
v 1.42008 10.30303 -2.34398
v 1.95924 10.99136 -1.05077
v -1.74902 9.84908 0.02439
v -0.88480 8.59466 -0.11161
v 0.19252 9.20124 1.13927
v -0.67170 10.45567 1.27527
v -1.23595 8.43067 0.54096
v -0.84816 9.60240 0.83128
v -2.14351 10.13243 0.42235
v -2.53130 8.96070 0.13203
v -1.50524 10.91150 1.99323
v -2.04237 9.32597 1.71467
v -2.91745 9.91114 0.07130
v -2.38031 11.49667 0.34986
v -1.74753 11.60657 0.72223
v -2.77605 11.02027 0.34853
v -2.07111 9.77878 0.35610
v -1.04258 10.36508 0.72980
v -1.64670 9.16065 -0.95396
v -2.90088 9.83343 -0.32839
v -1.93136 10.31905 1.09308
v -0.67718 9.64627 0.46751
v -1.15596 9.72637 -0.79523
v -1.75547 10.79354 -1.10966
v -2.62898 10.64214 0.04197
v -2.02947 9.57497 0.35640
v -0.66867 11.42706 -1.57591
v -1.17198 9.87320 -1.02296
v -2.89548 10.64628 -0.41928
v -2.39217 12.20014 -0.97223
v -1.61853 11.30445 1.64213
v -3.03983 10.40450 1.75818
v -2.02320 8.76925 1.52809
v -0.60190 9.66920 1.41204
v -1.14160 11.89800 2.31223
v -2.68152 11.77692 2.93678
v -3.17529 10.61638 1.49432
v -1.63537 10.73746 0.86977
v -2.63110 10.42136 0.85318
v -2.48967 10.30040 2.14548
v -2.61581 11.78871 2.29859
v -2.75725 11.90967 1.00629
v -2.07198 11.13769 0.82272
v -1.89333 9.93877 0.43997
v -0.72085 10.35797 -0.32584
v -0.89950 11.55688 0.05691
v -0.73375 11.21640 1.19534
v -0.64665 11.27316 -0.48698
v -2.58242 11.27883 -0.58700
v -2.66951 11.22207 1.09532
v -2.47095 11.99242 1.60753
v -1.47499 11.15449 1.97761
v -1.11868 10.91724 0.48153
v -2.11463 11.75517 0.11145
v -0.54919 6.34460 -1.19239
v 0.20481 7.46160 -0.21959
v 0.69852 8.47353 -1.76417
v -0.05548 7.35652 -2.73698
v 0.31118 8.85535 -1.95678
v 0.63976 8.15273 -0.94350
v 2.02546 8.10717 -1.42444
v 1.69687 8.80980 -2.43772
v 1.29825 8.40549 -3.28135
v 0.30366 7.54152 -2.34824
v 0.37673 8.86329 -1.04653
v 1.37132 9.72726 -1.97963
v 0.45540 10.23306 -1.91254
v 1.79099 9.19258 -1.69851
v 1.59390 8.55963 -3.54565
v 0.25831 9.60011 -3.75967
v 1.80579 7.65238 -1.88519
v 0.75139 8.37979 -2.29256
v -0.11244 7.75432 -1.17357
v 0.94197 7.02691 -0.76619
v 0.72233 9.77512 -2.74376
v 1.62005 9.68492 -1.56385
v 1.98116 8.06369 -1.96253
v 1.08344 8.15389 -3.14244
v 2.33596 8.55327 -2.43483
v 2.74872 9.83019 -2.12692
v 1.46866 10.02417 -1.21539
v 1.05590 8.74724 -1.52329
v -0.31573 8.60654 -1.83265
v 0.93599 7.88424 -1.22055
v 1.93898 8.44190 -2.61359
v 0.68727 9.16420 -3.22568
v 1.12166 8.77650 -2.63609
v 0.93406 8.02160 -3.63654
v -0.46944 8.41283 -3.66857
v -0.28184 9.16774 -2.66812
v -0.17675 8.37684 -1.41093
v 0.96060 9.27721 -1.89168
v 0.74386 8.67672 -3.52905
v -0.39349 7.77635 -3.04829
v -0.02544 10.47984 -1.40559
v 0.80990 9.20961 -0.58757
v 0.70424 8.08755 -2.22202
v -0.13110 9.35778 -3.04004
v 0.02671 10.06516 -1.42061
v 0.23648 10.17261 -2.71555
v 1.70551 9.87680 -2.50212
v 1.49574 9.76935 -1.20719
v 1.40969 11.00592 -1.97260
v 1.85895 9.79955 -2.23537
v 0.47895 9.23325 -1.99490
v 0.02969 10.43962 -1.73213
v -1.56109 8.44958 0.53988
v -0.91499 9.27510 1.60465
v 0.36314 9.66713 0.52513
v -0.28296 8.84162 -0.53964
v -0.91955 9.20286 0.04158
v -2.29338 8.72856 0.09829
v -2.74769 10.13758 0.87684
v -1.37386 10.61188 0.82012
v -1.44576 9.99521 -0.12608
v -2.53023 10.37833 0.32941
v -1.84586 11.19855 1.26893
v -0.76139 10.81544 0.81345
v -2.20157 11.02471 0.00127
v -1.67400 12.14781 0.30767
v -2.06595 11.94927 1.71029
v -2.59352 10.82617 1.40389
v -0.60983 9.96033 -0.54332
v -2.00378 10.66675 0.00960
v -2.76977 8.94240 0.28152
v -1.37581 8.23599 -0.27141
v -1.29757 10.39700 -0.19655
v -0.59049 11.49591 -0.45340
v -1.88123 12.24709 -0.79283
v -2.58831 11.14818 -0.53598
v -1.77018 9.80639 -0.56964
v -2.17127 11.00381 0.51818
v -1.80283 12.33476 -0.81102
v -1.40174 11.13734 -1.89884
v -0.83494 9.86646 0.88474
v -2.49633 9.48796 0.69176
v -2.92924 10.58090 2.27516
v -1.26785 10.95940 2.46814
v -0.83511 10.98638 1.21346
v -2.04786 10.35939 1.68781
v -2.84499 11.81321 1.57150
v -1.63224 12.44021 1.09716
v -3.13184 11.26424 1.56349
v -2.15870 10.75474 2.53947
v -1.54648 12.31638 2.74425
v -2.51962 12.82587 1.76827
v -1.79211 10.77070 -0.65077
v -2.79997 10.58235 0.51311
v -1.55748 9.70776 1.44751
v -0.54962 9.89611 0.28363
v -0.62529 11.91137 1.02574
v -1.12547 10.98059 0.42478
v -2.16256 10.93344 1.36097
v -1.66238 11.86421 1.96193
v -1.28292 11.71108 -0.12751
v -0.10888 11.72369 0.31686
v -0.52766 10.92732 1.44587
v -1.70169 10.91470 1.00149
v 0.01196 7.68411 -1.22191
v 1.31237 8.19415 -1.19042
v 1.88564 6.75984 -1.63305
v 0.58523 6.24980 -1.66453
v 1.00715 8.32456 -0.84168
v 1.08270 8.25195 -2.13103
v -0.23086 8.94059 -2.24678
v -0.30641 9.01320 -0.95743
v 1.36099 8.28152 -2.07524
v 1.69068 9.80113 -2.29284
v 0.07686 10.04047 -3.06653
v -0.25283 8.52086 -2.84893
v 0.73612 9.95552 -2.82677
v 0.86993 10.03680 -1.54005
v 1.96461 9.02627 -1.59005
v 1.83081 8.94499 -2.87677
v 1.55168 7.58728 -0.86085
v 1.37872 8.20014 -2.36424
v -0.15524 9.12958 -1.80887
v 0.01772 8.51673 -0.30549
v 1.88128 7.67579 -2.66779
v 0.43024 8.52274 -2.62801
v 1.10906 9.61808 -1.18762
v 2.56010 8.77114 -1.22740
v 1.13723 8.83404 -3.21505
v 0.07325 9.53155 -2.36190
v 1.29062 9.89655 -1.14208
v 2.35460 9.19903 -1.99523
v 1.06798 8.66710 -2.69793
v 1.45479 8.76264 -1.14526
v 1.01750 6.98519 -0.92695
v 0.63069 6.88965 -2.47962
v 1.01595 9.84797 -2.77610
v 0.60524 8.46863 -3.54283
v -0.35473 7.91378 -2.03045
v 0.05598 9.29312 -1.26372
v 0.78548 9.27617 -3.44135
v 0.51713 7.85421 -3.76369
v 0.05743 7.57424 -2.14598
v 0.32578 8.99620 -1.82364
v 0.75290 8.58259 -1.59547
v 0.23095 9.49342 -0.81331
v 1.47901 10.32448 -0.94824
v 2.00095 9.41365 -1.73040
v -0.04724 9.73594 -0.60868
v 1.10270 10.71617 -0.78024
v 1.90623 9.58686 -1.84677
v 0.75628 8.60664 -1.67521
v 1.56905 8.96447 -0.76739
v 0.46321 8.78205 -1.98445
v 0.57061 10.64399 -2.36110
v 1.67645 10.82640 -1.14404
v -0.71467 9.86478 1.17983
v 0.15134 9.28415 0.56676
v -0.81460 8.70638 -0.25050
v -1.68060 9.28701 0.36257
v -0.62973 10.61270 0.73687
v -1.55757 10.68739 2.01287
v -2.19232 9.02500 1.64862
v -1.26449 8.95031 0.37262
v -1.40813 9.73096 1.47878
v -2.85686 9.77688 1.72527
v -2.96026 11.21913 0.84886
v -1.51153 11.17320 0.60237
v -3.14738 11.00536 1.03657
v -2.59583 9.82424 2.06454
v -0.89601 9.86231 1.19624
v -1.44756 11.04343 0.16828
v -2.66640 9.90808 -0.46623
v -2.51838 9.67082 0.94791
v -0.89408 9.98041 0.82983
v -1.04210 10.21767 -0.58430
v -1.30565 11.24923 -1.91315
v -2.51095 11.00614 -0.80471
v -1.23425 10.33047 0.43537
v -0.02895 10.57357 -0.67307
v -1.63377 10.60778 0.64792
v -1.00431 9.96354 -0.35880
v -2.18031 10.30702 -1.31392
v -2.80978 10.95126 -0.30720
v -1.68228 9.94217 -0.33775
v -2.06842 11.21226 0.47479
v -2.23349 10.21646 1.95290
v -1.84735 8.94637 1.14037
v -3.27269 11.29296 1.94009
v -2.38814 10.52652 2.12695
v -1.66650 11.11699 1.13277
v -2.55105 11.88344 0.94591
v -1.71658 11.93183 3.21342
v -1.71038 12.06407 1.49384
v -2.64987 10.32273 1.35654
v -2.65606 10.19049 3.07612
v -0.60326 9.89943 0.77797
v -0.12831 10.92497 0.34375
v -1.40556 11.46651 0.22571
v -1.88051 10.44098 0.65993
v -1.48199 11.48837 0.01551
v -1.85694 10.95320 1.04563
v -1.16763 11.91665 1.79707
v -0.79267 12.45182 0.76695
v -2.37877 11.78433 0.65793
v -2.54868 10.59570 1.63471
v -0.78050 10.40544 1.71075
v -0.61058 11.59406 0.73398
v -1.00528 7.69065 -1.01703
v -0.47732 7.67423 -2.40923
v 1.06880 7.23611 -1.81773
v 0.54083 7.25253 -0.42553
v 1.05095 8.63912 -2.77029
v 0.92562 7.35877 -1.67304
v -0.57745 8.24305 -0.81289
v -0.45211 9.52340 -1.91015
v -0.18516 8.96943 -2.93289
v 0.20781 9.81544 -2.24510
v 1.19338 9.02006 -1.82987
v 0.80040 8.17405 -2.51765
v 1.93302 9.94653 -2.79802
v 0.80415 10.47768 -2.71900
v 0.45050 9.56891 -1.66271
v 1.57937 9.03776 -1.74172
v 0.07652 7.70057 -2.20934
v 0.33117 6.90746 -0.76171
v 1.32417 8.41668 -0.10953
v 1.06952 9.20979 -1.55716
v 1.72612 9.20412 -1.30400
v 2.07573 8.04022 -1.75185
v 1.95965 8.54296 -3.14906
v 1.61003 9.70686 -2.70122
v 1.14358 10.09673 -2.34998
v 1.28053 8.73448 -2.27158
v 2.82980 8.90412 -2.03047
v 2.69284 10.26637 -2.10888
v -0.33108 7.84940 -2.01478
v 0.13683 6.79077 -2.80779
v 1.44558 7.65430 -3.18835
v 0.97767 8.71294 -2.39534
v 1.00321 8.83783 -3.16766
v 0.88826 9.19487 -1.95284
v -0.50757 8.75961 -1.95700
v -0.39261 8.40257 -3.17182
v 1.85016 8.53600 -3.85760
v 1.43463 9.82845 -4.00913
v 0.40076 9.63282 -2.84263
v 0.81629 8.34036 -2.69110
v 1.21320 9.80777 -2.07951
v 0.21795 8.63579 -1.73647
v -0.08392 9.36894 -0.10753
v 0.91133 10.54092 -0.45057
v 1.05531 9.91623 -2.40052
v -0.11214 10.70861 -1.99527
v -0.36365 9.66974 -0.68856
v 0.80379 8.87737 -1.09380
v 0.33662 11.83892 -0.85947
v 1.16488 10.64495 -0.11570
v 1.77102 10.02761 -1.78172
v 0.94276 11.22157 -2.52549
v -1.59670 9.08498 2.08921
v -2.12099 8.24866 0.79771
v -0.64613 8.84239 -0.18548
v -0.12184 9.67871 1.10601
v -2.62516 10.47767 0.72502
v -1.07885 10.36332 1.27028
v -0.84341 8.77697 0.26992
v -2.38972 8.89131 -0.27534
v -2.29962 10.70230 0.60868
v -2.09451 10.57296 1.91194
v -0.58982 10.53041 1.67090
v -0.79493 10.65975 0.36764
v -3.14917 10.12701 0.51151
v -2.57629 9.98416 2.00223
v -1.72043 11.60817 1.82895
v -2.29331 11.75103 0.33823
v -1.95603 9.60672 -0.73725
v -1.86132 9.71413 0.61953
v -0.45603 9.01773 0.57656
v -0.55075 8.91031 -0.78023
v -0.10744 10.38002 0.45010
v -0.38635 10.34220 -0.95290
v -1.99746 10.44990 -0.63552
v -1.71855 10.48772 0.76747
v -2.40121 10.51545 0.31583
v -1.01556 10.38123 0.60338
v -0.65214 10.91750 -0.89754
v -2.03779 11.05171 -1.18509
v -2.09105 9.68984 2.03416
v -1.71189 10.91141 2.51551
v -1.42584 11.40029 1.04950
v -1.80500 10.17873 0.56815
v -2.11433 10.50914 1.97161
v -1.62503 10.60000 0.58748
v -1.82173 12.27954 0.62820
v -2.31103 12.18868 2.01233
v -1.79960 10.55890 1.78030
v -2.86437 10.70973 2.94984
v -3.68855 12.05361 2.02619
v -2.62378 11.90278 0.85664
v -0.81746 10.32940 0.98997
v -1.13535 11.48462 0.44773
v -2.14779 10.79110 -0.43624
v -1.82990 9.63588 0.10599
v -1.05001 10.24749 1.14487
v -1.27564 11.01843 -0.13329
v -2.61500 11.84367 0.60089
v -2.38937 11.07273 1.87905
v -1.17368 10.92377 1.26833
v -0.43834 10.87361 -0.00918
v -1.19661 12.30853 -0.50197
v -1.93195 12.35868 0.77554
v -0.71957 7.15877 -1.21623
v 0.45103 7.77514 -0.65798
v 1.40677 6.81737 -1.60459
v 0.23616 6.20099 -2.16284
v 1.31881 7.70507 -1.14527
v 1.34438 8.44819 -2.18058
v 0.41887 9.38236 -1.53291
v 0.39330 8.63924 -0.49760
v 0.41423 10.74039 -2.20917
v 1.65179 10.16391 -1.18813
v 1.17284 8.31947 -1.64898
v -0.06472 8.89595 -2.67003
v -0.55460 10.13702 -2.24973
v -0.18228 8.86403 -1.24430
v 1.62855 8.90514 -1.86282
v 1.25623 10.17814 -2.86825
v 0.46276 8.86579 -2.85633
v 0.51479 7.56174 -2.18794
v 1.65710 8.16329 -1.10322
v 1.60507 9.46733 -1.77161
v 1.42479 9.49335 -0.89478
v 1.77186 8.48786 -2.20045
v 2.25085 10.03405 -3.26384
v 1.90378 11.03954 -1.95816
v 1.16873 9.00412 -3.34130
v 0.97999 9.89316 -2.01718
v 2.04234 8.71328 -1.07356
v 2.23108 7.82424 -2.39767
v 1.64811 8.38299 -1.40291
v 0.20870 8.82009 -1.43527
v -0.00810 7.99472 -2.94056
v 1.43132 7.55762 -2.90820
v -0.49713 8.79430 -2.10313
v -0.57628 9.56231 -3.53299
v 1.17569 9.03488 -3.91326
v 1.25484 8.26687 -2.48340
v 0.09040 9.87108 -2.57375
v 0.44803 8.66345 -2.68335
v 1.29344 9.01627 -3.81229
v 0.93581 10.22390 -3.70270
v 0.76940 8.38916 -2.94110
v -0.02161 9.11612 -1.92092
v 1.30501 9.06133 -0.85326
v 2.09602 8.33437 -1.87344
v -0.23793 10.02587 -1.55190
v 0.35164 11.05338 -1.10988
v 1.44092 10.22035 -0.62631
v 0.85136 9.19284 -1.06832
v 2.44221 10.33715 -1.78971
v 1.30855 11.25128 -2.27856
v 0.13772 10.27896 -1.38158
v 1.27138 9.36484 -0.89272
v -1.90610 8.95335 -0.13492
v -0.72969 9.97706 0.60870
v -0.38846 8.58525 1.98492
v -1.56487 7.56154 1.24130
v -1.85146 9.58403 1.59220
v -0.78226 8.89022 1.17732
v -0.78384 9.67952 -0.14672
v -1.85304 10.37333 0.26816
v -2.45611 10.70546 -0.00775
v -2.88038 10.72265 1.26597
v -1.61117 11.49926 1.67826
v -1.18690 11.48207 0.40454
v -2.63834 10.92530 -0.26730
v -1.44421 11.03668 0.23700
v -2.02961 11.08199 1.61316
v -3.22374 10.97060 1.10886
v -1.31362 10.38754 -0.87759
v -1.13697 8.90124 -0.69027
v -2.27369 8.93124 0.61975
v -2.45034 10.41754 0.43243
v -2.27991 10.14963 -1.16924
v -3.01782 11.27418 -0.43129
v -1.47741 12.06867 -0.10167
v -0.73950 10.94412 -0.83962
v -1.79855 11.32148 -1.42766
v -0.65312 11.25485 -1.31001
v -0.77354 11.48231 -0.00883
v -1.91897 11.54895 -0.12648
v -2.33231 9.78353 1.20359
v -1.50140 10.46184 0.02873
v -0.73238 11.60485 1.23254
v -1.56329 10.92653 2.40740
v -1.71343 10.14721 1.48478
v -2.60948 11.42191 1.07537
v -1.69802 12.45930 2.31047
v -0.80197 11.18460 2.71987
v -3.66423 10.59371 2.18601
v -2.20892 10.11949 2.36747
v -1.62944 11.74866 1.97767
v -3.08475 12.22287 1.79621
v -1.74008 10.25747 1.94566
v -1.08649 11.20555 1.62815
v -1.52484 11.07398 0.33296
v -2.17843 10.12590 0.65047
v -1.87042 10.25312 -0.45636
v -1.51269 11.83645 -0.57414
v -1.69601 12.01579 1.27984
v -2.05375 10.43245 1.39763
v -1.40668 10.08563 1.58418
v -1.81533 11.29444 1.20376
v -0.78918 11.28368 0.06727
v -0.38052 10.07487 0.44769
v -0.49017 6.47587 -0.85610
v -0.31768 7.11198 -2.33252
v 1.43135 7.59103 -1.92178
v 1.25885 6.95491 -0.44536
v 0.72570 7.12364 -2.54768
v -0.31128 6.88074 -1.45986
v -0.22118 8.56691 -0.99745
v 0.81581 8.80982 -2.08526
vt 0.00000 1.00000
vt 0.20000 1.00000
vt 0.20000 -0.27324
vt 0.00000 -0.27324
vt 0.40000 1.00000
vt 0.40000 -0.27324
vt 0.60000 1.00000
vt 0.60000 -0.27324
vt 0.80000 1.00000
vt 0.80000 -0.27324
vt 1.00000 1.00000
vt 1.00000 -0.27324
vt 0.20000 -1.54648
vt 0.00000 -1.54648
vt 0.40000 -1.54648
vt 0.60000 -1.54648
vt 0.80000 -1.54648
vt 1.00000 -1.54648
vt 0.20000 -2.81972
vt 0.00000 -2.81972
vt 0.40000 -2.81972
vt 0.60000 -2.81972
vt 0.80000 -2.81972
vt 1.00000 -2.81972
vt 0.20000 -4.09296
vt 0.00000 -4.09296
vt 0.40000 -4.09296
vt 0.60000 -4.09296
vt 0.80000 -4.09296
vt 1.00000 -4.09296
vt 0.20000 -5.36620
vt 0.00000 -5.36620
vt 0.40000 -5.36620
vt 0.60000 -5.36620
vt 0.80000 -5.36620
vt 1.00000 -5.36620
vt 0.10000 -6.25746
vt 0.30000 -6.25746
vt 0.50000 -6.25746
vt 0.70000 -6.25746
vt 0.90000 -6.25746
vt 0.25000 1.00000
vt 0.25000 -0.79586
vt 0.00000 -0.79586
vt 0.50000 1.00000
vt 0.50000 -0.79586
vt 0.75000 1.00000
vt 0.75000 -0.79586
vt 1.00000 -0.79586
vt 0.25000 -2.59172
vt 0.00000 -2.59172
vt 0.50000 -2.59172
vt 0.75000 -2.59172
vt 1.00000 -2.59172
vt 0.25000 -4.38759
vt 0.00000 -4.38759
vt 0.50000 -4.38759
vt 0.75000 -4.38759
vt 1.00000 -4.38759
vt 0.25000 -6.18345
vt 0.00000 -6.18345
vt 0.50000 -6.18345
vt 0.75000 -6.18345
vt 1.00000 -6.18345
vt 0.12500 -7.44055
vt 0.37500 -7.44055
vt 0.62500 -7.44055
vt 0.87500 -7.44055
vt 0.33333 1.00000
vt 0.33333 -3.22379
vt 0.00000 -3.22379
vt 0.66667 1.00000
vt 0.66667 -3.22379
vt 1.00000 -3.22379
vt 0.33333 -7.44757
vt 0.00000 -7.44757
vt 0.66667 -7.44757
vt 1.00000 -7.44757
vt 0.16667 -10.40422
vt 0.50000 -10.40422
vt 0.83333 -10.40422
vt 0.33333 -2.75350
vt 0.00000 -2.75350
vt 0.66667 -2.75350
vt 1.00000 -2.75350
vt 0.33333 -6.50700
vt 0.00000 -6.50700
vt 0.66667 -6.50700
vt 1.00000 -6.50700
vt 0.16667 -9.13445
vt 0.50000 -9.13445
vt 0.83333 -9.13445
vt 0.33333 -2.99414
vt 0.00000 -2.99414
vt 0.66667 -2.99414
vt 1.00000 -2.99414
vt 0.33333 -6.98828
vt 0.00000 -6.98828
vt 0.66667 -6.98828
vt 1.00000 -6.98828
vt 0.16667 -9.78417
vt 0.50000 -9.78417
vt 0.83333 -9.78417
vt 0.25000 -0.87520
vt 0.00000 -0.87520
vt 0.50000 -0.87520
vt 0.75000 -0.87520
vt 1.00000 -0.87520
vt 0.25000 -2.75039
vt 0.00000 -2.75039
vt 0.50000 -2.75039
vt 0.75000 -2.75039
vt 1.00000 -2.75039
vt 0.25000 -4.62559
vt 0.00000 -4.62559
vt 0.50000 -4.62559
vt 0.75000 -4.62559
vt 1.00000 -4.62559
vt 0.25000 -6.50078
vt 0.00000 -6.50078
vt 0.50000 -6.50078
vt 0.75000 -6.50078
vt 1.00000 -6.50078
vt 0.12500 -7.81342
vt 0.37500 -7.81342
vt 0.62500 -7.81342
vt 0.87500 -7.81342
vt 0.33333 -3.36625
vt 0.00000 -3.36625
vt 0.66667 -3.36625
vt 1.00000 -3.36625
vt 0.33333 -7.73250
vt 0.00000 -7.73250
vt 0.66667 -7.73250
vt 1.00000 -7.73250
vt 0.16667 -10.78887
vt 0.50000 -10.78887
vt 0.83333 -10.78887
vt 0.33333 -3.69891
vt 0.00000 -3.69891
vt 0.66667 -3.69891
vt 1.00000 -3.69891
vt 0.33333 -8.39782
vt 0.00000 -8.39782
vt 0.66667 -8.39782
vt 1.00000 -8.39782
vt 0.16667 -11.68706
vt 0.50000 -11.68706
vt 0.83333 -11.68706
vt 0.33333 -2.53488
vt 0.00000 -2.53488
vt 0.66667 -2.53488
vt 1.00000 -2.53488
vt 0.33333 -6.06976
vt 0.00000 -6.06976
vt 0.66667 -6.06976
vt 1.00000 -6.06976
vt 0.16667 -8.54417
vt 0.50000 -8.54417
vt 0.83333 -8.54417
vt 0.00000 0.00000
vt 1.00000 0.00000
usemtl bark
f 1/1 2/2 3/3
f 1/1 3/3 4/4
f 2/2 5/5 6/6
f 2/2 6/6 3/3
f 5/5 7/7 8/8
f 5/5 8/8 6/6
f 7/7 9/9 10/10
f 7/7 10/10 8/8
f 9/9 11/11 12/12
f 9/9 12/12 10/10
f 4/4 3/3 13/13
f 4/4 13/13 14/14
f 3/3 6/6 15/15
f 3/3 15/15 13/13
f 6/6 8/8 16/16
f 6/6 16/16 15/15
f 8/8 10/10 17/17
f 8/8 17/17 16/16
f 10/10 12/12 18/18
f 10/10 18/18 17/17
f 14/14 13/13 19/19
f 14/14 19/19 20/20
f 13/13 15/15 21/21
f 13/13 21/21 19/19
f 15/15 16/16 22/22
f 15/15 22/22 21/21
f 16/16 17/17 23/23
f 16/16 23/23 22/22
f 17/17 18/18 24/24
f 17/17 24/24 23/23
f 20/20 19/19 25/25
f 20/20 25/25 26/26
f 19/19 21/21 27/27
f 19/19 27/27 25/25
f 21/21 22/22 28/28
f 21/21 28/28 27/27
f 22/22 23/23 29/29
f 22/22 29/29 28/28
f 23/23 24/24 30/30
f 23/23 30/30 29/29
f 26/26 25/25 31/31
f 26/26 31/31 32/32
f 25/25 27/27 33/33
f 25/25 33/33 31/31
f 27/27 28/28 34/34
f 27/27 34/34 33/33
f 28/28 29/29 35/35
f 28/28 35/35 34/34
f 29/29 30/30 36/36
f 29/29 36/36 35/35
f 32/32 31/31 37/37
f 31/31 33/33 37/38
f 33/33 34/34 37/39
f 34/34 35/35 37/40
f 35/35 36/36 37/41
f 38/1 39/42 40/43
f 38/1 40/43 41/44
f 39/42 42/45 43/46
f 39/42 43/46 40/43
f 42/45 44/47 45/48
f 42/45 45/48 43/46
f 44/47 46/11 41/49
f 44/47 41/49 45/48
f 41/44 40/43 47/50
f 41/44 47/50 48/51
f 40/43 43/46 49/52
f 40/43 49/52 47/50
f 43/46 45/48 50/53
f 43/46 50/53 49/52
f 45/48 41/49 48/54
f 45/48 48/54 50/53
f 48/51 47/50 51/55
f 48/51 51/55 52/56
f 47/50 49/52 53/57
f 47/50 53/57 51/55
f 49/52 50/53 54/58
f 49/52 54/58 53/57
f 50/53 48/54 52/59
f 50/53 52/59 54/58
f 52/56 51/55 55/60
f 52/56 55/60 56/61
f 51/55 53/57 57/62
f 51/55 57/62 55/60
f 53/57 54/58 58/63
f 53/57 58/63 57/62
f 54/58 52/59 56/64
f 54/58 56/64 58/63
f 56/61 55/60 59/65
f 55/60 57/62 59/66
f 57/62 58/63 59/67
f 58/63 56/64 59/68
f 60/1 61/69 62/70
f 60/1 62/70 63/71
f 61/69 64/72 65/73
f 61/69 65/73 62/70
f 64/72 60/11 63/74
f 64/72 63/74 65/73
f 63/71 62/70 66/75
f 63/71 66/75 67/76
f 62/70 65/73 68/77
f 62/70 68/77 66/75
f 65/73 63/74 67/78
f 65/73 67/78 68/77
f 67/76 66/75 69/79
f 66/75 68/77 69/80
f 68/77 67/78 69/81
f 70/1 71/69 72/82
f 70/1 72/82 73/83
f 71/69 74/72 75/84
f 71/69 75/84 72/82
f 74/72 70/11 73/85
f 74/72 73/85 75/84
f 73/83 72/82 76/86
f 73/83 76/86 77/87
f 72/82 75/84 78/88
f 72/82 78/88 76/86
f 75/84 73/85 77/89
f 75/84 77/89 78/88
f 77/87 76/86 79/90
f 76/86 78/88 79/91
f 78/88 77/89 79/92
f 80/1 81/69 82/93
f 80/1 82/93 83/94
f 81/69 84/72 85/95
f 81/69 85/95 82/93
f 84/72 80/11 83/96
f 84/72 83/96 85/95
f 83/94 82/93 86/97
f 83/94 86/97 87/98
f 82/93 85/95 88/99
f 82/93 88/99 86/97
f 85/95 83/96 89/100
f 85/95 89/100 88/99
f 87/98 86/97 90/101
f 86/97 88/99 90/102
f 88/99 89/100 90/103
f 91/1 92/42 93/104
f 91/1 93/104 94/105
f 92/42 95/45 96/106
f 92/42 96/106 93/104
f 95/45 97/47 98/107
f 95/45 98/107 96/106
f 97/47 99/11 94/108
f 97/47 94/108 98/107
f 94/105 93/104 100/109
f 94/105 100/109 101/110
f 93/104 96/106 102/111
f 93/104 102/111 100/109
f 96/106 98/107 103/112
f 96/106 103/112 102/111
f 98/107 94/108 101/113
f 98/107 101/113 103/112
f 101/110 100/109 104/114
f 101/110 104/114 105/115
f 100/109 102/111 106/116
f 100/109 106/116 104/114
f 102/111 103/112 107/117
f 102/111 107/117 106/116
f 103/112 101/113 105/118
f 103/112 105/118 107/117
f 105/115 104/114 108/119
f 105/115 108/119 109/120
f 104/114 106/116 110/121
f 104/114 110/121 108/119
f 106/116 107/117 111/122
f 106/116 111/122 110/121
f 107/117 105/118 109/123
f 107/117 109/123 111/122
f 109/120 108/119 112/124
f 108/119 110/121 112/125
f 110/121 111/122 112/126
f 111/122 109/123 112/127
f 113/1 114/69 115/128
f 113/1 115/128 116/129
f 114/69 117/72 118/130
f 114/69 118/130 115/128
f 117/72 113/11 119/131
f 117/72 119/131 118/130
f 116/129 115/128 120/132
f 116/129 120/132 121/133
f 115/128 118/130 122/134
f 115/128 122/134 120/132
f 118/130 119/131 121/135
f 118/130 121/135 122/134
f 121/133 120/132 123/136
f 120/132 122/134 123/137
f 122/134 121/135 123/138
f 124/1 125/69 126/139
f 124/1 126/139 127/140
f 125/69 128/72 129/141
f 125/69 129/141 126/139
f 128/72 124/11 127/142
f 128/72 127/142 129/141
f 127/140 126/139 130/143
f 127/140 130/143 131/144
f 126/139 129/141 132/145
f 126/139 132/145 130/143
f 129/141 127/142 131/146
f 129/141 131/146 132/145
f 131/144 130/143 133/147
f 130/143 132/145 133/148
f 132/145 131/146 133/149
f 134/1 135/69 136/150
f 134/1 136/150 137/151
f 135/69 138/72 139/152
f 135/69 139/152 136/150
f 138/72 134/11 137/153
f 138/72 137/153 139/152
f 137/151 136/150 140/154
f 137/151 140/154 141/155
f 136/150 139/152 142/156
f 136/150 142/156 140/154
f 139/152 137/153 141/157
f 139/152 141/157 142/156
f 141/155 140/154 143/158
f 140/154 142/156 143/159
f 142/156 141/157 143/160
usemtl leaf
f 144/161 145/162 146/11
f 144/161 146/11 147/1
f 148/161 149/162 150/11
f 148/161 150/11 151/1
f 152/161 153/162 154/11
f 152/161 154/11 155/1
f 156/161 157/162 158/11
f 156/161 158/11 159/1
f 160/161 161/162 162/11
f 160/161 162/11 163/1
f 164/161 165/162 166/11
f 164/161 166/11 167/1
f 168/161 169/162 170/11
f 168/161 170/11 171/1
f 172/161 173/162 174/11
f 172/161 174/11 175/1
f 176/161 177/162 178/11
f 176/161 178/11 179/1
f 180/161 181/162 182/11
f 180/161 182/11 183/1
f 184/161 185/162 186/11
f 184/161 186/11 187/1
f 188/161 189/162 190/11
f 188/161 190/11 191/1
f 192/161 193/162 194/11
f 192/161 194/11 195/1
f 196/161 197/162 198/11
f 196/161 198/11 199/1
f 200/161 201/162 202/11
f 200/161 202/11 203/1
f 204/161 205/162 206/11
f 204/161 206/11 207/1
f 208/161 209/162 210/11
f 208/161 210/11 211/1
f 212/161 213/162 214/11
f 212/161 214/11 215/1
f 216/161 217/162 218/11
f 216/161 218/11 219/1
f 220/161 221/162 222/11
f 220/161 222/11 223/1
f 224/161 225/162 226/11
f 224/161 226/11 227/1
f 228/161 229/162 230/11
f 228/161 230/11 231/1
f 232/161 233/162 234/11
f 232/161 234/11 235/1
f 236/161 237/162 238/11
f 236/161 238/11 239/1
f 240/161 241/162 242/11
f 240/161 242/11 243/1
f 244/161 245/162 246/11
f 244/161 246/11 247/1
f 248/161 249/162 250/11
f 248/161 250/11 251/1
f 252/161 253/162 254/11
f 252/161 254/11 255/1
f 256/161 257/162 258/11
f 256/161 258/11 259/1
f 260/161 261/162 262/11
f 260/161 262/11 263/1
f 264/161 265/162 266/11
f 264/161 266/11 267/1
f 268/161 269/162 270/11
f 268/161 270/11 271/1
f 272/161 273/162 274/11
f 272/161 274/11 275/1
f 276/161 277/162 278/11
f 276/161 278/11 279/1
f 280/161 281/162 282/11
f 280/161 282/11 283/1
f 284/161 285/162 286/11
f 284/161 286/11 287/1
f 288/161 289/162 290/11
f 288/161 290/11 291/1
f 292/161 293/162 294/11
f 292/161 294/11 295/1
f 296/161 297/162 298/11
f 296/161 298/11 299/1
f 300/161 301/162 302/11
f 300/161 302/11 303/1
f 304/161 305/162 306/11
f 304/161 306/11 307/1
f 308/161 309/162 310/11
f 308/161 310/11 311/1
f 312/161 313/162 314/11
f 312/161 314/11 315/1
f 316/161 317/162 318/11
f 316/161 318/11 319/1
f 320/161 321/162 322/11
f 320/161 322/11 323/1
f 324/161 325/162 326/11
f 324/161 326/11 327/1
f 328/161 329/162 330/11
f 328/161 330/11 331/1
f 332/161 333/162 334/11
f 332/161 334/11 335/1
f 336/161 337/162 338/11
f 336/161 338/11 339/1
f 340/161 341/162 342/11
f 340/161 342/11 343/1
f 344/161 345/162 346/11
f 344/161 346/11 347/1
f 348/161 349/162 350/11
f 348/161 350/11 351/1
f 352/161 353/162 354/11
f 352/161 354/11 355/1
f 356/161 357/162 358/11
f 356/161 358/11 359/1
f 360/161 361/162 362/11
f 360/161 362/11 363/1
f 364/161 365/162 366/11
f 364/161 366/11 367/1
f 368/161 369/162 370/11
f 368/161 370/11 371/1
f 372/161 373/162 374/11
f 372/161 374/11 375/1
f 376/161 377/162 378/11
f 376/161 378/11 379/1
f 380/161 381/162 382/11
f 380/161 382/11 383/1
f 384/161 385/162 386/11
f 384/161 386/11 387/1
f 388/161 389/162 390/11
f 388/161 390/11 391/1
f 392/161 393/162 394/11
f 392/161 394/11 395/1
f 396/161 397/162 398/11
f 396/161 398/11 399/1
f 400/161 401/162 402/11
f 400/161 402/11 403/1
f 404/161 405/162 406/11
f 404/161 406/11 407/1
f 408/161 409/162 410/11
f 408/161 410/11 411/1
f 412/161 413/162 414/11
f 412/161 414/11 415/1
f 416/161 417/162 418/11
f 416/161 418/11 419/1
f 420/161 421/162 422/11
f 420/161 422/11 423/1
f 424/161 425/162 426/11
f 424/161 426/11 427/1
f 428/161 429/162 430/11
f 428/161 430/11 431/1
f 432/161 433/162 434/11
f 432/161 434/11 435/1
f 436/161 437/162 438/11
f 436/161 438/11 439/1
f 440/161 441/162 442/11
f 440/161 442/11 443/1
f 444/161 445/162 446/11
f 444/161 446/11 447/1
f 448/161 449/162 450/11
f 448/161 450/11 451/1
f 452/161 453/162 454/11
f 452/161 454/11 455/1
f 456/161 457/162 458/11
f 456/161 458/11 459/1
f 460/161 461/162 462/11
f 460/161 462/11 463/1
f 464/161 465/162 466/11
f 464/161 466/11 467/1
f 468/161 469/162 470/11
f 468/161 470/11 471/1
f 472/161 473/162 474/11
f 472/161 474/11 475/1
f 476/161 477/162 478/11
f 476/161 478/11 479/1
f 480/161 481/162 482/11
f 480/161 482/11 483/1
f 484/161 485/162 486/11
f 484/161 486/11 487/1
f 488/161 489/162 490/11
f 488/161 490/11 491/1
f 492/161 493/162 494/11
f 492/161 494/11 495/1
f 496/161 497/162 498/11
f 496/161 498/11 499/1
f 500/161 501/162 502/11
f 500/161 502/11 503/1
f 504/161 505/162 506/11
f 504/161 506/11 507/1
f 508/161 509/162 510/11
f 508/161 510/11 511/1
f 512/161 513/162 514/11
f 512/161 514/11 515/1
f 516/161 517/162 518/11
f 516/161 518/11 519/1
f 520/161 521/162 522/11
f 520/161 522/11 523/1
f 524/161 525/162 526/11
f 524/161 526/11 527/1
f 528/161 529/162 530/11
f 528/161 530/11 531/1
f 532/161 533/162 534/11
f 532/161 534/11 535/1
f 536/161 537/162 538/11
f 536/161 538/11 539/1
f 540/161 541/162 542/11
f 540/161 542/11 543/1
f 544/161 545/162 546/11
f 544/161 546/11 547/1
f 548/161 549/162 550/11
f 548/161 550/11 551/1
f 552/161 553/162 554/11
f 552/161 554/11 555/1
f 556/161 557/162 558/11
f 556/161 558/11 559/1
f 560/161 561/162 562/11
f 560/161 562/11 563/1
f 564/161 565/162 566/11
f 564/161 566/11 567/1
f 568/161 569/162 570/11
f 568/161 570/11 571/1
f 572/161 573/162 574/11
f 572/161 574/11 575/1
f 576/161 577/162 578/11
f 576/161 578/11 579/1
f 580/161 581/162 582/11
f 580/161 582/11 583/1
f 584/161 585/162 586/11
f 584/161 586/11 587/1
f 588/161 589/162 590/11
f 588/161 590/11 591/1
f 592/161 593/162 594/11
f 592/161 594/11 595/1
f 596/161 597/162 598/11
f 596/161 598/11 599/1
f 600/161 601/162 602/11
f 600/161 602/11 603/1
f 604/161 605/162 606/11
f 604/161 606/11 607/1
f 608/161 609/162 610/11
f 608/161 610/11 611/1
f 612/161 613/162 614/11
f 612/161 614/11 615/1
f 616/161 617/162 618/11
f 616/161 618/11 619/1
f 620/161 621/162 622/11
f 620/161 622/11 623/1
f 624/161 625/162 626/11
f 624/161 626/11 627/1
f 628/161 629/162 630/11
f 628/161 630/11 631/1
f 632/161 633/162 634/11
f 632/161 634/11 635/1
f 636/161 637/162 638/11
f 636/161 638/11 639/1
f 640/161 641/162 642/11
f 640/161 642/11 643/1
f 644/161 645/162 646/11
f 644/161 646/11 647/1
f 648/161 649/162 650/11
f 648/161 650/11 651/1
f 652/161 653/162 654/11
f 652/161 654/11 655/1
f 656/161 657/162 658/11
f 656/161 658/11 659/1
f 660/161 661/162 662/11
f 660/161 662/11 663/1
f 664/161 665/162 666/11
f 664/161 666/11 667/1
f 668/161 669/162 670/11
f 668/161 670/11 671/1
f 672/161 673/162 674/11
f 672/161 674/11 675/1
f 676/161 677/162 678/11
f 676/161 678/11 679/1
f 680/161 681/162 682/11
f 680/161 682/11 683/1
f 684/161 685/162 686/11
f 684/161 686/11 687/1
f 688/161 689/162 690/11
f 688/161 690/11 691/1
f 692/161 693/162 694/11
f 692/161 694/11 695/1
f 696/161 697/162 698/11
f 696/161 698/11 699/1
f 700/161 701/162 702/11
f 700/161 702/11 703/1
f 704/161 705/162 706/11
f 704/161 706/11 707/1
f 708/161 709/162 710/11
f 708/161 710/11 711/1
f 712/161 713/162 714/11
f 712/161 714/11 715/1
f 716/161 717/162 718/11
f 716/161 718/11 719/1
f 720/161 721/162 722/11
f 720/161 722/11 723/1
f 724/161 725/162 726/11
f 724/161 726/11 727/1
f 728/161 729/162 730/11
f 728/161 730/11 731/1
f 732/161 733/162 734/11
f 732/161 734/11 735/1
f 736/161 737/162 738/11
f 736/161 738/11 739/1
f 740/161 741/162 742/11
f 740/161 742/11 743/1
f 744/161 745/162 746/11
f 744/161 746/11 747/1
f 748/161 749/162 750/11
f 748/161 750/11 751/1
f 752/161 753/162 754/11
f 752/161 754/11 755/1
f 756/161 757/162 758/11
f 756/161 758/11 759/1
f 760/161 761/162 762/11
f 760/161 762/11 763/1
f 764/161 765/162 766/11
f 764/161 766/11 767/1
f 768/161 769/162 770/11
f 768/161 770/11 771/1
f 772/161 773/162 774/11
f 772/161 774/11 775/1
f 776/161 777/162 778/11
f 776/161 778/11 779/1
f 780/161 781/162 782/11
f 780/161 782/11 783/1
f 784/161 785/162 786/11
f 784/161 786/11 787/1
f 788/161 789/162 790/11
f 788/161 790/11 791/1
f 792/161 793/162 794/11
f 792/161 794/11 795/1
f 796/161 797/162 798/11
f 796/161 798/11 799/1
f 800/161 801/162 802/11
f 800/161 802/11 803/1
f 804/161 805/162 806/11
f 804/161 806/11 807/1
f 808/161 809/162 810/11
f 808/161 810/11 811/1
f 812/161 813/162 814/11
f 812/161 814/11 815/1
f 816/161 817/162 818/11
f 816/161 818/11 819/1
f 820/161 821/162 822/11
f 820/161 822/11 823/1
f 824/161 825/162 826/11
f 824/161 826/11 827/1
f 828/161 829/162 830/11
f 828/161 830/11 831/1
f 832/161 833/162 834/11
f 832/161 834/11 835/1
f 836/161 837/162 838/11
f 836/161 838/11 839/1
f 840/161 841/162 842/11
f 840/161 842/11 843/1
f 844/161 845/162 846/11
f 844/161 846/11 847/1
f 848/161 849/162 850/11
f 848/161 850/11 851/1
f 852/161 853/162 854/11
f 852/161 854/11 855/1
f 856/161 857/162 858/11
f 856/161 858/11 859/1
f 860/161 861/162 862/11
f 860/161 862/11 863/1
f 864/161 865/162 866/11
f 864/161 866/11 867/1
f 868/161 869/162 870/11
f 868/161 870/11 871/1
f 872/161 873/162 874/11
f 872/161 874/11 875/1
f 876/161 877/162 878/11
f 876/161 878/11 879/1
f 880/161 881/162 882/11
f 880/161 882/11 883/1
f 884/161 885/162 886/11
f 884/161 886/11 887/1
f 888/161 889/162 890/11
f 888/161 890/11 891/1
f 892/161 893/162 894/11
f 892/161 894/11 895/1
f 896/161 897/162 898/11
f 896/161 898/11 899/1
f 900/161 901/162 902/11
f 900/161 902/11 903/1
f 904/161 905/162 906/11
f 904/161 906/11 907/1
f 908/161 909/162 910/11
f 908/161 910/11 911/1
f 912/161 913/162 914/11
f 912/161 914/11 915/1
f 916/161 917/162 918/11
f 916/161 918/11 919/1
f 920/161 921/162 922/11
f 920/161 922/11 923/1
f 924/161 925/162 926/11
f 924/161 926/11 927/1
f 928/161 929/162 930/11
f 928/161 930/11 931/1
f 932/161 933/162 934/11
f 932/161 934/11 935/1
f 936/161 937/162 938/11
f 936/161 938/11 939/1
f 940/161 941/162 942/11
f 940/161 942/11 943/1
f 944/161 945/162 946/11
f 944/161 946/11 947/1
f 948/161 949/162 950/11
f 948/161 950/11 951/1
f 952/161 953/162 954/11
f 952/161 954/11 955/1
f 956/161 957/162 958/11
f 956/161 958/11 959/1
f 960/161 961/162 962/11
f 960/161 962/11 963/1
f 964/161 965/162 966/11
f 964/161 966/11 967/1
f 968/161 969/162 970/11
f 968/161 970/11 971/1
f 972/161 973/162 974/11
f 972/161 974/11 975/1
f 976/161 977/162 978/11
f 976/161 978/11 979/1
f 980/161 981/162 982/11
f 980/161 982/11 983/1
f 984/161 985/162 986/11
f 984/161 986/11 987/1
f 988/161 989/162 990/11
f 988/161 990/11 991/1
f 992/161 993/162 994/11
f 992/161 994/11 995/1
f 996/161 997/162 998/11
f 996/161 998/11 999/1
f 1000/161 1001/162 1002/11
f 1000/161 1002/11 1003/1
f 1004/161 1005/162 1006/11
f 1004/161 1006/11 1007/1
f 1008/161 1009/162 1010/11
f 1008/161 1010/11 1011/1
f 1012/161 1013/162 1014/11
f 1012/161 1014/11 1015/1
f 1016/161 1017/162 1018/11
f 1016/161 1018/11 1019/1
f 1020/161 1021/162 1022/11
f 1020/161 1022/11 1023/1
f 1024/161 1025/162 1026/11
f 1024/161 1026/11 1027/1
f 1028/161 1029/162 1030/11
f 1028/161 1030/11 1031/1
f 1032/161 1033/162 1034/11
f 1032/161 1034/11 1035/1
f 1036/161 1037/162 1038/11
f 1036/161 1038/11 1039/1
f 1040/161 1041/162 1042/11
f 1040/161 1042/11 1043/1
f 1044/161 1045/162 1046/11
f 1044/161 1046/11 1047/1
f 1048/161 1049/162 1050/11
f 1048/161 1050/11 1051/1
f 1052/161 1053/162 1054/11
f 1052/161 1054/11 1055/1
f 1056/161 1057/162 1058/11
f 1056/161 1058/11 1059/1
f 1060/161 1061/162 1062/11
f 1060/161 1062/11 1063/1
f 1064/161 1065/162 1066/11
f 1064/161 1066/11 1067/1
f 1068/161 1069/162 1070/11
f 1068/161 1070/11 1071/1
f 1072/161 1073/162 1074/11
f 1072/161 1074/11 1075/1
f 1076/161 1077/162 1078/11
f 1076/161 1078/11 1079/1
f 1080/161 1081/162 1082/11
f 1080/161 1082/11 1083/1
f 1084/161 1085/162 1086/11
f 1084/161 1086/11 1087/1
f 1088/161 1089/162 1090/11
f 1088/161 1090/11 1091/1
f 1092/161 1093/162 1094/11
f 1092/161 1094/11 1095/1
f 1096/161 1097/162 1098/11
f 1096/161 1098/11 1099/1
f 1100/161 1101/162 1102/11
f 1100/161 1102/11 1103/1
f 1104/161 1105/162 1106/11
f 1104/161 1106/11 1107/1
f 1108/161 1109/162 1110/11
f 1108/161 1110/11 1111/1
f 1112/161 1113/162 1114/11
f 1112/161 1114/11 1115/1
f 1116/161 1117/162 1118/11
f 1116/161 1118/11 1119/1
f 1120/161 1121/162 1122/11
f 1120/161 1122/11 1123/1
f 1124/161 1125/162 1126/11
f 1124/161 1126/11 1127/1
f 1128/161 1129/162 1130/11
f 1128/161 1130/11 1131/1
f 1132/161 1133/162 1134/11
f 1132/161 1134/11 1135/1
f 1136/161 1137/162 1138/11
f 1136/161 1138/11 1139/1
f 1140/161 1141/162 1142/11
f 1140/161 1142/11 1143/1
f 1144/161 1145/162 1146/11
f 1144/161 1146/11 1147/1
f 1148/161 1149/162 1150/11
f 1148/161 1150/11 1151/1
f 1152/161 1153/162 1154/11
f 1152/161 1154/11 1155/1
f 1156/161 1157/162 1158/11
f 1156/161 1158/11 1159/1
f 1160/161 1161/162 1162/11
f 1160/161 1162/11 1163/1
f 1164/161 1165/162 1166/11
f 1164/161 1166/11 1167/1
f 1168/161 1169/162 1170/11
f 1168/161 1170/11 1171/1
f 1172/161 1173/162 1174/11
f 1172/161 1174/11 1175/1
f 1176/161 1177/162 1178/11
f 1176/161 1178/11 1179/1
f 1180/161 1181/162 1182/11
f 1180/161 1182/11 1183/1
f 1184/161 1185/162 1186/11
f 1184/161 1186/11 1187/1
f 1188/161 1189/162 1190/11
f 1188/161 1190/11 1191/1
f 1192/161 1193/162 1194/11
f 1192/161 1194/11 1195/1
f 1196/161 1197/162 1198/11
f 1196/161 1198/11 1199/1
f 1200/161 1201/162 1202/11
f 1200/161 1202/11 1203/1
f 1204/161 1205/162 1206/11
f 1204/161 1206/11 1207/1
f 1208/161 1209/162 1210/11
f 1208/161 1210/11 1211/1
f 1212/161 1213/162 1214/11
f 1212/161 1214/11 1215/1
f 1216/161 1217/162 1218/11
f 1216/161 1218/11 1219/1
f 1220/161 1221/162 1222/11
f 1220/161 1222/11 1223/1
f 1224/161 1225/162 1226/11
f 1224/161 1226/11 1227/1
f 1228/161 1229/162 1230/11
f 1228/161 1230/11 1231/1
f 1232/161 1233/162 1234/11
f 1232/161 1234/11 1235/1
f 1236/161 1237/162 1238/11
f 1236/161 1238/11 1239/1
f 1240/161 1241/162 1242/11
f 1240/161 1242/11 1243/1
f 1244/161 1245/162 1246/11
f 1244/161 1246/11 1247/1
f 1248/161 1249/162 1250/11
f 1248/161 1250/11 1251/1
f 1252/161 1253/162 1254/11
f 1252/161 1254/11 1255/1
f 1256/161 1257/162 1258/11
f 1256/161 1258/11 1259/1
f 1260/161 1261/162 1262/11
f 1260/161 1262/11 1263/1
f 1264/161 1265/162 1266/11
f 1264/161 1266/11 1267/1
f 1268/161 1269/162 1270/11
f 1268/161 1270/11 1271/1
f 1272/161 1273/162 1274/11
f 1272/161 1274/11 1275/1
f 1276/161 1277/162 1278/11
f 1276/161 1278/11 1279/1
f 1280/161 1281/162 1282/11
f 1280/161 1282/11 1283/1
f 1284/161 1285/162 1286/11
f 1284/161 1286/11 1287/1
f 1288/161 1289/162 1290/11
f 1288/161 1290/11 1291/1
f 1292/161 1293/162 1294/11
f 1292/161 1294/11 1295/1
f 1296/161 1297/162 1298/11
f 1296/161 1298/11 1299/1
f 1300/161 1301/162 1302/11
f 1300/161 1302/11 1303/1
f 1304/161 1305/162 1306/11
f 1304/161 1306/11 1307/1
f 1308/161 1309/162 1310/11
f 1308/161 1310/11 1311/1
f 1312/161 1313/162 1314/11
f 1312/161 1314/11 1315/1
f 1316/161 1317/162 1318/11
f 1316/161 1318/11 1319/1
f 1320/161 1321/162 1322/11
f 1320/161 1322/11 1323/1
f 1324/161 1325/162 1326/11
f 1324/161 1326/11 1327/1
f 1328/161 1329/162 1330/11
f 1328/161 1330/11 1331/1
f 1332/161 1333/162 1334/11
f 1332/161 1334/11 1335/1
f 1336/161 1337/162 1338/11
f 1336/161 1338/11 1339/1
f 1340/161 1341/162 1342/11
f 1340/161 1342/11 1343/1
f 1344/161 1345/162 1346/11
f 1344/161 1346/11 1347/1
f 1348/161 1349/162 1350/11
f 1348/161 1350/11 1351/1
f 1352/161 1353/162 1354/11
f 1352/161 1354/11 1355/1
f 1356/161 1357/162 1358/11
f 1356/161 1358/11 1359/1
f 1360/161 1361/162 1362/11
f 1360/161 1362/11 1363/1
f 1364/161 1365/162 1366/11
f 1364/161 1366/11 1367/1
f 1368/161 1369/162 1370/11
f 1368/161 1370/11 1371/1
f 1372/161 1373/162 1374/11
f 1372/161 1374/11 1375/1
f 1376/161 1377/162 1378/11
f 1376/161 1378/11 1379/1
f 1380/161 1381/162 1382/11
f 1380/161 1382/11 1383/1
f 1384/161 1385/162 1386/11
f 1384/161 1386/11 1387/1
f 1388/161 1389/162 1390/11
f 1388/161 1390/11 1391/1
f 1392/161 1393/162 1394/11
f 1392/161 1394/11 1395/1
f 1396/161 1397/162 1398/11
f 1396/161 1398/11 1399/1
f 1400/161 1401/162 1402/11
f 1400/161 1402/11 1403/1
f 1404/161 1405/162 1406/11
f 1404/161 1406/11 1407/1
f 1408/161 1409/162 1410/11
f 1408/161 1410/11 1411/1
f 1412/161 1413/162 1414/11
f 1412/161 1414/11 1415/1
f 1416/161 1417/162 1418/11
f 1416/161 1418/11 1419/1
f 1420/161 1421/162 1422/11
f 1420/161 1422/11 1423/1
f 1424/161 1425/162 1426/11
f 1424/161 1426/11 1427/1
f 1428/161 1429/162 1430/11
f 1428/161 1430/11 1431/1
f 1432/161 1433/162 1434/11
f 1432/161 1434/11 1435/1
f 1436/161 1437/162 1438/11
f 1436/161 1438/11 1439/1
f 1440/161 1441/162 1442/11
f 1440/161 1442/11 1443/1
f 1444/161 1445/162 1446/11
f 1444/161 1446/11 1447/1
f 1448/161 1449/162 1450/11
f 1448/161 1450/11 1451/1
f 1452/161 1453/162 1454/11
f 1452/161 1454/11 1455/1
f 1456/161 1457/162 1458/11
f 1456/161 1458/11 1459/1
f 1460/161 1461/162 1462/11
f 1460/161 1462/11 1463/1
f 1464/161 1465/162 1466/11
f 1464/161 1466/11 1467/1
f 1468/161 1469/162 1470/11
f 1468/161 1470/11 1471/1
f 1472/161 1473/162 1474/11
f 1472/161 1474/11 1475/1
f 1476/161 1477/162 1478/11
f 1476/161 1478/11 1479/1
f 1480/161 1481/162 1482/11
f 1480/161 1482/11 1483/1
f 1484/161 1485/162 1486/11
f 1484/161 1486/11 1487/1
f 1488/161 1489/162 1490/11
f 1488/161 1490/11 1491/1
f 1492/161 1493/162 1494/11
f 1492/161 1494/11 1495/1
f 1496/161 1497/162 1498/11
f 1496/161 1498/11 1499/1
f 1500/161 1501/162 1502/11
f 1500/161 1502/11 1503/1
