# TyraX cylindrical impostor: select one part
mtllib silver-birch-impostor.mtl
usemtl view0
v -3.90202 -0.384776 0
v 3.64045 -0.384776 0
v 3.64045 13.2106 0
v -3.90202 13.2106 0
vt 0 0.5
vt 0.25 0.5
vt 0.25 1
vt 0 1
f 1/1 2/2 3/3
f 1/1 3/3 4/4
usemtl view1
v -4.38549 -0.384776 0
v 4.40348 -0.384776 0
v 4.40348 13.2106 0
v -4.38549 13.2106 0
vt 0.25 0.5
vt 0.5 0.5
vt 0.5 1
vt 0.25 1
f 5/5 6/6 7/7
f 5/5 7/7 8/8
usemtl view2
v -3.43412 -0.384776 0
v 4.36381 -0.384776 0
v 4.36381 13.2106 0
v -3.43412 13.2106 0
vt 0.5 0.5
vt 0.75 0.5
vt 0.75 1
vt 0.5 1
f 9/9 10/10 11/11
f 9/9 11/11 12/12
usemtl view3
v -1.49118 -0.384776 0
v 3.27961 -0.384776 0
v 3.27961 13.2106 0
v -1.49118 13.2106 0
vt 0.75 0.5
vt 1 0.5
vt 1 1
vt 0.75 1
f 13/13 14/14 15/15
f 13/13 15/15 16/16
usemtl view4
v -3.64045 -0.384776 0
v 3.90202 -0.384776 0
v 3.90202 13.2106 0
v -3.64045 13.2106 0
vt 0 0
vt 0.25 0
vt 0.25 0.5
vt 0 0.5
f 17/17 18/18 19/19
f 17/17 19/19 20/20
usemtl view5
v -4.40349 -0.384776 0
v 4.38549 -0.384776 0
v 4.38549 13.2106 0
v -4.40349 13.2106 0
vt 0.25 0
vt 0.5 0
vt 0.5 0.5
vt 0.25 0.5
f 21/21 22/22 23/23
f 21/21 23/23 24/24
usemtl view6
v -4.36381 -0.384776 0
v 3.43412 -0.384776 0
v 3.43412 13.2106 0
v -4.36381 13.2106 0
vt 0.5 0
vt 0.75 0
vt 0.75 0.5
vt 0.5 0.5
f 25/25 26/26 27/27
f 25/25 27/27 28/28
usemtl view7
v -3.27961 -0.384776 0
v 1.49118 -0.384776 0
v 1.49118 13.2106 0
v -3.27961 13.2106 0
vt 0.75 0
vt 1 0
vt 1 0.5
vt 0.75 0.5
f 29/29 30/30 31/31
f 29/29 31/31 32/32
