# Generated by TyraX Tree Generator (seed 5729, 1016 triangles)
mtllib young-oak.mtl
v 0.00000 0.00000 -0.41925
v -0.36308 0.00000 -0.20962
v -0.25673 1.29291 -0.23351
v 0.01975 1.27954 -0.39298
v -0.36308 0.00000 0.20963
v -0.25645 1.31110 0.08543
v 0.00000 0.00000 0.41925
v 0.02031 1.31593 0.24490
v 0.36308 0.00000 0.20962
v 0.29680 1.30256 0.08543
v 0.36308 0.00000 -0.20963
v 0.29652 1.28437 -0.23351
v -0.00000 0.00000 -0.41925
v 0.01975 1.27954 -0.39298
v -0.11247 2.59943 -0.28027
v 0.10681 2.57700 -0.40636
v -0.11218 2.61484 -0.02680
v 0.10739 2.60783 0.10059
v 0.32667 2.58541 -0.02550
v 0.32638 2.56999 -0.27898
v 0.10681 2.57700 -0.40636
v -0.05656 3.88820 -0.32169
v 0.12568 3.88041 -0.42689
v -0.05635 3.89852 -0.11138
v 0.12608 3.90104 -0.00627
v 0.30832 3.89324 -0.11147
v 0.30811 3.88292 -0.32178
v 0.12568 3.88041 -0.42689
v 0.00288 5.18777 -0.37401
v 0.15827 5.17919 -0.46364
v 0.00307 5.19712 -0.19466
v 0.15865 5.19790 -0.10494
v 0.31404 5.18932 -0.19457
v 0.31385 5.17997 -0.37392
v 0.15827 5.17919 -0.46364
v 0.03213 6.47401 -0.49703
v 0.16515 6.46522 -0.57357
v 0.03233 6.49014 -0.34415
v 0.16556 6.49748 -0.26782
v 0.29858 6.48870 -0.34436
v 0.29838 6.47257 -0.49723
v 0.16515 6.46522 -0.57357
v 0.17018 7.38632 -0.51617
v 0.25752 2.63908 -0.12254
v 0.21526 2.54409 -0.26100
v 0.44103 3.21095 -0.79628
v 0.47934 3.29744 -0.67519
v 0.05118 2.58037 -0.30273
v 0.29313 3.23731 -0.82858
v -0.00797 2.69778 -0.19005
v 0.24003 3.34010 -0.72744
v 0.11956 2.73407 -0.07869
v 0.35512 3.37726 -0.63264
v 0.25752 2.63908 -0.12254
v 0.70143 3.87955 -1.30473
v 0.73356 3.95156 -1.19616
v 0.57397 3.90701 -1.33647
v 0.52733 3.99599 -1.24751
v 0.62596 4.02352 -1.16079
v 0.91277 4.56201 -1.82628
v 0.94072 4.62506 -1.73462
v 0.80191 4.58028 -1.84941
v 0.76135 4.65462 -1.77203
v 0.84713 4.68229 -1.70109
v 1.08515 5.29409 -2.30031
v 1.10692 5.34170 -2.22076
v 0.99224 5.30617 -2.31734
v 0.95659 5.36126 -2.24832
v 1.02747 5.38322 -2.18863
v 1.16030 5.83879 -2.58994
v 0.68410 3.96369 -1.20033
v 0.66371 3.91183 -1.30055
v 1.36855 4.36810 -1.60145
v 1.37990 4.40563 -1.52170
v 0.61952 4.01556 -1.27964
v 1.32842 4.44509 -1.58246
v 2.04193 4.88647 -1.86804
v 2.04709 4.91106 -1.81019
v 2.00931 4.93825 -1.85275
v 2.50445 5.26589 -2.03625
v 0.90859 4.62741 -1.80198
v 0.82332 4.58021 -1.81244
v 0.76611 4.94390 -2.75024
v 0.83219 4.98024 -2.74107
v 0.82416 4.67462 -1.78609
v 0.76697 5.01503 -2.72359
v 0.71572 5.40344 -3.64627
v 0.76281 5.42800 -3.63698
v 0.71668 5.45169 -3.62223
v 0.69205 5.74129 -4.26296
v 0.85245 4.64083 -1.83499
v 0.80344 4.64669 -1.75030
v 0.79357 5.55488 -1.85971
v 0.83160 5.54833 -1.92515
v 0.90146 4.64800 -1.75040
v 0.86952 5.55661 -1.85985
v 0.83310 6.46604 -1.94090
v 0.86013 6.46138 -1.98732
v 0.88699 6.46437 -1.94067
v 0.86013 6.46138 -1.98732
v 0.88003 7.10139 -2.00860
v -0.00286 3.92381 -0.22078
v 0.05078 3.83347 -0.12294
v -0.19310 4.42536 0.43640
v -0.23772 4.49806 0.34174
v 0.18848 3.86797 -0.10147
v -0.07160 4.45775 0.45700
v 0.21994 3.97964 -0.18605
v -0.04113 4.55046 0.37508
v 0.10168 4.01415 -0.25979
v -0.14380 4.57538 0.30384
v -0.00286 3.92381 -0.22078
v -0.41226 5.03040 0.98614
v -0.45099 5.09340 0.90301
v -0.30521 5.05631 1.00192
v -0.27778 5.13532 0.92854
v -0.36788 5.15824 0.86740
v -0.45099 5.09340 0.90301
v -0.63831 5.66863 1.49569
v -0.66991 5.71828 1.42097
v -0.54695 5.69121 1.50947
v -0.52208 5.75480 1.44326
v -0.59807 5.77153 1.38856
v -0.81181 6.35702 1.96468
v -0.83699 6.39538 1.90042
v -0.73467 6.37159 1.97313
v -0.71217 6.41895 1.91409
v -0.77541 6.43365 1.86915
v -0.89961 6.86742 2.25519
v -0.40346 5.10719 0.89536
v -0.39298 5.06677 0.98079
v -0.98117 5.56836 1.19841
v -0.98437 5.59578 1.13009
v -0.34722 5.14761 0.96051
v -0.93973 5.62646 1.18005
v -1.50151 6.13045 1.42791
v -1.50331 6.14963 1.37929
v -1.46826 6.16812 1.41342
v -1.85685 6.53617 1.57302
v -0.41794 5.09403 0.96053
v -0.33559 5.04651 0.95990
v -0.37060 5.19790 1.75695
v -0.43432 5.23388 1.74823
v -0.33562 5.14155 0.96272
v -0.37048 5.27045 1.74407
v -0.38885 5.42581 2.52861
v -0.43400 5.45102 2.52082
v -0.38858 5.47615 2.51446
v -0.41221 5.60283 3.06138
v -0.60035 5.73628 1.40315
v -0.63958 5.73178 1.47420
v -0.80038 6.42259 1.41762
v -0.76995 6.42600 1.36257
v -0.56112 5.75295 1.47236
v -0.73920 6.43756 1.41632
v -0.76995 6.42600 1.36257
v -0.92901 7.12192 1.40084
v -0.90762 7.12550 1.36175
v -0.88516 7.13055 1.40007
v -1.00346 7.61408 1.37965
v 0.20224 5.21612 -0.18335
v 0.25704 5.13795 -0.26003
v 0.91783 5.67149 -0.28861
v 0.86717 5.73928 -0.22042
v 0.22440 5.16781 -0.37422
v 0.89150 5.70006 -0.39010
v 0.14944 5.26444 -0.36811
v 0.82457 5.78551 -0.38464
v 0.13574 5.29430 -0.25014
v 0.80953 5.80975 -0.27978
v 0.86717 5.73928 -0.22042
v 1.56908 6.21902 -0.27409
v 1.52136 6.27538 -0.21449
v 1.54904 6.24641 -0.36272
v 1.48894 6.31969 -0.35789
v 1.47183 6.33760 -0.26628
v 2.18661 6.81012 -0.24934
v 2.14230 6.85521 -0.19850
v 2.16874 6.83291 -0.32512
v 2.11339 6.89208 -0.32111
v 2.09705 6.90586 -0.24285
v 2.80214 7.39575 -0.22038
v 2.76532 7.43316 -0.17817
v 2.78759 7.41494 -0.28327
v 2.74179 7.46420 -0.27994
v 2.72802 7.47546 -0.21498
v 3.20132 7.84093 -0.21292
v 1.50402 6.28435 -0.24692
v 1.55738 6.24493 -0.29357
v 2.12284 6.52689 0.23210
v 2.07828 6.55611 0.26543
v 1.54308 6.32377 -0.30606
v 2.10708 6.58615 0.21833
v 2.64399 6.88624 0.75502
v 2.60995 6.90555 0.77643
v 2.62966 6.92654 0.74237
v 2.99546 7.15091 1.12146
v 2.17897 6.86411 -0.24546
v 2.15054 6.83085 -0.29924
v 2.79267 7.19492 -0.84614
v 2.81435 7.22071 -0.80429
v 2.13494 6.89736 -0.28742
v 2.77600 7.24441 -0.83352
v 3.39117 7.63846 -1.38296
v 3.40573 7.65628 -1.35256
v 3.37681 7.67198 -1.37182
v 3.80907 7.96047 -1.74790
v 2.14329 6.88562 -0.30204
v 2.10879 6.87429 -0.24298
v 2.14231 7.57383 -0.09652
v 2.16910 7.58272 -0.14224
v 2.17779 6.86777 -0.24462
v 2.19600 7.57195 -0.09699
v 2.19542 8.28074 0.01968
v 2.21432 8.28514 -0.01314
v 2.23348 8.27840 0.01913
v 2.24609 8.77510 0.09288
v 1.11488 4.05975 -1.28139
v 0.75041 3.80891 -2.14549
v -0.12559 4.47848 -1.97038
v 0.23888 4.72932 -1.10628
v 0.34662 4.12880 -2.25332
v 0.30840 4.69394 -1.43717
v 0.86114 5.52789 -1.98875
v 0.89936 4.96275 -2.80490
v 0.63653 5.57208 -3.41824
v 0.48833 6.28167 -2.61601
v 0.95171 5.46122 -1.80470
v 1.09991 4.75163 -2.60693
v 0.74070 5.24805 -2.39945
v 0.58298 5.90675 -1.88947
v 1.47902 6.25208 -2.05838
v 1.63674 5.59337 -2.56836
v 0.95544 3.98107 -1.65763
v 1.59422 4.05124 -0.98316
v 2.32728 4.34328 -1.70781
v 1.68849 4.27311 -2.38228
v 2.20198 4.59600 -2.10577
v 2.34932 5.28819 -1.46420
v 1.26438 5.39171 -1.32672
v 1.11704 4.69953 -1.96830
v 1.57287 5.18751 -2.41001
v 2.05934 4.68576 -1.62921
v 3.12656 4.97335 -2.10933
v 2.64009 5.47509 -2.89013
v 0.03208 4.71529 -3.19544
v 0.44525 4.07953 -2.48170
v 1.03035 5.00475 -1.99626
v 0.61718 5.64051 -2.71000
v -0.10097 5.39777 -4.12507
v 0.64718 4.74931 -3.49076
v 1.19758 5.87705 -2.98704
v 0.44943 6.52551 -3.62135
v 0.79459 5.71819 -3.01300
v 1.61900 5.37366 -3.50323
v 1.10740 5.61127 -4.53058
v 0.28299 5.95580 -4.04035
v 0.71033 4.70169 -1.63160
v -0.34384 5.32105 -1.43336
v 0.24535 6.49811 -1.97773
v 1.29952 5.87875 -2.17597
v 0.65811 6.66476 -1.30547
v 1.61463 6.36429 -1.54715
v 1.31959 6.34896 -2.69578
v 0.36308 6.64943 -2.45410
v 0.96545 6.46174 -2.42376
v 0.74270 7.51362 -2.26771
v 0.13034 7.22803 -1.21673
v 0.35308 6.17615 -1.37278
v -0.60829 4.34597 0.62202
v -1.38467 4.65876 1.18688
v -0.80315 5.62922 1.44878
v -0.02677 5.31643 0.88391
v -0.98360 5.77972 2.70533
v -0.39310 6.64510 2.42999
v -0.76329 6.52132 1.24701
v -1.35379 5.65594 1.52235
v -1.45106 6.79279 2.99319
v -0.43386 6.17747 3.10307
v -0.23754 6.25980 1.74669
v -1.25475 6.87512 1.63681
v 0.12951 6.45714 2.86928
v 0.23798 6.77820 1.70945
v -1.14075 6.69507 1.55750
v -1.24923 6.37401 2.71733
v -0.81614 5.42268 1.00182
v -1.52267 4.95273 1.01145
v -1.89675 5.52933 1.70425
v -1.19022 5.99928 1.69462
v -1.43304 6.00032 1.55031
v -1.25731 6.76421 1.22330
v -2.10017 6.74696 0.73008
v -2.27590 5.98307 1.05709
v -1.52302 6.84088 0.61252
v -0.94288 5.76163 0.77580
v -1.12824 5.87454 2.18068
v -1.70838 6.95379 2.01739
v -0.57927 4.87123 1.38089
v -0.76668 5.45187 1.98889
v -0.15769 4.98924 2.61842
v 0.02972 4.40860 2.01042
v 0.24086 4.79689 3.05380
v -0.65311 4.75148 3.03537
v -0.68482 5.60764 2.46435
v 0.20914 5.65306 2.48278
v -1.06096 5.84835 3.52119
v -1.05833 5.31399 2.64563
v 0.02504 4.91706 2.89114
v 0.02240 5.45143 3.76670
v -1.09960 6.19686 0.99822
v -0.49511 5.94898 1.74929
v -0.90330 6.82269 2.36617
v -1.50779 7.07057 1.61510
v -1.12411 7.75933 1.43259
v -1.37573 7.07965 0.97180
v -1.28579 6.50512 1.77011
v -1.03417 7.18480 2.23091
v -0.15669 7.40539 1.61944
v -0.48696 6.49915 1.49736
v -1.47233 6.90399 1.15789
v -1.14206 7.81023 1.27997
v 2.61916 6.25452 -0.94897
v 1.96462 5.56613 -0.38777
v 1.09555 6.48373 -0.27581
v 1.75009 7.17212 -0.83701
v 2.62184 6.44142 -0.69486
v 2.43559 7.29367 -1.17340
v 1.51319 7.46055 -0.51717
v 1.69944 6.60830 -0.03864
v 2.94870 8.02797 -0.28834
v 2.83906 7.68188 -1.05010
v 2.26883 7.00114 -0.65874
v 2.37848 7.34723 0.10302
v 3.50471 8.28731 0.01192
v 3.18611 8.18566 -1.00041
v 3.26039 6.96588 -0.90130
v 3.57899 7.06753 0.11102
v 2.75698 6.92473 1.65973
v 3.17761 7.08236 0.54814
v 1.96436 6.67927 0.03189
v 1.54373 6.52164 1.14348
v 3.30664 7.01831 1.34710
v 2.71200 6.46413 0.50835
v 1.75158 7.40111 0.57017
v 2.34622 7.95529 1.40892
v 3.00215 7.09259 2.08391
v 3.77908 6.53972 1.54015
v 3.07020 6.57041 0.49608
v 2.29327 7.12328 1.03984
v 2.73677 7.11178 -1.41059
v 2.71495 7.93430 -0.65247
v 3.11891 7.11221 0.25109
v 3.14073 6.28969 -0.50703
v 3.94441 8.42326 -2.36120
v 4.28228 8.85521 -1.39151
v 3.79252 7.84667 -0.77162
v 3.45466 7.41473 -1.74131
v 3.34848 8.56014 -1.70059
v 2.78097 7.85225 -1.71430
v 3.44048 7.31188 -1.11268
v 4.00798 8.01977 -1.09898
v 2.94770 7.74412 -0.04389
v 2.20626 7.21546 0.77745
v 1.17797 7.16066 -0.18610
v 1.91941 7.68932 -1.00743
v 2.01304 8.48822 0.55014
v 2.04526 8.60529 -0.29359
v 2.11192 7.63622 -0.42550
v 2.07969 7.51915 0.41822
v 1.45869 8.21309 0.56860
v 1.09969 8.98046 -0.18825
v 2.33740 9.32300 -0.42803
v 2.69640 8.55562 0.32882
v 0.44134 3.18208 -1.54784
v 1.48004 3.61785 -1.92809
v 1.50336 4.48463 -0.87104
v 0.46466 4.04887 -0.49080
v -0.06139 4.44395 -2.06185
v 0.18390 4.27565 -0.95568
v 1.40342 4.73128 -1.15678
v 1.15813 4.89958 -2.26295
v 0.64553 5.78421 -2.05500
v 0.28090 5.55511 -2.98990
v 1.19121 4.81889 -3.16452
v 1.55583 5.04799 -2.22962
v 0.26331 6.16366 -2.67303
v 0.51921 5.49023 -3.38820
v 1.59721 5.42862 -2.94445
v 1.34130 6.10205 -2.22928
v 1.77966 5.05359 -1.00729
v 2.40256 4.62288 -1.58457
v 1.61111 4.47238 -2.32629
v 0.98820 4.90308 -1.74901
v 3.13746 4.86548 -2.16692
v 2.12100 5.00315 -2.74528
v 1.70471 5.88338 -1.80414
v 2.72117 5.74572 -1.22578
v 3.10333 5.53727 -2.13472
v 2.19236 5.50037 -1.55234
v 2.07383 4.28996 -1.81444
v 2.98480 4.32685 -2.39681
v 0.07004 4.83753 -3.78742
v 0.68522 5.77098 -3.30503
v 0.83085 5.05708 -2.10933
v 0.21567 4.12363 -2.59172
v 1.11811 5.00051 -4.18575
v 0.28106 5.03740 -4.62211
v 0.06193 5.97678 -4.12235
v 0.89897 5.93989 -3.68599
v -0.09758 5.95246 -3.92603
v 0.82051 5.28940 -3.50936
v 1.31034 5.15603 -4.80088
v 0.39225 5.81909 -5.21756
v 0.44329 6.20725 -2.50195
v 1.29348 5.92379 -1.83308
v 0.74322 4.78156 -1.61772
v -0.10697 5.06502 -2.28659
v 0.65762 6.42776 -2.42760
v 0.20622 6.60115 -1.54507
v 0.72777 7.63224 -1.48088
v 1.17916 7.45885 -2.36342
v 0.64004 6.94652 -2.52923
v 1.35919 6.23551 -2.61085
v 1.36713 6.11038 -1.45085
v 0.64799 6.82139 -1.36923
v -0.19935 4.57956 2.06741
v -0.00293 5.75819 2.10234
v -0.32911 5.85203 0.77020
v -0.52552 4.67340 0.73527
v -1.03990 5.99384 2.56410
v -0.22720 5.85620 2.35086
v -0.47804 5.84125 1.40453
v -1.29074 5.97889 1.61777
v -1.11502 6.57254 1.53915
v -0.92327 5.99857 2.25123
v 0.12018 6.24102 2.16568
v -0.07157 6.81499 1.45360
v -0.62038 7.58095 1.70333
v -1.70563 7.80227 2.20615
v -1.39584 6.93298 3.25740
v -0.31059 6.71166 2.75458
v -0.27454 6.39100 1.16824
v -1.22869 6.58457 0.85064
v -1.49384 5.44146 0.95054
v -0.53969 5.24789 1.26813
v -1.97147 5.81477 2.26099
v -1.07672 5.91076 1.96690
v -1.42895 6.08114 0.95090
v -2.32369 5.98515 1.24500
v -2.25967 7.14476 1.67480
v -1.54564 6.96396 2.19788
v -1.05578 6.54353 1.38387
v -1.76981 6.72433 0.86079
v 0.00557 5.60733 1.50181
v 0.51032 5.12384 2.38235
v -0.64491 4.84615 2.89208
v -1.14966 5.32964 2.01154
v 0.14986 5.81613 2.20254
v -0.72890 5.55307 1.86882
v -1.16476 5.71245 2.89092
v -0.28600 5.97551 3.22464
v 0.26647 5.47741 3.71899
v -0.51314 6.06892 3.73181
v -0.87960 5.60668 2.77329
v -0.10000 5.01517 2.76047
v -0.61162 6.56876 2.52372
v 0.04105 6.34440 1.57836
v -1.07630 6.16483 0.84958
v -1.72896 6.38919 1.79494
v -1.56745 6.84129 0.76568
v -1.39132 7.66514 1.40548
v -0.32987 7.17596 1.74317
v -0.50600 6.35211 1.10336
v -0.72001 8.08602 0.47755
v -1.48723 8.71153 1.05800
v -1.27735 7.97296 2.13130
v -0.51013 7.34746 1.55084
v 1.65889 6.58523 0.20442
v 2.26695 6.71926 -0.48441
v 2.04870 5.74627 -0.86638
v 1.44064 5.61225 -0.17755
v 2.61017 6.64949 -0.05612
v 2.57173 6.39475 -0.90418
v 1.67576 6.86989 -1.00629
v 1.71420 7.12462 -0.15822
v 3.24440 7.15795 -0.01987
v 3.00781 7.85474 -0.71265
v 2.89473 8.65078 0.12662
v 3.13133 7.95399 0.81940
v 3.83625 8.68671 -0.65142
v 3.47337 7.81663 -1.32613
v 3.07902 7.14299 -0.24534
v 3.44191 8.01307 0.42937
v 1.78479 6.80393 -0.05595
v 1.59361 6.34228 1.01861
v 2.82737 5.76413 0.98974
v 3.01856 6.22578 -0.08482
v 2.28066 7.18919 1.50832
v 2.86779 7.83494 1.45667
v 3.08145 7.56512 0.51197
v 2.49431 6.91937 0.56362
v 2.67405 7.40241 1.58683
v 3.48547 7.33392 1.11068
v 2.94957 6.93876 0.25428
v 2.13815 7.00726 0.73042
v 3.70360 7.33015 -1.98941
v 3.30939 8.03298 -1.30847
v 2.81934 7.13121 -0.66142
v 3.21355 6.42839 -1.34237
v 3.12695 7.26669 -1.69341
v 4.04128 7.84812 -1.62328
v 3.45825 8.67700 -0.89373
v 2.54391 8.09557 -0.96386
v 4.21381 8.69141 -1.41124
v 4.36514 7.82730 -1.59184
v 3.36919 7.61933 -1.43138
v 3.21785 8.48344 -1.25078
v 1.72405 7.36914 0.43077
v 1.48711 8.02669 -0.35469
v 2.30254 7.47866 -1.05945
v 2.53948 6.82111 -0.27399
v 2.93438 8.23967 -0.16879
v 2.11359 8.76938 -0.80458
v 1.85935 9.60035 0.21596
v 2.68014 9.07063 0.85175
v 1.91375 9.29067 0.59985
v 2.19535 8.54076 0.96373
v 2.82724 8.40069 0.18603
v 2.54563 9.15059 -0.17785
v 0.54095 4.70029 -1.63141
v 0.96184 3.86888 -2.23605
v 0.46709 3.02267 -1.41686
v 0.04620 3.85407 -0.81223
v 1.68037 5.07407 -2.49486
v 1.41632 4.04115 -2.52117
v 0.30535 4.31389 -2.07900
v 0.56940 5.34681 -2.05269
v 1.73187 4.42281 -2.54790
v 2.22131 5.52987 -2.42775
v 1.00878 6.01115 -1.92290
v 0.51934 4.90409 -2.04304
v 1.25586 5.36063 -2.83238
v 0.30029 5.79840 -2.31982
v 1.03339 6.80570 -1.81344
v 1.98895 6.36793 -2.32601
v 0.63061 4.80442 -1.85476
v 1.10393 5.45360 -0.94601
v 2.36689 4.93622 -1.23421
v 1.89356 4.28704 -2.14296
v 2.62352 5.03366 -1.25125
v 2.11799 5.74903 -1.24840
v 1.50175 5.31621 -1.91749
v 2.00728 4.60085 -1.92034
v 2.33592 5.69718 -2.28144
v 1.89143 5.48191 -1.36461
v 2.79968 4.74886 -1.09641
v 3.24416 4.96413 -2.01323
v 0.05084 5.47818 -2.49259
v 0.44331 5.53706 -3.26277
v 0.85253 4.63944 -3.12286
v 0.46007 4.58056 -2.35268
v 1.32947 6.03993 -3.06241
v 1.13681 6.09480 -4.21225
v 0.01358 5.37632 -4.05834
v 0.20624 5.32144 -2.90851
v 1.04857 5.62396 -4.27441
v 0.49790 6.41481 -3.91382
v -0.27448 5.65796 -3.43345
v 0.27619 4.86712 -3.79405
v 1.36945 5.77927 -1.44423
v 0.68831 4.81445 -1.20329
v 0.12309 4.89810 -2.46621
v 0.80422 5.86292 -2.70715
v 0.66506 6.04322 -1.32826
v 1.73403 6.24043 -1.25830
v 1.73090 6.67427 -2.43341
v 0.66193 6.47706 -2.50336
v 1.16721 7.01423 -2.35787
v 0.82357 7.34420 -1.66849
v 0.07952 6.73708 -1.74879
v 0.42316 6.40711 -2.43817
v -0.84203 5.41814 1.87421
v -0.10505 5.55470 1.46004
v -0.57944 5.50230 0.59863
v -1.31642 5.36574 1.01280
v 0.16782 5.34685 1.88450
v -0.26289 5.87555 2.69376
v -1.08700 6.35850 1.93964
v -0.65629 5.82981 1.13038
v -1.65244 6.75068 1.25374
v -1.25774 7.23215 2.16220
v -0.46666 6.25823 2.33466
v -0.86137 5.77676 1.42620
v -0.48381 6.49050 1.57625
v -0.16223 7.35933 1.92051
v -0.58037 7.10740 2.94691
v -0.90195 6.23857 2.60265
v -0.90164 6.28254 1.46333
v -1.33312 5.98003 0.45688
v -1.17952 4.72084 0.76951
v -0.74804 5.02336 1.77596
v -1.62219 6.04285 0.68415
v -1.73996 7.16386 1.08436
v -2.36954 6.69453 2.21371
v -2.25177 5.57352 1.81350
v -1.97126 5.62939 2.41072
v -0.98138 6.07940 1.88218
v -1.73683 7.11990 1.35323
v -2.72671 6.66989 1.88177
v -0.35294 5.01750 1.72739
v 0.01289 5.36471 2.48207
v -0.85047 5.92961 2.64069
v -1.21630 5.58240 1.88601
v 0.00635 6.10688 3.03253
v -1.01755 5.95175 2.89986
v -0.81994 4.77723 2.74808
v 0.20396 4.93236 2.88076
v -1.24515 5.00729 3.18585
v -0.31262 4.74750 3.75654
v 0.34576 5.63294 3.08379
v -0.58678 5.89272 2.51310
v -1.23195 6.79951 1.94570
v -1.79533 6.38172 1.38664
v -1.11472 6.49075 0.61929
v -0.55134 6.90855 1.17835
v -0.60772 7.80131 1.33444
v -1.35290 7.49695 1.97131
v -1.94486 7.03766 1.05920
v -1.19968 7.34202 0.42233
v -1.38724 7.15285 2.10817
v -0.90893 6.94337 0.98879
v -1.38062 8.20943 0.55030
v -1.85893 8.41892 1.66968
v 1.06957 5.66173 0.19227
v 1.33359 6.53641 0.11876
v 2.09953 6.24933 -0.54610
v 1.83551 5.37466 -0.47259
v 1.91596 7.23560 -0.10725
v 2.53687 7.63392 -0.81940
v 2.96532 6.55918 -1.04695
v 2.34441 6.16087 -0.33480
v 2.96225 7.42479 -0.65235
v 2.41016 7.68826 -0.02636
v 2.69023 6.91055 0.54799
v 3.24232 6.64707 -0.07801
v 3.51628 8.67205 -0.00493
v 4.08948 7.80012 -0.29606
v 3.15868 7.43664 -1.04007
v 2.58548 8.30857 -0.74893
v 1.98170 7.10190 -0.28357
v 1.85652 6.88277 0.68555
v 1.87223 5.75914 0.43351
v 1.99741 5.97827 -0.53561
v 3.30866 7.36625 1.46389
v 3.51944 7.30529 0.44904
v 2.36974 7.07433 0.22414
v 2.15896 7.13529 1.23899
v 3.21987 6.73653 1.88358
v 3.16675 7.77461 1.20215
v 1.96596 7.30715 0.58364
v 2.01908 6.26907 1.26507
v 3.48711 7.65535 -0.48442
v 4.06054 7.57238 -1.23642
v 3.19662 7.37192 -1.87307
v 2.62319 7.45490 -1.12107
v 3.64318 7.55706 -0.72905
v 3.69367 8.23898 -1.33135
v 3.30578 7.61084 -2.07504
v 3.25529 6.92892 -1.47274
v 4.41711 7.11893 -1.95461
v 4.02839 7.89637 -2.70788
v 3.31471 8.46647 -1.75121
v 3.70342 7.68903 -0.99794
v 2.06274 7.53769 -0.72226
v 2.51509 7.15616 0.12199
v 2.84068 8.25036 0.44203
v 2.38834 8.63190 -0.40222
v 3.07183 8.68332 0.16636
v 2.63662 9.46519 0.19358
v 1.77587 8.97624 0.47639
v 2.21108 8.19437 0.44916
v 2.01261 7.53222 -0.21547
v 2.32767 8.19961 0.54083
v 2.30727 9.11487 -0.25833
v 1.99221 8.44749 -1.01463
v 0.75790 4.28795 -1.93006
v 0.33028 4.27247 -1.10962
v 1.19866 3.84745 -0.66504
v 1.62628 3.86293 -1.48548
v 1.27635 4.78477 -2.30861
v 1.05158 4.59432 -1.27634
v 0.11485 5.39644 -1.33232
v 0.33962 5.58689 -2.36458
v 1.78813 5.76758 -2.27360
v 1.28165 6.50949 -2.59758
v 0.48124 5.82612 -2.91119
v 0.98772 5.08421 -2.58721
v 1.20353 6.00139 -2.94706
v 1.20632 6.45770 -2.16616
v 0.52184 5.78260 -1.76922
v 0.51905 5.32629 -2.55011
v 1.30452 4.32379 -0.89764
v 2.07608 3.93268 -1.40557
v 2.26838 4.95627 -1.90163
v 1.49682 5.34738 -1.39369
v 2.12724 4.79905 -0.94447
v 2.76278 4.59585 -1.64073
v 2.29327 5.36050 -2.29245
v 1.65773 5.56370 -1.59620
v 2.69924 5.87704 -2.52888
v 2.29343 5.80146 -1.72333
v 1.86064 4.90430 -2.02553
v 2.26645 4.97988 -2.83108
v 0.73120 5.14930 -4.04849
v 1.68681 4.83510 -3.48941
v 1.13518 5.19821 -2.34247
v 0.17958 5.51241 -2.90154
v 1.25334 5.13649 -2.69492
v 0.55204 6.02709 -2.63449
v 0.30298 5.91760 -3.91129
v 1.00429 5.02700 -3.97172
v 1.18273 5.20593 -3.12739
v 1.30945 5.16264 -4.13482
v 0.19201 5.46864 -4.28853
v 0.06528 5.51193 -3.28110
v 0.53270 6.21846 -2.07584
v 0.88121 5.75105 -1.42235
v 0.41980 4.92489 -1.76718
v 0.07128 5.39231 -2.42067
v 1.72690 6.35589 -2.36916
v 1.49577 6.66904 -1.54968
v 0.57874 6.98904 -1.93060
v 0.80986 6.67589 -2.75008
v -0.07548 7.54726 -1.64334
v 0.28194 7.39160 -2.65168
v 1.15388 6.61604 -2.22288
v 0.79646 6.77170 -1.21454
v -0.13823 5.17363 0.99871
v -0.92003 5.04802 0.50801
v -1.39524 5.83012 1.06491
v -0.61344 5.95573 1.55561
v -1.07240 5.93892 1.15984
v -1.51183 5.49208 1.93853
v -0.48335 5.32894 2.42532
v -0.04391 5.77578 1.64662
v -1.65123 6.85571 1.73957
v -0.86815 6.84338 1.27357
v -0.35854 6.54084 2.13794
v -1.14162 6.55318 2.60394
v -1.10373 6.56262 2.55480
v -0.43783 6.67022 2.03968
v -0.92603 6.23191 1.31703
v -1.59193 6.12432 1.83215
v -1.31401 5.38745 1.51903
v -0.57043 5.30779 0.88313
v -0.41990 6.42603 0.91906
v -1.16349 6.50569 1.55496
v -0.97734 7.03897 1.47993
v -1.73932 6.45535 1.95299
v -1.84568 5.77018 0.93638
v -1.08370 6.35380 0.46332
v -0.83225 6.44379 2.11517
v -1.16976 7.17608 1.29301
v -2.33738 6.55557 1.21964
v -1.99988 5.82328 2.04180
v 0.53606 4.87581 1.69979
v 0.23095 5.08381 2.52598
v -0.71068 5.28030 2.12876
v -0.40556 5.07230 1.30258
v -1.09571 5.08639 3.09358
v -0.17998 5.02935 2.94382
v -0.18590 6.01586 2.53184
v -1.10164 6.07290 2.68160
v -0.93714 6.12688 2.74313
v -0.46628 6.43892 3.54773
v 0.05057 5.43713 3.63379
v -0.42029 5.12508 2.82919
v -0.68872 5.69077 1.16859
v -1.76859 5.80362 1.69862
v -1.53210 7.15909 1.89183
v -0.45224 7.04624 1.36180
v -1.45950 7.48057 0.87848
v -1.97242 7.36330 1.61105
v -1.11936 7.28738 2.19618
v -0.60644 7.40466 1.46361
v -0.67355 7.48832 1.87023
v -0.14400 7.72905 0.87514
v -1.31461 8.00918 0.31995
v -1.84416 7.76844 1.31504
v 2.10910 7.45726 -0.30798
v 1.42323 6.83629 -0.58246
v 2.10376 5.98756 -0.36284
v 2.78963 6.60852 -0.08836
v 3.18765 6.57131 -0.13897
v 2.31492 5.99591 -0.54321
v 1.50701 6.78386 0.07945
v 2.37975 7.35927 0.48368
v 3.28027 8.10871 -0.11201
v 3.84466 7.06257 0.19654
v 2.60941 6.38014 0.14224
v 2.04502 7.42627 -0.16631
v 3.81858 7.43902 0.63652
v 3.73382 8.43233 0.09531
v 3.11910 7.84183 -0.89219
v 3.20386 6.84852 -0.35099
v 2.26039 6.59171 0.97379
v 2.00950 5.77140 0.21001
v 2.69218 6.42304 -0.71410
v 2.94306 7.24335 0.04968
v 2.73477 7.03855 1.70608
v 3.63987 7.01589 1.54710
v 3.47314 7.33329 0.55263
v 2.56804 7.35595 0.71161
v 1.98329 7.15039 1.13200
v 3.06269 6.55307 1.23367
v 3.72468 7.79020 1.47378
v 2.64528 8.38752 1.37211
v 3.68006 7.38482 -1.23952
v 3.07652 8.01517 -1.42927
v 2.36428 7.28956 -1.57431
v 2.96782 6.65921 -1.38455
v 3.88535 7.56185 -1.30398
v 3.56665 7.15720 -2.15862
v 2.57784 7.73144 -2.06178
v 2.89655 8.13609 -1.20714
v 2.78801 7.48590 -1.48119
v 3.59543 7.36403 -1.26398
v 3.85001 8.15617 -1.76588
v 3.04259 8.27804 -1.98309
v 2.12481 7.71355 0.51114
v 2.79084 6.87185 0.14070
v 2.87307 7.45077 -1.02684
v 2.20704 8.29247 -0.65640
v 3.44072 8.29623 0.23452
v 2.44845 7.88735 0.80712
v 1.67396 8.19252 -0.31710
v 2.66623 8.60140 -0.88969
v 2.36252 9.08284 -0.64174
v 2.61608 8.85646 0.55476
v 2.16351 7.50888 0.39571
v 1.90994 7.73526 -0.80079
v 0.30038 4.70276 -1.24762
v 0.71196 4.15831 -0.72722
v 0.62518 3.44548 -1.40438
v 0.21361 3.98993 -1.92477
v 1.12882 5.36921 -2.98593
v 0.77843 4.33760 -2.90313
v 0.88631 4.40130 -1.65286
v 1.23670 5.43291 -1.73566
v 0.88688 5.32595 -3.41502
v 0.30467 4.74473 -2.67453
v 0.70075 5.52533 -1.75041
v 1.28296 6.10655 -2.49091
v 0.67606 5.64656 -2.79171
v 0.55945 5.37522 -1.98411
v 1.49569 5.61067 -1.76981
v 1.61230 5.88202 -2.57742
v 1.11722 3.98793 -1.54368
v 1.07287 4.38574 -0.67273
v 1.75884 5.18326 -1.00207
v 1.80319 4.78545 -1.87302
v 1.63409 5.50266 -1.49149
v 2.12400 4.77103 -1.77941
v 2.65207 5.39388 -2.46362
v 2.16217 6.12552 -2.17570
v 1.94497 5.08375 -1.63797
v 2.26706 4.71195 -2.35178
v 2.44728 5.61252 -2.73954
v 2.12519 5.98432 -2.02573
v 0.81576 4.54837 -2.54427
v 0.09270 4.59295 -3.02667
v 0.06125 5.58369 -2.88796
v 0.78431 5.53911 -2.40556
v 0.65887 5.18008 -4.23415
v 0.56777 6.27054 -4.14124
v 0.54102 6.16114 -2.88335
v 0.63213 5.07067 -2.97625
v -0.10312 6.36161 -3.39494
v -0.12974 6.17819 -4.62133
v 0.86681 5.16599 -4.49158
v 0.89343 5.34940 -3.26519
v 1.26532 5.89051 -2.14586
v 0.20407 5.44474 -2.50909
v 0.12611 4.68559 -1.34963
v 1.18736 5.13136 -0.98640
v 1.06826 6.93113 -1.47020
v 1.43728 7.16495 -2.34153
v 1.12459 6.16583 -2.74207
v 0.75558 5.93201 -1.87074
v 1.07196 7.01977 -1.77789
v 0.77866 7.61588 -2.29209
v -0.00130 7.07546 -2.47370
v 0.29200 6.47935 -1.95951
v -0.20675 5.73193 2.03254
v -0.28729 4.77692 1.38826
v -0.82227 5.48741 0.40200
v -0.74173 6.44241 1.04627
v -0.39915 5.86852 1.95953
v -0.39283 5.77335 0.96567
v -1.29409 6.48093 0.89218
v -1.30041 6.57610 1.88604
v -0.55292 7.36171 2.81781
v -0.08660 6.71870 1.89313
v -1.38157 6.38995 1.46868
v -1.84789 7.03296 2.39336
v -0.06731 7.30676 1.79214
v -0.08373 7.23903 3.00654
v -1.08273 6.26220 2.93856
v -1.06632 6.32993 1.72415
v -0.36490 6.21771 1.20242
v -0.70112 5.14468 1.58068
v -1.69242 5.12491 0.64347
v -1.35620 6.19794 0.26522
v -0.78763 5.90965 1.38149
v -1.07295 7.02239 1.20521
v -2.05323 6.91392 2.10718
v -1.76791 5.80118 2.28346
v -1.16962 7.40461 1.89853
v -1.83603 6.74840 2.63837
v -2.61975 6.35540 1.58385
v -1.95334 7.01161 0.84401
v -0.55734 5.50978 3.13599
v -1.17645 4.76666 2.54524
v -0.59024 5.15161 1.44663
v 0.02887 5.89473 2.03738
v -0.21972 5.65777 2.18508
v -0.50175 4.58136 2.41051
v -0.31264 4.79851 3.68400
v -0.03061 5.87492 3.45858
v -0.99993 5.44354 3.96425
v -0.12707 6.15635 3.54444
v -0.34348 5.66965 2.26813
v -1.21634 4.95684 2.68795
v -1.08281 7.01524 1.13088
v -1.13911 6.21988 1.47798
v -0.74980 6.56504 2.33205
v -0.69350 7.36041 1.98496
v -1.12560 7.25916 0.64873
v -0.90758 7.93673 1.15640
v -0.29557 7.34172 1.68771
v -0.51360 6.66415 1.18004
v -0.89525 7.70411 1.69373
v -0.77631 8.17735 0.93615
v -1.20920 7.41083 0.38936
v -1.32813 6.93759 1.14695
v 1.47338 7.05567 0.24179
v 2.05026 6.41021 -0.12867
v 1.32146 6.20284 -0.90226
v 0.74458 6.84830 -0.53180
v 1.69057 7.93973 -0.68089
v 2.77514 7.54120 -0.74432
v 2.48311 6.60352 0.15373
v 1.39853 7.00205 0.21716
v 2.17269 7.65257 -0.26278
v 3.05838 7.29572 -0.04446
v 3.52419 8.28391 -0.31894
v 2.63851 8.64077 -0.53726
v 3.35431 7.92622 -1.10622
v 4.10156 7.57386 -0.55937
v 3.36110 7.24992 0.24371
v 2.61385 7.60228 -0.30314
v 2.54517 7.27301 1.20333
v 2.84505 6.21664 1.49844
v 2.57562 5.80198 0.28792
v 2.27574 6.85835 -0.00719
v 2.08370 7.15501 1.15701
v 2.51231 6.25937 1.05790
v 2.82121 6.52587 -0.01465
v 2.39259 7.42151 0.08445
v 3.99805 7.10620 1.21419
v 3.49814 6.37275 0.76151
v 2.53221 6.71454 1.27445
v 3.03212 7.44799 1.72713
v 2.41324 7.84307 -0.33440
v 3.44326 7.71103 -0.48507
v 3.24155 7.46610 -1.64933
v 2.21153 7.59815 -1.49866
v 3.50821 7.32666 -1.56106
v 3.24871 8.18555 -1.62908
v 3.63405 8.37651 -0.68789
v 3.89355 7.51762 -0.61987
v 3.72658 8.00708 -0.59385
v 4.00362 8.79497 -1.16124
v 3.79310 8.17735 -2.12168
v 3.51606 7.38946 -1.55429
v 2.34669 8.31923 -0.47932
v 1.60516 8.11375 0.38328
v 2.43677 7.20418 0.88149
v 3.17830 7.40966 0.01889
v 2.24031 8.62317 0.74462
v 2.34259 9.46280 -0.01876
v 2.53970 8.57832 -0.96517
v 2.43742 7.73870 -0.20179
v 1.85426 9.31263 0.67614
v 2.76126 9.39856 0.46259
v 2.72087 8.47135 -0.08208
v 1.81387 8.38541 0.13147
v -0.19821 3.73298 -1.70126
v 0.11211 4.52485 -1.18515
v 1.16096 4.40039 -1.62483
v 0.85065 3.60852 -2.14093
v 1.18591 3.77101 -1.69572
v 0.04383 3.81353 -1.73114
v 0.10309 5.05984 -2.14614
v 1.24517 5.01732 -2.11073
v 0.95047 6.19371 -2.99982
v 0.49858 5.92290 -2.22134
v 1.44509 5.69762 -1.75028
v 1.89698 5.96843 -2.52876
v 1.39670 5.78966 -3.16398
v 1.66769 5.01720 -2.93264
v 1.45277 5.22103 -2.00028
v 1.18178 5.99350 -2.23162
v 1.44294 5.00274 -2.07683
v 1.75042 3.98476 -1.87129
v 2.18486 4.34047 -0.75948
v 1.87738 5.35844 -0.96501
v 2.05083 5.59537 -1.71736
v 2.60243 4.63953 -1.45975
v 1.83695 3.97667 -2.28017
v 1.28535 4.93252 -2.53778
v 1.73390 4.73066 -2.17974
v 1.53642 4.81072 -1.34478
v 2.36846 5.32848 -1.19764
v 2.56594 5.24842 -2.03260
v 1.37658 5.28489 -3.56862
v 0.81285 4.22370 -3.49762
v 0.67188 4.39004 -2.13061
v 1.23561 5.45124 -2.20161
v 1.81854 5.80485 -3.52869
v 1.24398 6.29730 -4.50088
v 0.04880 5.63222 -4.13142
v 0.62336 5.13976 -3.15923
v 0.47656 6.45839 -3.41683
v 1.57273 6.19470 -3.56732
v 1.25870 5.49343 -4.62592
v 0.16253 5.75713 -4.47543
v 0.41879 5.06771 -1.59235
v 1.08260 5.48403 -2.06700
v 0.53190 6.38200 -2.04956
v -0.13191 5.96568 -1.57491
v 0.09848 6.78248 -1.67923
v 0.92200 7.34375 -1.19554
v 1.75294 6.82818 -2.01204
v 0.92941 6.26691 -2.49573
v 1.85901 6.60757 -1.52547
v 1.00287 7.02827 -1.09155
v 0.44810 7.00246 -2.16112
v 1.30424 6.58176 -2.59504
v 0.11308 6.06690 0.86782
v -0.13697 5.15351 0.24951
v -1.18216 4.93663 0.99257
v -0.93212 5.85002 1.61088
v -1.00903 6.16195 1.39647
v 0.01515 6.20231 1.77342
v -0.09625 5.02705 2.20196
v -1.12043 4.98669 1.82501
v -1.04630 6.65388 2.81369
v -0.46136 6.55676 2.18047
v -1.16207 6.15527 1.59476
v -1.74701 6.25239 2.22798
v -1.25493 7.61822 1.93077
v -1.30562 6.87108 1.23578
v -1.05080 6.08068 2.06690
v -1.00011 6.82782 2.76189
v -1.59492 5.72071 1.42811
v -0.87855 6.00685 0.76925
v -0.53624 4.89697 0.65943
v -1.25262 4.61083 1.31829
v -2.21221 5.82225 1.07245
v -2.62701 6.13564 1.73990
v -1.97469 6.85429 1.80787
v -1.55989 6.54090 1.14041
v -2.67865 6.42670 1.92421
v -1.85307 6.51951 2.47415
v -1.23524 6.06399 1.62353
v -2.06082 5.97118 1.07359
v -1.29942 5.40990 1.49717
v -0.95786 5.74799 2.32664
v 0.07217 5.58836 1.96756
v -0.26940 5.25027 1.13808
v -1.01060 4.75409 2.40538
v -0.77834 5.63562 2.25005
v 0.16647 5.46744 2.70831
v -0.06579 4.58591 2.86364
v -0.06008 5.20295 3.33966
v -0.18648 5.26678 2.34113
v -1.24833 5.70409 2.50350
v -1.12192 5.64027 3.50203
v 0.05898 6.23395 1.06334
v -0.81088 6.64037 0.72803
v -0.99190 7.12014 1.77915
v -0.12205 6.71371 2.11446
v -1.29939 7.55216 0.78105
v -1.20722 6.72277 0.73251
v -1.02140 6.68826 1.67503
v -1.11357 7.51765 1.72358
v -0.97362 8.07251 0.26784
v -1.37949 8.56872 1.29620
v -1.46091 7.30345 1.87459
v -1.05504 6.80725 0.84623
v 2.03227 6.81465 -0.22929
v 1.88415 5.88368 -0.22257
v 0.85513 6.04523 -0.52304
v 1.00325 6.97620 -0.52977
v 3.01735 6.79919 -0.72290
v 3.19055 7.69108 -0.13836
v 1.96502 7.88237 -0.06709
v 1.79182 6.99047 -0.65164
v 2.13560 7.42389 0.18713
v 2.47073 8.38083 0.47035
v 3.41868 8.26926 -0.27438
v 3.08354 7.31232 -0.55761
v 3.61264 7.41273 -0.89777
v 2.84663 8.05700 -0.46505
v 3.18958 7.69248 0.68477
v 3.95559 7.04822 0.25205
v 1.64507 6.52168 -0.51985
v 1.65565 7.62442 -0.05619
v 2.17770 7.12681 1.11535
v 2.16712 6.02408 0.65169
v 2.41908 7.79187 1.05691
v 2.20490 6.99634 0.65394
v 3.21996 6.84684 0.40958
v 3.43413 7.64237 0.81256
v 3.53651 6.35596 0.85949
v 3.49880 7.26103 0.92838
v 2.47854 7.23552 0.70501
v 2.51625 6.33045 0.63612
v 2.50812 7.12558 -1.88695
v 2.51032 7.32846 -0.66064
v 3.93881 7.27692 -0.65468
v 3.93661 7.07404 -1.88100
v 3.20310 8.07690 -1.20873
v 3.22480 7.50876 -0.56176
v 3.13041 6.76633 -1.21056
v 3.10871 7.33446 -1.85753
v 3.67550 8.10949 -2.24442
v 2.66567 8.42652 -1.79994
v 3.05278 7.99615 -0.61346
v 4.06261 7.67912 -1.05793
v 1.79717 8.90297 0.48426
v 2.26389 7.80562 0.69546
v 2.28071 7.54932 -0.67335
v 1.81398 8.64667 -0.88456
v 1.97716 7.21156 -0.17818
v 1.75496 7.77606 0.84294
v 2.50681 8.83544 0.42089
v 2.72901 8.27094 -0.60023
v 1.97194 8.86011 -0.29640
v 2.24790 8.03230 0.37258
v 3.12154 8.76511 0.91900
v 2.84558 9.59291 0.25002
v 0.00875 3.30651 -1.66066
v -0.04670 3.99571 -0.89443
v 0.91346 4.54758 -1.32133
v 0.96890 3.85838 -2.08757
v 1.05535 4.89949 -1.36802
v 0.52678 5.05262 -2.24651
v 1.36235 4.45679 -2.85311
v 1.89091 4.30366 -1.97461
v 0.51010 5.45187 -3.18730
v 0.86262 6.39180 -2.48272
v 1.92169 5.61233 -1.97277
v 1.56917 4.67240 -2.67735
v 1.41374 6.42638 -2.00489
v 0.60537 5.91530 -2.50369
v 1.19165 4.83366 -2.34558
v 2.00002 5.34473 -1.84677
v 1.45244 3.73926 -0.69122
v 2.34589 4.00674 -1.51020
v 1.55153 5.07340 -2.02841
v 0.65808 4.80593 -1.20944
v 2.12293 5.50048 -1.72934
v 2.87143 4.75589 -1.86149
v 2.19099 4.22593 -2.72947
v 1.44249 4.97052 -2.59732
v 2.43196 4.72930 -1.76207
v 3.06849 5.47254 -2.22602
v 2.13188 6.29289 -2.19683
v 1.49535 5.54965 -1.73287
v 0.34894 4.82534 -3.50145
v -0.10823 5.06921 -2.54909
v 0.88272 4.60210 -1.95379
v 1.33989 4.35823 -2.90615
v 0.13964 6.03024 -3.48917
v 0.60302 6.45262 -4.19463
v 1.38529 5.70302 -4.12961
v 0.92192 5.28064 -3.42415
v 0.38751 4.99148 -4.58698
v 0.23702 5.76269 -4.01944
v 1.13502 5.49399 -3.41621
v 1.28551 4.72279 -3.98375
v 1.58857 6.71380 -1.79752
v 0.67420 6.52429 -2.33853
v 0.56248 5.42884 -1.76600
v 1.47685 5.61835 -1.22498
v 0.76452 7.49575 -2.03817
v 0.32708 6.50289 -2.07973
v 1.17162 6.09627 -1.25485
v 1.60906 7.08912 -1.21329
v 0.17395 7.68571 -1.26390
v 1.23350 7.84227 -1.63027
v 1.14286 6.76358 -2.35335
v 0.08331 6.60702 -1.98699
v -0.58113 4.73990 0.27777
v -0.62192 4.82219 1.16261
v -0.34636 5.80426 1.08398
v -0.30556 5.72197 0.19915
v -0.48885 5.35956 1.26105
v -0.62487 6.17183 1.50175
v -1.02735 5.85456 2.34497
v -0.89132 5.04229 2.10427
v -0.91975 6.73753 3.03886
v -1.30587 7.13770 2.41625
v -0.92450 6.52331 1.78485
v -0.53837 6.12314 2.40745
v -1.43366 6.25241 1.27518
v -2.07541 6.89020 2.03420
v -0.97308 7.08372 2.80360
v -0.33134 6.44593 2.04457
v -0.57430 6.40849 1.40778
v -0.80693 5.89251 0.67813
v -1.74353 5.67636 1.12959
v -1.51090 6.19234 1.85924
v -0.95075 6.74097 1.87194
v -0.85913 5.87715 1.86703
v -1.71901 5.78879 1.36627
v -1.81063 6.65261 1.37117
v -2.07180 6.84647 1.13637
v -1.56816 7.39227 1.66210
v -1.48893 6.63143 2.37609
v -1.99256 6.08563 1.85036
v -0.28023 4.65421 2.39436
v 0.39063 4.87171 1.54462
v -0.55122 5.49075 0.95949
v -1.22208 5.27325 1.80923
v 0.12404 6.03662 2.60706
v -0.22786 5.67257 3.64340
v -0.50739 4.48182 3.13018
v -0.15549 4.84587 2.09384
v -0.64204 5.07013 3.58852
v -0.00797 5.05990 2.93608
v -0.66829 5.54683 2.28671
v -1.30236 5.55705 2.93915
v -1.66991 6.52498 1.97233
v -0.63282 6.82612 1.89334
v -0.70346 6.74399 0.65283
v -1.74055 6.44285 0.73183
v -1.14633 7.99485 1.53797
v -1.74932 7.25120 1.89136
v -0.82632 6.52831 1.94511
v -0.22332 7.27196 1.59172
v -1.16299 7.32929 0.71994
v -0.29833 7.27799 1.37605
v -1.02547 7.54903 2.35551
v -1.89013 7.60033 1.69940
v 1.87769 6.11132 0.11316
v 1.22175 6.22284 -0.40844
v 1.28857 7.18514 -0.28674
v 1.94452 7.07362 0.23487
v 2.85372 7.85119 0.03934
v 2.91300 6.94377 0.41835
v 2.67222 6.50373 -0.59752
v 2.61294 7.41115 -0.97652
v 2.75914 7.99186 -0.03624
v 3.43036 7.26439 0.15486
v 3.70838 7.22544 -0.96996
v 3.03716 7.95292 -1.16105
v 2.71617 7.97292 -0.97148
v 2.74741 7.43324 -0.19696
v 3.24112 8.23627 0.34268
v 3.20988 8.77595 -0.43184
v 3.20572 5.82284 0.25631
v 2.13790 5.81330 0.85233
v 2.17152 7.21684 0.93503
v 3.23933 7.22638 0.33901
v 2.38430 7.13437 -0.44198
v 1.59243 6.51294 0.29507
v 2.42087 6.80325 1.42991
v 3.21275 7.42468 0.69286
v 3.08740 7.07236 0.60514
v 3.26672 6.52661 1.58154
v 3.21915 7.65931 2.22338
v 3.03983 8.20506 1.24699
v 2.65213 7.81073 -0.71321
v 2.76073 7.11868 -1.22544
v 3.61760 6.90805 -0.75921
v 3.50900 7.60009 -0.24697
v 3.05713 8.05994 -1.84674
v 3.75778 7.94019 -1.19208
v 3.99987 6.94901 -1.63247
v 3.29922 7.06876 -2.28713
v 3.69488 7.18744 -1.11525
v 2.92913 7.81210 -1.87499
v 4.05838 8.43382 -2.50201
v 4.82413 7.80916 -1.74227
v 2.18672 6.85249 0.74261
v 2.74760 7.80569 0.42822
v 1.75502 8.12105 -0.38646
v 1.19414 7.16784 -0.07207
v 1.39992 8.31881 -0.07803
v 2.04014 7.98549 0.46290
v 2.71414 8.00071 -0.32544
v 2.07392 8.33404 -0.86637
v 1.92598 8.67583 0.68233
v 2.10713 9.30619 -0.23814
v 2.92286 8.40362 -0.69570
v 2.74171 7.77327 0.22477
v 1.00549 4.16869 -2.08248
v 0.21096 3.56908 -2.22744
v 0.05504 3.49910 -1.08336
v 0.84956 4.09871 -0.93840
v 1.56956 4.11332 -2.36123
v 0.32424 4.07280 -2.33544
v 0.33402 4.61608 -1.00926
v 1.57934 4.65661 -1.03505
v 0.25442 5.57862 -2.79671
v 1.01517 5.99585 -2.06737
v 1.87264 5.08874 -2.44284
v 1.11189 4.67151 -3.17218
v 0.49493 5.06559 -2.66401
v 1.36100 5.74411 -3.10231
v 1.15001 6.65382 -2.11094
v 0.28394 5.97529 -1.67264
v 0.85531 4.63689 -1.50165
v 1.35573 4.88866 -0.79216
v 2.00328 4.09442 -0.96706
v 1.50286 3.84266 -1.67654
v 2.22523 4.69530 -1.28242
v 2.75442 4.67245 -2.22691
v 2.24524 5.76531 -2.53865
v 1.71604 5.78817 -1.59416
v 1.67770 4.94419 -2.59941
v 1.52276 5.24319 -1.54950
v 2.72187 5.65089 -1.48866
v 2.87681 5.35189 -2.53856
v 0.65835 5.38967 -2.26309
v 1.25660 4.83276 -2.05539
v 1.55991 4.81509 -2.97639
v 0.96166 5.37200 -3.18409
v 1.23338 5.41064 -4.66794
v 1.51065 5.94438 -3.79146
v 0.72430 5.27633 -3.13589
v 0.44703 4.74260 -4.01237
v 0.17405 6.05042 -4.02915
v 0.82390 5.26785 -3.97671
v 1.16691 5.47897 -5.07662
v 0.51706 6.26154 -5.12907
v 0.74835 4.92836 -2.36761
v 0.65894 5.46808 -1.29103
v 1.58142 6.42477 -1.69403
v 1.67084 5.88504 -2.77061
v 0.52588 7.36516 -1.93282
v 0.61603 6.32366 -1.33219
v 0.89481 5.66333 -2.51906
v 0.80466 6.70484 -3.11968
v 0.63180 7.93191 -1.80522
v 1.60786 7.83524 -1.60286
v 1.63517 6.85311 -2.20377
v 0.65912 6.94977 -2.40613
v -0.67542 4.45324 0.30216
v 0.19819 4.59949 1.12761
v -0.38631 5.79605 1.53420
v -1.25991 5.64980 0.70875
v -0.51487 5.21143 2.56564
v 0.09602 6.12728 2.33988
v -0.60453 6.33162 1.27326
v -1.21541 5.41578 1.49902
v -0.09087 6.91240 2.70753
v 0.21119 6.89327 1.69736
v -0.84583 6.38386 1.39094
v -1.14788 6.40299 2.40111
v -1.19883 7.00174 1.73603
v -0.29527 6.56023 2.08862
v -0.33652 7.27192 3.08548
v -1.24008 7.71343 2.73288
v -0.84829 6.00905 0.85500
v -1.34179 5.29134 1.18567
v -0.67225 5.21471 2.01859
v -0.17874 5.93242 1.68792
v -2.51814 6.30587 1.07525
v -2.30197 5.92485 1.85733
v -1.30235 5.99564 1.61552
v -1.51852 6.37666 0.83344
v -1.73026 6.78994 1.49970
v -2.31654 6.48787 0.98505
v -2.37271 5.68891 1.51799
v -1.78643 5.99097 2.03264
v -0.92746 4.34770 1.76786
v -1.06002 4.81274 2.77737
v -0.39031 5.84199 2.39117
v -0.25775 5.37695 1.38166
v -0.44640 4.94021 1.99595
v 0.12990 4.86122 2.99334
v -0.82225 5.56104 3.59893
v -1.39856 5.64002 2.60154
v -0.94607 5.31719 2.68538
v -0.50033 5.14824 1.93386
v 0.27245 5.73441 2.26043
v -0.17329 5.90336 3.01195
v -0.25357 7.18966 1.24246
v -1.18507 6.96355 1.62472
v -0.86437 5.82612 1.73338
v 0.06713 6.05224 1.35113
v -0.69267 6.98474 1.51312
v -1.32710 7.36249 0.96431
v -1.03533 8.32585 1.29012
v -0.40091 7.94810 1.83893
v -1.27039 8.07751 0.74074
v -1.34291 7.07975 0.50481
v -1.23967 6.80169 1.64900
v -1.16715 7.79945 1.88493
v 1.45528 6.02414 -0.92847
v 1.23781 6.87941 -0.63429
v 2.24227 7.01747 -0.29313
v 2.45974 6.16220 -0.58731
v 2.78793 7.29691 -0.47324
v 1.96260 7.64687 -0.84026
v 1.41940 7.33019 0.07932
v 2.24474 6.98024 0.44633
v 3.25076 7.32649 -0.90081
v 4.00200 7.86081 -0.60882
v 3.33415 8.42358 0.07963
v 2.58290 7.88926 -0.21237
v 3.71272 8.39986 -1.10775
v 3.97507 7.41417 -0.44932
v 2.65216 7.35782 -0.00656
v 2.38981 8.34351 -0.66499
v 2.89235 5.98841 0.13823
v 2.14212 5.87918 -0.36357
v 1.74884 6.76353 0.03190
v 2.49907 6.87277 0.53370
v 2.76110 7.52563 0.83206
v 2.43494 7.11036 1.50103
v 3.31508 6.72242 1.68934
v 3.64124 7.13769 1.02037
v 2.56865 6.40867 1.04110
v 2.26090 7.38081 1.23488
v 3.01977 7.78600 0.40741
v 3.32752 6.81385 0.21362
v 3.87534 7.36623 -1.02729
v 3.02102 6.96721 -1.02033
v 2.57794 7.92049 -0.75427
v 3.43226 8.31951 -0.76122
v 2.81885 7.71856 -0.62833
v 3.48009 6.99724 -0.73536
v 3.97066 7.57203 -1.57824
v 3.30943 8.29335 -1.47121
v 2.99492 8.20294 -1.73592
v 3.44447 7.80109 -0.88656
v 3.87897 6.89860 -1.54352
v 3.42943 7.30045 -2.39288
v 2.28888 7.61878 -0.70157
v 1.44999 7.58159 -0.59450
v 1.51748 8.20444 0.15061
v 2.35637 8.24163 0.04354
v 2.34478 8.49335 -0.79257
v 1.61208 7.63490 -0.37328
v 1.41437 8.36889 0.78398
v 2.14707 9.22733 0.36469
v 2.69294 8.42965 -0.09321
v 2.34874 9.28219 0.35388
v 1.32368 9.16384 -0.20959
v 1.66788 8.31130 -0.65669
v 1.15401 3.34085 -1.01110
v 1.51725 4.49437 -0.73209
v 0.17649 4.95594 -0.89482
v -0.18675 3.80242 -1.17383
v 1.07098 4.08000 -2.66010
v 0.34480 3.76716 -1.76167
v 0.38398 5.05629 -1.28113
v 1.11016 5.36913 -2.17955
v -0.16660 5.44709 -2.58725
v 0.41806 6.18799 -1.81070
v 1.64820 5.80871 -2.37500
v 1.06354 5.06781 -3.15156
v 1.15298 5.49101 -2.10787
v 0.79695 5.61042 -2.91754
v 1.20698 6.55044 -2.95920
v 1.56301 6.43102 -2.14953
v 1.26857 4.59465 -0.85893
v 1.29072 4.77009 -1.83533
v 1.42838 3.65463 -2.03264
v 1.40622 3.47918 -1.05625
v 2.05211 5.42289 -2.63547
v 1.60322 4.82879 -2.17241
v 2.45218 4.55292 -1.70335
v 2.90108 5.14703 -2.16641
v 2.64115 5.39624 -1.39001
v 1.82736 5.95462 -1.60180
v 1.85673 5.58074 -2.70037
v 2.67052 5.02236 -2.48858
v 0.64567 4.22111 -3.04837
v 0.27235 4.51903 -2.30909
v 1.02979 5.18033 -2.19310
v 1.40311 4.88241 -2.93238
v 0.62354 4.49917 -4.00478
v 0.20067 5.62858 -4.06683
v 0.89882 5.95346 -2.91116
v 1.32168 4.82406 -2.84912
v 1.48488 6.18938 -3.88905
v 1.32087 5.22048 -4.09306
v 0.32902 5.26445 -3.50449
v 0.49302 6.23334 -3.30049
v 1.10027 5.44897 -1.23387
v 0.40077 4.82630 -1.65994
v 0.54938 5.37088 -2.69978
v 1.24888 5.99354 -2.27371
v 1.18456 6.25490 -1.31957
v 1.83449 6.42797 -1.81311
v 1.23884 6.54753 -2.55559
v 0.58891 6.37445 -2.06205
v 0.41343 7.56693 -1.95498
v 1.20611 7.93952 -1.87653
v 1.60229 7.22115 -2.46789
v 0.80961 6.84856 -2.54634
v -0.01661 4.57440 1.72818
v 0.10920 4.76484 0.88494
v -0.68158 5.38408 0.90681
v -0.80738 5.19364 1.75005
v -0.55156 5.69567 1.85918
v -0.67643 5.28513 1.12262
v -1.35571 5.94521 0.86987
v -1.23084 6.35575 1.60643
v -0.53801 6.75739 2.22689
v -1.01665 7.25315 1.64774
v -1.67798 6.46687 1.52125
v -1.19934 5.97112 2.10039
v -0.90953 7.16231 2.78756
v -1.89905 6.98974 2.37487
v -1.39529 6.79323 1.24918
v -0.40578 6.96580 1.66188
v -1.50655 4.96402 0.88032
v -1.17268 5.45745 1.73859
v -0.28046 5.95450 1.10574
v -0.61434 5.46106 0.24748
v -1.19193 6.47504 2.53351
v -1.67836 5.71340 1.89338
v -2.21590 6.63795 1.20182
v -1.72948 7.39958 1.84195
v -1.42474 6.70455 0.99200
v -1.71308 5.67504 0.73728
v -2.44906 5.62723 1.76368
v -2.16072 6.65673 2.01839
v -0.19514 5.79968 2.40969
v 0.17597 5.52148 1.71578
v 0.00865 4.61670 1.98904
v -0.36245 4.89490 2.68295
v 0.03543 5.84410 3.27026
v 0.16180 5.14342 2.82128
v -0.73717 4.84935 3.02718
v -0.86353 5.55004 3.47617
v -0.57862 5.46256 2.22239
v -1.37941 5.15334 2.79434
v -0.67583 5.09441 3.74757
v 0.12496 5.40362 3.17562
v -0.69755 5.85258 1.40114
v -0.63517 6.16517 0.62754
v -1.28242 6.84190 0.84880
v -1.34480 6.52930 1.62240
v -0.86061 7.41666 2.26856
v 0.14640 7.60330 1.80744
v -0.41066 7.75377 0.65183
v -1.41767 7.56713 1.11296
v -1.31385 7.77947 0.93594
v -0.77320 6.78763 0.83383
v 0.04130 7.13293 1.79234
v -0.49936 8.12478 1.89445
v 1.39559 7.17150 -0.57099
v 2.38234 6.91843 -0.60161
v 2.08921 5.79038 -0.72495
v 1.10246 6.04345 -0.69433
v 2.61144 6.95662 0.19884
v 2.99210 6.63973 -0.84984
v 1.93552 7.22888 -1.41141
v 1.55485 7.54578 -0.36273
vt 0.00000 1.00000
vt 0.16667 1.00000
vt 0.16667 0.25974
vt 0.00000 0.25974
vt 0.33333 1.00000
vt 0.33333 0.25974
vt 0.50000 1.00000
vt 0.50000 0.25974
vt 0.66667 1.00000
vt 0.66667 0.25974
vt 0.83333 1.00000
vt 0.83333 0.25974
vt 1.00000 1.00000
vt 1.00000 0.25974
vt 0.16667 -0.48051
vt 0.00000 -0.48051
vt 0.33333 -0.48051
vt 0.50000 -0.48051
vt 0.66667 -0.48051
vt 0.83333 -0.48051
vt 1.00000 -0.48051
vt 0.16667 -1.22077
vt 0.00000 -1.22077
vt 0.33333 -1.22077
vt 0.50000 -1.22077
vt 0.66667 -1.22077
vt 0.83333 -1.22077
vt 1.00000 -1.22077
vt 0.16667 -1.96102
vt 0.00000 -1.96102
vt 0.33333 -1.96102
vt 0.50000 -1.96102
vt 0.66667 -1.96102
vt 0.83333 -1.96102
vt 1.00000 -1.96102
vt 0.16667 -2.70128
vt 0.00000 -2.70128
vt 0.33333 -2.70128
vt 0.50000 -2.70128
vt 0.66667 -2.70128
vt 0.83333 -2.70128
vt 1.00000 -2.70128
vt 0.08333 -3.21946
vt 0.25000 -3.21946
vt 0.41667 -3.21946
vt 0.58333 -3.21946
vt 0.75000 -3.21946
vt 0.91667 -3.21946
vt 0.20000 1.00000
vt 0.20000 0.04881
vt 0.00000 0.04881
vt 0.40000 1.00000
vt 0.40000 0.04881
vt 0.60000 1.00000
vt 0.60000 0.04881
vt 0.80000 1.00000
vt 0.80000 0.04881
vt 1.00000 0.04881
vt 0.20000 -0.90238
vt 0.00000 -0.90238
vt 0.40000 -0.90238
vt 0.60000 -0.90238
vt 0.80000 -0.90238
vt 1.00000 -0.90238
vt 0.20000 -1.85357
vt 0.00000 -1.85357
vt 0.40000 -1.85357
vt 0.60000 -1.85357
vt 0.80000 -1.85357
vt 1.00000 -1.85357
vt 0.20000 -2.80476
vt 0.00000 -2.80476
vt 0.40000 -2.80476
vt 0.60000 -2.80476
vt 0.80000 -2.80476
vt 1.00000 -2.80476
vt 0.10000 -3.47060
vt 0.30000 -3.47060
vt 0.50000 -3.47060
vt 0.70000 -3.47060
vt 0.90000 -3.47060
vt 0.33333 -1.13048
vt 0.00000 -1.13048
vt 0.66667 -1.13048
vt 1.00000 -1.13048
vt 0.33333 -3.26096
vt 0.00000 -3.26096
vt 0.66667 -3.26096
vt 1.00000 -3.26096
vt 0.16667 -4.75230
vt 0.50000 -4.75230
vt 0.83333 -4.75230
vt 0.33333 -1.82376
vt 0.00000 -1.82376
vt 0.66667 -1.82376
vt 1.00000 -1.82376
vt 0.33333 -4.64752
vt 0.00000 -4.64752
vt 0.66667 -4.64752
vt 1.00000 -4.64752
vt 0.16667 -6.62415
vt 0.50000 -6.62415
vt 0.83333 -6.62415
vt 0.33333 -1.57079
vt 0.00000 -1.57079
vt 0.66667 -1.57079
vt 1.00000 -1.57079
vt 0.33333 -4.14158
vt 0.00000 -4.14158
vt 0.66667 -4.14158
vt 1.00000 -4.14158
vt 0.16667 -5.94113
vt 0.50000 -5.94113
vt 0.83333 -5.94113
vt 0.20000 -0.09839
vt 0.00000 -0.09839
vt 0.40000 -0.09839
vt 0.60000 -0.09839
vt 0.80000 -0.09839
vt 1.00000 -0.09839
vt 0.20000 -1.19679
vt 0.00000 -1.19679
vt 0.40000 -1.19679
vt 0.60000 -1.19679
vt 0.80000 -1.19679
vt 1.00000 -1.19679
vt 0.20000 -2.29518
vt 0.00000 -2.29518
vt 0.40000 -2.29518
vt 0.60000 -2.29518
vt 0.80000 -2.29518
vt 1.00000 -2.29518
vt 0.20000 -3.39358
vt 0.00000 -3.39358
vt 0.40000 -3.39358
vt 0.60000 -3.39358
vt 0.80000 -3.39358
vt 1.00000 -3.39358
vt 0.10000 -4.16245
vt 0.30000 -4.16245
vt 0.50000 -4.16245
vt 0.70000 -4.16245
vt 0.90000 -4.16245
vt 0.33333 -1.30983
vt 0.00000 -1.30983
vt 0.66667 -1.30983
vt 1.00000 -1.30983
vt 0.33333 -3.61965
vt 0.00000 -3.61965
vt 0.66667 -3.61965
vt 1.00000 -3.61965
vt 0.16667 -5.23653
vt 0.50000 -5.23653
vt 0.83333 -5.23653
vt 0.33333 -1.32385
vt 0.00000 -1.32385
vt 0.66667 -1.32385
vt 1.00000 -1.32385
vt 0.33333 -3.64770
vt 0.00000 -3.64770
vt 0.66667 -3.64770
vt 1.00000 -3.64770
vt 0.16667 -5.27439
vt 0.50000 -5.27439
vt 0.83333 -5.27439
vt 0.33333 -1.41060
vt 0.00000 -1.41060
vt 0.66667 -1.41060
vt 1.00000 -1.41060
vt 0.33333 -3.82120
vt 0.00000 -3.82120
vt 0.66667 -3.82120
vt 1.00000 -3.82120
vt 0.16667 -5.50862
vt 0.50000 -5.50862
vt 0.83333 -5.50862
vt 0.20000 -0.29923
vt 0.00000 -0.29923
vt 0.40000 -0.29923
vt 0.60000 -0.29923
vt 0.80000 -0.29923
vt 1.00000 -0.29923
vt 0.20000 -1.59845
vt 0.00000 -1.59845
vt 0.40000 -1.59845
vt 0.60000 -1.59845
vt 0.80000 -1.59845
vt 1.00000 -1.59845
vt 0.20000 -2.89768
vt 0.00000 -2.89768
vt 0.40000 -2.89768
vt 0.60000 -2.89768
vt 0.80000 -2.89768
vt 1.00000 -2.89768
vt 0.20000 -4.19691
vt 0.00000 -4.19691
vt 0.40000 -4.19691
vt 0.60000 -4.19691
vt 0.80000 -4.19691
vt 1.00000 -4.19691
vt 0.10000 -5.10637
vt 0.30000 -5.10637
vt 0.50000 -5.10637
vt 0.70000 -5.10637
vt 0.90000 -5.10637
vt 0.33333 -1.77765
vt 0.00000 -1.77765
vt 0.66667 -1.77765
vt 1.00000 -1.77765
vt 0.33333 -4.55530
vt 0.00000 -4.55530
vt 0.66667 -4.55530
vt 1.00000 -4.55530
vt 0.16667 -6.49965
vt 0.50000 -6.49965
vt 0.83333 -6.49965
vt 0.33333 -2.64182
vt 0.00000 -2.64182
vt 0.66667 -2.64182
vt 1.00000 -2.64182
vt 0.33333 -6.28364
vt 0.00000 -6.28364
vt 0.66667 -6.28364
vt 1.00000 -6.28364
vt 0.16667 -8.83292
vt 0.50000 -8.83292
vt 0.83333 -8.83292
vt 0.33333 -1.85064
vt 0.00000 -1.85064
vt 0.66667 -1.85064
vt 1.00000 -1.85064
vt 0.33333 -4.70128
vt 0.00000 -4.70128
vt 0.66667 -4.70128
vt 1.00000 -4.70128
vt 0.16667 -6.69672
vt 0.50000 -6.69672
vt 0.83333 -6.69672
vt 0.00000 0.00000
vt 1.00000 0.00000
usemtl bark
f 1/1 2/2 3/3
f 1/1 3/3 4/4
f 2/2 5/5 6/6
f 2/2 6/6 3/3
f 5/5 7/7 8/8
f 5/5 8/8 6/6
f 7/7 9/9 10/10
f 7/7 10/10 8/8
f 9/9 11/11 12/12
f 9/9 12/12 10/10
f 11/11 13/13 14/14
f 11/11 14/14 12/12
f 4/4 3/3 15/15
f 4/4 15/15 16/16
f 3/3 6/6 17/17
f 3/3 17/17 15/15
f 6/6 8/8 18/18
f 6/6 18/18 17/17
f 8/8 10/10 19/19
f 8/8 19/19 18/18
f 10/10 12/12 20/20
f 10/10 20/20 19/19
f 12/12 14/14 21/21
f 12/12 21/21 20/20
f 16/16 15/15 22/22
f 16/16 22/22 23/23
f 15/15 17/17 24/24
f 15/15 24/24 22/22
f 17/17 18/18 25/25
f 17/17 25/25 24/24
f 18/18 19/19 26/26
f 18/18 26/26 25/25
f 19/19 20/20 27/27
f 19/19 27/27 26/26
f 20/20 21/21 28/28
f 20/20 28/28 27/27
f 23/23 22/22 29/29
f 23/23 29/29 30/30
f 22/22 24/24 31/31
f 22/22 31/31 29/29
f 24/24 25/25 32/32
f 24/24 32/32 31/31
f 25/25 26/26 33/33
f 25/25 33/33 32/32
f 26/26 27/27 34/34
f 26/26 34/34 33/33
f 27/27 28/28 35/35
f 27/27 35/35 34/34
f 30/30 29/29 36/36
f 30/30 36/36 37/37
f 29/29 31/31 38/38
f 29/29 38/38 36/36
f 31/31 32/32 39/39
f 31/31 39/39 38/38
f 32/32 33/33 40/40
f 32/32 40/40 39/39
f 33/33 34/34 41/41
f 33/33 41/41 40/40
f 34/34 35/35 42/42
f 34/34 42/42 41/41
f 37/37 36/36 43/43
f 36/36 38/38 43/44
f 38/38 39/39 43/45
f 39/39 40/40 43/46
f 40/40 41/41 43/47
f 41/41 42/42 43/48
f 44/1 45/49 46/50
f 44/1 46/50 47/51
f 45/49 48/52 49/53
f 45/49 49/53 46/50
f 48/52 50/54 51/55
f 48/52 51/55 49/53
f 50/54 52/56 53/57
f 50/54 53/57 51/55
f 52/56 54/13 47/58
f 52/56 47/58 53/57
f 47/51 46/50 55/59
f 47/51 55/59 56/60
f 46/50 49/53 57/61
f 46/50 57/61 55/59
f 49/53 51/55 58/62
f 49/53 58/62 57/61
f 51/55 53/57 59/63
f 51/55 59/63 58/62
f 53/57 47/58 56/64
f 53/57 56/64 59/63
f 56/60 55/59 60/65
f 56/60 60/65 61/66
f 55/59 57/61 62/67
f 55/59 62/67 60/65
f 57/61 58/62 63/68
f 57/61 63/68 62/67
f 58/62 59/63 64/69
f 58/62 64/69 63/68
f 59/63 56/64 61/70
f 59/63 61/70 64/69
f 61/66 60/65 65/71
f 61/66 65/71 66/72
f 60/65 62/67 67/73
f 60/65 67/73 65/71
f 62/67 63/68 68/74
f 62/67 68/74 67/73
f 63/68 64/69 69/75
f 63/68 69/75 68/74
f 64/69 61/70 66/76
f 64/69 66/76 69/75
f 66/72 65/71 70/77
f 65/71 67/73 70/78
f 67/73 68/74 70/79
f 68/74 69/75 70/80
f 69/75 66/76 70/81
f 71/1 72/5 73/82
f 71/1 73/82 74/83
f 72/5 75/9 76/84
f 72/5 76/84 73/82
f 75/9 71/13 74/85
f 75/9 74/85 76/84
f 74/83 73/82 77/86
f 74/83 77/86 78/87
f 73/82 76/84 79/88
f 73/82 79/88 77/86
f 76/84 74/85 78/89
f 76/84 78/89 79/88
f 78/87 77/86 80/90
f 77/86 79/88 80/91
f 79/88 78/89 80/92
f 81/1 82/5 83/93
f 81/1 83/93 84/94
f 82/5 85/9 86/95
f 82/5 86/95 83/93
f 85/9 81/13 84/96
f 85/9 84/96 86/95
f 84/94 83/93 87/97
f 84/94 87/97 88/98
f 83/93 86/95 89/99
f 83/93 89/99 87/97
f 86/95 84/96 88/100
f 86/95 88/100 89/99
f 88/98 87/97 90/101
f 87/97 89/99 90/102
f 89/99 88/100 90/103
f 91/1 92/5 93/104
f 91/1 93/104 94/105
f 92/5 95/9 96/106
f 92/5 96/106 93/104
f 95/9 91/13 94/107
f 95/9 94/107 96/106
f 94/105 93/104 97/108
f 94/105 97/108 98/109
f 93/104 96/106 99/110
f 93/104 99/110 97/108
f 96/106 94/107 100/111
f 96/106 100/111 99/110
f 98/109 97/108 101/112
f 97/108 99/110 101/113
f 99/110 100/111 101/114
f 102/1 103/49 104/115
f 102/1 104/115 105/116
f 103/49 106/52 107/117
f 103/49 107/117 104/115
f 106/52 108/54 109/118
f 106/52 109/118 107/117
f 108/54 110/56 111/119
f 108/54 111/119 109/118
f 110/56 112/13 105/120
f 110/56 105/120 111/119
f 105/116 104/115 113/121
f 105/116 113/121 114/122
f 104/115 107/117 115/123
f 104/115 115/123 113/121
f 107/117 109/118 116/124
f 107/117 116/124 115/123
f 109/118 111/119 117/125
f 109/118 117/125 116/124
f 111/119 105/120 118/126
f 111/119 118/126 117/125
f 114/122 113/121 119/127
f 114/122 119/127 120/128
f 113/121 115/123 121/129
f 113/121 121/129 119/127
f 115/123 116/124 122/130
f 115/123 122/130 121/129
f 116/124 117/125 123/131
f 116/124 123/131 122/130
f 117/125 118/126 120/132
f 117/125 120/132 123/131
f 120/128 119/127 124/133
f 120/128 124/133 125/134
f 119/127 121/129 126/135
f 119/127 126/135 124/133
f 121/129 122/130 127/136
f 121/129 127/136 126/135
f 122/130 123/131 128/137
f 122/130 128/137 127/136
f 123/131 120/132 125/138
f 123/131 125/138 128/137
f 125/134 124/133 129/139
f 124/133 126/135 129/140
f 126/135 127/136 129/141
f 127/136 128/137 129/142
f 128/137 125/138 129/143
f 130/1 131/5 132/144
f 130/1 132/144 133/145
f 131/5 134/9 135/146
f 131/5 135/146 132/144
f 134/9 130/13 133/147
f 134/9 133/147 135/146
f 133/145 132/144 136/148
f 133/145 136/148 137/149
f 132/144 135/146 138/150
f 132/144 138/150 136/148
f 135/146 133/147 137/151
f 135/146 137/151 138/150
f 137/149 136/148 139/152
f 136/148 138/150 139/153
f 138/150 137/151 139/154
f 140/1 141/5 142/155
f 140/1 142/155 143/156
f 141/5 144/9 145/157
f 141/5 145/157 142/155
f 144/9 140/13 143/158
f 144/9 143/158 145/157
f 143/156 142/155 146/159
f 143/156 146/159 147/160
f 142/155 145/157 148/161
f 142/155 148/161 146/159
f 145/157 143/158 147/162
f 145/157 147/162 148/161
f 147/160 146/159 149/163
f 146/159 148/161 149/164
f 148/161 147/162 149/165
f 150/1 151/5 152/166
f 150/1 152/166 153/167
f 151/5 154/9 155/168
f 151/5 155/168 152/166
f 154/9 150/13 156/169
f 154/9 156/169 155/168
f 153/167 152/166 157/170
f 153/167 157/170 158/171
f 152/166 155/168 159/172
f 152/166 159/172 157/170
f 155/168 156/169 158/173
f 155/168 158/173 159/172
f 158/171 157/170 160/174
f 157/170 159/172 160/175
f 159/172 158/173 160/176
f 161/1 162/49 163/177
f 161/1 163/177 164/178
f 162/49 165/52 166/179
f 162/49 166/179 163/177
f 165/52 167/54 168/180
f 165/52 168/180 166/179
f 167/54 169/56 170/181
f 167/54 170/181 168/180
f 169/56 161/13 171/182
f 169/56 171/182 170/181
f 164/178 163/177 172/183
f 164/178 172/183 173/184
f 163/177 166/179 174/185
f 163/177 174/185 172/183
f 166/179 168/180 175/186
f 166/179 175/186 174/185
f 168/180 170/181 176/187
f 168/180 176/187 175/186
f 170/181 171/182 173/188
f 170/181 173/188 176/187
f 173/184 172/183 177/189
f 173/184 177/189 178/190
f 172/183 174/185 179/191
f 172/183 179/191 177/189
f 174/185 175/186 180/192
f 174/185 180/192 179/191
f 175/186 176/187 181/193
f 175/186 181/193 180/192
f 176/187 173/188 178/194
f 176/187 178/194 181/193
f 178/190 177/189 182/195
f 178/190 182/195 183/196
f 177/189 179/191 184/197
f 177/189 184/197 182/195
f 179/191 180/192 185/198
f 179/191 185/198 184/197
f 180/192 181/193 186/199
f 180/192 186/199 185/198
f 181/193 178/194 183/200
f 181/193 183/200 186/199
f 183/196 182/195 187/201
f 182/195 184/197 187/202
f 184/197 185/198 187/203
f 185/198 186/199 187/204
f 186/199 183/200 187/205
f 188/1 189/5 190/206
f 188/1 190/206 191/207
f 189/5 192/9 193/208
f 189/5 193/208 190/206
f 192/9 188/13 191/209
f 192/9 191/209 193/208
f 191/207 190/206 194/210
f 191/207 194/210 195/211
f 190/206 193/208 196/212
f 190/206 196/212 194/210
f 193/208 191/209 195/213
f 193/208 195/213 196/212
f 195/211 194/210 197/214
f 194/210 196/212 197/215
f 196/212 195/213 197/216
f 198/1 199/5 200/217
f 198/1 200/217 201/218
f 199/5 202/9 203/219
f 199/5 203/219 200/217
f 202/9 198/13 201/220
f 202/9 201/220 203/219
f 201/218 200/217 204/221
f 201/218 204/221 205/222
f 200/217 203/219 206/223
f 200/217 206/223 204/221
f 203/219 201/220 205/224
f 203/219 205/224 206/223
f 205/222 204/221 207/225
f 204/221 206/223 207/226
f 206/223 205/224 207/227
f 208/1 209/5 210/228
f 208/1 210/228 211/229
f 209/5 212/9 213/230
f 209/5 213/230 210/228
f 212/9 208/13 211/231
f 212/9 211/231 213/230
f 211/229 210/228 214/232
f 211/229 214/232 215/233
f 210/228 213/230 216/234
f 210/228 216/234 214/232
f 213/230 211/231 215/235
f 213/230 215/235 216/234
f 215/233 214/232 217/236
f 214/232 216/234 217/237
f 216/234 215/235 217/238
usemtl leaf
f 218/239 219/240 220/13
f 218/239 220/13 221/1
f 222/239 223/240 224/13
f 222/239 224/13 225/1
f 226/239 227/240 228/13
f 226/239 228/13 229/1
f 230/239 231/240 232/13
f 230/239 232/13 233/1
f 234/239 235/240 236/13
f 234/239 236/13 237/1
f 238/239 239/240 240/13
f 238/239 240/13 241/1
f 242/239 243/240 244/13
f 242/239 244/13 245/1
f 246/239 247/240 248/13
f 246/239 248/13 249/1
f 250/239 251/240 252/13
f 250/239 252/13 253/1
f 254/239 255/240 256/13
f 254/239 256/13 257/1
f 258/239 259/240 260/13
f 258/239 260/13 261/1
f 262/239 263/240 264/13
f 262/239 264/13 265/1
f 266/239 267/240 268/13
f 266/239 268/13 269/1
f 270/239 271/240 272/13
f 270/239 272/13 273/1
f 274/239 275/240 276/13
f 274/239 276/13 277/1
f 278/239 279/240 280/13
f 278/239 280/13 281/1
f 282/239 283/240 284/13
f 282/239 284/13 285/1
f 286/239 287/240 288/13
f 286/239 288/13 289/1
f 290/239 291/240 292/13
f 290/239 292/13 293/1
f 294/239 295/240 296/13
f 294/239 296/13 297/1
f 298/239 299/240 300/13
f 298/239 300/13 301/1
f 302/239 303/240 304/13
f 302/239 304/13 305/1
f 306/239 307/240 308/13
f 306/239 308/13 309/1
f 310/239 311/240 312/13
f 310/239 312/13 313/1
f 314/239 315/240 316/13
f 314/239 316/13 317/1
f 318/239 319/240 320/13
f 318/239 320/13 321/1
f 322/239 323/240 324/13
f 322/239 324/13 325/1
f 326/239 327/240 328/13
f 326/239 328/13 329/1
f 330/239 331/240 332/13
f 330/239 332/13 333/1
f 334/239 335/240 336/13
f 334/239 336/13 337/1
f 338/239 339/240 340/13
f 338/239 340/13 341/1
f 342/239 343/240 344/13
f 342/239 344/13 345/1
f 346/239 347/240 348/13
f 346/239 348/13 349/1
f 350/239 351/240 352/13
f 350/239 352/13 353/1
f 354/239 355/240 356/13
f 354/239 356/13 357/1
f 358/239 359/240 360/13
f 358/239 360/13 361/1
f 362/239 363/240 364/13
f 362/239 364/13 365/1
f 366/239 367/240 368/13
f 366/239 368/13 369/1
f 370/239 371/240 372/13
f 370/239 372/13 373/1
f 374/239 375/240 376/13
f 374/239 376/13 377/1
f 378/239 379/240 380/13
f 378/239 380/13 381/1
f 382/239 383/240 384/13
f 382/239 384/13 385/1
f 386/239 387/240 388/13
f 386/239 388/13 389/1
f 390/239 391/240 392/13
f 390/239 392/13 393/1
f 394/239 395/240 396/13
f 394/239 396/13 397/1
f 398/239 399/240 400/13
f 398/239 400/13 401/1
f 402/239 403/240 404/13
f 402/239 404/13 405/1
f 406/239 407/240 408/13
f 406/239 408/13 409/1
f 410/239 411/240 412/13
f 410/239 412/13 413/1
f 414/239 415/240 416/13
f 414/239 416/13 417/1
f 418/239 419/240 420/13
f 418/239 420/13 421/1
f 422/239 423/240 424/13
f 422/239 424/13 425/1
f 426/239 427/240 428/13
f 426/239 428/13 429/1
f 430/239 431/240 432/13
f 430/239 432/13 433/1
f 434/239 435/240 436/13
f 434/239 436/13 437/1
f 438/239 439/240 440/13
f 438/239 440/13 441/1
f 442/239 443/240 444/13
f 442/239 444/13 445/1
f 446/239 447/240 448/13
f 446/239 448/13 449/1
f 450/239 451/240 452/13
f 450/239 452/13 453/1
f 454/239 455/240 456/13
f 454/239 456/13 457/1
f 458/239 459/240 460/13
f 458/239 460/13 461/1
f 462/239 463/240 464/13
f 462/239 464/13 465/1
f 466/239 467/240 468/13
f 466/239 468/13 469/1
f 470/239 471/240 472/13
f 470/239 472/13 473/1
f 474/239 475/240 476/13
f 474/239 476/13 477/1
f 478/239 479/240 480/13
f 478/239 480/13 481/1
f 482/239 483/240 484/13
f 482/239 484/13 485/1
f 486/239 487/240 488/13
f 486/239 488/13 489/1
f 490/239 491/240 492/13
f 490/239 492/13 493/1
f 494/239 495/240 496/13
f 494/239 496/13 497/1
f 498/239 499/240 500/13
f 498/239 500/13 501/1
f 502/239 503/240 504/13
f 502/239 504/13 505/1
f 506/239 507/240 508/13
f 506/239 508/13 509/1
f 510/239 511/240 512/13
f 510/239 512/13 513/1
f 514/239 515/240 516/13
f 514/239 516/13 517/1
f 518/239 519/240 520/13
f 518/239 520/13 521/1
f 522/239 523/240 524/13
f 522/239 524/13 525/1
f 526/239 527/240 528/13
f 526/239 528/13 529/1
f 530/239 531/240 532/13
f 530/239 532/13 533/1
f 534/239 535/240 536/13
f 534/239 536/13 537/1
f 538/239 539/240 540/13
f 538/239 540/13 541/1
f 542/239 543/240 544/13
f 542/239 544/13 545/1
f 546/239 547/240 548/13
f 546/239 548/13 549/1
f 550/239 551/240 552/13
f 550/239 552/13 553/1
f 554/239 555/240 556/13
f 554/239 556/13 557/1
f 558/239 559/240 560/13
f 558/239 560/13 561/1
f 562/239 563/240 564/13
f 562/239 564/13 565/1
f 566/239 567/240 568/13
f 566/239 568/13 569/1
f 570/239 571/240 572/13
f 570/239 572/13 573/1
f 574/239 575/240 576/13
f 574/239 576/13 577/1
f 578/239 579/240 580/13
f 578/239 580/13 581/1
f 582/239 583/240 584/13
f 582/239 584/13 585/1
f 586/239 587/240 588/13
f 586/239 588/13 589/1
f 590/239 591/240 592/13
f 590/239 592/13 593/1
f 594/239 595/240 596/13
f 594/239 596/13 597/1
f 598/239 599/240 600/13
f 598/239 600/13 601/1
f 602/239 603/240 604/13
f 602/239 604/13 605/1
f 606/239 607/240 608/13
f 606/239 608/13 609/1
f 610/239 611/240 612/13
f 610/239 612/13 613/1
f 614/239 615/240 616/13
f 614/239 616/13 617/1
f 618/239 619/240 620/13
f 618/239 620/13 621/1
f 622/239 623/240 624/13
f 622/239 624/13 625/1
f 626/239 627/240 628/13
f 626/239 628/13 629/1
f 630/239 631/240 632/13
f 630/239 632/13 633/1
f 634/239 635/240 636/13
f 634/239 636/13 637/1
f 638/239 639/240 640/13
f 638/239 640/13 641/1
f 642/239 643/240 644/13
f 642/239 644/13 645/1
f 646/239 647/240 648/13
f 646/239 648/13 649/1
f 650/239 651/240 652/13
f 650/239 652/13 653/1
f 654/239 655/240 656/13
f 654/239 656/13 657/1
f 658/239 659/240 660/13
f 658/239 660/13 661/1
f 662/239 663/240 664/13
f 662/239 664/13 665/1
f 666/239 667/240 668/13
f 666/239 668/13 669/1
f 670/239 671/240 672/13
f 670/239 672/13 673/1
f 674/239 675/240 676/13
f 674/239 676/13 677/1
f 678/239 679/240 680/13
f 678/239 680/13 681/1
f 682/239 683/240 684/13
f 682/239 684/13 685/1
f 686/239 687/240 688/13
f 686/239 688/13 689/1
f 690/239 691/240 692/13
f 690/239 692/13 693/1
f 694/239 695/240 696/13
f 694/239 696/13 697/1
f 698/239 699/240 700/13
f 698/239 700/13 701/1
f 702/239 703/240 704/13
f 702/239 704/13 705/1
f 706/239 707/240 708/13
f 706/239 708/13 709/1
f 710/239 711/240 712/13
f 710/239 712/13 713/1
f 714/239 715/240 716/13
f 714/239 716/13 717/1
f 718/239 719/240 720/13
f 718/239 720/13 721/1
f 722/239 723/240 724/13
f 722/239 724/13 725/1
f 726/239 727/240 728/13
f 726/239 728/13 729/1
f 730/239 731/240 732/13
f 730/239 732/13 733/1
f 734/239 735/240 736/13
f 734/239 736/13 737/1
f 738/239 739/240 740/13
f 738/239 740/13 741/1
f 742/239 743/240 744/13
f 742/239 744/13 745/1
f 746/239 747/240 748/13
f 746/239 748/13 749/1
f 750/239 751/240 752/13
f 750/239 752/13 753/1
f 754/239 755/240 756/13
f 754/239 756/13 757/1
f 758/239 759/240 760/13
f 758/239 760/13 761/1
f 762/239 763/240 764/13
f 762/239 764/13 765/1
f 766/239 767/240 768/13
f 766/239 768/13 769/1
f 770/239 771/240 772/13
f 770/239 772/13 773/1
f 774/239 775/240 776/13
f 774/239 776/13 777/1
f 778/239 779/240 780/13
f 778/239 780/13 781/1
f 782/239 783/240 784/13
f 782/239 784/13 785/1
f 786/239 787/240 788/13
f 786/239 788/13 789/1
f 790/239 791/240 792/13
f 790/239 792/13 793/1
f 794/239 795/240 796/13
f 794/239 796/13 797/1
f 798/239 799/240 800/13
f 798/239 800/13 801/1
f 802/239 803/240 804/13
f 802/239 804/13 805/1
f 806/239 807/240 808/13
f 806/239 808/13 809/1
f 810/239 811/240 812/13
f 810/239 812/13 813/1
f 814/239 815/240 816/13
f 814/239 816/13 817/1
f 818/239 819/240 820/13
f 818/239 820/13 821/1
f 822/239 823/240 824/13
f 822/239 824/13 825/1
f 826/239 827/240 828/13
f 826/239 828/13 829/1
f 830/239 831/240 832/13
f 830/239 832/13 833/1
f 834/239 835/240 836/13
f 834/239 836/13 837/1
f 838/239 839/240 840/13
f 838/239 840/13 841/1
f 842/239 843/240 844/13
f 842/239 844/13 845/1
f 846/239 847/240 848/13
f 846/239 848/13 849/1
f 850/239 851/240 852/13
f 850/239 852/13 853/1
f 854/239 855/240 856/13
f 854/239 856/13 857/1
f 858/239 859/240 860/13
f 858/239 860/13 861/1
f 862/239 863/240 864/13
f 862/239 864/13 865/1
f 866/239 867/240 868/13
f 866/239 868/13 869/1
f 870/239 871/240 872/13
f 870/239 872/13 873/1
f 874/239 875/240 876/13
f 874/239 876/13 877/1
f 878/239 879/240 880/13
f 878/239 880/13 881/1
f 882/239 883/240 884/13
f 882/239 884/13 885/1
f 886/239 887/240 888/13
f 886/239 888/13 889/1
f 890/239 891/240 892/13
f 890/239 892/13 893/1
f 894/239 895/240 896/13
f 894/239 896/13 897/1
f 898/239 899/240 900/13
f 898/239 900/13 901/1
f 902/239 903/240 904/13
f 902/239 904/13 905/1
f 906/239 907/240 908/13
f 906/239 908/13 909/1
f 910/239 911/240 912/13
f 910/239 912/13 913/1
f 914/239 915/240 916/13
f 914/239 916/13 917/1
f 918/239 919/240 920/13
f 918/239 920/13 921/1
f 922/239 923/240 924/13
f 922/239 924/13 925/1
f 926/239 927/240 928/13
f 926/239 928/13 929/1
f 930/239 931/240 932/13
f 930/239 932/13 933/1
f 934/239 935/240 936/13
f 934/239 936/13 937/1
f 938/239 939/240 940/13
f 938/239 940/13 941/1
f 942/239 943/240 944/13
f 942/239 944/13 945/1
f 946/239 947/240 948/13
f 946/239 948/13 949/1
f 950/239 951/240 952/13
f 950/239 952/13 953/1
f 954/239 955/240 956/13
f 954/239 956/13 957/1
f 958/239 959/240 960/13
f 958/239 960/13 961/1
f 962/239 963/240 964/13
f 962/239 964/13 965/1
f 966/239 967/240 968/13
f 966/239 968/13 969/1
f 970/239 971/240 972/13
f 970/239 972/13 973/1
f 974/239 975/240 976/13
f 974/239 976/13 977/1
f 978/239 979/240 980/13
f 978/239 980/13 981/1
f 982/239 983/240 984/13
f 982/239 984/13 985/1
f 986/239 987/240 988/13
f 986/239 988/13 989/1
f 990/239 991/240 992/13
f 990/239 992/13 993/1
f 994/239 995/240 996/13
f 994/239 996/13 997/1
f 998/239 999/240 1000/13
f 998/239 1000/13 1001/1
f 1002/239 1003/240 1004/13
f 1002/239 1004/13 1005/1
f 1006/239 1007/240 1008/13
f 1006/239 1008/13 1009/1
f 1010/239 1011/240 1012/13
f 1010/239 1012/13 1013/1
f 1014/239 1015/240 1016/13
f 1014/239 1016/13 1017/1
f 1018/239 1019/240 1020/13
f 1018/239 1020/13 1021/1
f 1022/239 1023/240 1024/13
f 1022/239 1024/13 1025/1
f 1026/239 1027/240 1028/13
f 1026/239 1028/13 1029/1
f 1030/239 1031/240 1032/13
f 1030/239 1032/13 1033/1
f 1034/239 1035/240 1036/13
f 1034/239 1036/13 1037/1
f 1038/239 1039/240 1040/13
f 1038/239 1040/13 1041/1
f 1042/239 1043/240 1044/13
f 1042/239 1044/13 1045/1
f 1046/239 1047/240 1048/13
f 1046/239 1048/13 1049/1
f 1050/239 1051/240 1052/13
f 1050/239 1052/13 1053/1
f 1054/239 1055/240 1056/13
f 1054/239 1056/13 1057/1
f 1058/239 1059/240 1060/13
f 1058/239 1060/13 1061/1
f 1062/239 1063/240 1064/13
f 1062/239 1064/13 1065/1
f 1066/239 1067/240 1068/13
f 1066/239 1068/13 1069/1
f 1070/239 1071/240 1072/13
f 1070/239 1072/13 1073/1
f 1074/239 1075/240 1076/13
f 1074/239 1076/13 1077/1
f 1078/239 1079/240 1080/13
f 1078/239 1080/13 1081/1
f 1082/239 1083/240 1084/13
f 1082/239 1084/13 1085/1
f 1086/239 1087/240 1088/13
f 1086/239 1088/13 1089/1
f 1090/239 1091/240 1092/13
f 1090/239 1092/13 1093/1
f 1094/239 1095/240 1096/13
f 1094/239 1096/13 1097/1
f 1098/239 1099/240 1100/13
f 1098/239 1100/13 1101/1
f 1102/239 1103/240 1104/13
f 1102/239 1104/13 1105/1
f 1106/239 1107/240 1108/13
f 1106/239 1108/13 1109/1
f 1110/239 1111/240 1112/13
f 1110/239 1112/13 1113/1
f 1114/239 1115/240 1116/13
f 1114/239 1116/13 1117/1
f 1118/239 1119/240 1120/13
f 1118/239 1120/13 1121/1
f 1122/239 1123/240 1124/13
f 1122/239 1124/13 1125/1
f 1126/239 1127/240 1128/13
f 1126/239 1128/13 1129/1
f 1130/239 1131/240 1132/13
f 1130/239 1132/13 1133/1
f 1134/239 1135/240 1136/13
f 1134/239 1136/13 1137/1
f 1138/239 1139/240 1140/13
f 1138/239 1140/13 1141/1
f 1142/239 1143/240 1144/13
f 1142/239 1144/13 1145/1
f 1146/239 1147/240 1148/13
f 1146/239 1148/13 1149/1
f 1150/239 1151/240 1152/13
f 1150/239 1152/13 1153/1
f 1154/239 1155/240 1156/13
f 1154/239 1156/13 1157/1
f 1158/239 1159/240 1160/13
f 1158/239 1160/13 1161/1
f 1162/239 1163/240 1164/13
f 1162/239 1164/13 1165/1
f 1166/239 1167/240 1168/13
f 1166/239 1168/13 1169/1
f 1170/239 1171/240 1172/13
f 1170/239 1172/13 1173/1
f 1174/239 1175/240 1176/13
f 1174/239 1176/13 1177/1
f 1178/239 1179/240 1180/13
f 1178/239 1180/13 1181/1
f 1182/239 1183/240 1184/13
f 1182/239 1184/13 1185/1
f 1186/239 1187/240 1188/13
f 1186/239 1188/13 1189/1
f 1190/239 1191/240 1192/13
f 1190/239 1192/13 1193/1
f 1194/239 1195/240 1196/13
f 1194/239 1196/13 1197/1
f 1198/239 1199/240 1200/13
f 1198/239 1200/13 1201/1
f 1202/239 1203/240 1204/13
f 1202/239 1204/13 1205/1
f 1206/239 1207/240 1208/13
f 1206/239 1208/13 1209/1
f 1210/239 1211/240 1212/13
f 1210/239 1212/13 1213/1
f 1214/239 1215/240 1216/13
f 1214/239 1216/13 1217/1
f 1218/239 1219/240 1220/13
f 1218/239 1220/13 1221/1
f 1222/239 1223/240 1224/13
f 1222/239 1224/13 1225/1
f 1226/239 1227/240 1228/13
f 1226/239 1228/13 1229/1
f 1230/239 1231/240 1232/13
f 1230/239 1232/13 1233/1
f 1234/239 1235/240 1236/13
f 1234/239 1236/13 1237/1
f 1238/239 1239/240 1240/13
f 1238/239 1240/13 1241/1
f 1242/239 1243/240 1244/13
f 1242/239 1244/13 1245/1
f 1246/239 1247/240 1248/13
f 1246/239 1248/13 1249/1
f 1250/239 1251/240 1252/13
f 1250/239 1252/13 1253/1
f 1254/239 1255/240 1256/13
f 1254/239 1256/13 1257/1
f 1258/239 1259/240 1260/13
f 1258/239 1260/13 1261/1
f 1262/239 1263/240 1264/13
f 1262/239 1264/13 1265/1
f 1266/239 1267/240 1268/13
f 1266/239 1268/13 1269/1
f 1270/239 1271/240 1272/13
f 1270/239 1272/13 1273/1
f 1274/239 1275/240 1276/13
f 1274/239 1276/13 1277/1
f 1278/239 1279/240 1280/13
f 1278/239 1280/13 1281/1
f 1282/239 1283/240 1284/13
f 1282/239 1284/13 1285/1
f 1286/239 1287/240 1288/13
f 1286/239 1288/13 1289/1
f 1290/239 1291/240 1292/13
f 1290/239 1292/13 1293/1
f 1294/239 1295/240 1296/13
f 1294/239 1296/13 1297/1
f 1298/239 1299/240 1300/13
f 1298/239 1300/13 1301/1
f 1302/239 1303/240 1304/13
f 1302/239 1304/13 1305/1
f 1306/239 1307/240 1308/13
f 1306/239 1308/13 1309/1
f 1310/239 1311/240 1312/13
f 1310/239 1312/13 1313/1
f 1314/239 1315/240 1316/13
f 1314/239 1316/13 1317/1
f 1318/239 1319/240 1320/13
f 1318/239 1320/13 1321/1
f 1322/239 1323/240 1324/13
f 1322/239 1324/13 1325/1
f 1326/239 1327/240 1328/13
f 1326/239 1328/13 1329/1
f 1330/239 1331/240 1332/13
f 1330/239 1332/13 1333/1
f 1334/239 1335/240 1336/13
f 1334/239 1336/13 1337/1
f 1338/239 1339/240 1340/13
f 1338/239 1340/13 1341/1
f 1342/239 1343/240 1344/13
f 1342/239 1344/13 1345/1
f 1346/239 1347/240 1348/13
f 1346/239 1348/13 1349/1
f 1350/239 1351/240 1352/13
f 1350/239 1352/13 1353/1
f 1354/239 1355/240 1356/13
f 1354/239 1356/13 1357/1
f 1358/239 1359/240 1360/13
f 1358/239 1360/13 1361/1
f 1362/239 1363/240 1364/13
f 1362/239 1364/13 1365/1
f 1366/239 1367/240 1368/13
f 1366/239 1368/13 1369/1
f 1370/239 1371/240 1372/13
f 1370/239 1372/13 1373/1
f 1374/239 1375/240 1376/13
f 1374/239 1376/13 1377/1
f 1378/239 1379/240 1380/13
f 1378/239 1380/13 1381/1
f 1382/239 1383/240 1384/13
f 1382/239 1384/13 1385/1
f 1386/239 1387/240 1388/13
f 1386/239 1388/13 1389/1
f 1390/239 1391/240 1392/13
f 1390/239 1392/13 1393/1
f 1394/239 1395/240 1396/13
f 1394/239 1396/13 1397/1
f 1398/239 1399/240 1400/13
f 1398/239 1400/13 1401/1
f 1402/239 1403/240 1404/13
f 1402/239 1404/13 1405/1
f 1406/239 1407/240 1408/13
f 1406/239 1408/13 1409/1
f 1410/239 1411/240 1412/13
f 1410/239 1412/13 1413/1
f 1414/239 1415/240 1416/13
f 1414/239 1416/13 1417/1
f 1418/239 1419/240 1420/13
f 1418/239 1420/13 1421/1
f 1422/239 1423/240 1424/13
f 1422/239 1424/13 1425/1
f 1426/239 1427/240 1428/13
f 1426/239 1428/13 1429/1
f 1430/239 1431/240 1432/13
f 1430/239 1432/13 1433/1
f 1434/239 1435/240 1436/13
f 1434/239 1436/13 1437/1
f 1438/239 1439/240 1440/13
f 1438/239 1440/13 1441/1
f 1442/239 1443/240 1444/13
f 1442/239 1444/13 1445/1
f 1446/239 1447/240 1448/13
f 1446/239 1448/13 1449/1
f 1450/239 1451/240 1452/13
f 1450/239 1452/13 1453/1
f 1454/239 1455/240 1456/13
f 1454/239 1456/13 1457/1
f 1458/239 1459/240 1460/13
f 1458/239 1460/13 1461/1
f 1462/239 1463/240 1464/13
f 1462/239 1464/13 1465/1
f 1466/239 1467/240 1468/13
f 1466/239 1468/13 1469/1
f 1470/239 1471/240 1472/13
f 1470/239 1472/13 1473/1
f 1474/239 1475/240 1476/13
f 1474/239 1476/13 1477/1
f 1478/239 1479/240 1480/13
f 1478/239 1480/13 1481/1
f 1482/239 1483/240 1484/13
f 1482/239 1484/13 1485/1
f 1486/239 1487/240 1488/13
f 1486/239 1488/13 1489/1
f 1490/239 1491/240 1492/13
f 1490/239 1492/13 1493/1
f 1494/239 1495/240 1496/13
f 1494/239 1496/13 1497/1
f 1498/239 1499/240 1500/13
f 1498/239 1500/13 1501/1
f 1502/239 1503/240 1504/13
f 1502/239 1504/13 1505/1
f 1506/239 1507/240 1508/13
f 1506/239 1508/13 1509/1
f 1510/239 1511/240 1512/13
f 1510/239 1512/13 1513/1
f 1514/239 1515/240 1516/13
f 1514/239 1516/13 1517/1
f 1518/239 1519/240 1520/13
f 1518/239 1520/13 1521/1
f 1522/239 1523/240 1524/13
f 1522/239 1524/13 1525/1
f 1526/239 1527/240 1528/13
f 1526/239 1528/13 1529/1
f 1530/239 1531/240 1532/13
f 1530/239 1532/13 1533/1
f 1534/239 1535/240 1536/13
f 1534/239 1536/13 1537/1
f 1538/239 1539/240 1540/13
f 1538/239 1540/13 1541/1
f 1542/239 1543/240 1544/13
f 1542/239 1544/13 1545/1
f 1546/239 1547/240 1548/13
f 1546/239 1548/13 1549/1
f 1550/239 1551/240 1552/13
f 1550/239 1552/13 1553/1
f 1554/239 1555/240 1556/13
f 1554/239 1556/13 1557/1
f 1558/239 1559/240 1560/13
f 1558/239 1560/13 1561/1
f 1562/239 1563/240 1564/13
f 1562/239 1564/13 1565/1
f 1566/239 1567/240 1568/13
f 1566/239 1568/13 1569/1
f 1570/239 1571/240 1572/13
f 1570/239 1572/13 1573/1
f 1574/239 1575/240 1576/13
f 1574/239 1576/13 1577/1
