# Kitbash of Kenney Retro Urban Kit, CC0
mtllib district-buildings.mtl
v -6.000000 0.000000 -4.000000
v -5.400000 0.000000 -4.000000
v -6.000000 3.200000 -4.000000
v -5.400000 2.144000 -4.000000
v -2.600000 2.144000 -4.000000
v -2.000000 3.200000 -4.000000
v -2.000000 0.000000 -4.000000
v -2.600000 0.000000 -4.000000
v -5.400000 0.000000 -3.600000
v -2.600000 0.000000 -3.600000
v -5.400000 2.144000 -3.600000
v -2.600000 2.144000 -3.600000
v -2.000000 3.200000 0.000000
v -6.000000 3.200000 0.000000
v -2.000000 0.000000 0.000000
v -6.000000 0.000000 0.000000
vn 0.000000 0.000000 -1.000000
vn 0.000000 1.000000 0.000000
vn 0.000000 -1.000000 0.000000
vn 0.000000 0.000000 1.000000
vn -1.000000 0.000000 0.000000
vn 1.000000 0.000000 0.000000
vt 1 0
vt 0.85 0
vt 1 1
vt 0.85 0.67
vt 0.15 0.67
vt 0 1
vt 0 0
vt 0.15 0
vt 5 -11
vt 5 -10
vt 6 -11
vt 6 -10
vt -16 -10
vt -16 -11
vt -17 -10
vt -16.15 -10.9
vt -16.15 -11
vt -16.85 -10.9
vt -16.85 -11
vt -17 -11
vt -2 0
vt -3 0
vt -2 1
vt -3 1
vt -1 1
vt -1 0
vt -0.5 0
vt -0.5 0.67
vt -0.4 0
vt -0.4 0.67
vt 0.5 0.67
vt 0.5 0
vt 0.4 0.67
vt 0.4 0
usemtl wall_garage
f 3/3/1 2/2/1 1/1/1
f 2/2/1 3/3/1 4/4/1
f 4/4/1 3/3/1 5/5/1
f 6/6/1 5/5/1 3/3/1
f 7/7/1 5/5/1 6/6/1
f 5/5/1 7/7/1 8/8/1
f 11/4/1 10/8/1 9/2/1
f 10/8/1 11/4/1 12/5/1
usemtl concrete
f 3/11/2 13/10/2 6/9/2
f 13/10/2 3/11/2 14/12/2
f 16/15/3 7/14/3 15/13/3
f 7/14/3 16/15/3 10/16/3
f 8/17/3 7/14/3 10/16/3
f 10/16/3 16/15/3 9/18/3
f 9/18/3 16/15/3 2/19/3
f 2/19/3 16/15/3 1/20/3
f 11/18/3 5/17/3 12/16/3
f 5/17/3 11/18/3 4/19/3
usemtl wall
f 13/23/4 16/22/4 15/21/4
f 16/22/4 13/23/4 14/24/4
f 16/1/5 3/6/5 1/7/5
f 3/6/5 16/1/5 14/3/5
f 13/23/6 7/26/6 6/25/6
f 7/26/6 13/23/6 15/21/6
f 10/29/5 5/28/5 8/27/5
f 5/28/5 10/29/5 12/30/5
f 11/33/6 2/32/6 4/31/6
f 2/32/6 11/33/6 9/34/6
usemtl wall_garage
f 3/3/1 2/2/1 1/1/1
f 2/2/1 3/3/1 4/4/1
f 4/4/1 3/3/1 5/5/1
f 6/6/1 5/5/1 3/3/1
f 7/7/1 5/5/1 6/6/1
f 5/5/1 7/7/1 8/8/1
f 11/4/1 10/8/1 9/2/1
f 10/8/1 11/4/1 12/5/1
usemtl concrete
f 3/11/2 13/10/2 6/9/2
f 13/10/2 3/11/2 14/12/2
f 16/15/3 7/14/3 15/13/3
f 7/14/3 16/15/3 10/16/3
f 8/17/3 7/14/3 10/16/3
f 10/16/3 16/15/3 9/18/3
f 9/18/3 16/15/3 2/19/3
f 2/19/3 16/15/3 1/20/3
f 11/18/3 5/17/3 12/16/3
f 5/17/3 11/18/3 4/19/3
usemtl wall
f 13/23/4 16/22/4 15/21/4
f 16/22/4 13/23/4 14/24/4
f 16/1/5 3/6/5 1/7/5
f 3/6/5 16/1/5 14/3/5
f 13/23/6 7/26/6 6/25/6
f 7/26/6 13/23/6 15/21/6
f 10/29/5 5/28/5 8/27/5
f 5/28/5 10/29/5 12/30/5
f 11/33/6 2/32/6 4/31/6
f 2/32/6 11/33/6 9/34/6
v -2.000000 3.200000 0.000000
v -2.000000 3.200000 -0.400000
v -6.000000 3.200000 0.000000
v -2.000000 3.200000 -3.600000
v -2.000000 3.200000 -4.000000
v -6.000000 3.200000 -4.000000
v -6.000000 3.200000 -0.400000
v -6.000000 3.200000 -3.600000
v -2.000000 4.200000 -2.000000
v -6.000000 4.200000 -2.000000
v -6.000000 4.000000 -2.000000
v -2.000000 4.000000 -2.000000
vn 0.000000 -1.000000 0.000000
vn 0.000000 0.894427 0.447214
vn 0.000000 0.894427 -0.447214
vn -1.000000 0.000000 0.000000
vn 1.000000 0.000000 0.000000
vt -14 -10
vt -13.9 -10
vt -14 -11
vt -13.1 -10
vt -13 -10
vt -13 -11
vt -13.9 -11
vt -13.1 -11
vt -2 -4
vt -3 -4
vt -2 -3.292893
vt -3 -3.292893
vt 11 6
vt 11 6.707107
vt 12 6
vt 12 6.707107
vt -4 -5
vt -4 -4
vt -3.9 -4.9
vt -3.9 -4.1
vt 3.1 2
vt 3.5 2.4
vt 3.9 2
vt -13.5 2.400001
vt -13.1 2
vt -13.9 2
usemtl concrete
f 19/37/7 18/36/7 17/35/7
f 18/36/7 19/37/7 20/38/7
f 20/38/7 19/37/7 21/39/7
f 21/39/7 19/37/7 22/40/7
f 22/40/7 19/37/7 23/41/7
f 22/40/7 23/41/7 24/42/7
usemtl roof
f 25/45/8 19/44/8 17/43/8
f 19/44/8 25/45/8 26/46/8
f 22/49/9 25/48/9 21/47/9
f 25/48/9 22/49/9 26/50/9
f 24/53/10 26/52/10 22/51/10
f 26/52/10 24/53/10 27/54/10
f 23/53/10 26/52/10 27/54/10
f 26/52/10 23/53/10 19/51/10
f 25/52/11 18/53/11 28/54/11
f 18/53/11 25/52/11 17/51/11
f 25/52/11 20/53/11 21/51/11
f 20/53/11 25/52/11 28/54/11
usemtl wall_lines
f 23/57/10 27/56/10 24/55/10
f 18/60/11 20/59/11 28/58/11
usemtl concrete
f 19/37/7 18/36/7 17/35/7
f 18/36/7 19/37/7 20/38/7
f 20/38/7 19/37/7 21/39/7
f 21/39/7 19/37/7 22/40/7
f 22/40/7 19/37/7 23/41/7
f 22/40/7 23/41/7 24/42/7
usemtl roof
f 25/45/8 19/44/8 17/43/8
f 19/44/8 25/45/8 26/46/8
f 22/49/9 25/48/9 21/47/9
f 25/48/9 22/49/9 26/50/9
f 24/53/10 26/52/10 22/51/10
f 26/52/10 24/53/10 27/54/10
f 23/53/10 26/52/10 27/54/10
f 26/52/10 23/53/10 19/51/10
f 25/52/11 18/53/11 28/54/11
f 18/53/11 25/52/11 17/51/11
f 25/52/11 20/53/11 21/51/11
f 20/53/11 25/52/11 28/54/11
usemtl wall_lines
f 23/57/10 27/56/10 24/55/10
f 18/60/11 20/59/11 28/58/11
v -6.000000 0.000000 0.000000
v -5.400000 0.000000 0.000000
v -6.000000 3.200000 0.000000
v -5.400000 2.144000 0.000000
v -2.600000 2.144000 0.000000
v -2.000000 3.200000 0.000000
v -2.000000 0.000000 0.000000
v -2.600000 0.000000 0.000000
v -5.400000 0.000000 0.400000
v -2.600000 0.000000 0.400000
v -5.400000 2.144000 0.400000
v -2.600000 2.144000 0.400000
v -2.000000 3.200000 4.000000
v -6.000000 3.200000 4.000000
v -2.000000 0.000000 4.000000
v -6.000000 0.000000 4.000000
vn 0.000000 0.000000 -1.000000
vn 0.000000 1.000000 0.000000
vn 0.000000 -1.000000 0.000000
vn 0.000000 0.000000 1.000000
vn -1.000000 0.000000 0.000000
vn 1.000000 0.000000 0.000000
vt 1 0
vt 0.85 0
vt 1 1
vt 0.85 0.67
vt 0.15 0.67
vt 0 1
vt 0 0
vt 0.15 0
vt 5 -11
vt 5 -10
vt 6 -11
vt 6 -10
vt -16 -10
vt -16 -11
vt -17 -10
vt -16.15 -10.9
vt -16.15 -11
vt -16.85 -10.9
vt -16.85 -11
vt -17 -11
vt -2 0
vt -3 0
vt -2 1
vt -3 1
vt -1 1
vt -1 0
vt -0.5 0
vt -0.5 0.67
vt -0.4 0
vt -0.4 0.67
vt 0.5 0.67
vt 0.5 0
vt 0.4 0.67
vt 0.4 0
usemtl wall_garage
f 31/63/12 30/62/12 29/61/12
f 30/62/12 31/63/12 32/64/12
f 32/64/12 31/63/12 33/65/12
f 34/66/12 33/65/12 31/63/12
f 35/67/12 33/65/12 34/66/12
f 33/65/12 35/67/12 36/68/12
f 39/64/12 38/68/12 37/62/12
f 38/68/12 39/64/12 40/65/12
usemtl concrete
f 31/71/13 41/70/13 34/69/13
f 41/70/13 31/71/13 42/72/13
f 44/75/14 35/74/14 43/73/14
f 35/74/14 44/75/14 38/76/14
f 36/77/14 35/74/14 38/76/14
f 38/76/14 44/75/14 37/78/14
f 37/78/14 44/75/14 30/79/14
f 30/79/14 44/75/14 29/80/14
f 39/78/14 33/77/14 40/76/14
f 33/77/14 39/78/14 32/79/14
usemtl wall
f 41/83/15 44/82/15 43/81/15
f 44/82/15 41/83/15 42/84/15
f 44/61/16 31/66/16 29/67/16
f 31/66/16 44/61/16 42/63/16
f 41/83/17 35/86/17 34/85/17
f 35/86/17 41/83/17 43/81/17
f 38/89/16 33/88/16 36/87/16
f 33/88/16 38/89/16 40/90/16
f 39/93/17 30/92/17 32/91/17
f 30/92/17 39/93/17 37/94/17
usemtl wall_garage
f 31/63/12 30/62/12 29/61/12
f 30/62/12 31/63/12 32/64/12
f 32/64/12 31/63/12 33/65/12
f 34/66/12 33/65/12 31/63/12
f 35/67/12 33/65/12 34/66/12
f 33/65/12 35/67/12 36/68/12
f 39/64/12 38/68/12 37/62/12
f 38/68/12 39/64/12 40/65/12
usemtl concrete
f 31/71/13 41/70/13 34/69/13
f 41/70/13 31/71/13 42/72/13
f 44/75/14 35/74/14 43/73/14
f 35/74/14 44/75/14 38/76/14
f 36/77/14 35/74/14 38/76/14
f 38/76/14 44/75/14 37/78/14
f 37/78/14 44/75/14 30/79/14
f 30/79/14 44/75/14 29/80/14
f 39/78/14 33/77/14 40/76/14
f 33/77/14 39/78/14 32/79/14
usemtl wall
f 41/83/15 44/82/15 43/81/15
f 44/82/15 41/83/15 42/84/15
f 44/61/16 31/66/16 29/67/16
f 31/66/16 44/61/16 42/63/16
f 41/83/17 35/86/17 34/85/17
f 35/86/17 41/83/17 43/81/17
f 38/89/16 33/88/16 36/87/16
f 33/88/16 38/89/16 40/90/16
f 39/93/17 30/92/17 32/91/17
f 30/92/17 39/93/17 37/94/17
v -2.000000 3.200000 4.000000
v -2.000000 3.200000 3.600000
v -6.000000 3.200000 4.000000
v -2.000000 3.200000 0.400000
v -2.000000 3.200000 0.000000
v -6.000000 3.200000 0.000000
v -6.000000 3.200000 3.600000
v -6.000000 3.200000 0.400000
v -2.000000 4.200000 2.000000
v -6.000000 4.200000 2.000000
v -6.000000 4.000000 2.000000
v -2.000000 4.000000 2.000000
vn 0.000000 -1.000000 0.000000
vn 0.000000 0.894427 0.447214
vn 0.000000 0.894427 -0.447214
vn -1.000000 0.000000 0.000000
vn 1.000000 0.000000 0.000000
vt -14 -10
vt -13.9 -10
vt -14 -11
vt -13.1 -10
vt -13 -10
vt -13 -11
vt -13.9 -11
vt -13.1 -11
vt -2 -4
vt -3 -4
vt -2 -3.292893
vt -3 -3.292893
vt 11 6
vt 11 6.707107
vt 12 6
vt 12 6.707107
vt -4 -5
vt -4 -4
vt -3.9 -4.9
vt -3.9 -4.1
vt 3.1 2
vt 3.5 2.4
vt 3.9 2
vt -13.5 2.400001
vt -13.1 2
vt -13.9 2
usemtl concrete
f 47/97/18 46/96/18 45/95/18
f 46/96/18 47/97/18 48/98/18
f 48/98/18 47/97/18 49/99/18
f 49/99/18 47/97/18 50/100/18
f 50/100/18 47/97/18 51/101/18
f 50/100/18 51/101/18 52/102/18
usemtl roof
f 53/105/19 47/104/19 45/103/19
f 47/104/19 53/105/19 54/106/19
f 50/109/20 53/108/20 49/107/20
f 53/108/20 50/109/20 54/110/20
f 52/113/21 54/112/21 50/111/21
f 54/112/21 52/113/21 55/114/21
f 51/113/21 54/112/21 55/114/21
f 54/112/21 51/113/21 47/111/21
f 53/112/22 46/113/22 56/114/22
f 46/113/22 53/112/22 45/111/22
f 53/112/22 48/113/22 49/111/22
f 48/113/22 53/112/22 56/114/22
usemtl wall_lines
f 51/117/21 55/116/21 52/115/21
f 46/120/22 48/119/22 56/118/22
usemtl concrete
f 47/97/18 46/96/18 45/95/18
f 46/96/18 47/97/18 48/98/18
f 48/98/18 47/97/18 49/99/18
f 49/99/18 47/97/18 50/100/18
f 50/100/18 47/97/18 51/101/18
f 50/100/18 51/101/18 52/102/18
usemtl roof
f 53/105/19 47/104/19 45/103/19
f 47/104/19 53/105/19 54/106/19
f 50/109/20 53/108/20 49/107/20
f 53/108/20 50/109/20 54/110/20
f 52/113/21 54/112/21 50/111/21
f 54/112/21 52/113/21 55/114/21
f 51/113/21 54/112/21 55/114/21
f 54/112/21 51/113/21 47/111/21
f 53/112/22 46/113/22 56/114/22
f 46/113/22 53/112/22 45/111/22
f 53/112/22 48/113/22 49/111/22
f 48/113/22 53/112/22 56/114/22
usemtl wall_lines
f 51/117/21 55/116/21 52/115/21
f 46/120/22 48/119/22 56/118/22
v -2.000000 0.000000 -4.000000
v -1.400000 0.000000 -4.000000
v -2.000000 3.200000 -4.000000
v -1.400000 2.144000 -4.000000
v 1.400000 2.144000 -4.000000
v 2.000000 3.200000 -4.000000
v 2.000000 0.000000 -4.000000
v 1.400000 0.000000 -4.000000
v -1.400000 0.000000 -3.600000
v 1.400000 0.000000 -3.600000
v -1.400000 2.144000 -3.600000
v 1.400000 2.144000 -3.600000
v 2.000000 3.200000 0.000000
v -2.000000 3.200000 0.000000
v 2.000000 0.000000 0.000000
v -2.000000 0.000000 0.000000
vn 0.000000 0.000000 -1.000000
vn 0.000000 1.000000 0.000000
vn 0.000000 -1.000000 0.000000
vn 0.000000 0.000000 1.000000
vn -1.000000 0.000000 0.000000
vn 1.000000 0.000000 0.000000
vt 1 0
vt 0.85 0
vt 1 1
vt 0.85 0.67
vt 0.15 0.67
vt 0 1
vt 0 0
vt 0.15 0
vt 5 -11
vt 5 -10
vt 6 -11
vt 6 -10
vt -16 -10
vt -16 -11
vt -17 -10
vt -16.15 -10.9
vt -16.15 -11
vt -16.85 -10.9
vt -16.85 -11
vt -17 -11
vt -2 0
vt -3 0
vt -2 1
vt -3 1
vt -1 1
vt -1 0
vt -0.5 0
vt -0.5 0.67
vt -0.4 0
vt -0.4 0.67
vt 0.5 0.67
vt 0.5 0
vt 0.4 0.67
vt 0.4 0
usemtl wall_garage
f 59/123/23 58/122/23 57/121/23
f 58/122/23 59/123/23 60/124/23
f 60/124/23 59/123/23 61/125/23
f 62/126/23 61/125/23 59/123/23
f 63/127/23 61/125/23 62/126/23
f 61/125/23 63/127/23 64/128/23
f 67/124/23 66/128/23 65/122/23
f 66/128/23 67/124/23 68/125/23
usemtl concrete
f 59/131/24 69/130/24 62/129/24
f 69/130/24 59/131/24 70/132/24
f 72/135/25 63/134/25 71/133/25
f 63/134/25 72/135/25 66/136/25
f 64/137/25 63/134/25 66/136/25
f 66/136/25 72/135/25 65/138/25
f 65/138/25 72/135/25 58/139/25
f 58/139/25 72/135/25 57/140/25
f 67/138/25 61/137/25 68/136/25
f 61/137/25 67/138/25 60/139/25
usemtl wall
f 69/143/26 72/142/26 71/141/26
f 72/142/26 69/143/26 70/144/26
f 72/121/27 59/126/27 57/127/27
f 59/126/27 72/121/27 70/123/27
f 69/143/28 63/146/28 62/145/28
f 63/146/28 69/143/28 71/141/28
f 66/149/27 61/148/27 64/147/27
f 61/148/27 66/149/27 68/150/27
f 67/153/28 58/152/28 60/151/28
f 58/152/28 67/153/28 65/154/28
usemtl wall_garage
f 59/123/23 58/122/23 57/121/23
f 58/122/23 59/123/23 60/124/23
f 60/124/23 59/123/23 61/125/23
f 62/126/23 61/125/23 59/123/23
f 63/127/23 61/125/23 62/126/23
f 61/125/23 63/127/23 64/128/23
f 67/124/23 66/128/23 65/122/23
f 66/128/23 67/124/23 68/125/23
usemtl concrete
f 59/131/24 69/130/24 62/129/24
f 69/130/24 59/131/24 70/132/24
f 72/135/25 63/134/25 71/133/25
f 63/134/25 72/135/25 66/136/25
f 64/137/25 63/134/25 66/136/25
f 66/136/25 72/135/25 65/138/25
f 65/138/25 72/135/25 58/139/25
f 58/139/25 72/135/25 57/140/25
f 67/138/25 61/137/25 68/136/25
f 61/137/25 67/138/25 60/139/25
usemtl wall
f 69/143/26 72/142/26 71/141/26
f 72/142/26 69/143/26 70/144/26
f 72/121/27 59/126/27 57/127/27
f 59/126/27 72/121/27 70/123/27
f 69/143/28 63/146/28 62/145/28
f 63/146/28 69/143/28 71/141/28
f 66/149/27 61/148/27 64/147/27
f 61/148/27 66/149/27 68/150/27
f 67/153/28 58/152/28 60/151/28
f 58/152/28 67/153/28 65/154/28
v 2.000000 3.200000 0.000000
v 2.000000 3.200000 -0.400000
v -2.000000 3.200000 0.000000
v 2.000000 3.200000 -3.600000
v 2.000000 3.200000 -4.000000
v -2.000000 3.200000 -4.000000
v -2.000000 3.200000 -0.400000
v -2.000000 3.200000 -3.600000
v 2.000000 4.200000 -2.000000
v -2.000000 4.200000 -2.000000
v -2.000000 4.000000 -2.000000
v 2.000000 4.000000 -2.000000
vn 0.000000 -1.000000 0.000000
vn 0.000000 0.894427 0.447214
vn 0.000000 0.894427 -0.447214
vn -1.000000 0.000000 0.000000
vn 1.000000 0.000000 0.000000
vt -14 -10
vt -13.9 -10
vt -14 -11
vt -13.1 -10
vt -13 -10
vt -13 -11
vt -13.9 -11
vt -13.1 -11
vt -2 -4
vt -3 -4
vt -2 -3.292893
vt -3 -3.292893
vt 11 6
vt 11 6.707107
vt 12 6
vt 12 6.707107
vt -4 -5
vt -4 -4
vt -3.9 -4.9
vt -3.9 -4.1
vt 3.1 2
vt 3.5 2.4
vt 3.9 2
vt -13.5 2.400001
vt -13.1 2
vt -13.9 2
usemtl concrete
f 75/157/29 74/156/29 73/155/29
f 74/156/29 75/157/29 76/158/29
f 76/158/29 75/157/29 77/159/29
f 77/159/29 75/157/29 78/160/29
f 78/160/29 75/157/29 79/161/29
f 78/160/29 79/161/29 80/162/29
usemtl roof
f 81/165/30 75/164/30 73/163/30
f 75/164/30 81/165/30 82/166/30
f 78/169/31 81/168/31 77/167/31
f 81/168/31 78/169/31 82/170/31
f 80/173/32 82/172/32 78/171/32
f 82/172/32 80/173/32 83/174/32
f 79/173/32 82/172/32 83/174/32
f 82/172/32 79/173/32 75/171/32
f 81/172/33 74/173/33 84/174/33
f 74/173/33 81/172/33 73/171/33
f 81/172/33 76/173/33 77/171/33
f 76/173/33 81/172/33 84/174/33
usemtl wall_lines
f 79/177/32 83/176/32 80/175/32
f 74/180/33 76/179/33 84/178/33
usemtl concrete
f 75/157/29 74/156/29 73/155/29
f 74/156/29 75/157/29 76/158/29
f 76/158/29 75/157/29 77/159/29
f 77/159/29 75/157/29 78/160/29
f 78/160/29 75/157/29 79/161/29
f 78/160/29 79/161/29 80/162/29
usemtl roof
f 81/165/30 75/164/30 73/163/30
f 75/164/30 81/165/30 82/166/30
f 78/169/31 81/168/31 77/167/31
f 81/168/31 78/169/31 82/170/31
f 80/173/32 82/172/32 78/171/32
f 82/172/32 80/173/32 83/174/32
f 79/173/32 82/172/32 83/174/32
f 82/172/32 79/173/32 75/171/32
f 81/172/33 74/173/33 84/174/33
f 74/173/33 81/172/33 73/171/33
f 81/172/33 76/173/33 77/171/33
f 76/173/33 81/172/33 84/174/33
usemtl wall_lines
f 79/177/32 83/176/32 80/175/32
f 74/180/33 76/179/33 84/178/33
v -2.000000 0.000000 0.000000
v -1.400000 0.000000 0.000000
v -2.000000 3.200000 0.000000
v -1.400000 2.144000 0.000000
v 1.400000 2.144000 0.000000
v 2.000000 3.200000 0.000000
v 2.000000 0.000000 0.000000
v 1.400000 0.000000 0.000000
v -1.400000 0.000000 0.400000
v 1.400000 0.000000 0.400000
v -1.400000 2.144000 0.400000
v 1.400000 2.144000 0.400000
v 2.000000 3.200000 4.000000
v -2.000000 3.200000 4.000000
v 2.000000 0.000000 4.000000
v -2.000000 0.000000 4.000000
vn 0.000000 0.000000 -1.000000
vn 0.000000 1.000000 0.000000
vn 0.000000 -1.000000 0.000000
vn 0.000000 0.000000 1.000000
vn -1.000000 0.000000 0.000000
vn 1.000000 0.000000 0.000000
vt 1 0
vt 0.85 0
vt 1 1
vt 0.85 0.67
vt 0.15 0.67
vt 0 1
vt 0 0
vt 0.15 0
vt 5 -11
vt 5 -10
vt 6 -11
vt 6 -10
vt -16 -10
vt -16 -11
vt -17 -10
vt -16.15 -10.9
vt -16.15 -11
vt -16.85 -10.9
vt -16.85 -11
vt -17 -11
vt -2 0
vt -3 0
vt -2 1
vt -3 1
vt -1 1
vt -1 0
vt -0.5 0
vt -0.5 0.67
vt -0.4 0
vt -0.4 0.67
vt 0.5 0.67
vt 0.5 0
vt 0.4 0.67
vt 0.4 0
usemtl wall_garage
f 87/183/34 86/182/34 85/181/34
f 86/182/34 87/183/34 88/184/34
f 88/184/34 87/183/34 89/185/34
f 90/186/34 89/185/34 87/183/34
f 91/187/34 89/185/34 90/186/34
f 89/185/34 91/187/34 92/188/34
f 95/184/34 94/188/34 93/182/34
f 94/188/34 95/184/34 96/185/34
usemtl concrete
f 87/191/35 97/190/35 90/189/35
f 97/190/35 87/191/35 98/192/35
f 100/195/36 91/194/36 99/193/36
f 91/194/36 100/195/36 94/196/36
f 92/197/36 91/194/36 94/196/36
f 94/196/36 100/195/36 93/198/36
f 93/198/36 100/195/36 86/199/36
f 86/199/36 100/195/36 85/200/36
f 95/198/36 89/197/36 96/196/36
f 89/197/36 95/198/36 88/199/36
usemtl wall
f 97/203/37 100/202/37 99/201/37
f 100/202/37 97/203/37 98/204/37
f 100/181/38 87/186/38 85/187/38
f 87/186/38 100/181/38 98/183/38
f 97/203/39 91/206/39 90/205/39
f 91/206/39 97/203/39 99/201/39
f 94/209/38 89/208/38 92/207/38
f 89/208/38 94/209/38 96/210/38
f 95/213/39 86/212/39 88/211/39
f 86/212/39 95/213/39 93/214/39
usemtl wall_garage
f 87/183/34 86/182/34 85/181/34
f 86/182/34 87/183/34 88/184/34
f 88/184/34 87/183/34 89/185/34
f 90/186/34 89/185/34 87/183/34
f 91/187/34 89/185/34 90/186/34
f 89/185/34 91/187/34 92/188/34
f 95/184/34 94/188/34 93/182/34
f 94/188/34 95/184/34 96/185/34
usemtl concrete
f 87/191/35 97/190/35 90/189/35
f 97/190/35 87/191/35 98/192/35
f 100/195/36 91/194/36 99/193/36
f 91/194/36 100/195/36 94/196/36
f 92/197/36 91/194/36 94/196/36
f 94/196/36 100/195/36 93/198/36
f 93/198/36 100/195/36 86/199/36
f 86/199/36 100/195/36 85/200/36
f 95/198/36 89/197/36 96/196/36
f 89/197/36 95/198/36 88/199/36
usemtl wall
f 97/203/37 100/202/37 99/201/37
f 100/202/37 97/203/37 98/204/37
f 100/181/38 87/186/38 85/187/38
f 87/186/38 100/181/38 98/183/38
f 97/203/39 91/206/39 90/205/39
f 91/206/39 97/203/39 99/201/39
f 94/209/38 89/208/38 92/207/38
f 89/208/38 94/209/38 96/210/38
f 95/213/39 86/212/39 88/211/39
f 86/212/39 95/213/39 93/214/39
v 2.000000 3.200000 4.000000
v 2.000000 3.200000 3.600000
v -2.000000 3.200000 4.000000
v 2.000000 3.200000 0.400000
v 2.000000 3.200000 0.000000
v -2.000000 3.200000 0.000000
v -2.000000 3.200000 3.600000
v -2.000000 3.200000 0.400000
v 2.000000 4.200000 2.000000
v -2.000000 4.200000 2.000000
v -2.000000 4.000000 2.000000
v 2.000000 4.000000 2.000000
vn 0.000000 -1.000000 0.000000
vn 0.000000 0.894427 0.447214
vn 0.000000 0.894427 -0.447214
vn -1.000000 0.000000 0.000000
vn 1.000000 0.000000 0.000000
vt -14 -10
vt -13.9 -10
vt -14 -11
vt -13.1 -10
vt -13 -10
vt -13 -11
vt -13.9 -11
vt -13.1 -11
vt -2 -4
vt -3 -4
vt -2 -3.292893
vt -3 -3.292893
vt 11 6
vt 11 6.707107
vt 12 6
vt 12 6.707107
vt -4 -5
vt -4 -4
vt -3.9 -4.9
vt -3.9 -4.1
vt 3.1 2
vt 3.5 2.4
vt 3.9 2
vt -13.5 2.400001
vt -13.1 2
vt -13.9 2
usemtl concrete
f 103/217/40 102/216/40 101/215/40
f 102/216/40 103/217/40 104/218/40
f 104/218/40 103/217/40 105/219/40
f 105/219/40 103/217/40 106/220/40
f 106/220/40 103/217/40 107/221/40
f 106/220/40 107/221/40 108/222/40
usemtl roof
f 109/225/41 103/224/41 101/223/41
f 103/224/41 109/225/41 110/226/41
f 106/229/42 109/228/42 105/227/42
f 109/228/42 106/229/42 110/230/42
f 108/233/43 110/232/43 106/231/43
f 110/232/43 108/233/43 111/234/43
f 107/233/43 110/232/43 111/234/43
f 110/232/43 107/233/43 103/231/43
f 109/232/44 102/233/44 112/234/44
f 102/233/44 109/232/44 101/231/44
f 109/232/44 104/233/44 105/231/44
f 104/233/44 109/232/44 112/234/44
usemtl wall_lines
f 107/237/43 111/236/43 108/235/43
f 102/240/44 104/239/44 112/238/44
usemtl concrete
f 103/217/40 102/216/40 101/215/40
f 102/216/40 103/217/40 104/218/40
f 104/218/40 103/217/40 105/219/40
f 105/219/40 103/217/40 106/220/40
f 106/220/40 103/217/40 107/221/40
f 106/220/40 107/221/40 108/222/40
usemtl roof
f 109/225/41 103/224/41 101/223/41
f 103/224/41 109/225/41 110/226/41
f 106/229/42 109/228/42 105/227/42
f 109/228/42 106/229/42 110/230/42
f 108/233/43 110/232/43 106/231/43
f 110/232/43 108/233/43 111/234/43
f 107/233/43 110/232/43 111/234/43
f 110/232/43 107/233/43 103/231/43
f 109/232/44 102/233/44 112/234/44
f 102/233/44 109/232/44 101/231/44
f 109/232/44 104/233/44 105/231/44
f 104/233/44 109/232/44 112/234/44
usemtl wall_lines
f 107/237/43 111/236/43 108/235/43
f 102/240/44 104/239/44 112/238/44
v 2.000000 0.000000 -4.000000
v 2.600000 0.000000 -4.000000
v 2.000000 3.200000 -4.000000
v 2.600000 2.144000 -4.000000
v 5.400000 2.144000 -4.000000
v 6.000000 3.200000 -4.000000
v 6.000000 0.000000 -4.000000
v 5.400000 0.000000 -4.000000
v 2.600000 0.000000 -3.600000
v 5.400000 0.000000 -3.600000
v 2.600000 2.144000 -3.600000
v 5.400000 2.144000 -3.600000
v 6.000000 3.200000 0.000000
v 2.000000 3.200000 0.000000
v 6.000000 0.000000 0.000000
v 2.000000 0.000000 0.000000
vn 0.000000 0.000000 -1.000000
vn 0.000000 1.000000 0.000000
vn 0.000000 -1.000000 0.000000
vn 0.000000 0.000000 1.000000
vn -1.000000 0.000000 0.000000
vn 1.000000 0.000000 0.000000
vt 1 0
vt 0.85 0
vt 1 1
vt 0.85 0.67
vt 0.15 0.67
vt 0 1
vt 0 0
vt 0.15 0
vt 5 -11
vt 5 -10
vt 6 -11
vt 6 -10
vt -16 -10
vt -16 -11
vt -17 -10
vt -16.15 -10.9
vt -16.15 -11
vt -16.85 -10.9
vt -16.85 -11
vt -17 -11
vt -2 0
vt -3 0
vt -2 1
vt -3 1
vt -1 1
vt -1 0
vt -0.5 0
vt -0.5 0.67
vt -0.4 0
vt -0.4 0.67
vt 0.5 0.67
vt 0.5 0
vt 0.4 0.67
vt 0.4 0
usemtl wall_garage
f 115/243/45 114/242/45 113/241/45
f 114/242/45 115/243/45 116/244/45
f 116/244/45 115/243/45 117/245/45
f 118/246/45 117/245/45 115/243/45
f 119/247/45 117/245/45 118/246/45
f 117/245/45 119/247/45 120/248/45
f 123/244/45 122/248/45 121/242/45
f 122/248/45 123/244/45 124/245/45
usemtl concrete
f 115/251/46 125/250/46 118/249/46
f 125/250/46 115/251/46 126/252/46
f 128/255/47 119/254/47 127/253/47
f 119/254/47 128/255/47 122/256/47
f 120/257/47 119/254/47 122/256/47
f 122/256/47 128/255/47 121/258/47
f 121/258/47 128/255/47 114/259/47
f 114/259/47 128/255/47 113/260/47
f 123/258/47 117/257/47 124/256/47
f 117/257/47 123/258/47 116/259/47
usemtl wall
f 125/263/48 128/262/48 127/261/48
f 128/262/48 125/263/48 126/264/48
f 128/241/49 115/246/49 113/247/49
f 115/246/49 128/241/49 126/243/49
f 125/263/50 119/266/50 118/265/50
f 119/266/50 125/263/50 127/261/50
f 122/269/49 117/268/49 120/267/49
f 117/268/49 122/269/49 124/270/49
f 123/273/50 114/272/50 116/271/50
f 114/272/50 123/273/50 121/274/50
usemtl wall_garage
f 115/243/45 114/242/45 113/241/45
f 114/242/45 115/243/45 116/244/45
f 116/244/45 115/243/45 117/245/45
f 118/246/45 117/245/45 115/243/45
f 119/247/45 117/245/45 118/246/45
f 117/245/45 119/247/45 120/248/45
f 123/244/45 122/248/45 121/242/45
f 122/248/45 123/244/45 124/245/45
usemtl concrete
f 115/251/46 125/250/46 118/249/46
f 125/250/46 115/251/46 126/252/46
f 128/255/47 119/254/47 127/253/47
f 119/254/47 128/255/47 122/256/47
f 120/257/47 119/254/47 122/256/47
f 122/256/47 128/255/47 121/258/47
f 121/258/47 128/255/47 114/259/47
f 114/259/47 128/255/47 113/260/47
f 123/258/47 117/257/47 124/256/47
f 117/257/47 123/258/47 116/259/47
usemtl wall
f 125/263/48 128/262/48 127/261/48
f 128/262/48 125/263/48 126/264/48
f 128/241/49 115/246/49 113/247/49
f 115/246/49 128/241/49 126/243/49
f 125/263/50 119/266/50 118/265/50
f 119/266/50 125/263/50 127/261/50
f 122/269/49 117/268/49 120/267/49
f 117/268/49 122/269/49 124/270/49
f 123/273/50 114/272/50 116/271/50
f 114/272/50 123/273/50 121/274/50
v 6.000000 3.200000 0.000000
v 6.000000 3.200000 -0.400000
v 2.000000 3.200000 0.000000
v 6.000000 3.200000 -3.600000
v 6.000000 3.200000 -4.000000
v 2.000000 3.200000 -4.000000
v 2.000000 3.200000 -0.400000
v 2.000000 3.200000 -3.600000
v 6.000000 4.200000 -2.000000
v 2.000000 4.200000 -2.000000
v 2.000000 4.000000 -2.000000
v 6.000000 4.000000 -2.000000
vn 0.000000 -1.000000 0.000000
vn 0.000000 0.894427 0.447214
vn 0.000000 0.894427 -0.447214
vn -1.000000 0.000000 0.000000
vn 1.000000 0.000000 0.000000
vt -14 -10
vt -13.9 -10
vt -14 -11
vt -13.1 -10
vt -13 -10
vt -13 -11
vt -13.9 -11
vt -13.1 -11
vt -2 -4
vt -3 -4
vt -2 -3.292893
vt -3 -3.292893
vt 11 6
vt 11 6.707107
vt 12 6
vt 12 6.707107
vt -4 -5
vt -4 -4
vt -3.9 -4.9
vt -3.9 -4.1
vt 3.1 2
vt 3.5 2.4
vt 3.9 2
vt -13.5 2.400001
vt -13.1 2
vt -13.9 2
usemtl concrete
f 131/277/51 130/276/51 129/275/51
f 130/276/51 131/277/51 132/278/51
f 132/278/51 131/277/51 133/279/51
f 133/279/51 131/277/51 134/280/51
f 134/280/51 131/277/51 135/281/51
f 134/280/51 135/281/51 136/282/51
usemtl roof
f 137/285/52 131/284/52 129/283/52
f 131/284/52 137/285/52 138/286/52
f 134/289/53 137/288/53 133/287/53
f 137/288/53 134/289/53 138/290/53
f 136/293/54 138/292/54 134/291/54
f 138/292/54 136/293/54 139/294/54
f 135/293/54 138/292/54 139/294/54
f 138/292/54 135/293/54 131/291/54
f 137/292/55 130/293/55 140/294/55
f 130/293/55 137/292/55 129/291/55
f 137/292/55 132/293/55 133/291/55
f 132/293/55 137/292/55 140/294/55
usemtl wall_lines
f 135/297/54 139/296/54 136/295/54
f 130/300/55 132/299/55 140/298/55
usemtl concrete
f 131/277/51 130/276/51 129/275/51
f 130/276/51 131/277/51 132/278/51
f 132/278/51 131/277/51 133/279/51
f 133/279/51 131/277/51 134/280/51
f 134/280/51 131/277/51 135/281/51
f 134/280/51 135/281/51 136/282/51
usemtl roof
f 137/285/52 131/284/52 129/283/52
f 131/284/52 137/285/52 138/286/52
f 134/289/53 137/288/53 133/287/53
f 137/288/53 134/289/53 138/290/53
f 136/293/54 138/292/54 134/291/54
f 138/292/54 136/293/54 139/294/54
f 135/293/54 138/292/54 139/294/54
f 138/292/54 135/293/54 131/291/54
f 137/292/55 130/293/55 140/294/55
f 130/293/55 137/292/55 129/291/55
f 137/292/55 132/293/55 133/291/55
f 132/293/55 137/292/55 140/294/55
usemtl wall_lines
f 135/297/54 139/296/54 136/295/54
f 130/300/55 132/299/55 140/298/55
v 2.000000 0.000000 0.000000
v 2.600000 0.000000 0.000000
v 2.000000 3.200000 0.000000
v 2.600000 2.144000 0.000000
v 5.400000 2.144000 0.000000
v 6.000000 3.200000 0.000000
v 6.000000 0.000000 0.000000
v 5.400000 0.000000 0.000000
v 2.600000 0.000000 0.400000
v 5.400000 0.000000 0.400000
v 2.600000 2.144000 0.400000
v 5.400000 2.144000 0.400000
v 6.000000 3.200000 4.000000
v 2.000000 3.200000 4.000000
v 6.000000 0.000000 4.000000
v 2.000000 0.000000 4.000000
vn 0.000000 0.000000 -1.000000
vn 0.000000 1.000000 0.000000
vn 0.000000 -1.000000 0.000000
vn 0.000000 0.000000 1.000000
vn -1.000000 0.000000 0.000000
vn 1.000000 0.000000 0.000000
vt 1 0
vt 0.85 0
vt 1 1
vt 0.85 0.67
vt 0.15 0.67
vt 0 1
vt 0 0
vt 0.15 0
vt 5 -11
vt 5 -10
vt 6 -11
vt 6 -10
vt -16 -10
vt -16 -11
vt -17 -10
vt -16.15 -10.9
vt -16.15 -11
vt -16.85 -10.9
vt -16.85 -11
vt -17 -11
vt -2 0
vt -3 0
vt -2 1
vt -3 1
vt -1 1
vt -1 0
vt -0.5 0
vt -0.5 0.67
vt -0.4 0
vt -0.4 0.67
vt 0.5 0.67
vt 0.5 0
vt 0.4 0.67
vt 0.4 0
usemtl wall_garage
f 143/303/56 142/302/56 141/301/56
f 142/302/56 143/303/56 144/304/56
f 144/304/56 143/303/56 145/305/56
f 146/306/56 145/305/56 143/303/56
f 147/307/56 145/305/56 146/306/56
f 145/305/56 147/307/56 148/308/56
f 151/304/56 150/308/56 149/302/56
f 150/308/56 151/304/56 152/305/56
usemtl concrete
f 143/311/57 153/310/57 146/309/57
f 153/310/57 143/311/57 154/312/57
f 156/315/58 147/314/58 155/313/58
f 147/314/58 156/315/58 150/316/58
f 148/317/58 147/314/58 150/316/58
f 150/316/58 156/315/58 149/318/58
f 149/318/58 156/315/58 142/319/58
f 142/319/58 156/315/58 141/320/58
f 151/318/58 145/317/58 152/316/58
f 145/317/58 151/318/58 144/319/58
usemtl wall
f 153/323/59 156/322/59 155/321/59
f 156/322/59 153/323/59 154/324/59
f 156/301/60 143/306/60 141/307/60
f 143/306/60 156/301/60 154/303/60
f 153/323/61 147/326/61 146/325/61
f 147/326/61 153/323/61 155/321/61
f 150/329/60 145/328/60 148/327/60
f 145/328/60 150/329/60 152/330/60
f 151/333/61 142/332/61 144/331/61
f 142/332/61 151/333/61 149/334/61
usemtl wall_garage
f 143/303/56 142/302/56 141/301/56
f 142/302/56 143/303/56 144/304/56
f 144/304/56 143/303/56 145/305/56
f 146/306/56 145/305/56 143/303/56
f 147/307/56 145/305/56 146/306/56
f 145/305/56 147/307/56 148/308/56
f 151/304/56 150/308/56 149/302/56
f 150/308/56 151/304/56 152/305/56
usemtl concrete
f 143/311/57 153/310/57 146/309/57
f 153/310/57 143/311/57 154/312/57
f 156/315/58 147/314/58 155/313/58
f 147/314/58 156/315/58 150/316/58
f 148/317/58 147/314/58 150/316/58
f 150/316/58 156/315/58 149/318/58
f 149/318/58 156/315/58 142/319/58
f 142/319/58 156/315/58 141/320/58
f 151/318/58 145/317/58 152/316/58
f 145/317/58 151/318/58 144/319/58
usemtl wall
f 153/323/59 156/322/59 155/321/59
f 156/322/59 153/323/59 154/324/59
f 156/301/60 143/306/60 141/307/60
f 143/306/60 156/301/60 154/303/60
f 153/323/61 147/326/61 146/325/61
f 147/326/61 153/323/61 155/321/61
f 150/329/60 145/328/60 148/327/60
f 145/328/60 150/329/60 152/330/60
f 151/333/61 142/332/61 144/331/61
f 142/332/61 151/333/61 149/334/61
v 6.000000 3.200000 4.000000
v 6.000000 3.200000 3.600000
v 2.000000 3.200000 4.000000
v 6.000000 3.200000 0.400000
v 6.000000 3.200000 0.000000
v 2.000000 3.200000 0.000000
v 2.000000 3.200000 3.600000
v 2.000000 3.200000 0.400000
v 6.000000 4.200000 2.000000
v 2.000000 4.200000 2.000000
v 2.000000 4.000000 2.000000
v 6.000000 4.000000 2.000000
vn 0.000000 -1.000000 0.000000
vn 0.000000 0.894427 0.447214
vn 0.000000 0.894427 -0.447214
vn -1.000000 0.000000 0.000000
vn 1.000000 0.000000 0.000000
vt -14 -10
vt -13.9 -10
vt -14 -11
vt -13.1 -10
vt -13 -10
vt -13 -11
vt -13.9 -11
vt -13.1 -11
vt -2 -4
vt -3 -4
vt -2 -3.292893
vt -3 -3.292893
vt 11 6
vt 11 6.707107
vt 12 6
vt 12 6.707107
vt -4 -5
vt -4 -4
vt -3.9 -4.9
vt -3.9 -4.1
vt 3.1 2
vt 3.5 2.4
vt 3.9 2
vt -13.5 2.400001
vt -13.1 2
vt -13.9 2
usemtl concrete
f 159/337/62 158/336/62 157/335/62
f 158/336/62 159/337/62 160/338/62
f 160/338/62 159/337/62 161/339/62
f 161/339/62 159/337/62 162/340/62
f 162/340/62 159/337/62 163/341/62
f 162/340/62 163/341/62 164/342/62
usemtl roof
f 165/345/63 159/344/63 157/343/63
f 159/344/63 165/345/63 166/346/63
f 162/349/64 165/348/64 161/347/64
f 165/348/64 162/349/64 166/350/64
f 164/353/65 166/352/65 162/351/65
f 166/352/65 164/353/65 167/354/65
f 163/353/65 166/352/65 167/354/65
f 166/352/65 163/353/65 159/351/65
f 165/352/66 158/353/66 168/354/66
f 158/353/66 165/352/66 157/351/66
f 165/352/66 160/353/66 161/351/66
f 160/353/66 165/352/66 168/354/66
usemtl wall_lines
f 163/357/65 167/356/65 164/355/65
f 158/360/66 160/359/66 168/358/66
usemtl concrete
f 159/337/62 158/336/62 157/335/62
f 158/336/62 159/337/62 160/338/62
f 160/338/62 159/337/62 161/339/62
f 161/339/62 159/337/62 162/340/62
f 162/340/62 159/337/62 163/341/62
f 162/340/62 163/341/62 164/342/62
usemtl roof
f 165/345/63 159/344/63 157/343/63
f 159/344/63 165/345/63 166/346/63
f 162/349/64 165/348/64 161/347/64
f 165/348/64 162/349/64 166/350/64
f 164/353/65 166/352/65 162/351/65
f 166/352/65 164/353/65 167/354/65
f 163/353/65 166/352/65 167/354/65
f 166/352/65 163/353/65 159/351/65
f 165/352/66 158/353/66 168/354/66
f 158/353/66 165/352/66 157/351/66
f 165/352/66 160/353/66 161/351/66
f 160/353/66 165/352/66 168/354/66
usemtl wall_lines
f 163/357/65 167/356/65 164/355/65
f 158/360/66 160/359/66 168/358/66
