# Generated by TyraX. Do not edit - rebaked from the procedural graph of 'Painted district scatter'.
# 1 instances of res/models/urban/district-loft.obj
mtllib district-buildings.mtl
v 22.2393 0.0000 -25.7078
v 16.3119 0.0000 -30.7473
v 16.3119 9.3362 -30.7473
v 22.2393 0.0000 -25.7078
v 16.3119 9.3362 -30.7473
v 22.2393 9.3362 -25.7078
v 16.3119 0.0000 -30.7473
v 11.2724 0.0000 -24.8198
v 11.2724 9.3362 -24.8198
v 16.3119 0.0000 -30.7473
v 11.2724 9.3362 -24.8198
v 16.3119 9.3362 -30.7473
v 11.2724 0.0000 -24.8198
v 17.1999 0.0000 -19.7803
v 17.1999 9.3362 -19.7803
v 11.2724 0.0000 -24.8198
v 17.1999 9.3362 -19.7803
v 11.2724 9.3362 -24.8198
v 17.1999 0.0000 -19.7803
v 22.2393 0.0000 -25.7078
v 22.2393 9.3362 -25.7078
v 17.1999 0.0000 -19.7803
v 22.2393 9.3362 -25.7078
v 17.1999 9.3362 -19.7803
v 22.2393 9.3362 -25.7078
v 20.7575 10.3087 -26.9677
v 15.7180 10.3087 -21.0402
v 22.2393 9.3362 -25.7078
v 15.7180 10.3087 -21.0402
v 17.1999 9.3362 -19.7803
v 20.7575 10.3087 -26.9677
v 19.2756 9.3362 -28.2276
v 14.2361 9.3362 -22.3001
v 20.7575 10.3087 -26.9677
v 14.2361 9.3362 -22.3001
v 15.7180 10.3087 -21.0402
v 19.2756 9.3362 -28.2276
v 20.7575 10.3087 -26.9677
v 22.2393 9.3362 -25.7078
v 17.1999 9.3362 -19.7803
v 15.7180 10.3087 -21.0402
v 14.2361 9.3362 -22.3001
v 19.2756 9.3362 -28.2276
v 17.7937 10.3087 -29.4874
v 12.7543 10.3087 -23.5599
v 19.2756 9.3362 -28.2276
v 12.7543 10.3087 -23.5599
v 14.2361 9.3362 -22.3001
v 17.7937 10.3087 -29.4874
v 16.3119 9.3362 -30.7473
v 11.2724 9.3362 -24.8198
v 17.7937 10.3087 -29.4874
v 11.2724 9.3362 -24.8198
v 12.7543 10.3087 -23.5599
v 16.3119 9.3362 -30.7473
v 17.7937 10.3087 -29.4874
v 19.2756 9.3362 -28.2276
v 14.2361 9.3362 -22.3001
v 12.7543 10.3087 -23.5599
v 11.2724 9.3362 -24.8198
v 17.1999 0.0000 -19.7803
v 11.2724 0.0000 -24.8198
v 16.3119 0.0000 -30.7473
v 17.1999 0.0000 -19.7803
v 16.3119 0.0000 -30.7473
v 22.2393 0.0000 -25.7078
vt 0.39844 0.52344
vt 0.77344 0.52344
vt 0.77344 0.99219
vt 0.39844 0.52344
vt 0.77344 0.99219
vt 0.39844 0.99219
vt 0.39844 0.52344
vt 0.77344 0.52344
vt 0.77344 0.99219
vt 0.39844 0.52344
vt 0.77344 0.99219
vt 0.39844 0.99219
vt 0.39844 0.52344
vt 0.77344 0.52344
vt 0.77344 0.99219
vt 0.39844 0.52344
vt 0.77344 0.99219
vt 0.39844 0.99219
vt 0.39844 0.52344
vt 0.77344 0.52344
vt 0.77344 0.99219
vt 0.39844 0.52344
vt 0.77344 0.99219
vt 0.39844 0.99219
vt 0.78906 0.17969
vt 0.97656 0.17969
vt 0.97656 0.33594
vt 0.78906 0.17969
vt 0.97656 0.33594
vt 0.78906 0.33594
vt 0.78906 0.17969
vt 0.97656 0.17969
vt 0.97656 0.33594
vt 0.78906 0.17969
vt 0.97656 0.33594
vt 0.78906 0.33594
vt 0.00781 0.09375
vt 0.19531 0.18750
vt 0.38281 0.09375
vt 0.00781 0.09375
vt 0.19531 0.18750
vt 0.38281 0.09375
vt 0.78906 0.17969
vt 0.97656 0.17969
vt 0.97656 0.33594
vt 0.78906 0.17969
vt 0.97656 0.33594
vt 0.78906 0.33594
vt 0.78906 0.17969
vt 0.97656 0.17969
vt 0.97656 0.33594
vt 0.78906 0.17969
vt 0.97656 0.33594
vt 0.78906 0.33594
vt 0.00781 0.09375
vt 0.19531 0.18750
vt 0.38281 0.09375
vt 0.00781 0.09375
vt 0.19531 0.18750
vt 0.38281 0.09375
vt 0.39844 0.03906
vt 0.52344 0.03906
vt 0.52344 0.16406
vt 0.39844 0.03906
vt 0.52344 0.16406
vt 0.39844 0.16406
usemtl district_facade
f 1/1 2/2 3/3
f 4/4 5/5 6/6
f 7/7 8/8 9/9
f 10/10 11/11 12/12
f 13/13 14/14 15/15
f 16/16 17/17 18/18
f 19/19 20/20 21/21
f 22/22 23/23 24/24
f 25/25 26/26 27/27
f 28/28 29/29 30/30
f 31/31 32/32 33/33
f 34/34 35/35 36/36
f 37/37 38/38 39/39
f 40/40 41/41 42/42
f 43/43 44/44 45/45
f 46/46 47/47 48/48
f 49/49 50/50 51/51
f 52/52 53/53 54/54
f 55/55 56/56 57/57
f 58/58 59/59 60/60
f 61/61 62/62 63/63
f 64/64 65/65 66/66
