# Generated by TyraX. Do not edit - rebaked from the procedural graph of 'Painted district scatter'.
# 2 instances of res/models/urban/district-loft.obj
mtllib district-buildings.mtl
v -21.0612 0.0000 17.3540
v -28.1648 0.0000 21.2050
v -28.1648 9.6964 21.2050
v -21.0612 0.0000 17.3540
v -28.1648 9.6964 21.2050
v -21.0612 9.6964 17.3540
v -28.1648 0.0000 21.2050
v -24.3138 0.0000 28.3086
v -24.3138 9.6964 28.3086
v -28.1648 0.0000 21.2050
v -24.3138 9.6964 28.3086
v -28.1648 9.6964 21.2050
v -24.3138 0.0000 28.3086
v -17.2102 0.0000 24.4575
v -17.2102 9.6964 24.4575
v -24.3138 0.0000 28.3086
v -17.2102 9.6964 24.4575
v -24.3138 9.6964 28.3086
v -17.2102 0.0000 24.4575
v -21.0612 0.0000 17.3540
v -21.0612 9.6964 17.3540
v -17.2102 0.0000 24.4575
v -21.0612 9.6964 17.3540
v -17.2102 9.6964 24.4575
v -21.0612 9.6964 17.3540
v -22.8371 10.7064 18.3167
v -18.9861 10.7064 25.4203
v -21.0612 9.6964 17.3540
v -18.9861 10.7064 25.4203
v -17.2102 9.6964 24.4575
v -22.8371 10.7064 18.3167
v -24.6130 9.6964 19.2795
v -20.7620 9.6964 26.3831
v -22.8371 10.7064 18.3167
v -20.7620 9.6964 26.3831
v -18.9861 10.7064 25.4203
v -24.6130 9.6964 19.2795
v -22.8371 10.7064 18.3167
v -21.0612 9.6964 17.3540
v -17.2102 9.6964 24.4575
v -18.9861 10.7064 25.4203
v -20.7620 9.6964 26.3831
v -24.6130 9.6964 19.2795
v -26.3889 10.7064 20.2423
v -22.5379 10.7064 27.3458
v -24.6130 9.6964 19.2795
v -22.5379 10.7064 27.3458
v -20.7620 9.6964 26.3831
v -26.3889 10.7064 20.2423
v -28.1648 9.6964 21.2050
v -24.3138 9.6964 28.3086
v -26.3889 10.7064 20.2423
v -24.3138 9.6964 28.3086
v -22.5379 10.7064 27.3458
v -28.1648 9.6964 21.2050
v -26.3889 10.7064 20.2423
v -24.6130 9.6964 19.2795
v -20.7620 9.6964 26.3831
v -22.5379 10.7064 27.3458
v -24.3138 9.6964 28.3086
v -17.2102 0.0000 24.4575
v -24.3138 0.0000 28.3086
v -28.1648 0.0000 21.2050
v -17.2102 0.0000 24.4575
v -28.1648 0.0000 21.2050
v -21.0612 0.0000 17.3540
v -23.4510 0.0000 10.3662
v -22.4562 0.0000 3.5156
v -22.4562 8.3069 3.5156
v -23.4510 0.0000 10.3662
v -22.4562 8.3069 3.5156
v -23.4510 8.3069 10.3662
v -22.4562 0.0000 3.5156
v -29.3068 0.0000 2.5209
v -29.3068 8.3069 2.5209
v -22.4562 0.0000 3.5156
v -29.3068 8.3069 2.5209
v -22.4562 8.3069 3.5156
v -29.3068 0.0000 2.5209
v -30.3016 0.0000 9.3714
v -30.3016 8.3069 9.3714
v -29.3068 0.0000 2.5209
v -30.3016 8.3069 9.3714
v -29.3068 8.3069 2.5209
v -30.3016 0.0000 9.3714
v -23.4510 0.0000 10.3662
v -23.4510 8.3069 10.3662
v -30.3016 0.0000 9.3714
v -23.4510 8.3069 10.3662
v -30.3016 8.3069 9.3714
v -23.4510 8.3069 10.3662
v -23.2023 9.1722 8.6536
v -30.0529 9.1722 7.6588
v -23.4510 8.3069 10.3662
v -30.0529 9.1722 7.6588
v -30.3016 8.3069 9.3714
v -23.2023 9.1722 8.6536
v -22.9536 8.3069 6.9409
v -29.8042 8.3069 5.9461
v -23.2023 9.1722 8.6536
v -29.8042 8.3069 5.9461
v -30.0529 9.1722 7.6588
v -22.9536 8.3069 6.9409
v -23.2023 9.1722 8.6536
v -23.4510 8.3069 10.3662
v -30.3016 8.3069 9.3714
v -30.0529 9.1722 7.6588
v -29.8042 8.3069 5.9461
v -22.9536 8.3069 6.9409
v -22.7049 9.1722 5.2283
v -29.5555 9.1722 4.2335
v -22.9536 8.3069 6.9409
v -29.5555 9.1722 4.2335
v -29.8042 8.3069 5.9461
v -22.7049 9.1722 5.2283
v -22.4562 8.3069 3.5156
v -29.3068 8.3069 2.5209
v -22.7049 9.1722 5.2283
v -29.3068 8.3069 2.5209
v -29.5555 9.1722 4.2335
v -22.4562 8.3069 3.5156
v -22.7049 9.1722 5.2283
v -22.9536 8.3069 6.9409
v -29.8042 8.3069 5.9461
v -29.5555 9.1722 4.2335
v -29.3068 8.3069 2.5209
v -30.3016 0.0000 9.3714
v -29.3068 0.0000 2.5209
v -22.4562 0.0000 3.5156
v -30.3016 0.0000 9.3714
v -22.4562 0.0000 3.5156
v -23.4510 0.0000 10.3662
vt 0.39844 0.52344
vt 0.77344 0.52344
vt 0.77344 0.99219
vt 0.39844 0.52344
vt 0.77344 0.99219
vt 0.39844 0.99219
vt 0.39844 0.52344
vt 0.77344 0.52344
vt 0.77344 0.99219
vt 0.39844 0.52344
vt 0.77344 0.99219
vt 0.39844 0.99219
vt 0.39844 0.52344
vt 0.77344 0.52344
vt 0.77344 0.99219
vt 0.39844 0.52344
vt 0.77344 0.99219
vt 0.39844 0.99219
vt 0.39844 0.52344
vt 0.77344 0.52344
vt 0.77344 0.99219
vt 0.39844 0.52344
vt 0.77344 0.99219
vt 0.39844 0.99219
vt 0.78906 0.17969
vt 0.97656 0.17969
vt 0.97656 0.33594
vt 0.78906 0.17969
vt 0.97656 0.33594
vt 0.78906 0.33594
vt 0.78906 0.17969
vt 0.97656 0.17969
vt 0.97656 0.33594
vt 0.78906 0.17969
vt 0.97656 0.33594
vt 0.78906 0.33594
vt 0.00781 0.09375
vt 0.19531 0.18750
vt 0.38281 0.09375
vt 0.00781 0.09375
vt 0.19531 0.18750
vt 0.38281 0.09375
vt 0.78906 0.17969
vt 0.97656 0.17969
vt 0.97656 0.33594
vt 0.78906 0.17969
vt 0.97656 0.33594
vt 0.78906 0.33594
vt 0.78906 0.17969
vt 0.97656 0.17969
vt 0.97656 0.33594
vt 0.78906 0.17969
vt 0.97656 0.33594
vt 0.78906 0.33594
vt 0.00781 0.09375
vt 0.19531 0.18750
vt 0.38281 0.09375
vt 0.00781 0.09375
vt 0.19531 0.18750
vt 0.38281 0.09375
vt 0.39844 0.03906
vt 0.52344 0.03906
vt 0.52344 0.16406
vt 0.39844 0.03906
vt 0.52344 0.16406
vt 0.39844 0.16406
vt 0.39844 0.52344
vt 0.77344 0.52344
vt 0.77344 0.99219
vt 0.39844 0.52344
vt 0.77344 0.99219
vt 0.39844 0.99219
vt 0.39844 0.52344
vt 0.77344 0.52344
vt 0.77344 0.99219
vt 0.39844 0.52344
vt 0.77344 0.99219
vt 0.39844 0.99219
vt 0.39844 0.52344
vt 0.77344 0.52344
vt 0.77344 0.99219
vt 0.39844 0.52344
vt 0.77344 0.99219
vt 0.39844 0.99219
vt 0.39844 0.52344
vt 0.77344 0.52344
vt 0.77344 0.99219
vt 0.39844 0.52344
vt 0.77344 0.99219
vt 0.39844 0.99219
vt 0.78906 0.17969
vt 0.97656 0.17969
vt 0.97656 0.33594
vt 0.78906 0.17969
vt 0.97656 0.33594
vt 0.78906 0.33594
vt 0.78906 0.17969
vt 0.97656 0.17969
vt 0.97656 0.33594
vt 0.78906 0.17969
vt 0.97656 0.33594
vt 0.78906 0.33594
vt 0.00781 0.09375
vt 0.19531 0.18750
vt 0.38281 0.09375
vt 0.00781 0.09375
vt 0.19531 0.18750
vt 0.38281 0.09375
vt 0.78906 0.17969
vt 0.97656 0.17969
vt 0.97656 0.33594
vt 0.78906 0.17969
vt 0.97656 0.33594
vt 0.78906 0.33594
vt 0.78906 0.17969
vt 0.97656 0.17969
vt 0.97656 0.33594
vt 0.78906 0.17969
vt 0.97656 0.33594
vt 0.78906 0.33594
vt 0.00781 0.09375
vt 0.19531 0.18750
vt 0.38281 0.09375
vt 0.00781 0.09375
vt 0.19531 0.18750
vt 0.38281 0.09375
vt 0.39844 0.03906
vt 0.52344 0.03906
vt 0.52344 0.16406
vt 0.39844 0.03906
vt 0.52344 0.16406
vt 0.39844 0.16406
usemtl district_facade
f 1/1 2/2 3/3
f 4/4 5/5 6/6
f 7/7 8/8 9/9
f 10/10 11/11 12/12
f 13/13 14/14 15/15
f 16/16 17/17 18/18
f 19/19 20/20 21/21
f 22/22 23/23 24/24
f 25/25 26/26 27/27
f 28/28 29/29 30/30
f 31/31 32/32 33/33
f 34/34 35/35 36/36
f 37/37 38/38 39/39
f 40/40 41/41 42/42
f 43/43 44/44 45/45
f 46/46 47/47 48/48
f 49/49 50/50 51/51
f 52/52 53/53 54/54
f 55/55 56/56 57/57
f 58/58 59/59 60/60
f 61/61 62/62 63/63
f 64/64 65/65 66/66
f 67/67 68/68 69/69
f 70/70 71/71 72/72
f 73/73 74/74 75/75
f 76/76 77/77 78/78
f 79/79 80/80 81/81
f 82/82 83/83 84/84
f 85/85 86/86 87/87
f 88/88 89/89 90/90
f 91/91 92/92 93/93
f 94/94 95/95 96/96
f 97/97 98/98 99/99
f 100/100 101/101 102/102
f 103/103 104/104 105/105
f 106/106 107/107 108/108
f 109/109 110/110 111/111
f 112/112 113/113 114/114
f 115/115 116/116 117/117
f 118/118 119/119 120/120
f 121/121 122/122 123/123
f 124/124 125/125 126/126
f 127/127 128/128 129/129
f 130/130 131/131 132/132
