# Generated by TyraX. Do not edit - rebaked from the procedural graph of 'Painted district scatter'.
# 3 instances of res/models/urban/district-tower.obj
mtllib district-buildings.mtl
v 23.6509 0.0000 13.6253
v 24.7116 0.0000 21.5753
v 24.7116 16.0409 21.5753
v 23.6509 0.0000 13.6253
v 24.7116 16.0409 21.5753
v 23.6509 16.0409 13.6253
v 24.7116 0.0000 21.5753
v 32.6616 0.0000 20.5146
v 32.6616 16.0409 20.5146
v 24.7116 0.0000 21.5753
v 32.6616 16.0409 20.5146
v 24.7116 16.0409 21.5753
v 32.6616 0.0000 20.5146
v 31.6009 0.0000 12.5646
v 31.6009 16.0409 12.5646
v 32.6616 0.0000 20.5146
v 31.6009 16.0409 12.5646
v 32.6616 16.0409 20.5146
v 31.6009 0.0000 12.5646
v 23.6509 0.0000 13.6253
v 23.6509 16.0409 13.6253
v 31.6009 0.0000 12.5646
v 23.6509 16.0409 13.6253
v 31.6009 16.0409 12.5646
v 23.6509 16.0409 13.6253
v 23.9161 17.0435 15.6128
v 31.8661 17.0435 14.5521
v 23.6509 16.0409 13.6253
v 31.8661 17.0435 14.5521
v 31.6009 16.0409 12.5646
v 23.9161 17.0435 15.6128
v 24.1812 16.0409 17.6003
v 32.1313 16.0409 16.5396
v 23.9161 17.0435 15.6128
v 32.1313 16.0409 16.5396
v 31.8661 17.0435 14.5521
v 24.1812 16.0409 17.6003
v 23.9161 17.0435 15.6128
v 23.6509 16.0409 13.6253
v 31.6009 16.0409 12.5646
v 31.8661 17.0435 14.5521
v 32.1313 16.0409 16.5396
v 24.1812 16.0409 17.6003
v 24.4464 17.0435 19.5878
v 32.3964 17.0435 18.5271
v 24.1812 16.0409 17.6003
v 32.3964 17.0435 18.5271
v 32.1313 16.0409 16.5396
v 24.4464 17.0435 19.5878
v 24.7116 16.0409 21.5753
v 32.6616 16.0409 20.5146
v 24.4464 17.0435 19.5878
v 32.6616 16.0409 20.5146
v 32.3964 17.0435 18.5271
v 24.7116 16.0409 21.5753
v 24.4464 17.0435 19.5878
v 24.1812 16.0409 17.6003
v 32.1313 16.0409 16.5396
v 32.3964 17.0435 18.5271
v 32.6616 16.0409 20.5146
v 31.6009 0.0000 12.5646
v 32.6616 0.0000 20.5146
v 24.7116 0.0000 21.5753
v 31.6009 0.0000 12.5646
v 24.7116 0.0000 21.5753
v 23.6509 0.0000 13.6253
v -15.1865 0.0000 20.4409
v -13.6943 0.0000 12.1185
v -13.6943 16.9101 12.1185
v -15.1865 0.0000 20.4409
v -13.6943 16.9101 12.1185
v -15.1865 16.9101 20.4409
v -13.6943 0.0000 12.1185
v -22.0167 0.0000 10.6264
v -22.0167 16.9101 10.6264
v -13.6943 0.0000 12.1185
v -22.0167 16.9101 10.6264
v -13.6943 16.9101 12.1185
v -22.0167 0.0000 10.6264
v -23.5088 0.0000 18.9487
v -23.5088 16.9101 18.9487
v -22.0167 0.0000 10.6264
v -23.5088 16.9101 18.9487
v -22.0167 16.9101 10.6264
v -23.5088 0.0000 18.9487
v -15.1865 0.0000 20.4409
v -15.1865 16.9101 20.4409
v -23.5088 0.0000 18.9487
v -15.1865 16.9101 20.4409
v -23.5088 16.9101 18.9487
v -15.1865 16.9101 20.4409
v -14.8134 17.9670 18.3603
v -23.1358 17.9670 16.8681
v -15.1865 16.9101 20.4409
v -23.1358 17.9670 16.8681
v -23.5088 16.9101 18.9487
v -14.8134 17.9670 18.3603
v -14.4404 16.9101 16.2797
v -22.7627 16.9101 14.7875
v -14.8134 17.9670 18.3603
v -22.7627 16.9101 14.7875
v -23.1358 17.9670 16.8681
v -14.4404 16.9101 16.2797
v -14.8134 17.9670 18.3603
v -15.1865 16.9101 20.4409
v -23.5088 16.9101 18.9487
v -23.1358 17.9670 16.8681
v -22.7627 16.9101 14.7875
v -14.4404 16.9101 16.2797
v -14.0673 17.9670 14.1991
v -22.3897 17.9670 12.7069
v -14.4404 16.9101 16.2797
v -22.3897 17.9670 12.7069
v -22.7627 16.9101 14.7875
v -14.0673 17.9670 14.1991
v -13.6943 16.9101 12.1185
v -22.0167 16.9101 10.6264
v -14.0673 17.9670 14.1991
v -22.0167 16.9101 10.6264
v -22.3897 17.9670 12.7069
v -13.6943 16.9101 12.1185
v -14.0673 17.9670 14.1991
v -14.4404 16.9101 16.2797
v -22.7627 16.9101 14.7875
v -22.3897 17.9670 12.7069
v -22.0167 16.9101 10.6264
v -23.5088 0.0000 18.9487
v -22.0167 0.0000 10.6264
v -13.6943 0.0000 12.1185
v -23.5088 0.0000 18.9487
v -13.6943 0.0000 12.1185
v -15.1865 0.0000 20.4409
v 27.9747 0.0000 -0.1151
v 19.2967 0.0000 0.3126
v 19.2967 17.3771 0.3126
v 27.9747 0.0000 -0.1151
v 19.2967 17.3771 0.3126
v 27.9747 17.3771 -0.1151
v 19.2967 0.0000 0.3126
v 19.7245 0.0000 8.9906
v 19.7245 17.3771 8.9906
v 19.2967 0.0000 0.3126
v 19.7245 17.3771 8.9906
v 19.2967 17.3771 0.3126
v 19.7245 0.0000 8.9906
v 28.4025 0.0000 8.5629
v 28.4025 17.3771 8.5629
v 19.7245 0.0000 8.9906
v 28.4025 17.3771 8.5629
v 19.7245 17.3771 8.9906
v 28.4025 0.0000 8.5629
v 27.9747 0.0000 -0.1151
v 27.9747 17.3771 -0.1151
v 28.4025 0.0000 8.5629
v 27.9747 17.3771 -0.1151
v 28.4025 17.3771 8.5629
v 27.9747 17.3771 -0.1151
v 25.8052 18.4631 -0.0082
v 26.2330 18.4631 8.6698
v 27.9747 17.3771 -0.1151
v 26.2330 18.4631 8.6698
v 28.4025 17.3771 8.5629
v 25.8052 18.4631 -0.0082
v 23.6357 17.3771 0.0987
v 24.0635 17.3771 8.7767
v 25.8052 18.4631 -0.0082
v 24.0635 17.3771 8.7767
v 26.2330 18.4631 8.6698
v 23.6357 17.3771 0.0987
v 25.8052 18.4631 -0.0082
v 27.9747 17.3771 -0.1151
v 28.4025 17.3771 8.5629
v 26.2330 18.4631 8.6698
v 24.0635 17.3771 8.7767
v 23.6357 17.3771 0.0987
v 21.4662 18.4631 0.2057
v 21.8940 18.4631 8.8837
v 23.6357 17.3771 0.0987
v 21.8940 18.4631 8.8837
v 24.0635 17.3771 8.7767
v 21.4662 18.4631 0.2057
v 19.2967 17.3771 0.3126
v 19.7245 17.3771 8.9906
v 21.4662 18.4631 0.2057
v 19.7245 17.3771 8.9906
v 21.8940 18.4631 8.8837
v 19.2967 17.3771 0.3126
v 21.4662 18.4631 0.2057
v 23.6357 17.3771 0.0987
v 24.0635 17.3771 8.7767
v 21.8940 18.4631 8.8837
v 19.7245 17.3771 8.9906
v 28.4025 0.0000 8.5629
v 19.7245 0.0000 8.9906
v 19.2967 0.0000 0.3126
v 28.4025 0.0000 8.5629
v 19.2967 0.0000 0.3126
v 27.9747 0.0000 -0.1151
vt 0.00781 0.21094
vt 0.38281 0.21094
vt 0.38281 0.99219
vt 0.00781 0.21094
vt 0.38281 0.99219
vt 0.00781 0.99219
vt 0.00781 0.21094
vt 0.38281 0.21094
vt 0.38281 0.99219
vt 0.00781 0.21094
vt 0.38281 0.99219
vt 0.00781 0.99219
vt 0.00781 0.21094
vt 0.38281 0.21094
vt 0.38281 0.99219
vt 0.00781 0.21094
vt 0.38281 0.99219
vt 0.00781 0.99219
vt 0.00781 0.21094
vt 0.38281 0.21094
vt 0.38281 0.99219
vt 0.00781 0.21094
vt 0.38281 0.99219
vt 0.00781 0.99219
vt 0.78906 0.17969
vt 0.97656 0.17969
vt 0.97656 0.33594
vt 0.78906 0.17969
vt 0.97656 0.33594
vt 0.78906 0.33594
vt 0.78906 0.17969
vt 0.97656 0.17969
vt 0.97656 0.33594
vt 0.78906 0.17969
vt 0.97656 0.33594
vt 0.78906 0.33594
vt 0.00781 0.09375
vt 0.19531 0.18750
vt 0.38281 0.09375
vt 0.00781 0.09375
vt 0.19531 0.18750
vt 0.38281 0.09375
vt 0.78906 0.17969
vt 0.97656 0.17969
vt 0.97656 0.33594
vt 0.78906 0.17969
vt 0.97656 0.33594
vt 0.78906 0.33594
vt 0.78906 0.17969
vt 0.97656 0.17969
vt 0.97656 0.33594
vt 0.78906 0.17969
vt 0.97656 0.33594
vt 0.78906 0.33594
vt 0.00781 0.09375
vt 0.19531 0.18750
vt 0.38281 0.09375
vt 0.00781 0.09375
vt 0.19531 0.18750
vt 0.38281 0.09375
vt 0.39844 0.03906
vt 0.52344 0.03906
vt 0.52344 0.16406
vt 0.39844 0.03906
vt 0.52344 0.16406
vt 0.39844 0.16406
vt 0.00781 0.21094
vt 0.38281 0.21094
vt 0.38281 0.99219
vt 0.00781 0.21094
vt 0.38281 0.99219
vt 0.00781 0.99219
vt 0.00781 0.21094
vt 0.38281 0.21094
vt 0.38281 0.99219
vt 0.00781 0.21094
vt 0.38281 0.99219
vt 0.00781 0.99219
vt 0.00781 0.21094
vt 0.38281 0.21094
vt 0.38281 0.99219
vt 0.00781 0.21094
vt 0.38281 0.99219
vt 0.00781 0.99219
vt 0.00781 0.21094
vt 0.38281 0.21094
vt 0.38281 0.99219
vt 0.00781 0.21094
vt 0.38281 0.99219
vt 0.00781 0.99219
vt 0.78906 0.17969
vt 0.97656 0.17969
vt 0.97656 0.33594
vt 0.78906 0.17969
vt 0.97656 0.33594
vt 0.78906 0.33594
vt 0.78906 0.17969
vt 0.97656 0.17969
vt 0.97656 0.33594
vt 0.78906 0.17969
vt 0.97656 0.33594
vt 0.78906 0.33594
vt 0.00781 0.09375
vt 0.19531 0.18750
vt 0.38281 0.09375
vt 0.00781 0.09375
vt 0.19531 0.18750
vt 0.38281 0.09375
vt 0.78906 0.17969
vt 0.97656 0.17969
vt 0.97656 0.33594
vt 0.78906 0.17969
vt 0.97656 0.33594
vt 0.78906 0.33594
vt 0.78906 0.17969
vt 0.97656 0.17969
vt 0.97656 0.33594
vt 0.78906 0.17969
vt 0.97656 0.33594
vt 0.78906 0.33594
vt 0.00781 0.09375
vt 0.19531 0.18750
vt 0.38281 0.09375
vt 0.00781 0.09375
vt 0.19531 0.18750
vt 0.38281 0.09375
vt 0.39844 0.03906
vt 0.52344 0.03906
vt 0.52344 0.16406
vt 0.39844 0.03906
vt 0.52344 0.16406
vt 0.39844 0.16406
vt 0.00781 0.21094
vt 0.38281 0.21094
vt 0.38281 0.99219
vt 0.00781 0.21094
vt 0.38281 0.99219
vt 0.00781 0.99219
vt 0.00781 0.21094
vt 0.38281 0.21094
vt 0.38281 0.99219
vt 0.00781 0.21094
vt 0.38281 0.99219
vt 0.00781 0.99219
vt 0.00781 0.21094
vt 0.38281 0.21094
vt 0.38281 0.99219
vt 0.00781 0.21094
vt 0.38281 0.99219
vt 0.00781 0.99219
vt 0.00781 0.21094
vt 0.38281 0.21094
vt 0.38281 0.99219
vt 0.00781 0.21094
vt 0.38281 0.99219
vt 0.00781 0.99219
vt 0.78906 0.17969
vt 0.97656 0.17969
vt 0.97656 0.33594
vt 0.78906 0.17969
vt 0.97656 0.33594
vt 0.78906 0.33594
vt 0.78906 0.17969
vt 0.97656 0.17969
vt 0.97656 0.33594
vt 0.78906 0.17969
vt 0.97656 0.33594
vt 0.78906 0.33594
vt 0.00781 0.09375
vt 0.19531 0.18750
vt 0.38281 0.09375
vt 0.00781 0.09375
vt 0.19531 0.18750
vt 0.38281 0.09375
vt 0.78906 0.17969
vt 0.97656 0.17969
vt 0.97656 0.33594
vt 0.78906 0.17969
vt 0.97656 0.33594
vt 0.78906 0.33594
vt 0.78906 0.17969
vt 0.97656 0.17969
vt 0.97656 0.33594
vt 0.78906 0.17969
vt 0.97656 0.33594
vt 0.78906 0.33594
vt 0.00781 0.09375
vt 0.19531 0.18750
vt 0.38281 0.09375
vt 0.00781 0.09375
vt 0.19531 0.18750
vt 0.38281 0.09375
vt 0.39844 0.03906
vt 0.52344 0.03906
vt 0.52344 0.16406
vt 0.39844 0.03906
vt 0.52344 0.16406
vt 0.39844 0.16406
usemtl district_facade
f 1/1 2/2 3/3
f 4/4 5/5 6/6
f 7/7 8/8 9/9
f 10/10 11/11 12/12
f 13/13 14/14 15/15
f 16/16 17/17 18/18
f 19/19 20/20 21/21
f 22/22 23/23 24/24
f 25/25 26/26 27/27
f 28/28 29/29 30/30
f 31/31 32/32 33/33
f 34/34 35/35 36/36
f 37/37 38/38 39/39
f 40/40 41/41 42/42
f 43/43 44/44 45/45
f 46/46 47/47 48/48
f 49/49 50/50 51/51
f 52/52 53/53 54/54
f 55/55 56/56 57/57
f 58/58 59/59 60/60
f 61/61 62/62 63/63
f 64/64 65/65 66/66
f 67/67 68/68 69/69
f 70/70 71/71 72/72
f 73/73 74/74 75/75
f 76/76 77/77 78/78
f 79/79 80/80 81/81
f 82/82 83/83 84/84
f 85/85 86/86 87/87
f 88/88 89/89 90/90
f 91/91 92/92 93/93
f 94/94 95/95 96/96
f 97/97 98/98 99/99
f 100/100 101/101 102/102
f 103/103 104/104 105/105
f 106/106 107/107 108/108
f 109/109 110/110 111/111
f 112/112 113/113 114/114
f 115/115 116/116 117/117
f 118/118 119/119 120/120
f 121/121 122/122 123/123
f 124/124 125/125 126/126
f 127/127 128/128 129/129
f 130/130 131/131 132/132
f 133/133 134/134 135/135
f 136/136 137/137 138/138
f 139/139 140/140 141/141
f 142/142 143/143 144/144
f 145/145 146/146 147/147
f 148/148 149/149 150/150
f 151/151 152/152 153/153
f 154/154 155/155 156/156
f 157/157 158/158 159/159
f 160/160 161/161 162/162
f 163/163 164/164 165/165
f 166/166 167/167 168/168
f 169/169 170/170 171/171
f 172/172 173/173 174/174
f 175/175 176/176 177/177
f 178/178 179/179 180/180
f 181/181 182/182 183/183
f 184/184 185/185 186/186
f 187/187 188/188 189/189
f 190/190 191/191 192/192
f 193/193 194/194 195/195
f 196/196 197/197 198/198
