# Generated by TyraX. Do not edit - rebaked from the procedural graph of 'Painted district scatter'.
# 2 instances of res/models/urban/district-tower.obj
mtllib district-buildings.mtl
v -0.4631 0.0000 20.9156
v -3.8290 0.0000 14.4968
v -3.8290 14.4955 14.4968
v -0.4631 0.0000 20.9156
v -3.8290 14.4955 14.4968
v -0.4631 14.4955 20.9156
v -3.8290 0.0000 14.4968
v -10.2478 0.0000 17.8626
v -10.2478 14.4955 17.8626
v -3.8290 0.0000 14.4968
v -10.2478 14.4955 17.8626
v -3.8290 14.4955 14.4968
v -10.2478 0.0000 17.8626
v -6.8820 0.0000 24.2815
v -6.8820 14.4955 24.2815
v -10.2478 0.0000 17.8626
v -6.8820 14.4955 24.2815
v -10.2478 14.4955 17.8626
v -6.8820 0.0000 24.2815
v -0.4631 0.0000 20.9156
v -0.4631 14.4955 20.9156
v -6.8820 0.0000 24.2815
v -0.4631 14.4955 20.9156
v -6.8820 14.4955 24.2815
v -0.4631 14.4955 20.9156
v -1.3046 15.4015 19.3109
v -7.7234 15.4015 22.6767
v -0.4631 14.4955 20.9156
v -7.7234 15.4015 22.6767
v -6.8820 14.4955 24.2815
v -1.3046 15.4015 19.3109
v -2.1461 14.4955 17.7062
v -8.5649 14.4955 21.0720
v -1.3046 15.4015 19.3109
v -8.5649 14.4955 21.0720
v -7.7234 15.4015 22.6767
v -2.1461 14.4955 17.7062
v -1.3046 15.4015 19.3109
v -0.4631 14.4955 20.9156
v -6.8820 14.4955 24.2815
v -7.7234 15.4015 22.6767
v -8.5649 14.4955 21.0720
v -2.1461 14.4955 17.7062
v -2.9875 15.4015 16.1015
v -9.4063 15.4015 19.4673
v -2.1461 14.4955 17.7062
v -9.4063 15.4015 19.4673
v -8.5649 14.4955 21.0720
v -2.9875 15.4015 16.1015
v -3.8290 14.4955 14.4968
v -10.2478 14.4955 17.8626
v -2.9875 15.4015 16.1015
v -10.2478 14.4955 17.8626
v -9.4063 15.4015 19.4673
v -3.8290 14.4955 14.4968
v -2.9875 15.4015 16.1015
v -2.1461 14.4955 17.7062
v -8.5649 14.4955 21.0720
v -9.4063 15.4015 19.4673
v -10.2478 14.4955 17.8626
v -6.8820 0.0000 24.2815
v -10.2478 0.0000 17.8626
v -3.8290 0.0000 14.4968
v -6.8820 0.0000 24.2815
v -3.8290 0.0000 14.4968
v -0.4631 0.0000 20.9156
v -5.6698 0.0000 3.3554
v -5.8171 0.0000 10.6939
v -5.8171 14.6799 10.6939
v -5.6698 0.0000 3.3554
v -5.8171 14.6799 10.6939
v -5.6698 14.6799 3.3554
v -5.8171 0.0000 10.6939
v 1.5214 0.0000 10.8412
v 1.5214 14.6799 10.8412
v -5.8171 0.0000 10.6939
v 1.5214 14.6799 10.8412
v -5.8171 14.6799 10.6939
v 1.5214 0.0000 10.8412
v 1.6687 0.0000 3.5027
v 1.6687 14.6799 3.5027
v 1.5214 0.0000 10.8412
v 1.6687 14.6799 3.5027
v 1.5214 14.6799 10.8412
v 1.6687 0.0000 3.5027
v -5.6698 0.0000 3.3554
v -5.6698 14.6799 3.3554
v 1.6687 0.0000 3.5027
v -5.6698 14.6799 3.3554
v 1.6687 14.6799 3.5027
v -5.6698 14.6799 3.3554
v -5.7066 15.5974 5.1900
v 1.6319 15.5974 5.3373
v -5.6698 14.6799 3.3554
v 1.6319 15.5974 5.3373
v 1.6687 14.6799 3.5027
v -5.7066 15.5974 5.1900
v -5.7435 14.6799 7.0247
v 1.5950 14.6799 7.1720
v -5.7066 15.5974 5.1900
v 1.5950 14.6799 7.1720
v 1.6319 15.5974 5.3373
v -5.7435 14.6799 7.0247
v -5.7066 15.5974 5.1900
v -5.6698 14.6799 3.3554
v 1.6687 14.6799 3.5027
v 1.6319 15.5974 5.3373
v 1.5950 14.6799 7.1720
v -5.7435 14.6799 7.0247
v -5.7803 15.5974 8.8593
v 1.5582 15.5974 9.0066
v -5.7435 14.6799 7.0247
v 1.5582 15.5974 9.0066
v 1.5950 14.6799 7.1720
v -5.7803 15.5974 8.8593
v -5.8171 14.6799 10.6939
v 1.5214 14.6799 10.8412
v -5.7803 15.5974 8.8593
v 1.5214 14.6799 10.8412
v 1.5582 15.5974 9.0066
v -5.8171 14.6799 10.6939
v -5.7803 15.5974 8.8593
v -5.7435 14.6799 7.0247
v 1.5950 14.6799 7.1720
v 1.5582 15.5974 9.0066
v 1.5214 14.6799 10.8412
v 1.6687 0.0000 3.5027
v 1.5214 0.0000 10.8412
v -5.8171 0.0000 10.6939
v 1.6687 0.0000 3.5027
v -5.8171 0.0000 10.6939
v -5.6698 0.0000 3.3554
vt 0.00781 0.21094
vt 0.38281 0.21094
vt 0.38281 0.99219
vt 0.00781 0.21094
vt 0.38281 0.99219
vt 0.00781 0.99219
vt 0.00781 0.21094
vt 0.38281 0.21094
vt 0.38281 0.99219
vt 0.00781 0.21094
vt 0.38281 0.99219
vt 0.00781 0.99219
vt 0.00781 0.21094
vt 0.38281 0.21094
vt 0.38281 0.99219
vt 0.00781 0.21094
vt 0.38281 0.99219
vt 0.00781 0.99219
vt 0.00781 0.21094
vt 0.38281 0.21094
vt 0.38281 0.99219
vt 0.00781 0.21094
vt 0.38281 0.99219
vt 0.00781 0.99219
vt 0.78906 0.17969
vt 0.97656 0.17969
vt 0.97656 0.33594
vt 0.78906 0.17969
vt 0.97656 0.33594
vt 0.78906 0.33594
vt 0.78906 0.17969
vt 0.97656 0.17969
vt 0.97656 0.33594
vt 0.78906 0.17969
vt 0.97656 0.33594
vt 0.78906 0.33594
vt 0.00781 0.09375
vt 0.19531 0.18750
vt 0.38281 0.09375
vt 0.00781 0.09375
vt 0.19531 0.18750
vt 0.38281 0.09375
vt 0.78906 0.17969
vt 0.97656 0.17969
vt 0.97656 0.33594
vt 0.78906 0.17969
vt 0.97656 0.33594
vt 0.78906 0.33594
vt 0.78906 0.17969
vt 0.97656 0.17969
vt 0.97656 0.33594
vt 0.78906 0.17969
vt 0.97656 0.33594
vt 0.78906 0.33594
vt 0.00781 0.09375
vt 0.19531 0.18750
vt 0.38281 0.09375
vt 0.00781 0.09375
vt 0.19531 0.18750
vt 0.38281 0.09375
vt 0.39844 0.03906
vt 0.52344 0.03906
vt 0.52344 0.16406
vt 0.39844 0.03906
vt 0.52344 0.16406
vt 0.39844 0.16406
vt 0.00781 0.21094
vt 0.38281 0.21094
vt 0.38281 0.99219
vt 0.00781 0.21094
vt 0.38281 0.99219
vt 0.00781 0.99219
vt 0.00781 0.21094
vt 0.38281 0.21094
vt 0.38281 0.99219
vt 0.00781 0.21094
vt 0.38281 0.99219
vt 0.00781 0.99219
vt 0.00781 0.21094
vt 0.38281 0.21094
vt 0.38281 0.99219
vt 0.00781 0.21094
vt 0.38281 0.99219
vt 0.00781 0.99219
vt 0.00781 0.21094
vt 0.38281 0.21094
vt 0.38281 0.99219
vt 0.00781 0.21094
vt 0.38281 0.99219
vt 0.00781 0.99219
vt 0.78906 0.17969
vt 0.97656 0.17969
vt 0.97656 0.33594
vt 0.78906 0.17969
vt 0.97656 0.33594
vt 0.78906 0.33594
vt 0.78906 0.17969
vt 0.97656 0.17969
vt 0.97656 0.33594
vt 0.78906 0.17969
vt 0.97656 0.33594
vt 0.78906 0.33594
vt 0.00781 0.09375
vt 0.19531 0.18750
vt 0.38281 0.09375
vt 0.00781 0.09375
vt 0.19531 0.18750
vt 0.38281 0.09375
vt 0.78906 0.17969
vt 0.97656 0.17969
vt 0.97656 0.33594
vt 0.78906 0.17969
vt 0.97656 0.33594
vt 0.78906 0.33594
vt 0.78906 0.17969
vt 0.97656 0.17969
vt 0.97656 0.33594
vt 0.78906 0.17969
vt 0.97656 0.33594
vt 0.78906 0.33594
vt 0.00781 0.09375
vt 0.19531 0.18750
vt 0.38281 0.09375
vt 0.00781 0.09375
vt 0.19531 0.18750
vt 0.38281 0.09375
vt 0.39844 0.03906
vt 0.52344 0.03906
vt 0.52344 0.16406
vt 0.39844 0.03906
vt 0.52344 0.16406
vt 0.39844 0.16406
usemtl district_facade
f 1/1 2/2 3/3
f 4/4 5/5 6/6
f 7/7 8/8 9/9
f 10/10 11/11 12/12
f 13/13 14/14 15/15
f 16/16 17/17 18/18
f 19/19 20/20 21/21
f 22/22 23/23 24/24
f 25/25 26/26 27/27
f 28/28 29/29 30/30
f 31/31 32/32 33/33
f 34/34 35/35 36/36
f 37/37 38/38 39/39
f 40/40 41/41 42/42
f 43/43 44/44 45/45
f 46/46 47/47 48/48
f 49/49 50/50 51/51
f 52/52 53/53 54/54
f 55/55 56/56 57/57
f 58/58 59/59 60/60
f 61/61 62/62 63/63
f 64/64 65/65 66/66
f 67/67 68/68 69/69
f 70/70 71/71 72/72
f 73/73 74/74 75/75
f 76/76 77/77 78/78
f 79/79 80/80 81/81
f 82/82 83/83 84/84
f 85/85 86/86 87/87
f 88/88 89/89 90/90
f 91/91 92/92 93/93
f 94/94 95/95 96/96
f 97/97 98/98 99/99
f 100/100 101/101 102/102
f 103/103 104/104 105/105
f 106/106 107/107 108/108
f 109/109 110/110 111/111
f 112/112 113/113 114/114
f 115/115 116/116 117/117
f 118/118 119/119 120/120
f 121/121 122/122 123/123
f 124/124 125/125 126/126
f 127/127 128/128 129/129
f 130/130 131/131 132/132
