# Generated by TyraX. Do not edit - rebaked from the procedural graph of 'Painted district scatter'.
# 1 instances of res/models/urban/district-loft.obj
mtllib district-buildings.mtl
v 7.1924 0.0000 -18.6510
v 15.6446 0.0000 -19.8396
v 15.6446 10.2424 -19.8396
v 7.1924 0.0000 -18.6510
v 15.6446 10.2424 -19.8396
v 7.1924 10.2424 -18.6510
v 15.6446 0.0000 -19.8396
v 14.4560 0.0000 -28.2918
v 14.4560 10.2424 -28.2918
v 15.6446 0.0000 -19.8396
v 14.4560 10.2424 -28.2918
v 15.6446 10.2424 -19.8396
v 14.4560 0.0000 -28.2918
v 6.0038 0.0000 -27.1032
v 6.0038 10.2424 -27.1032
v 14.4560 0.0000 -28.2918
v 6.0038 10.2424 -27.1032
v 14.4560 10.2424 -28.2918
v 6.0038 0.0000 -27.1032
v 7.1924 0.0000 -18.6510
v 7.1924 10.2424 -18.6510
v 6.0038 0.0000 -27.1032
v 7.1924 10.2424 -18.6510
v 6.0038 10.2424 -27.1032
v 7.1924 10.2424 -18.6510
v 9.3055 11.3093 -18.9482
v 8.1169 11.3093 -27.4003
v 7.1924 10.2424 -18.6510
v 8.1169 11.3093 -27.4003
v 6.0038 10.2424 -27.1032
v 9.3055 11.3093 -18.9482
v 11.4185 10.2424 -19.2453
v 10.2299 10.2424 -27.6975
v 9.3055 11.3093 -18.9482
v 10.2299 10.2424 -27.6975
v 8.1169 11.3093 -27.4003
v 11.4185 10.2424 -19.2453
v 9.3055 11.3093 -18.9482
v 7.1924 10.2424 -18.6510
v 6.0038 10.2424 -27.1032
v 8.1169 11.3093 -27.4003
v 10.2299 10.2424 -27.6975
v 11.4185 10.2424 -19.2453
v 13.5316 11.3093 -19.5425
v 12.3429 11.3093 -27.9947
v 11.4185 10.2424 -19.2453
v 12.3429 11.3093 -27.9947
v 10.2299 10.2424 -27.6975
v 13.5316 11.3093 -19.5425
v 15.6446 10.2424 -19.8396
v 14.4560 10.2424 -28.2918
v 13.5316 11.3093 -19.5425
v 14.4560 10.2424 -28.2918
v 12.3429 11.3093 -27.9947
v 15.6446 10.2424 -19.8396
v 13.5316 11.3093 -19.5425
v 11.4185 10.2424 -19.2453
v 10.2299 10.2424 -27.6975
v 12.3429 11.3093 -27.9947
v 14.4560 10.2424 -28.2918
v 6.0038 0.0000 -27.1032
v 14.4560 0.0000 -28.2918
v 15.6446 0.0000 -19.8396
v 6.0038 0.0000 -27.1032
v 15.6446 0.0000 -19.8396
v 7.1924 0.0000 -18.6510
vt 0.39844 0.52344
vt 0.77344 0.52344
vt 0.77344 0.99219
vt 0.39844 0.52344
vt 0.77344 0.99219
vt 0.39844 0.99219
vt 0.39844 0.52344
vt 0.77344 0.52344
vt 0.77344 0.99219
vt 0.39844 0.52344
vt 0.77344 0.99219
vt 0.39844 0.99219
vt 0.39844 0.52344
vt 0.77344 0.52344
vt 0.77344 0.99219
vt 0.39844 0.52344
vt 0.77344 0.99219
vt 0.39844 0.99219
vt 0.39844 0.52344
vt 0.77344 0.52344
vt 0.77344 0.99219
vt 0.39844 0.52344
vt 0.77344 0.99219
vt 0.39844 0.99219
vt 0.78906 0.17969
vt 0.97656 0.17969
vt 0.97656 0.33594
vt 0.78906 0.17969
vt 0.97656 0.33594
vt 0.78906 0.33594
vt 0.78906 0.17969
vt 0.97656 0.17969
vt 0.97656 0.33594
vt 0.78906 0.17969
vt 0.97656 0.33594
vt 0.78906 0.33594
vt 0.00781 0.09375
vt 0.19531 0.18750
vt 0.38281 0.09375
vt 0.00781 0.09375
vt 0.19531 0.18750
vt 0.38281 0.09375
vt 0.78906 0.17969
vt 0.97656 0.17969
vt 0.97656 0.33594
vt 0.78906 0.17969
vt 0.97656 0.33594
vt 0.78906 0.33594
vt 0.78906 0.17969
vt 0.97656 0.17969
vt 0.97656 0.33594
vt 0.78906 0.17969
vt 0.97656 0.33594
vt 0.78906 0.33594
vt 0.00781 0.09375
vt 0.19531 0.18750
vt 0.38281 0.09375
vt 0.00781 0.09375
vt 0.19531 0.18750
vt 0.38281 0.09375
vt 0.39844 0.03906
vt 0.52344 0.03906
vt 0.52344 0.16406
vt 0.39844 0.03906
vt 0.52344 0.16406
vt 0.39844 0.16406
usemtl district_facade
f 1/1 2/2 3/3
f 4/4 5/5 6/6
f 7/7 8/8 9/9
f 10/10 11/11 12/12
f 13/13 14/14 15/15
f 16/16 17/17 18/18
f 19/19 20/20 21/21
f 22/22 23/23 24/24
f 25/25 26/26 27/27
f 28/28 29/29 30/30
f 31/31 32/32 33/33
f 34/34 35/35 36/36
f 37/37 38/38 39/39
f 40/40 41/41 42/42
f 43/43 44/44 45/45
f 46/46 47/47 48/48
f 49/49 50/50 51/51
f 52/52 53/53 54/54
f 55/55 56/56 57/57
f 58/58 59/59 60/60
f 61/61 62/62 63/63
f 64/64 65/65 66/66
