# Generated by TyraX. Do not edit - rebaked from the procedural graph of 'Painted district scatter'.
# 3 instances of res/models/urban/district-loft.obj
mtllib district-buildings.mtl
v 8.6311 0.0000 11.1694
v 7.5413 0.0000 3.2470
v 7.5413 9.5963 3.2470
v 8.6311 0.0000 11.1694
v 7.5413 9.5963 3.2470
v 8.6311 9.5963 11.1694
v 7.5413 0.0000 3.2470
v -0.3811 0.0000 4.3368
v -0.3811 9.5963 4.3368
v 7.5413 0.0000 3.2470
v -0.3811 9.5963 4.3368
v 7.5413 9.5963 3.2470
v -0.3811 0.0000 4.3368
v 0.7087 0.0000 12.2591
v 0.7087 9.5963 12.2591
v -0.3811 0.0000 4.3368
v 0.7087 9.5963 12.2591
v -0.3811 9.5963 4.3368
v 0.7087 0.0000 12.2591
v 8.6311 0.0000 11.1694
v 8.6311 9.5963 11.1694
v 0.7087 0.0000 12.2591
v 8.6311 9.5963 11.1694
v 0.7087 9.5963 12.2591
v 8.6311 9.5963 11.1694
v 8.3586 10.5960 9.1888
v 0.4363 10.5960 10.2786
v 8.6311 9.5963 11.1694
v 0.4363 10.5960 10.2786
v 0.7087 9.5963 12.2591
v 8.3586 10.5960 9.1888
v 8.0862 9.5963 7.2082
v 0.1638 9.5963 8.2980
v 8.3586 10.5960 9.1888
v 0.1638 9.5963 8.2980
v 0.4363 10.5960 10.2786
v 8.0862 9.5963 7.2082
v 8.3586 10.5960 9.1888
v 8.6311 9.5963 11.1694
v 0.7087 9.5963 12.2591
v 0.4363 10.5960 10.2786
v 0.1638 9.5963 8.2980
v 8.0862 9.5963 7.2082
v 7.8137 10.5960 5.2276
v -0.1086 10.5960 6.3174
v 8.0862 9.5963 7.2082
v -0.1086 10.5960 6.3174
v 0.1638 9.5963 8.2980
v 7.8137 10.5960 5.2276
v 7.5413 9.5963 3.2470
v -0.3811 9.5963 4.3368
v 7.8137 10.5960 5.2276
v -0.3811 9.5963 4.3368
v -0.1086 10.5960 6.3174
v 7.5413 9.5963 3.2470
v 7.8137 10.5960 5.2276
v 8.0862 9.5963 7.2082
v 0.1638 9.5963 8.2980
v -0.1086 10.5960 6.3174
v -0.3811 9.5963 4.3368
v 0.7087 0.0000 12.2591
v -0.3811 0.0000 4.3368
v 7.5413 0.0000 3.2470
v 0.7087 0.0000 12.2591
v 7.5413 0.0000 3.2470
v 8.6311 0.0000 11.1694
v 10.1586 0.0000 -3.3410
v 10.8554 0.0000 -11.1831
v 10.8554 9.4476 -11.1831
v 10.1586 0.0000 -3.3410
v 10.8554 9.4476 -11.1831
v 10.1586 9.4476 -3.3410
v 10.8554 0.0000 -11.1831
v 3.0133 0.0000 -11.8799
v 3.0133 9.4476 -11.8799
v 10.8554 0.0000 -11.1831
v 3.0133 9.4476 -11.8799
v 10.8554 9.4476 -11.1831
v 3.0133 0.0000 -11.8799
v 2.3165 0.0000 -4.0378
v 2.3165 9.4476 -4.0378
v 3.0133 0.0000 -11.8799
v 2.3165 9.4476 -4.0378
v 3.0133 9.4476 -11.8799
v 2.3165 0.0000 -4.0378
v 10.1586 0.0000 -3.3410
v 10.1586 9.4476 -3.3410
v 2.3165 0.0000 -4.0378
v 10.1586 9.4476 -3.3410
v 2.3165 9.4476 -4.0378
v 10.1586 9.4476 -3.3410
v 10.3328 10.4317 -5.3015
v 2.4907 10.4317 -5.9983
v 10.1586 9.4476 -3.3410
v 2.4907 10.4317 -5.9983
v 2.3165 9.4476 -4.0378
v 10.3328 10.4317 -5.3015
v 10.5070 9.4476 -7.2620
v 2.6649 9.4476 -7.9588
v 10.3328 10.4317 -5.3015
v 2.6649 9.4476 -7.9588
v 2.4907 10.4317 -5.9983
v 10.5070 9.4476 -7.2620
v 10.3328 10.4317 -5.3015
v 10.1586 9.4476 -3.3410
v 2.3165 9.4476 -4.0378
v 2.4907 10.4317 -5.9983
v 2.6649 9.4476 -7.9588
v 10.5070 9.4476 -7.2620
v 10.6812 10.4317 -9.2225
v 2.8391 10.4317 -9.9193
v 10.5070 9.4476 -7.2620
v 2.8391 10.4317 -9.9193
v 2.6649 9.4476 -7.9588
v 10.6812 10.4317 -9.2225
v 10.8554 9.4476 -11.1831
v 3.0133 9.4476 -11.8799
v 10.6812 10.4317 -9.2225
v 3.0133 9.4476 -11.8799
v 2.8391 10.4317 -9.9193
v 10.8554 9.4476 -11.1831
v 10.6812 10.4317 -9.2225
v 10.5070 9.4476 -7.2620
v 2.6649 9.4476 -7.9588
v 2.8391 10.4317 -9.9193
v 3.0133 9.4476 -11.8799
v 2.3165 0.0000 -4.0378
v 3.0133 0.0000 -11.8799
v 10.8554 0.0000 -11.1831
v 2.3165 0.0000 -4.0378
v 10.8554 0.0000 -11.1831
v 10.1586 0.0000 -3.3410
v 20.6571 0.0000 5.4442
v 17.6106 0.0000 13.1609
v 17.6106 9.9556 13.1609
v 20.6571 0.0000 5.4442
v 17.6106 9.9556 13.1609
v 20.6571 9.9556 5.4442
v 17.6106 0.0000 13.1609
v 25.3272 0.0000 16.2074
v 25.3272 9.9556 16.2074
v 17.6106 0.0000 13.1609
v 25.3272 9.9556 16.2074
v 17.6106 9.9556 13.1609
v 25.3272 0.0000 16.2074
v 28.3738 0.0000 8.4907
v 28.3738 9.9556 8.4907
v 25.3272 0.0000 16.2074
v 28.3738 9.9556 8.4907
v 25.3272 9.9556 16.2074
v 28.3738 0.0000 8.4907
v 20.6571 0.0000 5.4442
v 20.6571 9.9556 5.4442
v 28.3738 0.0000 8.4907
v 20.6571 9.9556 5.4442
v 28.3738 9.9556 8.4907
v 20.6571 9.9556 5.4442
v 19.8955 10.9926 7.3733
v 27.6122 10.9926 10.4199
v 20.6571 9.9556 5.4442
v 27.6122 10.9926 10.4199
v 28.3738 9.9556 8.4907
v 19.8955 10.9926 7.3733
v 19.1338 9.9556 9.3025
v 26.8505 9.9556 12.3491
v 19.8955 10.9926 7.3733
v 26.8505 9.9556 12.3491
v 27.6122 10.9926 10.4199
v 19.1338 9.9556 9.3025
v 19.8955 10.9926 7.3733
v 20.6571 9.9556 5.4442
v 28.3738 9.9556 8.4907
v 27.6122 10.9926 10.4199
v 26.8505 9.9556 12.3491
v 19.1338 9.9556 9.3025
v 18.3722 10.9926 11.2317
v 26.0889 10.9926 14.2783
v 19.1338 9.9556 9.3025
v 26.0889 10.9926 14.2783
v 26.8505 9.9556 12.3491
v 18.3722 10.9926 11.2317
v 17.6106 9.9556 13.1609
v 25.3272 9.9556 16.2074
v 18.3722 10.9926 11.2317
v 25.3272 9.9556 16.2074
v 26.0889 10.9926 14.2783
v 17.6106 9.9556 13.1609
v 18.3722 10.9926 11.2317
v 19.1338 9.9556 9.3025
v 26.8505 9.9556 12.3491
v 26.0889 10.9926 14.2783
v 25.3272 9.9556 16.2074
v 28.3738 0.0000 8.4907
v 25.3272 0.0000 16.2074
v 17.6106 0.0000 13.1609
v 28.3738 0.0000 8.4907
v 17.6106 0.0000 13.1609
v 20.6571 0.0000 5.4442
vt 0.39844 0.52344
vt 0.77344 0.52344
vt 0.77344 0.99219
vt 0.39844 0.52344
vt 0.77344 0.99219
vt 0.39844 0.99219
vt 0.39844 0.52344
vt 0.77344 0.52344
vt 0.77344 0.99219
vt 0.39844 0.52344
vt 0.77344 0.99219
vt 0.39844 0.99219
vt 0.39844 0.52344
vt 0.77344 0.52344
vt 0.77344 0.99219
vt 0.39844 0.52344
vt 0.77344 0.99219
vt 0.39844 0.99219
vt 0.39844 0.52344
vt 0.77344 0.52344
vt 0.77344 0.99219
vt 0.39844 0.52344
vt 0.77344 0.99219
vt 0.39844 0.99219
vt 0.78906 0.17969
vt 0.97656 0.17969
vt 0.97656 0.33594
vt 0.78906 0.17969
vt 0.97656 0.33594
vt 0.78906 0.33594
vt 0.78906 0.17969
vt 0.97656 0.17969
vt 0.97656 0.33594
vt 0.78906 0.17969
vt 0.97656 0.33594
vt 0.78906 0.33594
vt 0.00781 0.09375
vt 0.19531 0.18750
vt 0.38281 0.09375
vt 0.00781 0.09375
vt 0.19531 0.18750
vt 0.38281 0.09375
vt 0.78906 0.17969
vt 0.97656 0.17969
vt 0.97656 0.33594
vt 0.78906 0.17969
vt 0.97656 0.33594
vt 0.78906 0.33594
vt 0.78906 0.17969
vt 0.97656 0.17969
vt 0.97656 0.33594
vt 0.78906 0.17969
vt 0.97656 0.33594
vt 0.78906 0.33594
vt 0.00781 0.09375
vt 0.19531 0.18750
vt 0.38281 0.09375
vt 0.00781 0.09375
vt 0.19531 0.18750
vt 0.38281 0.09375
vt 0.39844 0.03906
vt 0.52344 0.03906
vt 0.52344 0.16406
vt 0.39844 0.03906
vt 0.52344 0.16406
vt 0.39844 0.16406
vt 0.39844 0.52344
vt 0.77344 0.52344
vt 0.77344 0.99219
vt 0.39844 0.52344
vt 0.77344 0.99219
vt 0.39844 0.99219
vt 0.39844 0.52344
vt 0.77344 0.52344
vt 0.77344 0.99219
vt 0.39844 0.52344
vt 0.77344 0.99219
vt 0.39844 0.99219
vt 0.39844 0.52344
vt 0.77344 0.52344
vt 0.77344 0.99219
vt 0.39844 0.52344
vt 0.77344 0.99219
vt 0.39844 0.99219
vt 0.39844 0.52344
vt 0.77344 0.52344
vt 0.77344 0.99219
vt 0.39844 0.52344
vt 0.77344 0.99219
vt 0.39844 0.99219
vt 0.78906 0.17969
vt 0.97656 0.17969
vt 0.97656 0.33594
vt 0.78906 0.17969
vt 0.97656 0.33594
vt 0.78906 0.33594
vt 0.78906 0.17969
vt 0.97656 0.17969
vt 0.97656 0.33594
vt 0.78906 0.17969
vt 0.97656 0.33594
vt 0.78906 0.33594
vt 0.00781 0.09375
vt 0.19531 0.18750
vt 0.38281 0.09375
vt 0.00781 0.09375
vt 0.19531 0.18750
vt 0.38281 0.09375
vt 0.78906 0.17969
vt 0.97656 0.17969
vt 0.97656 0.33594
vt 0.78906 0.17969
vt 0.97656 0.33594
vt 0.78906 0.33594
vt 0.78906 0.17969
vt 0.97656 0.17969
vt 0.97656 0.33594
vt 0.78906 0.17969
vt 0.97656 0.33594
vt 0.78906 0.33594
vt 0.00781 0.09375
vt 0.19531 0.18750
vt 0.38281 0.09375
vt 0.00781 0.09375
vt 0.19531 0.18750
vt 0.38281 0.09375
vt 0.39844 0.03906
vt 0.52344 0.03906
vt 0.52344 0.16406
vt 0.39844 0.03906
vt 0.52344 0.16406
vt 0.39844 0.16406
vt 0.39844 0.52344
vt 0.77344 0.52344
vt 0.77344 0.99219
vt 0.39844 0.52344
vt 0.77344 0.99219
vt 0.39844 0.99219
vt 0.39844 0.52344
vt 0.77344 0.52344
vt 0.77344 0.99219
vt 0.39844 0.52344
vt 0.77344 0.99219
vt 0.39844 0.99219
vt 0.39844 0.52344
vt 0.77344 0.52344
vt 0.77344 0.99219
vt 0.39844 0.52344
vt 0.77344 0.99219
vt 0.39844 0.99219
vt 0.39844 0.52344
vt 0.77344 0.52344
vt 0.77344 0.99219
vt 0.39844 0.52344
vt 0.77344 0.99219
vt 0.39844 0.99219
vt 0.78906 0.17969
vt 0.97656 0.17969
vt 0.97656 0.33594
vt 0.78906 0.17969
vt 0.97656 0.33594
vt 0.78906 0.33594
vt 0.78906 0.17969
vt 0.97656 0.17969
vt 0.97656 0.33594
vt 0.78906 0.17969
vt 0.97656 0.33594
vt 0.78906 0.33594
vt 0.00781 0.09375
vt 0.19531 0.18750
vt 0.38281 0.09375
vt 0.00781 0.09375
vt 0.19531 0.18750
vt 0.38281 0.09375
vt 0.78906 0.17969
vt 0.97656 0.17969
vt 0.97656 0.33594
vt 0.78906 0.17969
vt 0.97656 0.33594
vt 0.78906 0.33594
vt 0.78906 0.17969
vt 0.97656 0.17969
vt 0.97656 0.33594
vt 0.78906 0.17969
vt 0.97656 0.33594
vt 0.78906 0.33594
vt 0.00781 0.09375
vt 0.19531 0.18750
vt 0.38281 0.09375
vt 0.00781 0.09375
vt 0.19531 0.18750
vt 0.38281 0.09375
vt 0.39844 0.03906
vt 0.52344 0.03906
vt 0.52344 0.16406
vt 0.39844 0.03906
vt 0.52344 0.16406
vt 0.39844 0.16406
usemtl district_facade
f 1/1 2/2 3/3
f 4/4 5/5 6/6
f 7/7 8/8 9/9
f 10/10 11/11 12/12
f 13/13 14/14 15/15
f 16/16 17/17 18/18
f 19/19 20/20 21/21
f 22/22 23/23 24/24
f 25/25 26/26 27/27
f 28/28 29/29 30/30
f 31/31 32/32 33/33
f 34/34 35/35 36/36
f 37/37 38/38 39/39
f 40/40 41/41 42/42
f 43/43 44/44 45/45
f 46/46 47/47 48/48
f 49/49 50/50 51/51
f 52/52 53/53 54/54
f 55/55 56/56 57/57
f 58/58 59/59 60/60
f 61/61 62/62 63/63
f 64/64 65/65 66/66
f 67/67 68/68 69/69
f 70/70 71/71 72/72
f 73/73 74/74 75/75
f 76/76 77/77 78/78
f 79/79 80/80 81/81
f 82/82 83/83 84/84
f 85/85 86/86 87/87
f 88/88 89/89 90/90
f 91/91 92/92 93/93
f 94/94 95/95 96/96
f 97/97 98/98 99/99
f 100/100 101/101 102/102
f 103/103 104/104 105/105
f 106/106 107/107 108/108
f 109/109 110/110 111/111
f 112/112 113/113 114/114
f 115/115 116/116 117/117
f 118/118 119/119 120/120
f 121/121 122/122 123/123
f 124/124 125/125 126/126
f 127/127 128/128 129/129
f 130/130 131/131 132/132
f 133/133 134/134 135/135
f 136/136 137/137 138/138
f 139/139 140/140 141/141
f 142/142 143/143 144/144
f 145/145 146/146 147/147
f 148/148 149/149 150/150
f 151/151 152/152 153/153
f 154/154 155/155 156/156
f 157/157 158/158 159/159
f 160/160 161/161 162/162
f 163/163 164/164 165/165
f 166/166 167/167 168/168
f 169/169 170/170 171/171
f 172/172 173/173 174/174
f 175/175 176/176 177/177
f 178/178 179/179 180/180
f 181/181 182/182 183/183
f 184/184 185/185 186/186
f 187/187 188/188 189/189
f 190/190 191/191 192/192
f 193/193 194/194 195/195
f 196/196 197/197 198/198
