# Generated by TyraX. Do not edit - rebaked from the procedural graph of 'Painted district scatter'.
# 1 instances of res/models/urban/district-loft.obj
mtllib district-buildings.mtl
v -34.4241 0.0000 -3.5679
v -26.0325 0.0000 -6.0487
v -26.0325 10.5008 -6.0487
v -34.4241 0.0000 -3.5679
v -26.0325 10.5008 -6.0487
v -34.4241 10.5008 -3.5679
v -26.0325 0.0000 -6.0487
v -28.5134 0.0000 -14.4404
v -28.5134 10.5008 -14.4404
v -26.0325 0.0000 -6.0487
v -28.5134 10.5008 -14.4404
v -26.0325 10.5008 -6.0487
v -28.5134 0.0000 -14.4404
v -36.9050 0.0000 -11.9595
v -36.9050 10.5008 -11.9595
v -28.5134 0.0000 -14.4404
v -36.9050 10.5008 -11.9595
v -28.5134 10.5008 -14.4404
v -36.9050 0.0000 -11.9595
v -34.4241 0.0000 -3.5679
v -34.4241 10.5008 -3.5679
v -36.9050 0.0000 -11.9595
v -34.4241 10.5008 -3.5679
v -36.9050 10.5008 -11.9595
v -34.4241 10.5008 -3.5679
v -32.3262 11.5946 -4.1881
v -34.8071 11.5946 -12.5797
v -34.4241 10.5008 -3.5679
v -34.8071 11.5946 -12.5797
v -36.9050 10.5008 -11.9595
v -32.3262 11.5946 -4.1881
v -30.2283 10.5008 -4.8083
v -32.7092 10.5008 -13.1999
v -32.3262 11.5946 -4.1881
v -32.7092 10.5008 -13.1999
v -34.8071 11.5946 -12.5797
v -30.2283 10.5008 -4.8083
v -32.3262 11.5946 -4.1881
v -34.4241 10.5008 -3.5679
v -36.9050 10.5008 -11.9595
v -34.8071 11.5946 -12.5797
v -32.7092 10.5008 -13.1999
v -30.2283 10.5008 -4.8083
v -28.1304 11.5946 -5.4285
v -30.6113 11.5946 -13.8201
v -30.2283 10.5008 -4.8083
v -30.6113 11.5946 -13.8201
v -32.7092 10.5008 -13.1999
v -28.1304 11.5946 -5.4285
v -26.0325 10.5008 -6.0487
v -28.5134 10.5008 -14.4404
v -28.1304 11.5946 -5.4285
v -28.5134 10.5008 -14.4404
v -30.6113 11.5946 -13.8201
v -26.0325 10.5008 -6.0487
v -28.1304 11.5946 -5.4285
v -30.2283 10.5008 -4.8083
v -32.7092 10.5008 -13.1999
v -30.6113 11.5946 -13.8201
v -28.5134 10.5008 -14.4404
v -36.9050 0.0000 -11.9595
v -28.5134 0.0000 -14.4404
v -26.0325 0.0000 -6.0487
v -36.9050 0.0000 -11.9595
v -26.0325 0.0000 -6.0487
v -34.4241 0.0000 -3.5679
vt 0.39844 0.52344
vt 0.77344 0.52344
vt 0.77344 0.99219
vt 0.39844 0.52344
vt 0.77344 0.99219
vt 0.39844 0.99219
vt 0.39844 0.52344
vt 0.77344 0.52344
vt 0.77344 0.99219
vt 0.39844 0.52344
vt 0.77344 0.99219
vt 0.39844 0.99219
vt 0.39844 0.52344
vt 0.77344 0.52344
vt 0.77344 0.99219
vt 0.39844 0.52344
vt 0.77344 0.99219
vt 0.39844 0.99219
vt 0.39844 0.52344
vt 0.77344 0.52344
vt 0.77344 0.99219
vt 0.39844 0.52344
vt 0.77344 0.99219
vt 0.39844 0.99219
vt 0.78906 0.17969
vt 0.97656 0.17969
vt 0.97656 0.33594
vt 0.78906 0.17969
vt 0.97656 0.33594
vt 0.78906 0.33594
vt 0.78906 0.17969
vt 0.97656 0.17969
vt 0.97656 0.33594
vt 0.78906 0.17969
vt 0.97656 0.33594
vt 0.78906 0.33594
vt 0.00781 0.09375
vt 0.19531 0.18750
vt 0.38281 0.09375
vt 0.00781 0.09375
vt 0.19531 0.18750
vt 0.38281 0.09375
vt 0.78906 0.17969
vt 0.97656 0.17969
vt 0.97656 0.33594
vt 0.78906 0.17969
vt 0.97656 0.33594
vt 0.78906 0.33594
vt 0.78906 0.17969
vt 0.97656 0.17969
vt 0.97656 0.33594
vt 0.78906 0.17969
vt 0.97656 0.33594
vt 0.78906 0.33594
vt 0.00781 0.09375
vt 0.19531 0.18750
vt 0.38281 0.09375
vt 0.00781 0.09375
vt 0.19531 0.18750
vt 0.38281 0.09375
vt 0.39844 0.03906
vt 0.52344 0.03906
vt 0.52344 0.16406
vt 0.39844 0.03906
vt 0.52344 0.16406
vt 0.39844 0.16406
usemtl district_facade
f 1/1 2/2 3/3
f 4/4 5/5 6/6
f 7/7 8/8 9/9
f 10/10 11/11 12/12
f 13/13 14/14 15/15
f 16/16 17/17 18/18
f 19/19 20/20 21/21
f 22/22 23/23 24/24
f 25/25 26/26 27/27
f 28/28 29/29 30/30
f 31/31 32/32 33/33
f 34/34 35/35 36/36
f 37/37 38/38 39/39
f 40/40 41/41 42/42
f 43/43 44/44 45/45
f 46/46 47/47 48/48
f 49/49 50/50 51/51
f 52/52 53/53 54/54
f 55/55 56/56 57/57
f 58/58 59/59 60/60
f 61/61 62/62 63/63
f 64/64 65/65 66/66
