# Generated by TyraX. Do not edit - rebaked from the procedural graph of 'Painted district scatter'.
# 1 instances of res/models/urban/district-tower.obj
mtllib district-buildings.mtl
v -19.5685 0.0000 1.7285
v -11.4021 0.0000 0.6913
v -11.4021 16.4640 0.6913
v -19.5685 0.0000 1.7285
v -11.4021 16.4640 0.6913
v -19.5685 16.4640 1.7285
v -11.4021 0.0000 0.6913
v -12.4393 0.0000 -7.4752
v -12.4393 16.4640 -7.4752
v -11.4021 0.0000 0.6913
v -12.4393 16.4640 -7.4752
v -11.4021 16.4640 0.6913
v -12.4393 0.0000 -7.4752
v -20.6057 0.0000 -6.4380
v -20.6057 16.4640 -6.4380
v -12.4393 0.0000 -7.4752
v -20.6057 16.4640 -6.4380
v -12.4393 16.4640 -7.4752
v -20.6057 0.0000 -6.4380
v -19.5685 0.0000 1.7285
v -19.5685 16.4640 1.7285
v -20.6057 0.0000 -6.4380
v -19.5685 16.4640 1.7285
v -20.6057 16.4640 -6.4380
v -19.5685 16.4640 1.7285
v -17.5269 17.4930 1.4692
v -18.5641 17.4930 -6.6973
v -19.5685 16.4640 1.7285
v -18.5641 17.4930 -6.6973
v -20.6057 16.4640 -6.4380
v -17.5269 17.4930 1.4692
v -15.4853 16.4640 1.2099
v -16.5225 16.4640 -6.9566
v -17.5269 17.4930 1.4692
v -16.5225 16.4640 -6.9566
v -18.5641 17.4930 -6.6973
v -15.4853 16.4640 1.2099
v -17.5269 17.4930 1.4692
v -19.5685 16.4640 1.7285
v -20.6057 16.4640 -6.4380
v -18.5641 17.4930 -6.6973
v -16.5225 16.4640 -6.9566
v -15.4853 16.4640 1.2099
v -13.4437 17.4930 0.9506
v -14.4809 17.4930 -7.2159
v -15.4853 16.4640 1.2099
v -14.4809 17.4930 -7.2159
v -16.5225 16.4640 -6.9566
v -13.4437 17.4930 0.9506
v -11.4021 16.4640 0.6913
v -12.4393 16.4640 -7.4752
v -13.4437 17.4930 0.9506
v -12.4393 16.4640 -7.4752
v -14.4809 17.4930 -7.2159
v -11.4021 16.4640 0.6913
v -13.4437 17.4930 0.9506
v -15.4853 16.4640 1.2099
v -16.5225 16.4640 -6.9566
v -14.4809 17.4930 -7.2159
v -12.4393 16.4640 -7.4752
v -20.6057 0.0000 -6.4380
v -12.4393 0.0000 -7.4752
v -11.4021 0.0000 0.6913
v -20.6057 0.0000 -6.4380
v -11.4021 0.0000 0.6913
v -19.5685 0.0000 1.7285
vt 0.00781 0.21094
vt 0.38281 0.21094
vt 0.38281 0.99219
vt 0.00781 0.21094
vt 0.38281 0.99219
vt 0.00781 0.99219
vt 0.00781 0.21094
vt 0.38281 0.21094
vt 0.38281 0.99219
vt 0.00781 0.21094
vt 0.38281 0.99219
vt 0.00781 0.99219
vt 0.00781 0.21094
vt 0.38281 0.21094
vt 0.38281 0.99219
vt 0.00781 0.21094
vt 0.38281 0.99219
vt 0.00781 0.99219
vt 0.00781 0.21094
vt 0.38281 0.21094
vt 0.38281 0.99219
vt 0.00781 0.21094
vt 0.38281 0.99219
vt 0.00781 0.99219
vt 0.78906 0.17969
vt 0.97656 0.17969
vt 0.97656 0.33594
vt 0.78906 0.17969
vt 0.97656 0.33594
vt 0.78906 0.33594
vt 0.78906 0.17969
vt 0.97656 0.17969
vt 0.97656 0.33594
vt 0.78906 0.17969
vt 0.97656 0.33594
vt 0.78906 0.33594
vt 0.00781 0.09375
vt 0.19531 0.18750
vt 0.38281 0.09375
vt 0.00781 0.09375
vt 0.19531 0.18750
vt 0.38281 0.09375
vt 0.78906 0.17969
vt 0.97656 0.17969
vt 0.97656 0.33594
vt 0.78906 0.17969
vt 0.97656 0.33594
vt 0.78906 0.33594
vt 0.78906 0.17969
vt 0.97656 0.17969
vt 0.97656 0.33594
vt 0.78906 0.17969
vt 0.97656 0.33594
vt 0.78906 0.33594
vt 0.00781 0.09375
vt 0.19531 0.18750
vt 0.38281 0.09375
vt 0.00781 0.09375
vt 0.19531 0.18750
vt 0.38281 0.09375
vt 0.39844 0.03906
vt 0.52344 0.03906
vt 0.52344 0.16406
vt 0.39844 0.03906
vt 0.52344 0.16406
vt 0.39844 0.16406
usemtl district_facade
f 1/1 2/2 3/3
f 4/4 5/5 6/6
f 7/7 8/8 9/9
f 10/10 11/11 12/12
f 13/13 14/14 15/15
f 16/16 17/17 18/18
f 19/19 20/20 21/21
f 22/22 23/23 24/24
f 25/25 26/26 27/27
f 28/28 29/29 30/30
f 31/31 32/32 33/33
f 34/34 35/35 36/36
f 37/37 38/38 39/39
f 40/40 41/41 42/42
f 43/43 44/44 45/45
f 46/46 47/47 48/48
f 49/49 50/50 51/51
f 52/52 53/53 54/54
f 55/55 56/56 57/57
f 58/58 59/59 60/60
f 61/61 62/62 63/63
f 64/64 65/65 66/66
