# Generated by TyraX. Do not edit - rebaked from the procedural graph of 'Painted district scatter'.
# 2 instances of res/models/urban/district-loft.obj
mtllib district-buildings.mtl
v 10.9764 0.0000 -11.5435
v 12.4289 0.0000 -3.7613
v 12.4289 9.4999 -3.7613
v 10.9764 0.0000 -11.5435
v 12.4289 9.4999 -3.7613
v 10.9764 9.4999 -11.5435
v 12.4289 0.0000 -3.7613
v 20.2111 0.0000 -5.2137
v 20.2111 9.4999 -5.2137
v 12.4289 0.0000 -3.7613
v 20.2111 9.4999 -5.2137
v 12.4289 9.4999 -3.7613
v 20.2111 0.0000 -5.2137
v 18.7586 0.0000 -12.9959
v 18.7586 9.4999 -12.9959
v 20.2111 0.0000 -5.2137
v 18.7586 9.4999 -12.9959
v 20.2111 9.4999 -5.2137
v 18.7586 0.0000 -12.9959
v 10.9764 0.0000 -11.5435
v 10.9764 9.4999 -11.5435
v 18.7586 0.0000 -12.9959
v 10.9764 9.4999 -11.5435
v 18.7586 9.4999 -12.9959
v 10.9764 9.4999 -11.5435
v 11.3395 10.4895 -9.5979
v 19.1217 10.4895 -11.0504
v 10.9764 9.4999 -11.5435
v 19.1217 10.4895 -11.0504
v 18.7586 9.4999 -12.9959
v 11.3395 10.4895 -9.5979
v 11.7026 9.4999 -7.6524
v 19.4849 9.4999 -9.1048
v 11.3395 10.4895 -9.5979
v 19.4849 9.4999 -9.1048
v 19.1217 10.4895 -11.0504
v 11.7026 9.4999 -7.6524
v 11.3395 10.4895 -9.5979
v 10.9764 9.4999 -11.5435
v 18.7586 9.4999 -12.9959
v 19.1217 10.4895 -11.0504
v 19.4849 9.4999 -9.1048
v 11.7026 9.4999 -7.6524
v 12.0658 10.4895 -5.7068
v 19.8480 10.4895 -7.1593
v 11.7026 9.4999 -7.6524
v 19.8480 10.4895 -7.1593
v 19.4849 9.4999 -9.1048
v 12.0658 10.4895 -5.7068
v 12.4289 9.4999 -3.7613
v 20.2111 9.4999 -5.2137
v 12.0658 10.4895 -5.7068
v 20.2111 9.4999 -5.2137
v 19.8480 10.4895 -7.1593
v 12.4289 9.4999 -3.7613
v 12.0658 10.4895 -5.7068
v 11.7026 9.4999 -7.6524
v 19.4849 9.4999 -9.1048
v 19.8480 10.4895 -7.1593
v 20.2111 9.4999 -5.2137
v 18.7586 0.0000 -12.9959
v 20.2111 0.0000 -5.2137
v 12.4289 0.0000 -3.7613
v 18.7586 0.0000 -12.9959
v 12.4289 0.0000 -3.7613
v 10.9764 0.0000 -11.5435
v 22.4636 0.0000 -0.1383
v 14.0042 0.0000 -0.4967
v 14.0042 10.1603 -0.4967
v 22.4636 0.0000 -0.1383
v 14.0042 10.1603 -0.4967
v 22.4636 10.1603 -0.1383
v 14.0042 0.0000 -0.4967
v 13.6458 0.0000 7.9627
v 13.6458 10.1603 7.9627
v 14.0042 0.0000 -0.4967
v 13.6458 10.1603 7.9627
v 14.0042 10.1603 -0.4967
v 13.6458 0.0000 7.9627
v 22.1052 0.0000 8.3211
v 22.1052 10.1603 8.3211
v 13.6458 0.0000 7.9627
v 22.1052 10.1603 8.3211
v 13.6458 10.1603 7.9627
v 22.1052 0.0000 8.3211
v 22.4636 0.0000 -0.1383
v 22.4636 10.1603 -0.1383
v 22.1052 0.0000 8.3211
v 22.4636 10.1603 -0.1383
v 22.1052 10.1603 8.3211
v 22.4636 10.1603 -0.1383
v 20.3487 11.2187 -0.2279
v 19.9903 11.2187 8.2315
v 22.4636 10.1603 -0.1383
v 19.9903 11.2187 8.2315
v 22.1052 10.1603 8.3211
v 20.3487 11.2187 -0.2279
v 18.2339 10.1603 -0.3175
v 17.8755 10.1603 8.1419
v 20.3487 11.2187 -0.2279
v 17.8755 10.1603 8.1419
v 19.9903 11.2187 8.2315
v 18.2339 10.1603 -0.3175
v 20.3487 11.2187 -0.2279
v 22.4636 10.1603 -0.1383
v 22.1052 10.1603 8.3211
v 19.9903 11.2187 8.2315
v 17.8755 10.1603 8.1419
v 18.2339 10.1603 -0.3175
v 16.1190 11.2187 -0.4071
v 15.7607 11.2187 8.0523
v 18.2339 10.1603 -0.3175
v 15.7607 11.2187 8.0523
v 17.8755 10.1603 8.1419
v 16.1190 11.2187 -0.4071
v 14.0042 10.1603 -0.4967
v 13.6458 10.1603 7.9627
v 16.1190 11.2187 -0.4071
v 13.6458 10.1603 7.9627
v 15.7607 11.2187 8.0523
v 14.0042 10.1603 -0.4967
v 16.1190 11.2187 -0.4071
v 18.2339 10.1603 -0.3175
v 17.8755 10.1603 8.1419
v 15.7607 11.2187 8.0523
v 13.6458 10.1603 7.9627
v 22.1052 0.0000 8.3211
v 13.6458 0.0000 7.9627
v 14.0042 0.0000 -0.4967
v 22.1052 0.0000 8.3211
v 14.0042 0.0000 -0.4967
v 22.4636 0.0000 -0.1383
vt 0.39844 0.52344
vt 0.77344 0.52344
vt 0.77344 0.99219
vt 0.39844 0.52344
vt 0.77344 0.99219
vt 0.39844 0.99219
vt 0.39844 0.52344
vt 0.77344 0.52344
vt 0.77344 0.99219
vt 0.39844 0.52344
vt 0.77344 0.99219
vt 0.39844 0.99219
vt 0.39844 0.52344
vt 0.77344 0.52344
vt 0.77344 0.99219
vt 0.39844 0.52344
vt 0.77344 0.99219
vt 0.39844 0.99219
vt 0.39844 0.52344
vt 0.77344 0.52344
vt 0.77344 0.99219
vt 0.39844 0.52344
vt 0.77344 0.99219
vt 0.39844 0.99219
vt 0.78906 0.17969
vt 0.97656 0.17969
vt 0.97656 0.33594
vt 0.78906 0.17969
vt 0.97656 0.33594
vt 0.78906 0.33594
vt 0.78906 0.17969
vt 0.97656 0.17969
vt 0.97656 0.33594
vt 0.78906 0.17969
vt 0.97656 0.33594
vt 0.78906 0.33594
vt 0.00781 0.09375
vt 0.19531 0.18750
vt 0.38281 0.09375
vt 0.00781 0.09375
vt 0.19531 0.18750
vt 0.38281 0.09375
vt 0.78906 0.17969
vt 0.97656 0.17969
vt 0.97656 0.33594
vt 0.78906 0.17969
vt 0.97656 0.33594
vt 0.78906 0.33594
vt 0.78906 0.17969
vt 0.97656 0.17969
vt 0.97656 0.33594
vt 0.78906 0.17969
vt 0.97656 0.33594
vt 0.78906 0.33594
vt 0.00781 0.09375
vt 0.19531 0.18750
vt 0.38281 0.09375
vt 0.00781 0.09375
vt 0.19531 0.18750
vt 0.38281 0.09375
vt 0.39844 0.03906
vt 0.52344 0.03906
vt 0.52344 0.16406
vt 0.39844 0.03906
vt 0.52344 0.16406
vt 0.39844 0.16406
vt 0.39844 0.52344
vt 0.77344 0.52344
vt 0.77344 0.99219
vt 0.39844 0.52344
vt 0.77344 0.99219
vt 0.39844 0.99219
vt 0.39844 0.52344
vt 0.77344 0.52344
vt 0.77344 0.99219
vt 0.39844 0.52344
vt 0.77344 0.99219
vt 0.39844 0.99219
vt 0.39844 0.52344
vt 0.77344 0.52344
vt 0.77344 0.99219
vt 0.39844 0.52344
vt 0.77344 0.99219
vt 0.39844 0.99219
vt 0.39844 0.52344
vt 0.77344 0.52344
vt 0.77344 0.99219
vt 0.39844 0.52344
vt 0.77344 0.99219
vt 0.39844 0.99219
vt 0.78906 0.17969
vt 0.97656 0.17969
vt 0.97656 0.33594
vt 0.78906 0.17969
vt 0.97656 0.33594
vt 0.78906 0.33594
vt 0.78906 0.17969
vt 0.97656 0.17969
vt 0.97656 0.33594
vt 0.78906 0.17969
vt 0.97656 0.33594
vt 0.78906 0.33594
vt 0.00781 0.09375
vt 0.19531 0.18750
vt 0.38281 0.09375
vt 0.00781 0.09375
vt 0.19531 0.18750
vt 0.38281 0.09375
vt 0.78906 0.17969
vt 0.97656 0.17969
vt 0.97656 0.33594
vt 0.78906 0.17969
vt 0.97656 0.33594
vt 0.78906 0.33594
vt 0.78906 0.17969
vt 0.97656 0.17969
vt 0.97656 0.33594
vt 0.78906 0.17969
vt 0.97656 0.33594
vt 0.78906 0.33594
vt 0.00781 0.09375
vt 0.19531 0.18750
vt 0.38281 0.09375
vt 0.00781 0.09375
vt 0.19531 0.18750
vt 0.38281 0.09375
vt 0.39844 0.03906
vt 0.52344 0.03906
vt 0.52344 0.16406
vt 0.39844 0.03906
vt 0.52344 0.16406
vt 0.39844 0.16406
usemtl district_facade
f 1/1 2/2 3/3
f 4/4 5/5 6/6
f 7/7 8/8 9/9
f 10/10 11/11 12/12
f 13/13 14/14 15/15
f 16/16 17/17 18/18
f 19/19 20/20 21/21
f 22/22 23/23 24/24
f 25/25 26/26 27/27
f 28/28 29/29 30/30
f 31/31 32/32 33/33
f 34/34 35/35 36/36
f 37/37 38/38 39/39
f 40/40 41/41 42/42
f 43/43 44/44 45/45
f 46/46 47/47 48/48
f 49/49 50/50 51/51
f 52/52 53/53 54/54
f 55/55 56/56 57/57
f 58/58 59/59 60/60
f 61/61 62/62 63/63
f 64/64 65/65 66/66
f 67/67 68/68 69/69
f 70/70 71/71 72/72
f 73/73 74/74 75/75
f 76/76 77/77 78/78
f 79/79 80/80 81/81
f 82/82 83/83 84/84
f 85/85 86/86 87/87
f 88/88 89/89 90/90
f 91/91 92/92 93/93
f 94/94 95/95 96/96
f 97/97 98/98 99/99
f 100/100 101/101 102/102
f 103/103 104/104 105/105
f 106/106 107/107 108/108
f 109/109 110/110 111/111
f 112/112 113/113 114/114
f 115/115 116/116 117/117
f 118/118 119/119 120/120
f 121/121 122/122 123/123
f 124/124 125/125 126/126
f 127/127 128/128 129/129
f 130/130 131/131 132/132
