# Generated by TyraX. Do not edit - rebaked from the procedural graph of 'Painted district scatter'.
# 3 instances of res/models/urban/district-tower.obj
mtllib district-buildings.mtl
v 19.2658 0.0000 4.3794
v 13.7235 0.0000 9.1400
v 13.7235 14.6125 9.1400
v 19.2658 0.0000 4.3794
v 13.7235 14.6125 9.1400
v 19.2658 14.6125 4.3794
v 13.7235 0.0000 9.1400
v 18.4842 0.0000 14.6824
v 18.4842 14.6125 14.6824
v 13.7235 0.0000 9.1400
v 18.4842 14.6125 14.6824
v 13.7235 14.6125 9.1400
v 18.4842 0.0000 14.6824
v 24.0265 0.0000 9.9217
v 24.0265 14.6125 9.9217
v 18.4842 0.0000 14.6824
v 24.0265 14.6125 9.9217
v 18.4842 14.6125 14.6824
v 24.0265 0.0000 9.9217
v 19.2658 0.0000 4.3794
v 19.2658 14.6125 4.3794
v 24.0265 0.0000 9.9217
v 19.2658 14.6125 4.3794
v 24.0265 14.6125 9.9217
v 19.2658 14.6125 4.3794
v 17.8803 15.5258 5.5695
v 22.6409 15.5258 11.1119
v 19.2658 14.6125 4.3794
v 22.6409 15.5258 11.1119
v 24.0265 14.6125 9.9217
v 17.8803 15.5258 5.5695
v 16.4947 14.6125 6.7597
v 21.2553 14.6125 12.3020
v 17.8803 15.5258 5.5695
v 21.2553 14.6125 12.3020
v 22.6409 15.5258 11.1119
v 16.4947 14.6125 6.7597
v 17.8803 15.5258 5.5695
v 19.2658 14.6125 4.3794
v 24.0265 14.6125 9.9217
v 22.6409 15.5258 11.1119
v 21.2553 14.6125 12.3020
v 16.4947 14.6125 6.7597
v 15.1091 15.5258 7.9499
v 19.8697 15.5258 13.4922
v 16.4947 14.6125 6.7597
v 19.8697 15.5258 13.4922
v 21.2553 14.6125 12.3020
v 15.1091 15.5258 7.9499
v 13.7235 14.6125 9.1400
v 18.4842 14.6125 14.6824
v 15.1091 15.5258 7.9499
v 18.4842 14.6125 14.6824
v 19.8697 15.5258 13.4922
v 13.7235 14.6125 9.1400
v 15.1091 15.5258 7.9499
v 16.4947 14.6125 6.7597
v 21.2553 14.6125 12.3020
v 19.8697 15.5258 13.4922
v 18.4842 14.6125 14.6824
v 24.0265 0.0000 9.9217
v 18.4842 0.0000 14.6824
v 13.7235 0.0000 9.1400
v 24.0265 0.0000 9.9217
v 13.7235 0.0000 9.1400
v 19.2658 0.0000 4.3794
v 12.8850 0.0000 1.0502
v 21.0445 0.0000 1.5894
v 21.0445 16.3545 1.5894
v 12.8850 0.0000 1.0502
v 21.0445 16.3545 1.5894
v 12.8850 16.3545 1.0502
v 21.0445 0.0000 1.5894
v 21.5837 0.0000 -6.5700
v 21.5837 16.3545 -6.5700
v 21.0445 0.0000 1.5894
v 21.5837 16.3545 -6.5700
v 21.0445 16.3545 1.5894
v 21.5837 0.0000 -6.5700
v 13.4243 0.0000 -7.1093
v 13.4243 16.3545 -7.1093
v 21.5837 0.0000 -6.5700
v 13.4243 16.3545 -7.1093
v 21.5837 16.3545 -6.5700
v 13.4243 0.0000 -7.1093
v 12.8850 0.0000 1.0502
v 12.8850 16.3545 1.0502
v 13.4243 0.0000 -7.1093
v 12.8850 16.3545 1.0502
v 13.4243 16.3545 -7.1093
v 12.8850 16.3545 1.0502
v 14.9249 17.3767 1.1850
v 15.4641 17.3767 -6.9745
v 12.8850 16.3545 1.0502
v 15.4641 17.3767 -6.9745
v 13.4243 16.3545 -7.1093
v 14.9249 17.3767 1.1850
v 16.9647 16.3545 1.3198
v 17.5040 16.3545 -6.8397
v 14.9249 17.3767 1.1850
v 17.5040 16.3545 -6.8397
v 15.4641 17.3767 -6.9745
v 16.9647 16.3545 1.3198
v 14.9249 17.3767 1.1850
v 12.8850 16.3545 1.0502
v 13.4243 16.3545 -7.1093
v 15.4641 17.3767 -6.9745
v 17.5040 16.3545 -6.8397
v 16.9647 16.3545 1.3198
v 19.0046 17.3767 1.4546
v 19.5439 17.3767 -6.7049
v 16.9647 16.3545 1.3198
v 19.5439 17.3767 -6.7049
v 17.5040 16.3545 -6.8397
v 19.0046 17.3767 1.4546
v 21.0445 16.3545 1.5894
v 21.5837 16.3545 -6.5700
v 19.0046 17.3767 1.4546
v 21.5837 16.3545 -6.5700
v 19.5439 17.3767 -6.7049
v 21.0445 16.3545 1.5894
v 19.0046 17.3767 1.4546
v 16.9647 16.3545 1.3198
v 17.5040 16.3545 -6.8397
v 19.5439 17.3767 -6.7049
v 21.5837 16.3545 -6.5700
v 13.4243 0.0000 -7.1093
v 21.5837 0.0000 -6.5700
v 21.0445 0.0000 1.5894
v 13.4243 0.0000 -7.1093
v 21.0445 0.0000 1.5894
v 12.8850 0.0000 1.0502
v -20.5198 0.0000 14.7990
v -27.0129 0.0000 17.2301
v -27.0129 13.8666 17.2301
v -20.5198 0.0000 14.7990
v -27.0129 13.8666 17.2301
v -20.5198 13.8666 14.7990
v -27.0129 0.0000 17.2301
v -24.5818 0.0000 23.7232
v -24.5818 13.8666 23.7232
v -27.0129 0.0000 17.2301
v -24.5818 13.8666 23.7232
v -27.0129 13.8666 17.2301
v -24.5818 0.0000 23.7232
v -18.0887 0.0000 21.2921
v -18.0887 13.8666 21.2921
v -24.5818 0.0000 23.7232
v -18.0887 13.8666 21.2921
v -24.5818 13.8666 23.7232
v -18.0887 0.0000 21.2921
v -20.5198 0.0000 14.7990
v -20.5198 13.8666 14.7990
v -18.0887 0.0000 21.2921
v -20.5198 13.8666 14.7990
v -18.0887 13.8666 21.2921
v -20.5198 13.8666 14.7990
v -22.1430 14.7333 15.4068
v -19.7120 14.7333 21.8999
v -20.5198 13.8666 14.7990
v -19.7120 14.7333 21.8999
v -18.0887 13.8666 21.2921
v -22.1430 14.7333 15.4068
v -23.7663 13.8666 16.0145
v -21.3352 13.8666 22.5077
v -22.1430 14.7333 15.4068
v -21.3352 13.8666 22.5077
v -19.7120 14.7333 21.8999
v -23.7663 13.8666 16.0145
v -22.1430 14.7333 15.4068
v -20.5198 13.8666 14.7990
v -18.0887 13.8666 21.2921
v -19.7120 14.7333 21.8999
v -21.3352 13.8666 22.5077
v -23.7663 13.8666 16.0145
v -25.3896 14.7333 16.6223
v -22.9585 14.7333 23.1154
v -23.7663 13.8666 16.0145
v -22.9585 14.7333 23.1154
v -21.3352 13.8666 22.5077
v -25.3896 14.7333 16.6223
v -27.0129 13.8666 17.2301
v -24.5818 13.8666 23.7232
v -25.3896 14.7333 16.6223
v -24.5818 13.8666 23.7232
v -22.9585 14.7333 23.1154
v -27.0129 13.8666 17.2301
v -25.3896 14.7333 16.6223
v -23.7663 13.8666 16.0145
v -21.3352 13.8666 22.5077
v -22.9585 14.7333 23.1154
v -24.5818 13.8666 23.7232
v -18.0887 0.0000 21.2921
v -24.5818 0.0000 23.7232
v -27.0129 0.0000 17.2301
v -18.0887 0.0000 21.2921
v -27.0129 0.0000 17.2301
v -20.5198 0.0000 14.7990
vt 0.00781 0.21094
vt 0.38281 0.21094
vt 0.38281 0.99219
vt 0.00781 0.21094
vt 0.38281 0.99219
vt 0.00781 0.99219
vt 0.00781 0.21094
vt 0.38281 0.21094
vt 0.38281 0.99219
vt 0.00781 0.21094
vt 0.38281 0.99219
vt 0.00781 0.99219
vt 0.00781 0.21094
vt 0.38281 0.21094
vt 0.38281 0.99219
vt 0.00781 0.21094
vt 0.38281 0.99219
vt 0.00781 0.99219
vt 0.00781 0.21094
vt 0.38281 0.21094
vt 0.38281 0.99219
vt 0.00781 0.21094
vt 0.38281 0.99219
vt 0.00781 0.99219
vt 0.78906 0.17969
vt 0.97656 0.17969
vt 0.97656 0.33594
vt 0.78906 0.17969
vt 0.97656 0.33594
vt 0.78906 0.33594
vt 0.78906 0.17969
vt 0.97656 0.17969
vt 0.97656 0.33594
vt 0.78906 0.17969
vt 0.97656 0.33594
vt 0.78906 0.33594
vt 0.00781 0.09375
vt 0.19531 0.18750
vt 0.38281 0.09375
vt 0.00781 0.09375
vt 0.19531 0.18750
vt 0.38281 0.09375
vt 0.78906 0.17969
vt 0.97656 0.17969
vt 0.97656 0.33594
vt 0.78906 0.17969
vt 0.97656 0.33594
vt 0.78906 0.33594
vt 0.78906 0.17969
vt 0.97656 0.17969
vt 0.97656 0.33594
vt 0.78906 0.17969
vt 0.97656 0.33594
vt 0.78906 0.33594
vt 0.00781 0.09375
vt 0.19531 0.18750
vt 0.38281 0.09375
vt 0.00781 0.09375
vt 0.19531 0.18750
vt 0.38281 0.09375
vt 0.39844 0.03906
vt 0.52344 0.03906
vt 0.52344 0.16406
vt 0.39844 0.03906
vt 0.52344 0.16406
vt 0.39844 0.16406
vt 0.00781 0.21094
vt 0.38281 0.21094
vt 0.38281 0.99219
vt 0.00781 0.21094
vt 0.38281 0.99219
vt 0.00781 0.99219
vt 0.00781 0.21094
vt 0.38281 0.21094
vt 0.38281 0.99219
vt 0.00781 0.21094
vt 0.38281 0.99219
vt 0.00781 0.99219
vt 0.00781 0.21094
vt 0.38281 0.21094
vt 0.38281 0.99219
vt 0.00781 0.21094
vt 0.38281 0.99219
vt 0.00781 0.99219
vt 0.00781 0.21094
vt 0.38281 0.21094
vt 0.38281 0.99219
vt 0.00781 0.21094
vt 0.38281 0.99219
vt 0.00781 0.99219
vt 0.78906 0.17969
vt 0.97656 0.17969
vt 0.97656 0.33594
vt 0.78906 0.17969
vt 0.97656 0.33594
vt 0.78906 0.33594
vt 0.78906 0.17969
vt 0.97656 0.17969
vt 0.97656 0.33594
vt 0.78906 0.17969
vt 0.97656 0.33594
vt 0.78906 0.33594
vt 0.00781 0.09375
vt 0.19531 0.18750
vt 0.38281 0.09375
vt 0.00781 0.09375
vt 0.19531 0.18750
vt 0.38281 0.09375
vt 0.78906 0.17969
vt 0.97656 0.17969
vt 0.97656 0.33594
vt 0.78906 0.17969
vt 0.97656 0.33594
vt 0.78906 0.33594
vt 0.78906 0.17969
vt 0.97656 0.17969
vt 0.97656 0.33594
vt 0.78906 0.17969
vt 0.97656 0.33594
vt 0.78906 0.33594
vt 0.00781 0.09375
vt 0.19531 0.18750
vt 0.38281 0.09375
vt 0.00781 0.09375
vt 0.19531 0.18750
vt 0.38281 0.09375
vt 0.39844 0.03906
vt 0.52344 0.03906
vt 0.52344 0.16406
vt 0.39844 0.03906
vt 0.52344 0.16406
vt 0.39844 0.16406
vt 0.00781 0.21094
vt 0.38281 0.21094
vt 0.38281 0.99219
vt 0.00781 0.21094
vt 0.38281 0.99219
vt 0.00781 0.99219
vt 0.00781 0.21094
vt 0.38281 0.21094
vt 0.38281 0.99219
vt 0.00781 0.21094
vt 0.38281 0.99219
vt 0.00781 0.99219
vt 0.00781 0.21094
vt 0.38281 0.21094
vt 0.38281 0.99219
vt 0.00781 0.21094
vt 0.38281 0.99219
vt 0.00781 0.99219
vt 0.00781 0.21094
vt 0.38281 0.21094
vt 0.38281 0.99219
vt 0.00781 0.21094
vt 0.38281 0.99219
vt 0.00781 0.99219
vt 0.78906 0.17969
vt 0.97656 0.17969
vt 0.97656 0.33594
vt 0.78906 0.17969
vt 0.97656 0.33594
vt 0.78906 0.33594
vt 0.78906 0.17969
vt 0.97656 0.17969
vt 0.97656 0.33594
vt 0.78906 0.17969
vt 0.97656 0.33594
vt 0.78906 0.33594
vt 0.00781 0.09375
vt 0.19531 0.18750
vt 0.38281 0.09375
vt 0.00781 0.09375
vt 0.19531 0.18750
vt 0.38281 0.09375
vt 0.78906 0.17969
vt 0.97656 0.17969
vt 0.97656 0.33594
vt 0.78906 0.17969
vt 0.97656 0.33594
vt 0.78906 0.33594
vt 0.78906 0.17969
vt 0.97656 0.17969
vt 0.97656 0.33594
vt 0.78906 0.17969
vt 0.97656 0.33594
vt 0.78906 0.33594
vt 0.00781 0.09375
vt 0.19531 0.18750
vt 0.38281 0.09375
vt 0.00781 0.09375
vt 0.19531 0.18750
vt 0.38281 0.09375
vt 0.39844 0.03906
vt 0.52344 0.03906
vt 0.52344 0.16406
vt 0.39844 0.03906
vt 0.52344 0.16406
vt 0.39844 0.16406
usemtl district_facade
f 1/1 2/2 3/3
f 4/4 5/5 6/6
f 7/7 8/8 9/9
f 10/10 11/11 12/12
f 13/13 14/14 15/15
f 16/16 17/17 18/18
f 19/19 20/20 21/21
f 22/22 23/23 24/24
f 25/25 26/26 27/27
f 28/28 29/29 30/30
f 31/31 32/32 33/33
f 34/34 35/35 36/36
f 37/37 38/38 39/39
f 40/40 41/41 42/42
f 43/43 44/44 45/45
f 46/46 47/47 48/48
f 49/49 50/50 51/51
f 52/52 53/53 54/54
f 55/55 56/56 57/57
f 58/58 59/59 60/60
f 61/61 62/62 63/63
f 64/64 65/65 66/66
f 67/67 68/68 69/69
f 70/70 71/71 72/72
f 73/73 74/74 75/75
f 76/76 77/77 78/78
f 79/79 80/80 81/81
f 82/82 83/83 84/84
f 85/85 86/86 87/87
f 88/88 89/89 90/90
f 91/91 92/92 93/93
f 94/94 95/95 96/96
f 97/97 98/98 99/99
f 100/100 101/101 102/102
f 103/103 104/104 105/105
f 106/106 107/107 108/108
f 109/109 110/110 111/111
f 112/112 113/113 114/114
f 115/115 116/116 117/117
f 118/118 119/119 120/120
f 121/121 122/122 123/123
f 124/124 125/125 126/126
f 127/127 128/128 129/129
f 130/130 131/131 132/132
f 133/133 134/134 135/135
f 136/136 137/137 138/138
f 139/139 140/140 141/141
f 142/142 143/143 144/144
f 145/145 146/146 147/147
f 148/148 149/149 150/150
f 151/151 152/152 153/153
f 154/154 155/155 156/156
f 157/157 158/158 159/159
f 160/160 161/161 162/162
f 163/163 164/164 165/165
f 166/166 167/167 168/168
f 169/169 170/170 171/171
f 172/172 173/173 174/174
f 175/175 176/176 177/177
f 178/178 179/179 180/180
f 181/181 182/182 183/183
f 184/184 185/185 186/186
f 187/187 188/188 189/189
f 190/190 191/191 192/192
f 193/193 194/194 195/195
f 196/196 197/197 198/198
