# Generated by TyraX. Do not edit - rebaked from the procedural graph of 'Painted district scatter'.
# 2 instances of res/models/urban/district-tower.obj
mtllib district-buildings.mtl
v 21.3739 0.0000 19.6589
v 14.2311 0.0000 15.7882
v 14.2311 16.2482 15.7882
v 21.3739 0.0000 19.6589
v 14.2311 16.2482 15.7882
v 21.3739 16.2482 19.6589
v 14.2311 0.0000 15.7882
v 10.3605 0.0000 22.9310
v 10.3605 16.2482 22.9310
v 14.2311 0.0000 15.7882
v 10.3605 16.2482 22.9310
v 14.2311 16.2482 15.7882
v 10.3605 0.0000 22.9310
v 17.5032 0.0000 26.8016
v 17.5032 16.2482 26.8016
v 10.3605 0.0000 22.9310
v 17.5032 16.2482 26.8016
v 10.3605 16.2482 22.9310
v 17.5032 0.0000 26.8016
v 21.3739 0.0000 19.6589
v 21.3739 16.2482 19.6589
v 17.5032 0.0000 26.8016
v 21.3739 16.2482 19.6589
v 17.5032 16.2482 26.8016
v 21.3739 16.2482 19.6589
v 19.5882 17.2637 18.6912
v 15.7176 17.2637 25.8340
v 21.3739 16.2482 19.6589
v 15.7176 17.2637 25.8340
v 17.5032 16.2482 26.8016
v 19.5882 17.2637 18.6912
v 17.8025 16.2482 17.7235
v 13.9319 16.2482 24.8663
v 19.5882 17.2637 18.6912
v 13.9319 16.2482 24.8663
v 15.7176 17.2637 25.8340
v 17.8025 16.2482 17.7235
v 19.5882 17.2637 18.6912
v 21.3739 16.2482 19.6589
v 17.5032 16.2482 26.8016
v 15.7176 17.2637 25.8340
v 13.9319 16.2482 24.8663
v 17.8025 16.2482 17.7235
v 16.0168 17.2637 16.7559
v 12.1462 17.2637 23.8986
v 17.8025 16.2482 17.7235
v 12.1462 17.2637 23.8986
v 13.9319 16.2482 24.8663
v 16.0168 17.2637 16.7559
v 14.2311 16.2482 15.7882
v 10.3605 16.2482 22.9310
v 16.0168 17.2637 16.7559
v 10.3605 16.2482 22.9310
v 12.1462 17.2637 23.8986
v 14.2311 16.2482 15.7882
v 16.0168 17.2637 16.7559
v 17.8025 16.2482 17.7235
v 13.9319 16.2482 24.8663
v 12.1462 17.2637 23.8986
v 10.3605 16.2482 22.9310
v 17.5032 0.0000 26.8016
v 10.3605 0.0000 22.9310
v 14.2311 0.0000 15.7882
v 17.5032 0.0000 26.8016
v 14.2311 0.0000 15.7882
v 21.3739 0.0000 19.6589
v 9.5653 0.0000 5.7475
v 15.4770 0.0000 9.9786
v 15.4770 14.5396 9.9786
v 9.5653 0.0000 5.7475
v 15.4770 14.5396 9.9786
v 9.5653 14.5396 5.7475
v 15.4770 0.0000 9.9786
v 19.7081 0.0000 4.0669
v 19.7081 14.5396 4.0669
v 15.4770 0.0000 9.9786
v 19.7081 14.5396 4.0669
v 15.4770 14.5396 9.9786
v 19.7081 0.0000 4.0669
v 13.7964 0.0000 -0.1642
v 13.7964 14.5396 -0.1642
v 19.7081 0.0000 4.0669
v 13.7964 14.5396 -0.1642
v 19.7081 14.5396 4.0669
v 13.7964 0.0000 -0.1642
v 9.5653 0.0000 5.7475
v 9.5653 14.5396 5.7475
v 13.7964 0.0000 -0.1642
v 9.5653 14.5396 5.7475
v 13.7964 14.5396 -0.1642
v 9.5653 14.5396 5.7475
v 11.0432 15.4484 6.8053
v 15.2743 15.4484 0.8936
v 9.5653 14.5396 5.7475
v 15.2743 15.4484 0.8936
v 13.7964 14.5396 -0.1642
v 11.0432 15.4484 6.8053
v 12.5212 14.5396 7.8630
v 16.7523 14.5396 1.9513
v 11.0432 15.4484 6.8053
v 16.7523 14.5396 1.9513
v 15.2743 15.4484 0.8936
v 12.5212 14.5396 7.8630
v 11.0432 15.4484 6.8053
v 9.5653 14.5396 5.7475
v 13.7964 14.5396 -0.1642
v 15.2743 15.4484 0.8936
v 16.7523 14.5396 1.9513
v 12.5212 14.5396 7.8630
v 13.9991 15.4484 8.9208
v 18.2302 15.4484 3.0091
v 12.5212 14.5396 7.8630
v 18.2302 15.4484 3.0091
v 16.7523 14.5396 1.9513
v 13.9991 15.4484 8.9208
v 15.4770 14.5396 9.9786
v 19.7081 14.5396 4.0669
v 13.9991 15.4484 8.9208
v 19.7081 14.5396 4.0669
v 18.2302 15.4484 3.0091
v 15.4770 14.5396 9.9786
v 13.9991 15.4484 8.9208
v 12.5212 14.5396 7.8630
v 16.7523 14.5396 1.9513
v 18.2302 15.4484 3.0091
v 19.7081 14.5396 4.0669
v 13.7964 0.0000 -0.1642
v 19.7081 0.0000 4.0669
v 15.4770 0.0000 9.9786
v 13.7964 0.0000 -0.1642
v 15.4770 0.0000 9.9786
v 9.5653 0.0000 5.7475
vt 0.00781 0.21094
vt 0.38281 0.21094
vt 0.38281 0.99219
vt 0.00781 0.21094
vt 0.38281 0.99219
vt 0.00781 0.99219
vt 0.00781 0.21094
vt 0.38281 0.21094
vt 0.38281 0.99219
vt 0.00781 0.21094
vt 0.38281 0.99219
vt 0.00781 0.99219
vt 0.00781 0.21094
vt 0.38281 0.21094
vt 0.38281 0.99219
vt 0.00781 0.21094
vt 0.38281 0.99219
vt 0.00781 0.99219
vt 0.00781 0.21094
vt 0.38281 0.21094
vt 0.38281 0.99219
vt 0.00781 0.21094
vt 0.38281 0.99219
vt 0.00781 0.99219
vt 0.78906 0.17969
vt 0.97656 0.17969
vt 0.97656 0.33594
vt 0.78906 0.17969
vt 0.97656 0.33594
vt 0.78906 0.33594
vt 0.78906 0.17969
vt 0.97656 0.17969
vt 0.97656 0.33594
vt 0.78906 0.17969
vt 0.97656 0.33594
vt 0.78906 0.33594
vt 0.00781 0.09375
vt 0.19531 0.18750
vt 0.38281 0.09375
vt 0.00781 0.09375
vt 0.19531 0.18750
vt 0.38281 0.09375
vt 0.78906 0.17969
vt 0.97656 0.17969
vt 0.97656 0.33594
vt 0.78906 0.17969
vt 0.97656 0.33594
vt 0.78906 0.33594
vt 0.78906 0.17969
vt 0.97656 0.17969
vt 0.97656 0.33594
vt 0.78906 0.17969
vt 0.97656 0.33594
vt 0.78906 0.33594
vt 0.00781 0.09375
vt 0.19531 0.18750
vt 0.38281 0.09375
vt 0.00781 0.09375
vt 0.19531 0.18750
vt 0.38281 0.09375
vt 0.39844 0.03906
vt 0.52344 0.03906
vt 0.52344 0.16406
vt 0.39844 0.03906
vt 0.52344 0.16406
vt 0.39844 0.16406
vt 0.00781 0.21094
vt 0.38281 0.21094
vt 0.38281 0.99219
vt 0.00781 0.21094
vt 0.38281 0.99219
vt 0.00781 0.99219
vt 0.00781 0.21094
vt 0.38281 0.21094
vt 0.38281 0.99219
vt 0.00781 0.21094
vt 0.38281 0.99219
vt 0.00781 0.99219
vt 0.00781 0.21094
vt 0.38281 0.21094
vt 0.38281 0.99219
vt 0.00781 0.21094
vt 0.38281 0.99219
vt 0.00781 0.99219
vt 0.00781 0.21094
vt 0.38281 0.21094
vt 0.38281 0.99219
vt 0.00781 0.21094
vt 0.38281 0.99219
vt 0.00781 0.99219
vt 0.78906 0.17969
vt 0.97656 0.17969
vt 0.97656 0.33594
vt 0.78906 0.17969
vt 0.97656 0.33594
vt 0.78906 0.33594
vt 0.78906 0.17969
vt 0.97656 0.17969
vt 0.97656 0.33594
vt 0.78906 0.17969
vt 0.97656 0.33594
vt 0.78906 0.33594
vt 0.00781 0.09375
vt 0.19531 0.18750
vt 0.38281 0.09375
vt 0.00781 0.09375
vt 0.19531 0.18750
vt 0.38281 0.09375
vt 0.78906 0.17969
vt 0.97656 0.17969
vt 0.97656 0.33594
vt 0.78906 0.17969
vt 0.97656 0.33594
vt 0.78906 0.33594
vt 0.78906 0.17969
vt 0.97656 0.17969
vt 0.97656 0.33594
vt 0.78906 0.17969
vt 0.97656 0.33594
vt 0.78906 0.33594
vt 0.00781 0.09375
vt 0.19531 0.18750
vt 0.38281 0.09375
vt 0.00781 0.09375
vt 0.19531 0.18750
vt 0.38281 0.09375
vt 0.39844 0.03906
vt 0.52344 0.03906
vt 0.52344 0.16406
vt 0.39844 0.03906
vt 0.52344 0.16406
vt 0.39844 0.16406
usemtl district_facade
f 1/1 2/2 3/3
f 4/4 5/5 6/6
f 7/7 8/8 9/9
f 10/10 11/11 12/12
f 13/13 14/14 15/15
f 16/16 17/17 18/18
f 19/19 20/20 21/21
f 22/22 23/23 24/24
f 25/25 26/26 27/27
f 28/28 29/29 30/30
f 31/31 32/32 33/33
f 34/34 35/35 36/36
f 37/37 38/38 39/39
f 40/40 41/41 42/42
f 43/43 44/44 45/45
f 46/46 47/47 48/48
f 49/49 50/50 51/51
f 52/52 53/53 54/54
f 55/55 56/56 57/57
f 58/58 59/59 60/60
f 61/61 62/62 63/63
f 64/64 65/65 66/66
f 67/67 68/68 69/69
f 70/70 71/71 72/72
f 73/73 74/74 75/75
f 76/76 77/77 78/78
f 79/79 80/80 81/81
f 82/82 83/83 84/84
f 85/85 86/86 87/87
f 88/88 89/89 90/90
f 91/91 92/92 93/93
f 94/94 95/95 96/96
f 97/97 98/98 99/99
f 100/100 101/101 102/102
f 103/103 104/104 105/105
f 106/106 107/107 108/108
f 109/109 110/110 111/111
f 112/112 113/113 114/114
f 115/115 116/116 117/117
f 118/118 119/119 120/120
f 121/121 122/122 123/123
f 124/124 125/125 126/126
f 127/127 128/128 129/129
f 130/130 131/131 132/132
