# Generated by TyraX. Do not edit - rebaked from the procedural graph of 'Painted district scatter'.
# 2 instances of res/models/urban/district-loft.obj
mtllib district-buildings.mtl
v -8.1390 0.0000 10.1191
v -10.9588 0.0000 16.5919
v -10.9588 8.4725 16.5919
v -8.1390 0.0000 10.1191
v -10.9588 8.4725 16.5919
v -8.1390 8.4725 10.1191
v -10.9588 0.0000 16.5919
v -4.4860 0.0000 19.4118
v -4.4860 8.4725 19.4118
v -10.9588 0.0000 16.5919
v -4.4860 8.4725 19.4118
v -10.9588 8.4725 16.5919
v -4.4860 0.0000 19.4118
v -1.6662 0.0000 12.9389
v -1.6662 8.4725 12.9389
v -4.4860 0.0000 19.4118
v -1.6662 8.4725 12.9389
v -4.4860 8.4725 19.4118
v -1.6662 0.0000 12.9389
v -8.1390 0.0000 10.1191
v -8.1390 8.4725 10.1191
v -1.6662 0.0000 12.9389
v -8.1390 8.4725 10.1191
v -1.6662 8.4725 12.9389
v -8.1390 8.4725 10.1191
v -8.8440 9.3550 11.7373
v -2.3711 9.3550 14.5571
v -8.1390 8.4725 10.1191
v -2.3711 9.3550 14.5571
v -1.6662 8.4725 12.9389
v -8.8440 9.3550 11.7373
v -9.5489 8.4725 13.3555
v -3.0761 8.4725 16.1753
v -8.8440 9.3550 11.7373
v -3.0761 8.4725 16.1753
v -2.3711 9.3550 14.5571
v -9.5489 8.4725 13.3555
v -8.8440 9.3550 11.7373
v -8.1390 8.4725 10.1191
v -1.6662 8.4725 12.9389
v -2.3711 9.3550 14.5571
v -3.0761 8.4725 16.1753
v -9.5489 8.4725 13.3555
v -10.2539 9.3550 14.9737
v -3.7810 9.3550 17.7935
v -9.5489 8.4725 13.3555
v -3.7810 9.3550 17.7935
v -3.0761 8.4725 16.1753
v -10.2539 9.3550 14.9737
v -10.9588 8.4725 16.5919
v -4.4860 8.4725 19.4118
v -10.2539 9.3550 14.9737
v -4.4860 8.4725 19.4118
v -3.7810 9.3550 17.7935
v -10.9588 8.4725 16.5919
v -10.2539 9.3550 14.9737
v -9.5489 8.4725 13.3555
v -3.0761 8.4725 16.1753
v -3.7810 9.3550 17.7935
v -4.4860 8.4725 19.4118
v -1.6662 0.0000 12.9389
v -4.4860 0.0000 19.4118
v -10.9588 0.0000 16.5919
v -1.6662 0.0000 12.9389
v -10.9588 0.0000 16.5919
v -8.1390 0.0000 10.1191
v -24.8359 0.0000 7.5063
v -25.2645 0.0000 15.4506
v -25.2645 9.5469 15.4506
v -24.8359 0.0000 7.5063
v -25.2645 9.5469 15.4506
v -24.8359 9.5469 7.5063
v -25.2645 0.0000 15.4506
v -17.3203 0.0000 15.8792
v -17.3203 9.5469 15.8792
v -25.2645 0.0000 15.4506
v -17.3203 9.5469 15.8792
v -25.2645 9.5469 15.4506
v -17.3203 0.0000 15.8792
v -16.8917 0.0000 7.9349
v -16.8917 9.5469 7.9349
v -17.3203 0.0000 15.8792
v -16.8917 9.5469 7.9349
v -17.3203 9.5469 15.8792
v -16.8917 0.0000 7.9349
v -24.8359 0.0000 7.5063
v -24.8359 9.5469 7.5063
v -16.8917 0.0000 7.9349
v -24.8359 9.5469 7.5063
v -16.8917 9.5469 7.9349
v -24.8359 9.5469 7.5063
v -24.9431 10.5414 9.4924
v -16.9989 10.5414 9.9210
v -24.8359 9.5469 7.5063
v -16.9989 10.5414 9.9210
v -16.8917 9.5469 7.9349
v -24.9431 10.5414 9.4924
v -25.0502 9.5469 11.4784
v -17.1060 9.5469 11.9070
v -24.9431 10.5414 9.4924
v -17.1060 9.5469 11.9070
v -16.9989 10.5414 9.9210
v -25.0502 9.5469 11.4784
v -24.9431 10.5414 9.4924
v -24.8359 9.5469 7.5063
v -16.8917 9.5469 7.9349
v -16.9989 10.5414 9.9210
v -17.1060 9.5469 11.9070
v -25.0502 9.5469 11.4784
v -25.1574 10.5414 13.4645
v -17.2132 10.5414 13.8931
v -25.0502 9.5469 11.4784
v -17.2132 10.5414 13.8931
v -17.1060 9.5469 11.9070
v -25.1574 10.5414 13.4645
v -25.2645 9.5469 15.4506
v -17.3203 9.5469 15.8792
v -25.1574 10.5414 13.4645
v -17.3203 9.5469 15.8792
v -17.2132 10.5414 13.8931
v -25.2645 9.5469 15.4506
v -25.1574 10.5414 13.4645
v -25.0502 9.5469 11.4784
v -17.1060 9.5469 11.9070
v -17.2132 10.5414 13.8931
v -17.3203 9.5469 15.8792
v -16.8917 0.0000 7.9349
v -17.3203 0.0000 15.8792
v -25.2645 0.0000 15.4506
v -16.8917 0.0000 7.9349
v -25.2645 0.0000 15.4506
v -24.8359 0.0000 7.5063
vt 0.39844 0.52344
vt 0.77344 0.52344
vt 0.77344 0.99219
vt 0.39844 0.52344
vt 0.77344 0.99219
vt 0.39844 0.99219
vt 0.39844 0.52344
vt 0.77344 0.52344
vt 0.77344 0.99219
vt 0.39844 0.52344
vt 0.77344 0.99219
vt 0.39844 0.99219
vt 0.39844 0.52344
vt 0.77344 0.52344
vt 0.77344 0.99219
vt 0.39844 0.52344
vt 0.77344 0.99219
vt 0.39844 0.99219
vt 0.39844 0.52344
vt 0.77344 0.52344
vt 0.77344 0.99219
vt 0.39844 0.52344
vt 0.77344 0.99219
vt 0.39844 0.99219
vt 0.78906 0.17969
vt 0.97656 0.17969
vt 0.97656 0.33594
vt 0.78906 0.17969
vt 0.97656 0.33594
vt 0.78906 0.33594
vt 0.78906 0.17969
vt 0.97656 0.17969
vt 0.97656 0.33594
vt 0.78906 0.17969
vt 0.97656 0.33594
vt 0.78906 0.33594
vt 0.00781 0.09375
vt 0.19531 0.18750
vt 0.38281 0.09375
vt 0.00781 0.09375
vt 0.19531 0.18750
vt 0.38281 0.09375
vt 0.78906 0.17969
vt 0.97656 0.17969
vt 0.97656 0.33594
vt 0.78906 0.17969
vt 0.97656 0.33594
vt 0.78906 0.33594
vt 0.78906 0.17969
vt 0.97656 0.17969
vt 0.97656 0.33594
vt 0.78906 0.17969
vt 0.97656 0.33594
vt 0.78906 0.33594
vt 0.00781 0.09375
vt 0.19531 0.18750
vt 0.38281 0.09375
vt 0.00781 0.09375
vt 0.19531 0.18750
vt 0.38281 0.09375
vt 0.39844 0.03906
vt 0.52344 0.03906
vt 0.52344 0.16406
vt 0.39844 0.03906
vt 0.52344 0.16406
vt 0.39844 0.16406
vt 0.39844 0.52344
vt 0.77344 0.52344
vt 0.77344 0.99219
vt 0.39844 0.52344
vt 0.77344 0.99219
vt 0.39844 0.99219
vt 0.39844 0.52344
vt 0.77344 0.52344
vt 0.77344 0.99219
vt 0.39844 0.52344
vt 0.77344 0.99219
vt 0.39844 0.99219
vt 0.39844 0.52344
vt 0.77344 0.52344
vt 0.77344 0.99219
vt 0.39844 0.52344
vt 0.77344 0.99219
vt 0.39844 0.99219
vt 0.39844 0.52344
vt 0.77344 0.52344
vt 0.77344 0.99219
vt 0.39844 0.52344
vt 0.77344 0.99219
vt 0.39844 0.99219
vt 0.78906 0.17969
vt 0.97656 0.17969
vt 0.97656 0.33594
vt 0.78906 0.17969
vt 0.97656 0.33594
vt 0.78906 0.33594
vt 0.78906 0.17969
vt 0.97656 0.17969
vt 0.97656 0.33594
vt 0.78906 0.17969
vt 0.97656 0.33594
vt 0.78906 0.33594
vt 0.00781 0.09375
vt 0.19531 0.18750
vt 0.38281 0.09375
vt 0.00781 0.09375
vt 0.19531 0.18750
vt 0.38281 0.09375
vt 0.78906 0.17969
vt 0.97656 0.17969
vt 0.97656 0.33594
vt 0.78906 0.17969
vt 0.97656 0.33594
vt 0.78906 0.33594
vt 0.78906 0.17969
vt 0.97656 0.17969
vt 0.97656 0.33594
vt 0.78906 0.17969
vt 0.97656 0.33594
vt 0.78906 0.33594
vt 0.00781 0.09375
vt 0.19531 0.18750
vt 0.38281 0.09375
vt 0.00781 0.09375
vt 0.19531 0.18750
vt 0.38281 0.09375
vt 0.39844 0.03906
vt 0.52344 0.03906
vt 0.52344 0.16406
vt 0.39844 0.03906
vt 0.52344 0.16406
vt 0.39844 0.16406
usemtl district_facade
f 1/1 2/2 3/3
f 4/4 5/5 6/6
f 7/7 8/8 9/9
f 10/10 11/11 12/12
f 13/13 14/14 15/15
f 16/16 17/17 18/18
f 19/19 20/20 21/21
f 22/22 23/23 24/24
f 25/25 26/26 27/27
f 28/28 29/29 30/30
f 31/31 32/32 33/33
f 34/34 35/35 36/36
f 37/37 38/38 39/39
f 40/40 41/41 42/42
f 43/43 44/44 45/45
f 46/46 47/47 48/48
f 49/49 50/50 51/51
f 52/52 53/53 54/54
f 55/55 56/56 57/57
f 58/58 59/59 60/60
f 61/61 62/62 63/63
f 64/64 65/65 66/66
f 67/67 68/68 69/69
f 70/70 71/71 72/72
f 73/73 74/74 75/75
f 76/76 77/77 78/78
f 79/79 80/80 81/81
f 82/82 83/83 84/84
f 85/85 86/86 87/87
f 88/88 89/89 90/90
f 91/91 92/92 93/93
f 94/94 95/95 96/96
f 97/97 98/98 99/99
f 100/100 101/101 102/102
f 103/103 104/104 105/105
f 106/106 107/107 108/108
f 109/109 110/110 111/111
f 112/112 113/113 114/114
f 115/115 116/116 117/117
f 118/118 119/119 120/120
f 121/121 122/122 123/123
f 124/124 125/125 126/126
f 127/127 128/128 129/129
f 130/130 131/131 132/132
