# Generated by TyraX. Do not edit - rebaked from the procedural graph of 'Painted district scatter'.
# 1 instances of res/models/urban/district-loft.obj
mtllib district-buildings.mtl
v -35.8566 0.0000 -7.5255
v -28.3696 0.0000 -4.0492
v -28.3696 9.9056 -4.0492
v -35.8566 0.0000 -7.5255
v -28.3696 9.9056 -4.0492
v -35.8566 9.9056 -7.5255
v -28.3696 0.0000 -4.0492
v -24.8934 0.0000 -11.5362
v -24.8934 9.9056 -11.5362
v -28.3696 0.0000 -4.0492
v -24.8934 9.9056 -11.5362
v -28.3696 9.9056 -4.0492
v -24.8934 0.0000 -11.5362
v -32.3804 0.0000 -15.0125
v -32.3804 9.9056 -15.0125
v -24.8934 0.0000 -11.5362
v -32.3804 9.9056 -15.0125
v -24.8934 9.9056 -11.5362
v -32.3804 0.0000 -15.0125
v -35.8566 0.0000 -7.5255
v -35.8566 9.9056 -7.5255
v -32.3804 0.0000 -15.0125
v -35.8566 9.9056 -7.5255
v -32.3804 9.9056 -15.0125
v -35.8566 9.9056 -7.5255
v -33.9849 10.9374 -6.6564
v -30.5086 10.9374 -14.1434
v -35.8566 9.9056 -7.5255
v -30.5086 10.9374 -14.1434
v -32.3804 9.9056 -15.0125
v -33.9849 10.9374 -6.6564
v -32.1131 9.9056 -5.7874
v -28.6369 9.9056 -13.2744
v -33.9849 10.9374 -6.6564
v -28.6369 9.9056 -13.2744
v -30.5086 10.9374 -14.1434
v -32.1131 9.9056 -5.7874
v -33.9849 10.9374 -6.6564
v -35.8566 9.9056 -7.5255
v -32.3804 9.9056 -15.0125
v -30.5086 10.9374 -14.1434
v -28.6369 9.9056 -13.2744
v -32.1131 9.9056 -5.7874
v -30.2414 10.9374 -4.9183
v -26.7651 10.9374 -12.4053
v -32.1131 9.9056 -5.7874
v -26.7651 10.9374 -12.4053
v -28.6369 9.9056 -13.2744
v -30.2414 10.9374 -4.9183
v -28.3696 9.9056 -4.0492
v -24.8934 9.9056 -11.5362
v -30.2414 10.9374 -4.9183
v -24.8934 9.9056 -11.5362
v -26.7651 10.9374 -12.4053
v -28.3696 9.9056 -4.0492
v -30.2414 10.9374 -4.9183
v -32.1131 9.9056 -5.7874
v -28.6369 9.9056 -13.2744
v -26.7651 10.9374 -12.4053
v -24.8934 9.9056 -11.5362
v -32.3804 0.0000 -15.0125
v -24.8934 0.0000 -11.5362
v -28.3696 0.0000 -4.0492
v -32.3804 0.0000 -15.0125
v -28.3696 0.0000 -4.0492
v -35.8566 0.0000 -7.5255
vt 0.39844 0.52344
vt 0.77344 0.52344
vt 0.77344 0.99219
vt 0.39844 0.52344
vt 0.77344 0.99219
vt 0.39844 0.99219
vt 0.39844 0.52344
vt 0.77344 0.52344
vt 0.77344 0.99219
vt 0.39844 0.52344
vt 0.77344 0.99219
vt 0.39844 0.99219
vt 0.39844 0.52344
vt 0.77344 0.52344
vt 0.77344 0.99219
vt 0.39844 0.52344
vt 0.77344 0.99219
vt 0.39844 0.99219
vt 0.39844 0.52344
vt 0.77344 0.52344
vt 0.77344 0.99219
vt 0.39844 0.52344
vt 0.77344 0.99219
vt 0.39844 0.99219
vt 0.78906 0.17969
vt 0.97656 0.17969
vt 0.97656 0.33594
vt 0.78906 0.17969
vt 0.97656 0.33594
vt 0.78906 0.33594
vt 0.78906 0.17969
vt 0.97656 0.17969
vt 0.97656 0.33594
vt 0.78906 0.17969
vt 0.97656 0.33594
vt 0.78906 0.33594
vt 0.00781 0.09375
vt 0.19531 0.18750
vt 0.38281 0.09375
vt 0.00781 0.09375
vt 0.19531 0.18750
vt 0.38281 0.09375
vt 0.78906 0.17969
vt 0.97656 0.17969
vt 0.97656 0.33594
vt 0.78906 0.17969
vt 0.97656 0.33594
vt 0.78906 0.33594
vt 0.78906 0.17969
vt 0.97656 0.17969
vt 0.97656 0.33594
vt 0.78906 0.17969
vt 0.97656 0.33594
vt 0.78906 0.33594
vt 0.00781 0.09375
vt 0.19531 0.18750
vt 0.38281 0.09375
vt 0.00781 0.09375
vt 0.19531 0.18750
vt 0.38281 0.09375
vt 0.39844 0.03906
vt 0.52344 0.03906
vt 0.52344 0.16406
vt 0.39844 0.03906
vt 0.52344 0.16406
vt 0.39844 0.16406
usemtl district_facade
f 1/1 2/2 3/3
f 4/4 5/5 6/6
f 7/7 8/8 9/9
f 10/10 11/11 12/12
f 13/13 14/14 15/15
f 16/16 17/17 18/18
f 19/19 20/20 21/21
f 22/22 23/23 24/24
f 25/25 26/26 27/27
f 28/28 29/29 30/30
f 31/31 32/32 33/33
f 34/34 35/35 36/36
f 37/37 38/38 39/39
f 40/40 41/41 42/42
f 43/43 44/44 45/45
f 46/46 47/47 48/48
f 49/49 50/50 51/51
f 52/52 53/53 54/54
f 55/55 56/56 57/57
f 58/58 59/59 60/60
f 61/61 62/62 63/63
f 64/64 65/65 66/66
