# Generated by TyraX. Do not edit - rebaked from the procedural graph of 'Painted district scatter'.
# 2 instances of res/models/urban/district-tower.obj
mtllib district-buildings.mtl
v 11.1442 0.0000 4.1662
v 14.3937 0.0000 11.4876
v 14.3937 16.0203 11.4876
v 11.1442 0.0000 4.1662
v 14.3937 16.0203 11.4876
v 11.1442 16.0203 4.1662
v 14.3937 0.0000 11.4876
v 21.7152 0.0000 8.2381
v 21.7152 16.0203 8.2381
v 14.3937 0.0000 11.4876
v 21.7152 16.0203 8.2381
v 14.3937 16.0203 11.4876
v 21.7152 0.0000 8.2381
v 18.4656 0.0000 0.9166
v 18.4656 16.0203 0.9166
v 21.7152 0.0000 8.2381
v 18.4656 16.0203 0.9166
v 21.7152 16.0203 8.2381
v 18.4656 0.0000 0.9166
v 11.1442 0.0000 4.1662
v 11.1442 16.0203 4.1662
v 18.4656 0.0000 0.9166
v 11.1442 16.0203 4.1662
v 18.4656 16.0203 0.9166
v 11.1442 16.0203 4.1662
v 11.9566 17.0216 5.9965
v 19.2780 17.0216 2.7470
v 11.1442 16.0203 4.1662
v 19.2780 17.0216 2.7470
v 18.4656 16.0203 0.9166
v 11.9566 17.0216 5.9965
v 12.7690 16.0203 7.8269
v 20.0904 16.0203 4.5773
v 11.9566 17.0216 5.9965
v 20.0904 16.0203 4.5773
v 19.2780 17.0216 2.7470
v 12.7690 16.0203 7.8269
v 11.9566 17.0216 5.9965
v 11.1442 16.0203 4.1662
v 18.4656 16.0203 0.9166
v 19.2780 17.0216 2.7470
v 20.0904 16.0203 4.5773
v 12.7690 16.0203 7.8269
v 13.5814 17.0216 9.6572
v 20.9028 17.0216 6.4077
v 12.7690 16.0203 7.8269
v 20.9028 17.0216 6.4077
v 20.0904 16.0203 4.5773
v 13.5814 17.0216 9.6572
v 14.3937 16.0203 11.4876
v 21.7152 16.0203 8.2381
v 13.5814 17.0216 9.6572
v 21.7152 16.0203 8.2381
v 20.9028 17.0216 6.4077
v 14.3937 16.0203 11.4876
v 13.5814 17.0216 9.6572
v 12.7690 16.0203 7.8269
v 20.0904 16.0203 4.5773
v 20.9028 17.0216 6.4077
v 21.7152 16.0203 8.2381
v 18.4656 0.0000 0.9166
v 21.7152 0.0000 8.2381
v 14.3937 0.0000 11.4876
v 18.4656 0.0000 0.9166
v 14.3937 0.0000 11.4876
v 11.1442 0.0000 4.1662
v 4.2164 0.0000 -1.5741
v 6.5888 0.0000 -8.2309
v 6.5888 14.1339 -8.2309
v 4.2164 0.0000 -1.5741
v 6.5888 14.1339 -8.2309
v 4.2164 14.1339 -1.5741
v 6.5888 0.0000 -8.2309
v -0.0680 0.0000 -10.6033
v -0.0680 14.1339 -10.6033
v 6.5888 0.0000 -8.2309
v -0.0680 14.1339 -10.6033
v 6.5888 14.1339 -8.2309
v -0.0680 0.0000 -10.6033
v -2.4404 0.0000 -3.9465
v -2.4404 14.1339 -3.9465
v -0.0680 0.0000 -10.6033
v -2.4404 14.1339 -3.9465
v -0.0680 14.1339 -10.6033
v -2.4404 0.0000 -3.9465
v 4.2164 0.0000 -1.5741
v 4.2164 14.1339 -1.5741
v -2.4404 0.0000 -3.9465
v 4.2164 14.1339 -1.5741
v -2.4404 14.1339 -3.9465
v 4.2164 14.1339 -1.5741
v 4.8095 15.0173 -3.2383
v -1.8473 15.0173 -5.6107
v 4.2164 14.1339 -1.5741
v -1.8473 15.0173 -5.6107
v -2.4404 14.1339 -3.9465
v 4.8095 15.0173 -3.2383
v 5.4026 14.1339 -4.9025
v -1.2542 14.1339 -7.2749
v 4.8095 15.0173 -3.2383
v -1.2542 14.1339 -7.2749
v -1.8473 15.0173 -5.6107
v 5.4026 14.1339 -4.9025
v 4.8095 15.0173 -3.2383
v 4.2164 14.1339 -1.5741
v -2.4404 14.1339 -3.9465
v -1.8473 15.0173 -5.6107
v -1.2542 14.1339 -7.2749
v 5.4026 14.1339 -4.9025
v 5.9957 15.0173 -6.5667
v -0.6611 15.0173 -8.9391
v 5.4026 14.1339 -4.9025
v -0.6611 15.0173 -8.9391
v -1.2542 14.1339 -7.2749
v 5.9957 15.0173 -6.5667
v 6.5888 14.1339 -8.2309
v -0.0680 14.1339 -10.6033
v 5.9957 15.0173 -6.5667
v -0.0680 14.1339 -10.6033
v -0.6611 15.0173 -8.9391
v 6.5888 14.1339 -8.2309
v 5.9957 15.0173 -6.5667
v 5.4026 14.1339 -4.9025
v -1.2542 14.1339 -7.2749
v -0.6611 15.0173 -8.9391
v -0.0680 14.1339 -10.6033
v -2.4404 0.0000 -3.9465
v -0.0680 0.0000 -10.6033
v 6.5888 0.0000 -8.2309
v -2.4404 0.0000 -3.9465
v 6.5888 0.0000 -8.2309
v 4.2164 0.0000 -1.5741
vt 0.00781 0.21094
vt 0.38281 0.21094
vt 0.38281 0.99219
vt 0.00781 0.21094
vt 0.38281 0.99219
vt 0.00781 0.99219
vt 0.00781 0.21094
vt 0.38281 0.21094
vt 0.38281 0.99219
vt 0.00781 0.21094
vt 0.38281 0.99219
vt 0.00781 0.99219
vt 0.00781 0.21094
vt 0.38281 0.21094
vt 0.38281 0.99219
vt 0.00781 0.21094
vt 0.38281 0.99219
vt 0.00781 0.99219
vt 0.00781 0.21094
vt 0.38281 0.21094
vt 0.38281 0.99219
vt 0.00781 0.21094
vt 0.38281 0.99219
vt 0.00781 0.99219
vt 0.78906 0.17969
vt 0.97656 0.17969
vt 0.97656 0.33594
vt 0.78906 0.17969
vt 0.97656 0.33594
vt 0.78906 0.33594
vt 0.78906 0.17969
vt 0.97656 0.17969
vt 0.97656 0.33594
vt 0.78906 0.17969
vt 0.97656 0.33594
vt 0.78906 0.33594
vt 0.00781 0.09375
vt 0.19531 0.18750
vt 0.38281 0.09375
vt 0.00781 0.09375
vt 0.19531 0.18750
vt 0.38281 0.09375
vt 0.78906 0.17969
vt 0.97656 0.17969
vt 0.97656 0.33594
vt 0.78906 0.17969
vt 0.97656 0.33594
vt 0.78906 0.33594
vt 0.78906 0.17969
vt 0.97656 0.17969
vt 0.97656 0.33594
vt 0.78906 0.17969
vt 0.97656 0.33594
vt 0.78906 0.33594
vt 0.00781 0.09375
vt 0.19531 0.18750
vt 0.38281 0.09375
vt 0.00781 0.09375
vt 0.19531 0.18750
vt 0.38281 0.09375
vt 0.39844 0.03906
vt 0.52344 0.03906
vt 0.52344 0.16406
vt 0.39844 0.03906
vt 0.52344 0.16406
vt 0.39844 0.16406
vt 0.00781 0.21094
vt 0.38281 0.21094
vt 0.38281 0.99219
vt 0.00781 0.21094
vt 0.38281 0.99219
vt 0.00781 0.99219
vt 0.00781 0.21094
vt 0.38281 0.21094
vt 0.38281 0.99219
vt 0.00781 0.21094
vt 0.38281 0.99219
vt 0.00781 0.99219
vt 0.00781 0.21094
vt 0.38281 0.21094
vt 0.38281 0.99219
vt 0.00781 0.21094
vt 0.38281 0.99219
vt 0.00781 0.99219
vt 0.00781 0.21094
vt 0.38281 0.21094
vt 0.38281 0.99219
vt 0.00781 0.21094
vt 0.38281 0.99219
vt 0.00781 0.99219
vt 0.78906 0.17969
vt 0.97656 0.17969
vt 0.97656 0.33594
vt 0.78906 0.17969
vt 0.97656 0.33594
vt 0.78906 0.33594
vt 0.78906 0.17969
vt 0.97656 0.17969
vt 0.97656 0.33594
vt 0.78906 0.17969
vt 0.97656 0.33594
vt 0.78906 0.33594
vt 0.00781 0.09375
vt 0.19531 0.18750
vt 0.38281 0.09375
vt 0.00781 0.09375
vt 0.19531 0.18750
vt 0.38281 0.09375
vt 0.78906 0.17969
vt 0.97656 0.17969
vt 0.97656 0.33594
vt 0.78906 0.17969
vt 0.97656 0.33594
vt 0.78906 0.33594
vt 0.78906 0.17969
vt 0.97656 0.17969
vt 0.97656 0.33594
vt 0.78906 0.17969
vt 0.97656 0.33594
vt 0.78906 0.33594
vt 0.00781 0.09375
vt 0.19531 0.18750
vt 0.38281 0.09375
vt 0.00781 0.09375
vt 0.19531 0.18750
vt 0.38281 0.09375
vt 0.39844 0.03906
vt 0.52344 0.03906
vt 0.52344 0.16406
vt 0.39844 0.03906
vt 0.52344 0.16406
vt 0.39844 0.16406
usemtl district_facade
f 1/1 2/2 3/3
f 4/4 5/5 6/6
f 7/7 8/8 9/9
f 10/10 11/11 12/12
f 13/13 14/14 15/15
f 16/16 17/17 18/18
f 19/19 20/20 21/21
f 22/22 23/23 24/24
f 25/25 26/26 27/27
f 28/28 29/29 30/30
f 31/31 32/32 33/33
f 34/34 35/35 36/36
f 37/37 38/38 39/39
f 40/40 41/41 42/42
f 43/43 44/44 45/45
f 46/46 47/47 48/48
f 49/49 50/50 51/51
f 52/52 53/53 54/54
f 55/55 56/56 57/57
f 58/58 59/59 60/60
f 61/61 62/62 63/63
f 64/64 65/65 66/66
f 67/67 68/68 69/69
f 70/70 71/71 72/72
f 73/73 74/74 75/75
f 76/76 77/77 78/78
f 79/79 80/80 81/81
f 82/82 83/83 84/84
f 85/85 86/86 87/87
f 88/88 89/89 90/90
f 91/91 92/92 93/93
f 94/94 95/95 96/96
f 97/97 98/98 99/99
f 100/100 101/101 102/102
f 103/103 104/104 105/105
f 106/106 107/107 108/108
f 109/109 110/110 111/111
f 112/112 113/113 114/114
f 115/115 116/116 117/117
f 118/118 119/119 120/120
f 121/121 122/122 123/123
f 124/124 125/125 126/126
f 127/127 128/128 129/129
f 130/130 131/131 132/132
