# Generated by TyraX. Do not edit - rebaked from the procedural graph of 'Painted district scatter'.
# 4 instances of res/models/urban/district-tower.obj
mtllib district-buildings.mtl
v 23.3874 0.0000 -13.7327
v 23.3874 0.0000 -6.3825
v 23.3874 14.7004 -6.3825
v 23.3874 0.0000 -13.7327
v 23.3874 14.7004 -6.3825
v 23.3874 14.7004 -13.7327
v 23.3874 0.0000 -6.3825
v 30.7376 0.0000 -6.3825
v 30.7376 14.7004 -6.3825
v 23.3874 0.0000 -6.3825
v 30.7376 14.7004 -6.3825
v 23.3874 14.7004 -6.3825
v 30.7376 0.0000 -6.3825
v 30.7376 0.0000 -13.7327
v 30.7376 14.7004 -13.7327
v 30.7376 0.0000 -6.3825
v 30.7376 14.7004 -13.7327
v 30.7376 14.7004 -6.3825
v 30.7376 0.0000 -13.7327
v 23.3874 0.0000 -13.7327
v 23.3874 14.7004 -13.7327
v 30.7376 0.0000 -13.7327
v 23.3874 14.7004 -13.7327
v 30.7376 14.7004 -13.7327
v 23.3874 14.7004 -13.7327
v 23.3874 15.6192 -11.8952
v 30.7376 15.6192 -11.8952
v 23.3874 14.7004 -13.7327
v 30.7376 15.6192 -11.8952
v 30.7376 14.7004 -13.7327
v 23.3874 15.6192 -11.8952
v 23.3874 14.7004 -10.0576
v 30.7376 14.7004 -10.0576
v 23.3874 15.6192 -11.8952
v 30.7376 14.7004 -10.0576
v 30.7376 15.6192 -11.8952
v 23.3874 14.7004 -10.0576
v 23.3874 15.6192 -11.8952
v 23.3874 14.7004 -13.7327
v 30.7376 14.7004 -13.7327
v 30.7376 15.6192 -11.8952
v 30.7376 14.7004 -10.0576
v 23.3874 14.7004 -10.0576
v 23.3874 15.6192 -8.2201
v 30.7376 15.6192 -8.2201
v 23.3874 14.7004 -10.0576
v 30.7376 15.6192 -8.2201
v 30.7376 14.7004 -10.0576
v 23.3874 15.6192 -8.2201
v 23.3874 14.7004 -6.3825
v 30.7376 14.7004 -6.3825
v 23.3874 15.6192 -8.2201
v 30.7376 14.7004 -6.3825
v 30.7376 15.6192 -8.2201
v 23.3874 14.7004 -6.3825
v 23.3874 15.6192 -8.2201
v 23.3874 14.7004 -10.0576
v 30.7376 14.7004 -10.0576
v 30.7376 15.6192 -8.2201
v 30.7376 14.7004 -6.3825
v 30.7376 0.0000 -13.7327
v 30.7376 0.0000 -6.3825
v 23.3874 0.0000 -6.3825
v 30.7376 0.0000 -13.7327
v 23.3874 0.0000 -6.3825
v 23.3874 0.0000 -13.7327
v 18.3525 0.0000 10.7359
v 18.3525 0.0000 18.3121
v 18.3525 15.1526 18.3121
v 18.3525 0.0000 10.7359
v 18.3525 15.1526 18.3121
v 18.3525 15.1526 10.7359
v 18.3525 0.0000 18.3121
v 25.9288 0.0000 18.3121
v 25.9288 15.1526 18.3121
v 18.3525 0.0000 18.3121
v 25.9288 15.1526 18.3121
v 18.3525 15.1526 18.3121
v 25.9288 0.0000 18.3121
v 25.9288 0.0000 10.7359
v 25.9288 15.1526 10.7359
v 25.9288 0.0000 18.3121
v 25.9288 15.1526 10.7359
v 25.9288 15.1526 18.3121
v 25.9288 0.0000 10.7359
v 18.3525 0.0000 10.7359
v 18.3525 15.1526 10.7359
v 25.9288 0.0000 10.7359
v 18.3525 15.1526 10.7359
v 25.9288 15.1526 10.7359
v 18.3525 15.1526 10.7359
v 18.3525 16.0996 12.6299
v 25.9288 16.0996 12.6299
v 18.3525 15.1526 10.7359
v 25.9288 16.0996 12.6299
v 25.9288 15.1526 10.7359
v 18.3525 16.0996 12.6299
v 18.3525 15.1526 14.5240
v 25.9288 15.1526 14.5240
v 18.3525 16.0996 12.6299
v 25.9288 15.1526 14.5240
v 25.9288 16.0996 12.6299
v 18.3525 15.1526 14.5240
v 18.3525 16.0996 12.6299
v 18.3525 15.1526 10.7359
v 25.9288 15.1526 10.7359
v 25.9288 16.0996 12.6299
v 25.9288 15.1526 14.5240
v 18.3525 15.1526 14.5240
v 18.3525 16.0996 16.4181
v 25.9288 16.0996 16.4181
v 18.3525 15.1526 14.5240
v 25.9288 16.0996 16.4181
v 25.9288 15.1526 14.5240
v 18.3525 16.0996 16.4181
v 18.3525 15.1526 18.3121
v 25.9288 15.1526 18.3121
v 18.3525 16.0996 16.4181
v 25.9288 15.1526 18.3121
v 25.9288 16.0996 16.4181
v 18.3525 15.1526 18.3121
v 18.3525 16.0996 16.4181
v 18.3525 15.1526 14.5240
v 25.9288 15.1526 14.5240
v 25.9288 16.0996 16.4181
v 25.9288 15.1526 18.3121
v 25.9288 0.0000 10.7359
v 25.9288 0.0000 18.3121
v 18.3525 0.0000 18.3121
v 25.9288 0.0000 10.7359
v 18.3525 0.0000 18.3121
v 18.3525 0.0000 10.7359
v -21.4633 0.0000 -12.7502
v -21.4633 0.0000 -4.2924
v -21.4633 16.9156 -4.2924
v -21.4633 0.0000 -12.7502
v -21.4633 16.9156 -4.2924
v -21.4633 16.9156 -12.7502
v -21.4633 0.0000 -4.2924
v -13.0055 0.0000 -4.2924
v -13.0055 16.9156 -4.2924
v -21.4633 0.0000 -4.2924
v -13.0055 16.9156 -4.2924
v -21.4633 16.9156 -4.2924
v -13.0055 0.0000 -4.2924
v -13.0055 0.0000 -12.7502
v -13.0055 16.9156 -12.7502
v -13.0055 0.0000 -4.2924
v -13.0055 16.9156 -12.7502
v -13.0055 16.9156 -4.2924
v -13.0055 0.0000 -12.7502
v -21.4633 0.0000 -12.7502
v -21.4633 16.9156 -12.7502
v -13.0055 0.0000 -12.7502
v -21.4633 16.9156 -12.7502
v -13.0055 16.9156 -12.7502
v -21.4633 16.9156 -12.7502
v -21.4633 17.9729 -10.6357
v -13.0055 17.9729 -10.6357
v -21.4633 16.9156 -12.7502
v -13.0055 17.9729 -10.6357
v -13.0055 16.9156 -12.7502
v -21.4633 17.9729 -10.6357
v -21.4633 16.9156 -8.5213
v -13.0055 16.9156 -8.5213
v -21.4633 17.9729 -10.6357
v -13.0055 16.9156 -8.5213
v -13.0055 17.9729 -10.6357
v -21.4633 16.9156 -8.5213
v -21.4633 17.9729 -10.6357
v -21.4633 16.9156 -12.7502
v -13.0055 16.9156 -12.7502
v -13.0055 17.9729 -10.6357
v -13.0055 16.9156 -8.5213
v -21.4633 16.9156 -8.5213
v -21.4633 17.9729 -6.4068
v -13.0055 17.9729 -6.4068
v -21.4633 16.9156 -8.5213
v -13.0055 17.9729 -6.4068
v -13.0055 16.9156 -8.5213
v -21.4633 17.9729 -6.4068
v -21.4633 16.9156 -4.2924
v -13.0055 16.9156 -4.2924
v -21.4633 17.9729 -6.4068
v -13.0055 16.9156 -4.2924
v -13.0055 17.9729 -6.4068
v -21.4633 16.9156 -4.2924
v -21.4633 17.9729 -6.4068
v -21.4633 16.9156 -8.5213
v -13.0055 16.9156 -8.5213
v -13.0055 17.9729 -6.4068
v -13.0055 16.9156 -4.2924
v -13.0055 0.0000 -12.7502
v -13.0055 0.0000 -4.2924
v -21.4633 0.0000 -4.2924
v -13.0055 0.0000 -12.7502
v -21.4633 0.0000 -4.2924
v -21.4633 0.0000 -12.7502
v -22.4023 0.0000 7.0017
v -22.4023 0.0000 14.8767
v -22.4023 15.7499 14.8767
v -22.4023 0.0000 7.0017
v -22.4023 15.7499 14.8767
v -22.4023 15.7499 7.0017
v -22.4023 0.0000 14.8767
v -14.5274 0.0000 14.8767
v -14.5274 15.7499 14.8767
v -22.4023 0.0000 14.8767
v -14.5274 15.7499 14.8767
v -22.4023 15.7499 14.8767
v -14.5274 0.0000 14.8767
v -14.5274 0.0000 7.0017
v -14.5274 15.7499 7.0017
v -14.5274 0.0000 14.8767
v -14.5274 15.7499 7.0017
v -14.5274 15.7499 14.8767
v -14.5274 0.0000 7.0017
v -22.4023 0.0000 7.0017
v -22.4023 15.7499 7.0017
v -14.5274 0.0000 7.0017
v -22.4023 15.7499 7.0017
v -14.5274 15.7499 7.0017
v -22.4023 15.7499 7.0017
v -22.4023 16.7343 8.9704
v -14.5274 16.7343 8.9704
v -22.4023 15.7499 7.0017
v -14.5274 16.7343 8.9704
v -14.5274 15.7499 7.0017
v -22.4023 16.7343 8.9704
v -22.4023 15.7499 10.9392
v -14.5274 15.7499 10.9392
v -22.4023 16.7343 8.9704
v -14.5274 15.7499 10.9392
v -14.5274 16.7343 8.9704
v -22.4023 15.7499 10.9392
v -22.4023 16.7343 8.9704
v -22.4023 15.7499 7.0017
v -14.5274 15.7499 7.0017
v -14.5274 16.7343 8.9704
v -14.5274 15.7499 10.9392
v -22.4023 15.7499 10.9392
v -22.4023 16.7343 12.9079
v -14.5274 16.7343 12.9079
v -22.4023 15.7499 10.9392
v -14.5274 16.7343 12.9079
v -14.5274 15.7499 10.9392
v -22.4023 16.7343 12.9079
v -22.4023 15.7499 14.8767
v -14.5274 15.7499 14.8767
v -22.4023 16.7343 12.9079
v -14.5274 15.7499 14.8767
v -14.5274 16.7343 12.9079
v -22.4023 15.7499 14.8767
v -22.4023 16.7343 12.9079
v -22.4023 15.7499 10.9392
v -14.5274 15.7499 10.9392
v -14.5274 16.7343 12.9079
v -14.5274 15.7499 14.8767
v -14.5274 0.0000 7.0017
v -14.5274 0.0000 14.8767
v -22.4023 0.0000 14.8767
v -14.5274 0.0000 7.0017
v -22.4023 0.0000 14.8767
v -22.4023 0.0000 7.0017
vt 0.00781 0.21094
vt 0.38281 0.21094
vt 0.38281 0.99219
vt 0.00781 0.21094
vt 0.38281 0.99219
vt 0.00781 0.99219
vt 0.00781 0.21094
vt 0.38281 0.21094
vt 0.38281 0.99219
vt 0.00781 0.21094
vt 0.38281 0.99219
vt 0.00781 0.99219
vt 0.00781 0.21094
vt 0.38281 0.21094
vt 0.38281 0.99219
vt 0.00781 0.21094
vt 0.38281 0.99219
vt 0.00781 0.99219
vt 0.00781 0.21094
vt 0.38281 0.21094
vt 0.38281 0.99219
vt 0.00781 0.21094
vt 0.38281 0.99219
vt 0.00781 0.99219
vt 0.78906 0.17969
vt 0.97656 0.17969
vt 0.97656 0.33594
vt 0.78906 0.17969
vt 0.97656 0.33594
vt 0.78906 0.33594
vt 0.78906 0.17969
vt 0.97656 0.17969
vt 0.97656 0.33594
vt 0.78906 0.17969
vt 0.97656 0.33594
vt 0.78906 0.33594
vt 0.00781 0.09375
vt 0.19531 0.18750
vt 0.38281 0.09375
vt 0.00781 0.09375
vt 0.19531 0.18750
vt 0.38281 0.09375
vt 0.78906 0.17969
vt 0.97656 0.17969
vt 0.97656 0.33594
vt 0.78906 0.17969
vt 0.97656 0.33594
vt 0.78906 0.33594
vt 0.78906 0.17969
vt 0.97656 0.17969
vt 0.97656 0.33594
vt 0.78906 0.17969
vt 0.97656 0.33594
vt 0.78906 0.33594
vt 0.00781 0.09375
vt 0.19531 0.18750
vt 0.38281 0.09375
vt 0.00781 0.09375
vt 0.19531 0.18750
vt 0.38281 0.09375
vt 0.39844 0.03906
vt 0.52344 0.03906
vt 0.52344 0.16406
vt 0.39844 0.03906
vt 0.52344 0.16406
vt 0.39844 0.16406
vt 0.00781 0.21094
vt 0.38281 0.21094
vt 0.38281 0.99219
vt 0.00781 0.21094
vt 0.38281 0.99219
vt 0.00781 0.99219
vt 0.00781 0.21094
vt 0.38281 0.21094
vt 0.38281 0.99219
vt 0.00781 0.21094
vt 0.38281 0.99219
vt 0.00781 0.99219
vt 0.00781 0.21094
vt 0.38281 0.21094
vt 0.38281 0.99219
vt 0.00781 0.21094
vt 0.38281 0.99219
vt 0.00781 0.99219
vt 0.00781 0.21094
vt 0.38281 0.21094
vt 0.38281 0.99219
vt 0.00781 0.21094
vt 0.38281 0.99219
vt 0.00781 0.99219
vt 0.78906 0.17969
vt 0.97656 0.17969
vt 0.97656 0.33594
vt 0.78906 0.17969
vt 0.97656 0.33594
vt 0.78906 0.33594
vt 0.78906 0.17969
vt 0.97656 0.17969
vt 0.97656 0.33594
vt 0.78906 0.17969
vt 0.97656 0.33594
vt 0.78906 0.33594
vt 0.00781 0.09375
vt 0.19531 0.18750
vt 0.38281 0.09375
vt 0.00781 0.09375
vt 0.19531 0.18750
vt 0.38281 0.09375
vt 0.78906 0.17969
vt 0.97656 0.17969
vt 0.97656 0.33594
vt 0.78906 0.17969
vt 0.97656 0.33594
vt 0.78906 0.33594
vt 0.78906 0.17969
vt 0.97656 0.17969
vt 0.97656 0.33594
vt 0.78906 0.17969
vt 0.97656 0.33594
vt 0.78906 0.33594
vt 0.00781 0.09375
vt 0.19531 0.18750
vt 0.38281 0.09375
vt 0.00781 0.09375
vt 0.19531 0.18750
vt 0.38281 0.09375
vt 0.39844 0.03906
vt 0.52344 0.03906
vt 0.52344 0.16406
vt 0.39844 0.03906
vt 0.52344 0.16406
vt 0.39844 0.16406
vt 0.00781 0.21094
vt 0.38281 0.21094
vt 0.38281 0.99219
vt 0.00781 0.21094
vt 0.38281 0.99219
vt 0.00781 0.99219
vt 0.00781 0.21094
vt 0.38281 0.21094
vt 0.38281 0.99219
vt 0.00781 0.21094
vt 0.38281 0.99219
vt 0.00781 0.99219
vt 0.00781 0.21094
vt 0.38281 0.21094
vt 0.38281 0.99219
vt 0.00781 0.21094
vt 0.38281 0.99219
vt 0.00781 0.99219
vt 0.00781 0.21094
vt 0.38281 0.21094
vt 0.38281 0.99219
vt 0.00781 0.21094
vt 0.38281 0.99219
vt 0.00781 0.99219
vt 0.78906 0.17969
vt 0.97656 0.17969
vt 0.97656 0.33594
vt 0.78906 0.17969
vt 0.97656 0.33594
vt 0.78906 0.33594
vt 0.78906 0.17969
vt 0.97656 0.17969
vt 0.97656 0.33594
vt 0.78906 0.17969
vt 0.97656 0.33594
vt 0.78906 0.33594
vt 0.00781 0.09375
vt 0.19531 0.18750
vt 0.38281 0.09375
vt 0.00781 0.09375
vt 0.19531 0.18750
vt 0.38281 0.09375
vt 0.78906 0.17969
vt 0.97656 0.17969
vt 0.97656 0.33594
vt 0.78906 0.17969
vt 0.97656 0.33594
vt 0.78906 0.33594
vt 0.78906 0.17969
vt 0.97656 0.17969
vt 0.97656 0.33594
vt 0.78906 0.17969
vt 0.97656 0.33594
vt 0.78906 0.33594
vt 0.00781 0.09375
vt 0.19531 0.18750
vt 0.38281 0.09375
vt 0.00781 0.09375
vt 0.19531 0.18750
vt 0.38281 0.09375
vt 0.39844 0.03906
vt 0.52344 0.03906
vt 0.52344 0.16406
vt 0.39844 0.03906
vt 0.52344 0.16406
vt 0.39844 0.16406
vt 0.00781 0.21094
vt 0.38281 0.21094
vt 0.38281 0.99219
vt 0.00781 0.21094
vt 0.38281 0.99219
vt 0.00781 0.99219
vt 0.00781 0.21094
vt 0.38281 0.21094
vt 0.38281 0.99219
vt 0.00781 0.21094
vt 0.38281 0.99219
vt 0.00781 0.99219
vt 0.00781 0.21094
vt 0.38281 0.21094
vt 0.38281 0.99219
vt 0.00781 0.21094
vt 0.38281 0.99219
vt 0.00781 0.99219
vt 0.00781 0.21094
vt 0.38281 0.21094
vt 0.38281 0.99219
vt 0.00781 0.21094
vt 0.38281 0.99219
vt 0.00781 0.99219
vt 0.78906 0.17969
vt 0.97656 0.17969
vt 0.97656 0.33594
vt 0.78906 0.17969
vt 0.97656 0.33594
vt 0.78906 0.33594
vt 0.78906 0.17969
vt 0.97656 0.17969
vt 0.97656 0.33594
vt 0.78906 0.17969
vt 0.97656 0.33594
vt 0.78906 0.33594
vt 0.00781 0.09375
vt 0.19531 0.18750
vt 0.38281 0.09375
vt 0.00781 0.09375
vt 0.19531 0.18750
vt 0.38281 0.09375
vt 0.78906 0.17969
vt 0.97656 0.17969
vt 0.97656 0.33594
vt 0.78906 0.17969
vt 0.97656 0.33594
vt 0.78906 0.33594
vt 0.78906 0.17969
vt 0.97656 0.17969
vt 0.97656 0.33594
vt 0.78906 0.17969
vt 0.97656 0.33594
vt 0.78906 0.33594
vt 0.00781 0.09375
vt 0.19531 0.18750
vt 0.38281 0.09375
vt 0.00781 0.09375
vt 0.19531 0.18750
vt 0.38281 0.09375
vt 0.39844 0.03906
vt 0.52344 0.03906
vt 0.52344 0.16406
vt 0.39844 0.03906
vt 0.52344 0.16406
vt 0.39844 0.16406
usemtl district_facade
f 1/1 2/2 3/3
f 4/4 5/5 6/6
f 7/7 8/8 9/9
f 10/10 11/11 12/12
f 13/13 14/14 15/15
f 16/16 17/17 18/18
f 19/19 20/20 21/21
f 22/22 23/23 24/24
f 25/25 26/26 27/27
f 28/28 29/29 30/30
f 31/31 32/32 33/33
f 34/34 35/35 36/36
f 37/37 38/38 39/39
f 40/40 41/41 42/42
f 43/43 44/44 45/45
f 46/46 47/47 48/48
f 49/49 50/50 51/51
f 52/52 53/53 54/54
f 55/55 56/56 57/57
f 58/58 59/59 60/60
f 61/61 62/62 63/63
f 64/64 65/65 66/66
f 67/67 68/68 69/69
f 70/70 71/71 72/72
f 73/73 74/74 75/75
f 76/76 77/77 78/78
f 79/79 80/80 81/81
f 82/82 83/83 84/84
f 85/85 86/86 87/87
f 88/88 89/89 90/90
f 91/91 92/92 93/93
f 94/94 95/95 96/96
f 97/97 98/98 99/99
f 100/100 101/101 102/102
f 103/103 104/104 105/105
f 106/106 107/107 108/108
f 109/109 110/110 111/111
f 112/112 113/113 114/114
f 115/115 116/116 117/117
f 118/118 119/119 120/120
f 121/121 122/122 123/123
f 124/124 125/125 126/126
f 127/127 128/128 129/129
f 130/130 131/131 132/132
f 133/133 134/134 135/135
f 136/136 137/137 138/138
f 139/139 140/140 141/141
f 142/142 143/143 144/144
f 145/145 146/146 147/147
f 148/148 149/149 150/150
f 151/151 152/152 153/153
f 154/154 155/155 156/156
f 157/157 158/158 159/159
f 160/160 161/161 162/162
f 163/163 164/164 165/165
f 166/166 167/167 168/168
f 169/169 170/170 171/171
f 172/172 173/173 174/174
f 175/175 176/176 177/177
f 178/178 179/179 180/180
f 181/181 182/182 183/183
f 184/184 185/185 186/186
f 187/187 188/188 189/189
f 190/190 191/191 192/192
f 193/193 194/194 195/195
f 196/196 197/197 198/198
f 199/199 200/200 201/201
f 202/202 203/203 204/204
f 205/205 206/206 207/207
f 208/208 209/209 210/210
f 211/211 212/212 213/213
f 214/214 215/215 216/216
f 217/217 218/218 219/219
f 220/220 221/221 222/222
f 223/223 224/224 225/225
f 226/226 227/227 228/228
f 229/229 230/230 231/231
f 232/232 233/233 234/234
f 235/235 236/236 237/237
f 238/238 239/239 240/240
f 241/241 242/242 243/243
f 244/244 245/245 246/246
f 247/247 248/248 249/249
f 250/250 251/251 252/252
f 253/253 254/254 255/255
f 256/256 257/257 258/258
f 259/259 260/260 261/261
f 262/262 263/263 264/264
