# Generated by TyraX. Do not edit - rebaked from the procedural graph of 'Painted district scatter'.
# 1 instances of res/models/urban/district-workshop.obj
mtllib district-buildings.mtl
v -12.3704 0.0000 -8.3093
v -9.4318 0.0000 -16.0454
v -9.4318 3.3102 -16.0454
v -12.3704 0.0000 -8.3093
v -9.4318 3.3102 -16.0454
v -12.3704 3.3102 -8.3093
v -9.4318 0.0000 -16.0454
v -21.0359 0.0000 -20.4533
v -21.0359 3.3102 -20.4533
v -9.4318 0.0000 -16.0454
v -21.0359 3.3102 -20.4533
v -9.4318 3.3102 -16.0454
v -21.0359 0.0000 -20.4533
v -23.9745 0.0000 -12.7172
v -23.9745 3.3102 -12.7172
v -21.0359 0.0000 -20.4533
v -23.9745 3.3102 -12.7172
v -21.0359 3.3102 -20.4533
v -23.9745 0.0000 -12.7172
v -12.3704 0.0000 -8.3093
v -12.3704 3.3102 -8.3093
v -23.9745 0.0000 -12.7172
v -12.3704 3.3102 -8.3093
v -23.9745 3.3102 -12.7172
v -12.3704 3.3102 -8.3093
v -11.6357 4.3446 -10.2434
v -23.2398 4.3446 -14.6513
v -12.3704 3.3102 -8.3093
v -23.2398 4.3446 -14.6513
v -23.9745 3.3102 -12.7172
v -11.6357 4.3446 -10.2434
v -10.9011 3.3102 -12.1774
v -22.5052 3.3102 -16.5853
v -11.6357 4.3446 -10.2434
v -22.5052 3.3102 -16.5853
v -23.2398 4.3446 -14.6513
v -10.9011 3.3102 -12.1774
v -11.6357 4.3446 -10.2434
v -12.3704 3.3102 -8.3093
v -23.9745 3.3102 -12.7172
v -23.2398 4.3446 -14.6513
v -22.5052 3.3102 -16.5853
v -10.9011 3.3102 -12.1774
v -10.1664 4.3446 -14.1114
v -21.7705 4.3446 -18.5193
v -10.9011 3.3102 -12.1774
v -21.7705 4.3446 -18.5193
v -22.5052 3.3102 -16.5853
v -10.1664 4.3446 -14.1114
v -9.4318 3.3102 -16.0454
v -21.0359 3.3102 -20.4533
v -10.1664 4.3446 -14.1114
v -21.0359 3.3102 -20.4533
v -21.7705 4.3446 -18.5193
v -9.4318 3.3102 -16.0454
v -10.1664 4.3446 -14.1114
v -10.9011 3.3102 -12.1774
v -22.5052 3.3102 -16.5853
v -21.7705 4.3446 -18.5193
v -21.0359 3.3102 -20.4533
v -23.9745 0.0000 -12.7172
v -21.0359 0.0000 -20.4533
v -9.4318 0.0000 -16.0454
v -23.9745 0.0000 -12.7172
v -9.4318 0.0000 -16.0454
v -12.3704 0.0000 -8.3093
vt 0.39844 0.17969
vt 0.77344 0.17969
vt 0.77344 0.33594
vt 0.39844 0.17969
vt 0.77344 0.33594
vt 0.39844 0.33594
vt 0.39844 0.35156
vt 0.96094 0.35156
vt 0.96094 0.50781
vt 0.39844 0.35156
vt 0.96094 0.50781
vt 0.39844 0.50781
vt 0.39844 0.17969
vt 0.77344 0.17969
vt 0.77344 0.33594
vt 0.39844 0.17969
vt 0.77344 0.33594
vt 0.39844 0.33594
vt 0.39844 0.35156
vt 0.96094 0.35156
vt 0.96094 0.50781
vt 0.39844 0.35156
vt 0.96094 0.50781
vt 0.39844 0.50781
vt 0.78906 0.17969
vt 0.97656 0.17969
vt 0.97656 0.33594
vt 0.78906 0.17969
vt 0.97656 0.33594
vt 0.78906 0.33594
vt 0.78906 0.17969
vt 0.97656 0.17969
vt 0.97656 0.33594
vt 0.78906 0.17969
vt 0.97656 0.33594
vt 0.78906 0.33594
vt 0.00781 0.09375
vt 0.19531 0.18750
vt 0.38281 0.09375
vt 0.00781 0.09375
vt 0.19531 0.18750
vt 0.38281 0.09375
vt 0.78906 0.17969
vt 0.97656 0.17969
vt 0.97656 0.33594
vt 0.78906 0.17969
vt 0.97656 0.33594
vt 0.78906 0.33594
vt 0.78906 0.17969
vt 0.97656 0.17969
vt 0.97656 0.33594
vt 0.78906 0.17969
vt 0.97656 0.33594
vt 0.78906 0.33594
vt 0.00781 0.09375
vt 0.19531 0.18750
vt 0.38281 0.09375
vt 0.00781 0.09375
vt 0.19531 0.18750
vt 0.38281 0.09375
vt 0.39844 0.03906
vt 0.52344 0.03906
vt 0.52344 0.16406
vt 0.39844 0.03906
vt 0.52344 0.16406
vt 0.39844 0.16406
usemtl district_facade
f 1/1 2/2 3/3
f 4/4 5/5 6/6
f 7/7 8/8 9/9
f 10/10 11/11 12/12
f 13/13 14/14 15/15
f 16/16 17/17 18/18
f 19/19 20/20 21/21
f 22/22 23/23 24/24
f 25/25 26/26 27/27
f 28/28 29/29 30/30
f 31/31 32/32 33/33
f 34/34 35/35 36/36
f 37/37 38/38 39/39
f 40/40 41/41 42/42
f 43/43 44/44 45/45
f 46/46 47/47 48/48
f 49/49 50/50 51/51
f 52/52 53/53 54/54
f 55/55 56/56 57/57
f 58/58 59/59 60/60
f 61/61 62/62 63/63
f 64/64 65/65 66/66
