# Generated by TyraX. Do not edit - rebaked from the procedural graph of 'Painted district scatter'.
# 2 instances of res/models/urban/district-tower.obj
mtllib district-buildings.mtl
v 15.5627 0.0000 -18.0128
v 12.5759 0.0000 -24.7765
v 12.5759 14.7876 -24.7765
v 15.5627 0.0000 -18.0128
v 12.5759 14.7876 -24.7765
v 15.5627 14.7876 -18.0128
v 12.5759 0.0000 -24.7765
v 5.8123 0.0000 -21.7897
v 5.8123 14.7876 -21.7897
v 12.5759 0.0000 -24.7765
v 5.8123 14.7876 -21.7897
v 12.5759 14.7876 -24.7765
v 5.8123 0.0000 -21.7897
v 8.7991 0.0000 -15.0260
v 8.7991 14.7876 -15.0260
v 5.8123 0.0000 -21.7897
v 8.7991 14.7876 -15.0260
v 5.8123 14.7876 -21.7897
v 8.7991 0.0000 -15.0260
v 15.5627 0.0000 -18.0128
v 15.5627 14.7876 -18.0128
v 8.7991 0.0000 -15.0260
v 15.5627 14.7876 -18.0128
v 8.7991 14.7876 -15.0260
v 15.5627 14.7876 -18.0128
v 14.8160 15.7118 -19.7037
v 8.0524 15.7118 -16.7169
v 15.5627 14.7876 -18.0128
v 8.0524 15.7118 -16.7169
v 8.7991 14.7876 -15.0260
v 14.8160 15.7118 -19.7037
v 14.0693 14.7876 -21.3946
v 7.3057 14.7876 -18.4078
v 14.8160 15.7118 -19.7037
v 7.3057 14.7876 -18.4078
v 8.0524 15.7118 -16.7169
v 14.0693 14.7876 -21.3946
v 14.8160 15.7118 -19.7037
v 15.5627 14.7876 -18.0128
v 8.7991 14.7876 -15.0260
v 8.0524 15.7118 -16.7169
v 7.3057 14.7876 -18.4078
v 14.0693 14.7876 -21.3946
v 13.3226 15.7118 -23.0856
v 6.5590 15.7118 -20.0988
v 14.0693 14.7876 -21.3946
v 6.5590 15.7118 -20.0988
v 7.3057 14.7876 -18.4078
v 13.3226 15.7118 -23.0856
v 12.5759 14.7876 -24.7765
v 5.8123 14.7876 -21.7897
v 13.3226 15.7118 -23.0856
v 5.8123 14.7876 -21.7897
v 6.5590 15.7118 -20.0988
v 12.5759 14.7876 -24.7765
v 13.3226 15.7118 -23.0856
v 14.0693 14.7876 -21.3946
v 7.3057 14.7876 -18.4078
v 6.5590 15.7118 -20.0988
v 5.8123 14.7876 -21.7897
v 8.7991 0.0000 -15.0260
v 5.8123 0.0000 -21.7897
v 12.5759 0.0000 -24.7765
v 8.7991 0.0000 -15.0260
v 12.5759 0.0000 -24.7765
v 15.5627 0.0000 -18.0128
v 22.7698 0.0000 -0.8185
v 26.0950 0.0000 -6.9802
v 26.0950 14.0033 -6.9802
v 22.7698 0.0000 -0.8185
v 26.0950 14.0033 -6.9802
v 22.7698 14.0033 -0.8185
v 26.0950 0.0000 -6.9802
v 19.9333 0.0000 -10.3054
v 19.9333 14.0033 -10.3054
v 26.0950 0.0000 -6.9802
v 19.9333 14.0033 -10.3054
v 26.0950 14.0033 -6.9802
v 19.9333 0.0000 -10.3054
v 16.6081 0.0000 -4.1437
v 16.6081 14.0033 -4.1437
v 19.9333 0.0000 -10.3054
v 16.6081 14.0033 -4.1437
v 19.9333 14.0033 -10.3054
v 16.6081 0.0000 -4.1437
v 22.7698 0.0000 -0.8185
v 22.7698 14.0033 -0.8185
v 16.6081 0.0000 -4.1437
v 22.7698 14.0033 -0.8185
v 16.6081 14.0033 -4.1437
v 22.7698 14.0033 -0.8185
v 23.6011 14.8785 -2.3589
v 17.4394 14.8785 -5.6841
v 22.7698 14.0033 -0.8185
v 17.4394 14.8785 -5.6841
v 16.6081 14.0033 -4.1437
v 23.6011 14.8785 -2.3589
v 24.4324 14.0033 -3.8994
v 18.2707 14.0033 -7.2246
v 23.6011 14.8785 -2.3589
v 18.2707 14.0033 -7.2246
v 17.4394 14.8785 -5.6841
v 24.4324 14.0033 -3.8994
v 23.6011 14.8785 -2.3589
v 22.7698 14.0033 -0.8185
v 16.6081 14.0033 -4.1437
v 17.4394 14.8785 -5.6841
v 18.2707 14.0033 -7.2246
v 24.4324 14.0033 -3.8994
v 25.2637 14.8785 -5.4398
v 19.1020 14.8785 -8.7650
v 24.4324 14.0033 -3.8994
v 19.1020 14.8785 -8.7650
v 18.2707 14.0033 -7.2246
v 25.2637 14.8785 -5.4398
v 26.0950 14.0033 -6.9802
v 19.9333 14.0033 -10.3054
v 25.2637 14.8785 -5.4398
v 19.9333 14.0033 -10.3054
v 19.1020 14.8785 -8.7650
v 26.0950 14.0033 -6.9802
v 25.2637 14.8785 -5.4398
v 24.4324 14.0033 -3.8994
v 18.2707 14.0033 -7.2246
v 19.1020 14.8785 -8.7650
v 19.9333 14.0033 -10.3054
v 16.6081 0.0000 -4.1437
v 19.9333 0.0000 -10.3054
v 26.0950 0.0000 -6.9802
v 16.6081 0.0000 -4.1437
v 26.0950 0.0000 -6.9802
v 22.7698 0.0000 -0.8185
vt 0.00781 0.21094
vt 0.38281 0.21094
vt 0.38281 0.99219
vt 0.00781 0.21094
vt 0.38281 0.99219
vt 0.00781 0.99219
vt 0.00781 0.21094
vt 0.38281 0.21094
vt 0.38281 0.99219
vt 0.00781 0.21094
vt 0.38281 0.99219
vt 0.00781 0.99219
vt 0.00781 0.21094
vt 0.38281 0.21094
vt 0.38281 0.99219
vt 0.00781 0.21094
vt 0.38281 0.99219
vt 0.00781 0.99219
vt 0.00781 0.21094
vt 0.38281 0.21094
vt 0.38281 0.99219
vt 0.00781 0.21094
vt 0.38281 0.99219
vt 0.00781 0.99219
vt 0.78906 0.17969
vt 0.97656 0.17969
vt 0.97656 0.33594
vt 0.78906 0.17969
vt 0.97656 0.33594
vt 0.78906 0.33594
vt 0.78906 0.17969
vt 0.97656 0.17969
vt 0.97656 0.33594
vt 0.78906 0.17969
vt 0.97656 0.33594
vt 0.78906 0.33594
vt 0.00781 0.09375
vt 0.19531 0.18750
vt 0.38281 0.09375
vt 0.00781 0.09375
vt 0.19531 0.18750
vt 0.38281 0.09375
vt 0.78906 0.17969
vt 0.97656 0.17969
vt 0.97656 0.33594
vt 0.78906 0.17969
vt 0.97656 0.33594
vt 0.78906 0.33594
vt 0.78906 0.17969
vt 0.97656 0.17969
vt 0.97656 0.33594
vt 0.78906 0.17969
vt 0.97656 0.33594
vt 0.78906 0.33594
vt 0.00781 0.09375
vt 0.19531 0.18750
vt 0.38281 0.09375
vt 0.00781 0.09375
vt 0.19531 0.18750
vt 0.38281 0.09375
vt 0.39844 0.03906
vt 0.52344 0.03906
vt 0.52344 0.16406
vt 0.39844 0.03906
vt 0.52344 0.16406
vt 0.39844 0.16406
vt 0.00781 0.21094
vt 0.38281 0.21094
vt 0.38281 0.99219
vt 0.00781 0.21094
vt 0.38281 0.99219
vt 0.00781 0.99219
vt 0.00781 0.21094
vt 0.38281 0.21094
vt 0.38281 0.99219
vt 0.00781 0.21094
vt 0.38281 0.99219
vt 0.00781 0.99219
vt 0.00781 0.21094
vt 0.38281 0.21094
vt 0.38281 0.99219
vt 0.00781 0.21094
vt 0.38281 0.99219
vt 0.00781 0.99219
vt 0.00781 0.21094
vt 0.38281 0.21094
vt 0.38281 0.99219
vt 0.00781 0.21094
vt 0.38281 0.99219
vt 0.00781 0.99219
vt 0.78906 0.17969
vt 0.97656 0.17969
vt 0.97656 0.33594
vt 0.78906 0.17969
vt 0.97656 0.33594
vt 0.78906 0.33594
vt 0.78906 0.17969
vt 0.97656 0.17969
vt 0.97656 0.33594
vt 0.78906 0.17969
vt 0.97656 0.33594
vt 0.78906 0.33594
vt 0.00781 0.09375
vt 0.19531 0.18750
vt 0.38281 0.09375
vt 0.00781 0.09375
vt 0.19531 0.18750
vt 0.38281 0.09375
vt 0.78906 0.17969
vt 0.97656 0.17969
vt 0.97656 0.33594
vt 0.78906 0.17969
vt 0.97656 0.33594
vt 0.78906 0.33594
vt 0.78906 0.17969
vt 0.97656 0.17969
vt 0.97656 0.33594
vt 0.78906 0.17969
vt 0.97656 0.33594
vt 0.78906 0.33594
vt 0.00781 0.09375
vt 0.19531 0.18750
vt 0.38281 0.09375
vt 0.00781 0.09375
vt 0.19531 0.18750
vt 0.38281 0.09375
vt 0.39844 0.03906
vt 0.52344 0.03906
vt 0.52344 0.16406
vt 0.39844 0.03906
vt 0.52344 0.16406
vt 0.39844 0.16406
usemtl district_facade
f 1/1 2/2 3/3
f 4/4 5/5 6/6
f 7/7 8/8 9/9
f 10/10 11/11 12/12
f 13/13 14/14 15/15
f 16/16 17/17 18/18
f 19/19 20/20 21/21
f 22/22 23/23 24/24
f 25/25 26/26 27/27
f 28/28 29/29 30/30
f 31/31 32/32 33/33
f 34/34 35/35 36/36
f 37/37 38/38 39/39
f 40/40 41/41 42/42
f 43/43 44/44 45/45
f 46/46 47/47 48/48
f 49/49 50/50 51/51
f 52/52 53/53 54/54
f 55/55 56/56 57/57
f 58/58 59/59 60/60
f 61/61 62/62 63/63
f 64/64 65/65 66/66
f 67/67 68/68 69/69
f 70/70 71/71 72/72
f 73/73 74/74 75/75
f 76/76 77/77 78/78
f 79/79 80/80 81/81
f 82/82 83/83 84/84
f 85/85 86/86 87/87
f 88/88 89/89 90/90
f 91/91 92/92 93/93
f 94/94 95/95 96/96
f 97/97 98/98 99/99
f 100/100 101/101 102/102
f 103/103 104/104 105/105
f 106/106 107/107 108/108
f 109/109 110/110 111/111
f 112/112 113/113 114/114
f 115/115 116/116 117/117
f 118/118 119/119 120/120
f 121/121 122/122 123/123
f 124/124 125/125 126/126
f 127/127 128/128 129/129
f 130/130 131/131 132/132
