# Generated by TyraX. Do not edit - rebaked from the procedural graph of 'Painted district scatter'.
# 1 instances of res/models/urban/district-loft.obj
mtllib district-buildings.mtl
v 4.0070 0.0000 18.3343
v 8.4036 0.0000 12.1229
v 8.4036 9.1319 12.1229
v 4.0070 0.0000 18.3343
v 8.4036 9.1319 12.1229
v 4.0070 9.1319 18.3343
v 8.4036 0.0000 12.1229
v 2.1922 0.0000 7.7264
v 2.1922 9.1319 7.7264
v 8.4036 0.0000 12.1229
v 2.1922 9.1319 7.7264
v 8.4036 9.1319 12.1229
v 2.1922 0.0000 7.7264
v -2.2043 0.0000 13.9377
v -2.2043 9.1319 13.9377
v 2.1922 0.0000 7.7264
v -2.2043 9.1319 13.9377
v 2.1922 9.1319 7.7264
v -2.2043 0.0000 13.9377
v 4.0070 0.0000 18.3343
v 4.0070 9.1319 18.3343
v -2.2043 0.0000 13.9377
v 4.0070 9.1319 18.3343
v -2.2043 9.1319 13.9377
v 4.0070 9.1319 18.3343
v 5.1061 10.0831 16.7814
v -1.1052 10.0831 12.3849
v 4.0070 9.1319 18.3343
v -1.1052 10.0831 12.3849
v -2.2043 9.1319 13.9377
v 5.1061 10.0831 16.7814
v 6.2053 9.1319 15.2286
v -0.0061 9.1319 10.8321
v 5.1061 10.0831 16.7814
v -0.0061 9.1319 10.8321
v -1.1052 10.0831 12.3849
v 6.2053 9.1319 15.2286
v 5.1061 10.0831 16.7814
v 4.0070 9.1319 18.3343
v -2.2043 9.1319 13.9377
v -1.1052 10.0831 12.3849
v -0.0061 9.1319 10.8321
v 6.2053 9.1319 15.2286
v 7.3044 10.0831 13.6758
v 1.0931 10.0831 9.2792
v 6.2053 9.1319 15.2286
v 1.0931 10.0831 9.2792
v -0.0061 9.1319 10.8321
v 7.3044 10.0831 13.6758
v 8.4036 9.1319 12.1229
v 2.1922 9.1319 7.7264
v 7.3044 10.0831 13.6758
v 2.1922 9.1319 7.7264
v 1.0931 10.0831 9.2792
v 8.4036 9.1319 12.1229
v 7.3044 10.0831 13.6758
v 6.2053 9.1319 15.2286
v -0.0061 9.1319 10.8321
v 1.0931 10.0831 9.2792
v 2.1922 9.1319 7.7264
v -2.2043 0.0000 13.9377
v 2.1922 0.0000 7.7264
v 8.4036 0.0000 12.1229
v -2.2043 0.0000 13.9377
v 8.4036 0.0000 12.1229
v 4.0070 0.0000 18.3343
vt 0.39844 0.52344
vt 0.77344 0.52344
vt 0.77344 0.99219
vt 0.39844 0.52344
vt 0.77344 0.99219
vt 0.39844 0.99219
vt 0.39844 0.52344
vt 0.77344 0.52344
vt 0.77344 0.99219
vt 0.39844 0.52344
vt 0.77344 0.99219
vt 0.39844 0.99219
vt 0.39844 0.52344
vt 0.77344 0.52344
vt 0.77344 0.99219
vt 0.39844 0.52344
vt 0.77344 0.99219
vt 0.39844 0.99219
vt 0.39844 0.52344
vt 0.77344 0.52344
vt 0.77344 0.99219
vt 0.39844 0.52344
vt 0.77344 0.99219
vt 0.39844 0.99219
vt 0.78906 0.17969
vt 0.97656 0.17969
vt 0.97656 0.33594
vt 0.78906 0.17969
vt 0.97656 0.33594
vt 0.78906 0.33594
vt 0.78906 0.17969
vt 0.97656 0.17969
vt 0.97656 0.33594
vt 0.78906 0.17969
vt 0.97656 0.33594
vt 0.78906 0.33594
vt 0.00781 0.09375
vt 0.19531 0.18750
vt 0.38281 0.09375
vt 0.00781 0.09375
vt 0.19531 0.18750
vt 0.38281 0.09375
vt 0.78906 0.17969
vt 0.97656 0.17969
vt 0.97656 0.33594
vt 0.78906 0.17969
vt 0.97656 0.33594
vt 0.78906 0.33594
vt 0.78906 0.17969
vt 0.97656 0.17969
vt 0.97656 0.33594
vt 0.78906 0.17969
vt 0.97656 0.33594
vt 0.78906 0.33594
vt 0.00781 0.09375
vt 0.19531 0.18750
vt 0.38281 0.09375
vt 0.00781 0.09375
vt 0.19531 0.18750
vt 0.38281 0.09375
vt 0.39844 0.03906
vt 0.52344 0.03906
vt 0.52344 0.16406
vt 0.39844 0.03906
vt 0.52344 0.16406
vt 0.39844 0.16406
usemtl district_facade
f 1/1 2/2 3/3
f 4/4 5/5 6/6
f 7/7 8/8 9/9
f 10/10 11/11 12/12
f 13/13 14/14 15/15
f 16/16 17/17 18/18
f 19/19 20/20 21/21
f 22/22 23/23 24/24
f 25/25 26/26 27/27
f 28/28 29/29 30/30
f 31/31 32/32 33/33
f 34/34 35/35 36/36
f 37/37 38/38 39/39
f 40/40 41/41 42/42
f 43/43 44/44 45/45
f 46/46 47/47 48/48
f 49/49 50/50 51/51
f 52/52 53/53 54/54
f 55/55 56/56 57/57
f 58/58 59/59 60/60
f 61/61 62/62 63/63
f 64/64 65/65 66/66
