# Generated by authoring/make-props.py
mtllib props.mtl
usemtl wood
v -0.6500 0.7100 -0.4000
v 0.6500 0.7100 -0.4000
v 0.6500 0.7700 -0.4000
v -0.6500 0.7700 -0.4000
v -0.6500 0.7100 0.4000
v 0.6500 0.7100 0.4000
v 0.6500 0.7700 0.4000
v -0.6500 0.7700 0.4000
f 1 4 3 2
f 5 6 7 8
f 1 2 6 5
f 4 8 7 3
f 1 5 8 4
f 2 3 7 6
usemtl darkwood
v -0.5700 0.0000 -0.3200
v -0.5000 0.0000 -0.3200
v -0.5000 0.7100 -0.3200
v -0.5700 0.7100 -0.3200
v -0.5700 0.0000 -0.2500
v -0.5000 0.0000 -0.2500
v -0.5000 0.7100 -0.2500
v -0.5700 0.7100 -0.2500
f 9 12 11 10
f 13 14 15 16
f 9 10 14 13
f 12 16 15 11
f 9 13 16 12
f 10 11 15 14
v -0.5700 0.0000 0.2500
v -0.5000 0.0000 0.2500
v -0.5000 0.7100 0.2500
v -0.5700 0.7100 0.2500
v -0.5700 0.0000 0.3200
v -0.5000 0.0000 0.3200
v -0.5000 0.7100 0.3200
v -0.5700 0.7100 0.3200
f 17 20 19 18
f 21 22 23 24
f 17 18 22 21
f 20 24 23 19
f 17 21 24 20
f 18 19 23 22
v 0.5000 0.0000 -0.3200
v 0.5700 0.0000 -0.3200
v 0.5700 0.7100 -0.3200
v 0.5000 0.7100 -0.3200
v 0.5000 0.0000 -0.2500
v 0.5700 0.0000 -0.2500
v 0.5700 0.7100 -0.2500
v 0.5000 0.7100 -0.2500
f 25 28 27 26
f 29 30 31 32
f 25 26 30 29
f 28 32 31 27
f 25 29 32 28
f 26 27 31 30
v 0.5000 0.0000 0.2500
v 0.5700 0.0000 0.2500
v 0.5700 0.7100 0.2500
v 0.5000 0.7100 0.2500
v 0.5000 0.0000 0.3200
v 0.5700 0.0000 0.3200
v 0.5700 0.7100 0.3200
v 0.5000 0.7100 0.3200
f 33 36 35 34
f 37 38 39 40
f 33 34 38 37
f 36 40 39 35
f 33 37 40 36
f 34 35 39 38
