# pillar - generated for the procedural example (see README)
mtllib props.mtl
v 0.6200 0.0000 0.0000
v 0.6200 0.2500 0.0000
v 0.3100 0.0000 0.5369
v 0.3100 0.2500 0.5369
v -0.3100 0.0000 0.5369
v -0.3100 0.2500 0.5369
v -0.6200 0.0000 0.0000
v -0.6200 0.2500 0.0000
v -0.3100 0.0000 -0.5369
v -0.3100 0.2500 -0.5369
v 0.3100 0.0000 -0.5369
v 0.3100 0.2500 -0.5369
v 0.0000 0.0000 0.0000
v 0.0000 0.2500 0.0000
v 0.4500 0.2500 0.0000
v 0.4500 2.6500 0.0000
v 0.2250 0.2500 0.3897
v 0.2250 2.6500 0.3897
v -0.2250 0.2500 0.3897
v -0.2250 2.6500 0.3897
v -0.4500 0.2500 0.0000
v -0.4500 2.6500 0.0000
v -0.2250 0.2500 -0.3897
v -0.2250 2.6500 -0.3897
v 0.2250 0.2500 -0.3897
v 0.2250 2.6500 -0.3897
v 0.0000 0.2500 0.0000
v 0.0000 2.6500 0.0000
v 0.6000 2.6500 0.0000
v 0.6000 2.9500 0.0000
v 0.3000 2.6500 0.5196
v 0.3000 2.9500 0.5196
v -0.3000 2.6500 0.5196
v -0.3000 2.9500 0.5196
v -0.6000 2.6500 0.0000
v -0.6000 2.9500 0.0000
v -0.3000 2.6500 -0.5196
v -0.3000 2.9500 -0.5196
v 0.3000 2.6500 -0.5196
v 0.3000 2.9500 -0.5196
v 0.0000 2.6500 0.0000
v 0.0000 2.9500 0.0000
usemtl sandstone
f 1 3 4
f 1 4 2
f 13 3 1
f 14 2 4
f 3 5 6
f 3 6 4
f 13 5 3
f 14 4 6
f 5 7 8
f 5 8 6
f 13 7 5
f 14 6 8
f 7 9 10
f 7 10 8
f 13 9 7
f 14 8 10
f 9 11 12
f 9 12 10
f 13 11 9
f 14 10 12
f 11 1 2
f 11 2 12
f 13 1 11
f 14 12 2
f 15 17 18
f 15 18 16
f 27 17 15
f 28 16 18
f 17 19 20
f 17 20 18
f 27 19 17
f 28 18 20
f 19 21 22
f 19 22 20
f 27 21 19
f 28 20 22
f 21 23 24
f 21 24 22
f 27 23 21
f 28 22 24
f 23 25 26
f 23 26 24
f 27 25 23
f 28 24 26
f 25 15 16
f 25 16 26
f 27 15 25
f 28 26 16
f 29 31 32
f 29 32 30
f 41 31 29
f 42 30 32
f 31 33 34
f 31 34 32
f 41 33 31
f 42 32 34
f 33 35 36
f 33 36 34
f 41 35 33
f 42 34 36
f 35 37 38
f 35 38 36
f 41 37 35
f 42 36 38
f 37 39 40
f 37 40 38
f 41 39 37
f 42 38 40
f 39 29 30
f 39 30 40
f 41 29 39
f 42 40 30
