# post - generated for the procedural example (see README)
mtllib props.mtl
v -0.0900 0.0000 -0.0900
v 0.0900 0.0000 -0.0900
v 0.0900 1.5000 -0.0900
v -0.0900 1.5000 -0.0900
v -0.0900 0.0000 0.0900
v 0.0900 0.0000 0.0900
v 0.0900 1.5000 0.0900
v -0.0900 1.5000 0.0900
v -0.7500 0.9500 -0.0500
v 0.7500 0.9500 -0.0500
v 0.7500 1.0900 -0.0500
v -0.7500 1.0900 -0.0500
v -0.7500 0.9500 0.0500
v 0.7500 0.9500 0.0500
v 0.7500 1.0900 0.0500
v -0.7500 1.0900 0.0500
usemtl wood
f 1 2 3
f 1 3 4
f 6 5 8
f 6 8 7
f 5 1 4
f 5 4 8
f 2 6 7
f 2 7 3
f 4 3 7
f 4 7 8
f 5 6 2
f 5 2 1
f 9 10 11
f 9 11 12
f 14 13 16
f 14 16 15
f 13 9 12
f 13 12 16
f 10 14 15
f 10 15 11
f 12 11 15
f 12 15 16
f 13 14 10
f 13 10 9
