# Generated by TyraX. Do not edit - rebaked from the procedural graph of 'forest'.
# 12 instances of res/models/rock.obj
mtllib props.mtl
v -16.1905 -0.3180 11.6577
v -15.4937 0.0614 11.5248
v -16.7661 0.0804 12.0160
v -16.1905 -0.3180 11.6577
v -16.7661 0.0804 12.0160
v -15.4937 0.0614 11.5248
v -10.3581 1.4430 16.4810
v -10.7260 1.8196 15.9454
v -9.7322 1.7294 16.7366
v -10.3581 1.4430 16.4810
v -9.7322 1.7294 16.7366
v -10.7260 1.8196 15.9454
v 8.3203 1.5604 33.4792
v 7.2481 1.9602 33.3496
v 9.1690 2.1803 33.0756
v 8.3203 1.5604 33.4792
v 9.1690 2.1803 33.0756
v 7.2481 1.9602 33.3496
v -29.0163 2.5587 -28.3212
v -29.4174 2.8753 -28.9289
v -28.4999 3.0055 -27.9524
v -29.0163 2.5587 -28.3212
v -28.4999 3.0055 -27.9524
v -29.4174 2.8753 -28.9289
v -19.8144 1.0436 34.0290
v -20.9297 1.5745 33.5781
v -18.7213 1.6990 33.8605
v -19.8144 1.0436 34.0290
v -18.7213 1.6990 33.8605
v -20.9297 1.5745 33.5781
v -3.3330 2.5912 32.3577
v -3.2513 2.8342 32.8429
v -3.5971 2.8650 31.9796
v -3.3330 2.5912 32.3577
v -3.5971 2.8650 31.9796
v -3.2513 2.8342 32.8429
v 32.1603 0.5448 -2.0670
v 32.8004 0.8488 -2.2908
v 31.7566 0.9122 -1.5876
v 32.1603 0.5448 -2.0670
v 31.7566 0.9122 -1.5876
v 32.8004 0.8488 -2.2908
v -30.7966 2.2001 -33.1330
v -31.0550 2.6536 -32.1822
v -31.1097 2.6890 -34.0203
v -30.7966 2.2001 -33.1330
v -31.1097 2.6890 -34.0203
v -31.0550 2.6536 -32.1822
v 30.5478 0.4078 0.2970
v 31.1436 0.9534 1.3559
v 29.7078 1.1391 -0.3775
v 30.5478 0.4078 0.2970
v 29.7078 1.1391 -0.3775
v 31.1436 0.9534 1.3559
v -19.1500 1.2822 -34.7314
v -19.9571 1.6916 -35.0368
v -18.3550 1.7654 -34.8111
v -19.1500 1.2822 -34.7314
v -18.3550 1.7654 -34.8111
v -19.9571 1.6916 -35.0368
v -24.2275 -0.2572 -8.1495
v -23.6981 0.1113 -7.6890
v -24.8800 0.1202 -8.3286
v -24.2275 -0.2572 -8.1495
v -24.8800 0.1202 -8.3286
v -23.6981 0.1113 -7.6890
v 1.2845 2.4443 32.8462
v 1.0641 2.7051 33.2828
v 1.2914 2.7043 32.3707
v 1.2845 2.4443 32.8462
v 1.2914 2.7043 32.3707
v 1.0641 2.7051 33.2828
vt 0.00000 1.00000
vt 0.00000 1.00000
vt 0.00000 1.00000
vt 0.00000 1.00000
vt 0.00000 1.00000
vt 0.00000 1.00000
vt 0.00000 1.00000
vt 0.00000 1.00000
vt 0.00000 1.00000
vt 0.00000 1.00000
vt 0.00000 1.00000
vt 0.00000 1.00000
vt 0.00000 1.00000
vt 0.00000 1.00000
vt 0.00000 1.00000
vt 0.00000 1.00000
vt 0.00000 1.00000
vt 0.00000 1.00000
vt 0.00000 1.00000
vt 0.00000 1.00000
vt 0.00000 1.00000
vt 0.00000 1.00000
vt 0.00000 1.00000
vt 0.00000 1.00000
vt 0.00000 1.00000
vt 0.00000 1.00000
vt 0.00000 1.00000
vt 0.00000 1.00000
vt 0.00000 1.00000
vt 0.00000 1.00000
vt 0.00000 1.00000
vt 0.00000 1.00000
vt 0.00000 1.00000
vt 0.00000 1.00000
vt 0.00000 1.00000
vt 0.00000 1.00000
vt 0.00000 1.00000
vt 0.00000 1.00000
vt 0.00000 1.00000
vt 0.00000 1.00000
vt 0.00000 1.00000
vt 0.00000 1.00000
vt 0.00000 1.00000
vt 0.00000 1.00000
vt 0.00000 1.00000
vt 0.00000 1.00000
vt 0.00000 1.00000
vt 0.00000 1.00000
vt 0.00000 1.00000
vt 0.00000 1.00000
vt 0.00000 1.00000
vt 0.00000 1.00000
vt 0.00000 1.00000
vt 0.00000 1.00000
vt 0.00000 1.00000
vt 0.00000 1.00000
vt 0.00000 1.00000
vt 0.00000 1.00000
vt 0.00000 1.00000
vt 0.00000 1.00000
vt 0.00000 1.00000
vt 0.00000 1.00000
vt 0.00000 1.00000
vt 0.00000 1.00000
vt 0.00000 1.00000
vt 0.00000 1.00000
vt 0.00000 1.00000
vt 0.00000 1.00000
vt 0.00000 1.00000
vt 0.00000 1.00000
vt 0.00000 1.00000
vt 0.00000 1.00000
usemtl stone
f 1/1 2/2 3/3
f 4/4 5/5 6/6
f 7/7 8/8 9/9
f 10/10 11/11 12/12
f 13/13 14/14 15/15
f 16/16 17/17 18/18
f 19/19 20/20 21/21
f 22/22 23/23 24/24
f 25/25 26/26 27/27
f 28/28 29/29 30/30
f 31/31 32/32 33/33
f 34/34 35/35 36/36
f 37/37 38/38 39/39
f 40/40 41/41 42/42
f 43/43 44/44 45/45
f 46/46 47/47 48/48
f 49/49 50/50 51/51
f 52/52 53/53 54/54
f 55/55 56/56 57/57
f 58/58 59/59 60/60
f 61/61 62/62 63/63
f 64/64 65/65 66/66
f 67/67 68/68 69/69
f 70/70 71/71 72/72
