# Generated by TyraX. Do not edit - rebaked from the procedural graph of 'forest'.
# 12 instances of res/models/pine.obj
mtllib props.mtl
v 22.7165 -0.9396 15.6005
v 22.7243 0.5360 15.6509
v 23.0588 0.5346 15.6383
v 22.7165 -0.9396 15.6005
v 23.0462 0.5461 15.3041
v 22.7243 0.5360 15.6509
v 23.0462 0.5461 15.3041
v 22.7165 -0.9396 15.6005
v 23.0588 0.5346 15.6383
v 22.7243 0.5360 15.6509
v 23.0462 0.5461 15.3041
v 23.0588 0.5346 15.6383
v -29.9981 0.0243 -33.2422
v -29.9315 1.9776 -33.1784
v -30.3521 1.9873 -33.0388
v -29.9981 0.0243 -33.2422
v -30.2131 1.9689 -32.6184
v -29.9315 1.9776 -33.1784
v -30.2131 1.9689 -32.6184
v -29.9981 0.0243 -33.2422
v -30.3521 1.9873 -33.0388
v -29.9315 1.9776 -33.1784
v -30.2131 1.9689 -32.6184
v -30.3521 1.9873 -33.0388
v 30.9134 -1.4587 11.4575
v 30.9049 0.4115 11.4402
v 30.7525 0.4072 11.0446
v 30.9134 -1.4587 11.4575
v 30.3569 0.4068 11.1970
v 30.9049 0.4115 11.4402
v 30.3569 0.4068 11.1970
v 30.9134 -1.4587 11.4575
v 30.7525 0.4072 11.0446
v 30.9049 0.4115 11.4402
v 30.3569 0.4068 11.1970
v 30.7525 0.4072 11.0446
v 12.5331 -0.4015 34.6602
v 12.5226 1.2324 34.5647
v 12.3374 1.2124 34.2439
v 12.5331 -0.4015 34.6602
v 12.0159 1.2212 34.4289
v 12.5226 1.2324 34.5647
v 12.0159 1.2212 34.4289
v 12.5331 -0.4015 34.6602
v 12.3374 1.2124 34.2439
v 12.5226 1.2324 34.5647
v 12.0159 1.2212 34.4289
v 12.3374 1.2124 34.2439
v 21.1571 -0.0037 12.1949
v 21.3477 1.2979 12.2443
v 21.5701 1.2728 12.0470
v 21.1571 -0.0037 12.1949
v 21.3759 1.3097 11.8235
v 21.3477 1.2979 12.2443
v 21.3759 1.3097 11.8235
v 21.1571 -0.0037 12.1949
v 21.5701 1.2728 12.0470
v 21.3477 1.2979 12.2443
v 21.3759 1.3097 11.8235
v 21.5701 1.2728 12.0470
v 1.2459 5.4595 -12.8381
v 1.1077 6.9640 -12.6102
v 0.7684 6.9242 -12.5535
v 1.2459 5.4595 -12.8381
v 0.8301 6.8787 -12.2158
v 1.1077 6.9640 -12.6102
v 0.8301 6.8787 -12.2158
v 1.2459 5.4595 -12.8381
v 0.7684 6.9242 -12.5535
v 1.1077 6.9640 -12.6102
v 0.8301 6.8787 -12.2158
v 0.7684 6.9242 -12.5535
v -0.1668 1.1658 4.0641
v -0.2355 3.0589 4.1091
v -0.5371 3.0552 3.8033
v -0.1668 1.1658 4.0641
v -0.8425 3.0370 4.1048
v -0.2355 3.0589 4.1091
v -0.8425 3.0370 4.1048
v -0.1668 1.1658 4.0641
v -0.5371 3.0552 3.8033
v -0.2355 3.0589 4.1091
v -0.8425 3.0370 4.1048
v -0.5371 3.0552 3.8033
v 29.3408 0.0897 6.0386
v 29.8462 1.8755 5.9831
v 30.0111 1.8408 6.3687
v 29.3408 0.0897 6.0386
v 30.3810 1.7309 6.2006
v 29.8462 1.8755 5.9831
v 30.3810 1.7309 6.2006
v 29.3408 0.0897 6.0386
v 30.0111 1.8408 6.3687
v 29.8462 1.8755 5.9831
v 30.3810 1.7309 6.2006
v 30.0111 1.8408 6.3687
v -34.0306 2.5722 -25.8166
v -33.4683 4.1097 -25.8919
v -33.5855 4.1354 -26.2434
v -34.0306 2.5722 -25.8166
v -33.9142 4.2614 -26.1245
v -33.4683 4.1097 -25.8919
v -33.9142 4.2614 -26.1245
v -34.0306 2.5722 -25.8166
v -33.5855 4.1354 -26.2434
v -33.4683 4.1097 -25.8919
v -33.9142 4.2614 -26.1245
v -33.5855 4.1354 -26.2434
v -25.5259 0.4208 -30.3732
v -25.4364 1.8246 -30.3771
v -25.5811 1.8331 -30.6611
v -25.5259 0.4208 -30.3732
v -25.8645 1.8516 -30.5162
v -25.4364 1.8246 -30.3771
v -25.8645 1.8516 -30.5162
v -25.5259 0.4208 -30.3732
v -25.5811 1.8331 -30.6611
v -25.4364 1.8246 -30.3771
v -25.8645 1.8516 -30.5162
v -25.5811 1.8331 -30.6611
v 10.0257 6.3031 -13.0870
v 10.2228 7.8181 -13.0695
v 9.8795 7.8629 -13.0763
v 10.0257 6.3031 -13.0870
v 9.8722 7.8599 -12.7300
v 10.2228 7.8181 -13.0695
v 9.8722 7.8599 -12.7300
v 10.0257 6.3031 -13.0870
v 9.8795 7.8629 -13.0763
v 10.2228 7.8181 -13.0695
v 9.8722 7.8599 -12.7300
v 9.8795 7.8629 -13.0763
v 29.4596 -1.9714 14.3755
v 29.3458 0.0641 14.3713
v 28.9538 0.0427 14.6150
v 29.4596 -1.9714 14.3755
v 29.1971 0.0571 15.0076
v 29.3458 0.0641 14.3713
v 29.1971 0.0571 15.0076
v 29.4596 -1.9714 14.3755
v 28.9538 0.0427 14.6150
v 29.3458 0.0641 14.3713
v 29.1971 0.0571 15.0076
v 28.9538 0.0427 14.6150
vt 0.00000 1.00000
vt 0.00000 1.00000
vt 0.00000 1.00000
vt 0.00000 1.00000
vt 0.00000 1.00000
vt 0.00000 1.00000
vt 0.00000 1.00000
vt 0.00000 1.00000
vt 0.00000 1.00000
vt 0.00000 1.00000
vt 0.00000 1.00000
vt 0.00000 1.00000
vt 0.00000 1.00000
vt 0.00000 1.00000
vt 0.00000 1.00000
vt 0.00000 1.00000
vt 0.00000 1.00000
vt 0.00000 1.00000
vt 0.00000 1.00000
vt 0.00000 1.00000
vt 0.00000 1.00000
vt 0.00000 1.00000
vt 0.00000 1.00000
vt 0.00000 1.00000
vt 0.00000 1.00000
vt 0.00000 1.00000
vt 0.00000 1.00000
vt 0.00000 1.00000
vt 0.00000 1.00000
vt 0.00000 1.00000
vt 0.00000 1.00000
vt 0.00000 1.00000
vt 0.00000 1.00000
vt 0.00000 1.00000
vt 0.00000 1.00000
vt 0.00000 1.00000
vt 0.00000 1.00000
vt 0.00000 1.00000
vt 0.00000 1.00000
vt 0.00000 1.00000
vt 0.00000 1.00000
vt 0.00000 1.00000
vt 0.00000 1.00000
vt 0.00000 1.00000
vt 0.00000 1.00000
vt 0.00000 1.00000
vt 0.00000 1.00000
vt 0.00000 1.00000
vt 0.00000 1.00000
vt 0.00000 1.00000
vt 0.00000 1.00000
vt 0.00000 1.00000
vt 0.00000 1.00000
vt 0.00000 1.00000
vt 0.00000 1.00000
vt 0.00000 1.00000
vt 0.00000 1.00000
vt 0.00000 1.00000
vt 0.00000 1.00000
vt 0.00000 1.00000
vt 0.00000 1.00000
vt 0.00000 1.00000
vt 0.00000 1.00000
vt 0.00000 1.00000
vt 0.00000 1.00000
vt 0.00000 1.00000
vt 0.00000 1.00000
vt 0.00000 1.00000
vt 0.00000 1.00000
vt 0.00000 1.00000
vt 0.00000 1.00000
vt 0.00000 1.00000
vt 0.00000 1.00000
vt 0.00000 1.00000
vt 0.00000 1.00000
vt 0.00000 1.00000
vt 0.00000 1.00000
vt 0.00000 1.00000
vt 0.00000 1.00000
vt 0.00000 1.00000
vt 0.00000 1.00000
vt 0.00000 1.00000
vt 0.00000 1.00000
vt 0.00000 1.00000
vt 0.00000 1.00000
vt 0.00000 1.00000
vt 0.00000 1.00000
vt 0.00000 1.00000
vt 0.00000 1.00000
vt 0.00000 1.00000
vt 0.00000 1.00000
vt 0.00000 1.00000
vt 0.00000 1.00000
vt 0.00000 1.00000
vt 0.00000 1.00000
vt 0.00000 1.00000
vt 0.00000 1.00000
vt 0.00000 1.00000
vt 0.00000 1.00000
vt 0.00000 1.00000
vt 0.00000 1.00000
vt 0.00000 1.00000
vt 0.00000 1.00000
vt 0.00000 1.00000
vt 0.00000 1.00000
vt 0.00000 1.00000
vt 0.00000 1.00000
vt 0.00000 1.00000
vt 0.00000 1.00000
vt 0.00000 1.00000
vt 0.00000 1.00000
vt 0.00000 1.00000
vt 0.00000 1.00000
vt 0.00000 1.00000
vt 0.00000 1.00000
vt 0.00000 1.00000
vt 0.00000 1.00000
vt 0.00000 1.00000
vt 0.00000 1.00000
vt 0.00000 1.00000
vt 0.00000 1.00000
vt 0.00000 1.00000
vt 0.00000 1.00000
vt 0.00000 1.00000
vt 0.00000 1.00000
vt 0.00000 1.00000
vt 0.00000 1.00000
vt 0.00000 1.00000
vt 0.00000 1.00000
vt 0.00000 1.00000
vt 0.00000 1.00000
vt 0.00000 1.00000
vt 0.00000 1.00000
vt 0.00000 1.00000
vt 0.00000 1.00000
vt 0.00000 1.00000
vt 0.00000 1.00000
vt 0.00000 1.00000
vt 0.00000 1.00000
vt 0.00000 1.00000
vt 0.00000 1.00000
vt 0.00000 1.00000
vt 0.00000 1.00000
vt 0.00000 1.00000
usemtl bark
f 1/1 2/2 3/3
f 4/4 5/5 6/6
f 7/7 8/8 9/9
f 10/10 11/11 12/12
f 13/13 14/14 15/15
f 16/16 17/17 18/18
f 19/19 20/20 21/21
f 22/22 23/23 24/24
f 25/25 26/26 27/27
f 28/28 29/29 30/30
f 31/31 32/32 33/33
f 34/34 35/35 36/36
f 37/37 38/38 39/39
f 40/40 41/41 42/42
f 43/43 44/44 45/45
f 46/46 47/47 48/48
f 49/49 50/50 51/51
f 52/52 53/53 54/54
f 55/55 56/56 57/57
f 58/58 59/59 60/60
f 61/61 62/62 63/63
f 64/64 65/65 66/66
f 67/67 68/68 69/69
f 70/70 71/71 72/72
f 73/73 74/74 75/75
f 76/76 77/77 78/78
f 79/79 80/80 81/81
f 82/82 83/83 84/84
f 85/85 86/86 87/87
f 88/88 89/89 90/90
f 91/91 92/92 93/93
f 94/94 95/95 96/96
f 97/97 98/98 99/99
f 100/100 101/101 102/102
f 103/103 104/104 105/105
f 106/106 107/107 108/108
f 109/109 110/110 111/111
f 112/112 113/113 114/114
f 115/115 116/116 117/117
f 118/118 119/119 120/120
f 121/121 122/122 123/123
f 124/124 125/125 126/126
f 127/127 128/128 129/129
f 130/130 131/131 132/132
f 133/133 134/134 135/135
f 136/136 137/137 138/138
f 139/139 140/140 141/141
f 142/142 143/143 144/144
v 22.8921 1.8199 15.5211
v 23.8573 0.1115 16.3671
v 21.9794 0.1191 16.4378
v 23.7870 0.1759 14.4903
v 21.9794 0.1191 16.4378
v 23.8573 0.1115 16.3671
v 22.8921 1.8199 15.5211
v 21.9794 0.1191 16.4378
v 21.9091 0.1835 14.5610
v 23.7870 0.1759 14.4903
v 21.9091 0.1835 14.5610
v 21.9794 0.1191 16.4378
v 22.8921 1.8199 15.5211
v 21.9091 0.1835 14.5610
v 23.7870 0.1759 14.4903
v 22.8921 1.8199 15.5211
v 23.7870 0.1759 14.4903
v 23.8573 0.1115 16.3671
v 22.8968 2.7052 15.5513
v 23.8726 1.2257 15.4640
v 22.9258 1.1959 16.4840
v 22.8968 2.7052 15.5513
v 22.9258 1.1959 16.4840
v 21.9053 1.2336 15.5380
v 22.8968 2.7052 15.5513
v 21.9053 1.2336 15.5380
v 22.8521 1.2634 14.5179
v 22.9258 1.1959 16.4840
v 22.8521 1.2634 14.5179
v 21.9053 1.2336 15.5380
v 22.8968 2.7052 15.5513
v 22.8521 1.2634 14.5179
v 23.8726 1.2257 15.4640
v 22.9258 1.1959 16.4840
v 23.8726 1.2257 15.4640
v 22.8521 1.2634 14.5179
v 22.9010 3.4922 15.5782
v 23.5040 2.2109 15.5116
v 22.9170 2.1924 16.1440
v 22.9010 3.4922 15.5782
v 22.9170 2.1924 16.1440
v 22.2844 2.2158 15.5575
v 22.9010 3.4922 15.5782
v 22.2844 2.2158 15.5575
v 22.8713 2.2343 14.9250
v 22.9170 2.1924 16.1440
v 22.8713 2.2343 14.9250
v 22.2844 2.2158 15.5575
v 22.9010 3.4922 15.5782
v 22.8713 2.2343 14.9250
v 23.5040 2.2109 15.5116
v 22.9170 2.1924 16.1440
v 23.5040 2.2109 15.5116
v 22.8713 2.2343 14.9250
v -30.0146 3.6661 -32.8431
v -31.6614 1.5316 -33.7041
v -29.2996 1.4768 -34.4877
v -30.8805 1.4279 -31.3431
v -29.2996 1.4768 -34.4877
v -31.6614 1.5316 -33.7041
v -30.0146 3.6661 -32.8431
v -29.2996 1.4768 -34.4877
v -28.5187 1.3730 -32.1267
v -30.8805 1.4279 -31.3431
v -28.5187 1.3730 -32.1267
v -29.2996 1.4768 -34.4877
v -30.0146 3.6661 -32.8431
v -28.5187 1.3730 -32.1267
v -30.8805 1.4279 -31.3431
v -30.0146 3.6661 -32.8431
v -30.8805 1.4279 -31.3431
v -31.6614 1.5316 -33.7041
v -29.9747 4.8381 -32.8048
v -31.2783 2.9135 -32.4582
v -30.4503 2.9391 -34.1052
v -29.9747 4.8381 -32.8048
v -30.4503 2.9391 -34.1052
v -28.8042 2.8560 -33.2790
v -29.9747 4.8381 -32.8048
v -28.8042 2.8560 -33.2790
v -29.6322 2.8304 -31.6320
v -30.4503 2.9391 -34.1052
v -29.6322 2.8304 -31.6320
v -28.8042 2.8560 -33.2790
v -29.9747 4.8381 -32.8048
v -29.6322 2.8304 -31.6320
v -31.2783 2.9135 -32.4582
v -30.4503 2.9391 -34.1052
v -31.2783 2.9135 -32.4582
v -29.6322 2.8304 -31.6320
v -29.9392 5.8798 -32.7707
v -30.7638 4.2048 -32.5716
v -30.2505 4.2206 -33.5928
v -29.9392 5.8798 -32.7707
v -30.2505 4.2206 -33.5928
v -29.2299 4.1691 -33.0805
v -29.9392 5.8798 -32.7707
v -29.2299 4.1691 -33.0805
v -29.7433 4.1533 -32.0593
v -30.2505 4.2206 -33.5928
v -29.7433 4.1533 -32.0593
v -29.2299 4.1691 -33.0805
v -29.9392 5.8798 -32.7707
v -29.7433 4.1533 -32.0593
v -30.7638 4.2048 -32.5716
v -30.2505 4.2206 -33.5928
v -30.7638 4.2048 -32.5716
v -29.7433 4.1533 -32.0593
v 30.6236 2.0299 11.3037
v 31.3160 -0.1007 9.7847
v 32.1717 -0.0763 12.0060
v 29.0947 -0.1028 10.6405
v 32.1717 -0.0763 12.0060
v 31.3160 -0.1007 9.7847
v 30.6236 2.0299 11.3037
v 32.1717 -0.0763 12.0060
v 29.9503 -0.0785 12.8617
v 29.0947 -0.1028 10.6405
v 29.9503 -0.0785 12.8617
v 32.1717 -0.0763 12.0060
v 30.6236 2.0299 11.3037
v 29.9503 -0.0785 12.8617
v 29.0947 -0.1028 10.6405
v 30.6236 2.0299 11.3037
v 29.0947 -0.1028 10.6405
v 31.3160 -0.1007 9.7847
v 30.6185 3.1520 11.2933
v 30.1788 1.2691 10.1472
v 31.7904 1.2830 10.8624
v 30.6185 3.1520 11.2933
v 31.7904 1.2830 10.8624
v 31.0751 1.2946 12.4740
v 30.6185 3.1520 11.2933
v 31.0751 1.2946 12.4740
v 29.4635 1.2807 11.7588
v 31.7904 1.2830 10.8624
v 29.4635 1.2807 11.7588
v 31.0751 1.2946 12.4740
v 30.6185 3.1520 11.2933
v 29.4635 1.2807 11.7588
v 30.1788 1.2691 10.1472
v 31.7904 1.2830 10.8624
v 30.1788 1.2691 10.1472
v 29.4635 1.2807 11.7588
v 30.6139 4.1494 11.2841
v 30.3434 2.5207 10.5778
v 31.3427 2.5293 11.0212
v 30.6139 4.1494 11.2841
v 31.3427 2.5293 11.0212
v 30.8992 2.5365 12.0204
v 30.6139 4.1494 11.2841
v 30.8992 2.5365 12.0204
v 29.8999 2.5279 11.5770
v 31.3427 2.5293 11.0212
v 29.8999 2.5279 11.5770
v 30.8992 2.5365 12.0204
v 30.6139 4.1494 11.2841
v 29.8999 2.5279 11.5770
v 30.3434 2.5207 10.5778
v 31.3427 2.5293 11.0212
v 30.3434 2.5207 10.5778
v 29.8999 2.5279 11.5770
v 12.2602 2.6429 34.4140
v 12.6543 0.7104 33.1019
v 13.6947 0.8225 34.9033
v 10.8495 0.7596 34.1413
v 13.6947 0.8225 34.9033
v 12.6543 0.7104 33.1019
v 12.2602 2.6429 34.4140
v 13.6947 0.8225 34.9033
v 11.8899 0.8717 35.9427
v 10.8495 0.7596 34.1413
v 11.8899 0.8717 35.9427
v 13.6947 0.8225 34.9033
v 12.2602 2.6429 34.4140
v 11.8899 0.8717 35.9427
v 10.8495 0.7596 34.1413
v 12.2602 2.6429 34.4140
v 10.8495 0.7596 34.1413
v 12.6543 0.7104 33.1019
v 12.2539 3.6232 34.3566
v 11.7194 1.9306 33.5087
v 13.2097 1.9635 33.9078
v 12.2539 3.6232 34.3566
v 13.2097 1.9635 33.9078
v 12.8094 2.0480 35.3957
v 12.2539 3.6232 34.3566
v 12.8094 2.0480 35.3957
v 11.3191 2.0151 34.9966
v 13.2097 1.9635 33.9078
v 11.3191 2.0151 34.9966
v 12.8094 2.0480 35.3957
v 12.2539 3.6232 34.3566
v 11.3191 2.0151 34.9966
v 11.7194 1.9306 33.5087
v 13.2097 1.9635 33.9078
v 11.7194 1.9306 33.5087
v 11.3191 2.0151 34.9966
v 12.2483 4.4947 34.3056
v 11.9195 3.0422 33.8035
v 12.8435 3.0626 34.0509
v 12.2483 4.4947 34.3056
v 12.8435 3.0626 34.0509
v 12.5953 3.1150 34.9734
v 12.2483 4.4947 34.3056
v 12.5953 3.1150 34.9734
v 11.6713 3.0946 34.7260
v 12.8435 3.0626 34.0509
v 11.6713 3.0946 34.7260
v 12.5953 3.1150 34.9734
v 12.2483 4.4947 34.3056
v 11.6713 3.0946 34.7260
v 11.9195 3.0422 33.8035
v 12.8435 3.0626 34.0509
v 11.9195 3.0422 33.8035
v 11.6713 3.0946 34.7260
v 21.5270 2.4318 12.0768
v 22.4806 0.7827 12.0943
v 21.2317 0.9235 13.2023
v 21.3903 0.9900 10.8391
v 21.2317 0.9235 13.2023
v 22.4806 0.7827 12.0943
v 21.5270 2.4318 12.0768
v 21.2317 0.9235 13.2023
v 20.1414 1.1308 11.9472
v 21.3903 0.9900 10.8391
v 20.1414 1.1308 11.9472
v 21.2317 0.9235 13.2023
v 21.5270 2.4318 12.0768
v 20.1414 1.1308 11.9472
v 21.3903 0.9900 10.8391
v 21.5270 2.4318 12.0768
v 21.3903 0.9900 10.8391
v 22.4806 0.7827 12.0943
v 21.6413 3.2128 12.1064
v 22.1049 1.8375 11.4766
v 22.0218 1.8026 12.7144
v 21.6413 3.2128 12.1064
v 22.0218 1.8026 12.7144
v 20.7966 1.9849 12.6374
v 21.6413 3.2128 12.1064
v 20.7966 1.9849 12.6374
v 20.8797 2.0198 11.3996
v 22.0218 1.8026 12.7144
v 20.8797 2.0198 11.3996
v 20.7966 1.9849 12.6374
v 21.6413 3.2128 12.1064
v 20.8797 2.0198 11.3996
v 22.1049 1.8375 11.4766
v 22.0218 1.8026 12.7144
v 22.1049 1.8375 11.4766
v 20.8797 2.0198 11.3996
v 21.7430 3.9069 12.1328
v 21.9833 2.7332 11.7301
v 21.9319 2.7116 12.4975
v 21.7430 3.9069 12.1328
v 21.9319 2.7116 12.4975
v 21.1722 2.8246 12.4498
v 21.7430 3.9069 12.1328
v 21.1722 2.8246 12.4498
v 21.2237 2.8462 11.6823
v 21.9319 2.7116 12.4975
v 21.2237 2.8462 11.6823
v 21.1722 2.8246 12.4498
v 21.7430 3.9069 12.1328
v 21.2237 2.8462 11.6823
v 21.9833 2.7332 11.7301
v 21.9319 2.7116 12.4975
v 21.9833 2.7332 11.7301
v 21.2237 2.8462 11.6823
v 0.8491 8.2252 -12.2155
v -0.1203 6.5362 -13.2628
v 1.7852 6.7595 -13.5811
v 0.2264 6.2808 -11.3664
v 1.7852 6.7595 -13.5811
v -0.1203 6.5362 -13.2628
v 0.8491 8.2252 -12.2155
v 1.7852 6.7595 -13.5811
v 2.1318 6.5041 -11.6847
v 0.2264 6.2808 -11.3664
v 2.1318 6.5041 -11.6847
v 1.7852 6.7595 -13.5811
v 0.8491 8.2252 -12.2155
v 2.1318 6.5041 -11.6847
v 0.2264 6.2808 -11.3664
v 0.8491 8.2252 -12.2155
v 0.2264 6.2808 -11.3664
v -0.1203 6.5362 -13.2628
v 0.7662 9.1279 -12.0787
v -0.0936 7.5065 -12.1399
v 0.7228 7.7572 -13.2999
v 0.7662 9.1279 -12.0787
v 0.7228 7.7572 -13.2999
v 1.9024 7.7404 -12.4733
v 0.7662 9.1279 -12.0787
v 1.9024 7.7404 -12.4733
v 1.0860 7.4896 -11.3133
v 0.7228 7.7572 -13.2999
v 1.0860 7.4896 -11.3133
v 1.9024 7.7404 -12.4733
v 0.7662 9.1279 -12.0787
v 1.0860 7.4896 -11.3133
v -0.0936 7.5065 -12.1399
v 0.7228 7.7572 -13.2999
v -0.0936 7.5065 -12.1399
v 1.0860 7.4896 -11.3133
v 0.6925 9.9302 -11.9572
v 0.1935 8.5539 -12.0513
v 0.6997 8.7093 -12.7705
v 0.6925 9.9302 -11.9572
v 0.6997 8.7093 -12.7705
v 1.4310 8.6989 -12.2580
v 0.6925 9.9302 -11.9572
v 1.4310 8.6989 -12.2580
v 0.9248 8.5434 -11.5388
v 0.6997 8.7093 -12.7705
v 0.9248 8.5434 -11.5388
v 1.4310 8.6989 -12.2580
v 0.6925 9.9302 -11.9572
v 0.9248 8.5434 -11.5388
v 0.1935 8.5539 -12.0513
v 0.6997 8.7093 -12.7705
v 0.1935 8.5539 -12.0513
v 0.9248 8.5434 -11.5388
v -0.5985 4.6887 4.1460
v -0.5099 2.5840 2.3900
v 1.1836 2.6046 4.1072
v -2.2250 2.4816 4.0827
v 1.1836 2.6046 4.1072
v -0.5099 2.5840 2.3900
v -0.5985 4.6887 4.1460
v 1.1836 2.6046 4.1072
v -0.5314 2.5022 5.7999
v -2.2250 2.4816 4.0827
v -0.5314 2.5022 5.7999
v 1.1836 2.6046 4.1072
v -0.5985 4.6887 4.1460
v -0.5314 2.5022 5.7999
v -2.2250 2.4816 4.0827
v -0.5985 4.6887 4.1460
v -2.2250 2.4816 4.0827
v -0.5099 2.5840 2.3900
v -0.6397 5.8246 4.1730
v -1.4581 3.9206 3.2286
v 0.3273 3.9851 3.2414
v -0.6397 5.8246 4.1730
v 0.3273 3.9851 3.2414
v 0.3160 3.9422 5.0274
v -0.6397 5.8246 4.1730
v 0.3160 3.9422 5.0274
v -1.4693 3.8778 5.0146
v 0.3273 3.9851 3.2414
v -1.4693 3.8778 5.0146
v 0.3160 3.9422 5.0274
v -0.6397 5.8246 4.1730
v -1.4693 3.8778 5.0146
v -1.4581 3.9206 3.2286
v 0.3273 3.9851 3.2414
v -1.4581 3.9206 3.2286
v -1.4693 3.8778 5.0146
v -0.6763 6.8343 4.1970
v -1.1667 5.1868 3.6003
v -0.0598 5.2268 3.6083
v -0.6763 6.8343 4.1970
v -0.0598 5.2268 3.6083
v -0.0668 5.2002 4.7156
v -0.6763 6.8343 4.1970
v -0.0668 5.2002 4.7156
v -1.1737 5.1603 4.7077
v -0.0598 5.2268 3.6083
v -1.1737 5.1603 4.7077
v -0.0668 5.2002 4.7156
v -0.6763 6.8343 4.1970
v -1.1737 5.1603 4.7077
v -1.1667 5.1868 3.6003
v -0.0598 5.2268 3.6083
v -1.1667 5.1868 3.6003
v -1.1737 5.1603 4.7077
v 30.5516 3.3508 6.0437
v 29.4034 1.5382 7.6612
v 28.4773 1.7329 5.4957
v 31.4803 0.9210 6.7176
v 28.4773 1.7329 5.4957
v 29.4034 1.5382 7.6612
v 30.5516 3.3508 6.0437
v 28.4773 1.7329 5.4957
v 30.5542 1.1157 4.5521
v 31.4803 0.9210 6.7176
v 30.5542 1.1157 4.5521
v 28.4773 1.7329 5.4957
v 30.5516 3.3508 6.0437
v 30.5542 1.1157 4.5521
v 31.4803 0.9210 6.7176
v 30.5516 3.3508 6.0437
v 31.4803 0.9210 6.7176
v 29.4034 1.5382 7.6612
v 30.8548 4.4223 6.0104
v 30.8345 2.5345 7.2002
v 29.2616 2.9598 6.5602
v 30.8548 4.4223 6.0104
v 29.2616 2.9598 6.5602
v 29.8644 2.7385 4.9317
v 30.8548 4.4223 6.0104
v 29.8644 2.7385 4.9317
v 31.4373 2.3133 5.5717
v 29.2616 2.9598 6.5602
v 31.4373 2.3133 5.5717
v 29.8644 2.7385 4.9317
v 30.8548 4.4223 6.0104
v 31.4373 2.3133 5.5717
v 30.8345 2.5345 7.2002
v 29.2616 2.9598 6.5602
v 30.8345 2.5345 7.2002
v 31.4373 2.3133 5.5717
v 31.1244 5.3747 5.9808
v 30.9871 3.7638 6.7321
v 30.0119 4.0274 6.3354
v 31.1244 5.3747 5.9808
v 30.0119 4.0274 6.3354
v 30.3856 3.8903 5.3257
v 31.1244 5.3747 5.9808
v 30.3856 3.8903 5.3257
v 31.3608 3.6266 5.7225
v 30.0119 4.0274 6.3354
v 31.3608 3.6266 5.7225
v 30.3856 3.8903 5.3257
v 31.1244 5.3747 5.9808
v 31.3608 3.6266 5.7225
v 30.9871 3.7638 6.7321
v 30.0119 4.0274 6.3354
v 30.9871 3.7638 6.7321
v 31.3608 3.6266 5.7225
v -33.2038 5.5181 -26.0734
v -33.2478 3.4939 -27.3089
v -32.5892 3.3496 -25.3349
v -35.0932 4.2015 -26.6414
v -32.5892 3.3496 -25.3349
v -33.2478 3.4939 -27.3089
v -33.2038 5.5181 -26.0734
v -32.5892 3.3496 -25.3349
v -34.4345 4.0572 -24.6674
v -35.0932 4.2015 -26.6414
v -34.4345 4.0572 -24.6674
v -32.5892 3.3496 -25.3349
v -33.2038 5.5181 -26.0734
v -34.4345 4.0572 -24.6674
v -35.0932 4.2015 -26.6414
v -33.2038 5.5181 -26.0734
v -35.0932 4.2015 -26.6414
v -33.2478 3.4939 -27.3089
v -32.8664 6.4406 -26.1186
v -33.7737 4.9787 -27.0773
v -32.4622 4.5324 -26.3929
v -32.8664 6.4406 -26.1186
v -32.4622 4.5324 -26.3929
v -33.0838 4.8275 -25.0094
v -32.8664 6.4406 -26.1186
v -33.0838 4.8275 -25.0094
v -34.3953 5.2737 -25.6937
v -32.4622 4.5324 -26.3929
v -34.3953 5.2737 -25.6937
v -33.0838 4.8275 -25.0094
v -32.8664 6.4406 -26.1186
v -34.3953 5.2737 -25.6937
v -33.7737 4.9787 -27.0773
v -32.4622 4.5324 -26.3929
v -33.7737 4.9787 -27.0773
v -34.3953 5.2737 -25.6937
v -32.5664 7.2607 -26.1587
v -33.2677 5.9750 -26.7345
v -32.4546 5.6983 -26.3102
v -32.5664 7.2607 -26.1587
v -32.4546 5.6983 -26.3102
v -32.8399 5.8812 -25.4524
v -32.5664 7.2607 -26.1587
v -32.8399 5.8812 -25.4524
v -33.6531 6.1579 -25.8767
v -32.4546 5.6983 -26.3102
v -33.6531 6.1579 -25.8767
v -32.8399 5.8812 -25.4524
v -32.5664 7.2607 -26.1587
v -33.6531 6.1579 -25.8767
v -33.2677 5.9750 -26.7345
v -32.4546 5.6983 -26.3102
v -33.2677 5.9750 -26.7345
v -33.6531 6.1579 -25.8767
v -25.5728 3.0548 -30.4500
v -25.2847 1.4356 -31.6499
v -24.4724 1.3882 -30.0550
v -26.8762 1.5393 -30.8362
v -24.4724 1.3882 -30.0550
v -25.2847 1.4356 -31.6499
v -25.5728 3.0548 -30.4500
v -24.4724 1.3882 -30.0550
v -26.0639 1.4919 -29.2413
v -26.8762 1.5393 -30.8362
v -26.0639 1.4919 -29.2413
v -24.4724 1.3882 -30.0550
v -25.5728 3.0548 -30.4500
v -26.0639 1.4919 -29.2413
v -26.8762 1.5393 -30.8362
v -25.5728 3.0548 -30.4500
v -26.8762 1.5393 -30.8362
v -25.2847 1.4356 -31.6499
v -25.5191 3.8971 -30.4523
v -26.0341 2.5181 -31.2838
v -24.7751 2.4389 -30.8746
v -25.5191 3.8971 -30.4523
v -24.7751 2.4389 -30.8746
v -25.1832 2.4684 -29.6131
v -25.5191 3.8971 -30.4523
v -25.1832 2.4684 -29.6131
v -26.4422 2.5476 -30.0222
v -24.7751 2.4389 -30.8746
v -26.4422 2.5476 -30.0222
v -25.1832 2.4684 -29.6131
v -25.5191 3.8971 -30.4523
v -26.4422 2.5476 -30.0222
v -26.0341 2.5181 -31.2838
v -24.7751 2.4389 -30.8746
v -26.0341 2.5181 -31.2838
v -26.4422 2.5476 -30.0222
v -25.4714 4.6458 -30.4543
v -25.8128 3.4445 -30.9689
v -25.0321 3.3954 -30.7152
v -25.4714 4.6458 -30.4543
v -25.0321 3.3954 -30.7152
v -25.2852 3.4137 -29.9331
v -25.4714 4.6458 -30.4543
v -25.2852 3.4137 -29.9331
v -26.0658 3.4628 -30.1867
v -25.0321 3.3954 -30.7152
v -26.0658 3.4628 -30.1867
v -25.2852 3.4137 -29.9331
v -25.4714 4.6458 -30.4543
v -26.0658 3.4628 -30.1867
v -25.8128 3.4445 -30.9689
v -25.0321 3.3954 -30.7152
v -25.8128 3.4445 -30.9689
v -26.0658 3.4628 -30.1867
v 10.2184 9.1520 -12.8846
v 9.0513 7.5692 -13.8956
v 10.9793 7.3179 -13.8574
v 9.0105 7.5521 -11.9514
v 10.9793 7.3179 -13.8574
v 9.0513 7.5692 -13.8956
v 10.2184 9.1520 -12.8846
v 10.9793 7.3179 -13.8574
v 10.9386 7.3007 -11.9132
v 9.0105 7.5521 -11.9514
v 10.9386 7.3007 -11.9132
v 10.9793 7.3179 -13.8574
v 10.2184 9.1520 -12.8846
v 10.9386 7.3007 -11.9132
v 9.0105 7.5521 -11.9514
v 10.2184 9.1520 -12.8846
v 9.0105 7.5521 -11.9514
v 9.0513 7.5692 -13.8956
v 10.3367 10.0611 -12.8741
v 9.1296 8.6777 -12.9116
v 10.1609 8.5550 -13.9099
v 10.3367 10.0611 -12.8741
v 10.1609 8.5550 -13.9099
v 11.1494 8.4144 -12.8716
v 10.3367 10.0611 -12.8741
v 11.1494 8.4144 -12.8716
v 10.1182 8.5370 -11.8732
v 10.1609 8.5550 -13.9099
v 10.1182 8.5370 -11.8732
v 11.1494 8.4144 -12.8716
v 10.3367 10.0611 -12.8741
v 10.1182 8.5370 -11.8732
v 9.1296 8.6777 -12.9116
v 10.1609 8.5550 -13.9099
v 9.1296 8.6777 -12.9116
v 10.1182 8.5370 -11.8732
v 10.4418 10.8691 -12.8647
v 9.6448 9.6377 -12.8923
v 10.2842 9.5616 -13.5113
v 10.4418 10.8691 -12.8647
v 10.2842 9.5616 -13.5113
v 10.8971 9.4744 -12.8675
v 10.4418 10.8691 -12.8647
v 10.8971 9.4744 -12.8675
v 10.2577 9.5505 -12.2485
v 10.2842 9.5616 -13.5113
v 10.2577 9.5505 -12.2485
v 10.8971 9.4744 -12.8675
v 10.4418 10.8691 -12.8647
v 10.2577 9.5505 -12.2485
v 9.6448 9.6377 -12.8923
v 10.2842 9.5616 -13.5113
v 9.6448 9.6377 -12.8923
v 10.2577 9.5505 -12.2485
v 29.1728 1.8247 14.6858
v 27.5180 -0.5828 14.2726
v 29.7193 -0.4625 12.9040
v 28.8843 -0.5019 16.4771
v 29.7193 -0.4625 12.9040
v 27.5180 -0.5828 14.2726
v 29.1728 1.8247 14.6858
v 29.7193 -0.4625 12.9040
v 31.0856 -0.3816 15.1085
v 28.8843 -0.5019 16.4771
v 31.0856 -0.3816 15.1085
v 29.7193 -0.4625 12.9040
v 29.1728 1.8247 14.6858
v 31.0856 -0.3816 15.1085
v 28.8843 -0.5019 16.4771
v 29.1728 1.8247 14.6858
v 28.8843 -0.5019 16.4771
v 27.5180 -0.5828 14.2726
v 29.1046 3.0460 14.6833
v 28.0654 0.9475 15.4044
v 28.5027 0.9681 13.5328
v 29.1046 3.0460 14.6833
v 28.5027 0.9681 13.5328
v 30.3713 1.0735 13.9706
v 29.1046 3.0460 14.6833
v 30.3713 1.0735 13.9706
v 29.9340 1.0529 15.8422
v 28.5027 0.9681 13.5328
v 29.9340 1.0529 15.8422
v 30.3713 1.0735 13.9706
v 29.1046 3.0460 14.6833
v 29.9340 1.0529 15.8422
v 28.0654 0.9475 15.4044
v 28.5027 0.9681 13.5328
v 28.0654 0.9475 15.4044
v 29.9340 1.0529 15.8422
v 29.0439 4.1316 14.6811
v 28.4276 2.3284 15.1292
v 28.6988 2.3412 13.9688
v 29.0439 4.1316 14.6811
v 28.6988 2.3412 13.9688
v 29.8573 2.4065 14.2403
v 29.0439 4.1316 14.6811
v 29.8573 2.4065 14.2403
v 29.5862 2.3938 15.4006
v 28.6988 2.3412 13.9688
v 29.5862 2.3938 15.4006
v 29.8573 2.4065 14.2403
v 29.0439 4.1316 14.6811
v 29.5862 2.3938 15.4006
v 28.4276 2.3284 15.1292
v 28.6988 2.3412 13.9688
v 28.4276 2.3284 15.1292
v 29.5862 2.3938 15.4006
vt 0.00000 1.00000
vt 0.00000 1.00000
vt 0.00000 1.00000
vt 0.00000 1.00000
vt 0.00000 1.00000
vt 0.00000 1.00000
vt 0.00000 1.00000
vt 0.00000 1.00000
vt 0.00000 1.00000
vt 0.00000 1.00000
vt 0.00000 1.00000
vt 0.00000 1.00000
vt 0.00000 1.00000
vt 0.00000 1.00000
vt 0.00000 1.00000
vt 0.00000 1.00000
vt 0.00000 1.00000
vt 0.00000 1.00000
vt 0.00000 1.00000
vt 0.00000 1.00000
vt 0.00000 1.00000
vt 0.00000 1.00000
vt 0.00000 1.00000
vt 0.00000 1.00000
vt 0.00000 1.00000
vt 0.00000 1.00000
vt 0.00000 1.00000
vt 0.00000 1.00000
vt 0.00000 1.00000
vt 0.00000 1.00000
vt 0.00000 1.00000
vt 0.00000 1.00000
vt 0.00000 1.00000
vt 0.00000 1.00000
vt 0.00000 1.00000
vt 0.00000 1.00000
vt 0.00000 1.00000
vt 0.00000 1.00000
vt 0.00000 1.00000
vt 0.00000 1.00000
vt 0.00000 1.00000
vt 0.00000 1.00000
vt 0.00000 1.00000
vt 0.00000 1.00000
vt 0.00000 1.00000
vt 0.00000 1.00000
vt 0.00000 1.00000
vt 0.00000 1.00000
vt 0.00000 1.00000
vt 0.00000 1.00000
vt 0.00000 1.00000
vt 0.00000 1.00000
vt 0.00000 1.00000
vt 0.00000 1.00000
vt 0.00000 1.00000
vt 0.00000 1.00000
vt 0.00000 1.00000
vt 0.00000 1.00000
vt 0.00000 1.00000
vt 0.00000 1.00000
vt 0.00000 1.00000
vt 0.00000 1.00000
vt 0.00000 1.00000
vt 0.00000 1.00000
vt 0.00000 1.00000
vt 0.00000 1.00000
vt 0.00000 1.00000
vt 0.00000 1.00000
vt 0.00000 1.00000
vt 0.00000 1.00000
vt 0.00000 1.00000
vt 0.00000 1.00000
vt 0.00000 1.00000
vt 0.00000 1.00000
vt 0.00000 1.00000
vt 0.00000 1.00000
vt 0.00000 1.00000
vt 0.00000 1.00000
vt 0.00000 1.00000
vt 0.00000 1.00000
vt 0.00000 1.00000
vt 0.00000 1.00000
vt 0.00000 1.00000
vt 0.00000 1.00000
vt 0.00000 1.00000
vt 0.00000 1.00000
vt 0.00000 1.00000
vt 0.00000 1.00000
vt 0.00000 1.00000
vt 0.00000 1.00000
vt 0.00000 1.00000
vt 0.00000 1.00000
vt 0.00000 1.00000
vt 0.00000 1.00000
vt 0.00000 1.00000
vt 0.00000 1.00000
vt 0.00000 1.00000
vt 0.00000 1.00000
vt 0.00000 1.00000
vt 0.00000 1.00000
vt 0.00000 1.00000
vt 0.00000 1.00000
vt 0.00000 1.00000
vt 0.00000 1.00000
vt 0.00000 1.00000
vt 0.00000 1.00000
vt 0.00000 1.00000
vt 0.00000 1.00000
vt 0.00000 1.00000
vt 0.00000 1.00000
vt 0.00000 1.00000
vt 0.00000 1.00000
vt 0.00000 1.00000
vt 0.00000 1.00000
vt 0.00000 1.00000
vt 0.00000 1.00000
vt 0.00000 1.00000
vt 0.00000 1.00000
vt 0.00000 1.00000
vt 0.00000 1.00000
vt 0.00000 1.00000
vt 0.00000 1.00000
vt 0.00000 1.00000
vt 0.00000 1.00000
vt 0.00000 1.00000
vt 0.00000 1.00000
vt 0.00000 1.00000
vt 0.00000 1.00000
vt 0.00000 1.00000
vt 0.00000 1.00000
vt 0.00000 1.00000
vt 0.00000 1.00000
vt 0.00000 1.00000
vt 0.00000 1.00000
vt 0.00000 1.00000
vt 0.00000 1.00000
vt 0.00000 1.00000
vt 0.00000 1.00000
vt 0.00000 1.00000
vt 0.00000 1.00000
vt 0.00000 1.00000
vt 0.00000 1.00000
vt 0.00000 1.00000
vt 0.00000 1.00000
vt 0.00000 1.00000
vt 0.00000 1.00000
vt 0.00000 1.00000
vt 0.00000 1.00000
vt 0.00000 1.00000
vt 0.00000 1.00000
vt 0.00000 1.00000
vt 0.00000 1.00000
vt 0.00000 1.00000
vt 0.00000 1.00000
vt 0.00000 1.00000
vt 0.00000 1.00000
vt 0.00000 1.00000
vt 0.00000 1.00000
vt 0.00000 1.00000
vt 0.00000 1.00000
vt 0.00000 1.00000
vt 0.00000 1.00000
vt 0.00000 1.00000
vt 0.00000 1.00000
vt 0.00000 1.00000
vt 0.00000 1.00000
vt 0.00000 1.00000
vt 0.00000 1.00000
vt 0.00000 1.00000
vt 0.00000 1.00000
vt 0.00000 1.00000
vt 0.00000 1.00000
vt 0.00000 1.00000
vt 0.00000 1.00000
vt 0.00000 1.00000
vt 0.00000 1.00000
vt 0.00000 1.00000
vt 0.00000 1.00000
vt 0.00000 1.00000
vt 0.00000 1.00000
vt 0.00000 1.00000
vt 0.00000 1.00000
vt 0.00000 1.00000
vt 0.00000 1.00000
vt 0.00000 1.00000
vt 0.00000 1.00000
vt 0.00000 1.00000
vt 0.00000 1.00000
vt 0.00000 1.00000
vt 0.00000 1.00000
vt 0.00000 1.00000
vt 0.00000 1.00000
vt 0.00000 1.00000
vt 0.00000 1.00000
vt 0.00000 1.00000
vt 0.00000 1.00000
vt 0.00000 1.00000
vt 0.00000 1.00000
vt 0.00000 1.00000
vt 0.00000 1.00000
vt 0.00000 1.00000
vt 0.00000 1.00000
vt 0.00000 1.00000
vt 0.00000 1.00000
vt 0.00000 1.00000
vt 0.00000 1.00000
vt 0.00000 1.00000
vt 0.00000 1.00000
vt 0.00000 1.00000
vt 0.00000 1.00000
vt 0.00000 1.00000
vt 0.00000 1.00000
vt 0.00000 1.00000
vt 0.00000 1.00000
vt 0.00000 1.00000
vt 0.00000 1.00000
vt 0.00000 1.00000
vt 0.00000 1.00000
vt 0.00000 1.00000
vt 0.00000 1.00000
vt 0.00000 1.00000
vt 0.00000 1.00000
vt 0.00000 1.00000
vt 0.00000 1.00000
vt 0.00000 1.00000
vt 0.00000 1.00000
vt 0.00000 1.00000
vt 0.00000 1.00000
vt 0.00000 1.00000
vt 0.00000 1.00000
vt 0.00000 1.00000
vt 0.00000 1.00000
vt 0.00000 1.00000
vt 0.00000 1.00000
vt 0.00000 1.00000
vt 0.00000 1.00000
vt 0.00000 1.00000
vt 0.00000 1.00000
vt 0.00000 1.00000
vt 0.00000 1.00000
vt 0.00000 1.00000
vt 0.00000 1.00000
vt 0.00000 1.00000
vt 0.00000 1.00000
vt 0.00000 1.00000
vt 0.00000 1.00000
vt 0.00000 1.00000
vt 0.00000 1.00000
vt 0.00000 1.00000
vt 0.00000 1.00000
vt 0.00000 1.00000
vt 0.00000 1.00000
vt 0.00000 1.00000
vt 0.00000 1.00000
vt 0.00000 1.00000
vt 0.00000 1.00000
vt 0.00000 1.00000
vt 0.00000 1.00000
vt 0.00000 1.00000
vt 0.00000 1.00000
vt 0.00000 1.00000
vt 0.00000 1.00000
vt 0.00000 1.00000
vt 0.00000 1.00000
vt 0.00000 1.00000
vt 0.00000 1.00000
vt 0.00000 1.00000
vt 0.00000 1.00000
vt 0.00000 1.00000
vt 0.00000 1.00000
vt 0.00000 1.00000
vt 0.00000 1.00000
vt 0.00000 1.00000
vt 0.00000 1.00000
vt 0.00000 1.00000
vt 0.00000 1.00000
vt 0.00000 1.00000
vt 0.00000 1.00000
vt 0.00000 1.00000
vt 0.00000 1.00000
vt 0.00000 1.00000
vt 0.00000 1.00000
vt 0.00000 1.00000
vt 0.00000 1.00000
vt 0.00000 1.00000
vt 0.00000 1.00000
vt 0.00000 1.00000
vt 0.00000 1.00000
vt 0.00000 1.00000
vt 0.00000 1.00000
vt 0.00000 1.00000
vt 0.00000 1.00000
vt 0.00000 1.00000
vt 0.00000 1.00000
vt 0.00000 1.00000
vt 0.00000 1.00000
vt 0.00000 1.00000
vt 0.00000 1.00000
vt 0.00000 1.00000
vt 0.00000 1.00000
vt 0.00000 1.00000
vt 0.00000 1.00000
vt 0.00000 1.00000
vt 0.00000 1.00000
vt 0.00000 1.00000
vt 0.00000 1.00000
vt 0.00000 1.00000
vt 0.00000 1.00000
vt 0.00000 1.00000
vt 0.00000 1.00000
vt 0.00000 1.00000
vt 0.00000 1.00000
vt 0.00000 1.00000
vt 0.00000 1.00000
vt 0.00000 1.00000
vt 0.00000 1.00000
vt 0.00000 1.00000
vt 0.00000 1.00000
vt 0.00000 1.00000
vt 0.00000 1.00000
vt 0.00000 1.00000
vt 0.00000 1.00000
vt 0.00000 1.00000
vt 0.00000 1.00000
vt 0.00000 1.00000
vt 0.00000 1.00000
vt 0.00000 1.00000
vt 0.00000 1.00000
vt 0.00000 1.00000
vt 0.00000 1.00000
vt 0.00000 1.00000
vt 0.00000 1.00000
vt 0.00000 1.00000
vt 0.00000 1.00000
vt 0.00000 1.00000
vt 0.00000 1.00000
vt 0.00000 1.00000
vt 0.00000 1.00000
vt 0.00000 1.00000
vt 0.00000 1.00000
vt 0.00000 1.00000
vt 0.00000 1.00000
vt 0.00000 1.00000
vt 0.00000 1.00000
vt 0.00000 1.00000
vt 0.00000 1.00000
vt 0.00000 1.00000
vt 0.00000 1.00000
vt 0.00000 1.00000
vt 0.00000 1.00000
vt 0.00000 1.00000
vt 0.00000 1.00000
vt 0.00000 1.00000
vt 0.00000 1.00000
vt 0.00000 1.00000
vt 0.00000 1.00000
vt 0.00000 1.00000
vt 0.00000 1.00000
vt 0.00000 1.00000
vt 0.00000 1.00000
vt 0.00000 1.00000
vt 0.00000 1.00000
vt 0.00000 1.00000
vt 0.00000 1.00000
vt 0.00000 1.00000
vt 0.00000 1.00000
vt 0.00000 1.00000
vt 0.00000 1.00000
vt 0.00000 1.00000
vt 0.00000 1.00000
vt 0.00000 1.00000
vt 0.00000 1.00000
vt 0.00000 1.00000
vt 0.00000 1.00000
vt 0.00000 1.00000
vt 0.00000 1.00000
vt 0.00000 1.00000
vt 0.00000 1.00000
vt 0.00000 1.00000
vt 0.00000 1.00000
vt 0.00000 1.00000
vt 0.00000 1.00000
vt 0.00000 1.00000
vt 0.00000 1.00000
vt 0.00000 1.00000
vt 0.00000 1.00000
vt 0.00000 1.00000
vt 0.00000 1.00000
vt 0.00000 1.00000
vt 0.00000 1.00000
vt 0.00000 1.00000
vt 0.00000 1.00000
vt 0.00000 1.00000
vt 0.00000 1.00000
vt 0.00000 1.00000
vt 0.00000 1.00000
vt 0.00000 1.00000
vt 0.00000 1.00000
vt 0.00000 1.00000
vt 0.00000 1.00000
vt 0.00000 1.00000
vt 0.00000 1.00000
vt 0.00000 1.00000
vt 0.00000 1.00000
vt 0.00000 1.00000
vt 0.00000 1.00000
vt 0.00000 1.00000
vt 0.00000 1.00000
vt 0.00000 1.00000
vt 0.00000 1.00000
vt 0.00000 1.00000
vt 0.00000 1.00000
vt 0.00000 1.00000
vt 0.00000 1.00000
vt 0.00000 1.00000
vt 0.00000 1.00000
vt 0.00000 1.00000
vt 0.00000 1.00000
vt 0.00000 1.00000
vt 0.00000 1.00000
vt 0.00000 1.00000
vt 0.00000 1.00000
vt 0.00000 1.00000
vt 0.00000 1.00000
vt 0.00000 1.00000
vt 0.00000 1.00000
vt 0.00000 1.00000
vt 0.00000 1.00000
vt 0.00000 1.00000
vt 0.00000 1.00000
vt 0.00000 1.00000
vt 0.00000 1.00000
vt 0.00000 1.00000
vt 0.00000 1.00000
vt 0.00000 1.00000
vt 0.00000 1.00000
vt 0.00000 1.00000
vt 0.00000 1.00000
vt 0.00000 1.00000
vt 0.00000 1.00000
vt 0.00000 1.00000
vt 0.00000 1.00000
vt 0.00000 1.00000
vt 0.00000 1.00000
vt 0.00000 1.00000
vt 0.00000 1.00000
vt 0.00000 1.00000
vt 0.00000 1.00000
vt 0.00000 1.00000
vt 0.00000 1.00000
vt 0.00000 1.00000
vt 0.00000 1.00000
vt 0.00000 1.00000
vt 0.00000 1.00000
vt 0.00000 1.00000
vt 0.00000 1.00000
vt 0.00000 1.00000
vt 0.00000 1.00000
vt 0.00000 1.00000
vt 0.00000 1.00000
vt 0.00000 1.00000
vt 0.00000 1.00000
vt 0.00000 1.00000
vt 0.00000 1.00000
vt 0.00000 1.00000
vt 0.00000 1.00000
vt 0.00000 1.00000
vt 0.00000 1.00000
vt 0.00000 1.00000
vt 0.00000 1.00000
vt 0.00000 1.00000
vt 0.00000 1.00000
vt 0.00000 1.00000
vt 0.00000 1.00000
vt 0.00000 1.00000
vt 0.00000 1.00000
vt 0.00000 1.00000
vt 0.00000 1.00000
vt 0.00000 1.00000
vt 0.00000 1.00000
vt 0.00000 1.00000
vt 0.00000 1.00000
vt 0.00000 1.00000
vt 0.00000 1.00000
vt 0.00000 1.00000
vt 0.00000 1.00000
vt 0.00000 1.00000
vt 0.00000 1.00000
vt 0.00000 1.00000
vt 0.00000 1.00000
vt 0.00000 1.00000
vt 0.00000 1.00000
vt 0.00000 1.00000
vt 0.00000 1.00000
vt 0.00000 1.00000
vt 0.00000 1.00000
vt 0.00000 1.00000
vt 0.00000 1.00000
vt 0.00000 1.00000
vt 0.00000 1.00000
vt 0.00000 1.00000
vt 0.00000 1.00000
vt 0.00000 1.00000
vt 0.00000 1.00000
vt 0.00000 1.00000
vt 0.00000 1.00000
vt 0.00000 1.00000
vt 0.00000 1.00000
vt 0.00000 1.00000
vt 0.00000 1.00000
vt 0.00000 1.00000
vt 0.00000 1.00000
vt 0.00000 1.00000
vt 0.00000 1.00000
vt 0.00000 1.00000
vt 0.00000 1.00000
vt 0.00000 1.00000
vt 0.00000 1.00000
vt 0.00000 1.00000
vt 0.00000 1.00000
vt 0.00000 1.00000
vt 0.00000 1.00000
vt 0.00000 1.00000
vt 0.00000 1.00000
vt 0.00000 1.00000
vt 0.00000 1.00000
vt 0.00000 1.00000
vt 0.00000 1.00000
vt 0.00000 1.00000
vt 0.00000 1.00000
vt 0.00000 1.00000
vt 0.00000 1.00000
vt 0.00000 1.00000
vt 0.00000 1.00000
vt 0.00000 1.00000
vt 0.00000 1.00000
vt 0.00000 1.00000
vt 0.00000 1.00000
vt 0.00000 1.00000
vt 0.00000 1.00000
vt 0.00000 1.00000
vt 0.00000 1.00000
vt 0.00000 1.00000
vt 0.00000 1.00000
vt 0.00000 1.00000
vt 0.00000 1.00000
vt 0.00000 1.00000
vt 0.00000 1.00000
vt 0.00000 1.00000
vt 0.00000 1.00000
vt 0.00000 1.00000
vt 0.00000 1.00000
vt 0.00000 1.00000
vt 0.00000 1.00000
vt 0.00000 1.00000
vt 0.00000 1.00000
vt 0.00000 1.00000
vt 0.00000 1.00000
vt 0.00000 1.00000
vt 0.00000 1.00000
vt 0.00000 1.00000
vt 0.00000 1.00000
vt 0.00000 1.00000
vt 0.00000 1.00000
vt 0.00000 1.00000
vt 0.00000 1.00000
vt 0.00000 1.00000
vt 0.00000 1.00000
vt 0.00000 1.00000
vt 0.00000 1.00000
vt 0.00000 1.00000
vt 0.00000 1.00000
vt 0.00000 1.00000
vt 0.00000 1.00000
vt 0.00000 1.00000
vt 0.00000 1.00000
vt 0.00000 1.00000
vt 0.00000 1.00000
vt 0.00000 1.00000
vt 0.00000 1.00000
vt 0.00000 1.00000
vt 0.00000 1.00000
vt 0.00000 1.00000
vt 0.00000 1.00000
vt 0.00000 1.00000
vt 0.00000 1.00000
vt 0.00000 1.00000
vt 0.00000 1.00000
vt 0.00000 1.00000
vt 0.00000 1.00000
vt 0.00000 1.00000
vt 0.00000 1.00000
vt 0.00000 1.00000
vt 0.00000 1.00000
vt 0.00000 1.00000
vt 0.00000 1.00000
vt 0.00000 1.00000
vt 0.00000 1.00000
vt 0.00000 1.00000
vt 0.00000 1.00000
vt 0.00000 1.00000
vt 0.00000 1.00000
vt 0.00000 1.00000
vt 0.00000 1.00000
vt 0.00000 1.00000
vt 0.00000 1.00000
vt 0.00000 1.00000
vt 0.00000 1.00000
vt 0.00000 1.00000
vt 0.00000 1.00000
vt 0.00000 1.00000
vt 0.00000 1.00000
vt 0.00000 1.00000
vt 0.00000 1.00000
vt 0.00000 1.00000
vt 0.00000 1.00000
vt 0.00000 1.00000
vt 0.00000 1.00000
vt 0.00000 1.00000
vt 0.00000 1.00000
vt 0.00000 1.00000
vt 0.00000 1.00000
vt 0.00000 1.00000
vt 0.00000 1.00000
vt 0.00000 1.00000
vt 0.00000 1.00000
vt 0.00000 1.00000
vt 0.00000 1.00000
vt 0.00000 1.00000
vt 0.00000 1.00000
vt 0.00000 1.00000
vt 0.00000 1.00000
vt 0.00000 1.00000
vt 0.00000 1.00000
vt 0.00000 1.00000
vt 0.00000 1.00000
vt 0.00000 1.00000
vt 0.00000 1.00000
vt 0.00000 1.00000
vt 0.00000 1.00000
vt 0.00000 1.00000
vt 0.00000 1.00000
vt 0.00000 1.00000
vt 0.00000 1.00000
vt 0.00000 1.00000
vt 0.00000 1.00000
vt 0.00000 1.00000
vt 0.00000 1.00000
usemtl needles
f 145/145 146/146 147/147
f 148/148 149/149 150/150
f 151/151 152/152 153/153
f 154/154 155/155 156/156
f 157/157 158/158 159/159
f 160/160 161/161 162/162
f 163/163 164/164 165/165
f 166/166 167/167 168/168
f 169/169 170/170 171/171
f 172/172 173/173 174/174
f 175/175 176/176 177/177
f 178/178 179/179 180/180
f 181/181 182/182 183/183
f 184/184 185/185 186/186
f 187/187 188/188 189/189
f 190/190 191/191 192/192
f 193/193 194/194 195/195
f 196/196 197/197 198/198
f 199/199 200/200 201/201
f 202/202 203/203 204/204
f 205/205 206/206 207/207
f 208/208 209/209 210/210
f 211/211 212/212 213/213
f 214/214 215/215 216/216
f 217/217 218/218 219/219
f 220/220 221/221 222/222
f 223/223 224/224 225/225
f 226/226 227/227 228/228
f 229/229 230/230 231/231
f 232/232 233/233 234/234
f 235/235 236/236 237/237
f 238/238 239/239 240/240
f 241/241 242/242 243/243
f 244/244 245/245 246/246
f 247/247 248/248 249/249
f 250/250 251/251 252/252
f 253/253 254/254 255/255
f 256/256 257/257 258/258
f 259/259 260/260 261/261
f 262/262 263/263 264/264
f 265/265 266/266 267/267
f 268/268 269/269 270/270
f 271/271 272/272 273/273
f 274/274 275/275 276/276
f 277/277 278/278 279/279
f 280/280 281/281 282/282
f 283/283 284/284 285/285
f 286/286 287/287 288/288
f 289/289 290/290 291/291
f 292/292 293/293 294/294
f 295/295 296/296 297/297
f 298/298 299/299 300/300
f 301/301 302/302 303/303
f 304/304 305/305 306/306
f 307/307 308/308 309/309
f 310/310 311/311 312/312
f 313/313 314/314 315/315
f 316/316 317/317 318/318
f 319/319 320/320 321/321
f 322/322 323/323 324/324
f 325/325 326/326 327/327
f 328/328 329/329 330/330
f 331/331 332/332 333/333
f 334/334 335/335 336/336
f 337/337 338/338 339/339
f 340/340 341/341 342/342
f 343/343 344/344 345/345
f 346/346 347/347 348/348
f 349/349 350/350 351/351
f 352/352 353/353 354/354
f 355/355 356/356 357/357
f 358/358 359/359 360/360
f 361/361 362/362 363/363
f 364/364 365/365 366/366
f 367/367 368/368 369/369
f 370/370 371/371 372/372
f 373/373 374/374 375/375
f 376/376 377/377 378/378
f 379/379 380/380 381/381
f 382/382 383/383 384/384
f 385/385 386/386 387/387
f 388/388 389/389 390/390
f 391/391 392/392 393/393
f 394/394 395/395 396/396
f 397/397 398/398 399/399
f 400/400 401/401 402/402
f 403/403 404/404 405/405
f 406/406 407/407 408/408
f 409/409 410/410 411/411
f 412/412 413/413 414/414
f 415/415 416/416 417/417
f 418/418 419/419 420/420
f 421/421 422/422 423/423
f 424/424 425/425 426/426
f 427/427 428/428 429/429
f 430/430 431/431 432/432
f 433/433 434/434 435/435
f 436/436 437/437 438/438
f 439/439 440/440 441/441
f 442/442 443/443 444/444
f 445/445 446/446 447/447
f 448/448 449/449 450/450
f 451/451 452/452 453/453
f 454/454 455/455 456/456
f 457/457 458/458 459/459
f 460/460 461/461 462/462
f 463/463 464/464 465/465
f 466/466 467/467 468/468
f 469/469 470/470 471/471
f 472/472 473/473 474/474
f 475/475 476/476 477/477
f 478/478 479/479 480/480
f 481/481 482/482 483/483
f 484/484 485/485 486/486
f 487/487 488/488 489/489
f 490/490 491/491 492/492
f 493/493 494/494 495/495
f 496/496 497/497 498/498
f 499/499 500/500 501/501
f 502/502 503/503 504/504
f 505/505 506/506 507/507
f 508/508 509/509 510/510
f 511/511 512/512 513/513
f 514/514 515/515 516/516
f 517/517 518/518 519/519
f 520/520 521/521 522/522
f 523/523 524/524 525/525
f 526/526 527/527 528/528
f 529/529 530/530 531/531
f 532/532 533/533 534/534
f 535/535 536/536 537/537
f 538/538 539/539 540/540
f 541/541 542/542 543/543
f 544/544 545/545 546/546
f 547/547 548/548 549/549
f 550/550 551/551 552/552
f 553/553 554/554 555/555
f 556/556 557/557 558/558
f 559/559 560/560 561/561
f 562/562 563/563 564/564
f 565/565 566/566 567/567
f 568/568 569/569 570/570
f 571/571 572/572 573/573
f 574/574 575/575 576/576
f 577/577 578/578 579/579
f 580/580 581/581 582/582
f 583/583 584/584 585/585
f 586/586 587/587 588/588
f 589/589 590/590 591/591
f 592/592 593/593 594/594
f 595/595 596/596 597/597
f 598/598 599/599 600/600
f 601/601 602/602 603/603
f 604/604 605/605 606/606
f 607/607 608/608 609/609
f 610/610 611/611 612/612
f 613/613 614/614 615/615
f 616/616 617/617 618/618
f 619/619 620/620 621/621
f 622/622 623/623 624/624
f 625/625 626/626 627/627
f 628/628 629/629 630/630
f 631/631 632/632 633/633
f 634/634 635/635 636/636
f 637/637 638/638 639/639
f 640/640 641/641 642/642
f 643/643 644/644 645/645
f 646/646 647/647 648/648
f 649/649 650/650 651/651
f 652/652 653/653 654/654
f 655/655 656/656 657/657
f 658/658 659/659 660/660
f 661/661 662/662 663/663
f 664/664 665/665 666/666
f 667/667 668/668 669/669
f 670/670 671/671 672/672
f 673/673 674/674 675/675
f 676/676 677/677 678/678
f 679/679 680/680 681/681
f 682/682 683/683 684/684
f 685/685 686/686 687/687
f 688/688 689/689 690/690
f 691/691 692/692 693/693
f 694/694 695/695 696/696
f 697/697 698/698 699/699
f 700/700 701/701 702/702
f 703/703 704/704 705/705
f 706/706 707/707 708/708
f 709/709 710/710 711/711
f 712/712 713/713 714/714
f 715/715 716/716 717/717
f 718/718 719/719 720/720
f 721/721 722/722 723/723
f 724/724 725/725 726/726
f 727/727 728/728 729/729
f 730/730 731/731 732/732
f 733/733 734/734 735/735
f 736/736 737/737 738/738
f 739/739 740/740 741/741
f 742/742 743/743 744/744
f 745/745 746/746 747/747
f 748/748 749/749 750/750
f 751/751 752/752 753/753
f 754/754 755/755 756/756
f 757/757 758/758 759/759
f 760/760 761/761 762/762
f 763/763 764/764 765/765
f 766/766 767/767 768/768
f 769/769 770/770 771/771
f 772/772 773/773 774/774
f 775/775 776/776 777/777
f 778/778 779/779 780/780
f 781/781 782/782 783/783
f 784/784 785/785 786/786
f 787/787 788/788 789/789
f 790/790 791/791 792/792
