# Generated by TyraX. Do not edit - rebaked from the procedural graph of 'forest'.
# 6 instances of res/models/rock.obj
mtllib props.mtl
v 15.8386 6.4519 -17.5868
v 15.7714 6.7872 -16.8814
v 15.4348 6.7484 -18.1668
v 15.8386 6.4519 -17.5868
v 15.4348 6.7484 -18.1668
v 15.7714 6.7872 -16.8814
v 33.4680 1.3665 -29.0450
v 33.9092 1.6438 -29.5694
v 33.4252 1.7189 -28.4155
v 33.4680 1.3665 -29.0450
v 33.4252 1.7189 -28.4155
v 33.9092 1.6438 -29.5694
v -6.8945 1.1788 0.9058
v -6.8712 1.5251 1.6019
v -7.0711 1.6040 0.3005
v -6.8945 1.1788 0.9058
v -7.0711 1.6040 0.3005
v -6.8712 1.5251 1.6019
v -7.4287 3.1412 -27.6318
v -7.6585 3.4797 -26.9558
v -7.5844 3.5083 -28.2933
v -7.4287 3.1412 -27.6318
v -7.5844 3.5083 -28.2933
v -7.6585 3.4797 -26.9558
v -14.1917 1.4668 -0.5036
v -13.8556 1.7528 0.2481
v -14.8082 1.9284 -0.8683
v -14.1917 1.4668 -0.5036
v -14.8082 1.9284 -0.8683
v -13.8556 1.7528 0.2481
v 0.7832 -1.2441 25.4894
v 1.6910 -0.7539 25.9249
v -0.1847 -0.7520 25.6289
v 0.7832 -1.2441 25.4894
v -0.1847 -0.7520 25.6289
v 1.6910 -0.7539 25.9249
vt 0.00000 1.00000
vt 0.00000 1.00000
vt 0.00000 1.00000
vt 0.00000 1.00000
vt 0.00000 1.00000
vt 0.00000 1.00000
vt 0.00000 1.00000
vt 0.00000 1.00000
vt 0.00000 1.00000
vt 0.00000 1.00000
vt 0.00000 1.00000
vt 0.00000 1.00000
vt 0.00000 1.00000
vt 0.00000 1.00000
vt 0.00000 1.00000
vt 0.00000 1.00000
vt 0.00000 1.00000
vt 0.00000 1.00000
vt 0.00000 1.00000
vt 0.00000 1.00000
vt 0.00000 1.00000
vt 0.00000 1.00000
vt 0.00000 1.00000
vt 0.00000 1.00000
vt 0.00000 1.00000
vt 0.00000 1.00000
vt 0.00000 1.00000
vt 0.00000 1.00000
vt 0.00000 1.00000
vt 0.00000 1.00000
vt 0.00000 1.00000
vt 0.00000 1.00000
vt 0.00000 1.00000
vt 0.00000 1.00000
vt 0.00000 1.00000
vt 0.00000 1.00000
usemtl stone
f 1/1 2/2 3/3
f 4/4 5/5 6/6
f 7/7 8/8 9/9
f 10/10 11/11 12/12
f 13/13 14/14 15/15
f 16/16 17/17 18/18
f 19/19 20/20 21/21
f 22/22 23/23 24/24
f 25/25 26/26 27/27
f 28/28 29/29 30/30
f 31/31 32/32 33/33
f 34/34 35/35 36/36
