# Generated by TyraX. Do not edit - rebaked from the procedural graph of 'forest'.
# 15 instances of res/models/pine.obj
mtllib props.mtl
v -16.9341 0.8234 26.5854
v -16.8065 2.4520 26.6423
v -17.1702 2.4827 26.5787
v -16.9341 0.8234 26.5854
v -17.2346 2.4750 26.9435
v -16.8065 2.4520 26.6423
v -17.2346 2.4750 26.9435
v -16.9341 0.8234 26.5854
v -17.1702 2.4827 26.5787
v -16.8065 2.4520 26.6423
v -17.2346 2.4750 26.9435
v -17.1702 2.4827 26.5787
v 11.9155 1.7763 3.0282
v 12.2808 3.2892 3.2006
v 11.9883 3.3377 3.3957
v 11.9155 1.7763 3.0282
v 12.1715 3.2599 3.6897
v 12.2808 3.2892 3.2006
v 12.1715 3.2599 3.6897
v 11.9155 1.7763 3.0282
v 11.9883 3.3377 3.3957
v 12.2808 3.2892 3.2006
v 12.1715 3.2599 3.6897
v 11.9883 3.3377 3.3957
v 29.1058 5.8383 -20.1415
v 29.2017 7.5202 -20.1487
v 29.3067 7.5126 -20.5158
v 29.1058 5.8383 -20.1415
v 28.9402 7.5331 -20.6210
v 29.2017 7.5202 -20.1487
v 28.9402 7.5331 -20.6210
v 29.1058 5.8383 -20.1415
v 29.3067 7.5126 -20.5158
v 29.2017 7.5202 -20.1487
v 28.9402 7.5331 -20.6210
v 29.3067 7.5126 -20.5158
v -15.6069 0.9516 33.7428
v -15.6509 2.2410 33.7785
v -15.4693 2.2535 33.5495
v -15.6069 0.9516 33.7428
v -15.6985 2.2507 33.3676
v -15.6509 2.2410 33.7785
v -15.6985 2.2507 33.3676
v -15.6069 0.9516 33.7428
v -15.4693 2.2535 33.5495
v -15.6509 2.2410 33.7785
v -15.6985 2.2507 33.3676
v -15.4693 2.2535 33.5495
v 18.9768 1.9178 2.5912
v 18.7613 3.5029 2.7020
v 18.4500 3.4736 2.5167
v 18.9768 1.9178 2.5912
v 18.2689 3.4272 2.8284
v 18.7613 3.5029 2.7020
v 18.2689 3.4272 2.8284
v 18.9768 1.9178 2.5912
v 18.4500 3.4736 2.5167
v 18.7613 3.5029 2.7020
v 18.2689 3.4272 2.8284
v 18.4500 3.4736 2.5167
v 18.6770 4.0542 -21.8754
v 18.5261 5.3491 -22.0995
v 18.2540 5.3392 -21.9738
v 18.6770 4.0542 -21.8754
v 18.3754 5.3996 -21.7064
v 18.5261 5.3491 -22.0995
v 18.3754 5.3996 -21.7064
v 18.6770 4.0542 -21.8754
v 18.2540 5.3392 -21.9738
v 18.5261 5.3491 -22.0995
v 18.3754 5.3996 -21.7064
v 18.2540 5.3392 -21.9738
v 15.0797 5.7876 -6.0233
v 14.7300 7.5053 -6.0280
v 14.7737 7.5131 -6.4229
v 15.0797 5.7876 -6.0233
v 14.3868 7.4342 -6.4672
v 14.7300 7.5053 -6.0280
v 14.3868 7.4342 -6.4672
v 15.0797 5.7876 -6.0233
v 14.7737 7.5131 -6.4229
v 14.7300 7.5053 -6.0280
v 14.3868 7.4342 -6.4672
v 14.7737 7.5131 -6.4229
v 15.4247 1.4388 4.6344
v 15.4694 2.7205 4.6792
v 15.6668 2.7062 4.8923
v 15.4247 1.4388 4.6344
v 15.8802 2.7057 4.6946
v 15.4694 2.7205 4.6792
v 15.8802 2.7057 4.6946
v 15.4247 1.4388 4.6344
v 15.6668 2.7062 4.8923
v 15.4694 2.7205 4.6792
v 15.8802 2.7057 4.6946
v 15.6668 2.7062 4.8923
v 23.6428 2.0540 -27.5086
v 23.2898 3.4132 -27.6796
v 23.0416 3.3738 -27.4804
v 23.6428 2.0540 -27.5086
v 23.2283 3.4535 -27.2321
v 23.2898 3.4132 -27.6796
v 23.2283 3.4535 -27.2321
v 23.6428 2.0540 -27.5086
v 23.0416 3.3738 -27.4804
v 23.2898 3.4132 -27.6796
v 23.2283 3.4535 -27.2321
v 23.0416 3.3738 -27.4804
v 30.2640 0.6638 -31.6361
v 30.1243 2.0579 -31.6686
v 29.9352 2.0449 -31.4137
v 30.2640 0.6638 -31.6361
v 30.1885 2.0747 -31.2243
v 30.1243 2.0579 -31.6686
v 30.1885 2.0747 -31.2243
v 30.2640 0.6638 -31.6361
v 29.9352 2.0449 -31.4137
v 30.1243 2.0579 -31.6686
v 30.1885 2.0747 -31.2243
v 29.9352 2.0449 -31.4137
v 2.4445 4.0244 -25.3619
v 2.1981 5.5669 -25.5069
v 1.8670 5.5256 -25.3842
v 2.4445 4.0244 -25.3619
v 1.9838 5.5754 -25.0520
v 2.1981 5.5669 -25.5069
v 1.9838 5.5754 -25.0520
v 2.4445 4.0244 -25.3619
v 1.8670 5.5256 -25.3842
v 2.1981 5.5669 -25.5069
v 1.9838 5.5754 -25.0520
v 1.8670 5.5256 -25.3842
v 14.8256 3.8318 -2.4781
v 14.6809 5.7892 -2.4550
v 14.3523 5.7685 -2.7543
v 14.8256 3.8318 -2.4781
v 14.0541 5.7426 -2.4251
v 14.6809 5.7892 -2.4550
v 14.0541 5.7426 -2.4251
v 14.8256 3.8318 -2.4781
v 14.3523 5.7685 -2.7543
v 14.6809 5.7892 -2.4550
v 14.0541 5.7426 -2.4251
v 14.3523 5.7685 -2.7543
v -26.4624 -0.5854 15.0908
v -26.5210 1.1151 15.0911
v -26.5279 1.1148 15.4767
v -26.4624 -0.5854 15.0908
v -26.1425 1.1281 15.4836
v -26.5210 1.1151 15.0911
v -26.1425 1.1281 15.4836
v -26.4624 -0.5854 15.0908
v -26.5279 1.1148 15.4767
v -26.5210 1.1151 15.0911
v -26.1425 1.1281 15.4836
v -26.5279 1.1148 15.4767
v -28.8459 0.2929 1.3472
v -28.7615 1.4211 1.3898
v -28.6658 1.4050 1.6274
v -28.8459 0.2929 1.3472
v -28.4285 1.3909 1.5308
v -28.7615 1.4211 1.3898
v -28.4285 1.3909 1.5308
v -28.8459 0.2929 1.3472
v -28.6658 1.4050 1.6274
v -28.7615 1.4211 1.3898
v -28.4285 1.3909 1.5308
v -28.6658 1.4050 1.6274
v 29.8606 1.5391 -29.2586
v 30.0273 3.5053 -29.6611
v 29.5730 3.5468 -29.6465
v 29.8606 1.5391 -29.2586
v 29.5956 3.6364 -29.1994
v 30.0273 3.5053 -29.6611
v 29.5956 3.6364 -29.1994
v 29.8606 1.5391 -29.2586
v 29.5730 3.5468 -29.6465
v 30.0273 3.5053 -29.6611
v 29.5956 3.6364 -29.1994
v 29.5730 3.5468 -29.6465
vt 0.00000 1.00000
vt 0.00000 1.00000
vt 0.00000 1.00000
vt 0.00000 1.00000
vt 0.00000 1.00000
vt 0.00000 1.00000
vt 0.00000 1.00000
vt 0.00000 1.00000
vt 0.00000 1.00000
vt 0.00000 1.00000
vt 0.00000 1.00000
vt 0.00000 1.00000
vt 0.00000 1.00000
vt 0.00000 1.00000
vt 0.00000 1.00000
vt 0.00000 1.00000
vt 0.00000 1.00000
vt 0.00000 1.00000
vt 0.00000 1.00000
vt 0.00000 1.00000
vt 0.00000 1.00000
vt 0.00000 1.00000
vt 0.00000 1.00000
vt 0.00000 1.00000
vt 0.00000 1.00000
vt 0.00000 1.00000
vt 0.00000 1.00000
vt 0.00000 1.00000
vt 0.00000 1.00000
vt 0.00000 1.00000
vt 0.00000 1.00000
vt 0.00000 1.00000
vt 0.00000 1.00000
vt 0.00000 1.00000
vt 0.00000 1.00000
vt 0.00000 1.00000
vt 0.00000 1.00000
vt 0.00000 1.00000
vt 0.00000 1.00000
vt 0.00000 1.00000
vt 0.00000 1.00000
vt 0.00000 1.00000
vt 0.00000 1.00000
vt 0.00000 1.00000
vt 0.00000 1.00000
vt 0.00000 1.00000
vt 0.00000 1.00000
vt 0.00000 1.00000
vt 0.00000 1.00000
vt 0.00000 1.00000
vt 0.00000 1.00000
vt 0.00000 1.00000
vt 0.00000 1.00000
vt 0.00000 1.00000
vt 0.00000 1.00000
vt 0.00000 1.00000
vt 0.00000 1.00000
vt 0.00000 1.00000
vt 0.00000 1.00000
vt 0.00000 1.00000
vt 0.00000 1.00000
vt 0.00000 1.00000
vt 0.00000 1.00000
vt 0.00000 1.00000
vt 0.00000 1.00000
vt 0.00000 1.00000
vt 0.00000 1.00000
vt 0.00000 1.00000
vt 0.00000 1.00000
vt 0.00000 1.00000
vt 0.00000 1.00000
vt 0.00000 1.00000
vt 0.00000 1.00000
vt 0.00000 1.00000
vt 0.00000 1.00000
vt 0.00000 1.00000
vt 0.00000 1.00000
vt 0.00000 1.00000
vt 0.00000 1.00000
vt 0.00000 1.00000
vt 0.00000 1.00000
vt 0.00000 1.00000
vt 0.00000 1.00000
vt 0.00000 1.00000
vt 0.00000 1.00000
vt 0.00000 1.00000
vt 0.00000 1.00000
vt 0.00000 1.00000
vt 0.00000 1.00000
vt 0.00000 1.00000
vt 0.00000 1.00000
vt 0.00000 1.00000
vt 0.00000 1.00000
vt 0.00000 1.00000
vt 0.00000 1.00000
vt 0.00000 1.00000
vt 0.00000 1.00000
vt 0.00000 1.00000
vt 0.00000 1.00000
vt 0.00000 1.00000
vt 0.00000 1.00000
vt 0.00000 1.00000
vt 0.00000 1.00000
vt 0.00000 1.00000
vt 0.00000 1.00000
vt 0.00000 1.00000
vt 0.00000 1.00000
vt 0.00000 1.00000
vt 0.00000 1.00000
vt 0.00000 1.00000
vt 0.00000 1.00000
vt 0.00000 1.00000
vt 0.00000 1.00000
vt 0.00000 1.00000
vt 0.00000 1.00000
vt 0.00000 1.00000
vt 0.00000 1.00000
vt 0.00000 1.00000
vt 0.00000 1.00000
vt 0.00000 1.00000
vt 0.00000 1.00000
vt 0.00000 1.00000
vt 0.00000 1.00000
vt 0.00000 1.00000
vt 0.00000 1.00000
vt 0.00000 1.00000
vt 0.00000 1.00000
vt 0.00000 1.00000
vt 0.00000 1.00000
vt 0.00000 1.00000
vt 0.00000 1.00000
vt 0.00000 1.00000
vt 0.00000 1.00000
vt 0.00000 1.00000
vt 0.00000 1.00000
vt 0.00000 1.00000
vt 0.00000 1.00000
vt 0.00000 1.00000
vt 0.00000 1.00000
vt 0.00000 1.00000
vt 0.00000 1.00000
vt 0.00000 1.00000
vt 0.00000 1.00000
vt 0.00000 1.00000
vt 0.00000 1.00000
vt 0.00000 1.00000
vt 0.00000 1.00000
vt 0.00000 1.00000
vt 0.00000 1.00000
vt 0.00000 1.00000
vt 0.00000 1.00000
vt 0.00000 1.00000
vt 0.00000 1.00000
vt 0.00000 1.00000
vt 0.00000 1.00000
vt 0.00000 1.00000
vt 0.00000 1.00000
vt 0.00000 1.00000
vt 0.00000 1.00000
vt 0.00000 1.00000
vt 0.00000 1.00000
vt 0.00000 1.00000
vt 0.00000 1.00000
vt 0.00000 1.00000
vt 0.00000 1.00000
vt 0.00000 1.00000
vt 0.00000 1.00000
vt 0.00000 1.00000
vt 0.00000 1.00000
vt 0.00000 1.00000
vt 0.00000 1.00000
vt 0.00000 1.00000
vt 0.00000 1.00000
vt 0.00000 1.00000
vt 0.00000 1.00000
vt 0.00000 1.00000
vt 0.00000 1.00000
vt 0.00000 1.00000
vt 0.00000 1.00000
vt 0.00000 1.00000
usemtl bark
f 1/1 2/2 3/3
f 4/4 5/5 6/6
f 7/7 8/8 9/9
f 10/10 11/11 12/12
f 13/13 14/14 15/15
f 16/16 17/17 18/18
f 19/19 20/20 21/21
f 22/22 23/23 24/24
f 25/25 26/26 27/27
f 28/28 29/29 30/30
f 31/31 32/32 33/33
f 34/34 35/35 36/36
f 37/37 38/38 39/39
f 40/40 41/41 42/42
f 43/43 44/44 45/45
f 46/46 47/47 48/48
f 49/49 50/50 51/51
f 52/52 53/53 54/54
f 55/55 56/56 57/57
f 58/58 59/59 60/60
f 61/61 62/62 63/63
f 64/64 65/65 66/66
f 67/67 68/68 69/69
f 70/70 71/71 72/72
f 73/73 74/74 75/75
f 76/76 77/77 78/78
f 79/79 80/80 81/81
f 82/82 83/83 84/84
f 85/85 86/86 87/87
f 88/88 89/89 90/90
f 91/91 92/92 93/93
f 94/94 95/95 96/96
f 97/97 98/98 99/99
f 100/100 101/101 102/102
f 103/103 104/104 105/105
f 106/106 107/107 108/108
f 109/109 110/110 111/111
f 112/112 113/113 114/114
f 115/115 116/116 117/117
f 118/118 119/119 120/120
f 121/121 122/122 123/123
f 124/124 125/125 126/126
f 127/127 128/128 129/129
f 130/130 131/131 132/132
f 133/133 134/134 135/135
f 136/136 137/137 138/138
f 139/139 140/140 141/141
f 142/142 143/143 144/144
f 145/145 146/146 147/147
f 148/148 149/149 150/150
f 151/151 152/152 153/153
f 154/154 155/155 156/156
f 157/157 158/158 159/159
f 160/160 161/161 162/162
f 163/163 164/164 165/165
f 166/166 167/167 168/168
f 169/169 170/170 171/171
f 172/172 173/173 174/174
f 175/175 176/176 177/177
f 178/178 179/179 180/180
v -16.9099 3.8751 26.8422
v -17.8949 2.1371 25.5750
v -15.8525 1.9646 25.9320
v -18.2567 2.0939 27.6235
v -15.8525 1.9646 25.9320
v -17.8949 2.1371 25.5750
v -16.9099 3.8751 26.8422
v -15.8525 1.9646 25.9320
v -16.2142 1.9214 27.9805
v -18.2567 2.0939 27.6235
v -16.2142 1.9214 27.9805
v -15.8525 1.9646 25.9320
v -16.9099 3.8751 26.8422
v -16.2142 1.9214 27.9805
v -18.2567 2.0939 27.6235
v -16.9099 3.8751 26.8422
v -18.2567 2.0939 27.6235
v -17.8949 2.1371 25.5750
v -16.8334 4.8523 26.8763
v -18.0308 3.3139 26.6325
v -16.7715 3.2462 25.7465
v -16.8334 4.8523 26.8763
v -16.7715 3.2462 25.7465
v -15.8912 3.1332 27.0065
v -16.8334 4.8523 26.8763
v -15.8912 3.1332 27.0065
v -17.1505 3.2010 27.8924
v -16.7715 3.2462 25.7465
v -17.1505 3.2010 27.8924
v -15.8912 3.1332 27.0065
v -16.8334 4.8523 26.8763
v -17.1505 3.2010 27.8924
v -18.0308 3.3139 26.6325
v -16.7715 3.2462 25.7465
v -18.0308 3.3139 26.6325
v -17.1505 3.2010 27.8924
v -16.7653 5.7209 26.9067
v -17.5392 4.3654 26.7414
v -16.7584 4.3234 26.1922
v -16.7653 5.7209 26.9067
v -16.7584 4.3234 26.1922
v -16.2126 4.2533 26.9733
v -16.7653 5.7209 26.9067
v -16.2126 4.2533 26.9733
v -16.9934 4.2953 27.5226
v -16.7584 4.3234 26.1922
v -16.9934 4.2953 27.5226
v -16.2126 4.2533 26.9733
v -16.7653 5.7209 26.9067
v -16.9934 4.2953 27.5226
v -17.5392 4.3654 26.7414
v -16.7584 4.3234 26.1922
v -17.5392 4.3654 26.7414
v -16.9934 4.2953 27.5226
v 12.5428 4.5858 3.5945
v 10.7931 3.2253 3.1217
v 12.4358 2.9534 2.0261
v 11.8217 2.7889 4.7722
v 12.4358 2.9534 2.0261
v 10.7931 3.2253 3.1217
v 12.5428 4.5858 3.5945
v 12.4358 2.9534 2.0261
v 13.4643 2.5170 3.6766
v 11.8217 2.7889 4.7722
v 13.4643 2.5170 3.6766
v 12.4358 2.9534 2.0261
v 12.5428 4.5858 3.5945
v 13.4643 2.5170 3.6766
v 11.8217 2.7889 4.7722
v 12.5428 4.5858 3.5945
v 11.8217 2.7889 4.7722
v 10.7931 3.2253 3.1217
v 12.7620 5.4935 3.6980
v 11.5363 4.1230 4.0994
v 11.8579 4.2092 2.6611
v 12.7620 5.4935 3.6980
v 11.8579 4.2092 2.6611
v 13.2571 3.8382 2.9517
v 12.7620 5.4935 3.6980
v 13.2571 3.8382 2.9517
v 12.9354 3.7520 4.3901
v 11.8579 4.2092 2.6611
v 12.9354 3.7520 4.3901
v 13.2571 3.8382 2.9517
v 12.7620 5.4935 3.6980
v 12.9354 3.7520 4.3901
v 11.5363 4.1230 4.0994
v 11.8579 4.2092 2.6611
v 11.5363 4.1230 4.0994
v 12.9354 3.7520 4.3901
v 12.9569 6.3004 3.7899
v 12.1068 5.0775 3.9963
v 12.3062 5.1310 3.1045
v 12.9569 6.3004 3.7899
v 12.3062 5.1310 3.1045
v 13.1737 4.9009 3.2847
v 12.9569 6.3004 3.7899
v 13.1737 4.9009 3.2847
v 12.9743 4.8475 4.1765
v 12.3062 5.1310 3.1045
v 12.9743 4.8475 4.1765
v 13.1737 4.9009 3.2847
v 12.9569 6.3004 3.7899
v 12.9743 4.8475 4.1765
v 12.1068 5.0775 3.9963
v 12.3062 5.1310 3.1045
v 12.1068 5.0775 3.9963
v 12.9743 4.8475 4.1765
v 29.1540 8.9842 -20.3911
v 30.3691 6.9995 -21.1180
v 29.7795 7.0420 -19.0569
v 28.3112 7.1143 -21.7090
v 29.7795 7.0420 -19.0569
v 30.3691 6.9995 -21.1180
v 29.1540 8.9842 -20.3911
v 29.7795 7.0420 -19.0569
v 27.7216 7.1568 -19.6479
v 28.3112 7.1143 -21.7090
v 27.7216 7.1568 -19.6479
v 29.7795 7.0420 -19.0569
v 29.1540 8.9842 -20.3911
v 27.7216 7.1568 -19.6479
v 28.3112 7.1143 -21.7090
v 29.1540 8.9842 -20.3911
v 28.3112 7.1143 -21.7090
v 30.3691 6.9995 -21.1180
v 29.2116 9.9934 -20.3955
v 29.4245 8.2893 -21.4678
v 30.1936 8.2514 -20.0787
v 29.2116 9.9934 -20.3955
v 30.1936 8.2514 -20.0787
v 28.8069 8.3337 -19.3087
v 29.2116 9.9934 -20.3955
v 28.8069 8.3337 -19.3087
v 28.0378 8.3716 -20.6978
v 30.1936 8.2514 -20.0787
v 28.0378 8.3716 -20.6978
v 28.8069 8.3337 -19.3087
v 29.2116 9.9934 -20.3955
v 28.0378 8.3716 -20.6978
v 29.4245 8.2893 -21.4678
v 30.1936 8.2514 -20.0787
v 29.4245 8.2893 -21.4678
v 28.0378 8.3716 -20.6978
v 29.2627 10.8903 -20.3993
v 29.3711 9.4190 -21.0624
v 29.8479 9.3955 -20.2011
v 29.2627 10.8903 -20.3993
v 29.8479 9.3955 -20.2011
v 28.9881 9.4465 -19.7237
v 29.2627 10.8903 -20.3993
v 28.9881 9.4465 -19.7237
v 28.5113 9.4700 -20.5850
v 29.8479 9.3955 -20.2011
v 28.5113 9.4700 -20.5850
v 28.9881 9.4465 -19.7237
v 29.2627 10.8903 -20.3993
v 28.5113 9.4700 -20.5850
v 29.3711 9.4190 -21.0624
v 29.8479 9.3955 -20.2011
v 29.3711 9.4190 -21.0624
v 28.5113 9.4700 -20.5850
v -15.7128 3.3633 33.6040
v -14.5098 1.9450 33.4310
v -15.5293 1.8747 34.7171
v -15.7966 1.9294 32.4100
v -15.5293 1.8747 34.7171
v -14.5098 1.9450 33.4310
v -15.7128 3.3633 33.6040
v -15.5293 1.8747 34.7171
v -16.8161 1.8590 33.6961
v -15.7966 1.9294 32.4100
v -16.8161 1.8590 33.6961
v -15.5293 1.8747 34.7171
v -15.7128 3.3633 33.6040
v -16.8161 1.8590 33.6961
v -15.7966 1.9294 32.4100
v -15.7128 3.3633 33.6040
v -15.7966 1.9294 32.4100
v -14.5098 1.9450 33.4310
v -15.7392 4.1370 33.6254
v -15.1612 2.8844 32.9161
v -15.0212 2.8558 34.1245
v -15.7392 4.1370 33.6254
v -15.0212 2.8558 34.1245
v -16.2292 2.8107 34.2634
v -15.7392 4.1370 33.6254
v -16.2292 2.8107 34.2634
v -16.3692 2.8394 33.0550
v -15.0212 2.8558 34.1245
v -16.3692 2.8394 33.0550
v -16.2292 2.8107 34.2634
v -15.7392 4.1370 33.6254
v -16.3692 2.8394 33.0550
v -15.1612 2.8844 32.9161
v -15.0212 2.8558 34.1245
v -15.1612 2.8844 32.9161
v -16.3692 2.8394 33.0550
v -15.7627 4.8247 33.6444
v -15.3934 3.7300 33.1958
v -15.3066 3.7123 33.9451
v -15.7627 4.8247 33.6444
v -15.3066 3.7123 33.9451
v -16.0556 3.6843 34.0312
v -15.7627 4.8247 33.6444
v -16.0556 3.6843 34.0312
v -16.1424 3.7021 33.2820
v -15.3066 3.7123 33.9451
v -16.1424 3.7021 33.2820
v -16.0556 3.6843 34.0312
v -15.7627 4.8247 33.6444
v -16.1424 3.7021 33.2820
v -15.3934 3.7300 33.1958
v -15.3066 3.7123 33.9451
v -15.3934 3.7300 33.1958
v -16.1424 3.7021 33.2820
v 18.3284 4.8388 2.8612
v 18.2071 3.0903 1.3403
v 19.9552 3.2551 2.3808
v 17.1899 2.8296 3.0904
v 19.9552 3.2551 2.3808
v 18.2071 3.0903 1.3403
v 18.3284 4.8388 2.8612
v 19.9552 3.2551 2.3808
v 18.9380 2.9945 4.1310
v 17.1899 2.8296 3.0904
v 18.9380 2.9945 4.1310
v 19.9552 3.2551 2.3808
v 18.3284 4.8388 2.8612
v 18.9380 2.9945 4.1310
v 17.1899 2.8296 3.0904
v 18.3284 4.8388 2.8612
v 17.1899 2.8296 3.0904
v 18.2071 3.0903 1.3403
v 18.1991 5.7899 2.9277
v 17.4990 4.1184 2.2719
v 18.9474 4.3413 1.9002
v 18.1991 5.7899 2.9277
v 18.9474 4.3413 1.9002
v 19.3301 4.2911 3.3619
v 18.1991 5.7899 2.9277
v 19.3301 4.2911 3.3619
v 17.8818 4.0683 3.7336
v 18.9474 4.3413 1.9002
v 17.8818 4.0683 3.7336
v 19.3301 4.2911 3.3619
v 18.1991 5.7899 2.9277
v 17.8818 4.0683 3.7336
v 17.4990 4.1184 2.2719
v 18.9474 4.3413 1.9002
v 17.4990 4.1184 2.2719
v 17.8818 4.0683 3.7336
v 18.0842 6.6353 2.9869
v 17.7032 5.2080 2.5529
v 18.6012 5.3462 2.3225
v 18.0842 6.6353 2.9869
v 18.6012 5.3462 2.3225
v 18.8386 5.3151 3.2287
v 18.0842 6.6353 2.9869
v 18.8386 5.3151 3.2287
v 17.9406 5.1769 3.4591
v 18.6012 5.3462 2.3225
v 17.9406 5.1769 3.4591
v 18.8386 5.3151 3.2287
v 18.0842 6.6353 2.9869
v 17.9406 5.1769 3.4591
v 17.7032 5.2080 2.5529
v 18.6012 5.3462 2.3225
v 17.7032 5.2080 2.5529
v 17.9406 5.1769 3.4591
v 18.3199 6.4966 -22.0972
v 17.3865 4.8314 -22.2410
v 18.9139 4.8873 -22.9470
v 18.0681 5.1708 -20.7394
v 18.9139 4.8873 -22.9470
v 17.3865 4.8314 -22.2410
v 18.3199 6.4966 -22.0972
v 18.9139 4.8873 -22.9470
v 19.5955 5.2266 -21.4453
v 18.0681 5.1708 -20.7394
v 19.5955 5.2266 -21.4453
v 18.9139 4.8873 -22.9470
v 18.3199 6.4966 -22.0972
v 19.5955 5.2266 -21.4453
v 18.0681 5.1708 -20.7394
v 18.3199 6.4966 -22.0972
v 18.0681 5.1708 -20.7394
v 17.3865 4.8314 -22.2410
v 18.2294 7.2735 -22.2316
v 17.5803 5.9494 -21.6378
v 18.0233 5.8009 -22.7940
v 18.2294 7.2735 -22.2316
v 18.0233 5.8009 -22.7940
v 19.1804 6.0079 -22.3773
v 18.2294 7.2735 -22.2316
v 19.1804 6.0079 -22.3773
v 18.7373 6.1564 -21.2210
v 18.0233 5.8009 -22.7940
v 18.7373 6.1564 -21.2210
v 19.1804 6.0079 -22.3773
v 18.2294 7.2735 -22.2316
v 18.7373 6.1564 -21.2210
v 17.5803 5.9494 -21.6378
v 18.0233 5.8009 -22.7940
v 17.5803 5.9494 -21.6378
v 18.7373 6.1564 -21.2210
v 18.1489 7.9641 -22.3512
v 17.7836 6.8237 -21.9277
v 18.0583 6.7317 -22.6446
v 18.1489 7.9641 -22.3512
v 18.0583 6.7317 -22.6446
v 18.7757 6.8600 -22.3862
v 18.1489 7.9641 -22.3512
v 18.7757 6.8600 -22.3862
v 18.5010 6.9521 -21.6693
v 18.0583 6.7317 -22.6446
v 18.5010 6.9521 -21.6693
v 18.7757 6.8600 -22.3862
v 18.1489 7.9641 -22.3512
v 18.5010 6.9521 -21.6693
v 17.7836 6.8237 -21.9277
v 18.0583 6.7317 -22.6446
v 17.7836 6.8237 -21.9277
v 18.5010 6.9521 -21.6693
v 14.2553 8.9584 -6.2517
v 15.8605 7.2550 -7.2305
v 15.6154 7.2113 -5.0133
v 13.6879 6.8121 -7.4794
v 15.6154 7.2113 -5.0133
v 15.8605 7.2550 -7.2305
v 14.2553 8.9584 -6.2517
v 15.6154 7.2113 -5.0133
v 13.4428 6.7683 -5.2622
v 13.6879 6.8121 -7.4794
v 13.4428 6.7683 -5.2622
v 15.6154 7.2113 -5.0133
v 14.2553 8.9584 -6.2517
v 13.4428 6.7683 -5.2622
v 13.6879 6.8121 -7.4794
v 14.2553 8.9584 -6.2517
v 13.6879 6.8121 -7.4794
v 15.8605 7.2550 -7.2305
v 14.0455 9.9890 -6.2546
v 14.5236 8.2943 -7.4112
v 15.5331 8.5034 -6.1195
v 14.0455 9.9890 -6.2546
v 15.5331 8.5034 -6.1195
v 14.2668 8.2484 -5.0885
v 14.0455 9.9890 -6.2546
v 14.2668 8.2484 -5.0885
v 13.2573 8.0393 -6.3802
v 15.5331 8.5034 -6.1195
v 13.2573 8.0393 -6.3802
v 14.2668 8.2484 -5.0885
v 14.0455 9.9890 -6.2546
v 13.2573 8.0393 -6.3802
v 14.5236 8.2943 -7.4112
v 15.5331 8.5034 -6.1195
v 14.5236 8.2943 -7.4112
v 13.2573 8.0393 -6.3802
v 13.8590 10.9051 -6.2571
v 14.2417 9.4307 -6.9730
v 14.8676 9.5603 -6.1722
v 13.8590 10.9051 -6.2571
v 14.8676 9.5603 -6.1722
v 14.0825 9.4023 -5.5330
v 13.8590 10.9051 -6.2571
v 14.0825 9.4023 -5.5330
v 13.4566 9.2726 -6.3338
v 14.8676 9.5603 -6.1722
v 13.4566 9.2726 -6.3338
v 14.0825 9.4023 -5.5330
v 13.8590 10.9051 -6.2571
v 13.4566 9.2726 -6.3338
v 14.2417 9.4307 -6.9730
v 14.8676 9.5603 -6.1722
v 14.2417 9.4307 -6.9730
v 13.4566 9.2726 -6.3338
v 15.7135 3.8239 4.7257
v 15.6182 2.3326 5.8284
v 14.5095 2.4130 4.6317
v 16.8162 2.3296 4.7182
v 14.5095 2.4130 4.6317
v 15.6182 2.3326 5.8284
v 15.7135 3.8239 4.7257
v 14.5095 2.4130 4.6317
v 15.7076 2.4101 3.5215
v 16.8162 2.3296 4.7182
v 15.7076 2.4101 3.5215
v 14.5095 2.4130 4.6317
v 15.7135 3.8239 4.7257
v 15.7076 2.4101 3.5215
v 16.8162 2.3296 4.7182
v 15.7135 3.8239 4.7257
v 16.8162 2.3296 4.7182
v 15.6182 2.3326 5.8284
v 15.7403 4.5929 4.7526
v 16.2763 3.2691 5.3346
v 15.0681 3.3128 5.2893
v 15.7403 4.5929 4.7526
v 15.0681 3.3128 5.2893
v 15.1149 3.3534 4.0810
v 15.7403 4.5929 4.7526
v 15.1149 3.3534 4.0810
v 16.3231 3.3097 4.1264
v 15.0681 3.3128 5.2893
v 16.3231 3.3097 4.1264
v 15.1149 3.3534 4.0810
v 15.7403 4.5929 4.7526
v 16.3231 3.3097 4.1264
v 16.2763 3.2691 5.3346
v 15.0681 3.3128 5.2893
v 16.2763 3.2691 5.3346
v 16.3231 3.3097 4.1264
v 15.7641 5.2765 4.7765
v 16.0854 4.1395 5.1263
v 15.3363 4.1666 5.0982
v 15.7641 5.2765 4.7765
v 15.3363 4.1666 5.0982
v 15.3654 4.1918 4.3491
v 15.7641 5.2765 4.7765
v 15.3654 4.1918 4.3491
v 16.1145 4.1647 4.3772
v 15.3363 4.1666 5.0982
v 16.1145 4.1647 4.3772
v 15.3654 4.1918 4.3491
v 15.7641 5.2765 4.7765
v 16.1145 4.1647 4.3772
v 16.0854 4.1395 5.1263
v 15.3363 4.1666 5.0982
v 16.0854 4.1395 5.1263
v 16.1145 4.1647 4.3772
v 22.9531 4.6114 -27.6041
v 22.1324 2.7365 -27.5480
v 23.5260 2.9577 -28.6666
v 23.1804 3.1841 -26.1539
v 23.5260 2.9577 -28.6666
v 22.1324 2.7365 -27.5480
v 22.9531 4.6114 -27.6041
v 23.5260 2.9577 -28.6666
v 24.5740 3.4053 -27.2725
v 23.1804 3.1841 -26.1539
v 24.5740 3.4053 -27.2725
v 23.5260 2.9577 -28.6666
v 22.9531 4.6114 -27.6041
v 24.5740 3.4053 -27.2725
v 23.1804 3.1841 -26.1539
v 22.9531 4.6114 -27.6041
v 23.1804 3.1841 -26.1539
v 22.1324 2.7365 -27.5480
v 22.7413 5.4269 -27.7067
v 22.3644 3.9518 -26.9498
v 22.5454 3.8332 -28.2659
v 22.7413 5.4269 -27.7067
v 22.5454 3.8332 -28.2659
v 23.8242 4.1835 -28.1216
v 22.7413 5.4269 -27.7067
v 23.8242 4.1835 -28.1216
v 23.6432 4.3021 -26.8055
v 22.5454 3.8332 -28.2659
v 23.6432 4.3021 -26.8055
v 23.8242 4.1835 -28.1216
v 22.7413 5.4269 -27.7067
v 23.6432 4.3021 -26.8055
v 22.3644 3.9518 -26.9498
v 22.5454 3.8332 -28.2659
v 22.3644 3.9518 -26.9498
v 23.6432 4.3021 -26.8055
v 22.5530 6.1518 -27.7979
v 22.4064 4.9020 -27.2865
v 22.5186 4.8285 -28.1024
v 22.5530 6.1518 -27.7979
v 22.5186 4.8285 -28.1024
v 23.3115 5.0456 -28.0130
v 22.5530 6.1518 -27.7979
v 23.3115 5.0456 -28.0130
v 23.1993 5.1192 -27.1970
v 22.5186 4.8285 -28.1024
v 23.1993 5.1192 -27.1970
v 23.3115 5.0456 -28.0130
v 22.5530 6.1518 -27.7979
v 23.1993 5.1192 -27.1970
v 22.4064 4.9020 -27.2865
v 22.5186 4.8285 -28.1024
v 22.4064 4.9020 -27.2865
v 23.1993 5.1192 -27.1970
v 30.0353 3.2745 -31.4746
v 28.9516 1.5743 -31.2538
v 30.0134 1.6474 -32.6853
v 30.3739 1.7416 -30.1903
v 30.0134 1.6474 -32.6853
v 28.9516 1.5743 -31.2538
v 30.0353 3.2745 -31.4746
v 30.0134 1.6474 -32.6853
v 31.4357 1.8147 -31.6218
v 30.3739 1.7416 -30.1903
v 31.4357 1.8147 -31.6218
v 30.0134 1.6474 -32.6853
v 30.0353 3.2745 -31.4746
v 31.4357 1.8147 -31.6218
v 30.3739 1.7416 -30.1903
v 30.0353 3.2745 -31.4746
v 30.3739 1.7416 -30.1903
v 28.9516 1.5743 -31.2538
v 29.9515 4.1110 -31.4941
v 29.5350 2.6786 -30.7118
v 29.3462 2.6293 -32.0186
v 29.9515 4.1110 -31.4941
v 29.3462 2.6293 -32.0186
v 30.6473 2.7552 -32.2114
v 29.9515 4.1110 -31.4941
v 30.6473 2.7552 -32.2114
v 30.8362 2.8045 -30.9045
v 29.3462 2.6293 -32.0186
v 30.8362 2.8045 -30.9045
v 30.6473 2.7552 -32.2114
v 29.9515 4.1110 -31.4941
v 30.8362 2.8045 -30.9045
v 29.5350 2.6786 -30.7118
v 29.3462 2.6293 -32.0186
v 29.5350 2.6786 -30.7118
v 30.8362 2.8045 -30.9045
v 29.8770 4.8546 -31.5114
v 29.6532 3.6226 -31.0184
v 29.5362 3.5920 -31.8286
v 29.8770 4.8546 -31.5114
v 29.5362 3.5920 -31.8286
v 30.3429 3.6700 -31.9481
v 29.8770 4.8546 -31.5114
v 30.3429 3.6700 -31.9481
v 30.4599 3.7006 -31.1379
v 29.5362 3.5920 -31.8286
v 30.4599 3.7006 -31.1379
v 30.3429 3.6700 -31.9481
v 29.8770 4.8546 -31.5114
v 30.4599 3.7006 -31.1379
v 29.6532 3.6226 -31.0184
v 29.5362 3.5920 -31.8286
v 29.6532 3.6226 -31.0184
v 30.4599 3.7006 -31.1379
v 1.8775 6.9080 -25.4051
v 0.8988 4.9037 -25.8287
v 2.7584 5.1359 -26.5179
v 1.5549 5.1837 -23.9637
v 2.7584 5.1359 -26.5179
v 0.8988 4.9037 -25.8287
v 1.8775 6.9080 -25.4051
v 2.7584 5.1359 -26.5179
v 3.4146 5.4160 -24.6529
v 1.5549 5.1837 -23.9637
v 3.4146 5.4160 -24.6529
v 2.7584 5.1359 -26.5179
v 1.8775 6.9080 -25.4051
v 3.4146 5.4160 -24.6529
v 1.5549 5.1837 -23.9637
v 1.8775 6.9080 -25.4051
v 1.5549 5.1837 -23.9637
v 0.8988 4.9037 -25.8287
v 1.7297 7.8336 -25.4921
v 1.0020 6.1694 -24.9861
v 1.6323 6.1443 -26.3239
v 1.7297 7.8336 -25.4921
v 1.6323 6.1443 -26.3239
v 2.9501 6.4127 -25.7081
v 1.7297 7.8336 -25.4921
v 2.9501 6.4127 -25.7081
v 2.3197 6.4377 -24.3703
v 1.6323 6.1443 -26.3239
v 2.3197 6.4377 -24.3703
v 2.9501 6.4127 -25.7081
v 1.7297 7.8336 -25.4921
v 2.3197 6.4377 -24.3703
v 1.0020 6.1694 -24.9861
v 1.6323 6.1443 -26.3239
v 1.0020 6.1694 -24.9861
v 2.3197 6.4377 -24.3703
v 1.5983 8.6563 -25.5694
v 1.2079 7.2440 -25.2200
v 1.5987 7.2284 -26.0494
v 1.5983 8.6563 -25.5694
v 1.5987 7.2284 -26.0494
v 2.4157 7.3948 -25.6675
v 1.5983 8.6563 -25.5694
v 2.4157 7.3948 -25.6675
v 2.0249 7.4103 -24.8381
v 1.5987 7.2284 -26.0494
v 2.0249 7.4103 -24.8381
v 2.4157 7.3948 -25.6675
v 1.5983 8.6563 -25.5694
v 2.0249 7.4103 -24.8381
v 1.2079 7.2440 -25.2200
v 1.5987 7.2284 -26.0494
v 1.2079 7.2440 -25.2200
v 2.0249 7.4103 -24.8381
v 14.2421 7.4623 -2.4199
v 14.3209 5.2585 -4.2107
v 16.1659 5.3750 -2.5301
v 12.6463 5.1128 -2.3623
v 16.1659 5.3750 -2.5301
v 14.3209 5.2585 -4.2107
v 14.2421 7.4623 -2.4199
v 16.1659 5.3750 -2.5301
v 14.4913 5.2293 -0.6817
v 12.6463 5.1128 -2.3623
v 14.4913 5.2293 -0.6817
v 16.1659 5.3750 -2.5301
v 14.2421 7.4623 -2.4199
v 14.4913 5.2293 -0.6817
v 12.6463 5.1128 -2.3623
v 14.2421 7.4623 -2.4199
v 12.6463 5.1128 -2.3623
v 14.3209 5.2585 -4.2107
v 14.1553 8.6368 -2.4060
v 13.3336 6.6183 -3.3095
v 15.1771 6.7557 -3.3974
v 14.1553 8.6368 -2.4060
v 15.1771 6.7557 -3.3974
v 15.2663 6.7404 -1.5489
v 14.1553 8.6368 -2.4060
v 15.2663 6.7404 -1.5489
v 13.4229 6.6031 -1.4611
v 15.1771 6.7557 -3.3974
v 13.4229 6.6031 -1.4611
v 15.2663 6.7404 -1.5489
v 14.1553 8.6368 -2.4060
v 13.4229 6.6031 -1.4611
v 13.3336 6.6183 -3.3095
v 15.1771 6.7557 -3.3974
v 13.3336 6.6183 -3.3095
v 13.4229 6.6031 -1.4611
v 14.0781 9.6808 -2.3937
v 13.6044 7.9465 -2.9595
v 14.7473 8.0316 -3.0140
v 14.0781 9.6808 -2.3937
v 14.7473 8.0316 -3.0140
v 14.8026 8.0222 -1.8680
v 14.0781 9.6808 -2.3937
v 14.8026 8.0222 -1.8680
v 13.6597 7.9370 -1.8135
v 14.7473 8.0316 -3.0140
v 13.6597 7.9370 -1.8135
v 14.8026 8.0222 -1.8680
v 14.0781 9.6808 -2.3937
v 13.6597 7.9370 -1.8135
v 13.6044 7.9465 -2.9595
v 14.7473 8.0316 -3.0140
v 13.6044 7.9465 -2.9595
v 13.6597 7.9370 -1.8135
v -26.3825 2.5955 15.2876
v -27.4174 0.6300 16.3508
v -27.3790 0.6317 14.1854
v -25.2532 0.7046 16.3892
v -27.3790 0.6317 14.1854
v -27.4174 0.6300 16.3508
v -26.3825 2.5955 15.2876
v -27.3790 0.6317 14.1854
v -25.2149 0.7063 14.2237
v -25.2532 0.7046 16.3892
v -25.2149 0.7063 14.2237
v -27.3790 0.6317 14.1854
v -26.3825 2.5955 15.2876
v -25.2149 0.7063 14.2237
v -25.2532 0.7046 16.3892
v -26.3825 2.5955 15.2876
v -25.2532 0.7046 16.3892
v -27.4174 0.6300 16.3508
v -26.4177 3.6158 15.2877
v -26.3792 1.9144 16.4217
v -27.4926 1.8762 15.2674
v -26.4177 3.6158 15.2877
v -27.4926 1.8762 15.2674
v -26.3390 1.9161 14.1532
v -26.4177 3.6158 15.2877
v -26.3390 1.9161 14.1532
v -25.2256 1.9543 15.3075
v -27.4926 1.8762 15.2674
v -25.2256 1.9543 15.3075
v -26.3390 1.9161 14.1532
v -26.4177 3.6158 15.2877
v -25.2256 1.9543 15.3075
v -26.3792 1.9144 16.4217
v -27.4926 1.8762 15.2674
v -26.3792 1.9144 16.4217
v -25.2256 1.9543 15.3075
v -26.4490 4.5228 15.2878
v -26.4106 3.0484 15.9908
v -27.1010 3.0247 15.2752
v -26.4490 4.5228 15.2878
v -27.1010 3.0247 15.2752
v -26.3857 3.0495 14.5844
v -26.4490 4.5228 15.2878
v -26.3857 3.0495 14.5844
v -25.6954 3.0732 15.3001
v -27.1010 3.0247 15.2752
v -25.6954 3.0732 15.3001
v -26.3857 3.0495 14.5844
v -26.4490 4.5228 15.2878
v -25.6954 3.0732 15.3001
v -26.4106 3.0484 15.9908
v -27.1010 3.0247 15.2752
v -26.4106 3.0484 15.9908
v -25.6954 3.0732 15.3001
v -28.5219 2.3838 1.4972
v -29.0152 1.0995 2.3871
v -29.5526 1.1900 1.0531
v -27.6824 1.0203 1.8448
v -29.5526 1.1900 1.0531
v -29.0152 1.0995 2.3871
v -28.5219 2.3838 1.4972
v -29.5526 1.1900 1.0531
v -28.2199 1.1109 0.5108
v -27.6824 1.0203 1.8448
v -28.2199 1.1109 0.5108
v -29.5526 1.1900 1.0531
v -28.5219 2.3838 1.4972
v -28.2199 1.1109 0.5108
v -27.6824 1.0203 1.8448
v -28.5219 2.3838 1.4972
v -27.6824 1.0203 1.8448
v -29.0152 1.0995 2.3871
v -28.4714 3.0607 1.5227
v -28.2742 1.8851 2.1789
v -29.2537 1.9740 1.7642
v -28.4714 3.0607 1.5227
v -29.2537 1.9740 1.7642
v -28.8372 1.9799 0.7815
v -28.4714 3.0607 1.5227
v -28.8372 1.9799 0.7815
v -27.8576 1.8911 1.1961
v -29.2537 1.9740 1.7642
v -27.8576 1.8911 1.1961
v -28.8372 1.9799 0.7815
v -28.4714 3.0607 1.5227
v -27.8576 1.8911 1.1961
v -28.2742 1.8851 2.1789
v -29.2537 1.9740 1.7642
v -28.2742 1.8851 2.1789
v -27.8576 1.8911 1.1961
v -28.4264 3.6624 1.5455
v -28.3249 2.6553 1.9418
v -28.9323 2.7104 1.6847
v -28.4264 3.6624 1.5455
v -28.9323 2.7104 1.6847
v -28.6740 2.7140 1.0754
v -28.4264 3.6624 1.5455
v -28.6740 2.7140 1.0754
v -28.0667 2.6590 1.3325
v -28.9323 2.7104 1.6847
v -28.0667 2.6590 1.3325
v -28.6740 2.7140 1.0754
v -28.4264 3.6624 1.5455
v -28.0667 2.6590 1.3325
v -28.3249 2.6553 1.9418
v -28.9323 2.7104 1.6847
v -28.3249 2.6553 1.9418
v -28.0667 2.6590 1.3325
v 29.9560 5.2749 -29.7791
v 28.4278 2.9116 -30.5368
v 30.9791 2.6783 -30.6193
v 28.5549 3.4147 -28.0266
v 30.9791 2.6783 -30.6193
v 28.4278 2.9116 -30.5368
v 29.9560 5.2749 -29.7791
v 30.9791 2.6783 -30.6193
v 31.1062 3.1814 -28.1091
v 28.5549 3.4147 -28.0266
v 31.1062 3.1814 -28.1091
v 30.9791 2.6783 -30.6193
v 29.9560 5.2749 -29.7791
v 31.1062 3.1814 -28.1091
v 28.5549 3.4147 -28.0266
v 29.9560 5.2749 -29.7791
v 28.5549 3.4147 -28.0266
v 28.4278 2.9116 -30.5368
v 30.0560 6.4546 -30.0207
v 28.5530 4.6106 -29.5749
v 29.8227 4.2249 -30.9329
v 30.0560 6.4546 -30.0207
v 29.8227 4.2249 -30.9329
v 31.2256 4.3662 -29.6613
v 30.0560 6.4546 -30.0207
v 31.2256 4.3662 -29.6613
v 29.9559 4.7519 -28.3033
v 29.8227 4.2249 -30.9329
v 29.9559 4.7519 -28.3033
v 31.2256 4.3662 -29.6613
v 30.0560 6.4546 -30.0207
v 29.9559 4.7519 -28.3033
v 28.5530 4.6106 -29.5749
v 29.8227 4.2249 -30.9329
v 28.5530 4.6106 -29.5749
v 29.9559 4.7519 -28.3033
v 30.1450 7.5032 -30.2353
v 29.1719 5.8749 -29.8597
v 29.9591 5.6358 -30.7017
v 30.1450 7.5032 -30.2353
v 29.9591 5.6358 -30.7017
v 30.8290 5.7234 -29.9133
v 30.1450 7.5032 -30.2353
v 30.8290 5.7234 -29.9133
v 30.0417 5.9626 -29.0713
v 29.9591 5.6358 -30.7017
v 30.0417 5.9626 -29.0713
v 30.8290 5.7234 -29.9133
v 30.1450 7.5032 -30.2353
v 30.0417 5.9626 -29.0713
v 29.1719 5.8749 -29.8597
v 29.9591 5.6358 -30.7017
v 29.1719 5.8749 -29.8597
v 30.0417 5.9626 -29.0713
vt 0.00000 1.00000
vt 0.00000 1.00000
vt 0.00000 1.00000
vt 0.00000 1.00000
vt 0.00000 1.00000
vt 0.00000 1.00000
vt 0.00000 1.00000
vt 0.00000 1.00000
vt 0.00000 1.00000
vt 0.00000 1.00000
vt 0.00000 1.00000
vt 0.00000 1.00000
vt 0.00000 1.00000
vt 0.00000 1.00000
vt 0.00000 1.00000
vt 0.00000 1.00000
vt 0.00000 1.00000
vt 0.00000 1.00000
vt 0.00000 1.00000
vt 0.00000 1.00000
vt 0.00000 1.00000
vt 0.00000 1.00000
vt 0.00000 1.00000
vt 0.00000 1.00000
vt 0.00000 1.00000
vt 0.00000 1.00000
vt 0.00000 1.00000
vt 0.00000 1.00000
vt 0.00000 1.00000
vt 0.00000 1.00000
vt 0.00000 1.00000
vt 0.00000 1.00000
vt 0.00000 1.00000
vt 0.00000 1.00000
vt 0.00000 1.00000
vt 0.00000 1.00000
vt 0.00000 1.00000
vt 0.00000 1.00000
vt 0.00000 1.00000
vt 0.00000 1.00000
vt 0.00000 1.00000
vt 0.00000 1.00000
vt 0.00000 1.00000
vt 0.00000 1.00000
vt 0.00000 1.00000
vt 0.00000 1.00000
vt 0.00000 1.00000
vt 0.00000 1.00000
vt 0.00000 1.00000
vt 0.00000 1.00000
vt 0.00000 1.00000
vt 0.00000 1.00000
vt 0.00000 1.00000
vt 0.00000 1.00000
vt 0.00000 1.00000
vt 0.00000 1.00000
vt 0.00000 1.00000
vt 0.00000 1.00000
vt 0.00000 1.00000
vt 0.00000 1.00000
vt 0.00000 1.00000
vt 0.00000 1.00000
vt 0.00000 1.00000
vt 0.00000 1.00000
vt 0.00000 1.00000
vt 0.00000 1.00000
vt 0.00000 1.00000
vt 0.00000 1.00000
vt 0.00000 1.00000
vt 0.00000 1.00000
vt 0.00000 1.00000
vt 0.00000 1.00000
vt 0.00000 1.00000
vt 0.00000 1.00000
vt 0.00000 1.00000
vt 0.00000 1.00000
vt 0.00000 1.00000
vt 0.00000 1.00000
vt 0.00000 1.00000
vt 0.00000 1.00000
vt 0.00000 1.00000
vt 0.00000 1.00000
vt 0.00000 1.00000
vt 0.00000 1.00000
vt 0.00000 1.00000
vt 0.00000 1.00000
vt 0.00000 1.00000
vt 0.00000 1.00000
vt 0.00000 1.00000
vt 0.00000 1.00000
vt 0.00000 1.00000
vt 0.00000 1.00000
vt 0.00000 1.00000
vt 0.00000 1.00000
vt 0.00000 1.00000
vt 0.00000 1.00000
vt 0.00000 1.00000
vt 0.00000 1.00000
vt 0.00000 1.00000
vt 0.00000 1.00000
vt 0.00000 1.00000
vt 0.00000 1.00000
vt 0.00000 1.00000
vt 0.00000 1.00000
vt 0.00000 1.00000
vt 0.00000 1.00000
vt 0.00000 1.00000
vt 0.00000 1.00000
vt 0.00000 1.00000
vt 0.00000 1.00000
vt 0.00000 1.00000
vt 0.00000 1.00000
vt 0.00000 1.00000
vt 0.00000 1.00000
vt 0.00000 1.00000
vt 0.00000 1.00000
vt 0.00000 1.00000
vt 0.00000 1.00000
vt 0.00000 1.00000
vt 0.00000 1.00000
vt 0.00000 1.00000
vt 0.00000 1.00000
vt 0.00000 1.00000
vt 0.00000 1.00000
vt 0.00000 1.00000
vt 0.00000 1.00000
vt 0.00000 1.00000
vt 0.00000 1.00000
vt 0.00000 1.00000
vt 0.00000 1.00000
vt 0.00000 1.00000
vt 0.00000 1.00000
vt 0.00000 1.00000
vt 0.00000 1.00000
vt 0.00000 1.00000
vt 0.00000 1.00000
vt 0.00000 1.00000
vt 0.00000 1.00000
vt 0.00000 1.00000
vt 0.00000 1.00000
vt 0.00000 1.00000
vt 0.00000 1.00000
vt 0.00000 1.00000
vt 0.00000 1.00000
vt 0.00000 1.00000
vt 0.00000 1.00000
vt 0.00000 1.00000
vt 0.00000 1.00000
vt 0.00000 1.00000
vt 0.00000 1.00000
vt 0.00000 1.00000
vt 0.00000 1.00000
vt 0.00000 1.00000
vt 0.00000 1.00000
vt 0.00000 1.00000
vt 0.00000 1.00000
vt 0.00000 1.00000
vt 0.00000 1.00000
vt 0.00000 1.00000
vt 0.00000 1.00000
vt 0.00000 1.00000
vt 0.00000 1.00000
vt 0.00000 1.00000
vt 0.00000 1.00000
vt 0.00000 1.00000
vt 0.00000 1.00000
vt 0.00000 1.00000
vt 0.00000 1.00000
vt 0.00000 1.00000
vt 0.00000 1.00000
vt 0.00000 1.00000
vt 0.00000 1.00000
vt 0.00000 1.00000
vt 0.00000 1.00000
vt 0.00000 1.00000
vt 0.00000 1.00000
vt 0.00000 1.00000
vt 0.00000 1.00000
vt 0.00000 1.00000
vt 0.00000 1.00000
vt 0.00000 1.00000
vt 0.00000 1.00000
vt 0.00000 1.00000
vt 0.00000 1.00000
vt 0.00000 1.00000
vt 0.00000 1.00000
vt 0.00000 1.00000
vt 0.00000 1.00000
vt 0.00000 1.00000
vt 0.00000 1.00000
vt 0.00000 1.00000
vt 0.00000 1.00000
vt 0.00000 1.00000
vt 0.00000 1.00000
vt 0.00000 1.00000
vt 0.00000 1.00000
vt 0.00000 1.00000
vt 0.00000 1.00000
vt 0.00000 1.00000
vt 0.00000 1.00000
vt 0.00000 1.00000
vt 0.00000 1.00000
vt 0.00000 1.00000
vt 0.00000 1.00000
vt 0.00000 1.00000
vt 0.00000 1.00000
vt 0.00000 1.00000
vt 0.00000 1.00000
vt 0.00000 1.00000
vt 0.00000 1.00000
vt 0.00000 1.00000
vt 0.00000 1.00000
vt 0.00000 1.00000
vt 0.00000 1.00000
vt 0.00000 1.00000
vt 0.00000 1.00000
vt 0.00000 1.00000
vt 0.00000 1.00000
vt 0.00000 1.00000
vt 0.00000 1.00000
vt 0.00000 1.00000
vt 0.00000 1.00000
vt 0.00000 1.00000
vt 0.00000 1.00000
vt 0.00000 1.00000
vt 0.00000 1.00000
vt 0.00000 1.00000
vt 0.00000 1.00000
vt 0.00000 1.00000
vt 0.00000 1.00000
vt 0.00000 1.00000
vt 0.00000 1.00000
vt 0.00000 1.00000
vt 0.00000 1.00000
vt 0.00000 1.00000
vt 0.00000 1.00000
vt 0.00000 1.00000
vt 0.00000 1.00000
vt 0.00000 1.00000
vt 0.00000 1.00000
vt 0.00000 1.00000
vt 0.00000 1.00000
vt 0.00000 1.00000
vt 0.00000 1.00000
vt 0.00000 1.00000
vt 0.00000 1.00000
vt 0.00000 1.00000
vt 0.00000 1.00000
vt 0.00000 1.00000
vt 0.00000 1.00000
vt 0.00000 1.00000
vt 0.00000 1.00000
vt 0.00000 1.00000
vt 0.00000 1.00000
vt 0.00000 1.00000
vt 0.00000 1.00000
vt 0.00000 1.00000
vt 0.00000 1.00000
vt 0.00000 1.00000
vt 0.00000 1.00000
vt 0.00000 1.00000
vt 0.00000 1.00000
vt 0.00000 1.00000
vt 0.00000 1.00000
vt 0.00000 1.00000
vt 0.00000 1.00000
vt 0.00000 1.00000
vt 0.00000 1.00000
vt 0.00000 1.00000
vt 0.00000 1.00000
vt 0.00000 1.00000
vt 0.00000 1.00000
vt 0.00000 1.00000
vt 0.00000 1.00000
vt 0.00000 1.00000
vt 0.00000 1.00000
vt 0.00000 1.00000
vt 0.00000 1.00000
vt 0.00000 1.00000
vt 0.00000 1.00000
vt 0.00000 1.00000
vt 0.00000 1.00000
vt 0.00000 1.00000
vt 0.00000 1.00000
vt 0.00000 1.00000
vt 0.00000 1.00000
vt 0.00000 1.00000
vt 0.00000 1.00000
vt 0.00000 1.00000
vt 0.00000 1.00000
vt 0.00000 1.00000
vt 0.00000 1.00000
vt 0.00000 1.00000
vt 0.00000 1.00000
vt 0.00000 1.00000
vt 0.00000 1.00000
vt 0.00000 1.00000
vt 0.00000 1.00000
vt 0.00000 1.00000
vt 0.00000 1.00000
vt 0.00000 1.00000
vt 0.00000 1.00000
vt 0.00000 1.00000
vt 0.00000 1.00000
vt 0.00000 1.00000
vt 0.00000 1.00000
vt 0.00000 1.00000
vt 0.00000 1.00000
vt 0.00000 1.00000
vt 0.00000 1.00000
vt 0.00000 1.00000
vt 0.00000 1.00000
vt 0.00000 1.00000
vt 0.00000 1.00000
vt 0.00000 1.00000
vt 0.00000 1.00000
vt 0.00000 1.00000
vt 0.00000 1.00000
vt 0.00000 1.00000
vt 0.00000 1.00000
vt 0.00000 1.00000
vt 0.00000 1.00000
vt 0.00000 1.00000
vt 0.00000 1.00000
vt 0.00000 1.00000
vt 0.00000 1.00000
vt 0.00000 1.00000
vt 0.00000 1.00000
vt 0.00000 1.00000
vt 0.00000 1.00000
vt 0.00000 1.00000
vt 0.00000 1.00000
vt 0.00000 1.00000
vt 0.00000 1.00000
vt 0.00000 1.00000
vt 0.00000 1.00000
vt 0.00000 1.00000
vt 0.00000 1.00000
vt 0.00000 1.00000
vt 0.00000 1.00000
vt 0.00000 1.00000
vt 0.00000 1.00000
vt 0.00000 1.00000
vt 0.00000 1.00000
vt 0.00000 1.00000
vt 0.00000 1.00000
vt 0.00000 1.00000
vt 0.00000 1.00000
vt 0.00000 1.00000
vt 0.00000 1.00000
vt 0.00000 1.00000
vt 0.00000 1.00000
vt 0.00000 1.00000
vt 0.00000 1.00000
vt 0.00000 1.00000
vt 0.00000 1.00000
vt 0.00000 1.00000
vt 0.00000 1.00000
vt 0.00000 1.00000
vt 0.00000 1.00000
vt 0.00000 1.00000
vt 0.00000 1.00000
vt 0.00000 1.00000
vt 0.00000 1.00000
vt 0.00000 1.00000
vt 0.00000 1.00000
vt 0.00000 1.00000
vt 0.00000 1.00000
vt 0.00000 1.00000
vt 0.00000 1.00000
vt 0.00000 1.00000
vt 0.00000 1.00000
vt 0.00000 1.00000
vt 0.00000 1.00000
vt 0.00000 1.00000
vt 0.00000 1.00000
vt 0.00000 1.00000
vt 0.00000 1.00000
vt 0.00000 1.00000
vt 0.00000 1.00000
vt 0.00000 1.00000
vt 0.00000 1.00000
vt 0.00000 1.00000
vt 0.00000 1.00000
vt 0.00000 1.00000
vt 0.00000 1.00000
vt 0.00000 1.00000
vt 0.00000 1.00000
vt 0.00000 1.00000
vt 0.00000 1.00000
vt 0.00000 1.00000
vt 0.00000 1.00000
vt 0.00000 1.00000
vt 0.00000 1.00000
vt 0.00000 1.00000
vt 0.00000 1.00000
vt 0.00000 1.00000
vt 0.00000 1.00000
vt 0.00000 1.00000
vt 0.00000 1.00000
vt 0.00000 1.00000
vt 0.00000 1.00000
vt 0.00000 1.00000
vt 0.00000 1.00000
vt 0.00000 1.00000
vt 0.00000 1.00000
vt 0.00000 1.00000
vt 0.00000 1.00000
vt 0.00000 1.00000
vt 0.00000 1.00000
vt 0.00000 1.00000
vt 0.00000 1.00000
vt 0.00000 1.00000
vt 0.00000 1.00000
vt 0.00000 1.00000
vt 0.00000 1.00000
vt 0.00000 1.00000
vt 0.00000 1.00000
vt 0.00000 1.00000
vt 0.00000 1.00000
vt 0.00000 1.00000
vt 0.00000 1.00000
vt 0.00000 1.00000
vt 0.00000 1.00000
vt 0.00000 1.00000
vt 0.00000 1.00000
vt 0.00000 1.00000
vt 0.00000 1.00000
vt 0.00000 1.00000
vt 0.00000 1.00000
vt 0.00000 1.00000
vt 0.00000 1.00000
vt 0.00000 1.00000
vt 0.00000 1.00000
vt 0.00000 1.00000
vt 0.00000 1.00000
vt 0.00000 1.00000
vt 0.00000 1.00000
vt 0.00000 1.00000
vt 0.00000 1.00000
vt 0.00000 1.00000
vt 0.00000 1.00000
vt 0.00000 1.00000
vt 0.00000 1.00000
vt 0.00000 1.00000
vt 0.00000 1.00000
vt 0.00000 1.00000
vt 0.00000 1.00000
vt 0.00000 1.00000
vt 0.00000 1.00000
vt 0.00000 1.00000
vt 0.00000 1.00000
vt 0.00000 1.00000
vt 0.00000 1.00000
vt 0.00000 1.00000
vt 0.00000 1.00000
vt 0.00000 1.00000
vt 0.00000 1.00000
vt 0.00000 1.00000
vt 0.00000 1.00000
vt 0.00000 1.00000
vt 0.00000 1.00000
vt 0.00000 1.00000
vt 0.00000 1.00000
vt 0.00000 1.00000
vt 0.00000 1.00000
vt 0.00000 1.00000
vt 0.00000 1.00000
vt 0.00000 1.00000
vt 0.00000 1.00000
vt 0.00000 1.00000
vt 0.00000 1.00000
vt 0.00000 1.00000
vt 0.00000 1.00000
vt 0.00000 1.00000
vt 0.00000 1.00000
vt 0.00000 1.00000
vt 0.00000 1.00000
vt 0.00000 1.00000
vt 0.00000 1.00000
vt 0.00000 1.00000
vt 0.00000 1.00000
vt 0.00000 1.00000
vt 0.00000 1.00000
vt 0.00000 1.00000
vt 0.00000 1.00000
vt 0.00000 1.00000
vt 0.00000 1.00000
vt 0.00000 1.00000
vt 0.00000 1.00000
vt 0.00000 1.00000
vt 0.00000 1.00000
vt 0.00000 1.00000
vt 0.00000 1.00000
vt 0.00000 1.00000
vt 0.00000 1.00000
vt 0.00000 1.00000
vt 0.00000 1.00000
vt 0.00000 1.00000
vt 0.00000 1.00000
vt 0.00000 1.00000
vt 0.00000 1.00000
vt 0.00000 1.00000
vt 0.00000 1.00000
vt 0.00000 1.00000
vt 0.00000 1.00000
vt 0.00000 1.00000
vt 0.00000 1.00000
vt 0.00000 1.00000
vt 0.00000 1.00000
vt 0.00000 1.00000
vt 0.00000 1.00000
vt 0.00000 1.00000
vt 0.00000 1.00000
vt 0.00000 1.00000
vt 0.00000 1.00000
vt 0.00000 1.00000
vt 0.00000 1.00000
vt 0.00000 1.00000
vt 0.00000 1.00000
vt 0.00000 1.00000
vt 0.00000 1.00000
vt 0.00000 1.00000
vt 0.00000 1.00000
vt 0.00000 1.00000
vt 0.00000 1.00000
vt 0.00000 1.00000
vt 0.00000 1.00000
vt 0.00000 1.00000
vt 0.00000 1.00000
vt 0.00000 1.00000
vt 0.00000 1.00000
vt 0.00000 1.00000
vt 0.00000 1.00000
vt 0.00000 1.00000
vt 0.00000 1.00000
vt 0.00000 1.00000
vt 0.00000 1.00000
vt 0.00000 1.00000
vt 0.00000 1.00000
vt 0.00000 1.00000
vt 0.00000 1.00000
vt 0.00000 1.00000
vt 0.00000 1.00000
vt 0.00000 1.00000
vt 0.00000 1.00000
vt 0.00000 1.00000
vt 0.00000 1.00000
vt 0.00000 1.00000
vt 0.00000 1.00000
vt 0.00000 1.00000
vt 0.00000 1.00000
vt 0.00000 1.00000
vt 0.00000 1.00000
vt 0.00000 1.00000
vt 0.00000 1.00000
vt 0.00000 1.00000
vt 0.00000 1.00000
vt 0.00000 1.00000
vt 0.00000 1.00000
vt 0.00000 1.00000
vt 0.00000 1.00000
vt 0.00000 1.00000
vt 0.00000 1.00000
vt 0.00000 1.00000
vt 0.00000 1.00000
vt 0.00000 1.00000
vt 0.00000 1.00000
vt 0.00000 1.00000
vt 0.00000 1.00000
vt 0.00000 1.00000
vt 0.00000 1.00000
vt 0.00000 1.00000
vt 0.00000 1.00000
vt 0.00000 1.00000
vt 0.00000 1.00000
vt 0.00000 1.00000
vt 0.00000 1.00000
vt 0.00000 1.00000
vt 0.00000 1.00000
vt 0.00000 1.00000
vt 0.00000 1.00000
vt 0.00000 1.00000
vt 0.00000 1.00000
vt 0.00000 1.00000
vt 0.00000 1.00000
vt 0.00000 1.00000
vt 0.00000 1.00000
vt 0.00000 1.00000
vt 0.00000 1.00000
vt 0.00000 1.00000
vt 0.00000 1.00000
vt 0.00000 1.00000
vt 0.00000 1.00000
vt 0.00000 1.00000
vt 0.00000 1.00000
vt 0.00000 1.00000
vt 0.00000 1.00000
vt 0.00000 1.00000
vt 0.00000 1.00000
vt 0.00000 1.00000
vt 0.00000 1.00000
vt 0.00000 1.00000
vt 0.00000 1.00000
vt 0.00000 1.00000
vt 0.00000 1.00000
vt 0.00000 1.00000
vt 0.00000 1.00000
vt 0.00000 1.00000
vt 0.00000 1.00000
vt 0.00000 1.00000
vt 0.00000 1.00000
vt 0.00000 1.00000
vt 0.00000 1.00000
vt 0.00000 1.00000
vt 0.00000 1.00000
vt 0.00000 1.00000
vt 0.00000 1.00000
vt 0.00000 1.00000
vt 0.00000 1.00000
vt 0.00000 1.00000
vt 0.00000 1.00000
vt 0.00000 1.00000
vt 0.00000 1.00000
vt 0.00000 1.00000
vt 0.00000 1.00000
vt 0.00000 1.00000
vt 0.00000 1.00000
vt 0.00000 1.00000
vt 0.00000 1.00000
vt 0.00000 1.00000
vt 0.00000 1.00000
vt 0.00000 1.00000
vt 0.00000 1.00000
vt 0.00000 1.00000
vt 0.00000 1.00000
vt 0.00000 1.00000
vt 0.00000 1.00000
vt 0.00000 1.00000
vt 0.00000 1.00000
vt 0.00000 1.00000
vt 0.00000 1.00000
vt 0.00000 1.00000
vt 0.00000 1.00000
vt 0.00000 1.00000
vt 0.00000 1.00000
vt 0.00000 1.00000
vt 0.00000 1.00000
vt 0.00000 1.00000
vt 0.00000 1.00000
vt 0.00000 1.00000
vt 0.00000 1.00000
vt 0.00000 1.00000
vt 0.00000 1.00000
vt 0.00000 1.00000
vt 0.00000 1.00000
vt 0.00000 1.00000
vt 0.00000 1.00000
vt 0.00000 1.00000
vt 0.00000 1.00000
vt 0.00000 1.00000
vt 0.00000 1.00000
vt 0.00000 1.00000
vt 0.00000 1.00000
vt 0.00000 1.00000
vt 0.00000 1.00000
vt 0.00000 1.00000
vt 0.00000 1.00000
vt 0.00000 1.00000
vt 0.00000 1.00000
vt 0.00000 1.00000
vt 0.00000 1.00000
vt 0.00000 1.00000
vt 0.00000 1.00000
vt 0.00000 1.00000
vt 0.00000 1.00000
vt 0.00000 1.00000
vt 0.00000 1.00000
vt 0.00000 1.00000
vt 0.00000 1.00000
vt 0.00000 1.00000
vt 0.00000 1.00000
vt 0.00000 1.00000
vt 0.00000 1.00000
vt 0.00000 1.00000
vt 0.00000 1.00000
vt 0.00000 1.00000
vt 0.00000 1.00000
vt 0.00000 1.00000
vt 0.00000 1.00000
vt 0.00000 1.00000
vt 0.00000 1.00000
vt 0.00000 1.00000
vt 0.00000 1.00000
vt 0.00000 1.00000
vt 0.00000 1.00000
vt 0.00000 1.00000
vt 0.00000 1.00000
vt 0.00000 1.00000
vt 0.00000 1.00000
vt 0.00000 1.00000
vt 0.00000 1.00000
vt 0.00000 1.00000
vt 0.00000 1.00000
vt 0.00000 1.00000
vt 0.00000 1.00000
vt 0.00000 1.00000
vt 0.00000 1.00000
vt 0.00000 1.00000
vt 0.00000 1.00000
vt 0.00000 1.00000
vt 0.00000 1.00000
vt 0.00000 1.00000
vt 0.00000 1.00000
vt 0.00000 1.00000
vt 0.00000 1.00000
vt 0.00000 1.00000
vt 0.00000 1.00000
vt 0.00000 1.00000
vt 0.00000 1.00000
vt 0.00000 1.00000
vt 0.00000 1.00000
vt 0.00000 1.00000
vt 0.00000 1.00000
vt 0.00000 1.00000
vt 0.00000 1.00000
vt 0.00000 1.00000
vt 0.00000 1.00000
vt 0.00000 1.00000
vt 0.00000 1.00000
vt 0.00000 1.00000
vt 0.00000 1.00000
vt 0.00000 1.00000
vt 0.00000 1.00000
vt 0.00000 1.00000
vt 0.00000 1.00000
vt 0.00000 1.00000
vt 0.00000 1.00000
vt 0.00000 1.00000
vt 0.00000 1.00000
vt 0.00000 1.00000
vt 0.00000 1.00000
vt 0.00000 1.00000
vt 0.00000 1.00000
vt 0.00000 1.00000
vt 0.00000 1.00000
vt 0.00000 1.00000
vt 0.00000 1.00000
vt 0.00000 1.00000
vt 0.00000 1.00000
vt 0.00000 1.00000
vt 0.00000 1.00000
vt 0.00000 1.00000
vt 0.00000 1.00000
vt 0.00000 1.00000
vt 0.00000 1.00000
vt 0.00000 1.00000
vt 0.00000 1.00000
vt 0.00000 1.00000
vt 0.00000 1.00000
vt 0.00000 1.00000
vt 0.00000 1.00000
vt 0.00000 1.00000
vt 0.00000 1.00000
vt 0.00000 1.00000
vt 0.00000 1.00000
vt 0.00000 1.00000
vt 0.00000 1.00000
vt 0.00000 1.00000
vt 0.00000 1.00000
vt 0.00000 1.00000
vt 0.00000 1.00000
vt 0.00000 1.00000
vt 0.00000 1.00000
vt 0.00000 1.00000
vt 0.00000 1.00000
vt 0.00000 1.00000
vt 0.00000 1.00000
vt 0.00000 1.00000
vt 0.00000 1.00000
vt 0.00000 1.00000
vt 0.00000 1.00000
vt 0.00000 1.00000
vt 0.00000 1.00000
vt 0.00000 1.00000
vt 0.00000 1.00000
vt 0.00000 1.00000
vt 0.00000 1.00000
vt 0.00000 1.00000
vt 0.00000 1.00000
vt 0.00000 1.00000
vt 0.00000 1.00000
vt 0.00000 1.00000
vt 0.00000 1.00000
vt 0.00000 1.00000
vt 0.00000 1.00000
vt 0.00000 1.00000
vt 0.00000 1.00000
vt 0.00000 1.00000
vt 0.00000 1.00000
vt 0.00000 1.00000
vt 0.00000 1.00000
vt 0.00000 1.00000
vt 0.00000 1.00000
vt 0.00000 1.00000
vt 0.00000 1.00000
vt 0.00000 1.00000
vt 0.00000 1.00000
vt 0.00000 1.00000
vt 0.00000 1.00000
usemtl needles
f 181/181 182/182 183/183
f 184/184 185/185 186/186
f 187/187 188/188 189/189
f 190/190 191/191 192/192
f 193/193 194/194 195/195
f 196/196 197/197 198/198
f 199/199 200/200 201/201
f 202/202 203/203 204/204
f 205/205 206/206 207/207
f 208/208 209/209 210/210
f 211/211 212/212 213/213
f 214/214 215/215 216/216
f 217/217 218/218 219/219
f 220/220 221/221 222/222
f 223/223 224/224 225/225
f 226/226 227/227 228/228
f 229/229 230/230 231/231
f 232/232 233/233 234/234
f 235/235 236/236 237/237
f 238/238 239/239 240/240
f 241/241 242/242 243/243
f 244/244 245/245 246/246
f 247/247 248/248 249/249
f 250/250 251/251 252/252
f 253/253 254/254 255/255
f 256/256 257/257 258/258
f 259/259 260/260 261/261
f 262/262 263/263 264/264
f 265/265 266/266 267/267
f 268/268 269/269 270/270
f 271/271 272/272 273/273
f 274/274 275/275 276/276
f 277/277 278/278 279/279
f 280/280 281/281 282/282
f 283/283 284/284 285/285
f 286/286 287/287 288/288
f 289/289 290/290 291/291
f 292/292 293/293 294/294
f 295/295 296/296 297/297
f 298/298 299/299 300/300
f 301/301 302/302 303/303
f 304/304 305/305 306/306
f 307/307 308/308 309/309
f 310/310 311/311 312/312
f 313/313 314/314 315/315
f 316/316 317/317 318/318
f 319/319 320/320 321/321
f 322/322 323/323 324/324
f 325/325 326/326 327/327
f 328/328 329/329 330/330
f 331/331 332/332 333/333
f 334/334 335/335 336/336
f 337/337 338/338 339/339
f 340/340 341/341 342/342
f 343/343 344/344 345/345
f 346/346 347/347 348/348
f 349/349 350/350 351/351
f 352/352 353/353 354/354
f 355/355 356/356 357/357
f 358/358 359/359 360/360
f 361/361 362/362 363/363
f 364/364 365/365 366/366
f 367/367 368/368 369/369
f 370/370 371/371 372/372
f 373/373 374/374 375/375
f 376/376 377/377 378/378
f 379/379 380/380 381/381
f 382/382 383/383 384/384
f 385/385 386/386 387/387
f 388/388 389/389 390/390
f 391/391 392/392 393/393
f 394/394 395/395 396/396
f 397/397 398/398 399/399
f 400/400 401/401 402/402
f 403/403 404/404 405/405
f 406/406 407/407 408/408
f 409/409 410/410 411/411
f 412/412 413/413 414/414
f 415/415 416/416 417/417
f 418/418 419/419 420/420
f 421/421 422/422 423/423
f 424/424 425/425 426/426
f 427/427 428/428 429/429
f 430/430 431/431 432/432
f 433/433 434/434 435/435
f 436/436 437/437 438/438
f 439/439 440/440 441/441
f 442/442 443/443 444/444
f 445/445 446/446 447/447
f 448/448 449/449 450/450
f 451/451 452/452 453/453
f 454/454 455/455 456/456
f 457/457 458/458 459/459
f 460/460 461/461 462/462
f 463/463 464/464 465/465
f 466/466 467/467 468/468
f 469/469 470/470 471/471
f 472/472 473/473 474/474
f 475/475 476/476 477/477
f 478/478 479/479 480/480
f 481/481 482/482 483/483
f 484/484 485/485 486/486
f 487/487 488/488 489/489
f 490/490 491/491 492/492
f 493/493 494/494 495/495
f 496/496 497/497 498/498
f 499/499 500/500 501/501
f 502/502 503/503 504/504
f 505/505 506/506 507/507
f 508/508 509/509 510/510
f 511/511 512/512 513/513
f 514/514 515/515 516/516
f 517/517 518/518 519/519
f 520/520 521/521 522/522
f 523/523 524/524 525/525
f 526/526 527/527 528/528
f 529/529 530/530 531/531
f 532/532 533/533 534/534
f 535/535 536/536 537/537
f 538/538 539/539 540/540
f 541/541 542/542 543/543
f 544/544 545/545 546/546
f 547/547 548/548 549/549
f 550/550 551/551 552/552
f 553/553 554/554 555/555
f 556/556 557/557 558/558
f 559/559 560/560 561/561
f 562/562 563/563 564/564
f 565/565 566/566 567/567
f 568/568 569/569 570/570
f 571/571 572/572 573/573
f 574/574 575/575 576/576
f 577/577 578/578 579/579
f 580/580 581/581 582/582
f 583/583 584/584 585/585
f 586/586 587/587 588/588
f 589/589 590/590 591/591
f 592/592 593/593 594/594
f 595/595 596/596 597/597
f 598/598 599/599 600/600
f 601/601 602/602 603/603
f 604/604 605/605 606/606
f 607/607 608/608 609/609
f 610/610 611/611 612/612
f 613/613 614/614 615/615
f 616/616 617/617 618/618
f 619/619 620/620 621/621
f 622/622 623/623 624/624
f 625/625 626/626 627/627
f 628/628 629/629 630/630
f 631/631 632/632 633/633
f 634/634 635/635 636/636
f 637/637 638/638 639/639
f 640/640 641/641 642/642
f 643/643 644/644 645/645
f 646/646 647/647 648/648
f 649/649 650/650 651/651
f 652/652 653/653 654/654
f 655/655 656/656 657/657
f 658/658 659/659 660/660
f 661/661 662/662 663/663
f 664/664 665/665 666/666
f 667/667 668/668 669/669
f 670/670 671/671 672/672
f 673/673 674/674 675/675
f 676/676 677/677 678/678
f 679/679 680/680 681/681
f 682/682 683/683 684/684
f 685/685 686/686 687/687
f 688/688 689/689 690/690
f 691/691 692/692 693/693
f 694/694 695/695 696/696
f 697/697 698/698 699/699
f 700/700 701/701 702/702
f 703/703 704/704 705/705
f 706/706 707/707 708/708
f 709/709 710/710 711/711
f 712/712 713/713 714/714
f 715/715 716/716 717/717
f 718/718 719/719 720/720
f 721/721 722/722 723/723
f 724/724 725/725 726/726
f 727/727 728/728 729/729
f 730/730 731/731 732/732
f 733/733 734/734 735/735
f 736/736 737/737 738/738
f 739/739 740/740 741/741
f 742/742 743/743 744/744
f 745/745 746/746 747/747
f 748/748 749/749 750/750
f 751/751 752/752 753/753
f 754/754 755/755 756/756
f 757/757 758/758 759/759
f 760/760 761/761 762/762
f 763/763 764/764 765/765
f 766/766 767/767 768/768
f 769/769 770/770 771/771
f 772/772 773/773 774/774
f 775/775 776/776 777/777
f 778/778 779/779 780/780
f 781/781 782/782 783/783
f 784/784 785/785 786/786
f 787/787 788/788 789/789
f 790/790 791/791 792/792
f 793/793 794/794 795/795
f 796/796 797/797 798/798
f 799/799 800/800 801/801
f 802/802 803/803 804/804
f 805/805 806/806 807/807
f 808/808 809/809 810/810
f 811/811 812/812 813/813
f 814/814 815/815 816/816
f 817/817 818/818 819/819
f 820/820 821/821 822/822
f 823/823 824/824 825/825
f 826/826 827/827 828/828
f 829/829 830/830 831/831
f 832/832 833/833 834/834
f 835/835 836/836 837/837
f 838/838 839/839 840/840
f 841/841 842/842 843/843
f 844/844 845/845 846/846
f 847/847 848/848 849/849
f 850/850 851/851 852/852
f 853/853 854/854 855/855
f 856/856 857/857 858/858
f 859/859 860/860 861/861
f 862/862 863/863 864/864
f 865/865 866/866 867/867
f 868/868 869/869 870/870
f 871/871 872/872 873/873
f 874/874 875/875 876/876
f 877/877 878/878 879/879
f 880/880 881/881 882/882
f 883/883 884/884 885/885
f 886/886 887/887 888/888
f 889/889 890/890 891/891
f 892/892 893/893 894/894
f 895/895 896/896 897/897
f 898/898 899/899 900/900
f 901/901 902/902 903/903
f 904/904 905/905 906/906
f 907/907 908/908 909/909
f 910/910 911/911 912/912
f 913/913 914/914 915/915
f 916/916 917/917 918/918
f 919/919 920/920 921/921
f 922/922 923/923 924/924
f 925/925 926/926 927/927
f 928/928 929/929 930/930
f 931/931 932/932 933/933
f 934/934 935/935 936/936
f 937/937 938/938 939/939
f 940/940 941/941 942/942
f 943/943 944/944 945/945
f 946/946 947/947 948/948
f 949/949 950/950 951/951
f 952/952 953/953 954/954
f 955/955 956/956 957/957
f 958/958 959/959 960/960
f 961/961 962/962 963/963
f 964/964 965/965 966/966
f 967/967 968/968 969/969
f 970/970 971/971 972/972
f 973/973 974/974 975/975
f 976/976 977/977 978/978
f 979/979 980/980 981/981
f 982/982 983/983 984/984
f 985/985 986/986 987/987
f 988/988 989/989 990/990
