# Generated by TyraX. Do not edit - rebaked from the procedural graph of 'forest'.
# 6 instances of res/models/rock.obj
mtllib props.mtl
v 20.8735 0.8577 6.1653
v 21.4475 1.3761 7.0259
v 20.0376 1.4304 5.6624
v 20.8735 0.8577 6.1653
v 20.0376 1.4304 5.6624
v 21.4475 1.3761 7.0259
v 24.9973 -0.3330 9.7212
v 24.4976 0.0340 10.2340
v 25.2046 0.0519 9.0672
v 24.9973 -0.3330 9.7212
v 25.2046 0.0519 9.0672
v 24.4976 0.0340 10.2340
v -29.6754 1.9781 -27.4262
v -29.3684 2.4316 -26.6589
v -30.2527 2.4226 -27.9905
v -29.6754 1.9781 -27.4262
v -30.2527 2.4226 -27.9905
v -29.3684 2.4316 -26.6589
v 26.3883 -2.2382 19.1040
v 26.8344 -1.8750 18.4852
v 26.3669 -1.8627 19.8394
v 26.3883 -2.2382 19.1040
v 26.3669 -1.8627 19.8394
v 26.8344 -1.8750 18.4852
v 32.1395 1.7488 -33.6460
v 31.8220 2.0779 -32.9790
v 32.0198 2.1166 -34.3355
v 32.1395 1.7488 -33.6460
v 32.0198 2.1166 -34.3355
v 31.8220 2.0779 -32.9790
v 17.7108 -0.1212 16.7011
v 16.8087 0.2993 16.1323
v 18.5873 0.5554 16.8734
v 17.7108 -0.1212 16.7011
v 18.5873 0.5554 16.8734
v 16.8087 0.2993 16.1323
vt 0.00000 1.00000
vt 0.00000 1.00000
vt 0.00000 1.00000
vt 0.00000 1.00000
vt 0.00000 1.00000
vt 0.00000 1.00000
vt 0.00000 1.00000
vt 0.00000 1.00000
vt 0.00000 1.00000
vt 0.00000 1.00000
vt 0.00000 1.00000
vt 0.00000 1.00000
vt 0.00000 1.00000
vt 0.00000 1.00000
vt 0.00000 1.00000
vt 0.00000 1.00000
vt 0.00000 1.00000
vt 0.00000 1.00000
vt 0.00000 1.00000
vt 0.00000 1.00000
vt 0.00000 1.00000
vt 0.00000 1.00000
vt 0.00000 1.00000
vt 0.00000 1.00000
vt 0.00000 1.00000
vt 0.00000 1.00000
vt 0.00000 1.00000
vt 0.00000 1.00000
vt 0.00000 1.00000
vt 0.00000 1.00000
vt 0.00000 1.00000
vt 0.00000 1.00000
vt 0.00000 1.00000
vt 0.00000 1.00000
vt 0.00000 1.00000
vt 0.00000 1.00000
usemtl stone
f 1/1 2/2 3/3
f 4/4 5/5 6/6
f 7/7 8/8 9/9
f 10/10 11/11 12/12
f 13/13 14/14 15/15
f 16/16 17/17 18/18
f 19/19 20/20 21/21
f 22/22 23/23 24/24
f 25/25 26/26 27/27
f 28/28 29/29 30/30
f 31/31 32/32 33/33
f 34/34 35/35 36/36
