# Generated by TyraX. Do not edit - rebaked from the procedural graph of 'cairn'.
# 6 instances of res/models/rock.obj
mtllib props.mtl
v -26.0000 2.9623 28.0000
v -24.9500 2.0623 28.2250
v -25.8500 2.1373 29.1250
v -26.0000 2.9623 28.0000
v -25.8500 2.1373 29.1250
v -26.9750 2.1073 28.3000
v -26.0000 2.9623 28.0000
v -26.9750 2.1073 28.3000
v -26.2250 2.0173 26.9500
v -26.0000 2.9623 28.0000
v -26.2250 2.0173 26.9500
v -24.9500 2.0623 28.2250
v -26.0000 1.5373 28.0000
v -25.8500 2.1373 29.1250
v -24.9500 2.0623 28.2250
v -26.0000 1.5373 28.0000
v -26.9750 2.1073 28.3000
v -25.8500 2.1373 29.1250
v -26.0000 1.5373 28.0000
v -26.2250 2.0173 26.9500
v -26.9750 2.1073 28.3000
v -26.0000 1.5373 28.0000
v -24.9500 2.0623 28.2250
v -26.2250 2.0173 26.9500
v -26.0000 3.3783 28.0000
v -25.1631 2.6223 27.6635
v -25.3671 2.6853 28.7130
v -26.0000 3.3783 28.0000
v -25.3671 2.6853 28.7130
v -26.5381 2.6601 28.6669
v -26.0000 3.3783 28.0000
v -26.5381 2.6601 28.6669
v -26.6499 2.5845 27.3745
v -26.0000 3.3783 28.0000
v -26.6499 2.5845 27.3745
v -25.1631 2.6223 27.6635
v -26.0000 2.1813 28.0000
v -25.3671 2.6853 28.7130
v -25.1631 2.6223 27.6635
v -26.0000 2.1813 28.0000
v -26.5381 2.6601 28.6669
v -25.3671 2.6853 28.7130
v -26.0000 2.1813 28.0000
v -26.6499 2.5845 27.3745
v -26.5381 2.6601 28.6669
v -26.0000 2.1813 28.0000
v -25.1631 2.6223 27.6635
v -26.6499 2.5845 27.3745
v -26.0000 3.8270 28.0000
v -25.5753 3.1919 27.3725
v -25.2244 3.2449 28.1992
v -26.0000 3.8270 28.0000
v -25.2244 3.2449 28.1992
v -26.0614 3.2237 28.7172
v -26.0000 3.8270 28.0000
v -26.0614 3.2237 28.7172
v -26.7464 3.1602 27.8697
v -26.0000 3.8270 28.0000
v -26.7464 3.1602 27.8697
v -25.5753 3.1919 27.3725
v -26.0000 2.8215 28.0000
v -25.2244 3.2449 28.1992
v -25.5753 3.1919 27.3725
v -26.0000 2.8215 28.0000
v -26.0614 3.2237 28.7172
v -25.2244 3.2449 28.1992
v -26.0000 2.8215 28.0000
v -26.7464 3.1602 27.8697
v -26.0614 3.2237 28.7172
v -26.0000 2.8215 28.0000
v -25.5753 3.1919 27.3725
v -26.7464 3.1602 27.8697
v -26.0000 4.3030 28.0000
v -25.9989 3.7696 27.3635
v -25.3663 3.8140 27.7744
v -26.0000 4.3030 28.0000
v -25.3663 3.8140 27.7744
v -25.7059 3.7963 28.5283
v -26.0000 4.3030 28.0000
v -25.7059 3.7963 28.5283
v -26.5810 3.7429 28.2598
v -26.0000 4.3030 28.0000
v -26.5810 3.7429 28.2598
v -25.9989 3.7696 27.3635
v -26.0000 3.4584 28.0000
v -25.3663 3.8140 27.7744
v -25.9989 3.7696 27.3635
v -26.0000 3.4584 28.0000
v -25.7059 3.7963 28.5283
v -25.3663 3.8140 27.7744
v -26.0000 3.4584 28.0000
v -26.5810 3.7429 28.2598
v -25.7059 3.7963 28.5283
v -26.0000 3.4584 28.0000
v -25.9989 3.7696 27.3635
v -26.5810 3.7429 28.2598
v -26.0000 4.8021 28.0000
v -26.2982 4.3540 27.5563
v -25.6646 4.3914 27.5452
v -26.0000 4.8021 28.0000
v -25.6646 4.3914 27.5452
v -25.5471 4.3764 28.2298
v -26.0000 4.8021 28.0000
v -25.5471 4.3764 28.2298
v -26.2826 4.3316 28.4539
v -26.0000 4.8021 28.0000
v -26.2826 4.3316 28.4539
v -26.2982 4.3540 27.5563
v -26.0000 4.0927 28.0000
v -25.6646 4.3914 27.5452
v -26.2982 4.3540 27.5563
v -26.0000 4.0927 28.0000
v -25.5471 4.3764 28.2298
v -25.6646 4.3914 27.5452
v -26.0000 4.0927 28.0000
v -26.2826 4.3316 28.4539
v -25.5471 4.3764 28.2298
v -26.0000 4.0927 28.0000
v -26.2982 4.3540 27.5563
v -26.2826 4.3316 28.4539
v -26.0000 5.3206 28.0000
v -26.4161 4.9442 27.8311
v -25.9801 4.9755 27.5258
v -26.0000 5.3206 28.0000
v -25.9801 4.9755 27.5258
v -25.5767 4.9630 27.9472
v -26.0000 5.3206 28.0000
v -25.5767 4.9630 27.9472
v -25.9836 4.9253 28.4488
v -26.0000 5.3206 28.0000
v -25.9836 4.9253 28.4488
v -26.4161 4.9442 27.8311
v -26.0000 4.7246 28.0000
v -25.9801 4.9755 27.5258
v -26.4161 4.9442 27.8311
v -26.0000 4.7246 28.0000
v -25.5767 4.9630 27.9472
v -25.9801 4.9755 27.5258
v -26.0000 4.7246 28.0000
v -25.9836 4.9253 28.4488
v -25.5767 4.9630 27.9472
v -26.0000 4.7246 28.0000
v -26.4161 4.9442 27.8311
v -25.9836 4.9253 28.4488
vt 0.00000 1.00000
vt 0.00000 1.00000
vt 0.00000 1.00000
vt 0.00000 1.00000
vt 0.00000 1.00000
vt 0.00000 1.00000
vt 0.00000 1.00000
vt 0.00000 1.00000
vt 0.00000 1.00000
vt 0.00000 1.00000
vt 0.00000 1.00000
vt 0.00000 1.00000
vt 0.00000 1.00000
vt 0.00000 1.00000
vt 0.00000 1.00000
vt 0.00000 1.00000
vt 0.00000 1.00000
vt 0.00000 1.00000
vt 0.00000 1.00000
vt 0.00000 1.00000
vt 0.00000 1.00000
vt 0.00000 1.00000
vt 0.00000 1.00000
vt 0.00000 1.00000
vt 0.00000 1.00000
vt 0.00000 1.00000
vt 0.00000 1.00000
vt 0.00000 1.00000
vt 0.00000 1.00000
vt 0.00000 1.00000
vt 0.00000 1.00000
vt 0.00000 1.00000
vt 0.00000 1.00000
vt 0.00000 1.00000
vt 0.00000 1.00000
vt 0.00000 1.00000
vt 0.00000 1.00000
vt 0.00000 1.00000
vt 0.00000 1.00000
vt 0.00000 1.00000
vt 0.00000 1.00000
vt 0.00000 1.00000
vt 0.00000 1.00000
vt 0.00000 1.00000
vt 0.00000 1.00000
vt 0.00000 1.00000
vt 0.00000 1.00000
vt 0.00000 1.00000
vt 0.00000 1.00000
vt 0.00000 1.00000
vt 0.00000 1.00000
vt 0.00000 1.00000
vt 0.00000 1.00000
vt 0.00000 1.00000
vt 0.00000 1.00000
vt 0.00000 1.00000
vt 0.00000 1.00000
vt 0.00000 1.00000
vt 0.00000 1.00000
vt 0.00000 1.00000
vt 0.00000 1.00000
vt 0.00000 1.00000
vt 0.00000 1.00000
vt 0.00000 1.00000
vt 0.00000 1.00000
vt 0.00000 1.00000
vt 0.00000 1.00000
vt 0.00000 1.00000
vt 0.00000 1.00000
vt 0.00000 1.00000
vt 0.00000 1.00000
vt 0.00000 1.00000
vt 0.00000 1.00000
vt 0.00000 1.00000
vt 0.00000 1.00000
vt 0.00000 1.00000
vt 0.00000 1.00000
vt 0.00000 1.00000
vt 0.00000 1.00000
vt 0.00000 1.00000
vt 0.00000 1.00000
vt 0.00000 1.00000
vt 0.00000 1.00000
vt 0.00000 1.00000
vt 0.00000 1.00000
vt 0.00000 1.00000
vt 0.00000 1.00000
vt 0.00000 1.00000
vt 0.00000 1.00000
vt 0.00000 1.00000
vt 0.00000 1.00000
vt 0.00000 1.00000
vt 0.00000 1.00000
vt 0.00000 1.00000
vt 0.00000 1.00000
vt 0.00000 1.00000
vt 0.00000 1.00000
vt 0.00000 1.00000
vt 0.00000 1.00000
vt 0.00000 1.00000
vt 0.00000 1.00000
vt 0.00000 1.00000
vt 0.00000 1.00000
vt 0.00000 1.00000
vt 0.00000 1.00000
vt 0.00000 1.00000
vt 0.00000 1.00000
vt 0.00000 1.00000
vt 0.00000 1.00000
vt 0.00000 1.00000
vt 0.00000 1.00000
vt 0.00000 1.00000
vt 0.00000 1.00000
vt 0.00000 1.00000
vt 0.00000 1.00000
vt 0.00000 1.00000
vt 0.00000 1.00000
vt 0.00000 1.00000
vt 0.00000 1.00000
vt 0.00000 1.00000
vt 0.00000 1.00000
vt 0.00000 1.00000
vt 0.00000 1.00000
vt 0.00000 1.00000
vt 0.00000 1.00000
vt 0.00000 1.00000
vt 0.00000 1.00000
vt 0.00000 1.00000
vt 0.00000 1.00000
vt 0.00000 1.00000
vt 0.00000 1.00000
vt 0.00000 1.00000
vt 0.00000 1.00000
vt 0.00000 1.00000
vt 0.00000 1.00000
vt 0.00000 1.00000
vt 0.00000 1.00000
vt 0.00000 1.00000
vt 0.00000 1.00000
vt 0.00000 1.00000
vt 0.00000 1.00000
vt 0.00000 1.00000
vt 0.00000 1.00000
vt 0.00000 1.00000
usemtl stone
f 1/1 2/2 3/3
f 4/4 5/5 6/6
f 7/7 8/8 9/9
f 10/10 11/11 12/12
f 13/13 14/14 15/15
f 16/16 17/17 18/18
f 19/19 20/20 21/21
f 22/22 23/23 24/24
f 25/25 26/26 27/27
f 28/28 29/29 30/30
f 31/31 32/32 33/33
f 34/34 35/35 36/36
f 37/37 38/38 39/39
f 40/40 41/41 42/42
f 43/43 44/44 45/45
f 46/46 47/47 48/48
f 49/49 50/50 51/51
f 52/52 53/53 54/54
f 55/55 56/56 57/57
f 58/58 59/59 60/60
f 61/61 62/62 63/63
f 64/64 65/65 66/66
f 67/67 68/68 69/69
f 70/70 71/71 72/72
f 73/73 74/74 75/75
f 76/76 77/77 78/78
f 79/79 80/80 81/81
f 82/82 83/83 84/84
f 85/85 86/86 87/87
f 88/88 89/89 90/90
f 91/91 92/92 93/93
f 94/94 95/95 96/96
f 97/97 98/98 99/99
f 100/100 101/101 102/102
f 103/103 104/104 105/105
f 106/106 107/107 108/108
f 109/109 110/110 111/111
f 112/112 113/113 114/114
f 115/115 116/116 117/117
f 118/118 119/119 120/120
f 121/121 122/122 123/123
f 124/124 125/125 126/126
f 127/127 128/128 129/129
f 130/130 131/131 132/132
f 133/133 134/134 135/135
f 136/136 137/137 138/138
f 139/139 140/140 141/141
f 142/142 143/143 144/144
