# Generated by TyraX. Do not edit - rebaked from the procedural graph of 'forest'.
# 11 instances of res/models/rock.obj
mtllib props.mtl
v 28.0437 0.7943 -0.6344
v 28.4243 1.0091 -0.2329
v 27.6233 1.1449 -0.8269
v 28.0437 0.7943 -0.6344
v 27.6233 1.1449 -0.8269
v 28.4243 1.0091 -0.2329
v -2.4014 -0.5132 1.4922
v -1.6186 -0.1013 1.4958
v -3.0818 -0.0966 1.8258
v -2.4014 -0.5132 1.4922
v -3.0818 -0.0966 1.8258
v -1.6186 -0.1013 1.4958
v -13.6393 -1.2216 34.1331
v -14.2938 -0.8436 34.2772
v -13.1383 -0.8992 33.6739
v -13.6393 -1.2216 34.1331
v -13.1383 -0.8992 33.6739
v -14.2938 -0.8436 34.2772
v 12.2826 -2.0696 31.3628
v 12.4020 -1.6923 30.5820
v 12.5968 -1.6737 32.0534
v 12.2826 -2.0696 31.3628
v 12.5968 -1.6737 32.0534
v 12.4020 -1.6923 30.5820
v -32.8126 -1.3426 6.6220
v -33.5103 -0.9841 6.9824
v -32.3768 -0.8866 6.0613
v -32.8126 -1.3426 6.6220
v -32.3768 -0.8866 6.0613
v -33.5103 -0.9841 6.9824
v -33.8442 -0.6195 3.1295
v -34.8313 -0.1417 2.9558
v -32.9547 -0.0825 2.8152
v -33.8442 -0.6195 3.1295
v -32.9547 -0.0825 2.8152
v -34.8313 -0.1417 2.9558
v 1.8744 0.1368 1.3189
v 1.5300 0.3815 1.5511
v 2.0911 0.3479 0.9576
v 1.8744 0.1368 1.3189
v 2.0911 0.3479 0.9576
v 1.5300 0.3815 1.5511
v -7.7808 -1.0749 20.4841
v -7.0313 -0.6767 20.4406
v -8.4176 -0.6721 20.8340
v -7.7808 -1.0749 20.4841
v -8.4176 -0.6721 20.8340
v -7.0313 -0.6767 20.4406
v 5.2105 0.2501 10.9288
v 5.5837 0.6593 10.2886
v 5.1575 0.6359 11.6591
v 5.2105 0.2501 10.9288
v 5.1575 0.6359 11.6591
v 5.5837 0.6593 10.2886
v -16.1355 -1.8888 2.2286
v -15.7522 -1.5006 3.0015
v -16.8597 -1.4634 1.8415
v -16.1355 -1.8888 2.2286
v -16.8597 -1.4634 1.8415
v -15.7522 -1.5006 3.0015
v 14.8982 0.6030 10.5355
v 15.0087 0.8583 11.0672
v 14.5879 0.9081 10.1421
v 14.8982 0.6030 10.5355
v 14.5879 0.9081 10.1421
v 15.0087 0.8583 11.0672
vt 0.00000 1.00000
vt 0.00000 1.00000
vt 0.00000 1.00000
vt 0.00000 1.00000
vt 0.00000 1.00000
vt 0.00000 1.00000
vt 0.00000 1.00000
vt 0.00000 1.00000
vt 0.00000 1.00000
vt 0.00000 1.00000
vt 0.00000 1.00000
vt 0.00000 1.00000
vt 0.00000 1.00000
vt 0.00000 1.00000
vt 0.00000 1.00000
vt 0.00000 1.00000
vt 0.00000 1.00000
vt 0.00000 1.00000
vt 0.00000 1.00000
vt 0.00000 1.00000
vt 0.00000 1.00000
vt 0.00000 1.00000
vt 0.00000 1.00000
vt 0.00000 1.00000
vt 0.00000 1.00000
vt 0.00000 1.00000
vt 0.00000 1.00000
vt 0.00000 1.00000
vt 0.00000 1.00000
vt 0.00000 1.00000
vt 0.00000 1.00000
vt 0.00000 1.00000
vt 0.00000 1.00000
vt 0.00000 1.00000
vt 0.00000 1.00000
vt 0.00000 1.00000
vt 0.00000 1.00000
vt 0.00000 1.00000
vt 0.00000 1.00000
vt 0.00000 1.00000
vt 0.00000 1.00000
vt 0.00000 1.00000
vt 0.00000 1.00000
vt 0.00000 1.00000
vt 0.00000 1.00000
vt 0.00000 1.00000
vt 0.00000 1.00000
vt 0.00000 1.00000
vt 0.00000 1.00000
vt 0.00000 1.00000
vt 0.00000 1.00000
vt 0.00000 1.00000
vt 0.00000 1.00000
vt 0.00000 1.00000
vt 0.00000 1.00000
vt 0.00000 1.00000
vt 0.00000 1.00000
vt 0.00000 1.00000
vt 0.00000 1.00000
vt 0.00000 1.00000
vt 0.00000 1.00000
vt 0.00000 1.00000
vt 0.00000 1.00000
vt 0.00000 1.00000
vt 0.00000 1.00000
vt 0.00000 1.00000
usemtl stone
f 1/1 2/2 3/3
f 4/4 5/5 6/6
f 7/7 8/8 9/9
f 10/10 11/11 12/12
f 13/13 14/14 15/15
f 16/16 17/17 18/18
f 19/19 20/20 21/21
f 22/22 23/23 24/24
f 25/25 26/26 27/27
f 28/28 29/29 30/30
f 31/31 32/32 33/33
f 34/34 35/35 36/36
f 37/37 38/38 39/39
f 40/40 41/41 42/42
f 43/43 44/44 45/45
f 46/46 47/47 48/48
f 49/49 50/50 51/51
f 52/52 53/53 54/54
f 55/55 56/56 57/57
f 58/58 59/59 60/60
f 61/61 62/62 63/63
f 64/64 65/65 66/66
