# pine - generated for the procedural example (see README)
mtllib props.mtl
v -0.1700 0.0000 -0.1700
v 0.1700 0.0000 -0.1700
v 0.1700 1.5000 -0.1700
v -0.1700 1.5000 -0.1700
v -0.1700 0.0000 0.1700
v 0.1700 0.0000 0.1700
v 0.1700 1.5000 0.1700
v -0.1700 1.5000 0.1700
v 0.0000 2.8000 0.0000
v 0.0000 1.1000 0.0000
v 1.3500 1.1000 0.0000
v 0.9546 1.1000 0.9546
v 0.0000 1.1000 1.3500
v -0.9546 1.1000 0.9546
v -1.3500 1.1000 0.0000
v -0.9546 1.1000 -0.9546
v -0.0000 1.1000 -1.3500
v 0.9546 1.1000 -0.9546
v 0.0000 3.7000 0.0000
v 0.0000 2.2000 0.0000
v 1.0000 2.2000 0.0000
v 0.7071 2.2000 0.7071
v 0.0000 2.2000 1.0000
v -0.7071 2.2000 0.7071
v -1.0000 2.2000 0.0000
v -0.7071 2.2000 -0.7071
v -0.0000 2.2000 -1.0000
v 0.7071 2.2000 -0.7071
v 0.0000 4.5000 0.0000
v 0.0000 3.2000 0.0000
v 0.6200 3.2000 0.0000
v 0.4384 3.2000 0.4384
v 0.0000 3.2000 0.6200
v -0.4384 3.2000 0.4384
v -0.6200 3.2000 0.0000
v -0.4384 3.2000 -0.4384
v -0.0000 3.2000 -0.6200
v 0.4384 3.2000 -0.4384
usemtl bark
f 1 2 3
f 1 3 4
f 6 5 8
f 6 8 7
f 5 1 4
f 5 4 8
f 2 6 7
f 2 7 3
f 4 3 7
f 4 7 8
f 5 6 2
f 5 2 1
usemtl needles
f 9 11 12
f 10 12 11
f 9 12 13
f 10 13 12
f 9 13 14
f 10 14 13
f 9 14 15
f 10 15 14
f 9 15 16
f 10 16 15
f 9 16 17
f 10 17 16
f 9 17 18
f 10 18 17
f 9 18 11
f 10 11 18
f 19 21 22
f 20 22 21
f 19 22 23
f 20 23 22
f 19 23 24
f 20 24 23
f 19 24 25
f 20 25 24
f 19 25 26
f 20 26 25
f 19 26 27
f 20 27 26
f 19 27 28
f 20 28 27
f 19 28 21
f 20 21 28
f 29 31 32
f 30 32 31
f 29 32 33
f 30 33 32
f 29 33 34
f 30 34 33
f 29 34 35
f 30 35 34
f 29 35 36
f 30 36 35
f 29 36 37
f 30 37 36
f 29 37 38
f 30 38 37
f 29 38 31
f 30 31 38
