# Generated by TyraX. Do not edit - rebaked from the procedural graph of 'rocks-left'.
# 5 instances of res/models/rock.obj
mtllib props.mtl
v 0.5381 1.1151 -13.7800
v -0.4099 0.3412 -13.7009
v 0.1445 0.3649 -14.6691
v 0.5381 1.1151 -13.7800
v 0.1445 0.3649 -14.6691
v 1.2836 0.3409 -14.2294
v 0.5381 1.1151 -13.7800
v 1.2836 0.3409 -14.2294
v 0.9591 0.3137 -12.9152
v 0.5381 1.1151 -13.7800
v 0.9591 0.3137 -12.9152
v -0.4099 0.3412 -13.7009
v 0.5230 -0.1312 -13.7347
v 0.1445 0.3649 -14.6691
v -0.4099 0.3412 -13.7009
v 0.5230 -0.1312 -13.7347
v 1.2836 0.3409 -14.2294
v 0.1445 0.3649 -14.6691
v 0.5230 -0.1312 -13.7347
v 0.9591 0.3137 -12.9152
v 1.2836 0.3409 -14.2294
v 0.5230 -0.1312 -13.7347
v -0.4099 0.3412 -13.7009
v 0.9591 0.3137 -12.9152
v -11.5660 1.4210 -9.1105
v -12.5513 0.4543 -9.8593
v -11.1737 0.3931 -10.2341
v -11.5660 1.4210 -9.1105
v -11.1737 0.3931 -10.2341
v -10.5410 0.3814 -8.8040
v -11.5660 1.4210 -9.1105
v -10.5410 0.3814 -8.8040
v -12.0231 0.4642 -7.9080
v -11.5660 1.4210 -9.1105
v -12.0231 0.4642 -7.9080
v -12.5513 0.4543 -9.8593
v -11.7100 -0.1672 -9.0222
v -11.1737 0.3931 -10.2341
v -12.5513 0.4543 -9.8593
v -11.7100 -0.1672 -9.0222
v -10.5410 0.3814 -8.8040
v -11.1737 0.3931 -10.2341
v -11.7100 -0.1672 -9.0222
v -12.0231 0.4642 -7.9080
v -10.5410 0.3814 -8.8040
v -11.7100 -0.1672 -9.0222
v -12.5513 0.4543 -9.8593
v -12.0231 0.4642 -7.9080
v -13.2114 1.3086 -2.2869
v -13.2188 0.3908 -3.4022
v -12.0728 0.5671 -2.7830
v -13.2114 1.3086 -2.2869
v -12.0728 0.5671 -2.7830
v -12.5431 0.4742 -1.4267
v -13.2114 1.3086 -2.2869
v -12.5431 0.4742 -1.4267
v -14.0846 0.2418 -1.7634
v -13.2114 1.3086 -2.2869
v -14.0846 0.2418 -1.7634
v -13.2188 0.3908 -3.4022
v -13.0751 -0.1540 -2.3063
v -12.0728 0.5671 -2.7830
v -13.2188 0.3908 -3.4022
v -13.0751 -0.1540 -2.3063
v -12.5431 0.4742 -1.4267
v -12.0728 0.5671 -2.7830
v -13.0751 -0.1540 -2.3063
v -14.0846 0.2418 -1.7634
v -12.5431 0.4742 -1.4267
v -13.0751 -0.1540 -2.3063
v -13.2188 0.3908 -3.4022
v -14.0846 0.2418 -1.7634
v -3.0834 1.0703 -14.8797
v -3.1877 0.3088 -13.9883
v -3.9916 0.3420 -14.6952
v -3.0834 1.0703 -14.8797
v -3.9916 0.3420 -14.6952
v -3.3589 0.3419 -15.6820
v -3.0834 1.0703 -14.8797
v -3.3589 0.3419 -15.6820
v -2.1854 0.3103 -15.1246
v -3.0834 1.0703 -14.8797
v -2.1854 0.3103 -15.1246
v -3.1877 0.3088 -13.9883
v -3.0379 -0.1259 -14.8809
v -3.9916 0.3420 -14.6952
v -3.1877 0.3088 -13.9883
v -3.0379 -0.1259 -14.8809
v -3.3589 0.3419 -15.6820
v -3.9916 0.3420 -14.6952
v -3.0379 -0.1259 -14.8809
v -2.1854 0.3103 -15.1246
v -3.3589 0.3419 -15.6820
v -3.0379 -0.1259 -14.8809
v -3.1877 0.3088 -13.9883
v -2.1854 0.3103 -15.1246
v -8.2423 0.8142 -10.0338
v -7.9510 0.2293 -9.4176
v -8.7588 0.3427 -9.4682
v -8.2423 0.8142 -10.0338
v -8.7588 0.3427 -9.4682
v -8.8447 0.3041 -10.3577
v -8.2423 0.8142 -10.0338
v -8.8447 0.3041 -10.3577
v -7.8867 0.1609 -10.5699
v -8.2423 0.8142 -10.0338
v -7.8867 0.1609 -10.5699
v -7.9510 0.2293 -9.4176
v -8.3173 -0.0958 -10.0068
v -8.7588 0.3427 -9.4682
v -7.9510 0.2293 -9.4176
v -8.3173 -0.0958 -10.0068
v -8.8447 0.3041 -10.3577
v -8.7588 0.3427 -9.4682
v -8.3173 -0.0958 -10.0068
v -7.8867 0.1609 -10.5699
v -8.8447 0.3041 -10.3577
v -8.3173 -0.0958 -10.0068
v -7.9510 0.2293 -9.4176
v -7.8867 0.1609 -10.5699
vt 0.00000 1.00000
vt 0.00000 1.00000
vt 0.00000 1.00000
vt 0.00000 1.00000
vt 0.00000 1.00000
vt 0.00000 1.00000
vt 0.00000 1.00000
vt 0.00000 1.00000
vt 0.00000 1.00000
vt 0.00000 1.00000
vt 0.00000 1.00000
vt 0.00000 1.00000
vt 0.00000 1.00000
vt 0.00000 1.00000
vt 0.00000 1.00000
vt 0.00000 1.00000
vt 0.00000 1.00000
vt 0.00000 1.00000
vt 0.00000 1.00000
vt 0.00000 1.00000
vt 0.00000 1.00000
vt 0.00000 1.00000
vt 0.00000 1.00000
vt 0.00000 1.00000
vt 0.00000 1.00000
vt 0.00000 1.00000
vt 0.00000 1.00000
vt 0.00000 1.00000
vt 0.00000 1.00000
vt 0.00000 1.00000
vt 0.00000 1.00000
vt 0.00000 1.00000
vt 0.00000 1.00000
vt 0.00000 1.00000
vt 0.00000 1.00000
vt 0.00000 1.00000
vt 0.00000 1.00000
vt 0.00000 1.00000
vt 0.00000 1.00000
vt 0.00000 1.00000
vt 0.00000 1.00000
vt 0.00000 1.00000
vt 0.00000 1.00000
vt 0.00000 1.00000
vt 0.00000 1.00000
vt 0.00000 1.00000
vt 0.00000 1.00000
vt 0.00000 1.00000
vt 0.00000 1.00000
vt 0.00000 1.00000
vt 0.00000 1.00000
vt 0.00000 1.00000
vt 0.00000 1.00000
vt 0.00000 1.00000
vt 0.00000 1.00000
vt 0.00000 1.00000
vt 0.00000 1.00000
vt 0.00000 1.00000
vt 0.00000 1.00000
vt 0.00000 1.00000
vt 0.00000 1.00000
vt 0.00000 1.00000
vt 0.00000 1.00000
vt 0.00000 1.00000
vt 0.00000 1.00000
vt 0.00000 1.00000
vt 0.00000 1.00000
vt 0.00000 1.00000
vt 0.00000 1.00000
vt 0.00000 1.00000
vt 0.00000 1.00000
vt 0.00000 1.00000
vt 0.00000 1.00000
vt 0.00000 1.00000
vt 0.00000 1.00000
vt 0.00000 1.00000
vt 0.00000 1.00000
vt 0.00000 1.00000
vt 0.00000 1.00000
vt 0.00000 1.00000
vt 0.00000 1.00000
vt 0.00000 1.00000
vt 0.00000 1.00000
vt 0.00000 1.00000
vt 0.00000 1.00000
vt 0.00000 1.00000
vt 0.00000 1.00000
vt 0.00000 1.00000
vt 0.00000 1.00000
vt 0.00000 1.00000
vt 0.00000 1.00000
vt 0.00000 1.00000
vt 0.00000 1.00000
vt 0.00000 1.00000
vt 0.00000 1.00000
vt 0.00000 1.00000
vt 0.00000 1.00000
vt 0.00000 1.00000
vt 0.00000 1.00000
vt 0.00000 1.00000
vt 0.00000 1.00000
vt 0.00000 1.00000
vt 0.00000 1.00000
vt 0.00000 1.00000
vt 0.00000 1.00000
vt 0.00000 1.00000
vt 0.00000 1.00000
vt 0.00000 1.00000
vt 0.00000 1.00000
vt 0.00000 1.00000
vt 0.00000 1.00000
vt 0.00000 1.00000
vt 0.00000 1.00000
vt 0.00000 1.00000
vt 0.00000 1.00000
vt 0.00000 1.00000
vt 0.00000 1.00000
vt 0.00000 1.00000
vt 0.00000 1.00000
vt 0.00000 1.00000
usemtl stone
f 1/1 2/2 3/3
f 4/4 5/5 6/6
f 7/7 8/8 9/9
f 10/10 11/11 12/12
f 13/13 14/14 15/15
f 16/16 17/17 18/18
f 19/19 20/20 21/21
f 22/22 23/23 24/24
f 25/25 26/26 27/27
f 28/28 29/29 30/30
f 31/31 32/32 33/33
f 34/34 35/35 36/36
f 37/37 38/38 39/39
f 40/40 41/41 42/42
f 43/43 44/44 45/45
f 46/46 47/47 48/48
f 49/49 50/50 51/51
f 52/52 53/53 54/54
f 55/55 56/56 57/57
f 58/58 59/59 60/60
f 61/61 62/62 63/63
f 64/64 65/65 66/66
f 67/67 68/68 69/69
f 70/70 71/71 72/72
f 73/73 74/74 75/75
f 76/76 77/77 78/78
f 79/79 80/80 81/81
f 82/82 83/83 84/84
f 85/85 86/86 87/87
f 88/88 89/89 90/90
f 91/91 92/92 93/93
f 94/94 95/95 96/96
f 97/97 98/98 99/99
f 100/100 101/101 102/102
f 103/103 104/104 105/105
f 106/106 107/107 108/108
f 109/109 110/110 111/111
f 112/112 113/113 114/114
f 115/115 116/116 117/117
f 118/118 119/119 120/120
