# Generated by TyraX. Do not edit - rebaked from the procedural graph of 'rocks-right'.
# 6 instances of res/models/rock.obj
mtllib props.mtl
v 4.4727 0.8076 -11.0941
v 3.8968 0.2290 -10.7445
v 3.9413 0.2599 -11.5508
v 4.4727 0.8076 -11.0941
v 3.9413 0.2599 -11.5508
v 4.8217 0.2628 -11.6355
v 4.4727 0.8076 -11.0941
v 4.8217 0.2628 -11.6355
v 5.0382 0.2328 -10.6797
v 4.4727 0.8076 -11.0941
v 5.0382 0.2328 -10.6797
v 3.8968 0.2290 -10.7445
v 4.4971 -0.0950 -11.0741
v 3.9413 0.2599 -11.5508
v 3.8968 0.2290 -10.7445
v 4.4971 -0.0950 -11.0741
v 4.8217 0.2628 -11.6355
v 3.9413 0.2599 -11.5508
v 4.4971 -0.0950 -11.0741
v 5.0382 0.2328 -10.6797
v 4.8217 0.2628 -11.6355
v 4.4971 -0.0950 -11.0741
v 3.8968 0.2290 -10.7445
v 5.0382 0.2328 -10.6797
v -1.0498 0.9491 -5.3266
v -1.0028 0.2764 -6.1224
v -0.2440 0.3246 -5.5541
v -1.0498 0.9491 -5.3266
v -0.2440 0.3246 -5.5541
v -0.7336 0.3105 -4.6380
v -1.0498 0.9491 -5.3266
v -0.7336 0.3105 -4.6380
v -1.8083 0.2554 -5.0483
v -1.0498 0.9491 -5.3266
v -1.8083 0.2554 -5.0483
v -1.0028 0.2764 -6.1224
v -1.0626 -0.1117 -5.3238
v -0.2440 0.3246 -5.5541
v -1.0028 0.2764 -6.1224
v -1.0626 -0.1117 -5.3238
v -0.7336 0.3105 -4.6380
v -0.2440 0.3246 -5.5541
v -1.0626 -0.1117 -5.3238
v -1.8083 0.2554 -5.0483
v -0.7336 0.3105 -4.6380
v -1.0626 -0.1117 -5.3238
v -1.0028 0.2764 -6.1224
v -1.8083 0.2554 -5.0483
v 8.7385 1.3513 -13.9541
v 7.9540 0.4425 -13.0705
v 7.5217 0.5817 -14.3487
v 8.7385 1.3513 -13.9541
v 7.5217 0.5817 -14.3487
v 8.8277 0.4490 -15.0419
v 8.7385 1.3513 -13.9541
v 8.8277 0.4490 -15.0419
v 9.7571 0.2499 -13.6983
v 8.7385 1.3513 -13.9541
v 9.7571 0.2499 -13.6983
v 7.9540 0.4425 -13.0705
v 8.6084 -0.1590 -13.9800
v 7.5217 0.5817 -14.3487
v 7.9540 0.4425 -13.0705
v 8.6084 -0.1590 -13.9800
v 8.8277 0.4490 -15.0419
v 7.5217 0.5817 -14.3487
v 8.6084 -0.1590 -13.9800
v 9.7571 0.2499 -13.6983
v 8.8277 0.4490 -15.0419
v 8.6084 -0.1590 -13.9800
v 7.9540 0.4425 -13.0705
v 9.7571 0.2499 -13.6983
v -3.0699 0.8657 -8.2859
v -3.7440 0.2294 -8.5056
v -3.0956 0.3266 -9.0727
v -3.0699 0.8657 -8.2859
v -3.0956 0.3266 -9.0727
v -2.3695 0.3201 -8.4619
v -3.0699 0.8657 -8.2859
v -2.3695 0.3201 -8.4619
v -2.9362 0.2068 -7.5831
v -3.0699 0.8657 -8.2859
v -2.9362 0.2068 -7.5831
v -3.7440 0.2294 -8.5056
v -3.0266 -0.1018 -8.3153
v -3.0956 0.3266 -9.0727
v -3.7440 0.2294 -8.5056
v -3.0266 -0.1018 -8.3153
v -2.3695 0.3201 -8.4619
v -3.0956 0.3266 -9.0727
v -3.0266 -0.1018 -8.3153
v -2.9362 0.2068 -7.5831
v -2.3695 0.3201 -8.4619
v -3.0266 -0.1018 -8.3153
v -3.7440 0.2294 -8.5056
v -2.9362 0.2068 -7.5831
v 11.2304 1.4666 -7.1341
v 11.8631 0.3998 -6.1039
v 10.3993 0.4849 -6.1579
v 11.2304 1.4666 -7.1341
v 10.3993 0.4849 -6.1579
v 10.2168 0.4993 -7.7532
v 11.2304 1.4666 -7.1341
v 10.2168 0.4993 -7.7532
v 11.9434 0.4122 -8.1780
v 11.2304 1.4666 -7.1341
v 11.9434 0.4122 -8.1780
v 11.8631 0.3998 -6.1039
v 11.2336 -0.1725 -7.1848
v 10.3993 0.4849 -6.1579
v 11.8631 0.3998 -6.1039
v 11.2336 -0.1725 -7.1848
v 10.2168 0.4993 -7.7532
v 10.3993 0.4849 -6.1579
v 11.2336 -0.1725 -7.1848
v 11.9434 0.4122 -8.1780
v 10.2168 0.4993 -7.7532
v 11.2336 -0.1725 -7.1848
v 11.8631 0.3998 -6.1039
v 11.9434 0.4122 -8.1780
v -0.2897 0.8790 -10.6782
v 0.2313 0.2493 -11.1943
v 0.4354 0.3324 -10.3427
v -0.2897 0.8790 -10.6782
v 0.4354 0.3324 -10.3427
v -0.4550 0.3091 -9.9774
v -0.2897 0.8790 -10.6782
v -0.4550 0.3091 -9.9774
v -0.9777 0.2079 -10.9024
v -0.2897 0.8790 -10.6782
v -0.9777 0.2079 -10.9024
v 0.2313 0.2493 -11.1943
v -0.2736 -0.1034 -10.6458
v 0.4354 0.3324 -10.3427
v 0.2313 0.2493 -11.1943
v -0.2736 -0.1034 -10.6458
v -0.4550 0.3091 -9.9774
v 0.4354 0.3324 -10.3427
v -0.2736 -0.1034 -10.6458
v -0.9777 0.2079 -10.9024
v -0.4550 0.3091 -9.9774
v -0.2736 -0.1034 -10.6458
v 0.2313 0.2493 -11.1943
v -0.9777 0.2079 -10.9024
vt 0.00000 1.00000
vt 0.00000 1.00000
vt 0.00000 1.00000
vt 0.00000 1.00000
vt 0.00000 1.00000
vt 0.00000 1.00000
vt 0.00000 1.00000
vt 0.00000 1.00000
vt 0.00000 1.00000
vt 0.00000 1.00000
vt 0.00000 1.00000
vt 0.00000 1.00000
vt 0.00000 1.00000
vt 0.00000 1.00000
vt 0.00000 1.00000
vt 0.00000 1.00000
vt 0.00000 1.00000
vt 0.00000 1.00000
vt 0.00000 1.00000
vt 0.00000 1.00000
vt 0.00000 1.00000
vt 0.00000 1.00000
vt 0.00000 1.00000
vt 0.00000 1.00000
vt 0.00000 1.00000
vt 0.00000 1.00000
vt 0.00000 1.00000
vt 0.00000 1.00000
vt 0.00000 1.00000
vt 0.00000 1.00000
vt 0.00000 1.00000
vt 0.00000 1.00000
vt 0.00000 1.00000
vt 0.00000 1.00000
vt 0.00000 1.00000
vt 0.00000 1.00000
vt 0.00000 1.00000
vt 0.00000 1.00000
vt 0.00000 1.00000
vt 0.00000 1.00000
vt 0.00000 1.00000
vt 0.00000 1.00000
vt 0.00000 1.00000
vt 0.00000 1.00000
vt 0.00000 1.00000
vt 0.00000 1.00000
vt 0.00000 1.00000
vt 0.00000 1.00000
vt 0.00000 1.00000
vt 0.00000 1.00000
vt 0.00000 1.00000
vt 0.00000 1.00000
vt 0.00000 1.00000
vt 0.00000 1.00000
vt 0.00000 1.00000
vt 0.00000 1.00000
vt 0.00000 1.00000
vt 0.00000 1.00000
vt 0.00000 1.00000
vt 0.00000 1.00000
vt 0.00000 1.00000
vt 0.00000 1.00000
vt 0.00000 1.00000
vt 0.00000 1.00000
vt 0.00000 1.00000
vt 0.00000 1.00000
vt 0.00000 1.00000
vt 0.00000 1.00000
vt 0.00000 1.00000
vt 0.00000 1.00000
vt 0.00000 1.00000
vt 0.00000 1.00000
vt 0.00000 1.00000
vt 0.00000 1.00000
vt 0.00000 1.00000
vt 0.00000 1.00000
vt 0.00000 1.00000
vt 0.00000 1.00000
vt 0.00000 1.00000
vt 0.00000 1.00000
vt 0.00000 1.00000
vt 0.00000 1.00000
vt 0.00000 1.00000
vt 0.00000 1.00000
vt 0.00000 1.00000
vt 0.00000 1.00000
vt 0.00000 1.00000
vt 0.00000 1.00000
vt 0.00000 1.00000
vt 0.00000 1.00000
vt 0.00000 1.00000
vt 0.00000 1.00000
vt 0.00000 1.00000
vt 0.00000 1.00000
vt 0.00000 1.00000
vt 0.00000 1.00000
vt 0.00000 1.00000
vt 0.00000 1.00000
vt 0.00000 1.00000
vt 0.00000 1.00000
vt 0.00000 1.00000
vt 0.00000 1.00000
vt 0.00000 1.00000
vt 0.00000 1.00000
vt 0.00000 1.00000
vt 0.00000 1.00000
vt 0.00000 1.00000
vt 0.00000 1.00000
vt 0.00000 1.00000
vt 0.00000 1.00000
vt 0.00000 1.00000
vt 0.00000 1.00000
vt 0.00000 1.00000
vt 0.00000 1.00000
vt 0.00000 1.00000
vt 0.00000 1.00000
vt 0.00000 1.00000
vt 0.00000 1.00000
vt 0.00000 1.00000
vt 0.00000 1.00000
vt 0.00000 1.00000
vt 0.00000 1.00000
vt 0.00000 1.00000
vt 0.00000 1.00000
vt 0.00000 1.00000
vt 0.00000 1.00000
vt 0.00000 1.00000
vt 0.00000 1.00000
vt 0.00000 1.00000
vt 0.00000 1.00000
vt 0.00000 1.00000
vt 0.00000 1.00000
vt 0.00000 1.00000
vt 0.00000 1.00000
vt 0.00000 1.00000
vt 0.00000 1.00000
vt 0.00000 1.00000
vt 0.00000 1.00000
vt 0.00000 1.00000
vt 0.00000 1.00000
vt 0.00000 1.00000
vt 0.00000 1.00000
vt 0.00000 1.00000
vt 0.00000 1.00000
usemtl stone
f 1/1 2/2 3/3
f 4/4 5/5 6/6
f 7/7 8/8 9/9
f 10/10 11/11 12/12
f 13/13 14/14 15/15
f 16/16 17/17 18/18
f 19/19 20/20 21/21
f 22/22 23/23 24/24
f 25/25 26/26 27/27
f 28/28 29/29 30/30
f 31/31 32/32 33/33
f 34/34 35/35 36/36
f 37/37 38/38 39/39
f 40/40 41/41 42/42
f 43/43 44/44 45/45
f 46/46 47/47 48/48
f 49/49 50/50 51/51
f 52/52 53/53 54/54
f 55/55 56/56 57/57
f 58/58 59/59 60/60
f 61/61 62/62 63/63
f 64/64 65/65 66/66
f 67/67 68/68 69/69
f 70/70 71/71 72/72
f 73/73 74/74 75/75
f 76/76 77/77 78/78
f 79/79 80/80 81/81
f 82/82 83/83 84/84
f 85/85 86/86 87/87
f 88/88 89/89 90/90
f 91/91 92/92 93/93
f 94/94 95/95 96/96
f 97/97 98/98 99/99
f 100/100 101/101 102/102
f 103/103 104/104 105/105
f 106/106 107/107 108/108
f 109/109 110/110 111/111
f 112/112 113/113 114/114
f 115/115 116/116 117/117
f 118/118 119/119 120/120
f 121/121 122/122 123/123
f 124/124 125/125 126/126
f 127/127 128/128 129/129
f 130/130 131/131 132/132
f 133/133 134/134 135/135
f 136/136 137/137 138/138
f 139/139 140/140 141/141
f 142/142 143/143 144/144
