# Blender 5.2.0 LTS
# www.blender.org
mtllib Prop_Wagon.mtl
o Prop_Wagon
v 0.723699 0.594910 -3.150432
v 0.649093 0.602101 -3.149086
v 0.740251 0.874073 -3.098170
v 0.665643 0.881265 -3.096823
v 0.723699 0.021148 0.851716
v 0.649093 0.028340 0.853062
v 0.740251 0.130763 0.872238
v 0.665643 0.137954 0.873583
v 0.665603 0.382430 -0.432433
v 0.724020 0.184502 -0.374842
v 0.723586 0.185190 -0.220023
v 0.740001 0.368303 -0.396593
v 0.649159 0.191453 -0.208979
v 0.649297 0.192469 -0.362630
v 0.649115 0.159149 -0.643964
v 0.649086 0.166104 -0.814963
v 0.723386 0.153868 -0.626810
v 0.723686 0.155357 -0.787004
v 0.687412 0.208740 -0.846422
v 0.689645 0.221267 -0.913423
v 0.687835 0.277810 -0.833491
v 0.690069 0.290338 -0.900493
v -0.003655 0.218467 -0.871699
v -0.003655 0.230994 -0.938700
v -0.003655 0.287537 -0.858768
v -0.003655 0.300065 -0.925769
v 0.688762 0.443791 -1.805187
v 0.688778 0.458756 -1.871776
v 0.689188 0.512862 -1.792256
v 0.689188 0.525413 -1.859296
v -0.696088 0.446205 -1.804734
v -0.696522 0.516725 -1.791532
v -0.696513 0.527827 -1.858843
v 0.689428 0.629385 -2.796562
v 0.687870 0.641942 -2.863579
v 0.689851 0.698456 -2.783631
v 0.688293 0.711013 -2.850649
v -0.003655 0.630791 -2.777384
v -0.003655 0.643349 -2.844402
v -0.003655 0.699862 -2.764453
v -0.003655 0.712420 -2.831471
v 0.008211 0.745382 -3.122262
v 0.008697 0.818923 -3.108494
v 0.227769 0.743980 -3.122525
v 0.228256 0.817520 -3.108757
v 0.008211 0.207374 -0.545300
v 0.008697 0.280914 -0.531532
v 0.227769 0.205971 -0.545562
v 0.228256 0.279512 -0.531794
v 0.480762 0.811595 -3.086020
v 0.480276 0.738054 -3.099788
v 0.261203 0.812997 -3.085758
v 0.260717 0.739457 -3.099526
v 0.480762 0.273586 -0.509058
v 0.480276 0.200045 -0.522826
v 0.261205 0.274988 -0.508796
v 0.260719 0.201447 -0.522563
v 0.655820 0.815858 -3.117077
v 0.655334 0.742318 -3.130845
v 0.495735 0.817261 -3.116815
v 0.495248 0.743720 -3.130582
v 0.655822 0.277849 -0.540115
v 0.655336 0.204309 -0.553882
v 0.495737 0.279252 -0.539852
v 0.495250 0.205711 -0.553620
v -0.731009 0.594910 -3.150432
v -0.656403 0.602101 -3.149086
v -0.747561 0.874073 -3.098170
v -0.672955 0.881265 -3.096823
v -0.731007 0.021148 0.851717
v -0.656401 0.028339 0.853062
v -0.747559 0.130763 0.872238
v -0.672951 0.137954 0.873584
v -0.673106 0.391335 -0.479993
v -0.731181 0.184575 -0.374129
v -0.731066 0.185208 -0.220511
v -0.747523 0.375289 -0.434038
v -0.656523 0.191433 -0.208824
v -0.656441 0.192574 -0.361269
v -0.656335 0.159170 -0.643740
v -0.656336 0.166114 -0.814999
v -0.731014 0.153814 -0.627130
v -0.730996 0.155357 -0.787001
v -0.694722 0.208739 -0.846422
v -0.696953 0.221267 -0.913423
v -0.695145 0.277810 -0.833491
v -0.697379 0.290338 -0.900492
v -0.696072 0.456342 -1.872226
v -0.696738 0.629385 -2.796562
v -0.695179 0.641942 -2.863579
v -0.697161 0.698456 -2.783631
v -0.695605 0.711013 -2.850648
v -0.015522 0.745382 -3.122262
v -0.016009 0.818923 -3.108494
v -0.235081 0.743980 -3.122525
v -0.235568 0.817520 -3.108757
v -0.015521 0.207374 -0.545300
v -0.016007 0.280914 -0.531532
v -0.235079 0.205971 -0.545562
v -0.235566 0.279512 -0.531794
v -0.488072 0.811595 -3.086020
v -0.487586 0.738054 -3.099788
v -0.268515 0.812997 -3.085758
v -0.268029 0.739457 -3.099525
v -0.488072 0.273586 -0.509058
v -0.487586 0.200045 -0.522826
v -0.268513 0.274988 -0.508795
v -0.268027 0.201447 -0.522563
v -0.663132 0.815858 -3.117076
v -0.662646 0.742318 -3.130845
v -0.503047 0.817261 -3.116814
v -0.502560 0.743720 -3.130582
v -0.663130 0.277849 -0.540115
v -0.662644 0.204309 -0.553882
v -0.503045 0.279252 -0.539852
v -0.502558 0.205711 -0.553620
v 0.456989 1.291907 -2.986472
v 0.388828 1.294295 -2.986209
v 0.456989 1.284219 -2.916622
v 0.388828 1.286608 -2.916358
v 0.436973 0.727466 -3.048593
v 0.368810 0.729854 -3.048330
v 0.436973 0.719778 -2.978742
v 0.368810 0.722167 -2.978480
v -0.326445 1.293352 -2.986312
v -0.394650 1.293352 -2.986312
v -0.326445 1.285664 -2.916462
v -0.394650 1.285664 -2.916462
v -0.326445 0.738577 -3.047369
v -0.394650 0.738577 -3.047369
v -0.326445 0.730889 -2.977519
v -0.394650 0.730889 -2.977519
v -0.660529 1.019732 -2.891169
v -0.660529 1.027917 -2.965539
v -0.660529 0.801487 -2.915188
v -0.660529 0.809672 -2.989559
v 0.652486 1.019733 -2.891169
v 0.652486 1.027918 -2.965539
v 0.652486 0.801488 -2.915188
v 0.652486 0.809673 -2.989560
v -0.691840 1.252861 -2.865511
v -0.691840 1.261046 -2.939882
v -0.691840 1.034616 -2.889531
v -0.691840 1.042801 -2.963901
v 0.659809 1.252861 -2.865512
v 0.659809 1.261047 -2.939883
v 0.659809 1.034617 -2.889532
v 0.659809 1.042801 -2.963902
v 0.679634 0.221668 -0.133395
v 0.682531 0.236376 -0.211843
v 0.675720 0.290652 -0.120403
v 0.678617 0.305360 -0.198851
v -0.685927 0.215972 -0.141641
v -0.683030 0.230680 -0.220089
v -0.689841 0.284956 -0.128649
v -0.686944 0.299664 -0.207096
v 0.660919 0.311612 -0.683388
v 0.660919 0.302761 -0.609143
v 0.660919 0.396475 -0.671875
v 0.660919 0.387624 -0.597629
v -0.642567 0.311611 -0.683387
v -0.642567 0.302760 -0.609142
v -0.642567 0.396474 -0.671874
v -0.642567 0.387623 -0.597628
v 0.783905 1.114636 -0.674762
v 0.784086 1.129251 -0.741372
v 0.713832 1.119217 -0.673905
v 0.714014 1.133832 -0.740515
v 0.734823 0.418669 -0.834218
v 0.734985 0.433284 -0.900829
v 0.671831 0.423250 -0.833361
v 0.671993 0.437865 -0.899971
v 0.784013 1.297637 -1.645336
v 0.784013 1.310188 -1.712376
v 0.713941 1.302219 -1.644478
v 0.713941 1.314770 -1.711518
v 0.734886 0.595960 -1.776699
v 0.734886 0.608511 -1.843739
v 0.671894 0.600541 -1.775841
v 0.671894 0.613092 -1.842881
v 0.784067 1.484113 -2.637988
v 0.783941 1.495213 -2.705278
v 0.713995 1.488694 -2.637130
v 0.713869 1.499794 -2.704420
v 0.734951 0.778966 -2.749644
v 0.734838 0.790066 -2.816934
v 0.671958 0.783547 -2.748786
v 0.671846 0.794647 -2.816077
v 0.679164 0.916652 -3.090198
v 0.604558 0.921530 -3.089285
v 0.695716 1.105993 -3.054752
v 0.621109 1.110871 -3.053838
v 0.679166 0.432331 -0.503185
v 0.604558 0.437208 -0.502272
v 0.695716 0.621671 -0.467738
v 0.621110 0.626549 -0.466824
v 0.640144 1.324312 -2.990034
v 0.714750 1.319434 -2.990947
v 0.623592 1.134971 -3.025481
v 0.698200 1.130093 -3.026393
v 0.640146 0.839991 -0.403020
v 0.714752 0.835113 -0.403933
v 0.623594 0.650650 -0.438466
v 0.698202 0.645773 -0.439380
v 0.657825 1.532327 -2.982945
v 0.732431 1.527449 -2.983859
v 0.641273 1.342986 -3.018393
v 0.715879 1.338108 -3.019306
v 0.657825 1.048006 -0.395932
v 0.732433 1.043128 -0.396845
v 0.641273 0.858665 -0.431379
v 0.715881 0.853788 -0.432292
v -0.791214 1.114636 -0.674762
v -0.791396 1.129251 -0.741372
v -0.721142 1.119217 -0.673905
v -0.721323 1.133832 -0.740515
v -0.742133 0.418669 -0.834218
v -0.742295 0.433284 -0.900829
v -0.679141 0.423250 -0.833361
v -0.679303 0.437865 -0.899971
v -0.791323 1.297637 -1.645336
v -0.791323 1.310188 -1.712376
v -0.721251 1.302219 -1.644478
v -0.721251 1.314770 -1.711518
v -0.742196 0.595960 -1.776699
v -0.742196 0.608511 -1.843739
v -0.679204 0.600541 -1.775841
v -0.679204 0.613092 -1.842881
v -0.791377 1.484113 -2.637988
v -0.791251 1.495213 -2.705278
v -0.721304 1.488694 -2.637130
v -0.721179 1.499794 -2.704420
v -0.742260 0.778966 -2.749644
v -0.742148 0.790066 -2.816934
v -0.679268 0.783547 -2.748786
v -0.679156 0.794647 -2.816077
v -0.686474 0.916652 -3.090198
v -0.611868 0.921530 -3.089285
v -0.703026 1.105993 -3.054752
v -0.628418 1.110871 -3.053838
v -0.686476 0.432331 -0.503185
v -0.611868 0.437208 -0.502272
v -0.703026 0.621671 -0.467738
v -0.628420 0.626549 -0.466824
v -0.647454 1.324312 -2.990034
v -0.722060 1.319434 -2.990947
v -0.630902 1.134971 -3.025481
v -0.705510 1.130093 -3.026393
v -0.647456 0.839991 -0.403020
v -0.722062 0.835113 -0.403933
v -0.630904 0.650650 -0.438466
v -0.705512 0.645773 -0.439380
v -0.665135 1.532327 -2.982945
v -0.739741 1.527449 -2.983859
v -0.648583 1.342986 -3.018393
v -0.723189 1.338108 -3.019306
v -0.665135 1.048006 -0.395932
v -0.739743 1.043128 -0.396845
v -0.648583 0.858665 -0.431379
v -0.723191 0.853788 -0.432292
v 0.807060 0.618961 -2.912072
v 0.920263 0.491001 -2.912075
v 0.807061 0.403412 -2.894653
v 0.920284 0.343791 -2.871385
v 0.807061 0.210941 -2.796075
v 0.920263 0.195929 -2.783755
v 0.807060 0.096132 -2.668136
v 0.920284 0.096132 -2.668136
v 0.807081 0.027504 -2.531693
v 0.920282 0.021867 -2.513108
v 0.807039 0.002544 -2.316898
v 0.920305 0.004448 -2.297565
v 0.807094 0.061683 -2.108891
v 0.920250 0.070834 -2.091770
v 0.807060 0.164761 -1.971338
v 0.920282 0.210942 -1.927023
v 0.807060 0.248385 -1.902709
v 0.807039 0.384819 -1.834085
v 0.920282 0.403415 -1.828445
v 0.807060 0.554972 -1.809708
v 0.920282 0.618963 -1.811027
v 0.807081 0.706546 -1.828449
v 0.920284 0.766153 -1.851714
v 0.807039 0.899008 -1.927027
v 0.920305 0.914025 -1.939351
v 0.807060 1.013811 -2.054963
v 0.920227 1.043018 -2.100688
v 0.807060 1.064807 -2.150369
v 0.807059 1.105696 -2.307312
v 0.920284 1.096210 -2.253891
v 0.920305 1.105496 -2.425528
v 0.807058 1.096210 -2.469208
v 0.807059 1.048265 -2.614197
v 0.920250 1.039109 -2.631329
v 0.807059 0.914030 -2.783742
v 0.920305 0.899008 -2.796071
v 0.807058 0.766153 -2.871385
v 0.920284 0.766153 -2.871385
v 0.920284 0.662631 -2.902788
v 0.809384 0.516440 -2.838201
v 0.917975 0.408150 -2.816658
v 0.917975 0.593489 -2.838202
v 0.809348 0.336972 -2.787175
v 0.917975 0.245163 -2.725830
v 0.809366 0.218285 -2.698236
v 0.809348 0.137246 -2.594328
v 0.917995 0.129345 -2.579546
v 0.809366 0.087974 -2.454441
v 0.917976 0.087974 -2.454441
v 0.809396 0.078320 -2.323018
v 0.917946 0.079962 -2.306348
v 0.809348 0.129345 -2.143553
v 0.917995 0.137246 -2.128771
v 0.809367 0.245162 -1.997271
v 0.917976 0.218285 -2.024863
v 0.917958 0.336966 -1.935926
v 0.809396 0.408159 -1.906436
v 0.917976 0.462080 -1.894552
v 0.809348 0.593496 -1.884898
v 0.917958 0.610167 -1.886539
v 0.809367 0.772962 -1.935919
v 0.917958 0.787741 -1.943817
v 0.809366 0.891658 -2.024863
v 0.917976 0.891658 -2.024863
v 0.809348 0.972695 -2.128767
v 0.917995 0.980596 -2.143549
v 0.809396 1.029981 -2.306349
v 0.917946 1.031623 -2.323018
v 0.809366 1.021969 -2.454441
v 0.917976 1.021969 -2.454441
v 0.809384 0.980592 -2.579559
v 0.917995 0.972695 -2.594332
v 0.809366 0.891658 -2.698236
v 0.917976 0.891658 -2.698236
v 0.809384 0.787746 -2.779278
v 0.917975 0.772968 -2.787177
v 0.809366 0.647863 -2.828547
v 0.901599 1.093710 -2.338432
v 0.901599 1.093710 -2.384666
v 0.857961 1.093532 -2.338432
v 0.857961 1.093532 -2.384666
v 0.903490 0.555061 -2.338433
v 0.903490 0.555061 -2.384666
v 0.859851 0.554883 -2.338432
v 0.859851 0.554883 -2.384666
v 0.905073 1.033091 -2.610898
v 0.905073 1.009974 -2.650938
v 0.857439 1.032937 -2.610809
v 0.857439 1.009820 -2.650849
v 0.907136 0.566607 -2.341574
v 0.907136 0.543490 -2.381613
v 0.859500 0.566453 -2.341485
v 0.859500 0.543336 -2.381525
v 0.901599 0.844361 -2.816552
v 0.901599 0.804321 -2.839669
v 0.857961 0.844272 -2.816398
v 0.857961 0.804232 -2.839514
v 0.903490 0.575036 -2.350068
v 0.903490 0.534996 -2.373185
v 0.859851 0.574947 -2.349914
v 0.859851 0.534907 -2.373031
v 0.900573 0.578089 -2.900287
v 0.900573 0.531855 -2.900287
v 0.858116 0.578089 -2.900109
v 0.858116 0.531855 -2.900109
v 0.902414 0.578089 -2.361639
v 0.902414 0.531855 -2.361639
v 0.859954 0.578089 -2.361460
v 0.859954 0.531855 -2.361460
v 0.901599 0.305622 -2.839669
v 0.901599 0.265583 -2.816552
v 0.857961 0.305712 -2.839515
v 0.857961 0.265672 -2.816398
v 0.903490 0.574947 -2.373185
v 0.903490 0.534907 -2.350068
v 0.859851 0.575036 -2.373031
v 0.859851 0.534996 -2.349914
v 0.905073 0.099969 -2.650938
v 0.905073 0.076852 -2.610899
v 0.857439 0.100123 -2.650849
v 0.857439 0.077006 -2.610810
v 0.907136 0.566453 -2.381613
v 0.907136 0.543336 -2.341574
v 0.859500 0.566607 -2.381525
v 0.859500 0.543490 -2.341485
v 0.901599 0.016233 -2.384666
v 0.901599 0.016233 -2.338433
v 0.857961 0.016412 -2.384666
v 0.857961 0.016411 -2.338433
v 0.903490 0.554883 -2.384666
v 0.903490 0.554883 -2.338432
v 0.859851 0.555061 -2.384666
v 0.859851 0.555061 -2.338433
v 0.905073 0.076852 -2.112200
v 0.905073 0.099969 -2.072160
v 0.857439 0.077006 -2.112289
v 0.857439 0.100123 -2.072249
v 0.907136 0.543336 -2.381525
v 0.907136 0.566453 -2.341485
v 0.859500 0.543490 -2.381614
v 0.859500 0.566607 -2.341574
v 0.901599 0.265583 -1.906546
v 0.901599 0.305622 -1.883430
v 0.857961 0.265672 -1.906701
v 0.857961 0.305711 -1.883584
v 0.903490 0.534907 -2.373031
v 0.903490 0.574947 -2.349914
v 0.859851 0.534996 -2.373185
v 0.859851 0.575036 -2.350068
v 0.900573 0.531855 -1.822811
v 0.900573 0.578089 -1.822811
v 0.858116 0.531855 -1.822989
v 0.858116 0.578089 -1.822989
v 0.902414 0.531855 -2.361460
v 0.902414 0.578088 -2.361460
v 0.859954 0.531855 -2.361639
v 0.859954 0.578088 -2.361639
v 0.901599 0.804321 -1.883430
v 0.901599 0.844361 -1.906546
v 0.857961 0.804232 -1.883584
v 0.857961 0.844272 -1.906701
v 0.903490 0.534996 -2.349914
v 0.903490 0.575036 -2.373031
v 0.859851 0.534907 -2.350068
v 0.859851 0.574947 -2.373185
v 0.905073 1.009974 -2.072160
v 0.905073 1.033091 -2.112200
v 0.857439 1.009820 -2.072249
v 0.857439 1.032937 -2.112289
v 0.907136 0.543490 -2.341485
v 0.907136 0.566607 -2.381525
v 0.859500 0.543336 -2.341574
v 0.859500 0.566453 -2.381614
v 0.920045 0.555049 -2.431878
v 0.920045 0.524535 -2.424913
v 0.920045 0.500064 -2.405398
v 0.920045 0.486484 -2.377199
v 0.920045 0.486484 -2.345900
v 0.920045 0.500064 -2.317700
v 0.920045 0.524535 -2.298186
v 0.920045 0.555049 -2.291221
v 0.920045 0.585563 -2.298186
v 0.920045 0.610034 -2.317700
v 0.920045 0.623614 -2.345900
v 0.920045 0.623614 -2.377199
v 0.920045 0.610034 -2.405398
v 0.920045 0.585563 -2.424913
v 0.920079 0.528991 -2.394226
v 0.920081 0.564515 -2.403023
v 0.920087 0.512512 -2.361550
v 0.920156 0.538516 -2.321169
v 0.920183 0.590729 -2.336451
v 0.920073 0.592706 -2.379684
v 0.957942 0.542534 -2.384711
v 0.958107 0.529966 -2.361550
v 0.957459 0.538928 -2.341336
v 0.958107 0.560629 -2.337095
v 0.957049 0.575014 -2.345628
v 0.958107 0.580132 -2.361549
v 0.959142 0.568135 -2.383115
v 0.972049 0.555049 -2.361549
v 0.834484 0.573962 -2.430801
v 0.834484 0.620984 -2.389939
v 0.834484 0.618355 -2.327698
v 0.834484 0.568053 -2.290949
v 0.834484 0.507959 -2.307364
v 0.834484 0.483325 -2.364580
v 0.834484 0.512699 -2.419514
v 0.834484 0.562489 -2.403325
v 0.834484 0.593759 -2.378217
v 0.834484 0.592215 -2.341677
v 0.834484 0.564998 -2.320511
v 0.834484 0.530221 -2.327139
v 0.834484 0.512940 -2.363328
v 0.834484 0.532348 -2.396465
v -0.841794 0.522768 -2.387293
v -0.841794 0.512826 -2.360983
v -0.841794 0.587330 -2.335806
v -0.841794 0.597272 -2.362116
v -0.841794 0.580931 -2.394915
v -0.814370 0.618961 -2.912072
v -0.927573 0.491000 -2.912075
v -0.814370 0.447313 -2.902788
v -0.814371 0.302323 -2.854843
v -0.927594 0.343791 -2.871385
v -0.927573 0.195928 -2.783755
v -0.814404 0.132770 -2.720597
v -0.927594 0.096132 -2.668136
v -0.814391 0.027504 -2.531693
v -0.927594 0.045136 -2.572730
v -0.927615 0.002544 -2.406201
v -0.814349 0.002544 -2.316898
v -0.927594 0.013733 -2.253891
v -0.814404 0.061683 -2.108891
v -0.927560 0.070834 -2.091770
v -0.814370 0.164761 -1.971338
v -0.927593 0.210942 -1.927023
v -0.814391 0.285192 -1.877412
v -0.927615 0.403409 -1.828447
v -0.814391 0.490999 -1.811025
v -0.927594 0.554972 -1.809708
v -0.814391 0.706546 -1.828449
v -0.927593 0.725130 -1.834087
v -0.814349 0.899008 -1.927027
v -0.927615 0.914025 -1.939351
v -0.814370 1.013811 -2.054963
v -0.927537 1.043018 -2.100688
v -0.814370 1.064807 -2.150369
v -0.814370 1.105696 -2.307312
v -0.927594 1.096210 -2.253891
v -0.927615 1.105496 -2.425528
v -0.814368 1.096210 -2.469208
v -0.814370 1.048265 -2.614197
v -0.927594 1.064807 -2.572730
v -0.927573 0.977175 -2.720595
v -0.814370 0.914030 -2.783742
v -0.927573 0.807637 -2.854835
v -0.814368 0.766153 -2.871385
v -0.927594 0.662631 -2.902788
v -0.816694 0.610166 -2.836560
v -0.816694 0.424185 -2.821523
v -0.925285 0.408150 -2.816658
v -0.925286 0.554972 -2.837696
v -0.816676 0.290439 -2.757451
v -0.925285 0.245163 -2.725830
v -0.816658 0.190690 -2.671356
v -0.925305 0.129345 -2.579546
v -0.816677 0.099861 -2.508368
v -0.925286 0.087974 -2.454441
v -0.816706 0.078320 -2.323018
v -0.925285 0.079963 -2.306337
v -0.816658 0.129345 -2.143553
v -0.925305 0.137246 -2.128771
v -0.816677 0.245162 -1.997271
v -0.925286 0.218285 -2.024863
v -0.925268 0.336967 -1.935926
v -0.816677 0.408149 -1.906440
v -0.925286 0.462080 -1.894552
v -0.816677 0.593491 -1.884897
v -0.925305 0.610177 -1.886541
v -0.816677 0.772962 -1.935919
v -0.925268 0.787741 -1.943817
v -0.816676 0.891658 -2.024863
v -0.925286 0.891658 -2.024863
v -0.816658 0.972695 -2.128767
v -0.925305 0.980596 -2.143549
v -0.816706 1.029981 -2.306349
v -0.925256 1.031623 -2.323019
v -0.816676 1.021969 -2.454441
v -0.925286 1.021969 -2.454441
v -0.816694 0.980592 -2.579559
v -0.925285 0.972692 -2.594337
v -0.816676 0.891658 -2.698236
v -0.925285 0.851813 -2.736471
v -0.816694 0.787746 -2.779278
v -0.925285 0.685738 -2.821529
v -0.908909 1.093710 -2.338432
v -0.908909 1.093710 -2.384666
v -0.865271 1.093532 -2.338432
v -0.865271 1.093532 -2.384666
v -0.910800 0.555061 -2.338433
v -0.910800 0.555061 -2.384666
v -0.867161 0.554883 -2.338432
v -0.867161 0.554883 -2.384666
v -0.912383 1.033091 -2.610898
v -0.912383 1.009974 -2.650938
v -0.864748 1.032937 -2.610809
v -0.864748 1.009820 -2.650849
v -0.914446 0.566607 -2.341574
v -0.914446 0.543490 -2.381613
v -0.866810 0.566453 -2.341485
v -0.866810 0.543336 -2.381525
v -0.908909 0.844361 -2.816552
v -0.908909 0.804321 -2.839669
v -0.865271 0.844272 -2.816398
v -0.865271 0.804232 -2.839514
v -0.910800 0.575036 -2.350068
v -0.910800 0.534996 -2.373185
v -0.867161 0.574947 -2.349914
v -0.867161 0.534907 -2.373031
v -0.907883 0.578089 -2.900287
v -0.907883 0.531855 -2.900287
v -0.865426 0.578089 -2.900109
v -0.865426 0.531855 -2.900109
v -0.909724 0.578089 -2.361639
v -0.909724 0.531855 -2.361639
v -0.867264 0.578089 -2.361460
v -0.867264 0.531855 -2.361460
v -0.908909 0.305622 -2.839669
v -0.908909 0.265583 -2.816552
v -0.865271 0.305712 -2.839515
v -0.865271 0.265672 -2.816398
v -0.910800 0.574947 -2.373185
v -0.910800 0.534907 -2.350068
v -0.867161 0.575036 -2.373031
v -0.867161 0.534996 -2.349914
v -0.912383 0.099969 -2.650938
v -0.912383 0.076852 -2.610899
v -0.864748 0.100123 -2.650849
v -0.864748 0.077006 -2.610810
v -0.914446 0.566453 -2.381613
v -0.914446 0.543336 -2.341574
v -0.866810 0.566607 -2.381525
v -0.866810 0.543490 -2.341485
v -0.908909 0.016233 -2.384666
v -0.908909 0.016233 -2.338433
v -0.865271 0.016412 -2.384666
v -0.865271 0.016411 -2.338433
v -0.910800 0.554883 -2.384666
v -0.910800 0.554883 -2.338432
v -0.867161 0.555061 -2.384666
v -0.867161 0.555061 -2.338433
v -0.912383 0.076852 -2.112200
v -0.912383 0.099969 -2.072160
v -0.864748 0.077006 -2.112289
v -0.864748 0.100123 -2.072249
v -0.914446 0.543336 -2.381525
v -0.914446 0.566453 -2.341485
v -0.866810 0.543490 -2.381614
v -0.866810 0.566607 -2.341574
v -0.908909 0.265583 -1.906546
v -0.908909 0.305622 -1.883430
v -0.865271 0.265672 -1.906701
v -0.865271 0.305711 -1.883584
v -0.910800 0.534907 -2.373031
v -0.910800 0.574947 -2.349914
v -0.867161 0.534996 -2.373185
v -0.867161 0.575036 -2.350068
v -0.907883 0.531855 -1.822811
v -0.907883 0.578089 -1.822811
v -0.865426 0.531855 -1.822989
v -0.865426 0.578089 -1.822989
v -0.909724 0.531855 -2.361460
v -0.909724 0.578088 -2.361460
v -0.867264 0.531855 -2.361639
v -0.867264 0.578088 -2.361639
v -0.908909 0.804321 -1.883430
v -0.908909 0.844361 -1.906546
v -0.865271 0.804232 -1.883584
v -0.865271 0.844272 -1.906701
v -0.910800 0.534996 -2.349914
v -0.910800 0.575036 -2.373031
v -0.867161 0.534907 -2.350068
v -0.867161 0.574947 -2.373185
v -0.912383 1.009974 -2.072160
v -0.912383 1.033091 -2.112200
v -0.864748 1.009820 -2.072249
v -0.864748 1.032937 -2.112289
v -0.914446 0.543490 -2.341485
v -0.914446 0.566607 -2.381525
v -0.866810 0.543336 -2.341574
v -0.866810 0.566453 -2.381614
v -0.927355 0.555049 -2.431878
v -0.927355 0.524535 -2.424913
v -0.927355 0.500064 -2.405398
v -0.927355 0.486484 -2.377199
v -0.927355 0.486484 -2.345900
v -0.927355 0.500064 -2.317700
v -0.927355 0.524535 -2.298186
v -0.927355 0.555049 -2.291221
v -0.927355 0.585563 -2.298186
v -0.927355 0.610034 -2.317700
v -0.927355 0.623614 -2.345900
v -0.927355 0.623614 -2.377199
v -0.927355 0.610034 -2.405398
v -0.927355 0.585563 -2.424913
v -0.927478 0.538517 -2.401926
v -0.927397 0.512512 -2.361549
v -0.927465 0.538516 -2.321169
v -0.927389 0.582685 -2.329747
v -0.927389 0.597144 -2.363328
v -0.927389 0.581108 -2.394226
v -0.964768 0.538928 -2.381764
v -0.965417 0.560630 -2.386004
v -0.965417 0.529966 -2.361549
v -0.966420 0.541152 -2.340741
v -0.957026 0.562221 -2.332587
v -0.966093 0.575175 -2.346364
v -0.966419 0.578428 -2.370467
v -0.979359 0.555049 -2.361549
v -0.841794 0.542044 -2.432150
v -0.841794 0.585563 -2.424913
v -0.841794 0.620984 -2.389939
v -0.841794 0.618355 -2.327698
v -0.841794 0.568053 -2.290949
v -0.841794 0.507959 -2.307364
v -0.841794 0.486484 -2.345900
v -0.841794 0.491743 -2.395399
v -0.841794 0.547412 -2.402998
v -0.841794 0.562685 -2.320101
v -0.841794 0.526061 -2.331648
vn -0.0000 0.1840 -0.9829
vn -0.0000 -0.1840 0.9829
vn 0.9965 -0.0839 -0.0021
vn 0.9983 -0.0572 -0.0106
vn 0.9962 -0.0873 0.0037
vn 0.9965 -0.0840 0.0036
vn 0.9896 -0.1413 -0.0264
vn 0.9948 -0.1011 -0.0132
vn -0.0826 -0.9950 0.0562
vn -0.0960 -0.9931 0.0671
vn -0.0939 -0.9942 0.0531
vn 0.0975 0.9782 0.1831
vn 0.0976 0.9782 0.1831
vn -0.0971 -0.9784 -0.1827
vn -0.0944 -0.9872 -0.1282
vn -0.0976 -0.9783 -0.1827
vn -0.9983 0.0572 0.0107
vn -0.9982 0.0598 0.0093
vn -0.9967 0.0809 0.0024
vn -0.0959 -0.9917 -0.0852
vn -0.0979 -0.9837 -0.1511
vn -0.0976 -0.9837 -0.1511
vn -0.0975 -0.9927 -0.0707
vn -0.0857 -0.9942 0.0648
vn -0.0688 -0.9976 -0.0094
vn -0.9896 0.1414 0.0262
vn -0.9892 0.1443 0.0270
vn 0.0071 0.9829 0.1840
vn 0.0071 0.9829 0.1838
vn 0.0384 0.1837 -0.9822
vn 0.0384 0.1839 -0.9822
vn -0.0385 -0.1837 0.9822
vn -0.0385 -0.1839 0.9822
vn -0.0071 -0.9829 -0.1840
vn -0.0071 -0.9829 -0.1838
vn 0.0028 0.9830 0.1834
vn 0.0018 0.9866 0.1634
vn 0.0028 0.9829 0.1840
vn 0.0071 0.9829 0.1842
vn -0.0269 0.1841 -0.9825
vn -0.0269 0.1840 -0.9826
vn 0.0268 -0.1841 0.9825
vn 0.0268 -0.1840 0.9826
vn -0.0071 -0.9829 -0.1842
vn 1.0000 -0.0064 -0.0013
vn 0.0065 0.9789 0.2044
vn -0.0065 -0.9789 -0.2044
vn -1.0000 0.0064 0.0013
vn -0.0089 -0.9789 -0.2044
vn 0.0089 0.9789 0.2044
vn -0.9983 -0.0572 -0.0107
vn -0.9967 -0.0810 -0.0024
vn -0.9896 -0.1414 -0.0262
vn -0.9892 -0.1443 -0.0270
vn 0.0828 -0.9950 0.0564
vn 0.0958 -0.9931 0.0672
vn 0.0856 -0.9943 0.0643
vn -0.0978 0.9782 0.1831
vn -0.0976 0.9782 0.1831
vn 0.0944 -0.9872 -0.1282
vn 0.0971 -0.9784 -0.1827
vn 0.0976 -0.9783 -0.1827
vn 0.9981 0.0606 0.0092
vn 0.9983 0.0573 0.0107
vn 0.9970 0.0775 0.0031
vn 0.0961 -0.9917 -0.0859
vn 0.0979 -0.9837 -0.1511
vn 0.0976 -0.9927 -0.0706
vn 0.0937 -0.9942 0.0525
vn 0.9947 0.1020 0.0122
vn 0.9965 0.0839 -0.0037
vn 0.1032 -0.9891 -0.1048
vn 0.1277 -0.9910 -0.0402
vn 0.9971 0.0759 -0.0018
vn 0.9896 0.1415 0.0261
vn 0.9892 0.1443 0.0269
vn -0.0071 0.9829 0.1838
vn -0.0071 0.9829 0.1840
vn -0.0384 0.1839 -0.9822
vn -0.0384 0.1837 -0.9822
vn 0.0385 -0.1837 0.9822
vn 0.0385 -0.1839 0.9822
vn 0.0071 -0.9829 -0.1840
vn 0.0071 -0.9829 -0.1838
vn -0.0071 0.9829 0.1842
vn 0.0269 0.1840 -0.9826
vn 0.0269 0.1841 -0.9825
vn -0.0268 -0.1841 0.9825
vn -0.0268 -0.1840 0.9826
vn 0.0071 -0.9829 -0.1842
vn -1.0000 -0.0064 -0.0013
vn -0.0065 0.9789 0.2044
vn 0.0065 -0.9789 -0.2044
vn 1.0000 0.0064 0.0013
vn 0.0089 -0.9789 -0.2044
vn -0.0089 0.9789 0.2044
vn -0.0000 -0.1094 0.9940
vn -0.9994 0.0350 0.0039
vn 0.9994 -0.0350 -0.0039
vn -0.0000 0.1094 -0.9940
vn 0.0352 0.9934 0.1093
vn -1.0000 -0.0000 -0.0000
vn 1.0000 -0.0000 -0.0000
vn -0.0000 0.9940 0.1094
vn -0.0000 -0.9940 -0.1094
vn -0.0052 0.9829 0.1841
vn 0.0052 0.1854 -0.9827
vn -0.0052 -0.1854 0.9827
vn 0.0052 -0.9829 -0.1841
vn -0.0000 0.9930 0.1184
vn -0.0000 -0.1344 0.9909
vn -0.0000 0.1344 -0.9909
vn -0.0000 -0.9930 -0.1184
vn -0.9983 0.0580 0.0100
vn -0.9983 0.0579 0.0103
vn 0.0029 0.2231 -0.9748
vn 0.0027 0.2232 -0.9748
vn -0.0029 -0.2231 0.9748
vn -0.0027 -0.2232 0.9748
vn 0.9976 -0.0676 -0.0121
vn 0.9976 -0.0675 -0.0124
vn 0.0663 0.9746 0.2140
vn -0.9983 0.0578 0.0108
vn 0.9976 -0.0675 -0.0126
vn 0.0664 0.9808 0.1836
vn -0.9983 0.0577 0.0114
vn -0.9983 0.0577 0.0112
vn -0.0020 0.1565 -0.9877
vn -0.0019 0.1565 -0.9877
vn -0.0021 0.1565 -0.9877
vn 0.0021 -0.1565 0.9877
vn 0.0019 -0.1565 0.9877
vn 0.9976 -0.0674 -0.0130
vn 0.9976 -0.0675 -0.0128
vn 0.0663 0.9845 0.1623
vn 0.0664 0.9845 0.1623
vn -0.9963 0.0841 0.0158
vn 0.9963 -0.0841 -0.0158
vn -0.0664 -0.9808 -0.1836
vn 0.9983 0.0579 0.0103
vn 0.9983 0.0580 0.0100
vn -0.0029 0.2231 -0.9748
vn -0.0027 0.2232 -0.9748
vn 0.0027 -0.2232 0.9748
vn 0.0029 -0.2231 0.9748
vn -0.9976 -0.0676 -0.0121
vn -0.9976 -0.0675 -0.0124
vn -0.0663 0.9746 0.2140
vn 0.9983 0.0578 0.0108
vn -0.9976 -0.0675 -0.0126
vn -0.0664 0.9808 0.1836
vn 0.9983 0.0577 0.0114
vn 0.9983 0.0577 0.0112
vn 0.0020 0.1565 -0.9877
vn 0.0019 0.1565 -0.9877
vn -0.0019 -0.1565 0.9877
vn -0.0021 -0.1565 0.9877
vn -0.9976 -0.0675 -0.0128
vn -0.9976 -0.0674 -0.0130
vn -0.0663 0.9845 0.1623
vn 0.9963 0.0841 0.0158
vn -0.9963 -0.0841 -0.0158
vn 0.0664 -0.9808 -0.1836
vn -0.0129 -0.1038 -0.9945
vn -0.0241 -0.2800 -0.9597
vn -0.0034 0.1093 -0.9940
vn -0.0015 -0.4053 -0.9142
vn -0.0143 -0.6117 -0.7910
vn 0.0025 -0.6500 -0.7600
vn -0.0053 -0.8293 -0.5588
vn 0.0053 -0.8336 -0.5523
vn -0.0046 -0.9544 -0.2983
vn 0.0049 -0.9670 -0.2547
vn -0.0070 -0.9973 0.0731
vn 0.0070 -0.9924 0.1229
vn -0.0049 -0.8987 0.4385
vn 0.0164 -0.8736 0.4863
vn 0.0062 -0.7300 0.6834
vn 0.0216 -0.6164 0.7871
vn 0.0101 -0.5229 0.8524
vn 0.0075 -0.3187 0.9478
vn 0.0164 -0.2739 0.9616
vn 0.0015 -0.0246 0.9997
vn 0.0144 0.0965 0.9952
vn -0.0144 0.2917 0.9564
vn -0.0015 0.4053 0.9142
vn -0.0143 0.6117 0.7909
vn 0.0130 0.6557 0.7549
vn 0.0036 0.8137 0.5813
vn 0.0214 0.8771 0.4797
vn -0.0085 0.9323 0.3615
vn 0.0162 0.9793 0.2020
vn -0.0050 0.9951 0.0984
vn 0.0064 0.9916 -0.1289
vn 0.0042 0.9759 -0.2183
vn 0.0054 0.8903 -0.4554
vn 0.0070 0.8698 -0.4933
vn -0.0049 0.6625 -0.7490
vn 0.0046 0.6278 -0.7783
vn -0.0053 0.3863 -0.9224
vn -0.0069 0.3873 -0.9219
vn 0.0021 0.4541 0.8909
vn -0.0089 0.3026 0.9531
vn -0.0004 0.0980 0.9952
vn -0.0021 0.7205 0.6935
vn -0.0140 0.6536 0.7567
vn -0.0066 0.8684 0.4959
vn 0.0052 0.9799 0.1993
vn -0.0048 0.8852 0.4652
vn 0.0048 0.9958 -0.0911
vn -0.0052 0.9816 0.1909
vn 0.0074 0.8928 -0.4504
vn -0.0056 0.9910 -0.1335
vn 0.0140 0.6536 -0.7567
vn 0.0048 0.8743 -0.4854
vn 0.0254 0.3006 -0.9534
vn 0.0072 0.4656 -0.8850
vn 0.0163 -0.0818 -0.9965
vn -0.0013 0.1727 -0.9850
vn 0.0055 -0.4396 -0.8982
vn -0.0055 -0.1334 -0.9910
vn 0.0052 -0.7041 -0.7101
vn -0.0048 -0.4775 -0.8786
vn 0.0048 -0.8786 -0.4776
vn -0.0052 -0.7101 -0.7041
vn 0.0055 -0.9910 -0.1335
vn -0.0055 -0.8982 -0.4396
vn 0.0052 -0.9816 0.1909
vn -0.0048 -0.9958 -0.0911
vn 0.0029 -0.8907 0.4546
vn -0.0052 -0.9799 0.1993
vn 0.0052 -0.7101 0.7041
vn -0.0029 -0.8728 0.4881
vn 0.0029 -0.4881 0.8728
vn -0.0052 -0.7041 0.7101
vn 0.0013 -0.2174 0.9761
vn -0.0144 -0.4462 0.8948
vn -0.9995 0.0187 0.0239
vn -0.9995 0.0143 0.0282
vn -0.9995 0.0083 0.0288
vn -0.9996 0.0196 -0.0225
vn -0.9996 0.0264 -0.0135
vn -0.9996 0.0222 -0.0201
vn 0.9995 0.0097 0.0285
vn 0.9996 0.0190 0.0230
vn 0.9995 0.0127 0.0272
vn -0.9995 -0.0253 -0.0178
vn -0.9995 -0.0219 -0.0213
vn -0.9995 -0.0189 -0.0241
vn 0.9995 0.0266 -0.0144
vn 0.9995 0.0226 -0.0214
vn 0.9995 0.0191 -0.0240
vn -0.9996 -0.0102 0.0276
vn -0.9995 -0.0149 0.0277
vn -0.9995 -0.0203 0.0229
vn 0.9995 -0.0225 -0.0209
vn 0.9996 -0.0263 -0.0140
vn 0.9995 -0.0202 -0.0233
vn 0.9995 -0.0137 0.0271
vn 0.9995 -0.0112 0.0283
vn 0.9995 -0.0192 0.0237
vn -0.9995 0.0159 -0.0255
vn -0.9996 -0.0262 -0.0143
vn -0.9996 -0.0280 -0.0106
vn -0.9995 -0.0038 0.0302
vn -0.9995 0.0255 0.0177
vn -0.9995 0.0218 0.0212
vn 0.9996 -0.0063 0.0293
vn -0.9995 0.0091 -0.0288
vn -0.9995 0.0093 -0.0296
vn 0.9996 0.0189 0.0230
vn 0.9996 0.0246 0.0170
vn -0.9995 -0.0303 -0.0037
vn -0.9995 -0.0309 -0.0027
vn 0.9995 0.0148 -0.0288
vn 0.9995 0.0080 -0.0298
vn 0.9995 -0.0312 -0.0030
vn 0.9996 -0.0288 -0.0069
vn -0.9995 0.0265 0.0147
vn -0.9996 0.0286 0.0087
vn 0.9995 -0.0026 0.0304
vn 0.9996 0.0033 0.0291
vn 0.9995 0.0272 0.0143
vn 0.9995 0.0294 0.0079
vn 0.9995 -0.0307 0.0040
vn -0.9995 0.0010 -0.0304
vn -0.9995 -0.0299 0.0058
vn 0.9995 -0.0036 -0.0305
vn 0.9995 -0.0033 -0.0300
vn -0.9995 0.0310 -0.0026
vn -0.9995 0.0309 -0.0025
vn -0.9996 -0.0022 -0.0298
vn -0.9996 -0.0083 -0.0282
vn 0.9995 0.0308 -0.0036
vn 0.9995 0.0308 -0.0035
vn -0.9995 -0.0269 0.0144
vn -0.9995 -0.0300 0.0057
vn 0.9995 -0.0300 0.0073
vn 0.9995 -0.0267 0.0147
vn -0.9995 0.0028 0.0320
vn 0.9995 -0.0148 -0.0276
vn 0.9996 -0.0103 -0.0277
vn -0.9995 -0.0145 -0.0283
vn -0.9995 -0.0271 0.0146
vn 0.9995 -0.0226 0.0216
vn -0.0254 -0.0872 0.9959
vn -1.0000 -0.0035 -0.0000
vn -0.0000 -0.0000 -1.0000
vn -0.0000 -0.0000 1.0000
vn 1.0000 0.0035 -0.0000
vn -0.0041 1.0000 -0.0000
vn -1.0000 -0.0033 0.0019
vn -0.0000 -0.5000 -0.8660
vn -0.0000 0.5000 0.8660
vn 1.0000 0.0033 -0.0019
vn -0.0037 0.8660 -0.5000
vn -1.0000 -0.0018 0.0030
vn -0.0000 -0.8660 -0.5000
vn -0.0000 0.8660 0.5000
vn 1.0000 0.0018 -0.0030
vn -0.0041 0.5000 -0.8660
vn -1.0000 -0.0000 0.0034
vn -0.0000 -1.0000 -0.0000
vn -0.0000 1.0000 -0.0000
vn 1.0000 -0.0000 -0.0034
vn -0.0042 -0.0000 -1.0000
vn -1.0000 0.0018 0.0030
vn -0.0000 -0.8660 0.5000
vn -0.0000 0.8660 -0.5000
vn 1.0000 -0.0018 -0.0030
vn -0.0041 -0.5000 -0.8660
vn -1.0000 0.0033 0.0019
vn -0.0000 -0.5000 0.8660
vn -0.0000 0.5000 -0.8660
vn 1.0000 -0.0033 -0.0019
vn -0.0037 -0.8660 -0.5000
vn -1.0000 0.0035 -0.0000
vn 1.0000 -0.0035 -0.0000
vn -0.0041 -1.0000 -0.0000
vn -1.0000 0.0033 -0.0019
vn 1.0000 -0.0033 0.0019
vn -0.0037 -0.8660 0.5000
vn -1.0000 0.0018 -0.0030
vn 1.0000 -0.0018 0.0030
vn -0.0041 -0.5000 0.8660
vn -1.0000 -0.0000 -0.0034
vn 1.0000 -0.0000 0.0034
vn -0.0042 -0.0000 1.0000
vn -1.0000 -0.0018 -0.0030
vn 1.0000 0.0018 0.0030
vn -0.0041 0.5000 0.8660
vn -1.0000 -0.0033 -0.0019
vn 1.0000 0.0033 0.0019
vn -0.0037 0.8660 0.5000
vn 0.6570 -0.7313 0.1834
vn 1.0000 -0.0011 0.0029
vn 0.6591 -0.5979 0.4561
vn 0.6572 -0.5992 -0.4571
vn 1.0000 -0.0015 -0.0004
vn 0.6597 -0.7289 -0.1829
vn 0.6564 0.3417 0.6726
vn 1.0000 0.0030 0.0017
vn 0.6598 -0.3115 -0.6838
vn 1.0000 0.0003 -0.0010
vn 1.0000 -0.0007 -0.0009
vn 0.6573 0.5789 -0.4825
vn 0.6598 0.3404 -0.6699
vn 0.6563 -0.3127 0.6867
vn 0.6566 0.7389 0.1513
vn 1.0000 0.0014 -0.0008
vn 0.6599 0.7359 -0.1515
vn 0.6572 -0.0163 -0.7535
vn 0.6590 -0.0159 0.7519
vn 0.3558 0.7446 0.5647
vn 0.6413 0.5942 0.4854
vn 0.6468 0.7619 -0.0339
vn 0.3988 -0.9168 0.0205
vn 0.6385 -0.3940 -0.6612
vn 0.6400 -0.7679 -0.0259
vn 0.3641 0.8489 -0.3833
vn 0.6335 -0.5026 0.5883
vn 0.3560 -0.3389 0.8709
vn 0.3726 0.2057 -0.9049
vn 0.6678 0.3958 -0.6303
vn 0.6332 0.1597 0.7574
vn 0.3892 -0.5929 -0.7050
vn 1.0000 -0.0059 0.0069
vn -0.0436 0.2635 -0.9637
vn -0.0436 0.9177 -0.3949
vn -0.0436 0.8809 0.4713
vn 0.6585 0.5782 0.4817
vn -0.0436 0.1807 0.9826
vn -0.0436 -0.6555 0.7539
vn -0.0436 -0.9981 -0.0424
vn -0.8078 -0.3484 -0.4755
vn -0.0436 -0.5892 -0.8068
vn -0.8240 -0.3460 0.4488
vn -0.8124 0.1364 0.5670
vn -0.8145 0.5155 0.2661
vn -0.8186 0.1287 -0.5598
vn 0.0016 -0.9991 -0.0417
vn 0.7852 -0.4807 -0.3903
vn 0.0030 0.9107 -0.4131
vn 0.8086 0.5876 -0.0295
vn 0.8043 -0.5940 0.0189
vn 0.8149 0.3611 -0.4534
vn -0.0035 -0.2166 -0.9763
vn 0.0075 -0.1216 -0.9926
vn -0.0075 0.1216 -0.9925
vn -0.0005 -0.4558 -0.8901
vn 0.0241 -0.7660 -0.6424
vn 0.0129 -0.6388 -0.7693
vn 0.0152 -0.9509 -0.3093
vn 0.0136 -0.8400 -0.5424
vn 0.0241 -0.9959 0.0874
vn 0.0129 -0.9957 -0.0922
vn 0.0143 -0.8951 0.4457
vn 0.0015 -0.9757 0.2192
vn -0.0015 -0.7243 0.6895
vn -0.0143 -0.8678 0.4966
vn -0.0059 -0.4711 0.8821
vn -0.0241 -0.6259 0.7795
vn 0.0241 -0.1086 0.9938
vn 0.0059 -0.2906 0.9568
vn 0.0164 0.2739 0.9616
vn 0.0015 0.0246 0.9997
vn 0.0049 0.6054 0.7959
vn -0.0049 0.3254 0.9456
vn -0.0036 0.8137 0.5813
vn -0.0151 0.6467 0.7626
vn 0.0085 0.9323 0.3615
vn -0.0214 0.8771 0.4797
vn -0.0162 0.9793 0.2020
vn -0.0042 0.9759 -0.2183
vn 0.0060 0.9925 -0.1219
vn 0.0050 0.9951 0.0984
vn -0.0005 0.8901 -0.4558
vn -0.0032 0.6482 -0.7614
vn 0.0032 0.7615 -0.6482
vn -0.0035 0.3623 -0.9321
vn 0.0005 0.4558 -0.8901
vn 0.0013 0.0228 0.9997
vn -0.0144 0.2631 0.9647
vn -0.0254 -0.1088 0.9937
vn 0.0144 0.3172 0.9482
vn -0.0013 0.5365 0.8439
vn 0.0254 0.6426 0.7658
vn 0.0004 0.7730 0.6344
vn -0.0004 0.8819 0.4714
vn -0.0254 0.9534 0.3006
vn 0.0013 0.9850 0.1727
vn -0.0163 0.9965 -0.0818
vn 0.0056 0.9910 -0.1335
vn -0.0074 0.8928 -0.4504
vn -0.0048 0.8743 -0.4854
vn -0.0140 0.6536 -0.7567
vn -0.0071 0.4656 -0.8850
vn -0.0254 0.3006 -0.9534
vn 0.0013 0.1727 -0.9850
vn -0.0163 -0.0818 -0.9965
vn 0.0055 -0.1335 -0.9910
vn -0.0056 -0.4396 -0.8982
vn 0.0048 -0.4775 -0.8786
vn -0.0052 -0.7041 -0.7101
vn 0.0052 -0.7101 -0.7041
vn -0.0048 -0.8786 -0.4776
vn 0.0055 -0.8982 -0.4396
vn -0.0055 -0.9910 -0.1335
vn 0.0048 -0.9958 -0.0911
vn -0.0052 -0.9816 0.1909
vn 0.0052 -0.9799 0.1993
vn -0.0029 -0.8907 0.4546
vn 0.0144 -0.8681 0.4961
vn -0.0013 -0.7230 0.6908
vn 0.0254 -0.6257 0.7796
vn 0.0004 -0.4714 0.8819
vn -0.0004 -0.2903 0.9569
vn 0.9995 -0.0203 0.0229
vn 0.9995 -0.0235 0.0208
vn 0.9995 -0.0147 0.0275
vn -0.9995 -0.0202 -0.0236
vn -0.9995 -0.0225 -0.0209
vn -0.9995 -0.0156 -0.0283
vn 0.9995 0.0141 0.0268
vn 0.9995 0.0080 0.0295
vn 0.9995 0.0179 0.0253
vn -0.9996 -0.0137 0.0261
vn -0.9995 -0.0195 0.0246
vn -0.9996 -0.0225 0.0193
vn 0.9996 0.0264 -0.0135
vn 0.9995 0.0198 -0.0226
vn 0.9995 0.0221 -0.0203
vn -0.9996 0.0190 0.0230
vn -0.9995 0.0099 0.0287
vn -0.9995 0.0127 0.0272
vn 0.9995 -0.0253 -0.0178
vn 0.9995 -0.0219 -0.0213
vn 0.9996 -0.0263 -0.0143
vn -0.9996 0.0263 -0.0143
vn -0.9995 0.0226 -0.0214
vn -0.9996 0.0263 -0.0138
vn -0.9996 -0.0263 -0.0140
vn 0.9995 0.0232 0.0193
vn 0.9996 0.0230 0.0186
vn 0.9996 0.0141 -0.0259
vn 0.9996 -0.0280 -0.0106
vn -0.9995 0.0191 -0.0240
vn -0.9995 0.0149 -0.0290
vn 0.9995 -0.0037 0.0299
vn 0.9995 -0.0039 0.0301
vn -0.9995 -0.0046 0.0297
vn -0.9995 -0.0080 0.0294
vn -0.9996 0.0242 0.0172
vn -0.9996 0.0189 0.0230
vn 0.9995 -0.0303 -0.0037
vn 0.9995 -0.0309 -0.0027
vn -0.9995 -0.0312 -0.0030
vn -0.9996 -0.0270 -0.0128
vn 0.9995 0.0285 0.0093
vn 0.9995 0.0287 0.0092
vn -0.9996 0.0030 0.0295
vn 0.9995 0.0096 -0.0298
vn 0.9996 0.0034 -0.0296
vn -0.9995 0.0086 -0.0297
vn -0.9995 0.0052 -0.0296
vn -0.9995 0.0289 0.0111
vn -0.9995 0.0299 0.0064
vn -0.9996 0.0264 0.0139
vn 0.9995 -0.0299 0.0058
vn 0.9995 -0.0300 0.0057
vn -0.9995 0.0003 -0.0306
vn 0.9995 0.0306 -0.0025
vn 0.9995 0.0309 -0.0025
vn 0.9995 -0.0025 -0.0312
vn 0.9996 -0.0082 -0.0287
vn 0.9995 -0.0269 0.0144
vn 0.9995 -0.0271 0.0146
vn -0.9995 -0.0285 0.0114
vn -0.9995 -0.0294 0.0066
vn -0.9995 -0.0305 0.0036
vn -0.9995 0.0293 -0.0070
vn -0.9995 0.0302 -0.0040
vn -0.9995 0.0302 0.0026
vn 0.9995 0.0050 0.0303
vn -0.9996 -0.0093 -0.0284
vn -0.9995 -0.0037 -0.0304
vn -0.9995 -0.0267 0.0150
vn 0.9996 0.0263 -0.0136
vn 0.9995 -0.0145 -0.0284
vn 0.9995 -0.0189 -0.0241
vn 0.0041 1.0000 -0.0000
vn 0.0037 0.8660 -0.5000
vn 0.0041 0.5000 -0.8660
vn 0.0042 -0.0000 -1.0000
vn 0.0041 -0.5000 -0.8660
vn 0.0037 -0.8660 -0.5000
vn 0.0041 -1.0000 -0.0000
vn 0.0037 -0.8660 0.5000
vn 0.0041 -0.5000 0.8660
vn 0.0042 -0.0000 1.0000
vn 0.0041 0.5000 0.8660
vn 0.0037 0.8660 0.5000
vn -0.6630 0.5797 -0.4737
vn -1.0000 0.0011 -0.0000
vn -0.6598 0.7360 -0.1516
vn -1.0000 -0.0010 0.0024
vn -0.6558 -0.7345 0.1744
vn -0.6591 -0.5979 0.4561
vn -0.6573 0.7382 0.1518
vn -1.0000 0.0013 0.0008
vn -0.6598 0.5774 0.4809
vn -1.0000 -0.0020 -0.0003
vn -0.6593 -0.5780 -0.4809
vn -0.6629 -0.7319 -0.1580
vn -0.6570 0.3419 0.6719
vn -0.6590 -0.0159 0.7519
vn -0.6561 -0.3420 -0.6727
vn -1.0000 -0.0012 -0.0026
vn -0.6589 0.0162 -0.7520
vn -1.0000 0.0014 -0.0007
vn -0.6558 0.3217 -0.6830
vn -0.6563 -0.3127 0.6867
vn -0.6818 0.5799 0.4459
vn -0.3369 0.6119 0.7156
vn -0.3762 0.9260 -0.0306
vn -0.3744 -0.9272 0.0057
vn -0.6335 -0.5026 -0.5883
vn -0.3726 -0.3670 -0.8523
vn -0.6650 0.6963 -0.2702
vn -0.3646 0.5594 -0.7444
vn -0.6766 -0.4150 0.6083
vn -0.3602 -0.3836 0.8503
vn -0.6474 0.1779 -0.7411
vn -0.5181 0.1835 0.8354
vn -0.9999 -0.0040 0.0146
vn -0.6375 -0.7703 0.0113
vn 0.0233 -0.2156 -0.9762
vn 0.0157 0.4440 -0.8959
vn 0.0367 0.9285 -0.3696
vn 0.0436 0.8809 0.4713
vn 0.0436 0.1807 0.9826
vn 0.0233 -0.6288 0.7772
vn 0.0157 -0.9773 0.2115
vn 0.0367 -0.8679 -0.4954
vn 0.8115 -0.3885 0.4366
vn 0.8061 -0.0976 -0.5837
vn 0.7852 0.4805 0.3907
vn -0.0013 0.1310 0.9914
vn -0.9970 0.0770 -0.0011
vn -0.9963 0.0853 -0.0021
vn 0.9981 -0.0614 -0.0091
vn 0.9892 -0.1443 -0.0272
vn -0.1032 -0.9891 -0.1049
vn -0.9948 0.1010 0.0143
vn -0.1277 -0.9910 -0.0403
vn 0.0384 0.1836 -0.9822
vn 0.0018 0.9867 0.1627
vn -0.0018 -0.9757 -0.2193
vn -0.9981 -0.0612 -0.0081
vn -0.9968 -0.0798 0.0027
vn -0.9963 -0.0857 0.0059
vn -0.9948 -0.1015 -0.0113
vn 0.9983 0.0572 0.0107
vn 0.0975 -0.9837 -0.1511
vn 0.0694 -0.9975 -0.0096
vn 0.0018 -0.9889 -0.1485
vn -0.0030 -0.2231 0.9748
vn 0.0030 -0.2231 0.9748
vn 0.0021 0.1565 -0.9877
vn -0.0664 0.9845 0.1623
vn 0.0026 0.2016 -0.9795
vn 0.0021 0.7205 -0.6935
vn -0.9995 -0.0235 0.0208
vn -0.9996 0.0263 -0.0136
vn 0.9996 0.0262 -0.0139
vn 0.9996 -0.0270 -0.0128
vn -0.9995 -0.0079 0.0303
vn 0.9995 0.0043 -0.0311
vn -0.9995 0.0318 0.0047
vn 0.9995 0.0310 0.0044
vn 0.9996 -0.0260 0.0142
vn 0.0035 -0.3623 -0.9321
vn -0.0026 -0.9213 -0.3888
vn 0.0035 0.9321 -0.3623
vn 0.0035 0.2166 -0.9763
vn -0.0021 0.7205 -0.6935
vn 0.9996 -0.0102 0.0276
vn -0.9996 -0.0288 -0.0069
vn -0.9995 -0.0018 0.0323
vt 0.158826 0.378476
vt 0.087826 0.212019
vt 0.087826 0.378476
vt 0.158826 0.212019
vt 0.680466 0.867594
vt 0.000000 0.757548
vt 0.000000 0.867594
vt 0.694152 0.756522
vt 0.634126 0.758586
vt 1.000000 0.757548
vt 0.731722 0.756143
vt 0.370197 0.694160
vt 0.306026 0.747285
vt 0.303481 0.694479
vt 0.319534 0.694275
vt 0.000000 0.747131
vt 0.000000 0.694275
vt 1.000000 0.747131
vt 0.412179 0.694074
vt 1.000000 0.694275
vt 0.587821 0.758342
vt 0.669711 0.867594
vt 0.265865 0.694818
vt 0.268278 0.747312
vt 0.365637 0.746927
vt 0.404876 0.746614
vt 1.000000 0.867594
vt 0.734107 0.750551
vt 0.000000 0.691876
vt 0.734107 0.691876
vt 0.566116 0.750551
vt 1.300223 0.691876
vt 1.300223 0.750551
vt 0.566116 0.691876
vt 0.000000 0.750551
vt 0.734104 0.691876
vt 0.566118 0.691876
vt 0.566118 0.750551
vt 1.000000 0.996838
vt 0.000000 0.883658
vt 1.000000 0.883658
vt 0.000000 0.996838
vt 0.554288 0.747131
vt -0.445712 0.694275
vt 0.554288 0.694275
vt 0.554288 0.867594
vt -0.445712 0.757548
vt 0.554288 0.757548
vt -0.445712 0.867594
vt -0.445712 0.747131
vt 0.669629 0.867594
vt 0.370145 0.694161
vt 0.305859 0.747288
vt 0.365713 0.746925
vt 0.330372 0.694275
vt 0.340917 0.747131
vt 0.412188 0.694074
vt 0.587812 0.758341
vt 0.659083 0.867594
vt 0.265827 0.694817
vt 0.268398 0.747316
vt 0.303162 0.694485
vt 0.734173 0.756072
vt 0.697081 0.756152
vt 0.404876 0.746614
vt 0.629723 0.759493
vt 0.790037 0.691876
vt 0.238343 0.750551
vt 0.238343 0.691876
vt 1.061880 0.750551
vt 0.510186 0.691876
vt 1.061880 0.691876
vt 0.510186 0.750551
vt 0.495282 0.213531
vt 0.339564 0.373969
vt 0.339564 0.213531
vt 0.790037 0.750551
vt 0.248127 0.691876
vt 1.052096 0.691876
vt 1.052096 0.750551
vt 0.495282 0.373969
vt 0.545282 0.747131
vt 0.046408 0.694275
vt 0.545282 0.694275
vt 0.953592 0.996838
vt 0.454718 0.883658
vt 0.953592 0.883658
vt 0.454718 0.996838
vt 0.046408 0.747131
vt 0.099570 0.747131
vt -0.413982 0.694275
vt 0.099570 0.694275
vt 0.522558 0.867594
vt 0.009006 0.757548
vt 0.522558 0.757548
vt 0.009006 0.867594
vt 0.845658 0.691876
vt -0.258421 0.750551
vt -0.258421 0.691876
vt 0.454565 0.750551
vt 1.558643 0.691876
vt 1.558643 0.750551
vt 0.454565 0.691876
vt 0.845658 0.750551
vt 0.538863 0.745859
vt -0.461137 0.698928
vt -0.461137 0.745859
vt 0.169810 0.391898
vt 0.121854 0.440064
vt 0.238753 0.440064
vt 0.087379 0.391898
vt 0.004959 0.440064
vt -0.005534 0.391898
vt -0.087967 0.440064
vt -0.087967 0.391898
vt -0.170398 0.440064
vt -0.180891 0.391898
vt -0.263313 0.440064
vt 1.572574 0.391898
vt 1.466171 0.440064
vt 1.583070 0.440064
vt 1.455682 0.391898
vt 1.373252 0.440064
vt 1.338775 0.391898
vt 1.314803 0.440064
vt 1.232377 0.440064
vt 1.221878 0.391898
vt 1.139457 0.440064
vt 1.104980 0.391898
vt 1.057027 0.440064
vt 1.022560 0.391898
vt 0.940135 0.440064
vt 0.929639 0.391898
vt 0.847213 0.440064
vt 0.817987 0.391898
vt 0.788765 0.440064
vt 0.730316 0.391898
vt 0.701089 0.440064
vt 0.637396 0.391898
vt 0.613418 0.440064
vt 0.530998 0.440064
vt 0.520502 0.391898
vt 0.414099 0.440064
vt 0.403599 0.391898
vt 0.321175 0.440064
vt 0.321175 0.391898
vt 0.345152 0.440064
vt 0.297203 0.391898
vt 0.228258 0.440064
vt 0.438072 0.440064
vt 0.414100 0.391898
vt 0.520499 0.440064
vt 0.530995 0.391898
vt 0.695848 0.440064
vt 0.613418 0.391898
vt 0.812739 0.440064
vt 0.706336 0.391898
vt 0.929632 0.440064
vt 0.823235 0.391898
vt 1.046537 0.440064
vt 0.998578 0.391898
vt 1.163432 0.440064
vt 1.081008 0.391898
vt 1.280324 0.440064
vt 1.173922 0.391898
vt 1.373251 0.440064
vt 1.290817 0.391898
vt 1.455675 0.440064
vt 1.373251 0.391898
vt 1.572577 0.440064
vt 1.466171 0.391898
vt -0.204863 0.440064
vt -0.263312 0.391898
vt -0.263312 0.440064
vt -0.122430 0.440064
vt -0.204863 0.391898
vt -0.029517 0.440064
vt -0.111941 0.391898
vt 0.052913 0.440064
vt -0.029517 0.391898
vt 0.145829 0.440064
vt 0.063405 0.391898
vt -0.318698 0.391898
vt -0.255454 0.440064
vt -0.192203 0.391898
vt 1.136017 0.440064
vt 1.262505 0.391898
vt 1.161956 0.391898
vt 1.196835 0.440064
vt 1.323318 0.391898
vt 1.222775 0.391898
vt 0.592720 0.391898
vt 0.655969 0.440064
vt 0.693272 0.391898
vt -0.257888 0.391898
vt -0.168689 0.440064
vt -0.131381 0.391898
vt 0.023485 0.391898
vt 0.060783 0.440064
vt 0.124040 0.391898
vt 0.337298 0.440064
vt 0.432173 0.391898
vt 0.311352 0.391898
vt 0.943838 0.440064
vt 0.969782 0.391898
vt 0.880588 0.391898
vt 1.098707 0.391898
vt 0.566776 0.440064
vt 0.529472 0.391898
vt -0.065705 0.391898
vt -0.419254 0.391898
vt -0.356006 0.440064
vt 1.033030 0.391898
vt 1.009512 0.440064
vt 1.009513 0.391898
vt 1.323331 0.440064
vt 1.412520 0.391898
vt 0.440274 0.440064
vt 0.434597 0.391898
vt -0.068142 0.440064
vt -0.004884 0.391898
vt 0.564342 0.440064
vt 0.527043 0.391898
vt -0.445201 0.440064
vt -0.508454 0.391898
vt 1.070338 0.440064
vt 1.133575 0.391898
vt 1.449825 0.440064
vt 1.513075 0.391898
vt 0.627593 0.391898
vt 0.908962 0.391898
vt 0.339727 0.391898
vt 0.121601 0.440064
vt 0.121613 0.391898
vt -0.608999 0.440064
vt -0.608999 0.391898
vt 0.883017 0.440064
vt 0.819763 0.391898
vt 1.602265 0.440064
vt 1.602266 0.391898
vt 0.250538 0.391898
vt 0.339727 0.440064
vt 0.653540 0.440064
vt 0.754086 0.391898
vt -0.128962 0.440064
vt 0.248095 0.440064
vt 0.210801 0.391898
vt 1.388999 0.440064
vt 1.389003 0.391898
vt 0.756526 0.440064
vt -0.384383 0.440064
vt -0.384378 0.391898
vt 0.250525 0.440064
vt 0.843285 0.440064
vt 0.180306 0.391898
vt 0.790037 0.432731
vt 0.000000 0.384803
vt 0.790037 0.384803
vt 0.510186 0.432731
vt 1.300223 0.384803
vt 1.300223 0.432731
vt 0.510186 0.384803
vt 0.000000 0.432731
vt 0.169435 0.199965
vt 0.313070 0.123353
vt 0.236982 0.199965
vt 0.979998 0.199965
vt 1.047545 0.123353
vt 1.047545 0.199965
vt 0.439623 0.199965
vt 0.515712 0.123353
vt 0.912451 0.199965
vt 0.811130 0.123353
vt 0.946223 0.123353
vt 0.709810 0.199965
vt 0.777357 0.199965
vt 0.304529 0.199965
vt 0.574717 0.199965
vt 0.676037 0.123353
vt 0.642263 0.199965
vt 0.101888 0.199965
vt 0.135661 0.123353
vt 0.844904 0.199965
vt 0.372076 0.199965
vt 0.517016 0.192965
vt 0.526860 0.172178
vt 0.534461 0.173275
vt 0.524285 0.125915
vt 0.542448 0.154125
vt 0.530311 0.150520
vt 0.553290 0.192853
vt 0.522384 0.156281
vt 0.498710 0.155401
vt 0.570479 0.163682
vt 0.542265 0.165492
vt 0.521931 0.166162
vt 0.556309 0.132857
vt 0.532410 0.161860
vt 0.890005 0.123353
vt 0.918805 0.199965
vt 0.847381 0.123353
vt 0.990229 0.199965
vt 1.032856 0.123353
vt 1.061653 0.199965
vt 0.061714 0.123353
vt 0.133138 0.199965
vt 0.061714 0.199965
vt 0.175768 0.123353
vt 0.204562 0.199965
vt 0.275987 0.199965
vt 0.318618 0.123353
vt 0.347411 0.123353
vt 0.418835 0.199965
vt 0.461467 0.123353
vt 0.490259 0.199965
vt 0.561684 0.199965
vt 0.604312 0.123353
vt 0.633108 0.199965
vt 0.704532 0.199965
vt 0.750122 0.199965
vt 0.615029 0.123353
vt 0.758366 0.123353
vt 0.747159 0.123353
vt 0.775956 0.199965
vt 0.615030 0.199965
vt 0.465885 0.123353
vt 0.479941 0.199965
vt 0.336218 0.123353
vt 0.209751 0.199965
vt 0.344846 0.199965
vt 0.209747 0.123353
vt 0.871172 0.123353
vt 0.885214 0.199965
vt 1.020311 0.199965
vt 1.020312 0.123353
vt 0.009671 0.581369
vt 0.009671 0.588191
vt 0.009671 0.593094
vt 0.009671 0.619547
vt 0.009671 0.625497
vt 0.009671 0.633189
vt 0.009671 0.659055
vt 0.009671 0.673246
vt 0.009671 0.674117
vt 0.009671 0.604486
vt 0.009671 0.611854
vt 0.145828 0.440064
vt 0.169810 0.391898
vt 0.063407 0.440064
vt -0.053499 0.440064
vt -0.005534 0.391898
vt -0.239335 0.391898
vt 1.466171 0.440064
vt 1.548599 0.391898
vt 1.455682 0.391898
vt 1.290822 0.440064
vt 1.173925 0.440064
vt 1.221881 0.391898
vt 1.139457 0.391898
vt 1.046534 0.391898
vt 0.817986 0.391898
vt 0.462054 0.391898
vt 0.345157 0.391898
vt 0.204278 0.391898
vt 0.286710 0.440064
vt 0.169813 0.440064
vt 0.379624 0.440064
vt 0.462045 0.440064
vt 0.578943 0.440064
vt 0.706343 0.391898
vt 0.812739 0.440064
vt 0.823235 0.391898
vt 0.929632 0.440064
vt 0.998579 0.391898
vt 1.046530 0.440064
vt 1.163429 0.440064
vt 1.173928 0.391898
vt 1.280324 0.440064
vt 1.290817 0.391898
vt 1.572577 0.440064
vt -0.122430 0.440064
vt -0.111938 0.391898
vt 0.004958 0.391898
vt 0.052913 0.440064
vt 0.121857 0.391898
vt 0.149982 0.440064
vt 0.060783 0.440064
vt 0.248095 0.440064
vt -0.255450 0.391898
vt -0.192214 0.440064
vt -0.292757 0.440064
vt 0.943830 0.391898
vt 0.880591 0.440064
vt 0.817334 0.391898
vt 1.323318 0.391898
vt -0.257888 0.391898
vt -0.257885 0.440064
vt 0.432173 0.391898
vt -0.381956 0.391898
vt -0.381948 0.440064
vt 1.072757 0.391898
vt -0.131381 0.391898
vt -0.068142 0.440064
vt -0.065717 0.440064
vt 1.007090 0.440064
vt 0.440274 0.440064
vt 0.564342 0.440064
vt 0.437848 0.440064
vt -0.508445 0.440064
vt -0.508454 0.391898
vt 1.133575 0.391898
vt 1.009520 0.440064
vt 0.946260 0.391898
vt -0.004888 0.391898
vt 0.021056 0.440064
vt 1.475768 0.391898
vt 1.539017 0.440064
vt 0.084305 0.391898
vt 0.883021 0.440064
vt 0.716788 0.391898
vt -0.358434 0.391898
vt -0.384375 0.440064
vt -0.421683 0.391898
vt -0.166260 0.391898
vt 0.184858 0.391898
vt 0.121607 0.440064
vt 0.754096 0.440064
vt 1.262509 0.440064
vt 0.756526 0.440064
vt 0.615025 0.123353
vt 0.313070 0.123353
vt 0.479936 0.123353
vt 0.507170 0.199965
vt 0.903911 0.123353
vt 0.743581 0.123353
vt 0.135663 0.123353
vt 0.526544 0.171772
vt 0.509325 0.189532
vt 0.539217 0.198157
vt 0.524284 0.125915
vt 0.539809 0.153140
vt 0.562350 0.141908
vt 0.537737 0.171034
vt 0.565417 0.180555
vt 0.522626 0.157831
vt 0.498710 0.155401
vt 0.543669 0.162202
vt 0.516906 0.168998
vt 0.530311 0.150520
vt 0.818587 0.123353
vt 0.847381 0.123353
vt 0.918805 0.123353
vt 1.032856 0.123353
vt 0.347411 0.123353
vt 0.318618 0.123353
vt 0.561684 0.123353
vt 0.675734 0.123353
vt 0.488174 0.123353
vt 0.344839 0.123353
vt 0.344846 0.199965
vt 0.817667 0.123353
vt 0.817673 0.199965
vt 0.682575 0.199965
vt 0.606407 0.123353
vt 0.133579 0.123353
vt 1.020312 0.199965
vt 0.944139 0.123353
vt 0.009671 0.645961
vt 0.009671 0.635939
vt 0.009671 0.646832
vt 0.009671 0.599083
vt 0.009671 0.661306
vt 0.629670 0.759497
vt 0.696755 0.756193
vt 0.595124 0.759579
vt 0.330289 0.747131
vt 0.734135 0.756068
vt 0.734105 0.750551
vt 0.566119 0.750551
vt 0.734105 0.691876
vt 0.595124 0.759579
vt 0.634049 0.758593
vt 0.694323 0.756500
vt 0.731602 0.756117
vt 0.248127 0.750551
vt 0.158827 0.378476
vt -0.413982 0.747131
vt 0.538863 0.698928
vt -0.263313 0.391898
vt 0.262726 0.391898
vt 0.905662 0.391898
vt 1.583066 0.391898
vt 1.262509 0.440064
vt -0.257885 0.440064
vt 0.437848 0.440064
vt -0.039764 0.440064
vt -0.545751 0.440064
vt 0.754093 0.440064
vt 0.101888 0.123353
vt -0.146416 0.391898
vt 1.607048 0.391898
vt 0.554969 0.391898
vt 1.096278 0.440064
vt 1.576319 0.391898
vt 0.709810 0.123353
vt 0.236982 0.123353
s 1
usemtl MI_WoodTrim_Wear
f 2/1/1 3/2/1 1/3/1
f 8/4/2 5/3/2 7/2/2
f 12/5/3 1/6/4 3/7/4
f 12/5/3 10/8/5 17/9/6
f 12/5/3 5/10/7 11/11/8
f 15/12/9 10/13/10 14/14/11
f 12/15/12 8/16/13 7/17/13
f 1/18/14 16/19/15 2/20/16
f 4/18/13 12/15/12 3/20/13
f 4/7/17 16/21/18 9/22/19
f 13/23/20 5/16/21 6/17/22
f 11/24/23 14/14/11 10/13/10
f 17/25/24 15/12/9 18/26/25
f 9/22/19 6/10/26 8/27/27
f 22/28/28 25/29/29 21/30/28
f 22/31/30 24/32/31 26/33/31
f 21/31/32 23/32/33 19/34/32
f 20/30/34 23/35/35 24/29/35
f 30/28/36 32/36/37 29/30/38
f 30/31/1 28/37/1 33/38/1
f 29/31/2 31/37/2 27/34/2
f 36/30/28 41/35/39 40/29/39
f 37/31/40 39/32/41 41/33/41
f 36/31/42 38/32/43 34/34/42
f 34/28/34 39/29/44 35/30/34
f 43/1/1 44/2/1 42/3/1
f 48/2/2 47/1/2 46/3/2
f 44/20/45 49/16/45 48/17/45
f 45/7/46 47/10/46 49/27/46
f 44/7/47 46/10/47 42/6/47
f 42/18/48 47/17/48 43/20/48
f 50/3/1 53/4/1 52/2/1
f 57/4/2 54/3/2 56/2/2
f 53/18/48 56/17/48 52/20/48
f 57/39/47 51/40/47 55/41/47
f 56/39/46 50/40/46 52/42/46
f 51/20/45 54/16/45 55/17/45
f 58/3/1 61/4/1 60/2/1
f 65/4/2 62/3/2 64/2/2
f 61/43/48 64/44/48 60/45/48
f 65/46/49 59/47/49 63/48/49
f 64/46/50 58/47/50 60/49/50
f 59/45/45 62/50/45 63/44/45
f 68/2/1 67/1/1 66/3/1
f 70/3/2 73/4/2 72/2/2
f 66/6/51 77/51/52 68/7/51
f 77/51/52 70/10/53 72/27/54
f 80/52/55 75/53/56 82/54/57
f 77/55/58 73/16/59 74/56/58
f 81/57/60 66/18/61 67/20/62
f 77/55/58 69/18/59 68/20/59
f 81/58/63 69/7/64 74/59/65
f 78/60/66 70/16/67 76/61/68
f 76/61/68 79/62/69 78/60/66
f 74/59/65 78/63/70 79/64/71
f 83/65/72 81/57/60 80/52/73
f 74/59/65 80/66/74 81/58/63
f 71/10/75 74/59/65 73/27/76
f 25/29/77 87/28/78 86/30/78
f 24/32/79 87/31/80 26/33/79
f 86/31/81 23/32/82 25/33/82
f 85/30/83 23/35/84 84/28/83
f 91/30/78 41/35/85 92/28/78
f 39/32/86 92/31/87 41/33/86
f 91/31/88 38/32/89 40/33/89
f 39/29/90 89/28/83 90/30/83
f 95/2/1 94/1/1 93/3/1
f 99/2/2 98/1/2 100/4/2
f 95/20/91 100/16/91 96/18/91
f 98/10/92 96/7/92 100/27/92
f 95/7/93 97/10/93 99/27/93
f 98/17/94 93/18/94 94/20/94
f 101/3/1 104/4/1 102/1/1
f 105/3/2 108/4/2 107/2/2
f 107/17/94 104/18/94 103/20/94
f 108/39/93 102/40/93 104/42/93
f 101/40/92 107/39/92 103/42/92
f 102/20/91 105/16/91 101/18/91
f 109/3/1 112/4/1 110/1/1
f 113/3/2 116/4/2 115/2/2
f 115/44/94 112/43/94 111/45/94
f 116/46/95 110/47/95 112/49/95
f 109/47/96 115/46/96 111/49/96
f 110/45/91 113/50/91 109/43/91
f 119/67/97 124/68/97 123/69/97
f 124/70/98 118/71/98 122/72/98
f 119/73/99 121/72/99 117/71/99
f 118/67/100 121/68/100 122/69/100
f 119/74/101 118/75/101 120/76/101
f 128/77/97 131/78/97 127/67/97
f 128/73/102 130/79/102 132/80/102
f 127/73/103 129/79/103 125/71/103
f 125/77/100 130/78/100 126/67/100
f 125/81/104 128/76/104 127/74/104
f 134/1/102 135/2/102 133/3/102
f 139/2/103 138/1/103 137/3/103
f 136/82/105 139/83/105 135/84/105
f 140/85/100 134/86/100 138/87/100
f 139/85/97 133/86/97 135/88/97
f 134/84/104 137/89/104 138/83/104
f 141/3/102 144/4/102 143/2/102
f 147/2/103 146/1/103 145/3/103
f 144/90/105 147/91/105 143/92/105
f 148/93/100 142/94/100 146/95/100
f 147/93/97 141/94/97 143/96/97
f 141/90/104 146/91/104 142/92/104
f 151/97/106 156/98/106 155/99/106
f 152/100/107 154/101/107 156/102/107
f 151/100/108 153/101/108 149/103/108
f 149/104/109 154/99/109 150/97/109
f 159/2/103 158/1/103 157/3/103
f 163/2/102 162/1/102 164/4/102
f 163/17/110 160/18/110 159/20/110
f 164/105/111 158/106/111 160/107/111
f 157/106/112 163/105/112 159/107/112
f 158/20/113 161/16/113 157/18/113
f 168/77/114 171/29/115 167/67/114
f 172/33/116 166/71/117 170/32/116
f 171/33/118 165/71/119 167/73/119
f 166/67/120 169/35/121 170/29/121
f 165/81/122 168/76/122 167/74/122
f 175/67/123 180/35/123 179/29/123
f 180/33/1 174/71/1 178/32/1
f 179/33/2 173/71/2 175/73/2
f 173/77/124 178/29/124 174/67/124
f 173/81/125 176/76/125 175/74/125
f 183/67/126 188/35/127 187/29/127
f 188/33/128 182/71/129 186/32/130
f 187/33/131 181/71/132 183/73/132
f 181/77/133 186/29/134 182/67/133
f 183/74/135 182/75/135 184/76/136
f 189/3/1 192/4/1 191/2/1
f 196/4/2 193/3/2 195/2/2
f 192/18/125 195/17/125 191/20/125
f 192/7/137 194/10/137 196/27/137
f 195/27/138 189/6/138 191/7/138
f 189/18/139 194/17/139 190/20/139
f 197/3/1 200/4/1 199/2/1
f 204/4/2 201/3/2 203/2/2
f 200/18/139 203/17/139 199/20/139
f 200/42/138 202/41/138 204/39/138
f 199/42/137 201/41/137 197/40/137
f 198/20/125 201/16/125 202/17/125
f 205/3/1 208/4/1 207/2/1
f 212/4/2 209/3/2 211/2/2
f 208/43/139 211/44/139 207/45/139
f 208/49/138 210/48/138 212/46/138
f 211/46/137 205/47/137 207/49/137
f 205/43/125 210/44/125 206/45/125
f 219/29/140 216/77/141 215/67/141
f 220/33/142 214/71/143 216/73/143
f 213/71/144 219/33/145 215/73/144
f 214/67/146 217/35/147 213/77/146
f 216/76/148 213/81/148 215/74/148
f 223/67/149 228/35/149 224/77/149
f 228/33/1 222/71/1 224/73/1
f 221/71/2 227/33/2 223/73/2
f 226/29/150 221/77/150 222/67/150
f 224/76/151 221/81/151 223/74/151
f 231/67/152 236/35/153 232/77/152
f 236/33/154 230/71/155 232/73/155
f 229/71/156 235/33/157 231/73/156
f 234/29/158 229/77/159 230/67/159
f 231/74/160 230/75/160 229/81/160
f 237/3/1 240/4/1 238/1/1
f 241/3/2 244/4/2 243/2/2
f 243/17/151 240/18/151 239/20/151
f 242/10/161 240/7/161 244/27/161
f 237/6/162 243/27/162 239/7/162
f 242/17/163 237/18/163 238/20/163
f 245/3/1 248/4/1 246/1/1
f 249/3/2 252/4/2 251/2/2
f 251/17/163 248/18/163 247/20/163
f 250/41/162 248/42/162 252/39/162
f 247/42/161 249/41/161 251/39/161
f 246/20/151 249/16/151 245/18/151
f 253/3/1 256/4/1 254/1/1
f 257/3/2 260/4/2 259/2/2
f 259/44/163 256/43/163 255/45/163
f 260/46/162 254/47/162 256/49/162
f 253/47/161 259/46/161 255/49/161
f 258/44/151 253/43/151 254/45/151
f 262/108/164 263/109/165 261/110/166
f 264/111/167 265/112/168 263/109/165
f 266/113/169 267/114/170 265/112/168
f 268/115/171 269/116/172 267/114/170
f 270/117/173 271/118/174 269/116/172
f 272/119/175 273/120/176 271/121/174
f 274/122/177 275/123/178 273/120/176
f 276/124/179 277/125/180 275/123/178
f 276/124/179 278/126/181 277/125/180
f 279/127/182 280/128/183 278/126/181
f 281/129/184 282/130/185 280/128/183
f 283/131/186 284/132/187 282/130/185
f 285/133/188 286/134/189 284/132/187
f 287/135/190 288/136/191 286/134/189
f 288/136/191 290/137/192 289/138/193
f 291/139/194 292/140/195 289/138/193
f 291/139/194 293/141/196 292/140/195
f 294/142/197 295/143/198 293/141/196
f 296/144/199 297/145/200 295/143/198
f 298/146/201 261/110/166 297/145/200
f 303/147/202 301/148/203 300/149/204
f 305/150/205 304/151/206 303/147/202
f 306/152/207 304/151/206 305/150/205
f 308/140/208 307/153/209 306/152/207
f 310/154/210 309/155/211 308/140/208
f 312/156/212 311/157/213 310/154/210
f 314/158/214 313/159/215 312/156/212
f 317/160/216 316/161/217 314/158/214
f 319/162/218 318/163/219 317/160/216
f 321/164/220 320/165/221 319/162/218
f 323/166/222 322/167/223 321/164/220
f 325/168/224 324/169/225 323/166/222
f 327/170/226 326/171/227 325/168/224
f 329/172/228 328/173/229 327/174/226
f 331/175/230 330/176/231 329/172/228
f 333/177/232 332/178/233 331/175/230
f 335/179/234 334/180/235 333/177/232
f 337/181/236 336/182/237 335/179/234
f 265/183/238 303/184/239 263/185/240
f 314/186/241 273/187/242 275/188/243
f 301/189/244 266/190/245 264/191/246
f 286/192/247 323/193/248 284/194/249
f 274/195/250 315/196/251 276/197/252
f 297/198/253 335/199/254 295/200/255
f 324/201/256 287/202/257 285/203/258
f 336/204/259 298/205/260 296/206/261
f 314/186/241 275/188/243 277/207/262
f 325/208/263 286/192/247 288/209/264
f 261/210/265 335/199/254 297/198/253
f 267/211/266 305/212/267 265/183/238
f 336/204/259 299/213/268 298/205/260
f 317/214/269 277/207/262 278/215/270
f 304/216/271 268/217/272 266/190/245
f 327/218/273 288/209/264 289/219/274
f 276/197/252 316/220/275 279/221/276
f 287/202/257 328/222/277 290/223/278
f 306/224/279 267/211/266 269/225/280
f 302/226/281 262/227/282 299/213/268
f 268/217/272 307/228/283 270/229/284
f 290/223/278 328/222/277 291/230/285
f 280/231/286 317/214/269 278/215/270
f 292/232/287 327/218/273 289/219/274
f 279/221/276 320/233/288 281/234/289
f 310/235/290 269/225/280 271/236/291
f 319/237/292 280/231/286 282/238/293
f 270/229/284 311/239/294 272/240/295
f 293/241/296 329/242/297 292/232/287
f 330/243/298 294/244/299 291/230/285
f 263/185/240 300/245/300 261/210/265
f 281/234/289 322/246/301 283/247/302
f 273/187/242 310/248/290 271/249/291
f 321/250/303 282/238/293 284/194/249
f 311/251/294 274/195/250 272/252/295
f 295/200/255 331/253/304 293/241/296
f 283/247/302 322/246/301 285/203/258
f 294/244/299 334/254/305 296/206/261
f 301/189/244 264/191/246 262/227/282
f 300/149/204 302/255/306 337/181/236
f 341/256/307 344/257/307 340/258/307
f 341/259/308 343/260/308 345/261/308
f 340/259/309 342/260/309 338/262/309
f 339/258/310 342/263/310 343/257/310
f 338/81/311 341/76/311 340/74/311
f 348/258/312 353/263/312 352/257/312
f 353/261/313 347/262/313 351/260/313
f 352/261/314 346/262/314 348/259/314
f 347/258/315 350/263/315 351/257/315
f 348/74/316 347/75/316 349/76/316
f 357/256/317 360/257/317 356/258/317
f 357/259/318 359/260/318 361/261/318
f 356/259/319 358/260/319 354/262/319
f 355/258/320 358/263/320 359/257/320
f 354/81/321 357/76/321 356/74/321
f 365/256/322 368/257/322 364/258/322
f 365/259/323 367/260/323 369/261/323
f 364/259/324 366/260/324 362/262/324
f 362/256/325 367/257/325 363/258/325
f 362/81/326 365/76/326 364/74/326
f 373/256/327 376/257/327 372/258/327
f 373/259/328 375/260/328 377/261/328
f 372/259/329 374/260/329 370/262/329
f 371/258/330 374/263/330 375/257/330
f 370/81/331 373/76/331 372/74/331
f 380/258/332 385/263/332 384/257/332
f 385/261/333 379/262/333 383/260/333
f 384/261/334 378/262/334 380/259/334
f 378/256/335 383/257/335 379/258/335
f 378/81/336 381/76/336 380/74/336
f 388/258/337 393/263/337 392/257/337
f 389/259/309 391/260/309 393/261/309
f 388/259/308 390/260/308 386/262/308
f 387/258/338 390/263/338 391/257/338
f 386/81/339 389/76/339 388/74/339
f 396/258/340 401/263/340 400/257/340
f 401/261/314 395/262/314 399/260/314
f 400/261/313 394/262/313 396/259/313
f 394/256/341 399/257/341 395/258/341
f 394/81/342 397/76/342 396/74/342
f 404/258/343 409/263/343 408/257/343
f 405/259/319 407/260/319 409/261/319
f 404/259/318 406/260/318 402/262/318
f 403/258/344 406/263/344 407/257/344
f 402/81/345 405/76/345 404/74/345
f 412/258/346 417/263/346 416/257/346
f 413/259/324 415/260/324 417/261/324
f 412/259/323 414/260/323 410/262/323
f 410/256/347 415/257/347 411/258/347
f 410/81/348 413/76/348 412/74/348
f 420/258/349 425/263/349 424/257/349
f 421/259/329 423/260/329 425/261/329
f 420/259/328 422/260/328 418/262/328
f 418/256/350 423/257/350 419/258/350
f 420/74/351 419/75/351 421/76/351
f 429/256/352 432/257/352 428/258/352
f 433/261/334 427/262/334 431/260/334
f 432/261/333 426/262/333 428/259/333
f 427/258/353 430/263/353 431/257/353
f 426/81/354 429/76/354 428/74/354
f 438/264/355 451/265/356 439/266/357
f 436/267/358 450/268/359 437/269/360
f 442/270/361 451/265/356 452/271/362
f 435/272/363 449/273/364 448/274/365
f 446/275/366 449/273/364 447/276/367
f 439/266/357 451/265/356 440/277/368
f 444/278/369 453/279/370 445/280/371
f 437/281/360 450/282/359 438/264/355
f 447/276/367 449/273/364 434/283/372
f 440/277/368 451/265/356 441/284/373
f 452/285/374 458/286/375 459/287/376
f 450/288/377 454/289/378 455/290/379
f 452/285/374 459/287/376 453/291/380
f 450/288/377 456/292/381 451/293/382
f 449/294/383 460/295/384 454/289/378
f 451/293/382 456/292/381 457/296/385
f 451/293/382 457/296/385 452/285/374
f 449/294/383 454/289/378 448/297/386
f 460/295/384 459/287/376 461/298/387
f 456/292/381 455/290/379 461/298/387
f 457/296/385 456/292/381 461/298/387
f 454/289/378 460/295/384 461/298/387
f 458/286/375 457/296/385 461/298/387
f 459/287/376 458/286/375 461/298/387
f 455/290/379 454/289/378 461/298/387
f 462/299/388 447/300/367 434/301/372
f 462/299/388 446/302/366 447/300/367
f 463/303/389 445/304/371 446/302/366
f 463/305/389 444/306/369 445/307/371
f 464/308/390 443/309/391 444/306/369
f 464/308/390 442/310/361 443/309/391
f 465/311/392 441/312/373 442/310/361
f 465/311/392 440/313/368 441/312/373
f 466/314/393 439/315/357 440/313/368
f 466/314/393 438/316/355 439/315/357
f 467/317/394 437/318/360 438/316/355
f 467/317/394 436/319/358 437/318/360
f 468/320/102 474/321/102 475/322/395
f 468/323/396 435/324/363 436/319/358
f 468/323/396 434/301/372 435/324/363
f 467/325/102 473/326/397 474/321/102
f 466/327/102 472/328/398 473/326/397
f 464/329/102 472/328/398 465/330/102
f 463/281/102 471/331/399 464/329/102
f 468/320/102 469/332/400 462/333/102
f 463/334/102 469/332/400 470/335/102
f 474/336/401 476/337/402 475/338/395
f 470/339/403 479/340/404 471/341/399
f 473/342/397 477/343/405 474/344/401
f 469/345/400 480/346/406 470/339/403
f 483/347/407 482/348/408 481/110/409
f 484/349/410 482/348/408 483/347/407
f 487/350/411 486/351/412 484/349/410
f 489/116/413 488/115/414 487/350/411
f 492/118/415 491/352/416 489/116/413
f 494/353/417 493/354/418 492/121/415
f 496/123/419 495/355/420 494/353/417
f 498/356/421 497/124/422 496/123/419
f 500/357/423 499/358/424 498/356/421
f 502/130/425 501/359/426 500/357/423
f 504/132/427 503/360/428 502/130/425
f 506/134/429 505/133/430 504/132/427
f 508/136/431 507/361/432 506/134/429
f 508/136/431 510/137/433 507/361/432
f 512/140/434 511/139/435 509/138/436
f 513/141/437 511/139/435 512/140/434
f 516/143/438 515/362/439 513/141/437
f 518/145/440 517/363/441 516/143/438
f 481/110/409 517/363/441 518/145/440
f 523/364/442 521/365/443 520/366/444
f 522/148/445 524/367/446 521/365/443
f 525/151/447 526/368/448 524/367/446
f 527/153/449 528/369/450 526/368/448
f 529/155/451 530/154/452 528/369/450
f 531/370/453 532/371/454 530/154/452
f 533/372/455 534/373/456 532/371/454
f 536/374/457 537/375/458 534/373/456
f 538/163/459 539/376/460 537/375/458
f 540/377/461 541/378/462 539/376/460
f 542/379/463 543/166/464 541/378/462
f 544/169/465 545/168/466 543/166/464
f 546/171/467 547/380/468 545/168/466
f 548/173/469 549/172/470 547/174/468
f 550/176/471 551/381/472 549/172/470
f 552/382/473 553/177/474 551/381/472
f 554/383/475 555/384/476 553/177/474
f 556/385/477 520/366/444 555/384/476
f 516/200/478 553/386/479 555/387/480
f 505/203/481 544/201/482 542/388/483
f 484/389/484 521/390/485 524/391/486
f 517/392/487 554/393/488 515/394/489
f 494/187/490 534/186/491 496/188/492
f 486/395/493 522/189/494 485/191/495
f 506/192/496 543/193/497 545/208/498
f 495/396/499 535/196/500 533/397/501
f 507/398/502 544/201/482 505/203/481
f 487/399/503 524/391/486 526/400/504
f 496/188/492 534/186/491 498/401/505
f 506/192/496 545/208/498 508/209/506
f 497/402/507 536/403/508 535/196/500
f 481/210/509 555/387/480 520/404/510
f 519/213/511 556/405/512 517/392/487
f 488/217/513 525/216/514 486/395/493
f 508/209/506 547/406/515 509/219/516
f 507/398/502 548/407/517 546/408/518
f 487/399/503 528/409/519 489/410/520
f 482/411/521 556/405/512 519/213/511
f 498/401/505 537/412/522 500/413/523
f 499/414/524 538/415/525 536/403/508
f 490/416/526 529/417/527 527/228/528
f 512/232/529 547/406/515 549/242/530
f 501/418/531 538/415/525 499/414/524
f 489/410/520 530/235/532 492/236/533
f 500/413/523 539/419/534 502/238/535
f 513/241/536 549/242/530 551/253/537
f 514/420/538 550/243/539 511/230/540
f 493/421/541 531/422/542 491/423/543
f 483/424/544 520/404/510 521/390/485
f 503/425/545 542/388/483 540/426/546
f 515/394/489 552/427/547 514/420/538
f 494/187/490 530/248/532 532/428/548
f 502/238/535 541/429/549 504/194/550
f 495/396/499 531/422/542 493/421/541
f 516/200/478 551/253/537 553/386/479
f 485/191/495 522/189/494 482/411/521
f 563/257/338 560/256/338 559/258/338
f 562/260/308 560/259/308 564/261/308
f 559/259/309 561/260/309 563/261/309
f 558/258/337 561/263/337 557/256/337
f 560/76/551 557/81/551 559/74/551
f 567/258/341 572/263/341 568/256/341
f 572/261/313 566/262/313 568/259/313
f 565/262/314 571/261/314 567/259/314
f 566/258/340 569/263/340 565/256/340
f 568/76/552 565/81/552 567/74/552
f 579/257/344 576/256/344 575/258/344
f 578/260/318 576/259/318 580/261/318
f 575/259/319 577/260/319 579/261/319
f 574/258/343 577/263/343 573/256/343
f 576/76/553 573/81/553 575/74/553
f 587/257/347 584/256/347 583/258/347
f 586/260/323 584/259/323 588/261/323
f 583/259/324 585/260/324 587/261/324
f 586/257/346 581/256/346 582/258/346
f 584/76/554 581/81/554 583/74/554
f 595/257/350 592/256/350 591/258/350
f 594/260/328 592/259/328 596/261/328
f 591/259/329 593/260/329 595/261/329
f 590/258/349 593/263/349 589/256/349
f 592/76/555 589/81/555 591/74/555
f 599/258/353 604/263/353 600/256/353
f 604/261/333 598/262/333 600/259/333
f 597/262/334 603/261/334 599/259/334
f 602/257/352 597/256/352 598/258/352
f 600/76/556 597/81/556 599/74/556
f 607/258/310 612/263/310 608/256/310
f 610/260/309 608/259/309 612/261/309
f 607/259/308 609/260/308 611/261/308
f 606/258/307 609/263/307 605/256/307
f 608/76/557 605/81/557 607/74/557
f 615/258/315 620/263/315 616/256/315
f 620/261/314 614/262/314 616/259/314
f 613/262/313 619/261/313 615/259/313
f 618/257/312 613/256/312 614/258/312
f 615/74/558 614/75/558 613/81/558
f 623/258/320 628/263/320 624/256/320
f 626/260/319 624/259/319 628/261/319
f 623/259/318 625/260/318 627/261/318
f 622/258/317 625/263/317 621/256/317
f 624/76/559 621/81/559 623/74/559
f 631/258/325 636/263/325 632/256/325
f 634/260/324 632/259/324 636/261/324
f 631/259/323 633/260/323 635/261/323
f 634/257/322 629/256/322 630/258/322
f 632/76/560 629/81/560 631/74/560
f 639/258/330 644/263/330 640/256/330
f 642/260/329 640/259/329 644/261/329
f 639/259/328 641/260/328 643/261/328
f 642/257/327 637/256/327 638/258/327
f 639/74/561 638/75/561 637/81/561
f 651/257/335 648/256/335 647/258/335
f 652/261/334 646/262/334 648/259/334
f 645/262/333 651/261/333 647/259/333
f 646/258/332 649/263/332 645/256/332
f 647/74/562 646/75/562 645/81/562
f 665/275/563 671/430/564 664/280/565
f 669/431/566 657/264/567 658/266/568
f 663/278/569 670/432/570 662/433/571
f 668/268/572 655/267/573 656/269/574
f 661/270/575 669/431/566 660/284/576
f 654/272/577 667/434/578 653/283/579
f 672/435/580 665/275/563 666/276/581
f 669/431/566 658/266/568 659/277/582
f 671/430/564 663/278/569 664/280/565
f 668/436/572 656/281/574 657/264/567
f 662/433/571 670/432/570 661/270/575
f 667/434/578 666/276/581 653/283/579
f 655/267/573 667/434/578 654/272/577
f 669/431/566 659/277/582 660/284/576
f 678/437/583 670/438/584 671/439/585
f 668/440/586 673/441/587 667/442/588
f 679/443/589 671/439/585 672/444/590
f 676/445/591 668/440/586 669/446/592
f 667/442/588 674/447/593 672/444/590
f 677/448/594 669/446/592 670/438/584
f 676/445/591 680/298/595 675/449/596
f 674/447/593 680/298/595 679/443/589
f 678/437/583 680/298/595 676/445/591
f 673/441/587 680/298/595 674/447/593
f 679/443/589 680/298/595 678/437/583
f 675/449/596 680/298/595 673/441/587
f 666/300/581 681/450/597 653/451/579
f 665/302/563 682/452/598 666/300/581
f 664/304/565 683/453/599 665/302/563
f 663/306/569 683/305/599 664/307/565
f 662/309/571 684/308/600 663/306/569
f 661/310/575 684/308/600 662/309/571
f 660/454/576 685/455/601 661/310/575
f 659/313/582 685/455/601 660/454/576
f 658/315/568 686/314/602 659/313/582
f 657/316/567 686/314/602 658/315/568
f 656/318/574 687/456/603 657/316/567
f 655/319/573 688/457/604 656/318/574
f 654/324/577 688/457/604 655/319/573
f 653/451/579 681/450/597 654/324/577
f 687/278/103 691/458/605 686/327/103
f 686/327/103 690/459/103 685/460/103
f 682/272/103 689/461/606 681/462/103
f 689/461/606 688/463/103 681/462/103
f 690/459/103 684/329/103 685/460/103
f 477/464/405 687/278/103 688/463/103
f 479/465/404 683/281/103 684/329/103
f 683/466/103 480/467/406 682/272/103
f 472/468/398 478/469/607 690/470/608
f 475/338/395 476/337/402 689/471/606
f 473/342/397 690/470/608 691/472/605
f 2/1/1 4/4/1 3/2/1
f 8/4/2 6/1/2 5/3/2
f 9/22/19 15/473/609 14/474/610
f 12/5/3 18/475/611 1/6/4
f 12/5/3 7/27/612 5/10/7
f 15/12/9 17/25/24 10/13/10
f 12/15/12 9/476/12 8/16/13
f 1/18/14 18/26/613 16/19/15
f 4/18/13 9/476/12 12/15/12
f 4/7/17 2/6/17 16/21/18
f 13/23/20 11/24/23 5/16/21
f 11/24/23 13/23/20 14/14/11
f 11/11/8 10/8/5 12/5/3
f 9/22/19 14/474/610 13/477/614
f 17/9/6 18/475/611 12/5/3
f 18/26/613 15/12/615 16/19/15
f 9/22/19 16/21/18 15/473/609
f 9/22/19 13/477/614 6/10/26
f 22/28/28 26/35/29 25/29/29
f 22/31/30 20/34/616 24/32/31
f 21/31/32 25/33/33 23/32/33
f 20/30/34 19/28/34 23/35/35
f 30/28/36 33/478/617 32/36/37
f 29/31/2 32/479/2 31/37/2
f 27/28/618 31/478/618 28/480/618
f 36/30/28 37/28/28 41/35/39
f 37/31/40 35/34/40 39/32/41
f 36/31/42 40/33/43 38/32/43
f 34/28/34 38/35/44 39/29/44
f 43/1/1 45/4/1 44/2/1
f 48/2/2 49/4/2 47/1/2
f 44/20/45 45/18/45 49/16/45
f 45/7/46 43/6/46 47/10/46
f 44/7/47 48/27/47 46/10/47
f 42/18/48 46/16/48 47/17/48
f 50/3/1 51/1/1 53/4/1
f 57/4/2 55/1/2 54/3/2
f 53/18/48 57/16/48 56/17/48
f 57/39/47 53/42/47 51/40/47
f 56/39/46 54/41/46 50/40/46
f 51/20/45 50/18/45 54/16/45
f 58/3/1 59/1/1 61/4/1
f 65/4/2 63/1/2 62/3/2
f 61/43/48 65/50/48 64/44/48
f 65/46/49 61/49/49 59/47/49
f 64/46/50 62/48/50 58/47/50
f 59/45/45 58/43/45 62/50/45
f 68/2/1 69/4/1 67/1/1
f 70/3/2 71/1/2 73/4/2
f 79/64/71 80/66/74 74/59/65
f 66/6/51 83/481/619 77/51/52
f 77/51/52 82/482/620 75/483/621
f 77/51/52 76/484/622 70/10/53
f 80/52/55 79/62/69 75/53/56
f 77/55/58 72/17/59 73/16/59
f 81/57/60 83/65/72 66/18/61
f 77/55/58 74/56/58 69/18/59
f 81/58/63 67/6/623 69/7/64
f 78/60/66 71/17/624 70/16/67
f 76/61/68 75/53/56 79/62/69
f 77/51/52 75/483/621 76/484/622
f 77/51/52 83/481/619 82/482/620
f 82/54/57 83/65/625 80/52/55
f 71/10/75 78/63/70 74/59/65
f 25/29/77 26/35/77 87/28/78
f 24/32/79 85/34/80 87/31/80
f 86/31/81 84/34/81 23/32/82
f 85/30/83 24/29/84 23/35/84
f 28/37/1 88/34/1 33/38/1
f 88/30/626 28/480/626 31/478/626
f 91/30/78 40/29/85 41/35/85
f 39/32/86 90/34/87 92/31/87
f 91/31/88 89/34/88 38/32/89
f 39/29/90 38/35/90 89/28/83
f 95/2/1 96/4/1 94/1/1
f 99/2/2 97/3/2 98/1/2
f 95/20/91 99/17/91 100/16/91
f 98/10/92 94/6/92 96/7/92
f 95/7/93 93/6/93 97/10/93
f 98/17/94 97/16/94 93/18/94
f 101/3/1 103/2/1 104/4/1
f 105/3/2 106/1/2 108/4/2
f 107/17/94 108/16/94 104/18/94
f 108/39/93 106/41/93 102/40/93
f 101/40/92 105/41/92 107/39/92
f 102/20/91 106/17/91 105/16/91
f 109/3/1 111/2/1 112/4/1
f 113/3/2 114/1/2 116/4/2
f 115/44/94 116/50/94 112/43/94
f 116/46/95 114/48/95 110/47/95
f 109/47/96 113/48/96 115/46/96
f 110/45/91 114/44/91 113/50/91
f 119/67/97 120/77/97 124/68/97
f 124/70/98 120/73/98 118/71/98
f 119/73/99 123/70/99 121/72/99
f 118/67/100 117/77/100 121/68/100
f 119/74/101 117/81/101 118/75/101
f 128/77/97 132/485/97 131/78/97
f 128/73/102 126/71/102 130/79/102
f 127/73/103 131/80/103 129/79/103
f 125/77/100 129/485/100 130/78/100
f 125/81/104 126/75/104 128/76/104
f 134/1/102 136/4/102 135/2/102
f 139/2/103 140/4/103 138/1/103
f 136/82/105 140/89/105 139/83/105
f 140/85/100 136/88/100 134/86/100
f 139/85/97 137/87/97 133/86/97
f 134/84/104 133/82/104 137/89/104
f 141/3/102 142/486/102 144/4/102
f 147/2/103 148/4/103 146/1/103
f 144/90/105 148/487/105 147/91/105
f 148/93/100 144/96/100 142/94/100
f 147/93/97 145/95/97 141/94/97
f 141/90/104 145/487/104 146/91/104
f 151/97/106 152/104/106 156/98/106
f 152/100/107 150/103/107 154/101/107
f 151/100/108 155/102/108 153/101/108
f 149/104/109 153/98/109 154/99/109
f 159/2/103 160/4/103 158/1/103
f 163/2/102 161/3/102 162/1/102
f 163/17/110 164/16/110 160/18/110
f 164/105/111 162/488/111 158/106/111
f 157/106/112 161/488/112 163/105/112
f 158/20/113 162/17/113 161/16/113
f 168/77/114 172/35/115 171/29/115
f 172/33/116 168/73/117 166/71/117
f 171/33/118 169/32/627 165/71/119
f 166/67/120 165/77/120 169/35/121
f 165/81/122 166/75/122 168/76/122
f 175/67/123 176/77/123 180/35/123
f 180/33/1 176/73/1 174/71/1
f 179/33/2 177/32/2 173/71/2
f 173/77/124 177/35/124 178/29/124
f 173/81/125 174/75/125 176/76/125
f 183/67/126 184/77/126 188/35/127
f 188/33/128 184/73/129 182/71/129
f 187/33/131 185/32/131 181/71/132
f 181/77/133 185/35/134 186/29/134
f 183/74/135 181/81/135 182/75/135
f 189/3/1 190/1/1 192/4/1
f 196/4/2 194/1/2 193/3/2
f 192/18/125 196/16/125 195/17/125
f 192/7/137 190/6/137 194/10/137
f 195/27/138 193/10/138 189/6/138
f 189/18/139 193/16/139 194/17/139
f 197/3/1 198/1/1 200/4/1
f 204/4/2 202/1/2 201/3/2
f 200/18/139 204/16/139 203/17/139
f 200/42/138 198/40/138 202/41/138
f 199/42/137 203/39/137 201/41/137
f 198/20/125 197/18/125 201/16/125
f 205/3/1 206/1/1 208/4/1
f 212/4/2 210/1/2 209/3/2
f 208/43/139 212/50/139 211/44/139
f 208/49/138 206/47/138 210/48/138
f 211/46/137 209/48/137 205/47/137
f 205/43/125 209/50/125 210/44/125
f 219/29/140 220/35/140 216/77/141
f 220/33/142 218/32/142 214/71/143
f 213/71/144 217/32/628 219/33/145
f 214/67/146 218/29/147 217/35/147
f 216/76/148 214/75/148 213/81/148
f 223/67/149 227/29/149 228/35/149
f 228/33/1 226/32/1 222/71/1
f 221/71/2 225/32/2 227/33/2
f 226/29/150 225/35/150 221/77/150
f 224/76/151 222/75/151 221/81/151
f 231/67/152 235/29/153 236/35/153
f 236/33/154 234/32/629 230/71/155
f 229/71/156 233/32/157 235/33/157
f 234/29/158 233/35/158 229/77/159
f 231/74/160 232/76/630 230/75/160
f 237/3/1 239/2/1 240/4/1
f 241/3/2 242/1/2 244/4/2
f 243/17/151 244/16/151 240/18/151
f 242/10/161 238/6/161 240/7/161
f 237/6/162 241/10/162 243/27/162
f 242/17/163 241/16/163 237/18/163
f 245/3/1 247/2/1 248/4/1
f 249/3/2 250/1/2 252/4/2
f 251/17/163 252/16/163 248/18/163
f 250/41/162 246/40/162 248/42/162
f 247/42/161 245/40/161 249/41/161
f 246/20/151 250/17/151 249/16/151
f 253/3/1 255/2/1 256/4/1
f 257/3/2 258/1/2 260/4/2
f 259/44/163 260/50/163 256/43/163
f 260/46/162 258/48/162 254/47/162
f 253/47/161 257/48/161 259/46/161
f 258/44/151 257/50/151 253/43/151
f 262/108/164 264/111/167 263/109/165
f 264/111/167 266/113/169 265/112/168
f 266/113/169 268/115/171 267/114/170
f 268/115/171 270/117/173 269/116/172
f 270/117/173 272/489/175 271/118/174
f 272/119/175 274/122/177 273/120/176
f 274/122/177 276/124/179 275/123/178
f 276/124/179 279/127/182 278/126/181
f 279/127/182 281/129/184 280/128/183
f 281/129/184 283/131/186 282/130/185
f 283/131/186 285/133/188 284/132/187
f 285/133/188 287/135/190 286/134/189
f 288/136/191 287/135/190 290/137/192
f 290/137/192 291/139/194 289/138/193
f 291/139/194 294/142/197 293/141/196
f 294/142/197 296/144/199 295/143/198
f 296/144/199 298/146/201 297/145/200
f 298/146/201 299/490/631 261/110/166
f 299/490/631 262/108/164 261/110/166
f 300/149/204 301/148/203 302/255/306
f 303/147/202 304/151/206 301/148/203
f 306/152/207 307/153/209 304/151/206
f 308/140/208 309/155/211 307/153/209
f 310/154/210 311/157/213 309/155/211
f 312/156/212 313/159/215 311/157/213
f 314/158/214 315/491/632 313/159/215
f 314/158/214 316/161/217 315/491/632
f 317/160/216 318/163/219 316/161/217
f 319/162/218 320/165/221 318/163/219
f 321/164/220 322/167/223 320/165/221
f 323/166/222 324/169/225 322/167/223
f 325/168/224 326/171/227 324/169/225
f 327/170/226 328/492/229 326/171/227
f 329/172/228 330/176/231 328/173/229
f 331/175/230 332/178/233 330/176/231
f 333/177/232 334/180/235 332/178/233
f 335/179/234 336/182/237 334/180/235
f 337/181/236 302/255/306 336/182/237
f 323/193/248 321/250/303 284/194/249
f 295/200/255 335/199/254 333/386/633
f 285/203/258 322/246/301 324/201/256
f 334/254/305 336/204/259 296/206/261
f 314/186/241 312/493/634 273/187/242
f 301/189/244 304/216/271 266/190/245
f 286/192/247 325/208/263 323/193/248
f 274/195/250 313/494/635 315/196/251
f 324/201/256 326/495/636 287/202/257
f 305/212/267 303/184/239 265/183/238
f 276/197/252 315/196/251 316/220/275
f 261/210/265 337/496/637 335/199/254
f 267/211/266 306/224/279 305/212/267
f 336/204/259 302/226/281 299/213/268
f 317/214/269 314/186/241 277/207/262
f 304/216/271 307/228/283 268/217/272
f 327/218/273 325/208/263 288/209/264
f 261/210/265 300/245/300 337/496/637
f 287/202/257 326/495/636 328/222/277
f 279/221/276 316/220/275 318/415/638
f 308/497/639 306/224/279 269/225/280
f 280/231/286 319/237/292 317/214/269
f 270/229/284 307/228/283 309/417/640
f 292/232/287 329/242/297 327/218/273
f 279/221/276 318/415/638 320/233/288
f 328/222/277 330/243/298 291/230/285
f 310/235/290 308/497/639 269/225/280
f 270/229/284 309/417/640 311/239/294
f 293/241/296 331/253/304 329/242/297
f 330/243/298 332/498/641 294/244/299
f 321/250/303 319/237/292 282/238/293
f 281/234/289 320/233/288 322/246/301
f 302/226/281 301/189/244 262/227/282
f 273/187/242 312/493/634 310/248/290
f 311/251/294 313/494/635 274/195/250
f 295/200/255 333/386/633 331/253/304
f 263/185/240 303/184/239 300/245/300
f 294/244/299 332/498/641 334/254/305
f 341/256/307 345/263/307 344/257/307
f 341/259/308 339/262/308 343/260/308
f 340/259/309 344/261/309 342/260/309
f 339/258/310 338/256/310 342/263/310
f 338/81/311 339/75/311 341/76/311
f 348/258/312 349/256/312 353/263/312
f 353/261/313 349/259/313 347/262/313
f 352/261/314 350/260/314 346/262/314
f 347/258/315 346/256/315 350/263/315
f 348/74/316 346/81/316 347/75/316
f 357/256/317 361/263/317 360/257/317
f 357/259/318 355/262/318 359/260/318
f 356/259/319 360/261/319 358/260/319
f 355/258/320 354/256/320 358/263/320
f 354/81/321 355/75/321 357/76/321
f 365/256/322 369/263/322 368/257/322
f 365/259/323 363/262/323 367/260/323
f 364/259/324 368/261/324 366/260/324
f 362/256/325 366/263/325 367/257/325
f 362/81/326 363/75/326 365/76/326
f 373/256/327 377/263/327 376/257/327
f 373/259/328 371/262/328 375/260/328
f 372/259/329 376/261/329 374/260/329
f 371/258/330 370/256/330 374/263/330
f 370/81/331 371/75/331 373/76/331
f 380/258/332 381/256/332 385/263/332
f 385/261/333 381/259/333 379/262/333
f 384/261/334 382/260/334 378/262/334
f 378/256/335 382/263/335 383/257/335
f 378/81/336 379/75/336 381/76/336
f 388/258/337 389/256/337 393/263/337
f 389/259/309 387/262/309 391/260/309
f 388/259/308 392/261/308 390/260/308
f 387/258/338 386/256/338 390/263/338
f 386/81/339 387/75/339 389/76/339
f 396/258/340 397/256/340 401/263/340
f 401/261/314 397/259/314 395/262/314
f 400/261/313 398/260/313 394/262/313
f 394/256/341 398/263/341 399/257/341
f 394/81/342 395/75/342 397/76/342
f 404/258/343 405/256/343 409/263/343
f 405/259/319 403/262/319 407/260/319
f 404/259/318 408/261/318 406/260/318
f 403/258/344 402/256/344 406/263/344
f 402/81/345 403/75/345 405/76/345
f 412/258/346 413/256/346 417/263/346
f 413/259/324 411/262/324 415/260/324
f 412/259/323 416/261/323 414/260/323
f 410/256/347 414/263/347 415/257/347
f 410/81/348 411/75/348 413/76/348
f 420/258/349 421/256/349 425/263/349
f 421/259/329 419/262/329 423/260/329
f 420/259/328 424/261/328 422/260/328
f 418/256/350 422/263/350 423/257/350
f 420/74/351 418/81/351 419/75/351
f 429/256/352 433/263/352 432/257/352
f 433/261/334 429/259/334 427/262/334
f 432/261/333 430/260/333 426/262/333
f 427/258/353 426/256/353 430/263/353
f 426/81/354 427/75/354 429/76/354
f 446/275/366 445/280/371 453/279/370
f 452/285/374 457/296/385 458/286/375
f 438/264/355 450/282/359 451/265/356
f 444/278/369 443/433/391 452/271/362
f 436/267/358 448/274/365 450/268/359
f 442/270/361 441/284/373 451/265/356
f 435/272/363 434/283/372 449/273/364
f 446/275/366 453/279/370 449/273/364
f 444/278/369 452/271/362 453/279/370
f 443/433/391 442/270/361 452/271/362
f 436/267/358 435/272/363 448/274/365
f 450/288/377 448/297/386 454/289/378
f 453/291/380 459/287/376 460/295/384
f 450/288/377 455/290/379 456/292/381
f 449/294/383 453/291/380 460/295/384
f 462/299/388 463/303/389 446/302/366
f 463/305/389 464/308/390 444/306/369
f 464/308/390 465/311/392 442/310/361
f 465/311/392 466/314/393 440/313/368
f 466/314/393 467/317/394 438/316/355
f 467/317/394 468/323/396 436/319/358
f 468/320/102 467/325/102 474/321/102
f 468/323/396 462/299/388 434/301/372
f 467/325/102 466/327/102 473/326/397
f 466/327/102 465/330/102 472/328/398
f 464/329/102 471/331/399 472/328/398
f 463/281/102 470/499/102 471/331/399
f 468/320/102 475/322/395 469/332/400
f 463/334/102 462/333/102 469/332/400
f 471/341/399 478/469/607 472/468/398
f 471/341/399 479/340/404 478/469/607
f 474/336/401 477/336/405 476/337/402
f 470/339/403 480/346/406 479/340/404
f 473/342/397 691/472/605 477/343/405
f 484/349/410 485/111/642 482/348/408
f 484/349/410 486/351/412 485/111/642
f 487/350/411 488/115/414 486/351/412
f 489/116/413 490/500/643 488/115/414
f 489/116/413 491/352/416 490/500/643
f 492/121/415 493/354/418 491/501/416
f 494/353/417 495/355/420 493/354/418
f 496/123/419 497/124/422 495/355/420
f 498/356/421 499/358/424 497/124/422
f 500/357/423 501/359/426 499/358/424
f 502/130/425 503/360/428 501/359/426
f 504/132/427 505/133/430 503/360/428
f 506/134/429 507/361/432 505/133/430
f 508/136/431 509/138/436 510/137/433
f 509/138/436 511/139/435 510/137/433
f 513/141/437 514/502/644 511/139/435
f 513/141/437 515/362/439 514/502/644
f 516/143/438 517/363/441 515/362/439
f 481/110/409 519/490/645 517/363/441
f 481/110/409 482/348/408 519/490/645
f 523/364/442 522/148/445 521/365/443
f 522/148/445 525/151/447 524/367/446
f 525/151/447 527/153/449 526/368/448
f 527/153/449 529/155/451 528/369/450
f 529/155/451 531/370/453 530/154/452
f 531/370/453 533/372/455 532/371/454
f 533/372/455 535/491/646 534/373/456
f 535/491/646 536/374/457 534/373/456
f 536/374/457 538/163/459 537/375/458
f 538/163/459 540/377/461 539/376/460
f 540/377/461 542/379/463 541/378/462
f 542/379/463 544/169/465 543/166/464
f 544/169/465 546/171/467 545/168/466
f 546/171/467 548/492/469 547/380/468
f 548/173/469 550/176/471 549/172/470
f 550/176/471 552/382/473 551/381/472
f 552/382/473 554/383/475 553/177/474
f 554/383/475 556/385/477 555/384/476
f 504/194/550 541/429/549 543/193/497
f 494/187/490 532/428/548 534/186/491
f 486/395/493 525/216/514 522/189/494
f 506/192/496 504/194/550 543/193/497
f 495/396/499 497/402/507 535/196/500
f 518/198/647 516/200/478 555/387/480
f 507/398/502 546/408/518 544/201/482
f 487/399/503 484/389/484 524/391/486
f 517/392/487 556/405/512 554/393/488
f 481/210/509 518/198/647 555/387/480
f 498/401/505 534/186/491 537/412/522
f 488/217/513 527/228/528 525/216/514
f 508/209/506 545/208/498 547/406/515
f 497/402/507 499/414/524 536/403/508
f 507/398/502 510/223/648 548/407/517
f 487/399/503 526/400/504 528/409/519
f 482/411/521 523/503/649 556/405/512
f 488/217/513 490/416/526 527/228/528
f 510/223/648 511/230/540 548/407/517
f 500/413/523 537/412/522 539/419/534
f 490/416/526 491/504/543 529/417/527
f 512/232/529 509/219/516 547/406/515
f 501/418/531 540/426/546 538/415/525
f 511/230/540 550/243/539 548/407/517
f 489/410/520 528/409/519 530/235/532
f 491/504/543 531/239/542 529/417/527
f 513/241/536 512/232/529 549/242/530
f 501/418/531 503/425/545 540/426/546
f 514/420/538 552/427/547 550/243/539
f 502/238/535 539/419/534 541/429/549
f 483/424/544 481/210/509 520/404/510
f 482/411/521 522/189/494 523/503/649
f 494/187/490 492/249/533 530/248/532
f 495/396/499 533/397/501 531/422/542
f 516/200/478 513/241/536 551/253/537
f 503/425/545 505/203/481 542/388/483
f 484/389/484 483/424/544 521/390/485
f 515/394/489 554/393/488 552/427/547
f 556/385/477 523/364/442 520/366/444
f 563/257/338 564/263/338 560/256/338
f 562/260/308 558/262/308 560/259/308
f 559/259/309 557/262/309 561/260/309
f 558/258/337 562/257/337 561/263/337
f 560/76/551 558/75/551 557/81/551
f 567/258/341 571/257/341 572/263/341
f 572/261/313 570/260/313 566/262/313
f 565/262/314 569/260/314 571/261/314
f 566/258/340 570/257/340 569/263/340
f 568/76/552 566/75/552 565/81/552
f 579/257/344 580/263/344 576/256/344
f 578/260/318 574/262/318 576/259/318
f 575/259/319 573/262/319 577/260/319
f 574/258/343 578/257/343 577/263/343
f 576/76/553 574/75/553 573/81/553
f 587/257/347 588/263/347 584/256/347
f 586/260/323 582/262/323 584/259/323
f 583/259/324 581/262/324 585/260/324
f 586/257/346 585/263/346 581/256/346
f 584/76/554 582/75/554 581/81/554
f 595/257/350 596/263/350 592/256/350
f 594/260/328 590/262/328 592/259/328
f 591/259/329 589/262/329 593/260/329
f 590/258/349 594/257/349 593/263/349
f 592/76/555 590/75/555 589/81/555
f 599/258/353 603/257/353 604/263/353
f 604/261/333 602/260/333 598/262/333
f 597/262/334 601/260/334 603/261/334
f 602/257/352 601/263/352 597/256/352
f 600/76/556 598/75/556 597/81/556
f 607/258/310 611/257/310 612/263/310
f 610/260/309 606/262/309 608/259/309
f 607/259/308 605/262/308 609/260/308
f 606/258/307 610/257/307 609/263/307
f 608/76/557 606/75/557 605/81/557
f 615/258/315 619/257/315 620/263/315
f 620/261/314 618/260/314 614/262/314
f 613/262/313 617/260/313 619/261/313
f 618/257/312 617/263/312 613/256/312
f 615/74/558 616/76/558 614/75/558
f 623/258/320 627/257/320 628/263/320
f 626/260/319 622/262/319 624/259/319
f 623/259/318 621/262/318 625/260/318
f 622/258/317 626/257/317 625/263/317
f 624/76/559 622/75/559 621/81/559
f 631/258/325 635/257/325 636/263/325
f 634/260/324 630/262/324 632/259/324
f 631/259/323 629/262/323 633/260/323
f 634/257/322 633/263/322 629/256/322
f 632/76/560 630/75/560 629/81/560
f 639/258/330 643/257/330 644/263/330
f 642/260/329 638/262/329 640/259/329
f 639/259/328 637/262/328 641/260/328
f 642/257/327 641/263/327 637/256/327
f 639/74/561 640/76/561 638/75/561
f 651/257/335 652/263/335 648/256/335
f 652/261/334 650/260/334 646/262/334
f 645/262/333 649/260/333 651/261/333
f 646/258/332 650/257/332 649/263/332
f 647/74/562 648/76/562 646/75/562
f 665/275/563 672/435/580 671/430/564
f 678/437/583 677/448/594 670/438/584
f 669/431/566 668/436/572 657/264/567
f 663/278/569 671/430/564 670/432/570
f 668/268/572 667/434/578 655/267/573
f 661/270/575 670/432/570 669/431/566
f 667/434/578 672/435/580 666/276/581
f 668/440/586 675/449/596 673/441/587
f 679/443/589 678/437/583 671/439/585
f 676/445/591 675/449/596 668/440/586
f 672/444/590 674/447/593 679/443/589
f 669/446/592 677/448/594 676/445/591
f 673/441/587 674/447/593 667/442/588
f 678/437/583 676/445/591 677/448/594
f 666/300/581 682/452/598 681/450/597
f 665/302/563 683/453/599 682/452/598
f 663/306/569 684/308/600 683/305/599
f 661/310/575 685/455/601 684/308/600
f 659/313/582 686/314/602 685/455/601
f 657/316/567 687/456/603 686/314/602
f 656/318/574 688/457/604 687/456/603
f 688/463/103 476/505/402 477/464/405
f 654/324/577 681/450/597 688/457/604
f 478/506/607 479/465/404 684/329/103
f 687/278/103 477/464/405 691/458/605
f 479/268/404 480/467/406 683/466/103
f 686/327/103 691/458/605 690/459/103
f 682/272/103 480/467/406 689/461/606
f 689/461/606 476/505/402 688/463/103
f 690/459/103 478/506/607 684/329/103
f 480/346/406 469/345/400 689/471/606
f 473/342/397 472/468/398 690/470/608
f 469/345/400 475/338/395 689/471/606
