# TyraX cylindrical impostor: select one part
mtllib waystone.mtl
# backend GPU views 16 size 128
usemtl view0
v -1.081 -0.10125 0
v 1.781 -0.10125 0
v 1.781 3.47625 0
v -1.081 3.47625 0
vt 0 0.75
vt 0.25 0.75
vt 0.25 1
vt 0 1
f 1/1 2/2 3/3
f 1/1 3/3 4/4
usemtl view1
v -1.31634 -0.10125 0
v 1.73345 -0.10125 0
v 1.73345 3.47625 0
v -1.31634 3.47625 0
vt 0.25 0.75
vt 0.5 0.75
vt 0.5 1
vt 0.25 1
f 5/5 6/6 7/7
f 5/5 7/7 8/8
usemtl view2
v -1.35128 -0.10125 0
v 1.42199 -0.10125 0
v 1.42199 3.47625 0
v -1.35128 3.47625 0
vt 0.5 0.75
vt 0.75 0.75
vt 0.75 1
vt 0.5 1
f 9/9 10/10 11/11
f 9/9 11/11 12/12
usemtl view3
v -1.18909 -0.10125 0
v 1.18909 -0.10125 0
v 1.18909 3.47625 0
v -1.18909 3.47625 0
vt 0.75 0.75
vt 1 0.75
vt 1 1
vt 0.75 1
f 13/13 14/14 15/15
f 13/13 15/15 16/16
usemtl view4
v -0.848 -0.10125 0
v 0.848 -0.10125 0
v 0.848 3.47625 0
v -0.848 3.47625 0
vt 0 0.5
vt 0.25 0.5
vt 0.25 0.75
vt 0 0.75
f 17/17 18/18 19/19
f 17/17 19/19 20/20
usemtl view5
v -1.18909 -0.10125 0
v 1.18909 -0.10125 0
v 1.18909 3.47625 0
v -1.18909 3.47625 0
vt 0.25 0.5
vt 0.5 0.5
vt 0.5 0.75
vt 0.25 0.75
f 21/21 22/22 23/23
f 21/21 23/23 24/24
usemtl view6
v -1.42199 -0.10125 0
v 1.35128 -0.10125 0
v 1.35128 3.47625 0
v -1.42199 3.47625 0
vt 0.5 0.5
vt 0.75 0.5
vt 0.75 0.75
vt 0.5 0.75
f 25/25 26/26 27/27
f 25/25 27/27 28/28
usemtl view7
v -1.73345 -0.10125 0
v 1.31634 -0.10125 0
v 1.31634 3.47625 0
v -1.73345 3.47625 0
vt 0.75 0.5
vt 1 0.5
vt 1 0.75
vt 0.75 0.75
f 29/29 30/30 31/31
f 29/29 31/31 32/32
usemtl view8
v -1.781 -0.10125 0
v 1.081 -0.10125 0
v 1.081 3.47625 0
v -1.781 3.47625 0
vt 0 0.25
vt 0.25 0.25
vt 0.25 0.5
vt 0 0.5
f 33/33 34/34 35/35
f 33/33 35/35 36/36
usemtl view9
v -1.73345 -0.10125 0
v 1.31634 -0.10125 0
v 1.31634 3.47625 0
v -1.73345 3.47625 0
vt 0.25 0.25
vt 0.5 0.25
vt 0.5 0.5
vt 0.25 0.5
f 37/37 38/38 39/39
f 37/37 39/39 40/40
usemtl view10
v -1.42199 -0.10125 0
v 1.35128 -0.10125 0
v 1.35128 3.47625 0
v -1.42199 3.47625 0
vt 0.5 0.25
vt 0.75 0.25
vt 0.75 0.5
vt 0.5 0.5
f 41/41 42/42 43/43
f 41/41 43/43 44/44
usemtl view11
v -1.18909 -0.10125 0
v 1.18909 -0.10125 0
v 1.18909 3.47625 0
v -1.18909 3.47625 0
vt 0.75 0.25
vt 1 0.25
vt 1 0.5
vt 0.75 0.5
f 45/45 46/46 47/47
f 45/45 47/47 48/48
usemtl view12
v -0.848 -0.10125 0
v 0.848 -0.10125 0
v 0.848 3.47625 0
v -0.848 3.47625 0
vt 0 0
vt 0.25 0
vt 0.25 0.25
vt 0 0.25
f 49/49 50/50 51/51
f 49/49 51/51 52/52
usemtl view13
v -1.18909 -0.10125 0
v 1.18909 -0.10125 0
v 1.18909 3.47625 0
v -1.18909 3.47625 0
vt 0.25 0
vt 0.5 0
vt 0.5 0.25
vt 0.25 0.25
f 53/53 54/54 55/55
f 53/53 55/55 56/56
usemtl view14
v -1.35128 -0.10125 0
v 1.42199 -0.10125 0
v 1.42199 3.47625 0
v -1.35128 3.47625 0
vt 0.5 0
vt 0.75 0
vt 0.75 0.25
vt 0.5 0.25
f 57/57 58/58 59/59
f 57/57 59/59 60/60
usemtl view15
v -1.31634 -0.10125 0
v 1.73345 -0.10125 0
v 1.73345 3.47625 0
v -1.31634 3.47625 0
vt 0.75 0
vt 1 0
vt 1 0.25
vt 0.75 0.25
f 61/61 62/62 63/63
f 61/61 63/63 64/64
